<?xml version="1.0" encoding="UTF-8"?>
<svg width="89px" height="36px" viewBox="0 0 89 36" version="1.1" xmlns="http://www.w3.org/2000/svg" xmlns:xlink="http://www.w3.org/1999/xlink">
    <!-- Generator: sketchtool 50.2 (55047) - http://www.bohemiancoding.com/sketch -->
    <title>641DF430-CDA9-44AF-9D21-E737A19EE37F</title>
    <desc>Created with sketchtool.</desc>
    <defs></defs>
    <g id="Mockups" stroke="none" stroke-width="1" fill="none" fill-rule="evenodd" opacity="0.4">
        <g id="homepage" transform="translate(-242.000000, -5894.000000)" fill-rule="nonzero">
            <g id="div-featured" transform="translate(86.000000, 5892.000000)">
                <g id="CNN-logo" transform="translate(156.000000, 2.000000)">
                    <path d="M6.59259259,18.0075801 C6.59259259,24.6096147 12.7217336,29.98068 20.2555772,29.98068 L33.0175821,29.98068 C33.8190614,29.98068 34.4406429,29.3130734 34.4406429,28.7381348 L34.4406429,6.79732728 C34.4406429,5.41128265 35.7274935,4.28328115 37.3087891,4.28328115 C38.3232166,4.28328115 39.2686163,4.75462367 39.7752811,5.51391692 C39.8387973,5.60948136 43.7026485,11.447059 47.7930202,17.6279335 C51.7012955,23.5340456 55.7432073,29.6412525 55.8067235,29.7371213 C56.011225,30.0427729 56.4110447,30.24 56.8259234,30.24 C57.48311,30.24 58.0180446,29.7715544 58.0180446,29.1953202 L58.0180446,6.79732728 C58.0180446,5.41128265 59.3041614,4.28328115 60.8861962,4.28328115 C61.900621,4.28328115 62.8460207,4.75462367 63.3523159,5.51391692 C63.4165713,5.60948136 67.2771123,11.447059 71.3649239,17.6282585 C75.2695194,23.5330834 79.3077623,29.6386686 79.372746,29.7371213 C79.5772475,30.0427729 79.9770672,30.24 80.3919459,30.24 C81.0491433,30.24 81.5833333,29.7715544 81.5833333,29.1953202 L81.5833333,0.15668541 L76.5530679,0.15668541 L76.5530679,17.4419692 C76.5530679,17.4419692 67.4386599,3.69449826 67.1434703,3.25243477 C65.8129321,1.25927634 63.2899004,0 60.604598,0 C56.398198,0 52.9870454,2.99054325 52.9870454,6.67635176 L52.9870454,17.4419695 C52.9870454,17.4419695 43.8729989,3.69449862 43.5774505,3.25243514 C42.2469069,1.25927634 39.7238805,0 37.0385728,0 C32.8321782,0 29.4210202,2.99054325 29.4210202,6.67635176 L29.4210202,24.3663806 C29.4235885,25.0101759 28.8714017,25.5712799 28.0673487,25.572566 L20.3095487,25.572566 C15.5421523,25.572566 11.6772018,22.1856557 11.6772018,18.0075807 C11.6772018,13.8295163 15.5421523,10.4425954 20.3095487,10.4425954 L26.80767,10.4425954 L26.80767,6.03448967 L20.2555772,6.03448967 C12.7217336,6.03448967 6.59259259,11.4055549 6.59259259,18.0075801" id="Shape" fill="#212121"></path>
                    <path d="M83.9352405,0 L83.9352405,29.171628 C83.9352405,30.5643197 82.6403948,31.6971597 81.0476349,31.6971597 C80.0263295,31.6971597 79.0745118,31.2236623 78.5644078,30.4612159 C78.5004716,30.365225 74.6130012,24.5006527 70.498207,18.2915387 C66.5663832,12.3600525 62.5018579,6.22592114 62.4353198,6.1273463 C62.2301754,5.820306 61.8268996,5.6218531 61.4092123,5.6218531 C60.7475627,5.6218531 60.2097385,6.09243948 60.2097385,6.67098094 L60.2097385,29.1716286 C60.2097385,30.5643203 58.9141649,31.6971603 57.3217689,31.6971603 C56.3004635,31.6971603 55.3493901,31.2236629 54.8385472,30.4612165 C54.7746056,30.3652256 50.8845495,24.5009692 46.7664254,18.2915393 C42.8312744,12.3587612 38.7623166,6.22366321 38.6979947,6.1273469 C38.4921089,5.8203066 38.0895746,5.6218537 37.6718873,5.6218537 C37.010235,5.6218537 36.4724135,6.09244007 36.4724135,6.67098154 L36.4724135,28.7123456 C36.4724135,30.1635476 35.0141992,31.4366561 33.351946,31.4366561 L20.5033723,31.4366561 C11.9876859,31.4366561 5.05921597,25.3791234 5.05921597,17.9324508 C5.05921597,10.4864288 11.9876866,4.42858152 20.5033723,4.42858152 L27.0995385,4.42858152 L27.0995385,0 L20.5092892,0 C9.18251212,0 0,8.02845062 0,17.9324497 C0,27.8367842 9.18251212,35.86555 20.5092892,35.86555 L33.4809482,35.86555 C38.3948955,35.8678085 41.554917,33.3503563 41.5482681,28.7068514 L41.5482681,18.4783529 C41.5482681,18.4783529 50.7899218,32.386882 51.022053,32.7330304 C52.361616,34.7349709 54.9017609,36 57.6052772,36 C61.8405777,36 65.274134,32.9958032 65.274134,29.2934698 L65.274134,18.4783529 C65.274134,18.4783529 74.4503632,32.2889484 74.7475496,32.7330304 C76.0874819,34.7349709 78.6276269,36 81.3311431,36 C85.5660743,36 89,32.9958032 89,29.2934698 L89,0 L83.9352405,0 Z" id="Shape" fill="#212121"></path>
                    <path d="M4.94444444,17.9229251 C4.94444444,25.3653176 11.8931929,31.4199582 20.4342617,31.4199582 L33.3211239,31.4199582 C34.9883369,31.4199582 36.4512706,30.1475282 36.4512706,28.6967789 L36.4512706,6.66743764 C36.4512706,6.08920286 36.9906951,5.61886642 37.654314,5.61886642 C38.0732516,5.61886642 38.4769803,5.81688873 38.6834852,6.12376596 C38.7476255,6.22035689 42.8290788,12.3521964 46.7759639,18.2818253 C50.9063567,24.4876404 54.8076312,30.3487727 54.8721448,30.4450402 C55.3841342,31.2070816 56.3380424,31.68 57.3623918,31.68 C58.9599099,31.68 60.2593395,30.5477617 60.2593395,29.1558097 L60.2593395,6.66743764 C60.2593395,6.08920286 60.7987667,5.61886642 61.4623938,5.61886642 C61.8813205,5.61886642 62.2854333,5.81688873 62.4915595,6.12376596 C62.5579201,6.22261423 66.6349302,12.353172 70.5784728,18.2815001 C74.7055312,24.4873152 78.6042123,30.3487727 78.6687259,30.4450402 C79.1803503,31.2070816 80.134618,31.68 81.1589674,31.68 C82.756491,31.68 84.0555556,30.5477617 84.0555556,29.1558097 L84.0555556,0 L82.3620272,0 L82.3620272,29.1558093 C82.3620272,29.7343687 81.8225945,30.2047045 81.1589674,30.2047045 C80.7400462,30.2047045 80.3363039,30.0066816 80.1298017,29.6997967 C80.0638171,29.6009467 75.9864365,23.4707248 72.0436349,17.5420732 C67.9158355,11.3359318 64.0175194,5.47479826 63.9526408,5.3788488 C63.4410164,4.61649172 62.4867432,4.14324728 61.4623938,4.14324728 C59.8648757,4.14324728 58.5658111,5.27580039 58.5658111,6.66743788 L58.5658111,29.1558099 C58.5658111,29.7343693 58.0260134,30.2047051 57.3623918,30.2047051 C56.9434596,30.2047051 56.5397282,30.0066822 56.333226,29.6997973 C56.269083,29.6035416 52.1876325,23.4716914 48.2407446,17.5417474 C44.1103546,11.3359324 40.2090746,5.47480005 40.1445637,5.37884939 C39.6329475,4.61649231 38.6786662,4.14324787 37.654314,4.14324787 C36.0571746,4.14324787 34.7581073,5.27580098 34.7581073,6.66743847 L34.7581073,28.6967803 C34.7581073,29.2740389 34.1304445,29.9443393 33.3211239,29.9443393 L20.4342617,29.9443393 C12.8267106,29.9443393 6.63760504,24.5516012 6.63760504,17.9229266 C6.63760504,11.2942614 12.8267106,5.90152331 20.4342617,5.90152331 L27.0500865,5.90152331 L27.0500865,4.42590251 L20.4342617,4.42590251 C11.8931932,4.42590251 4.94444444,10.4805422 4.94444444,17.9229251" id="Shape" fill="#FFFFFF"></path>
                </g>
            </g>
        </g>
    </g>
</svg>