<?xml version="1.0" encoding="UTF-8"?>
<svg width="105px" height="30px" viewBox="0 0 105 30" version="1.1" xmlns="http://www.w3.org/2000/svg" xmlns:xlink="http://www.w3.org/1999/xlink">
    <!-- Generator: sketchtool 50.2 (55047) - http://www.bohemiancoding.com/sketch -->
    <title>CB04F7C9-2B99-4D70-A4E1-454A17270804</title>
    <desc>Created with sketchtool.</desc>
    <defs></defs>
    <g id="Mockups" stroke="none" stroke-width="1" fill="none" fill-rule="evenodd" opacity="0.4">
        <g id="homepage" transform="translate(-405.000000, -5897.000000)" fill="#212121" fill-rule="nonzero">
            <g id="div-featured" transform="translate(86.000000, 5892.000000)">
                <g id="ft-logo" transform="translate(319.000000, 5.000000)">
                    <path d="M0,30 L0,0 L34.7963386,0 L34.7963386,30 L0,30 Z M11.3499213,17.2085714 C9.48885827,17.1564286 9.03082677,16.9985714 9.03082677,15.5778571 L9.06141732,11.1064286 L10.2205512,11.1064286 C12.2345669,11.1064286 13.1498031,11.5264286 13.4862992,13.105 L14.0956299,13.105 L14.0956299,8.34357143 L13.4854724,8.34357143 C13.1803937,9.73785714 12.6620079,10.1321429 10.2205512,10.1321429 L9.06141732,10.1321429 L9.06141732,5.81785714 C9.06141732,5.26571429 9.21354331,5.13428571 9.94606299,5.13428571 L12.3263386,5.13428571 C15.377126,5.13428571 15.9872835,5.63428571 16.5370866,7.13357143 L17.1778346,7.13357143 L17.086063,4.16071429 L3.99661417,4.16071429 L3.99661417,4.68714286 C5.46082677,4.73928571 5.91885827,4.89714286 5.91885827,6.31785714 L5.91885827,15.5778571 C5.91885827,16.9985714 5.46082677,17.1564286 3.9346063,17.2085714 L3.9346063,17.735 L11.350748,17.735 L11.350748,17.2085714 L11.3499213,17.2085714 Z M32.2201181,7.18571429 L31.8852756,4.18642857 L18.154252,4.18642857 L17.8185827,7.15928571 L18.6122835,7.15928571 C19.1000787,5.71214286 19.863189,5.16 21.5109449,5.16 L23.433189,5.16 L23.433189,15.5514286 C23.433189,16.9714286 22.9751575,17.13 21.2364567,17.1821429 L21.2364567,17.7085714 L28.8030709,17.7085714 L28.8030709,17.1821429 C27.0337795,17.1292857 26.6063386,16.9714286 26.6063386,15.5514286 L26.6063386,5.18714286 L28.5285827,5.18714286 C30.1763386,5.18714286 30.9080315,5.71285714 31.4272441,7.18571429 L32.2209449,7.18571429 L32.2201181,7.18571429 Z M42.1306299,17.5821429 C42.1306299,18.2507143 42.3447638,18.3021429 43.2633071,18.3278571 L43.2633071,18.5592857 L39.7106693,18.5592857 L39.7106693,18.3278571 C40.4464961,18.3021429 40.6606299,18.225 40.6606299,17.5821429 L40.6606299,13.2621429 C40.6606299,12.5935714 40.4456693,12.5421429 39.7412598,12.5164286 L39.7412598,12.2857143 L45.9883465,12.2857143 L46.018937,13.6742857 L45.7130315,13.6742857 C45.4683071,12.98 45.1615748,12.7485714 43.6915748,12.7485714 L42.5291339,12.7485714 C42.1612205,12.7485714 42.1000394,12.8 42.1000394,13.0828571 L42.1000394,15.0885714 L43.3864961,15.0885714 C44.5811811,15.0885714 44.8250787,14.9085714 44.9482677,14.2657143 L45.2235827,14.2657143 L45.2235827,16.5028571 L44.9482677,16.5028571 C44.795315,15.7571429 44.3364567,15.5514286 43.3864961,15.5514286 L42.0992126,15.5514286 L42.0992126,17.5828571 L42.1298031,17.5828571 L42.1306299,17.5821429 Z M49.5409843,17.5821429 C49.5409843,18.2507143 49.7559449,18.3021429 50.6736614,18.3278571 L50.6736614,18.5592857 L46.9383071,18.5592857 L46.9383071,18.3278571 C47.8262598,18.3021429 48.0709843,18.225 48.0709843,17.5821429 L48.0709843,13.2621429 C48.0709843,12.5935714 47.8874409,12.5421429 46.9383071,12.5164286 L46.9383071,12.2857143 L50.6736614,12.2857143 L50.6736614,12.5171429 C49.7857087,12.5428571 49.5409843,12.62 49.5409843,13.2628571 L49.5409843,17.5828571 L49.5409843,17.5821429 Z M58.4213386,13.4164286 C58.4213386,12.7992857 58.2377953,12.5421429 57.3804331,12.465 L57.3804331,12.2342857 L60.0451181,12.2342857 L60.0451181,12.465 C59.2183465,12.5421429 59.0033858,12.7992857 59.0033858,13.4164286 L59.0033858,18.6878571 L58.6057087,18.6878571 L53.4607087,13.6992857 L53.4607087,17.3507143 C53.4607087,17.9678571 53.644252,18.225 54.5024409,18.3021429 L54.5024409,18.5335714 L51.8377559,18.5335714 L51.8377559,18.3021429 C52.6645276,18.225 52.8794882,17.9678571 52.8794882,17.3507143 L52.8794882,13.1335714 C52.633937,12.7478571 52.3280315,12.5678571 51.8377559,12.4907143 L51.8377559,12.2592857 L53.8898031,12.2592857 L58.390748,16.6307143 L58.390748,13.4164286 L58.4213386,13.4164286 Z M67.8233858,18.5592857 L64.6072441,18.5592857 L64.6072441,18.3278571 C65.1281102,18.3278571 65.404252,18.225 65.404252,17.9164286 C65.404252,17.685 65.0363386,16.965 64.9445669,16.7592857 L62.2187008,16.7592857 C62.1575197,16.9392857 61.7904331,17.6592857 61.7904331,17.9164286 C61.7904331,18.225 62.0351575,18.3278571 62.5560236,18.3278571 L62.5560236,18.5592857 L60.1368898,18.5592857 L60.1368898,18.3278571 C60.595748,18.2507143 60.8718898,18.1478571 61.0546063,17.7364286 L63.8118898,12.1057143 L64.1789764,12.1057143 L66.8428346,17.5564286 C67.1189764,18.1478571 67.2413386,18.3278571 67.8233858,18.3278571 L67.8233858,18.5592857 Z M62.4328346,16.2964286 L64.6998425,16.2964286 L63.5671654,13.8021429 L62.4336614,16.2964286 L62.4328346,16.2964286 Z M75.1419685,13.4164286 C75.1419685,12.7992857 74.9584252,12.5421429 74.1002362,12.465 L74.1002362,12.2335714 L76.7649213,12.2335714 L76.7649213,12.465 C75.9381496,12.5421429 75.723189,12.7992857 75.723189,13.4164286 L75.723189,18.6878571 L75.3263386,18.6878571 L70.1813386,13.6992857 L70.1813386,17.3507143 C70.1813386,17.9678571 70.3648819,18.225 71.2222441,18.3021429 L71.2222441,18.5335714 L68.5583858,18.5335714 L68.5583858,18.3021429 C69.3851575,18.225 69.5992913,17.9678571 69.5992913,17.3507143 L69.5992913,13.1335714 C69.3545669,12.7478571 69.0478346,12.5678571 68.5575591,12.4907143 L68.5575591,12.2592857 L70.6096063,12.2592857 L75.111378,16.6307143 L75.1419685,13.4164286 Z M84.666378,17.0935714 C83.8701969,18.225 82.8284646,18.7392857 81.2972835,18.7392857 C78.8475591,18.7392857 77.3783858,17.4021429 77.3783858,15.3707143 C77.3783858,13.9307143 78.7251969,12.105 81.3584646,12.105 C82.1546457,12.105 83.2575591,12.4907143 83.4411024,12.4907143 C83.656063,12.4907143 83.7164173,12.3878571 83.931378,12.105 L84.3290551,12.105 L84.4820079,14.2135714 L84.1761024,14.2135714 C83.7164173,13.2364286 82.9508268,12.5164286 81.6346063,12.5164286 C79.857874,12.5164286 79.0922835,14.1364286 79.0922835,15.345 C79.0922835,17.0421429 79.9496457,18.1992857 81.8487402,18.1992857 C83.3187402,18.1992857 84.1140945,17.2735714 84.4514173,16.8878571 L84.666378,17.0935714 Z M88.2793701,17.5821429 C88.2793701,18.2507143 88.4943307,18.3021429 89.4120472,18.3278571 L89.4120472,18.5592857 L85.6766929,18.5592857 L85.6766929,18.3278571 C86.5646457,18.3021429 86.8093701,18.225 86.8093701,17.5821429 L86.8093701,13.2621429 C86.8093701,12.5935714 86.5952362,12.5421429 85.6766929,12.5164286 L85.6766929,12.2857143 L89.412874,12.2857143 L89.412874,12.5171429 C88.5249213,12.5428571 88.2801969,12.62 88.2801969,13.2628571 L88.2801969,17.5828571 L88.2793701,17.5821429 Z M97.8947244,18.5592857 L94.6802362,18.5592857 L94.6802362,18.3278571 C95.2011024,18.3278571 95.4764173,18.225 95.4764173,17.9164286 C95.4764173,17.685 95.1085039,16.965 95.0167323,16.7592857 L92.2908661,16.7592857 C92.229685,16.9392857 91.8625984,17.6592857 91.8625984,17.9164286 C91.8625984,18.225 92.1073228,18.3278571 92.628189,18.3278571 L92.628189,18.5592857 L90.2090551,18.5592857 L90.2090551,18.3278571 C90.6679134,18.2507143 90.9440551,18.1478571 91.1275984,17.7364286 L93.8840551,12.105 L94.2511417,12.105 L96.9158268,17.5564286 C97.1911417,18.1478571 97.3135039,18.3278571 97.8955512,18.3278571 L97.8955512,18.5592857 L97.8947244,18.5592857 Z M92.5058268,16.2964286 L94.7711811,16.2964286 L93.6385039,13.8021429 L92.5058268,16.2964286 Z M98.5693701,18.5592857 L98.5693701,18.3278571 C99.2737795,18.3021429 99.4870866,18.225 99.4870866,17.5821429 L99.4870866,13.2621429 C99.4870866,12.5935714 99.2737795,12.5421429 98.5693701,12.5164286 L98.5693701,12.2857143 L102.029409,12.2857143 L102.029409,12.5171429 C101.202638,12.5428571 100.987677,12.62 100.987677,13.2628571 L100.987677,17.7114286 C100.987677,18.0971429 101.110866,18.2257143 101.937638,18.2257143 C103.285276,18.2257143 104.081457,18.02 104.723858,16.9142857 L105,16.9142857 L104.479134,18.6114286 L98.508189,18.6114286 L98.508189,18.56 L98.5693701,18.56 L98.5693701,18.5592857 Z M41.3030315,28.5357143 C42.1603937,28.51 42.3753543,28.4328571 42.3753543,27.79 L42.3753543,22.93 L41.4559843,22.93 C40.598622,22.93 40.2315354,23.2385714 39.986811,24.0871429 L39.6809055,24.0871429 L39.863622,22.4678571 L46.478622,22.4678571 L46.6621654,24.0871429 L46.3562598,24.0871429 C46.1115354,23.2135714 45.7742126,22.93 44.8862598,22.93 L43.9677165,22.93 L43.9677165,27.79 C43.9677165,28.4585714 44.1826772,28.51 45.0392126,28.5357143 L45.0392126,28.7671429 L41.4262205,28.7671429 L41.4262205,28.5357143 L41.3030315,28.5357143 Z M50.0006693,27.79 C50.0006693,28.4585714 50.2148031,28.51 51.1333465,28.5357143 L51.1333465,28.7671429 L47.3971654,28.7671429 L47.3971654,28.5357143 C48.2851181,28.51 48.5298425,28.4328571 48.5298425,27.79 L48.5298425,23.4714286 C48.5298425,22.8028571 48.3157087,22.7514286 47.3971654,22.7257143 L47.3971654,22.4942857 L51.1341732,22.4942857 L51.1341732,22.7257143 C50.2453937,22.7514286 50.0006693,22.8285714 50.0006693,23.4714286 L50.0006693,27.7907143 L50.0006693,27.79 Z M59.0348031,22.4421429 L61.6374803,22.4421429 L61.6374803,22.6735714 C60.9330709,22.6992857 60.718937,22.7764286 60.718937,23.4185714 L60.718937,27.7642857 C60.718937,28.4328571 60.9330709,28.4842857 61.6366535,28.51 L61.6366535,28.7414286 L58.238622,28.7414286 L58.238622,28.51 C58.9727953,28.4842857 59.1877559,28.4071429 59.1877559,27.7642857 L59.1877559,23.3157143 L59.1571654,23.3157143 L56.6454331,28.8442857 L56.2783465,28.8442857 L53.7980315,23.3157143 L53.7674409,23.3157143 L53.7674409,27.5842857 C53.7674409,28.2014286 53.9509843,28.4585714 54.8083465,28.5357143 L54.8083465,28.7671429 L52.1444882,28.7671429 L52.1444882,28.5357143 C52.9712598,28.4585714 53.1853937,28.2014286 53.1853937,27.5842857 L53.1853937,23.2642857 C53.1853937,22.8271429 52.9704331,22.6728571 52.1436614,22.6728571 L52.1436614,22.4414286 L54.8695276,22.4414286 L56.8603937,26.8385714 L59.0348031,22.4414286 L59.0348031,22.4421429 Z M62.6783858,28.7671429 L62.6783858,28.5357143 C63.3827953,28.51 63.5969291,28.4328571 63.5969291,27.79 L63.5969291,23.4714286 C63.5969291,22.8028571 63.3827953,22.7514286 62.6792126,22.7257143 L62.6792126,22.4942857 L68.9568898,22.4942857 L68.9874803,23.8828571 L68.6815748,23.8828571 C68.4360236,23.1885714 68.1301181,22.9571429 66.6601181,22.9571429 L65.4960236,22.9571429 C65.128937,22.9571429 65.0677559,23.0085714 65.0677559,23.2914286 L65.0677559,25.2964286 L66.3533858,25.2964286 C67.5480709,25.2964286 67.7927953,25.1164286 67.9159843,24.4742857 L68.1912992,24.4742857 L68.1912992,26.7107143 L67.9151575,26.7107143 C67.7622047,25.965 67.3033465,25.785 66.3533858,25.785 L65.0677559,25.785 L65.0677559,27.9707143 C65.0677559,28.3564286 65.1901181,28.485 66.5377559,28.485 C67.8853937,28.485 68.680748,28.2792857 69.3239764,27.1735714 L69.6001181,27.1735714 L69.079252,28.8707143 L62.6172047,28.8707143 L62.6172047,28.7678571 L62.6783858,28.7678571 L62.6783858,28.7671429 Z M70.6401969,26.7871429 L70.9163386,26.7871429 C71.2222441,27.61 72.2027953,28.51 73.3057087,28.51 C74.2540157,28.51 74.5913386,27.9442857 74.5913386,27.4557143 C74.5913386,25.9907143 70.6716142,25.7335714 70.6716142,23.9335714 C70.6716142,23.0592857 71.6513386,22.3135714 72.8146063,22.3135714 C73.9472835,22.3135714 74.3457874,22.6478571 74.836063,22.6478571 C75.0510236,22.6478571 75.2039764,22.5192857 75.2345669,22.3135714 L75.5098819,22.3135714 L75.5098819,24.345 L75.2345669,24.345 C74.9286614,23.4192857 74.1316535,22.7507143 73.1213386,22.7507143 C72.2945669,22.7507143 71.9572441,23.2135714 71.9572441,23.6507143 C71.9572441,24.9364286 75.8769685,24.9621429 75.8769685,27.1985714 C75.8769685,28.2014286 74.9278346,28.9471429 73.5496063,28.9471429 C72.2333858,28.9471429 71.896063,28.5614286 71.3751969,28.5614286 C71.1916535,28.5614286 71.0692913,28.6642857 70.9783465,28.8957143 L70.5798425,28.8957143 L70.6410236,26.7871429 L70.6401969,26.7871429 Z" id="Shape"></path>
                </g>
            </g>
        </g>
    </g>
</svg>