<?xml version="1.0" encoding="UTF-8"?>
<svg width="101px" height="23px" viewBox="0 0 101 23" version="1.1" xmlns="http://www.w3.org/2000/svg" xmlns:xlink="http://www.w3.org/1999/xlink">
    <!-- Generator: sketchtool 50.2 (55047) - http://www.bohemiancoding.com/sketch -->
    <title>AEE9DAD0-8341-43E0-BC2C-C500363002A7</title>
    <desc>Created with sketchtool.</desc>
    <defs></defs>
    <g id="Mockups" stroke="none" stroke-width="1" fill="none" fill-rule="evenodd" opacity="0.4">
        <g id="homepage" transform="translate(-584.000000, -5901.000000)" fill="#212121" fill-rule="nonzero">
            <g id="div-featured" transform="translate(86.000000, 5892.000000)">
                <g id="forbes-logo" transform="translate(498.000000, 9.000000)">
                    <path d="M25.0943607,22.93675 C23.3334836,22.7139375 21.7936475,22.0649062 20.6180738,21.0514688 C19.6370492,20.2055 19.0012459,19.2754375 18.5318443,18.0010938 C17.8000082,16.0115938 17.8000082,13.4535625 18.5318443,11.5043125 C19.2405,9.6154375 20.8366311,7.97165625 22.7904016,7.11778125 C25.495877,5.9354375 29.3040738,6.00946875 31.8092049,7.293875 C34.0643197,8.44890625 35.4303033,10.5016562 35.8102951,13.3069375 C35.9261967,14.1629688 35.8516885,15.9720625 35.6687295,16.7188438 C34.9203361,19.7749687 32.7422131,21.9096563 29.5507787,22.7139375 C29.2063852,22.8009063 28.6732377,22.90225 28.3652705,22.939625 C27.7137377,23.0186875 25.7243689,23.0165312 25.0951885,22.93675 L25.0943607,22.93675 Z M26.1498934,21.8025625 C26.6300574,21.9923125 27.510082,21.98225 28.0076311,21.781 C29.3794098,21.2246875 30.1145574,19.62475 30.3546393,16.675 C30.6882705,12.5644687 29.9142131,9.133875 28.3801721,7.9278125 C27.6889016,7.3844375 26.6151557,7.20690625 25.8394426,7.50734375 C24.7085738,7.94578125 23.9825328,9.24384375 23.6381393,11.4410625 C23.393918,13.0057812 23.4187541,16.1991875 23.6878115,17.63525 C24.1116803,19.9000313 24.9569344,21.3317812 26.1498934,21.8025625 Z M56.2793525,22.9360312 C55.5591066,22.8727812 53.3578033,22.5536562 52.5887131,22.4012813 L52.0572213,22.2963437 L52.0986148,19.8238437 C52.197959,13.8697187 52.2112049,10.62025 52.1466311,7.4591875 C52.0828852,4.3628125 52.0638443,4.03578125 51.9272459,3.5779375 C51.7533934,2.9971875 51.5025492,2.59325 51.2012049,2.40565625 C51.0836475,2.3330625 50.764918,2.23028125 50.493377,2.17709375 C49.5893443,2.00028125 49.6381885,2.0283125 49.6141803,1.66965625 C49.6001066,1.46265625 49.6257705,1.32609375 49.6870328,1.2836875 C49.7681639,1.227625 57.1842131,-0.002875 57.4193279,-3.19190814e-16 C57.488041,0.00071875 57.4971475,0.8265625 57.462377,3.6670625 C57.437541,5.68315625 57.4350574,7.3326875 57.4557541,7.3326875 C57.4764508,7.3326875 57.7471639,7.230625 58.0576148,7.10628125 C58.9931066,6.72965625 59.8557459,6.5665 61.1083115,6.52840625 C61.9419754,6.50325 62.3285902,6.5190625 62.7557705,6.59596875 C65.5539672,7.0998125 67.6236393,9.09290625 68.3471967,11.9786875 C68.535123,12.7312188 68.6054918,14.602125 68.4796557,15.539375 C68.3736885,16.3371875 68.0690328,17.413875 67.751959,18.1125 C66.5556885,20.7474375 63.9884672,22.4666875 60.5834426,22.91375 C59.7994508,23.0165313 57.336541,23.02875 56.2793525,22.9360312 Z M57.7918689,21.824125 C58.447541,21.8845 59.1826885,21.8629375 59.5262541,21.7738125 C60.0585738,21.63725 60.7399098,21.2160625 61.148877,20.7704375 C61.994959,19.8525938 62.6026148,18.4309063 62.9370738,16.5894688 C63.0960246,15.7075625 63.1175492,13.2293125 62.9718443,12.5155938 C62.5239672,10.3248438 61.6605,8.98653125 60.3475,8.44459375 C59.6934836,8.1750625 58.7704098,8.14128125 57.9135656,8.3561875 L57.3324016,8.50209375 L57.2661721,10.4930313 C57.1833852,13.0029063 57.3183279,21.5833438 57.4433361,21.7127188 C57.488041,21.760875 57.6453361,21.8104688 57.791041,21.824125 L57.7918689,21.824125 Z M77.1557213,22.905125 C73.5528361,22.3394688 70.9765082,20.116375 70.1353934,16.8460625 C70.0269426,16.424875 69.9789262,15.9548125 69.9516066,15.0434375 C69.9085574,13.6030625 70.0426721,12.7089375 70.4706803,11.5984688 C71.2902705,9.46521875 72.7605656,7.9536875 74.8948115,7.04734375 C77.1482705,6.09140625 80.2295984,6.028875 82.2231066,6.8985625 C84.4682869,7.87821875 85.7895656,9.83321875 86.1248525,12.6737188 C86.1703852,13.0560938 86.1960492,13.5110625 86.1828033,13.685 L86.1587951,14.00125 L80.7859262,14.0170625 L75.4130574,14.0335938 L75.4329262,14.5855938 C75.4809426,15.8656875 75.7971885,16.9984375 76.3816639,17.9824063 C76.6474098,18.4301875 76.8593443,18.6738438 77.3734508,19.1252188 C78.534123,20.1458438 79.6898279,20.5411563 81.5127951,20.5411563 C82.8332459,20.5411563 83.7836393,20.311875 84.777082,19.7526875 C85.0560738,19.596 85.3375492,19.4680625 85.4037787,19.4680625 C85.5561066,19.4680625 85.9046393,19.8590625 85.9046393,20.0286875 C85.9046393,20.3075625 84.8631803,21.206 83.8473852,21.804 C83.0145492,22.29275 81.6949262,22.7362188 80.5508115,22.9101563 C79.7494344,23.0323438 77.9488197,23.0294688 77.1557213,22.905125 Z M75.2781148,12.7836875 C75.3178525,12.8390312 78.5730328,12.8016562 80.0888607,12.7283437 L80.843877,12.6924062 L80.8,11.7026875 C80.711418,9.70025 80.2618852,8.34684375 79.4762377,7.7165 C79.184,7.4821875 78.7907623,7.334125 78.457959,7.33340625 C78.3751721,7.33340625 78.1309508,7.3786875 77.9165328,7.43403125 C77.6035984,7.51453125 77.428918,7.61946875 77.0456148,7.955125 C76.3336475,8.5804375 75.8162295,9.593875 75.4933607,10.9990312 C75.3592459,11.5812187 75.2234754,12.7067812 75.2781148,12.7836875 Z M91.6781967,22.9662188 C90.3842377,22.8454688 88.3253279,22.4530313 87.6398525,22.1971563 L87.3045656,22.071375 L87.2590328,20.6274063 C87.2341967,19.8331875 87.2052213,18.7715938 87.194459,18.26775 L87.1762459,17.3520625 L87.3765902,17.2686875 C87.4875246,17.2226875 87.7102213,17.1795625 87.8716557,17.1730938 L88.166377,17.160875 L88.4172213,17.6985 C89.3949344,19.794375 90.5423607,20.92425 92.0408033,21.2678125 C92.6120328,21.398625 93.684123,21.4000625 94.1079918,21.2699688 C95.2935,20.9055625 95.943377,20.1242813 95.9491721,19.0569375 C95.9557951,17.793375 95.1577295,17.1860313 92.1418033,16.160375 C90.2733033,15.525 89.6217705,15.1979688 88.8460574,14.50725 C88.009082,13.7611875 87.6067377,12.911625 87.5314016,11.73 C87.4403361,10.301125 87.9536148,9.0965 89.0927623,8.070125 C90.2377049,7.03728125 91.7253852,6.477375 93.7511803,6.316375 C95.5352377,6.17478125 98.2738279,6.50325 99.7085246,7.03296875 L99.970959,7.12928125 L100.01732,8.41584375 C100.042984,9.1238125 100.069475,10.0725625 100.076098,10.5246563 L100.088516,11.3461875 L99.7366721,11.45975 C99.182,11.6394375 99.1447459,11.6171563 98.8359508,10.9041563 C97.9691721,8.9053125 96.9616557,7.9594375 95.3928443,7.6705 C94.4366557,7.49440625 93.6377623,7.6834375 93.0582541,8.2239375 C92.604582,8.645125 92.4282459,9.01959375 92.3851967,9.6485 C92.3388361,10.3291563 92.4787459,10.697875 92.9564262,11.1528438 C93.5458689,11.7134688 94.5111639,12.1979063 96.4334754,12.89725 C98.7887623,13.754 99.9121803,14.481375 100.523148,15.5444063 C100.920525,16.2344063 101.032287,16.7856875 100.992549,17.8465625 C100.962746,18.6429375 100.932943,18.8068125 100.725148,19.3415625 C100.046295,21.0845313 98.5147377,22.232375 96.1478607,22.77 C95.3464836,22.9525625 95.2322377,22.9619063 93.6377623,22.977 C92.7196557,22.9863438 91.8371475,22.9813125 91.6773689,22.9662188 L91.6781967,22.9662188 Z M0.0960327869,22.586 C0.0355983607,22.5651563 0.00496721311,22.40775 0.00496721311,22.1159375 C0.00496721311,21.5919687 -0.0331147541,21.6156875 1.13086885,21.4280937 C2.02331148,21.283625 2.34204098,21.1362812 2.73693443,20.6863437 C3.50105738,19.8145 3.66580328,18.1347812 3.66745902,11.2204062 C3.66911475,4.72578125 3.52589344,3.36015625 2.73527869,2.3560625 C2.3842623,1.9104375 1.79316393,1.6689375 0.803860656,1.5654375 L0.0413934426,1.486375 L0.0198688525,0.968875 L0,0.4499375 L0.239254098,0.41328125 C0.370057377,0.39315625 4.9862541,0.38453125 10.4965492,0.393875 L20.5137623,0.41184375 L20.5617787,0.66484375 C20.5866148,0.80428125 20.6296639,2.23028125 20.6553279,3.83453125 L20.7025164,6.75121875 L20.1867541,6.88778125 C19.4085574,7.09334375 19.4135246,7.09621875 19.0641639,6.28978125 C18.2048361,4.3110625 17.2196721,3.17040625 15.8710738,2.59540625 C14.941377,2.1979375 14.5117131,2.14978125 11.8857131,2.14978125 L9.60079508,2.14978125 L9.56188525,2.48184375 C9.48737705,3.10428125 9.37147541,7.107 9.37147541,8.99228125 L9.37230328,10.8725312 L10.0445328,10.8689375 C10.5844017,10.8616394 11.1240239,10.8441457 11.6630164,10.8164687 C12.4461803,10.7755 12.6788115,10.7395625 13.0066475,10.6080312 C13.8113361,10.2831562 14.3585574,9.5694375 14.6946721,8.40721875 L14.8676967,7.8070625 L15.4604508,7.788375 L16.0532049,7.77040625 L16.0532049,15.3647188 L15.459623,15.34675 L14.8668689,15.3280625 L14.6988115,14.7279063 C14.3825656,13.5994688 13.774082,12.7915938 13.022377,12.5026563 C12.6746721,12.3689688 11.8153443,12.2927813 10.1529836,12.2489375 L9.37230328,12.227375 L9.37230328,13.6548125 C9.37230328,15.2094688 9.47081967,17.3125313 9.59665574,18.4539062 C9.77216393,20.0445 10.239082,20.92425 11.078541,21.2426562 C11.2383197,21.3030313 11.7449754,21.4015 12.2044426,21.4611562 C12.6639098,21.5215312 13.0968852,21.5962812 13.1664262,21.6271875 C13.3435902,21.7069688 13.3543525,22.531375 13.1788443,22.5903125 C13.041418,22.6355938 0.227663934,22.632 0.0968606557,22.586 L0.0960327869,22.586 Z M46.6214344,22.0965313 L46.6214344,21.7544063 L46.0584836,21.7127188 C44.7603852,21.617125 44.4052295,21.5042813 44.0641475,21.076625 C43.5707377,20.4577813 43.4631148,19.3149688 43.4631148,14.6855 L43.4631148,11.0723438 L43.6427623,10.9055938 C43.8695984,10.695 44.5799098,10.4010313 45.0824262,10.3104688 C46.1007049,10.1250313 47.4045984,10.2845938 48.4237049,10.7201563 C48.7167705,10.8452188 48.9684426,10.9357813 48.9833443,10.9235625 C49.0131475,10.8969688 50.6870984,7.046625 50.7392541,6.8841875 C50.7624344,6.81015625 50.6664016,6.7461875 50.3849262,6.64771875 C49.7822377,6.43784375 49.2590246,6.36596875 48.5851393,6.40046875 C46.782041,6.49103125 45.1817705,7.5339375 44.0285492,9.36890625 C43.8373115,9.67365625 43.6394508,9.9230625 43.588123,9.92378125 C43.5136148,9.92378125 43.5053361,9.57446875 43.5450738,8.18225 L43.5947459,6.44071875 L43.4200656,6.47665625 C43.3240328,6.4960625 41.8719508,6.7519375 40.1955164,7.04446875 C36.5975984,7.673375 36.0975656,7.765375 36.0122951,7.811375 C35.9766967,7.8300625 35.9477213,7.943625 35.9477213,8.0629375 C35.9477213,8.30084375 35.9154344,8.2871875 36.7333689,8.40146875 C37.8567869,8.558875 38.2533361,9.03540625 38.4213934,10.4297813 C38.639123,12.2482188 38.5521967,19.3336563 38.2996967,20.3010938 C38.1705492,20.7963125 37.8360902,21.272125 37.4999754,21.44175 C37.3757951,21.5042813 36.9833852,21.6049063 36.6290574,21.6652813 L35.9833197,21.77525 L35.9617951,22.1065938 L35.9402705,22.4386563 L46.6222623,22.4386563 L46.6222623,22.0965313 L46.6214344,22.0965313 Z" id="Shape"></path>
                </g>
            </g>
        </g>
    </g>
</svg>