<?xml version="1.0" encoding="UTF-8"?>
<svg width="271px" height="36px" viewBox="0 0 271 36" version="1.1" xmlns="http://www.w3.org/2000/svg" xmlns:xlink="http://www.w3.org/1999/xlink">
    <!-- Generator: sketchtool 50.2 (55047) - http://www.bohemiancoding.com/sketch -->
    <title>0DDBDB0F-DD08-43B2-BA80-1B5F60A251B7</title>
    <desc>Created with sketchtool.</desc>
    <defs></defs>
    <g id="Mockups" stroke="none" stroke-width="1" fill="none" fill-rule="evenodd" opacity="0.4">
        <g id="homepage" transform="translate(-759.000000, -5894.000000)" fill="#000000" fill-rule="nonzero">
            <g id="div-featured" transform="translate(86.000000, 5892.000000)">
                <g id="the-washington-post-vector-logo" transform="translate(673.000000, 2.000000)">
                    <path d="M15.2344115,10.8932958 L15.2344115,23.1627042 C17.0625409,22.2246761 17.9766056,20.8739155 18.6295089,19.1104225 L19.1083047,19.2980282 C18.6730358,23.7255211 15.1038308,28.0404507 9.66296958,28.0404507 C4.17858144,28.0404507 0,24.5134648 0,18.8852958 C0,14.5703662 3.00335541,11.9438873 7.26899063,9.61757746 C6.70314106,9.46749296 6.18081838,9.42997183 5.57144192,9.42997183 C2.78572096,9.42997183 1.13169914,11.0809014 1.13169914,12.7693521 L0.52232268,12.7693521 C0.47879579,12.5442254 0.47879579,12.2815775 0.47879579,12.0564507 C0.47879579,8.94219718 2.6116134,5.45273239 7.05135618,5.45273239 C9.88060403,5.45273239 12.0569485,7.704 15.3649922,7.704 C17.019014,7.704 17.9766056,7.17870423 18.6295089,5.94050704 L19.1083047,5.94050704 C19.1083047,8.07921127 18.3683476,10.1803944 15.2344115,10.8932958 Z M7.8348402,9.76766197 C5.83260326,11.5311549 3.9174201,13.4447324 3.9174201,17.2343662 C3.9174201,19.2980282 4.65737723,21.3992113 6.48550661,22.7499718 L7.70425953,22.1871549 L7.70425953,13.7073803 L6.44197972,14.2701972 L6.05023771,13.7449014 L11.882841,10.9308169 C10.4029267,10.6306479 9.18417379,10.1053521 7.8348402,9.76766197 Z M14.4944544,11.0058592 C14.233293,11.0433803 13.9286048,11.0433803 13.5803897,11.0433803 C13.0145401,11.0433803 12.5357443,11.0058592 12.0134216,10.8932958 L12.0134216,20.8363944 L7.05135618,23.1627042 C8.09600154,23.8380845 9.27122757,24.1757746 10.9252494,24.1757746 C12.2310561,24.1757746 13.449809,23.9131268 14.4944544,23.5003944 L14.4944544,11.0058592 Z M31.6005221,14.1201127 L31.6005221,25.6390986 C31.6005221,28.8659155 28.2924785,31.0421408 24.5926929,31.68 L24.3750584,31.3423099 C26.2031878,30.5543662 27.4219407,29.2036056 27.4219407,27.5151549 L27.4219407,15.5083944 L25.5067575,14.0075493 L24.5056391,14.8705352 L24.5056391,23.9506479 L25.6808651,24.8886761 L25.6808651,25.0387606 L22.546929,27.9278873 L18.9341972,25.0762817 L18.9341972,24.9261972 L20.3270576,23.6504789 L20.3270576,8.8296338 L24.4621122,5.04 L24.549166,5.07752113 L24.549166,14.0075493 L27.9442634,10.9308169 L31.3393608,13.5948169 L32.3840062,12.731831 L32.9063288,13.1820845 L31.6005221,14.1201127 Z M38.0860288,20.9489577 L38.0860288,22.4498028 L41.6117068,24.8511549 L44.3539009,22.4122817 L44.8762236,22.8625352 L39.3483086,27.9654085 L34.3427162,24.5509859 L33.254544,25.4890141 L32.7757482,25.0387606 L33.9945011,23.9506479 L33.9945011,15.5083944 L41.3505455,10.8932958 L45.4420732,16.3713803 L38.0860288,20.9489577 Z M38.1730825,13.3696901 L38.0860288,13.4072113 L38.0860288,20.1610141 L41.4811262,18.0223099 L38.1730825,13.3696901 Z" id="Shape"></path>
                    <path d="M70.4763883,28.08 L65.0753355,24.0197838 L60.9374322,28.08 L55.318595,23.868 L55.318595,17.2274595 L54.2296731,17.2274595 C53.2714218,17.2274595 52.7922962,17.7207568 52.6180687,18.4037838 L52.2260568,18.4037838 C52.138943,18.1381622 52.0518293,17.6448649 52.0518293,17.1136216 C52.0518293,16.2408649 52.487398,13.9261622 55.318595,13.9261622 L55.318595,8.76551351 C55.318595,6.75437838 53.7941044,6.67848649 53.7941044,4.93297297 C53.7941044,2.99772973 55.8848345,1.21427027 59.7613965,0 L60.1098515,0.265621622 C58.8031452,0.796864865 57.7577802,1.47989189 57.7577802,2.95978378 C57.7577802,5.19859459 60.2405222,4.62940541 60.2405222,8.15837838 L60.2405222,9.52443243 L64.8139943,5.35037838 L69.6052507,9.44854054 L74.135166,5.35037838 L78.4908537,9.06908108 L78.4908537,21.6291892 L70.4763883,28.08 Z M64.8139943,11.1561081 L62.069911,8.80345946 L60.284079,10.3971892 L60.284079,22.0465946 L63.5944017,24.5130811 L64.8139943,23.3367568 L64.8139943,11.1561081 Z M73.6124834,10.7007568 L71.4346396,8.80345946 L69.7794782,10.2454054 L69.7794782,22.0086486 L73.6124834,24.9304865 L73.6560403,24.8925405 L73.6560403,10.7007568 L73.6124834,10.7007568 Z" id="Shape"></path>
                    <path d="M90.8171375,27.8903662 L87.1584525,25.0012394 L87.071341,25.0012394 L83.8482138,27.8903662 L79.9281942,24.8886761 L79.0135229,25.6766197 L78.4908537,25.2263662 L79.6233038,24.2132958 L79.6233038,15.395831 L87.0277852,10.8182535 L91.0784721,13.5572958 L92.1673664,12.6192676 L92.7335915,13.0695211 L91.3398067,14.1951549 L91.3398067,23.2752676 L93.1255934,24.7010704 L94.2580435,23.688 L94.8242686,24.1757746 L90.8171375,27.8903662 Z M87.1584525,15.3583099 L83.9353253,13.1820845 L83.8482138,13.2571268 L83.8482138,23.0501408 L86.2437813,24.8511549 L87.1584525,24.0632113 L87.1584525,15.3583099 Z M102.969198,16.9717183 L106.627883,16.9717183 L106.627883,24.1382535 L100.442963,27.8903662 C99.6154036,27.1024225 98.4393978,26.5020845 97.0020572,26.5020845 C95.8260514,26.5020845 94.9113801,26.9898592 93.9531531,27.8528451 L93.3869281,27.7027606 L98.7442882,21.0615211 L95.4340494,21.0615211 L95.4340494,14.8330141 L101.92386,10.8932958 C102.707864,11.4185915 103.317644,11.7562817 104.319427,11.7562817 C105.103431,11.7562817 106.235881,11.6061972 107.106997,11.0058592 L107.498999,11.2309859 L102.969198,16.9717183 Z M102.402973,19.8983662 L100.573631,19.8983662 L96.2616091,25.2263662 L96.3051649,25.3014085 C97.2198361,24.8136338 97.9602843,24.4759437 99.2669575,24.4759437 C100.442963,24.4759437 101.662525,24.9637183 102.402973,25.751662 L102.446529,25.7141408 L102.446529,19.8983662 L102.402973,19.8983662 Z M104.929208,13.332169 C104.101648,13.8199437 103.622535,14.1201127 102.22875,14.1201127 C101.444746,14.1201127 100.530075,13.8199437 99.7896267,13.1445634 L99.7025152,13.1820845 L99.7025152,18.0973521 L101.183411,18.0973521 L104.929208,13.332169 Z M120.522175,14.1201127 L120.522175,25.6390986 C120.522175,28.8659155 117.211936,31.0421408 113.509695,31.68 L113.291916,31.3423099 C115.121259,30.5543662 116.340821,29.2036056 116.340821,27.5151549 L116.340821,15.5083944 L114.424367,14.0075493 L113.422584,14.8705352 L113.422584,23.9506479 L114.59859,24.8886761 L114.59859,25.0387606 L111.462574,27.9278873 L107.847445,25.0762817 L107.847445,24.9261972 L109.24123,23.6504789 L109.24123,8.8296338 L113.379028,5.04 L113.466139,5.07752113 L113.466139,14.0075493 L116.86349,10.9308169 L120.26084,13.5948169 L121.306179,12.731831 L121.828848,13.1820845 L120.522175,14.1201127 Z M128.144435,27.8903662 L124.921308,25.3389296 L123.832414,26.2769577 L123.309744,25.8267042 L124.616417,24.7010704 L124.616417,15.1331831 L123.222633,14.0075493 L122.177294,14.8705352 L121.654625,14.4202817 L125.574644,10.8182535 L128.536437,13.1445634 L129.581776,12.2065352 L130.148001,12.6943099 L128.841327,13.8199437 L128.841327,23.4628732 L130.496447,24.7761127 L131.672453,23.7255211 L132.195122,24.2132958 L128.144435,27.8903662 Z M127.011985,10.5931268 L123.832414,8.07921127 L126.75065,5.37769014 L129.930222,7.89160563 L127.011985,10.5931268 Z" id="Shape"></path>
                    <path d="M144.547914,28.4589474 L141.165846,25.7684211 L141.165846,15.8778947 L139.344732,14.4 L138.043937,15.5747368 L138.043937,24.4421053 L139.258012,25.4273684 L139.258012,25.5789474 L136.092743,28.4968421 L132.493876,25.6168421 L132.493876,25.5031579 L133.881391,24.2147368 L133.881391,15.6505263 L132.277077,14.4 L131.106361,15.4231579 L130.542683,14.9684211 L134.488429,11.2547368 L138.000577,13.9831579 L138.000577,14.6652632 L141.686164,11.2547368 L145.068232,13.9073684 L146.195588,12.9221053 L146.715906,13.4147368 L145.371751,14.5894737 L145.371751,24.1010526 L146.889345,25.3515789 L148.190141,24.2147368 L148.667099,24.6694737 L144.547914,28.4589474 Z M161.241455,14.5515789 L161.241455,26.0336842 C161.241455,27.8147368 162.368811,27.7389474 162.368811,29.0652632 C162.368811,30.5810526 159.85394,32.0210526 155.951554,34.56 C154.650758,33.3473684 153.783561,32.8168421 152.569485,32.8168421 C151.26869,32.8168421 149.707736,33.2715789 148.40694,34.0294737 L148.016701,33.7642105 L153.349963,28.3073684 L149.837815,25.8821053 L148.710459,26.8673684 L148.190141,26.4126316 L149.490936,25.2378947 L149.490936,15.8021053 L156.86211,11.1789474 L160.807856,13.9073684 L161.978572,12.9221053 L162.498891,13.3768421 L161.241455,14.5515789 Z M158.249625,28.7242105 C157.295709,28.1936842 157.03555,27.5873684 157.03555,26.1473684 L157.03555,25.6547368 L150.835092,31.9452632 L150.878451,31.9831579 C152.135887,31.3389474 153.046444,30.9221053 154.867557,30.9221053 C156.428512,30.9221053 157.555868,31.4905263 158.553144,32.2863158 C159.290262,31.7557895 159.85394,31.1873684 159.85394,30.3536842 C159.81058,29.7094737 159.246902,29.2547368 158.249625,28.7242105 Z M157.07891,15.8021053 L153.870281,13.6042105 L153.783561,13.68 L153.783561,24.1010526 L156.081633,25.6547368 L157.07891,24.6315789 L157.07891,15.8021053 Z M169.263027,28.4589474 L165.837599,26.1094737 L164.796962,27.0189474 L164.276644,26.5642105 L165.49072,25.4652632 L165.49072,13.7178947 L163.236008,13.7178947 L163.149288,13.6421053 L164.493444,11.8610526 L165.44736,11.8610526 L165.44736,9.58736842 L169.566546,5.76 L169.653265,5.83578947 L169.653265,11.8610526 L172.775174,11.8610526 L172.861894,11.9368421 L171.517739,13.7178947 L169.696625,13.7178947 L169.696625,23.9873684 L171.561099,25.2378947 L172.861894,24.1010526 L173.382212,24.5936842 L169.263027,28.4589474 Z M186.216727,14.8547368 L186.216727,24.2526316 L179.66939,28.4968421 L174.899807,25.3515789 L173.815811,26.2989474 L173.295493,25.8442105 L174.552928,24.7073684 L174.552928,15.5368421 L181.403784,11.2168421 L185.826489,14.2484211 L186.953845,13.2631579 L187.474163,13.7557895 L186.216727,14.8547368 Z M182.054182,15.8778947 L178.802193,13.6421053 L178.758833,13.68 L178.758833,23.7978947 L182.054182,25.9578947 L182.054182,15.8778947 Z M201.609473,28.4210526 L198.227405,25.7305263 L198.227405,15.84 L196.406291,14.3621053 L195.105496,15.5368421 L195.105496,24.4042105 L196.319572,25.3894737 L196.319572,25.5410526 L193.154303,28.4589474 L189.555435,25.5789474 L189.555435,25.4652632 L190.942951,24.1768421 L190.942951,15.6505263 L189.338636,14.4 L188.16792,15.4231579 L187.604242,14.9684211 L191.549988,11.2547368 L195.062136,13.9831579 L195.062136,14.6652632 L198.747723,11.2547368 L202.129791,13.9073684 L203.257147,12.9221053 L203.777465,13.4147368 L202.43331,14.5894737 L202.43331,24.1010526 L203.950905,25.3515789 L205.2517,24.2147368 L205.728659,24.6694737 L201.609473,28.4210526 Z" id="Shape"></path>
                    <path d="M225.782595,28.5539698 C225.134162,27.8321608 224.312813,27.2243216 223.361778,26.9963819 L223.361778,34.0625126 L223.27532,34.1005025 L221.157105,32.3529648 L216.661302,36 L216.574845,35.9620101 L216.574845,26.8064322 C215.234749,27.0723618 213.764968,27.8321608 212.641017,29.0478392 L212.338415,28.8958794 C212.597788,26.2745729 214.06757,24.3370854 216.574845,23.5772864 L216.574845,16.9670352 L215.753496,16.9670352 C214.629545,16.9670352 213.851425,17.6508543 213.721739,18.4106533 L213.246221,18.4106533 C213.116534,18.1447236 212.986848,17.6888442 212.986848,16.8530653 C212.986848,15.1815075 214.283714,13.9278392 216.3587,13.9278392 L216.574845,13.9278392 L216.574845,10.2428141 L215.19152,9.14110553 L214.110799,10.0908543 L213.548823,9.63497487 L217.828482,5.76 L221.459708,8.68522613 L221.459708,12.0283417 L222.583658,10.9646231 L222.583658,7.05165829 L223.318549,7.05165829 L223.318549,10.280804 L228.160183,5.76 L232.5263,9.25507538 L232.5263,24.0711558 L225.782595,28.5539698 Z M222.626887,11.6484422 L221.502936,12.6741709 L221.502936,31.8211055 L222.626887,32.7328643 L222.626887,11.6484422 Z M227.684666,10.8506533 L225.393535,9.02713568 L223.361778,10.9266332 L223.361778,23.2733668 C225.177391,23.4633166 226.517486,24.0331658 227.641437,25.0588945 L227.684666,25.0209045 L227.684666,10.8506533 Z M246.532456,14.9155779 L246.532456,24.3370854 L240.004896,28.5919598 L235.249719,25.438794 L234.168997,26.3885427 L233.650251,25.9326633 L234.903888,24.7929648 L234.903888,15.599397 L241.734051,11.2685427 L246.143396,14.3077387 L247.267347,13.32 L247.786093,13.8138693 L246.532456,14.9155779 Z M242.339255,15.9413065 L239.097089,13.6998995 L239.05386,13.7378894 L239.05386,23.881206 L242.339255,26.0466332 L242.339255,15.9413065 Z M256.129266,17.4988945 L259.760492,17.4988945 L259.760492,24.7549749 L253.621992,28.5539698 C252.800643,27.7561809 251.633463,27.1483417 250.20691,27.1483417 C249.039731,27.1483417 248.131924,27.6422111 247.180889,28.5159799 L246.618914,28.3640201 L251.936065,21.639799 L248.650671,21.639799 L248.650671,15.3334673 L255.091773,11.3445226 C255.869893,11.8763819 256.475098,12.2182915 257.469362,12.2182915 C258.247481,12.2182915 259.371432,12.0663317 260.23601,11.4584925 L260.62507,11.6864322 L256.129266,17.4988945 Z M255.567291,20.4621106 L253.751678,20.4621106 L249.47202,25.8566834 L249.515248,25.9326633 C250.423055,25.438794 251.157946,25.0968844 252.454812,25.0968844 C253.621992,25.0968844 254.8324,25.5907538 255.567291,26.3885427 L255.61052,26.3505528 L255.61052,20.4621106 L255.567291,20.4621106 Z M258.031337,13.8138693 C257.209988,14.3077387 256.734471,14.6116583 255.351147,14.6116583 C254.573027,14.6116583 253.665221,14.3077387 252.93033,13.6239196 L252.843872,13.6619095 L252.843872,18.638593 L254.313654,18.638593 L258.031337,13.8138693 Z M266.893257,28.5539698 L263.478175,26.198593 L262.440682,27.1103518 L261.921936,26.6544724 L263.132344,25.5527638 L263.132344,13.7758794 L260.884443,13.7758794 L260.797985,13.6998995 L262.13808,11.9143719 L263.089116,11.9143719 L263.089116,9.63497487 L267.195859,5.79798995 L267.282317,5.87396985 L267.282317,11.9143719 L270.394796,11.9143719 L270.481253,11.9903518 L269.141158,13.7758794 L267.325546,13.7758794 L267.325546,24.0711558 L269.184387,25.3248241 L270.481253,24.1851256 L271,24.678995 L266.893257,28.5539698 Z" id="Shape"></path>
                </g>
            </g>
        </g>
    </g>
</svg>