<?xml version="1.0" encoding="UTF-8"?>
<svg width="91px" height="40px" viewBox="0 0 91 40" version="1.1" xmlns="http://www.w3.org/2000/svg" xmlns:xlink="http://www.w3.org/1999/xlink">
    <!-- Generator: sketchtool 50.2 (55047) - http://www.bohemiancoding.com/sketch -->
    <title>A444D6FF-C9E9-4E65-A85C-164F6FB03F25</title>
    <desc>Created with sketchtool.</desc>
    <defs></defs>
    <g id="Mockups" stroke="none" stroke-width="1" fill="none" fill-rule="evenodd" opacity="0.4">
        <g id="homepage" transform="translate(-1104.000000, -5892.000000)" fill="#212121" fill-rule="nonzero">
            <g id="div-featured" transform="translate(86.000000, 5892.000000)">
                <g id="TheEconomistLogo" transform="translate(1018.000000, 0.000000)">
                    <path d="M0,20.0000031 L0,0 L45.5,0 L91,0 L91,20.0000031 L91,40 L45.5,40 L0,40 L0,20.0000031 Z M19.6121016,28.7331387 C20.0340373,28.6065523 20.602325,28.2883788 20.935539,27.9921722 L21.2039642,27.753553 L21.0751541,27.487959 L20.9463407,27.2223649 L20.6449494,27.4713921 C20.0604211,27.9543534 19.2770673,28.1702468 18.6440502,28.0228412 C17.623151,27.7851095 17.0675538,26.6979127 17.0675538,24.9379392 C17.0675538,23.1734877 17.6368436,22.3446693 18.8527248,22.33894 C19.5827694,22.3354999 19.9074355,22.621471 20.1400701,23.4728365 C20.2298416,23.8013615 20.2617127,23.8399925 20.4139463,23.8047985 C20.5086955,23.7828943 20.6681238,23.7645431 20.7682238,23.7640194 C20.94672,23.763088 20.9502202,23.7470919 20.9502202,22.9324163 L20.9502202,22.1017633 L20.3637751,21.9838696 C19.4619582,21.8025745 18.4209174,21.7727804 17.7975474,21.9104177 C16.0952614,22.286279 15.1307018,23.5367929 15.1274189,25.372128 C15.1246674,26.9097545 15.8072394,28.0592583 17.0312939,28.5784046 C17.8239218,28.9145718 18.810226,28.9737053 19.6121016,28.7331387 Z M27.8233446,28.7346032 C28.4342604,28.5878436 28.829801,28.4027196 29.2620656,28.0612527 C30.2790852,27.2578506 30.7349151,25.9738298 30.470673,24.6567347 C30.1168104,22.8929448 28.6506293,21.8118473 26.6124477,21.8118473 C24.2763175,21.8118473 22.8075142,23.1829361 22.8118611,25.3595813 C22.81514,27.0011907 23.6513514,28.1763586 25.1683869,28.6713178 C25.9549909,28.9279589 26.9224628,28.9510202 27.8233446,28.7346032 Z M26.0866679,28.1937377 C25.2373503,27.7545534 24.8036334,26.6498897 24.7985265,24.912896 C24.7952068,23.7855096 24.9354451,23.2443964 25.3407154,22.8208257 C26.1393787,21.9860961 27.5072252,22.3404264 28.1239395,23.5417947 C28.4431893,24.1637103 28.5717432,24.7728504 28.5750702,25.679442 C28.5799623,27.0141011 28.2302821,27.8666771 27.5398032,28.2035938 C27.0974922,28.4194182 26.5154635,28.4154701 26.0866679,28.1937377 Z M47.684,28.7688439 C48.5419808,28.6098575 49.4939136,28.0144684 49.9410257,27.3571862 C50.4238389,26.6474249 50.6408848,25.5786482 50.4778929,24.7135507 C50.1571798,23.0113529 48.8158871,21.9259435 46.9155523,21.8308132 C45.6062989,21.7652731 44.6016189,22.0669801 43.8503848,22.7512874 C43.1480904,23.3910211 42.7932414,24.2799859 42.7928192,25.400696 C42.7919055,27.8447572 44.8866272,29.287222 47.684,28.7688439 Z M46.1239615,28.218345 C45.2569536,27.8387802 44.7848565,26.6649827 44.7805103,24.87805 C44.7773836,23.5952898 45.0142092,22.9541198 45.6381999,22.5559341 C45.966972,22.3461337 46.6432148,22.3179107 47.0506509,22.4969888 C48.0083094,22.9178846 48.5437098,24.0361173 48.557691,25.6445991 C48.5688622,26.9288646 48.25548,27.7779252 47.6283116,28.162661 C47.2540578,28.3922457 46.5783136,28.4172575 46.1239615,28.218345 Z M77.0037159,28.6905847 C77.5875464,28.5050405 78.2218528,27.9651408 78.4075183,27.4957046 C78.5607805,27.1081935 78.5854852,26.4478695 78.4576993,26.1543629 C78.2305997,25.6327454 77.6781314,25.188343 76.096839,24.2552971 C75.7523894,24.0520601 75.3974894,23.7839009 75.3081748,23.6593999 C75.1139808,23.3887037 75.0968,22.9483968 75.2720186,22.7328766 C75.5310702,22.4142546 76.1653729,22.2493382 76.6761122,22.3678184 C77.051429,22.4548863 77.2105043,22.6258236 77.4121748,23.158771 C77.5056064,23.4056846 77.590513,23.5173347 77.681826,23.5133553 C77.755132,23.5101629 77.9425083,23.5023232 78.0982238,23.4959323 L78.3813321,23.4843201 L78.3813321,22.8621191 C78.3813321,22.4228752 78.3481644,22.2113438 78.2685285,22.1427369 C78.2064847,22.0892856 77.8060374,21.9888494 77.3786468,21.9195431 C75.089469,21.5483198 73.7688843,22.2596679 73.7714541,23.8625898 C73.772881,24.7541793 74.1328879,25.1839685 75.6050459,26.0516311 C76.8477382,26.7840461 77.2638012,27.3004705 76.9937095,27.7752628 C76.7933202,28.1275265 76.4897916,28.2578415 75.8696848,28.2578415 C75.3786415,28.2578415 75.2862838,28.236345 75.1045422,28.0797764 C74.9908687,27.9818426 74.81019,27.7152921 74.7030466,27.4874416 C74.4968661,27.0490036 74.3414162,26.969766 73.8822266,27.0690576 C73.6967031,27.1091719 73.6897762,27.134143 73.6897762,27.762829 C73.6897762,28.2021952 73.7227691,28.4369572 73.7908844,28.4823116 C73.8464964,28.5193401 74.1286,28.6056868 74.4177762,28.6741934 C75.5399772,28.9400446 76.2054748,28.9442655 77.0037159,28.6905847 Z M84.6574602,28.629946 C85.0969283,28.4800694 85.1376672,28.4478387 85.1617166,28.2309983 C85.1842664,28.0277112 85.167628,28.0017962 85.0413819,28.0435286 C84.9608105,28.0701649 84.6760314,28.1078144 84.408546,28.1271879 C83.7857056,28.172307 83.4223499,28.0237349 83.1942202,27.6306607 C83.0443323,27.3724109 83.0305185,27.1866848 83.0062761,25.1045301 L82.9801008,22.8571455 L83.8657201,22.8571455 L84.7513285,22.8571455 L84.7979787,22.6562135 C84.8236298,22.5457048 84.8685292,22.3732278 84.8977475,22.2729358 L84.950866,22.0905933 L83.9714366,22.0905933 L82.992,22.0905933 L82.992,21.1846696 L82.992,20.278746 L82.5946685,20.278746 L82.1973298,20.278746 L82.144102,20.5501352 C82.0635124,20.9611122 81.6711386,21.6207557 81.3830618,21.829587 C81.1240066,22.0173797 80.677466,22.1591752 80.3428844,22.1598902 C80.1784729,22.1602414 80.1608881,22.1939459 80.1608881,22.5087107 L80.1608881,22.8571455 L80.6386672,22.8571455 L81.1164463,22.8571455 L81.1510154,25.1045301 C81.18838,27.5333259 81.2270113,27.7779879 81.6482467,28.2537774 C81.7619785,28.3822328 82.0471506,28.5716436 82.2819561,28.6746858 C82.6769544,28.8480251 82.7638739,28.8594523 83.4441244,28.8275164 C83.9477512,28.8038687 84.329973,28.7416307 84.6574602,28.629946 Z M12.5440566,28.7377077 L12.8334457,28.6964645 L12.9754221,27.7454436 C13.0535107,27.2223837 13.1371342,26.708189 13.1612557,26.6027886 C13.2040239,26.4159085 13.195827,26.4111513 12.8309993,26.4111513 C12.4744959,26.4111513 12.4568881,26.4204054 12.4568881,26.6077935 C12.4568881,26.9567583 12.2109802,27.4444611 11.9265455,27.6596112 C11.5499166,27.9444973 11.1958814,28.0130948 10.0998509,28.0135464 C8.68189322,28.0141328 8.78218978,28.172398 8.75124796,25.8855231 L8.72605224,24.0233385 L9.80280283,24.0556037 C11.2694473,24.09955 11.4569076,24.1941566 11.6051022,24.9651587 C11.6509691,25.2037935 11.6778393,25.2264754 11.9145536,25.226397 L12.1737783,25.2263155 L12.1825067,23.6932988 L12.1912325,22.160279 L11.9282603,22.160279 C11.6692882,22.160279 11.6639392,22.1668644 11.5768176,22.5929689 C11.5271345,22.8359626 11.4223105,23.0825469 11.3377184,23.155425 C11.0664925,23.3890894 10.1864053,23.4756211 9.16066788,23.3694776 L8.73599964,23.3255344 L8.73599964,21.5582386 L8.73599964,19.7909397 L9.7268899,19.7962958 C10.2718783,19.7992404 10.8625593,19.8392481 11.0395132,19.8851983 C11.4418457,19.9896704 11.6941534,20.2956327 11.7700572,20.771093 L11.8261685,21.1225508 L12.1213056,21.1013491 L12.4164455,21.0801379 L12.4164455,20.0696888 L12.4164455,19.0592366 L8.79683168,19.0592366 L5.17721714,19.0592366 L5.17705188,19.2349279 C5.17690337,19.394576 5.2216033,19.4179415 5.66650812,19.4907819 C6.67457918,19.6558268 6.63288772,19.4655035 6.63288772,23.9024406 C6.63288772,27.9391286 6.62898636,27.975483 6.17414871,28.1744771 C6.04829898,28.2295339 5.77243248,28.2962562 5.5611101,28.3227481 C5.223764,28.3650325 5.17688917,28.3915213 5.17688917,28.5398645 L5.17688917,28.7088168 L7.70466715,28.7282593 C9.09494477,28.7389558 10.6874451,28.7547356 11.2435545,28.7633279 C11.7996668,28.7719234 12.3848925,28.7603927 12.5440566,28.7377077 Z M36.3987624,28.6236931 C36.3966403,28.4746067 36.2901885,28.3936945 35.9551119,28.2864879 C35.4680326,28.130653 35.4392002,27.9965154 35.4338967,25.8617406 C35.4288262,23.8199354 35.4602648,23.641102 35.9025212,23.1959814 C36.2406153,22.8556936 36.5828081,22.717771 37.0889719,22.717771 C38.2191228,22.717771 38.4741557,23.4124298 38.4023276,26.2951078 C38.3576357,28.0886572 38.3227244,28.1966854 37.7471385,28.3223938 C37.5132576,28.3734743 37.451556,28.4207509 37.451556,28.5488771 L37.451556,28.7108018 L39.4794036,28.7108018 L41.5072512,28.7108018 L41.4814,28.5556819 C41.4608303,28.4322283 41.383211,28.389969 41.101282,28.3487102 C40.6104936,28.2768858 40.3808059,28.1291886 40.3190824,27.8457262 C40.2904648,27.7143043 40.259816,26.6870625 40.2509744,25.5629719 C40.2376229,23.8650044 40.2120228,23.460111 40.0996924,23.1701793 C39.9063428,22.6711748 39.5470312,22.2870097 39.0532069,22.0513257 C38.6632319,21.8652045 38.5549237,21.8466965 37.856,21.8467435 C36.9074779,21.8468062 36.5278295,21.9788961 35.8314684,22.5511236 L35.348444,22.9480455 L35.3475522,22.6064281 C35.3470608,22.4185351 35.3249551,22.1517494 35.2984232,22.0135633 L35.2501859,21.762316 L34.7365236,21.8550787 C34.333441,21.9278689 32.7334571,22.0902295 32.4162238,22.0905337 C32.382856,22.0905651 32.355556,22.1689874 32.355556,22.2648076 C32.355556,22.4123355 32.3931317,22.439025 32.6008192,22.439025 C33.0624003,22.439025 33.3874013,22.6104672 33.4819612,22.9038421 C33.6059906,23.2886469 33.5898581,27.6248781 33.4632116,27.942437 C33.3513726,28.2228701 33.0882916,28.3598865 32.6588844,28.3613415 C32.389579,28.3622509 32.355556,28.3819098 32.355556,28.5365875 L32.355556,28.7108018 L34.3777762,28.7108018 C35.9422882,28.7108018 36.3997197,28.6910896 36.3987624,28.6236931 Z M56.3649596,28.5594638 C56.3464829,28.451307 56.2407591,28.3799844 55.9944039,28.3094896 C55.8048182,28.2552387 55.6046182,28.1430241 55.5495122,28.0601269 C55.4782192,27.952867 55.441892,27.3436611 55.4235391,25.9474162 C55.3986997,24.0576891 55.4042689,23.9723709 55.5747665,23.630926 C55.9046306,22.9703323 56.5175702,22.6499417 57.282407,22.7383173 C57.7148026,22.7882814 57.9723035,23.0109421 58.1414179,23.4810933 C58.2593502,23.8089567 58.2804404,24.1742187 58.2804404,25.8885022 C58.2804404,27.3676694 58.2535845,27.9498095 58.1802567,28.0601269 C58.125158,28.1430241 57.924958,28.2552387 57.7353722,28.3094896 C57.4890134,28.3799844 57.3832932,28.451307 57.3648202,28.5594638 L57.338969,28.7108018 L59.2050404,28.7108018 L61.0711083,28.7108018 L61.0711083,28.5397422 C61.0711083,28.4000384 61.020181,28.3604509 60.7932853,28.323783 C60.2229737,28.2316098 60.2245207,28.2378157 60.1980506,25.940442 L60.1743215,23.8813581 L60.388015,23.5050703 C60.6599339,23.0262577 61.0764627,22.775255 61.6694151,22.7328954 C62.2534094,22.6911724 62.5703406,22.8400989 62.7970907,23.2627884 C62.9647164,23.5752765 62.972,23.6806455 62.972,25.7939928 C62.972,27.8574199 62.9621902,28.0084851 62.8193384,28.1445481 C62.7353745,28.2245227 62.5442745,28.3097405 62.3946705,28.3339182 C62.1760776,28.369244 62.1226642,28.4105656 62.1226642,28.5443426 L62.1226642,28.7108018 L64.1336732,28.7108018 L66.1446786,28.7108018 L66.10786,28.5448851 C66.0783796,28.4120175 66.0074834,28.3716241 65.7519954,28.3420997 C65.3048105,28.2904265 65.0565989,28.1280879 64.9582424,27.8229597 C64.9086838,27.6692353 64.8736015,26.738306 64.8733394,25.5701406 C64.872848,23.396556 64.8364298,23.1640487 64.4047331,22.5783996 C64.2500004,22.3684801 64.0284445,22.1956926 63.7345654,22.0557473 C63.3381258,21.8669637 63.2249582,21.8466933 62.567556,21.8466933 C61.9321139,21.8466933 61.7802786,21.8717679 61.3733411,22.0439187 C61.1169177,22.1523923 60.6943828,22.4189428 60.4343667,22.6362536 L59.9616181,23.0313567 L59.6746478,22.6374483 C59.4790269,22.3689254 59.2629528,22.1803738 58.9958424,22.0451135 C58.6394099,21.8646212 58.5345597,21.8466933 57.8355523,21.8466933 C56.9076108,21.8466933 56.538209,21.9765755 55.80666,22.5600609 L55.328,22.9418428 L55.3268898,22.498795 C55.3262856,22.2551208 55.3051626,21.9895487 55.279952,21.9086365 C55.2354275,21.7657184 55.2194152,21.7641818 54.7182672,21.8546804 C54.3135284,21.9277717 52.7137811,22.0902264 52.3957762,22.0905337 C52.3624083,22.0905651 52.3351083,22.1689874 52.3351083,22.2648076 C52.3351083,22.4098957 52.3736595,22.439025 52.5657059,22.439025 C52.9960122,22.439025 53.3161065,22.5826706 53.4358079,22.8294933 C53.6036556,23.1755668 53.5995132,27.6343736 53.4310213,27.9817767 C53.3024419,28.2468941 53.0542303,28.3623701 52.6129531,28.3623701 C52.3705146,28.3623701 52.3351083,28.3845659 52.3351083,28.5365875 L52.3351083,28.7108018 L54.3629596,28.7108018 L56.3908072,28.7108018 L56.3649596,28.5594638 Z M71.8784284,28.6005753 C71.8514269,28.539946 71.8293285,28.4656224 71.8293285,28.4354175 C71.8293285,28.4052126 71.6614553,28.364192 71.4562722,28.3442666 C70.8859024,28.2888837 70.7642572,28.1403837 70.6899102,27.4087057 C70.655585,27.0708513 70.6249107,25.6621883 70.6217476,24.2783427 L70.616,21.7622627 L70.0295523,21.850055 C69.7070119,21.8983445 69.0257422,21.9737658 68.515629,22.0176651 C68.0055121,22.0615675 67.5744888,22.1092518 67.5577994,22.1236299 C67.4628209,22.2054546 67.656043,22.439025 67.818711,22.439025 C68.1565539,22.439025 68.5164225,22.5912097 68.6313555,22.7826839 C68.7822481,23.0340661 68.8724728,25.6701597 68.776486,27.0229444 C68.6954013,28.1656495 68.6331864,28.2741262 68.0192022,28.3432318 C67.6674435,28.3828224 67.5458638,28.4544931 67.5434578,28.6236931 C67.5424968,28.6912621 68.034017,28.7108018 69.7348761,28.7108018 C71.7010549,28.7108018 71.9224579,28.6994154 71.8784284,28.6005753 Z M70.1382609,20.3798909 C70.9478916,20.019201 70.8514316,18.9376959 69.9864729,18.678107 C68.7989739,18.3217196 68.0262674,19.7855178 69.1032597,20.3512571 C69.4153678,20.5152014 69.8100239,20.5261237 70.1382609,20.3798909 Z M55.8537762,16.7816722 C56.2788699,16.6919106 56.8107722,16.4221489 57.2492721,16.0739336 C57.7119816,15.7064921 57.7788593,15.592374 57.6615057,15.370488 L57.5676083,15.1929402 L57.1747868,15.5094925 C56.2166951,16.2815576 55.0111598,16.3859451 54.2486818,15.7628535 C53.7857684,15.3845744 53.3916401,14.4288497 53.3880693,13.6759574 L53.3866679,13.3797915 L55.6193238,13.3797915 L57.851976,13.3797915 L57.7932701,12.8762149 C57.7195637,12.2439132 57.5847163,11.9089438 57.2182083,11.4477331 C56.6691362,10.7567902 55.8932811,10.4765516 54.6949203,10.5363153 C53.1901115,10.6113634 52.0787831,11.5077101 51.7295615,12.928048 C51.5773695,13.5470253 51.5772821,14.1331323 51.7292958,14.6886047 C51.8906242,15.2781172 52.112839,15.6326859 52.5978908,16.0745231 C53.3996809,16.8048872 54.5552571,17.055868 55.8537762,16.7816722 Z M53.3467589,12.5720494 C53.47793,11.8996146 53.647008,11.536325 53.9504566,11.2748954 C54.2309804,11.0332282 54.2955104,11.0104554 54.6998525,11.0104554 C55.0233174,11.0104554 55.2162047,11.0526174 55.4171472,11.1672498 C55.7282908,11.3447442 56.0973067,11.9323031 56.1768917,12.3769187 L56.2281356,12.663241 L55.9196238,12.7085766 C55.7499415,12.7335163 55.0896746,12.774286 54.4523689,12.7991818 L53.2936258,12.8444483 L53.3467589,12.5720494 Z M40.2826679,16.5679458 C40.2826679,16.3931419 40.2560304,16.3762175 39.9793321,16.3752831 C39.5612636,16.3738656 39.2969231,16.2437294 39.1301238,15.957219 C39.0010348,15.7354866 38.9886843,15.4051803 38.9885678,12.1718285 L38.988444,8.62936904 L39.8984404,8.67899447 C40.398944,8.70628611 40.9421412,8.77408401 41.1055445,8.82965509 C41.4572449,8.94926728 41.6577762,9.2578826 41.6577762,9.67952161 C41.6577762,9.95950627 41.6633818,9.96515714 41.9408917,9.96515714 L42.224,9.96515714 L42.224,8.99431746 L42.224,8.02348091 L37.9773321,8.02297289 L33.7306642,8.02246801 L33.7300891,8.52342932 C33.7297761,8.79895788 33.706076,9.2382394 33.6774256,9.49960943 L33.6253336,9.97482509 L33.9408888,9.95256969 C34.2554467,9.93038641 34.2565824,9.92921359 34.2999566,9.58188259 C34.3238896,9.39024532 34.3865304,9.16666588 34.4391502,9.08503557 C34.590516,8.85025788 35.072361,8.73182792 36.0966679,8.6776429 L37.0471083,8.62736834 L37.0471083,12.2265529 C37.0471083,16.2615507 37.0592149,16.1712308 36.5006387,16.3030635 C36.334065,16.342375 36.1067762,16.382781 35.995556,16.3928472 C35.8472369,16.4062719 35.7870276,16.4575907 35.7696867,16.5853688 L35.7460449,16.759583 L38.0143546,16.759583 L40.2826679,16.759583 L40.2826679,16.5679458 Z M46.1066897,16.6010482 C46.1066715,16.4802977 46.0482386,16.432444 45.8615284,16.4002729 C45.7266992,16.3770423 45.5446992,16.2795193 45.4570844,16.183558 C45.3079172,16.0201813 45.2977762,15.8942284 45.2977762,14.2043953 C45.2977762,12.73314 45.3209084,12.3520135 45.4229703,12.1415734 C45.6755463,11.6207902 46.1435593,11.3428031 46.7677574,11.3428031 C47.5220819,11.3428031 47.7608258,11.6292853 47.8960555,12.6966947 C48.0015245,13.5292103 47.9496654,15.831012 47.8191168,16.1114733 C47.7558026,16.2474956 47.6409424,16.3206182 47.4044407,16.3754869 C47.1473876,16.4351158 47.0773321,16.4843712 47.0773321,16.6054729 L47.0773321,16.759583 L48.8973321,16.759583 L50.7173321,16.759583 L50.7173321,16.6027886 C50.7173321,16.5000663 50.6685161,16.4458625 50.5757762,16.4456054 C50.4979238,16.4453921 50.3035151,16.4139391 50.1437591,16.3757064 C49.6626385,16.260566 49.6419196,16.166643 49.5904573,13.8675946 C49.5463041,11.8949923 49.5367928,11.7984665 49.3553315,11.4810236 C49.1284794,11.084177 48.6504637,10.7143146 48.2212276,10.6035268 C48.0488954,10.5590442 47.6755188,10.5226773 47.3915005,10.5227056 C46.7833766,10.5227714 46.0941499,10.7737867 45.6011083,11.1747696 L45.2977762,11.4214668 L45.2977762,9.57700315 L45.2977762,7.73253632 L45.1157762,7.76685548 C44.597371,7.86460426 43.9617214,7.93848892 43.2542583,7.98322864 C42.7631386,8.01428648 42.4671302,8.06223108 42.4679018,8.11059588 C42.4703734,8.26523281 42.5942426,8.34166068 42.9115523,8.38431817 C43.3044175,8.43713594 43.4929149,8.61934987 43.5588026,9.00997181 C43.585997,9.17121606 43.5970917,10.8097867 43.5834563,12.6512462 C43.5552099,16.4661768 43.5807226,16.3210541 42.9233277,16.4059897 C42.5948505,16.4484276 42.4066952,16.5848827 42.4991694,16.7136078 C42.517333,16.7388956 43.3364604,16.759583 44.3194534,16.759583 L46.1067116,16.759583 L46.1066897,16.6010482 Z" id="path2270"></path>
                </g>
            </g>
        </g>
    </g>
</svg>