<?xml version="1.0" encoding="UTF-8"?>
<svg width="210px" height="46px" viewBox="0 0 210 46" version="1.1" xmlns="http://www.w3.org/2000/svg" xmlns:xlink="http://www.w3.org/1999/xlink">
    <!-- Generator: sketchtool 50.2 (55047) - http://www.bohemiancoding.com/sketch -->
    <title>AAC86675-70C5-4DE2-ABFB-A633DF48A43A</title>
    <desc>Created with sketchtool.</desc>
    <defs></defs>
    <g id="Mockups" stroke="none" stroke-width="1" fill="none" fill-rule="evenodd">
        <g id="medium-enterprises" transform="translate(-315.000000, -2361.000000)" fill="#7689A2">
            <g id="div-features" transform="translate(-130.000000, 1458.000000)">
                <g id="div-brands-trust" transform="translate(294.000000, 793.000000)">
                    <g id="logos" transform="translate(0.000000, 100.000000)">
                        <g id="axa-mansard-logo-grey" transform="translate(151.354884, 10.000000)">
                            <g id="axa-mansard-logo" transform="translate(57.794872, 24.769231)" fill-rule="nonzero">
                                <path d="M150.974359,8.82261077 C150.843405,9.41199659 150.74444,10.0068481 150.5745,10.5889463 C149.711805,13.5668478 147.487591,15.3258957 144.125778,15.5390585 C142.341409,15.6529274 140.542044,15.5590994 138.707692,15.5590994 L138.707692,0.0127958114 C140.120193,0.0127958114 141.499706,-0.023642261 142.87422,0.0264600886 C143.799893,0.0592543538 144.74356,0.128486691 145.637244,0.333450849 C148.619191,1.01666471 150.185638,2.89778019 150.749438,5.56777995 C150.831409,5.95220161 150.898386,6.33844518 150.97236,6.72468875 L150.974359,8.82261077 Z M140.761967,1.5914753 L140.761967,2.12529306 C140.761967,5.9203183 140.769964,9.71534354 140.75097,13.5121907 C140.75097,13.9567352 140.891921,14.0906451 141.367753,14.0587618 C142.032518,14.0205018 142.700282,14.0514742 143.367046,14.0314332 C145.785192,13.960379 147.54657,12.7843402 148.298304,10.6864182 C148.965693,8.84259666 148.988397,6.85543064 148.363281,4.99934602 C147.845464,3.41520082 146.734857,2.3193258 144.945489,1.84198705 C143.588968,1.48216108 142.211455,1.63064623 140.761967,1.5914753 Z" id="Shape"></path>
                                <path d="M60.4676792,2.35160844 C60.3021078,2.75621546 60.1576091,3.10445026 60.0171243,3.45450352 C58.6674665,6.81865171 57.3077741,10.1827999 55.9832029,13.5614958 C55.8196384,13.9797412 55.5527173,14.0161104 55.1563494,14.0161104 C54.7599815,14.0161104 54.5372127,13.9570105 54.3836828,13.5669512 C52.9788346,9.99368023 51.5358547,6.43132006 50.1049164,2.86532297 C50.0447086,2.71348168 49.9784801,2.56254963 49.8821476,2.33251463 C49.9363346,6.79228407 49.9885147,11.1584029 50.0427017,15.5954416 L48.1230769,15.5954416 L48.1230769,0.011252374 C48.8826984,0.011252374 49.6282715,-0.00875066937 50.3758514,0.0294369588 C50.509312,0.0367107928 50.6829111,0.266745791 50.7461293,0.42404245 C51.5990729,2.54012197 52.4416474,4.65892919 53.2738527,6.78046409 C53.8468301,8.23523088 54.4087694,9.68999766 54.9797399,11.1402183 C55.0379407,11.2893319 55.1091866,11.4338994 55.2326125,11.7112143 C55.3660731,11.4066225 55.4473536,11.2338689 55.5165926,11.0574784 C56.8986957,7.50905979 58.2781229,3.95942882 59.6548742,0.408585553 C59.7742863,0.097629152 59.9388542,-0.0132968156 60.3001009,0.0012508523 C60.9473346,0.0285277296 61.5955717,0.00943391548 62.2769231,0.00943391548 L62.2769231,15.5627093 L60.2790282,15.5627093 C60.3422463,11.1793152 60.404461,6.80228559 60.4676792,2.35160844 Z" id="Shape"></path>
                                <path d="M90.6391507,13.0659275 C90.5732283,8.71945384 90.5093342,4.41469472 90.4434118,0.0464569472 L92.4717949,0.0464569472 L92.4717949,15.5896571 C91.7943149,15.5896571 91.1239343,15.6032597 90.4555821,15.5760546 C90.3348933,15.5760546 90.1858071,15.417358 90.1117711,15.3040032 C87.537753,11.2141647 84.9684677,7.12221016 82.4039154,3.02813969 C82.3106097,2.87941829 82.2152757,2.73251056 82.0996579,2.55295668 C82.1655803,6.9248218 82.2304886,11.2277672 82.2964111,15.5923777 C81.6280588,15.5923777 81.0601116,15.6041666 80.4941927,15.5814956 C80.3998729,15.5814956 80.2700563,15.4382152 80.2315171,15.3393699 C80.1848643,15.2169468 80.2142758,15.0673186 80.2142758,14.9349202 L80.2142758,0.699380176 C80.2142758,0.0464569472 80.2274603,0.119003973 80.908997,0.0301338665 C82.0601044,-0.120401211 82.6523923,0.296744185 83.2020841,1.19904781 C85.5600795,5.08484786 88.0205082,8.92077183 90.444426,12.7748326 C90.5012207,12.8682369 90.5641006,12.9552933 90.6391507,13.0659275 Z" id="Shape"></path>
                                <path d="M134.933333,15.5898178 C134.173072,15.5898178 133.516746,15.6098293 132.864269,15.5743544 C132.712216,15.5652583 132.520708,15.3924323 132.433133,15.2478042 C131.250398,13.3076046 130.073437,11.3628569 128.919573,9.40628427 C128.721327,9.07063792 128.499986,8.93510593 128.090984,8.95147892 C127.43562,8.98422491 126.776407,8.97694802 126.12008,8.95147892 C125.747648,8.93783476 125.623504,9.04243999 125.627354,9.40628427 C125.645639,11.3164667 125.636015,13.2266492 125.635053,15.1368317 C125.635053,15.2696349 125.622542,15.4033476 125.613881,15.5588911 L123.610256,15.5588911 L123.610256,0.0472997565 C123.683627,0.0239075195 123.759448,0.00804955514 123.83641,0 C125.88719,0.0236498783 127.938932,0.0209210462 129.987787,0.0909610702 C130.626904,0.12590654 131.255791,0.258614011 131.849946,0.483912894 C133.435908,1.05969647 134.331861,2.18306569 134.393452,3.79489585 C134.422322,4.55442079 134.37228,5.35305898 134.149976,6.07619949 C133.745786,7.3769428 132.687195,8.12646201 131.379354,8.59036347 C131.186883,8.65858428 130.994412,8.72316664 130.759597,8.80594121 L134.933333,15.5898178 Z M125.6543,7.43424827 C126.456905,7.43424827 127.208504,7.46790387 127.95433,7.42515216 C128.749236,7.37967163 129.564351,7.35238331 130.324612,7.15772662 C131.874005,6.76204596 132.515896,5.7114456 132.415811,3.96681227 C132.343634,2.70973028 131.549691,1.86652116 129.996449,1.69278552 C128.618355,1.54179014 127.217165,1.58454184 125.826562,1.54633819 C125.771707,1.54633819 125.715891,1.58818029 125.6543,1.61364939 L125.6543,7.43424827 Z" id="Shape"></path>
                                <path d="M13.2102564,15.5835101 C12.6192488,15.5835101 12.1109062,15.5571617 11.6082646,15.5916872 C11.2281954,15.6189442 11.0571642,15.5008306 10.9431434,15.1374042 C10.5364693,13.8199835 10.0879877,12.5152827 9.66801115,11.1996791 C9.57299384,10.9062123 9.43521874,10.7899159 9.10360833,10.7926415 C7.39329678,10.8071786 5.68298523,10.8071786 3.97267367,10.7926415 C3.63441205,10.7926415 3.49758713,10.9243836 3.41112138,11.2069476 C2.98639401,12.5352711 2.53791231,13.8572347 2.11983615,15.1873753 C2.02481885,15.479025 1.90699738,15.6107671 1.56588525,15.5889615 C1.06324368,15.5571617 0.555851255,15.5807844 0,15.5807844 C0.0188373949,15.4608109 0.0445305248,15.3419136 0.0769640199,15.2246265 C1.82464905,10.2759703 3.57011701,5.32519418 5.3133679,0.372298033 C5.4083852,0.092459703 5.53950909,-0.0120253876 5.84546482,0.00251166845 C6.3201215,0.0298414114 6.79606777,0.0298414114 7.27072445,0.00251166845 C7.62133832,-0.0202024817 7.76481446,0.110631023 7.87218401,0.415909201 C9.51281621,5.09865839 11.1597829,9.7792876 12.8130841,14.4577968 C12.9375567,14.8103204 13.0610792,15.1646612 13.2102564,15.5835101 Z M9.00669068,9.24989647 C8.19619304,6.66411762 7.40469886,4.13739556 6.61415485,1.6106735 L6.50108425,1.61794203 C5.70388903,4.15193262 4.9038433,6.68683177 4.09619617,9.24989647 L9.00669068,9.24989647 Z" id="Shape"></path>
                                <path d="M121.723077,15.5888767 C121.064462,15.5888767 120.478921,15.6097706 119.897177,15.572525 C119.758621,15.5634407 119.563124,15.3799379 119.517571,15.2382228 C119.064892,13.9191827 118.626449,12.5937836 118.212679,11.2629339 C118.102594,10.9104632 117.927975,10.7950926 117.54837,10.7996347 C115.888863,10.8196202 114.228408,10.8196202 112.567003,10.7996347 C112.202582,10.7996347 112.038403,10.9150053 111.934011,11.2447654 C111.515497,12.5747066 111.059971,13.8937467 110.644303,15.2245964 C110.549402,15.5125686 110.421285,15.6070453 110.117601,15.5943273 C109.59944,15.5716166 109.079381,15.5879683 108.512821,15.5879683 C108.571659,15.38448 108.607722,15.2245964 108.663714,15.0701633 C110.371936,10.2203593 112.077628,5.3690413 113.78079,0.516209227 C113.921244,0.112866389 114.112944,-0.0342992408 114.54949,0.0065801009 C114.974891,0.046547926 115.403358,0.046547926 115.828759,0.0065801009 C116.208364,-0.0297570917 116.303266,0.170097468 116.398167,0.451710711 C117.874831,4.66076886 119.356556,8.86801014 120.843342,13.0734346 C121.128995,13.8892045 121.413699,14.6995239 121.723077,15.5888767 Z M115.141674,1.62540203 L115.023996,1.62540203 L112.627739,9.23895232 L117.520849,9.23895232 C116.717984,6.67172966 115.9341,4.14992849 115.141674,1.62540203 Z" id="Shape"></path>
                                <path d="M40.574359,15.5867297 C39.963107,15.5867297 39.4249395,15.567683 38.8896194,15.5939857 C38.5801968,15.6094045 38.4482651,15.5032868 38.3599943,15.2311901 C37.9376229,13.9051721 37.4801331,12.5891311 37.0672533,11.2603922 C36.9628469,10.9238993 36.8081356,10.8068977 36.4436623,10.8068977 C34.7687306,10.8226188 33.0919007,10.8226188 31.4131724,10.8068977 C31.0458517,10.8068977 30.8977845,10.9275272 30.7933781,11.2603922 C30.3842948,12.5746193 29.9230084,13.8734275 29.5148743,15.1885616 C29.4133154,15.5159846 29.2595532,15.6094045 28.9235544,15.5921717 C28.4205055,15.566776 27.9155582,15.5858228 27.3641026,15.5858228 C27.4210515,15.404425 27.4590175,15.2638417 27.5102715,15.1241654 C29.2339262,10.2397272 30.954417,5.35377744 32.671744,0.466316012 C32.7827945,0.149776849 32.9251668,-0.0016903152 33.3000807,0.027333333 C33.8932988,0.0744967614 34.6336351,-0.125947809 35.0446166,0.146148893 C35.4337677,0.403733771 35.4878692,1.13295293 35.6739025,1.65900656 C37.2589814,6.14255555 38.8408964,10.6261045 40.4196477,15.1096535 C40.4728,15.2502368 40.5136134,15.3962621 40.574359,15.5867297 Z M36.3981032,9.26592336 L34.0034001,1.63451785 L33.894248,1.63451785 C33.0950645,4.16592417 32.295881,6.69823748 31.487206,9.26320239 L36.3981032,9.26592336 Z" id="Shape"></path>
                                <path d="M77.374359,15.5829887 C76.7095725,15.5829887 76.1283592,15.6057018 75.5471459,15.5666352 C75.4122893,15.5584585 75.2251994,15.3649428 75.1758152,15.2204874 C74.7237604,13.9013101 74.2875339,12.5769844 73.8671356,11.2475104 C73.7645686,10.9222587 73.610718,10.7932482 73.240337,10.7932482 C71.5631757,10.8114187 69.8853814,10.8114187 68.2069539,10.7932482 C67.8356231,10.7932482 67.6817726,10.9204416 67.5801552,11.2475104 C67.1727361,12.5485173 66.7254298,13.8395304 66.3256082,15.1423543 C66.2163933,15.4957703 66.0473476,15.6211467 65.6608218,15.5911654 C65.1859743,15.5557329 64.7111268,15.5829887 64.1641026,15.5829887 C64.2163358,15.3921985 64.2476757,15.2395664 64.2989592,15.093294 C66.0293034,10.2024045 67.7555322,5.3106065 69.4776457,0.41789995 C69.5868606,0.106276093 69.722667,-0.0163746964 70.071205,0.0027043153 C70.5290716,0.0322300258 70.9884967,0.0322300258 71.4463633,0.0027043153 C71.7901528,-0.0200087938 71.9392549,0.099007898 72.0475201,0.410631755 C73.0446998,3.27520908 74.0599237,6.13433526 75.0684997,8.99527848 C75.7801378,11.0122026 76.490193,13.0291267 77.1986654,15.0460508 C77.2537477,15.2004999 77.3012325,15.3567661 77.374359,15.5829887 Z M73.1881037,9.25057383 L70.7958222,1.60988392 L70.6828085,1.61715211 C69.8850648,4.15102657 69.0863714,6.68580955 68.2791307,9.24875678 L73.1881037,9.25057383 Z" id="Shape"></path>
                                <path d="M95.3025641,14.1624195 L96.4837547,12.8337801 C97.4140387,13.696002 98.4350352,14.3510305 99.6683371,14.6399864 C100.654593,14.8704078 101.647603,14.8908484 102.617453,14.5860975 C103.720477,14.2404654 104.426875,13.5278316 104.535923,12.3822285 C104.640146,11.2923725 104.133508,10.4766065 103.136637,9.99625227 C101.91781,9.4090494 100.657488,8.9008216 99.4299759,8.32848462 C98.8393806,8.04974908 98.2410652,7.77101354 97.7189866,7.3919332 C95.4029267,5.72602379 95.4772336,2.51406124 97.8830409,0.968008105 C99.6895676,-0.193389982 101.646638,-0.239845905 103.647135,0.457922066 C104.553009,0.779522511 105.371299,1.29479739 106.040397,1.96495222 L104.98852,3.22297863 C104.119997,2.47410914 103.162693,1.93150396 102.008523,1.78841971 C101.102364,1.67599638 100.208751,1.70758641 99.3730394,2.1145403 C97.8955862,2.83367799 97.6051137,4.62316016 98.8509609,5.66563109 C99.3720744,6.10231677 100.030221,6.40892586 100.662313,6.69788171 C101.820343,7.23119571 103.017939,7.68181817 104.173074,8.221636 C105.104323,8.65646344 105.837742,9.31892491 106.262353,10.2601219 C107.14915,12.2523417 106.364765,14.5688177 104.428805,15.6750244 C101.730595,17.2433763 97.387018,16.5372463 95.3025641,14.1624195 Z" id="Shape"></path>
                                <path d="M20.433797,6.35896671 C20.5656543,6.13264393 20.6512631,5.99539598 20.7289999,5.85178554 C21.734658,4.01757121 22.7442521,2.18517473 23.738102,0.344597908 C23.8738954,0.0937341047 24.0333049,-0.011701407 24.338348,0.00102356857 C24.8923455,0.0228378124 25.4483111,0.00738605634 26.0820134,0.00738605634 C25.9757404,0.202805324 25.9039077,0.344597908 25.8182988,0.486390493 C24.4731573,2.73780224 23.1319519,4.99103183 21.7730343,7.23517216 C21.6008326,7.51966626 21.5939446,7.72962836 21.7730343,8.01684923 C23.234289,10.3636983 24.6768474,12.7205456 26.1253099,15.074666 C26.2128867,15.2164586 26.2945596,15.3627958 26.4205128,15.584574 C25.6598732,15.584574 24.9661463,15.5982079 24.2734033,15.5700311 C24.1651623,15.5700311 24.039209,15.3882458 23.9673763,15.260996 C22.8128047,13.2958962 21.6585612,11.3283726 20.5046457,9.35842523 C20.4062447,9.19118269 20.2970196,9.02848479 20.1513861,8.79761738 C20.037241,8.97940274 19.9624562,9.09392752 19.8965276,9.20936123 C18.7531081,11.2335413 17.6155928,13.2604481 16.4524931,15.2764478 C16.3373526,15.4387449 16.1518543,15.5471193 15.9437601,15.5736669 C15.3750024,15.6118418 14.8013246,15.5882097 14.1538462,15.5882097 C14.2689753,15.3846101 14.3506481,15.224639 14.4490491,15.0737571 C15.8758634,12.7259991 17.2938216,10.3736965 18.742284,8.03775455 C18.9774624,7.65691421 18.9587662,7.38241831 18.7285079,7.01157617 C17.3754944,4.83015179 16.0510171,2.64054707 14.7186678,0.4527602 C14.6478191,0.336417567 14.5877945,0.213712445 14.4775854,0.0128396173 C15.2333049,0.0128396173 15.9289999,-0.00442999238 16.6217428,0.0292003001 C16.735888,0.0346538611 16.8628252,0.249160592 16.94253,0.387317469 C17.9960766,2.19971756 19.0456871,4.01363252 20.0913615,5.82906237 C20.1818904,5.97994422 20.2852115,6.12900822 20.433797,6.35896671 Z" id="Shape"></path>
                            </g>
                            <g id="AXA_Logo">
                                <path d="M0,40.032016 L0,0 L43.470238,0 L26.2857143,23.4693878 L28.8720356,23.4693878 L46,0 L46,46 L0,46 L0,41.3061224 L2.0406735,41.3061208 C2.06622437,41.1308493 3.20932803,39.5201461 3.365562,39.365952 C3.52016179,39.2094338 7.44209138,34.1496396 7.44209138,34.1496396 L14.3206304,34.1496396 L15.1257136,36.8857849 C15.1257136,36.8857849 13.1176909,39.4622047 12.5788714,40.0844308 C12.2592204,40.4514833 11.344917,41.3061224 11.344917,41.3061224 L14.5804456,41.3061224 C14.5804456,41.3061224 14.6920297,41.043175 14.9511136,40.5704147 C15.21183,40.0985359 16.1276843,39.0067551 16.1276843,39.0067551 C16.1276843,39.0067551 16.5279044,40.2292482 16.559739,40.4358555 C16.6003892,40.6917503 16.709606,41.3061224 16.709606,41.3061224 L19.9810505,41.3061224 C19.9810505,41.3061224 20.0966343,41.0619284 20.3573507,40.5900496 C20.6156183,40.1172892 21.5633888,39.0975565 21.5633888,39.0975565 C21.5633888,39.0975565 21.9268735,40.2292482 21.9596059,40.4358555 C22.0002561,40.6917503 22.1086567,41.3061224 22.1086567,41.3061224 L26.2904048,41.3061224 C26.2904048,41.3061224 25.665469,40.2417504 25.524336,39.8863988 C25.4430356,39.6891682 24.1341476,35.6664174 24.1341476,35.6664174 L25.2238672,34.1496412 L32.154974,34.1496412 C32.154974,34.1496412 33.7333125,39.1350632 33.9214626,39.7940747 C34.0444949,40.2894703 34.1131535,40.7963749 34.1262646,41.3061224 L38.4897959,41.3061224 C37.8290258,40.8467459 36.1669381,35.0809767 35.3603007,32.8653583 L33.2462445,25.6720932 C33.1433946,25.3981663 33.0652776,24.4081665 33.0652776,24.4081665 L29.6886193,24.4081665 C29.5076523,24.8808467 29.1991841,25.3152188 28.9895661,25.6970977 C28.729666,26.169858 24.4402486,31.6921544 23.4972159,32.8653599 C23.3585284,33.0399101 23.2780443,33.1369627 23.2780443,33.1322343 C23.2780443,33.1212547 23.2485769,33.0179511 23.2062942,32.8653599 C23.0508765,32.333932 22.73196,31.2664344 22.73196,31.2664344 C22.73196,31.2664344 26.3868879,26.7059277 26.759923,26.2418228 C27.8703759,24.8628114 28.5040458,24.4081633 28.5040458,24.4081633 L25.0429003,24.4081633 C25.0143753,24.7767117 24.8942205,25.1327668 24.6929656,25.4451266 C24.5271813,25.6955717 21.6941551,29.1822496 21.6941551,29.1822496 C21.6941551,29.1822496 20.8036868,26.0274417 20.6347191,25.5170945 C20.5302871,25.1567764 20.4845553,24.7825091 20.4992183,24.4081633 L16.345305,24.4081633 C16.5015389,24.5826334 16.9814237,25.7471835 16.9814237,25.7471835 L19.0292804,31.9363453 L17.8311602,33.4406192 C17.7801433,33.3654456 15.6135195,26.3858388 15.5211178,26.0946812 C15.4174516,25.7652155 15.3074184,24.4081633 15.3074184,24.4081633 L11.7514224,24.4081633 C11.7514224,24.4081633 11.0611034,25.8834257 10.5820349,26.5666401 C10.3843344,26.8491423 8.13004323,29.8153751 5.72743587,32.8653567 C3.05382708,36.3629339 0.143500161,39.9098789 0.0804841629,39.9553197 C0.052182836,39.9793514 0.025310541,40.004959 0,40.032016 Z" id="Combined-Shape" fill-rule="nonzero"></path>
                                <path d="M30.2218848,27.6380663 C29.7260828,28.6852878 26.8077564,32.1734884 26.8077564,32.1734884 L31.4295554,32.1734884 C31.4295554,32.1734884 30.5336181,29.4647534 30.3773841,28.8543083 C30.2975446,28.4639744 30.2670037,28.065468 30.2864517,27.6677991 C30.2864484,27.6122604 30.2760851,27.5222604 30.2218848,27.6380663 Z" id="axa-path"></path>
                                <path d="M12.4640256,27.6380663 C11.9682236,28.6852878 9.04989722,32.1734884 9.04989722,32.1734884 L13.6716962,32.1734884 C13.6716962,32.1734884 12.7765752,29.4647534 12.6203412,28.8543083 C12.5405017,28.4639744 12.5099608,28.065468 12.5294088,27.6677991 C12.5294088,27.6122604 12.5183075,27.5222604 12.464024,27.6380663 L12.4640256,27.6380663 Z" id="axa-path"></path>
                                <path d="M19.4223141,38.2147072 L20.6945516,36.4991777 C20.5773353,36.3755147 19.8607357,34.2420454 19.8607357,34.2420454 L18.630696,35.8088305 L19.4223141,38.2147072 Z" id="axa-path"></path>
                            </g>
                        </g>
                    </g>
                </g>
            </g>
        </g>
    </g>
</svg>