<?xml version="1.0" encoding="UTF-8"?>
<svg width="128px" height="70px" viewBox="0 0 128 70" version="1.1" xmlns="http://www.w3.org/2000/svg" xmlns:xlink="http://www.w3.org/1999/xlink">
    <!-- Generator: sketchtool 50.2 (55047) - http://www.bohemiancoding.com/sketch -->
    <title>EEEDFE41-AC9D-4445-AC47-D29C28A0586C</title>
    <desc>Created with sketchtool.</desc>
    <defs></defs>
    <g id="Mockups" stroke="none" stroke-width="1" fill="none" fill-rule="evenodd">
        <g id="homepage" transform="translate(-816.000000, -5164.000000)" fill="#7689A2" fill-rule="nonzero">
            <g id="div-brands-trust" transform="translate(150.000000, 5068.000000)">
                <g id="Group-2" transform="translate(0.000000, 96.000000)">
                    <g id="batn-logo-grey" transform="translate(666.000000, 0.000000)">
                        <polygon id="Shape" points="19.4166667 47.6333333 20.2916667 48.7333333 20.2916667 55.625 22.4583333 55.625 22.4583333 47.6333333"></polygon>
                        <polygon id="Shape" points="97.85 47.7166667 98.725 48.8166667 98.725 55.7 100.783333 55.7 100.783333 47.7166667"></polygon>
                        <polygon id="Shape" points="32.2666667 47.7166667 33.1416667 48.8833333 33.1416667 55.775 35.3 55.775 35.3 47.7166667"></polygon>
                        <polygon id="Shape" points="24.0333333 49.8166667 24.4333333 47.6333333 31.0666667 47.6333333 31.4 49.75 30.275 48.5833333 28.6666667 48.5833333 28.6666667 55.7 26.6 55.7 26.6 48.5 25.3333333 48.5"></polygon>
                        <path d="M42.6583333,49.9083333 L42.5,47.95 C41.2166667,47.7916667 40.175,47.3166667 38.9,47.875 C37.625,48.4333333 36.5166667,50.525 38.1833333,51.7 C39.0166667,52.3416667 42.575,53.75 39.9416667,54.925 C38.8538492,55.2026957 37.7283722,54.6328339 37.3083333,53.5916667 L37.3083333,54.7583333 C38.0854016,55.3034282 38.9951536,55.6287509 39.9416667,55.7 C42.2583333,55.8666667 43.3666667,53.75 42.575,52.3666667 C41.7506461,51.551665 40.8098285,50.8636044 39.7833333,50.325 C39.4413061,50.0810229 39.2382708,49.6867946 39.2382708,49.2666667 C39.2382708,48.8465388 39.4413061,48.4523105 39.7833333,48.2083333 C40.4480591,48.0238347 41.1609455,48.1695115 41.7,48.6 L42.6583333,49.9083333 Z" id="Shape"></path>
                        <polygon id="Shape" points="44.0083333 47.55 44.975 48.7333333 44.975 55.625 47.2083333 55.625 47.2083333 51.95 50.1666667 51.95 50.1666667 55.625 52.475 55.625 52.475 47.6416667 50.1666667 47.6416667 50.1666667 50.7583333 47.2083333 50.7583333 47.2083333 47.55"></polygon>
                        <polygon id="Shape" points="68.7833333 55.7 70.2916667 49.125 69.575 47.7833333 72.1166667 47.7833333 73.9666667 51.5583333 76.1083333 47.6333333 78.0416667 47.6333333 79.325 55.7 77.15 55.7 76.2 49.8166667 73.4083333 55.0833333 70.6916667 49.9083333 69.4166667 55.7"></polygon>
                        <polygon id="Shape" points="80.5166667 47.6333333 81.3916667 48.575 81.3916667 55.7 86.825 55.7 86.825 54.1416667 85.8583333 54.8416667 83.4666667 54.8416667 83.4666667 51.625 86.1083333 51.625 86.1083333 50.6166667 83.4666667 50.6166667 83.4666667 48.575 86.3416667 48.575 86.3416667 47.6333333"></polygon>
                        <path d="M109.666667,50.1333333 L109.5,48.175 C105.833333,46.6083333 102.316667,48.65 103.116667,52.8083333 C103.358333,54.1416667 105.358333,55.7 107.108333,55.625 C107.966361,55.6512125 108.81971,55.4890762 109.608333,55.15 L109.608333,53.75 C108.416667,54.6916667 107.283333,55.3083333 105.7,53.6666667 C104.033333,51.5583333 105.125,48.3333333 108.2,48.575 C108.833333,48.9583333 109.15,49.5916667 109.716667,50.1333333" id="Shape"></path>
                        <polygon id="Shape" points="119.883333 47.6333333 120.691667 49.125 120.691667 55.7 121.566667 55.7 121.566667 50.3 126.275 55.7 127.475 55.7 127.475 47.6333333 126.441667 47.6333333 126.441667 52.8833333 122.05 47.6333333"></polygon>
                        <path d="M5.91666667,46.3833333 C8.41666667,46.775 8.23333333,49.7166667 6.075,50.45 C9.11666667,51.4 9.11666667,54.8416667 5.75833333,55.7 L0.833333333,55.7 L0.833333333,47.6333333 L0,46.3833333 L5.91666667,46.3833333 Z M2.88333333,47.075 L2.88333333,50.4083333 C4.55,50.4083333 5.43333333,50.175 5.525,48.7416667 C5.675,47.55 4.71666667,46.775 2.88333333,47.075 Z M2.88333333,51.2416667 L2.88333333,54.775 C4.88333333,54.775 5.91666667,54.775 5.99166667,52.9833333 C6.06666667,51.1916667 4.80833333,51 2.88333333,51.225 L2.88333333,51.2416667 Z" id="Shape"></path>
                        <path d="M14.5333333,47.7166667 C17.5833333,47.7166667 17.425,51.3166667 14.7833333,51.8833333 L18.6916667,55.7166667 L15.8916667,55.7166667 L12.3916667,52.3833333 L12.3916667,55.7166667 L10.3916667,55.7166667 L10.3916667,48.8166667 L9.66666667,47.7166667 L14.5333333,47.7166667 Z M12.5,48.0916667 L12.5,51.075 C13.9416667,51.075 14.7333333,50.8416667 14.8166667,49.5916667 C14.9,48.3416667 14.0666667,48.0166667 12.5,48.0916667 Z" id="Shape"></path>
                        <path d="M92.9,47.7166667 C95.85,47.7166667 95.6833333,51.05 93.1416667,51.625 L97.3666667,55.7 L94.4916667,55.7 L90.8333333,52.025 L90.8333333,55.7 L89,55.7 L89,48.7333333 L88.2666667,47.7166667 L92.9,47.7166667 Z M90.9,48.4166667 L90.9,51.4 C92.25,51.4 93.05,51.225 93.1416667,49.9833333 C93.2333333,48.7416667 92.4166667,48.1833333 90.9,48.4166667 Z" id="Shape"></path>
                        <path d="M58.2333333,55.7 L62.0583333,47.1583333 L61.225,45.9083333 L64.025,45.9083333 L68.1916667,55.7 L65.8333333,55.7 L64.4583333,52.3666667 L61.025,52.3666667 L59.5833333,55.7 L58.2333333,55.7 Z M64.2166667,51.6666667 L62.8666667,47.8416667 L61.35,51.6666667 L64.2166667,51.6666667 Z" id="Shape"></path>
                        <path d="M110.833333,55.7 L114.033333,48.7333333 L113.333333,47.7166667 L115.666667,47.7166667 L119,55.7 L117.1,55.7 L116.05,53.0416667 L113.091667,53.0416667 L111.975,55.7 L110.833333,55.7 Z M115.833333,52.3666667 L114.7,49.2416667 L113.425,52.3666667 L115.833333,52.3666667 Z" id="Shape"></path>
                        <polygon id="Shape" points="32.3416667 62.2916667 32.7583333 60.0916667 40.7333333 60.0916667 41.05 62.2 39.9333333 61.025 37.7083333 61.025 37.7083333 69.3333333 35.7 69.3333333 35.7 60.9583333 33.625 60.9583333"></polygon>
                        <path d="M76.0333333,63.925 L75.95,61.975 C72.2833333,60.3083333 68.7666667,62.45 69.4916667,66.6 C70.1418519,68.2759499 71.7693423,69.3676 73.5666667,69.3333333 C74.3804931,69.3844 75.1953172,69.2504953 75.95,68.9416667 L75.95,67.5416667 C74.8333333,68.475 73.725,69.1083333 72.125,67.3833333 C70.4583333,65.3416667 71.475,62.05 74.625,62.3833333 C75.1827394,62.8231079 75.6666181,63.3491854 76.0583333,63.9416667" id="Shape"></path>
                        <path d="M84.425,64.0083333 L84.35,62.05 C80.675,60.3833333 77.15,62.5166667 77.875,66.6666667 C78.4912085,68.363062 80.1295361,69.4698582 81.9333333,69.4083333 C82.7567874,69.4654268 83.5825706,69.3372881 84.35,69.0333333 L84.35,67.6083333 C83.225,68.55 82.1083333,69.1833333 80.5166667,67.4583333 C78.75,65.4166667 79.8666667,62.1333333 83.0166667,62.4583333 C83.5763148,62.8985871 84.0628717,63.4245185 84.4583333,64.0166667" id="Shape"></path>
                        <path d="M56.6666667,61.575 C59.0666667,61.8916667 58.9083333,64.325 56.825,64.9083333 C59.775,65.6916667 59.6083333,68.9 56.5833333,69.2166667 L51.8333333,69.2166667 L51.8333333,62.55 L51,61.525 L56.6666667,61.575 Z M53.7833333,62.1333333 L53.7833333,64.95 C55.3833333,64.95 56.2833333,64.8 56.3416667,63.6166667 C56.4,62.4333333 55.5083333,61.8916667 53.75,62.1333333 L53.7833333,62.1333333 Z M53.7833333,65.575 L53.7833333,68.55 C55.7083333,68.55 56.7416667,68.55 56.7416667,67.0666667 C56.8666667,65.6583333 55.6,65.4166667 53.75,65.575 L53.7833333,65.575 Z" id="Shape"></path>
                        <path d="M60,69.2583333 L63.0166667,62.5 L62.2916667,61.4833333 L64.7916667,61.4833333 L67.9916667,69.3166667 L66,69.2416667 L65.1666667,67.2916667 L61.9,67.2916667 L61.0666667,69.2416667 L60,69.2583333 Z M64.875,66.4333333 L63.6,63.1 L62.2416667,66.4333333 L64.875,66.4333333 Z" id="Shape"></path>
                        <path d="M45.6083333,61.4333333 C47.9916667,61.4333333 49.9916667,63.15 49.9916667,65.3416667 C49.8573795,67.6310334 47.8983242,69.3815201 45.6083333,69.2583333 C44.1141256,69.4127363 42.6624481,68.7026071 41.867166,67.4282353 C41.071884,66.1538635 41.071884,64.5378032 41.867166,63.2634314 C42.6624481,61.9890596 44.1141256,61.2789304 45.6083333,61.4333333 Z M43.3333333,65.4166667 C43.3333333,67.3083333 44.375,68.75 45.575,68.75 C46.775,68.75 47.8166667,67.275 47.8166667,65.4166667 C47.8166667,63.5583333 46.85,62.1333333 45.575,62.1333333 C44.3,62.1333333 43.3333333,63.6166667 43.3333333,65.4166667 Z" id="Shape"></path>
                        <path d="M90.8333333,61.4333333 C92.3275411,61.2789304 93.7792185,61.9890596 94.5745006,63.2634314 C95.3697827,64.5378032 95.3697827,66.1538635 94.5745006,67.4282353 C93.7792185,68.7026071 92.3275411,69.4127363 90.8333333,69.2583333 C88.5401741,69.3862828 86.5759035,67.6344664 86.4416667,65.3416667 C86.4416667,63.15 88.4333333,61.4333333 90.8333333,61.4333333 Z M88.6,65.4166667 C88.6,67.3083333 89.575,68.75 90.8333333,68.75 C92.0916667,68.75 93.0666667,67.275 93.0666667,65.4166667 C93.0666667,63.5583333 92.0333333,62.1333333 90.8333333,62.1333333 C89.6333333,62.1333333 88.575,63.6166667 88.575,65.4166667 L88.6,65.4166667 Z" id="Shape"></path>
                        <path d="M50.6166667,40.55 C39.5416667,40.55 29.25,29.55 26.6666667,17.1416667 C36.5,16.6 48.6,20.2833333 54.2416667,25.9416667 C53.8333333,16.2083333 57.925,5.9 63.7333333,0 C70.8916667,6.53333333 73.4833333,18.95 73.3333333,25.7083333 C81.5083333,19.5 90.225,17.2166667 100.833333,17.6083333 C98,30.275 88.0916667,40.8333333 76.4666667,40.7166667 L85.1833333,35.925 L74.025,39.3833333 L90.2916667,25.4 L70.9583333,38.4333333 L75.675,28.6083333 L68.3333333,38.2 L69.9083333,28.0583333 L65.0666667,37.9583333 L64.0583333,8.43333333 L62.3916667,37.725 L57.7583333,27.9 L59.65,37.9583333 L52.0333333,29.0083333 L56.5083333,38.5166667 L36.95,25.2333333 L53.5916667,39.1666667 L42.7583333,35.4666667 L50.6166667,40.55 Z" id="Shape"></path>
                    </g>
                </g>
            </g>
        </g>
    </g>
</svg>