<?xml version="1.0" encoding="UTF-8"?>
<svg width="144px" height="36px" viewBox="0 0 144 36" version="1.1" xmlns="http://www.w3.org/2000/svg" xmlns:xlink="http://www.w3.org/1999/xlink">
    <!-- Generator: sketchtool 50.2 (55047) - http://www.bohemiancoding.com/sketch -->
    <title>8D51030A-0FE3-4E4A-A961-181D1D169E49</title>
    <desc>Created with sketchtool.</desc>
    <defs></defs>
    <g id="Mockups" stroke="none" stroke-width="1" fill="none" fill-rule="evenodd">
        <g id="medium-enterprises" transform="translate(-789.000000, -2365.000000)" fill="#7689A2" fill-rule="nonzero">
            <g id="div-features" transform="translate(-130.000000, 1458.000000)">
                <g id="div-brands-trust" transform="translate(294.000000, 793.000000)">
                    <g id="logos" transform="translate(0.000000, 100.000000)">
                        <g id="cars45-logo-grey" transform="translate(625.163749, 14.000000)">
                            <path d="M16.8831747,36 C16.6058827,35.8484187 16.2947566,35.9058135 16.0005476,35.8741728 C13.580782,35.6266242 11.241182,34.8676653 9.13665031,33.6475461 C4.67447963,31.0574187 1.80177338,27.2570933 0.518531553,22.2465702 C0.0601995864,20.4407565 -0.0958835199,18.5714479 0.0566233359,16.7145877 C0.424384655,11.9574359 2.36395785,7.92066335 5.88269816,4.68889064 C8.39303692,2.38279417 11.3380696,0.88979171 14.7089698,0.308484688 C20.2342159,-0.648096487 25.2070844,0.613119001 29.5407838,4.1885251 C32.7432494,6.83016081 34.745342,10.2370615 35.6162008,14.2892865 C36.0129048,16.1562711 36.1028365,18.0754538 35.88246,19.9713787 C35.4999882,23.3856376 34.2598971,26.4466974 32.1379143,29.128068 C29.5724113,32.3723499 26.2610884,34.4915451 22.2407216,35.4834462 C21.2345267,35.7314214 20.2143568,35.9072852 19.1735922,35.9323035 C19.1132794,35.9323035 19.0500244,35.9323035 19.018397,36 L16.8831747,36 Z M5.33546931,25.3576665 C5.33546931,25.7373557 5.32958513,26.1177806 5.33546931,26.4974698 C5.35091529,27.4209385 5.82679844,27.8889275 6.7579701,27.89555 C7.38242882,27.9007008 8.00835858,27.89555 8.6328173,27.89555 C10.0729706,27.89555 10.4377899,27.5416149 10.4716239,26.1096865 C10.4841278,25.6350751 10.556209,25.5570769 11.0342987,25.5519261 C11.6469891,25.5453036 12.2596794,25.5519261 12.8731053,25.5519261 L24.9003715,25.5519261 C25.4505424,25.5519261 25.5557222,25.6600933 25.5623419,26.2230046 C25.5623419,26.3701709 25.5623419,26.5173372 25.5726392,26.6645036 C25.6270679,27.3789961 25.9315742,27.7564778 26.6413536,27.8455134 C27.6026817,27.965454 28.5757781,27.938964 29.5385773,27.864645 C30.2586539,27.8087218 30.5683089,27.4481643 30.6484809,26.7226343 C30.7338015,25.9661993 30.6749597,25.2046135 30.6786373,24.4415561 C30.6718881,24.086069 30.7894804,23.7393904 31.0110936,23.4614283 C32.6182105,21.3871188 32.7432494,19.3245826 31.4178376,17.0501269 C31.186148,16.6527778 31.2118913,16.6020054 31.6774771,16.5438747 C32.40638,16.4533674 32.599087,16.2958995 32.748398,15.6108402 C32.8785856,15.0140807 32.9933271,14.413642 33.0985068,13.8117317 C33.1963313,13.2502922 32.9205103,12.944922 32.3468027,12.8786972 C31.6362878,12.7977557 30.9301861,12.8728105 30.2218778,12.8875271 C29.6261044,12.9000363 29.2083276,12.5931945 29.041364,12.0317549 C28.9336696,11.6942595 28.8064548,11.3633128 28.6603632,11.0405896 C27.8130411,9.05384412 26.3331696,7.81691108 24.2472274,7.29741392 C21.4988986,6.61853084 18.6584508,6.39162701 15.8372615,6.6255996 C14.1610055,6.75878514 12.5193189,7.04281616 10.9224993,7.58218078 C9.69638304,7.99718984 8.70784061,8.68592829 8.03851501,9.82793905 C7.58927707,10.5861984 7.20045356,11.3786884 6.87565372,12.1980529 C6.67191395,12.713135 6.37402728,12.9184321 5.87092979,12.8823763 C5.17463341,12.8371221 4.47613531,12.8371221 3.77983893,12.8823763 C3.05902675,12.9235829 2.79497412,13.2502922 2.93545894,13.9596339 C3.04872943,14.5350543 3.16396131,15.1104746 3.28115458,15.685895 C3.39736716,16.2613154 3.67833681,16.5070831 4.25719312,16.5446106 C4.77205897,16.577723 4.79633122,16.6240804 4.5359562,17.0766169 C4.48741171,17.1612375 4.43445408,17.2443865 4.38885168,17.3304788 C3.40030925,19.2016987 3.38854089,21.0832203 4.61686369,22.8080098 C5.19130688,23.6137454 5.4259386,24.3878404 5.33473379,25.3201391 C5.33446505,25.3326665 5.3349563,25.3451986 5.33620484,25.3576665 L5.33546931,25.3576665 Z" id="Shape"></path>
                            <path d="M85.9958247,19.5522429 C86.801824,19.9682121 87.2575179,20.656586 87.7146962,21.3626294 C89.1337299,23.5565911 90.5690915,25.7387732 92,27.9283176 C91.9257828,28.042433 91.8196521,27.9857434 91.7335601,27.9864796 C90.5831928,27.990897 89.4328254,27.9953144 88.2832003,27.9864796 C87.5981751,27.981326 87.0704905,27.714075 86.6971777,27.1074225 C85.4755618,25.1240222 84.2183217,23.1619725 83.0004167,21.1770998 C82.6471426,20.6013689 82.1840269,20.3341178 81.5160717,20.3628308 C81.1700038,20.3823424 80.8230982,20.3823424 80.4770303,20.3628308 C80.1972312,20.3436888 80.1222718,20.4364536 80.1244983,20.711067 C80.1378575,22.3793613 80.1311779,24.048392 80.1311779,25.7174226 C80.1311779,26.3557329 80.1096549,26.9947795 80.140084,27.6316174 C80.1556696,27.9570305 80.0391485,28.0041491 79.7474747,27.9997317 C78.6223413,27.9825531 77.4969604,27.9825531 76.3713322,27.9997317 C76.095244,28.0034129 75.9943086,27.9518769 76.0002459,27.6492869 C76.0239955,26.7415168 76.009152,25.8337467 76.009152,24.9252404 C76.009152,19.4167768 76.0064307,13.9080678 76.0009881,8.39911332 C76.0009881,8.07738135 76.0752054,7.99713241 76.4017613,8.00007733 C78.2690672,8.01774682 80.1363731,8.00007733 82.0044212,8.0096483 C83.7299722,8.01627436 85.4384532,8.12965359 87.0452566,8.85042155 C89.1136913,9.77880602 90.1200771,11.3727413 90.2024583,13.6152941 C90.3145263,16.6765333 88.3670658,18.69969 86.1450014,19.4638954 C86.0929238,19.4892479 86.0430309,19.5187961 85.9958247,19.5522429 Z M81.6912244,17.4613532 C82.1535979,17.4238055 82.705032,17.4841763 83.2624035,17.3980375 C84.7823728,17.1631805 85.9342244,16.2428946 86.1323845,14.6401246 C86.3461301,12.907042 85.4792727,11.6341025 83.7529795,11.2733504 C82.614487,11.0362848 81.4648618,11.1702784 80.3211741,11.1261047 C80.0985223,11.1180061 80.1326622,11.2696693 80.1326622,11.3985093 C80.1326622,13.3362634 80.1326622,15.2747538 80.1282092,17.2147166 C80.1282092,17.4039273 80.1771926,17.4723966 80.3760948,17.4657706 C80.7798366,17.451046 81.1887737,17.4613532 81.6875136,17.4613532 L81.6912244,17.4613532 Z" id="Shape"></path>
                            <path d="M75.9999632,27.9917273 C74.8840599,27.9917273 73.7778278,28.015285 72.6760592,27.9828932 C72.043714,27.9637526 71.6040481,27.6148047 71.3883068,27.0089311 C70.9806301,25.8693291 70.5647701,24.7326718 70.1645328,23.5908613 C70.0901393,23.3700082 70.0001231,23.2698881 69.7308184,23.2713605 C67.2510332,23.286084 64.7712481,23.286084 62.2914629,23.2713605 C62.0229022,23.2713605 61.9425572,23.3707444 61.8659318,23.5915975 C61.4805732,24.695863 61.0795919,25.8001284 60.6823303,26.9043939 C60.4100499,27.6626562 59.9383948,27.990255 59.1245293,27.990255 L56,27.990255 C56.3496497,27.1068426 56.6918601,26.243307 57.0325825,25.3797714 C59.2792679,19.6915772 61.5237214,14.002156 63.7659432,8.31150785 C63.8574472,8.07887592 63.9593664,7.99716028 64.2123045,8.00010498 C65.4145043,8.01384695 66.6169522,8.01384695 67.819648,8.00010498 C68.0904405,7.9964241 68.1871521,8.0891824 68.2831198,8.33432934 C70.8447379,14.8480234 73.4132994,21.3595088 75.9888042,27.8687858 C75.9966779,27.9092927 76.0004164,27.9504803 75.9999632,27.9917273 Z M66.006677,11.8157103 C65.868305,12.2772933 65.7604344,12.6991227 65.6153669,13.1091733 C64.8044772,15.4006469 63.9883799,17.6904027 63.1670751,19.9784408 C63.0138243,20.4091043 63.0130804,20.4091043 63.4869673,20.4091043 L68.6201226,20.4091043 C68.7480795,20.4091043 68.8760364,20.3980617 69.0158963,20.3921723 C68.0398529,17.5159288 66.9336207,14.725818 66.006677,11.8157103 Z" id="Shape"></path>
                            <path d="M100.618278,8.00042186 C102.62212,7.98380774 104.474728,8.45694895 106.108048,9.59465493 C106.678954,9.99122672 106.681222,9.99122672 106.359851,10.5907797 C106.126196,11.0241915 105.897833,11.4576033 105.648299,11.8859586 C105.243749,12.5758058 104.706115,12.7137752 103.99305,12.3135916 C103.236883,11.8910151 102.480717,11.4864974 101.615662,11.3022974 C100.782169,11.1137408 99.9090986,11.1627126 99.1044328,11.4431563 C98.0497686,11.8166136 97.4551802,12.8855347 97.7214041,13.9294953 C97.8446593,14.4271965 98.2227426,14.7471989 98.6439274,15.0202483 C99.4159735,15.5215613 100.307494,15.7548813 101.18011,16.0235966 C102.411149,16.4021096 103.651263,16.7676202 104.743923,17.4538556 C106.039237,18.267225 106.792379,19.3940957 106.957979,20.89659 C107.342112,24.387722 105.062269,27.3399787 101.362346,27.8788541 C98.4964749,28.2956518 95.9179468,27.6274752 93.5881975,26.0209622 C92.8494228,25.5153151 92.8592529,25.4965339 93.3258077,24.7669573 C93.5730742,24.3797761 93.8203407,23.9925949 94.0766812,23.6111925 C94.4872796,22.9993596 95.0959937,22.844776 95.7531025,23.2160655 C96.4616306,23.616249 97.1255449,24.0908349 97.8975909,24.3841103 C99.0756985,24.8326915 100.268173,24.9107056 101.475015,24.4881291 C102.410393,24.1601808 102.874679,23.4768349 102.997178,22.5710042 C103.119677,21.6651736 102.808893,20.9283735 101.972573,20.4191146 C101.216406,19.9575311 100.36345,19.7321569 99.5142751,19.4966699 C98.5720915,19.2344557 97.6359573,18.9570722 96.7451931,18.557611 C94.9878619,17.7630227 93.998796,16.4627873 93.762872,14.6085071 C93.5140932,12.658154 94.0691195,10.9808503 95.5973322,9.64955376 C96.6196694,8.76033721 97.8499525,8.26335835 99.2223948,8.07265716 C99.6904619,8.00764539 100.15248,8.01559127 100.618278,8.00042186 Z" id="Shape"></path>
                            <path d="M48.7214429,8.00347624 C51.3336526,7.98473376 53.4868005,8.61909453 55.339337,10.1249805 C55.8265348,10.521456 55.8361603,10.5113639 55.4570641,11.0195733 C55.1238741,11.4643467 54.7906841,11.9091201 54.4552728,12.3517309 C54.0058365,12.9442816 53.5171578,13.0221349 52.8729904,12.6076378 C52.2406698,12.2003494 51.5994642,11.8096408 50.8575611,11.6164491 C47.4797548,10.739157 44.267803,12.1765609 43.4629641,15.9257772 C43.0579531,17.8180465 43.1216294,19.6843647 43.987183,21.4526453 C44.991936,23.5056675 46.6815796,24.5682217 49.0376032,24.5970563 C50.3651803,24.6136362 51.6290811,24.4132359 52.7100975,23.5957755 C52.9137137,23.4415105 53.1040022,23.268503 53.315763,23.1264927 C53.7200335,22.8554477 54.1094956,22.885724 54.4397239,23.2187634 C54.9358068,23.7190434 55.4178217,24.2322989 55.9094621,24.736904 C56.0264488,24.8572884 56.033853,24.9416296 55.9094621,25.0836399 C54.8856116,26.3035354 53.4897629,27.174766 51.9237691,27.5713433 C49.5181372,28.189845 47.12065,28.1826364 44.7912816,27.2620924 C41.8858647,26.1144761 40.1858552,23.9425114 39.3861991,21.0431943 C39.0419028,19.794657 38.9523117,18.5201685 39.0219114,17.2377506 C39.2188637,13.6161273 41.178021,10.1098423 45.1385396,8.64072047 C46.1484756,8.26875438 47.4605038,7.96382869 48.7214429,8.00347624 Z" id="Shape"></path>
                            <path d="M120.741919,14.2120944 C120.741919,16.1510868 120.747719,18.090816 120.736119,20.0320185 C120.736119,20.3045972 120.798473,20.3952112 121.075443,20.383424 C121.617782,20.3613231 122.163021,20.383424 122.70536,20.3731102 C122.9178,20.36869 123.005532,20.4224691 122.999731,20.6574762 C122.98523,21.2704099 122.999731,21.8848171 122.993206,22.4992243 C122.987405,22.9567145 122.745238,23.200562 122.300781,23.2071923 C121.902002,23.2123492 121.503224,23.2300299 121.10517,23.2012987 C120.791223,23.178461 120.731768,23.2978063 120.735394,23.5932227 C120.751345,24.9310685 120.735394,26.2689144 120.74917,27.6060235 C120.74917,27.9007032 120.699866,28.008998 120.382293,27.9994209 C119.512231,27.9751098 118.642168,27.9824768 117.772106,27.9994209 C117.529938,28.0031044 117.471209,27.925751 117.472659,27.6892705 C117.48281,26.3271136 117.465409,24.9634833 117.486435,23.6020631 C117.491511,23.2653915 117.390003,23.2020354 117.080406,23.2035088 C114.531848,23.2160327 111.98329,23.2108758 109.434732,23.2101391 C108.770584,23.2101391 108.471863,22.9611347 108.335553,22.3017889 C108.236946,21.8251445 108.159365,21.3440799 108.030306,20.8740657 C107.962876,20.6287449 108.010005,20.4607775 108.15139,20.2692356 C110.71324,16.7866127 113.275091,13.3020252 115.836942,9.81547324 C116.226295,9.28504978 116.622173,8.75978321 116.997025,8.22199276 C117.084797,8.07497455 117.24578,7.98978249 117.414655,8.00098298 C118.416677,8.00834997 119.419424,8.01203347 120.422171,8.00098298 C120.675214,7.99729949 120.746994,8.07465291 120.745544,8.32955085 C120.737569,10.2847507 120.741919,12.2487909 120.741919,14.2120944 Z M111.921661,20.337012 C111.984676,20.3528465 112.048606,20.3646568 112.113074,20.3723735 C113.803896,20.3723735 115.495442,20.36869 117.188439,20.3804772 C117.47846,20.3804772 117.47846,20.2331374 117.48426,20.0121276 C117.519063,17.4800923 117.382028,14.9443734 117.602444,12.2966763 L111.921661,20.337012 Z" id="Shape"></path>
                            <path d="M127.586519,15.0808236 C129.083451,14.8316065 130.54902,14.7536351 132.006034,15.1791987 C134.171596,15.8109857 135.67138,17.6349335 135.935838,19.9157792 C136.156101,21.8184272 135.823925,23.5753342 134.711205,25.142778 C133.622721,26.6730579 132.108681,27.5198128 130.323054,27.8484586 C127.641406,28.3425204 125.268412,27.6174592 123.186963,25.8350475 C122.980244,25.6579723 122.930346,25.5435656 123.111403,25.3162098 C123.417205,24.930725 123.693069,24.5197355 123.980337,24.1189479 C124.468622,23.4383377 125.026051,23.3137292 125.733887,23.7502234 C126.311275,24.1072887 126.874407,24.4876725 127.525929,24.6975395 C128.923779,25.1515225 130.608897,24.9555009 131.509908,23.7968605 C132.267641,22.8225823 132.445134,21.6836168 132.294015,20.4754244 C132.131491,19.1681282 131.42722,18.3330326 130.176212,18.0160461 C128.940886,17.7027031 127.734787,17.8870654 126.550071,18.2885816 C126.376197,18.3578159 126.184946,18.3670285 126.005473,18.314815 C125.419531,18.1348249 124.830025,17.9628506 124.236954,17.8047217 C124.034512,17.752255 123.998158,17.6407632 124.028809,17.4622305 C124.401854,15.2761164 124.774662,13.0917026 125.147232,10.9089892 C125.296925,10.0301713 125.453746,9.15208213 125.574927,8.26962074 C125.607717,8.02914819 125.703948,8.00655834 125.892134,8.00801575 C126.628482,8.01384539 127.36483,8.00801575 128.101891,8.00801575 C130.370813,8.00801575 132.639023,8.0160315 134.907945,8 C135.244398,8 135.33564,8.10201866 135.314968,8.42847836 C135.288593,8.81542056 135.319958,9.20527757 135.305701,9.59440588 C135.267921,10.6787185 134.664158,11.2973888 133.604901,11.3112342 C131.906239,11.3330953 130.208289,11.3352814 128.509627,11.3309092 C128.26299,11.3309092 128.148225,11.3994074 128.108307,11.6508105 C127.940793,12.6979592 127.761161,13.742193 127.588657,14.788613 C127.580626,14.8858168 127.579911,14.9835077 127.586519,15.0808236 Z" id="Shape"></path>
                            <path d="M138.567187,13.6157289 C137.742456,12.6236297 137.81786,11.8889983 138.788686,11.2144941 C138.090414,10.7003292 137.88698,10.0111787 138.081774,9.20254456 C138.260858,8.45557938 138.800468,8.01927155 139.581998,8.00770862 C140.628229,7.99152052 141.675244,8.00770862 142.723831,8 C142.904486,8 142.980676,8.03700137 142.970465,8.23125857 C142.952339,8.53934677 142.952339,8.84820465 142.970465,9.15629285 C142.984603,9.37675935 142.887206,9.40373952 142.697125,9.40219779 C141.768714,9.39397527 140.839779,9.39397527 139.91032,9.40219779 C139.336936,9.40219779 139.094229,9.62806033 139.117007,10.1075364 C139.134287,10.4659872 139.328295,10.6710365 139.691963,10.7111213 C140.447573,10.7936035 141.206326,10.7234551 141.963507,10.7488935 C142.287116,10.7596856 142.710478,10.612451 142.906057,10.8059373 C143.101636,10.9994236 142.923337,11.4226268 142.97125,11.7309716 C143.030159,12.1210277 142.865999,12.1873218 142.499975,12.1765298 C141.611622,12.1487787 140.720913,12.1765298 139.829418,12.1634251 C139.529373,12.1634251 139.256819,12.2243232 139.149211,12.5056878 C139.029036,12.8201995 139.110724,13.1300859 139.338506,13.3983459 C139.4469,13.5255381 139.579642,13.4754321 139.700603,13.4754321 C140.68164,13.4808281 141.664248,13.4877659 142.644499,13.4754321 C142.898988,13.4715778 142.984603,13.5355593 142.965752,13.7907146 C142.939046,14.1599574 143.093781,14.6587051 142.903701,14.8699212 C142.684558,15.1119719 142.167726,14.9408405 141.780496,14.9470074 C140.65572,14.9577995 139.530158,14.9423823 138.403026,14.9570286 C138.14461,14.9608829 138.051141,14.8907345 138.088843,14.6402044 C138.106981,14.512344 138.106981,14.3826338 138.088843,14.2547734 C138.039359,13.8940101 138.181527,13.6812522 138.567187,13.6157289 Z" id="Shape"></path>
                            <path d="M142.999984,17.5334423 C142.999984,19.0087636 141.996085,19.9896869 140.486722,19.9999213 C138.941422,20.0101556 137.994555,19.022147 138.000024,17.4019703 C138.004711,15.9849061 139.038297,14.9921739 140.495316,15.0000465 C142.002335,15.0110681 143.004671,16.024269 142.999984,17.5334423 Z M141.906242,17.4822706 C141.906242,17.0437679 141.749994,16.8068033 141.345309,16.653288 C140.797921,16.442663 140.192711,16.442663 139.645323,16.653288 C139.244545,16.8012925 139.047671,17.105174 139.054703,17.5192717 C139.061734,17.9333693 139.264076,18.2577196 139.653135,18.3852554 C140.170052,18.5597124 140.728218,18.5665952 141.249216,18.4049368 C141.751556,18.2427617 141.908586,18.0113079 141.906242,17.4822706 Z" id="Shape"></path>
                            <path d="M140.020069,25.0078256 C140.951231,24.9054652 142.003988,25.8202092 141.999989,26.9932913 C141.999989,28.1306284 141.133624,29.0006913 140.00007,28.9998789 C139.47524,29.0057273 138.969633,28.7995411 138.594546,28.4267073 C138.219458,28.0538736 138.005637,27.5449542 138.000151,27.0119761 C137.986551,25.9071343 138.893715,25.0062008 140.020069,25.0078256 Z" id="Shape"></path>
                            <path d="M138.000259,21.9333811 C137.992455,21.1209969 138.161005,20.6183761 138.537902,20.1797929 C138.658852,20.0390591 138.743127,20.0211881 138.910116,20.1418171 C139.4501,20.533489 139.456342,20.5245536 139.167623,21.1224862 C138.807893,21.8671096 139.240193,22.4873809 140.196869,22.5931174 C140.532862,22.62886 140.872972,22.5976728 141.195683,22.5015287 C141.906558,22.2945234 142.147678,21.5863866 141.720841,20.9899432 C141.587614,20.8197617 141.554007,20.5966883 141.6316,20.3975855 C141.709193,20.1984827 141.887378,20.0505678 142.10476,20.0048064 C142.202301,19.9817231 142.24834,20.0465053 142.298281,20.098629 C142.963897,20.7941072 143.151955,21.6161715 142.879622,22.4992949 C142.611971,23.3645473 141.928407,23.7979181 141.011527,23.9550337 C140.589703,24.0269405 140.156681,24.012473 139.74116,23.9125901 C138.619835,23.6497381 138.000259,22.841077 138.000259,21.9333811 Z" id="Shape"></path>
                            <path d="M18.0238075,13.9964934 C15.193076,13.9964934 12.3609166,13.9964934 9.52732919,13.9964934 C8.94899747,13.9964934 8.89544824,13.9151403 9.13106486,13.3863449 C9.39167113,12.8007425 9.66227325,12.2193481 9.92145154,11.6330445 C10.309862,10.7570956 10.9802984,10.1890263 11.8856374,9.87273088 C13.1908107,9.4175741 14.5416793,9.18122921 15.9189656,9.08164175 C17.5218727,8.96592392 19.1247797,8.95961204 20.7234028,9.15177376 C21.8536486,9.28572591 22.9796105,9.45474407 24.0527371,9.85309392 C25.1258637,10.2514438 25.8876908,10.981518 26.3068028,12.0440181 C26.4738764,12.4648102 26.6595137,12.8820957 26.8330133,13.3021864 C27.1114693,13.9740512 27.0943335,14 26.3724899,14 C23.5907857,13.9985974 20.8078916,13.9974285 18.0238075,13.9964934 Z" id="Shape"></path>
                            <path d="M28.9999271,20.5660747 C29.0103934,21.8935717 27.8929098,22.9959044 26.5234287,22.9999541 C25.1249639,23.0080535 24.0179466,21.9429782 24.0002343,20.5701244 C23.9817169,19.1397647 25.0629709,18.0163735 26.4743174,18.0001746 C27.8856638,17.9839757 28.9870454,19.0968377 28.9999271,20.5660747 Z" id="Shape"></path>
                            <path d="M10.5201689,23 C9.10487137,23 8.00811663,21.9262129 8.00005225,20.5247062 C7.99429001,19.6285161 8.46545433,18.7973177 9.23606219,18.3442154 C10.00667,17.8911131 10.9596478,17.8849439 11.7360179,18.3280317 C12.512388,18.7711195 12.9942014,19.5961488 12.9999636,20.4923389 C13.0072215,21.9067925 11.9282084,22.9967633 10.5201689,23 Z" id="Shape"></path>
                        </g>
                    </g>
                </g>
            </g>
        </g>
    </g>
</svg>