<?xml version="1.0" encoding="UTF-8"?>
<svg width="149px" height="65px" viewBox="0 0 149 65" version="1.1" xmlns="http://www.w3.org/2000/svg" xmlns:xlink="http://www.w3.org/1999/xlink">
    <!-- Generator: sketchtool 50.2 (55047) - http://www.bohemiancoding.com/sketch -->
    <title>7C849688-6876-405B-B1A5-E27BFB242BE3</title>
    <desc>Created with sketchtool.</desc>
    <defs></defs>
    <g id="Mockups" stroke="none" stroke-width="1" fill="none" fill-rule="evenodd">
        <g id="medium-enterprises" transform="translate(-977.000000, -2351.000000)" fill="#7689A2" fill-rule="nonzero">
            <g id="div-features" transform="translate(-130.000000, 1458.000000)">
                <g id="div-brands-trust" transform="translate(294.000000, 793.000000)">
                    <g id="logos" transform="translate(0.000000, 100.000000)">
                        <g id="CMB_logo-grey" transform="translate(813.000000, 0.000000)">
                            <g id="CMB_wording" transform="translate(33.000000, 58.000000)">
                                <polygon id="Shape" points="1.04300885 0.544444444 1.74814159 0.544444444 3.40814159 5.44444444 5.18566372 0.544444444 5.92752212 0.544444444 6.79424779 6.35444444 6.13318584 6.47111111 5.43539823 1.50111111 5.42070796 1.50111111 3.71663717 6.35444444 3.06292035 6.35444444 1.47637168 1.50111111 1.45433628 1.50111111 0.705132743 6.47111111 0.0440707965 6.35444444 1.04300885 0.544444444"></polygon>
                                <polygon id="Shape" points="9.37973451 0.544444444 12.2002655 0.544444444 12.2002655 1.15111111 10.0554867 1.15111111 10.0334513 3.12666667 12.1268142 3.12666667 12.1268142 3.72555556 10.0481416 3.72555556 10.0261062 5.74777778 12.229646 5.74777778 12.229646 6.35444444 9.32831858 6.35444444 9.37973451 0.544444444"></polygon>
                                <path d="M15.7406195,3.31333333 L16.4237168,3.31333333 C17.099469,3.31333333 17.7972566,3.06444444 17.7972566,2.21666667 C17.7972566,1.59444444 17.4667257,1.05 16.5779646,1.05 L15.7553097,1.05 L15.7553097,3.31333333 L15.7406195,3.31333333 Z M15.0722124,0.544444444 L16.7248673,0.544444444 C17.760531,0.544444444 18.4656637,1.10444444 18.4656637,2.1 C18.4992541,2.94497294 17.889158,3.6635542 17.0921239,3.71777778 C17.4593805,3.79555556 17.7678761,4.31666667 17.9955752,4.61222222 L19.0973451,6.16777778 L18.4950442,6.55666667 L17.2023009,4.69 C16.8644248,4.23111111 16.7028319,3.91222222 16.1813274,3.91222222 L15.7479646,3.91222222 L15.7479646,6.39333333 L15.0575221,6.39333333 L15.1015929,0.583333333 L15.0722124,0.544444444 Z" id="Shape"></path>
                                <path d="M25.0395575,1.47 C24.6234497,1.16738881 24.1263933,1.01467007 23.6219469,1.03444444 C22.4125907,1.10714774 21.4670914,2.16679227 21.4670914,3.44944444 C21.4670914,4.73209661 22.4125907,5.79174115 23.6219469,5.86444444 C24.120587,5.84333818 24.6059329,5.68808733 25.0322124,5.41333333 L25.3039823,5.92666667 C24.7961436,6.25664337 24.2172233,6.44402941 23.6219469,6.47111111 C22.8420621,6.53181287 22.0748486,6.23673526 21.5135436,5.66019906 C20.9522385,5.08366287 20.6503425,4.28062056 20.6838938,3.45333333 C20.6708488,2.63240885 20.9791947,1.84236379 21.5357485,1.2707077 C22.0923024,0.699051609 22.8474437,0.396751566 23.6219469,0.435555556 C24.2186337,0.431516577 24.8059946,0.592367737 25.3260177,0.902222222 L25.0395575,1.47 Z" id="Shape"></path>
                                <polygon id="Shape" points="27.7866372 0.544444444 28.4770796 0.544444444 28.4550442 3.12666667 31.4077876 3.12666667 31.4445133 0.544444444 32.1349558 0.544444444 32.0835398 6.35444444 31.3930973 6.35444444 31.4151327 3.72555556 28.4623894 3.72555556 28.4330088 6.35444444 27.7425664 6.35444444 27.7866372 0.544444444"></polygon>
                                <path d="M36.8578761,1.19777778 L35.9397345,3.81888889 L37.739292,3.81888889 L36.8725664,1.19777778 L36.8578761,1.19777778 Z M36.5493805,0.544444444 L37.1810619,0.544444444 L39.3846018,6.23 L38.7015044,6.46333333 L37.9669912,4.41777778 L35.7120354,4.41777778 L34.9114159,6.46333333 L34.2430088,6.26111111 L36.5420354,0.544444444 L36.5493805,0.544444444 Z" id="Shape"></path>
                                <polygon id="Shape" points="41.7644248 0.692222222 42.33 0.427777778 45.370885 5.13333333 45.3855752 5.13333333 45.4149558 0.544444444 46.1053982 0.544444444 46.0539823 6.23777778 45.4590265 6.47111111 42.4548673 1.71888889 42.4328319 1.71888889 42.4034513 6.35444444 41.7130088 6.35444444 41.7644248 0.692222222"></polygon>
                                <polygon id="Shape" points="48.4558407 0.544444444 52.6131858 0.544444444 52.6131858 1.15111111 50.8723894 1.15111111 50.8283186 6.35444444 50.1452212 6.35444444 50.189292 1.15111111 48.4558407 1.15111111 48.4558407 0.544444444"></polygon>
                                <path d="M59.4882301,3.04888889 L60.0023894,3.04888889 C60.9058407,3.04888889 61.2730973,2.63666667 61.2730973,2.05333333 C61.2730973,1.47 60.920531,1.05777778 60.0538053,1.05777778 L59.5102655,1.05777778 L59.5102655,3.05666667 L59.4882301,3.04888889 Z M59.4882301,5.80222222 L60.2888496,5.80222222 C60.9866372,5.80222222 61.4273451,5.47555556 61.4273451,4.67444444 C61.4273451,3.87333333 60.9499115,3.60111111 60.1566372,3.60111111 L59.5176106,3.60111111 L59.5176106,5.80222222 L59.4882301,5.80222222 Z M58.8492035,0.552222222 L60.369646,0.552222222 C61.5742478,0.552222222 61.9855752,1.33 61.9855752,1.96 C62.0276051,2.60442071 61.6134105,3.18256416 61.0160177,3.31333333 C61.6723758,3.4131094 62.1476582,4.02785117 62.1104425,4.72888889 C62.1104425,5.76333333 61.4126549,6.33888889 60.3329204,6.33888889 L58.7977876,6.33888889 L58.8418584,0.528888889 L58.8492035,0.552222222 Z" id="Shape"></path>
                                <path d="M66.510177,1.19777778 L65.5920354,3.81888889 L67.3915929,3.81888889 L66.5248673,1.19777778 L66.510177,1.19777778 Z M66.2016814,0.544444444 L66.8480531,0.544444444 L69.0515929,6.23 L68.3684956,6.46333333 L67.6339823,4.41777778 L65.3643363,4.41777778 L64.5637168,6.46333333 L63.9320354,6.25333333 L66.2310619,0.536666667 L66.2016814,0.544444444 Z" id="Shape"></path>
                                <polygon id="Shape" points="71.2257522 0.692222222 71.7986726 0.427777778 74.8322124 5.13333333 74.8542478 5.13333333 74.8836283 0.544444444 75.5740708 0.544444444 75.5226549 6.23777778 74.9276991 6.47111111 71.9161947 1.71888889 71.9015044 1.71888889 71.8721239 6.35444444 71.1816814 6.35444444 71.2257522 0.692222222"></polygon>
                                <path d="M79.180531,3.39888889 L81.9055752,0.427777778 L82.3830088,0.871111111 L80.0325664,3.38333333 L82.4050442,5.99666667 L81.890885,6.47111111 L79.1878761,3.39888889 L79.180531,3.39888889 Z M78.519469,0.544444444 L79.2025664,0.544444444 L79.1584956,6.35444444 L78.4753982,6.35444444 L78.519469,0.544444444 Z" id="Shape"></path>
                            </g>
                            <g id="CORONATION_OUTLINED" transform="translate(0.000000, 37.000000)">
                                <g id="coronation">
                                    <path d="M6.92628713,13.1417391 C5.27284066,13.2238528 3.6610118,12.6062301 2.48411829,11.439583 C1.30722478,10.272936 0.673513997,8.66456954 0.737623762,7.00695652 C0.737623762,3.2373913 3.45945545,0.39173913 7.06643564,0.39173913 C8.52180974,0.322205335 9.96347619,0.701415776 11.1971287,1.47826087 C11.3397246,1.58816242 11.5027019,1.66856127 11.6765842,1.71478261 C11.7087508,1.70257939 11.7386649,1.68509386 11.765099,1.66304348 C11.8549803,1.58873234 11.9659834,1.54475776 12.0822772,1.5373913 C12.4068317,1.5373913 12.4142079,1.79608696 12.4658416,2.87521739 L12.4658416,3.07478261 C12.4658416,3.31869565 12.4658416,3.53304348 12.510099,3.72521739 C12.5469802,4.19086957 12.5691089,4.46434783 12.4363366,4.61956522 C12.3788403,4.67979794 12.2981399,4.71214402 12.2150495,4.70826087 C11.9568812,4.70826087 11.8314851,4.39782609 11.7355941,4.17608696 C11.720392,4.13822389 11.7031555,4.10121322 11.6839604,4.06521739 C10.5037624,2.01782609 9.2350495,1.19 7.32460396,1.19 C4.27084158,1.19 2.52267327,3.11173913 2.52267327,6.4673913 C2.52267327,9.36478261 4.18970297,12.2917391 7.37623762,12.2917391 C10.0169307,12.2917391 11.6323267,10.5991304 11.8609901,9.88956522 C11.9051597,9.70942106 12.0599464,9.57818019 12.2445545,9.56434783 C12.3349774,9.56966681 12.4190682,9.61260798 12.4765022,9.68279259 C12.5339363,9.75297719 12.5594875,9.84401884 12.5469802,9.93391304 L12.1634158,11.6634783 C12.1634158,11.6634783 11.1086139,13.1417391 6.92628713,13.1417391 Z" id="Shape"></path>
                                    <path d="M22.6819307,13.1417391 C18.9938119,13.1417391 16.5301485,10.5621739 16.5301485,6.71869565 C16.5110945,5.0122851 17.1888617,3.37220456 18.4062517,2.17884695 C19.6236418,0.985489333 21.274878,0.342543144 22.9769802,0.399130435 C24.65197,0.371701468 26.2715524,1.0001738 27.4912376,2.15086957 C28.6874714,3.33288986 29.3485248,4.95417624 29.3205446,6.6373913 C29.3131683,10.5252174 26.6503465,13.1417391 22.6819307,13.1417391 Z M22.4606436,1.26391304 C20.3510396,1.26391304 18.0865347,2.81608696 18.0865347,6.21608696 C18.0865347,10.1778261 20.8231188,12.3213043 23.404802,12.3213043 C25.9864851,12.3213043 27.7494059,10.2517391 27.7494059,7.28782609 C27.7494059,4.32391304 25.7799505,1.27130435 22.4606436,1.27130435 L22.4606436,1.26391304 Z" id="Shape"></path>
                                    <path d="M50.814901,16.7413043 C47.9655196,16.5391387 45.2688573,15.3743652 43.1657426,13.4373913 C42.1916492,12.516445 41.3344694,11.4787774 40.6135644,10.3478261 C39.9644554,9.3573913 39.3005941,8.29304348 39.175198,8.09347826 L39.0055446,7.8126087 C38.6957426,7.3026087 38.6588614,7.25086957 37.840099,7.24347826 L36.4386139,7.24347826 C36.2394554,7.24347826 36.1804455,7.28782609 36.1656931,7.3026087 C36.1509406,7.3173913 36.1656931,7.40608696 36.1656931,7.4873913 L36.1656931,11.1830435 C36.1656931,11.9665217 36.7336634,12.0921739 37.2352475,12.2030435 C37.5893069,12.2769565 37.9728713,12.3582609 37.9728713,12.7056522 C37.97748,12.7854132 37.9479718,12.8633664 37.8917327,12.92 C37.8043647,12.9893387 37.6920018,13.0188272 37.5819307,13.0013043 L37.3458911,13.0013043 C37.1098515,13.0013043 36.6082673,12.9421739 35.5534653,12.9421739 C35.2362871,12.9421739 34.9043564,12.9421739 34.5871782,12.9421739 C34.27,12.9421739 33.9380693,12.9421739 33.5913861,12.9421739 C33.5026909,12.9422658 33.4178222,12.9059802 33.356514,12.8417543 C33.2952058,12.7775285 33.2628,12.6909585 33.2668317,12.6021739 C33.2668317,12.3434783 33.5028713,12.2473913 33.7389109,12.1513043 C34.2231542,12.0490349 34.5572826,11.6036732 34.5207921,11.1091304 L34.5207921,2.43913043 C34.5207921,1.53 34.0708416,1.44869565 33.6356436,1.3673913 C33.370099,1.31565217 33.0455446,1.25652174 33.0455446,0.909130435 C33.0455446,0.73173913 33.2299505,0.546956522 33.5397525,0.546956522 C33.6281087,0.539447685 33.7169408,0.539447685 33.805297,0.546956522 C34.0812215,0.587004448 34.3602066,0.601848075 34.6388119,0.591304348 C35.1256436,0.591304348 35.6124752,0.591304348 36.1140594,0.591304348 L36.1804455,0.591304348 C36.6525248,0.591304348 37.5819307,0.591304348 38.0318812,0.591304348 L38.2015347,0.591304348 C40.0308416,0.51 41.0192574,1.06434783 41.5208416,1.54478261 C42.0885074,2.12075994 42.3883191,2.90937307 42.3469802,3.71782609 C42.2956638,5.05141861 41.4833161,6.23647475 40.259505,6.76304348 C40.849604,7.68695652 42.5240099,10.2886957 43.0329703,10.9465217 C43.5227281,11.6078843 44.0707709,12.2238365 44.670495,12.7869565 C46.2512637,14.3833211 48.2428957,15.5091006 50.4239604,16.0391304 L50.5272277,16.0391304 C51.0730693,16.1869565 51.2648515,16.246087 51.3164851,16.4382609 C51.328978,16.5149158 51.3074226,16.5932139 51.2574752,16.6526087 C51.1357988,16.7581406 50.9677242,16.7918242 50.814901,16.7413043 Z M36.1509406,6.27521739 C36.6668004,6.3869435 37.1969602,6.41687267 37.7220792,6.36391304 L38.459703,6.36391304 C39.0696719,6.4034151 39.666272,6.17304251 40.0920512,5.7335942 C40.5178303,5.29414588 40.7300033,4.68978068 40.6725743,4.08 C40.6725743,1.6926087 38.459703,1.43391304 37.5524257,1.43391304 L36.814802,1.43391304 C36.5566337,1.43391304 36.350099,1.43391304 36.2542079,1.5373913 C36.1747637,1.64868827 36.1404872,1.78607403 36.1583168,1.92173913 L36.1509406,6.27521739 Z" id="Shape"></path>
                                    <path d="M54.4808911,13.1417391 C50.7927723,13.1417391 48.3291089,10.5621739 48.3291089,6.71869565 C48.3100549,5.0122851 48.9878221,3.37220456 50.2052121,2.17884695 C51.4226021,0.985489333 53.0738384,0.342543144 54.7759406,0.399130435 C56.4509304,0.371701468 58.0705128,1.0001738 59.290198,2.15086957 C60.4864318,3.33288986 61.1474852,4.95417624 61.119505,6.6373913 C61.119505,10.5252174 58.4493069,13.1417391 54.4808911,13.1417391 Z M54.259604,1.26391304 C52.15,1.26391304 49.885495,2.81608696 49.885495,6.21608696 C49.885495,10.1778261 52.6294554,12.3213043 55.2037624,12.3213043 C57.7780693,12.3213043 59.5631188,10.2517391 59.5631188,7.28043478 C59.5631188,4.30913043 57.5789109,1.27130435 54.259604,1.27130435 L54.259604,1.26391304 Z" id="Shape"></path>
                                    <path d="M76.0342574,13.09 C75.835099,13.09 75.6211881,12.9421739 75.2966337,12.5578261 L67.8540099,4.19086957 C67.8040762,4.12572972 67.7498635,4.06399859 67.6917327,4.00608696 C67.6878327,4.0725513 67.6878327,4.13918783 67.6917327,4.20565217 L67.6917327,11.2347826 C67.6917327,12.1069565 68.1711881,12.1808696 68.6432673,12.2621739 C68.8940594,12.2991304 69.2038614,12.3508696 69.2038614,12.6465217 C69.2169208,12.7434305 69.18676,12.8411879 69.1213979,12.9138026 C69.0560358,12.9864173 68.9620959,13.0265309 68.8645545,13.0234783 C68.6875248,13.0234783 68.4957426,13.0234783 68.2892079,13.0234783 C68.0826733,13.0234783 67.6253465,12.9791304 67.1311386,12.9791304 C66.6369307,12.9791304 66.179604,12.9791304 65.8550495,13.0308696 L65.5452475,13.0308696 C65.4480098,13.0467441 65.34884,13.0175012 65.2756822,12.9513809 C65.2025244,12.8852606 65.1632992,12.7894217 65.1690594,12.6908696 C65.1690594,12.3804348 65.4419802,12.2917391 65.6706436,12.2326087 C66.0984653,12.1069565 66.6811881,11.9295652 66.6811881,10.443913 L66.6811881,4.0873913 C66.6811881,1.6926087 65.7296535,1.45608696 65.1616832,1.31565217 C64.8887624,1.24913043 64.6084653,1.17521739 64.6084653,0.872173913 C64.6084653,0.569130435 64.8740099,0.546956522 65.0215347,0.546956522 C65.1375443,0.5505214 65.2532754,0.560390979 65.3682178,0.576521739 C65.6123608,0.61787373 65.8616986,0.61787373 66.1058416,0.576521739 C66.2458373,0.567246842 66.3862914,0.567246842 66.5262871,0.576521739 C66.7475743,0.576521739 66.9098515,0.783478261 67.020495,0.938695652 L67.0868812,1.0273913 L75.3040099,10.1113043 L75.3040099,3.03782609 C75.3040099,1.65565217 74.5663861,1.47826087 74.0131683,1.33782609 C73.7107426,1.26391304 73.4009406,1.1826087 73.4009406,0.879565217 C73.3986415,0.790009761 73.4341672,0.703640897 73.4987732,0.641717659 C73.5633791,0.579794421 73.651065,0.548068078 73.7402475,0.554347826 C73.9910396,0.554347826 74.2344554,0.554347826 74.4778713,0.554347826 C74.7212871,0.554347826 75.0163366,0.554347826 75.2818812,0.554347826 C75.5474257,0.554347826 75.9383663,0.554347826 76.2555446,0.517391304 C76.5432178,0.517391304 76.8013861,0.517391304 76.9931683,0.517391304 C77.0784355,0.511091067 77.1623798,0.541250761 77.2242257,0.600406088 C77.2860716,0.659561415 77.3200396,0.742184259 77.3177228,0.827826087 C77.3177228,1.09391304 77.1038119,1.19 76.9046535,1.27130435 C76.4941189,1.38914535 76.2350154,1.79442571 76.299802,2.2173913 L76.299802,12.2030435 C76.3440594,12.6982609 76.3440594,13.09 76.0342574,13.09 Z" id="Shape"></path>
                                    <path d="M83.6244059,13.0234783 L83.4547525,13.0234783 C83.2039604,13.0234783 82.9384158,13.0234783 82.7171287,13.0234783 C82.4958416,13.0234783 82.2376733,13.0234783 81.979505,13.0234783 C81.7213366,13.0234783 81.5074257,13.0234783 81.2935149,13.0234783 C81.079604,13.0234783 80.8361881,13.0234783 80.6075248,13.0234783 C80.519983,13.0238771 80.4363593,12.9871444 80.377332,12.9223634 C80.3183047,12.8575823 80.2893845,12.7708009 80.2977228,12.6834783 C80.2977228,12.4321739 80.5190099,12.3582609 80.7107921,12.2991304 C81.1009515,12.2107195 81.4216819,11.933663 81.5664356,11.56 L85.704505,2.79391304 L86.3019802,1.50043478 C86.8035644,0.406521739 86.8625743,0.266086957 87.1281188,0.266086957 C87.3936634,0.266086957 87.4969307,0.583913043 87.600198,0.909130435 L87.600198,1.00521739 L91.1629208,9.87478261 C91.2293069,10.0447826 91.2956931,10.2147826 91.3620792,10.3921739 C91.5255295,10.8854197 91.7432383,11.358912 92.0111881,11.803913 C92.2346978,12.1097948 92.5847439,12.2974112 92.9627228,12.313913 C93.2356436,12.3582609 93.5454455,12.41 93.5454455,12.7278261 C93.5454455,13.0456522 93.2577723,13.0382609 93.154505,13.0382609 C92.7856931,13.0382609 92.4168812,13.0382609 92.0923267,13.0382609 C91.5174979,13.0036739 90.941116,13.0036739 90.3662871,13.0382609 C90.145,13.0382609 89.9015842,13.0382609 89.6286634,13.0382609 C89.3557426,13.0382609 89.0975743,12.9273913 89.0975743,12.7130435 C89.0975743,12.4986957 89.3926238,12.3213043 89.6286634,12.24 C89.864703,12.1586957 90.1302475,12.0552174 90.1302475,11.8186957 C90.0590805,11.3997021 89.9325736,10.9920647 89.7540594,10.6065217 C89.7024257,10.4808696 89.6581683,10.3626087 89.6212871,10.2665217 L89.0680693,8.84 C88.9057921,8.46304348 88.8320297,8.30043478 88.4632178,8.30043478 L84.6865842,8.30043478 C84.339901,8.30043478 84.1407426,8.30043478 84.0153465,8.57391304 L82.9605446,10.9243478 C82.8958303,11.0970319 82.8609096,11.2794907 82.8572772,11.463913 C82.8572772,12.0847826 83.1965842,12.143913 83.5580198,12.2030435 C83.7866832,12.2473913 84.0743564,12.2991304 84.0743564,12.5947826 C84.0828769,12.7092741 84.0426863,12.8220375 83.9637129,12.9052174 C83.8710047,12.9886222 83.7487561,13.0312302 83.6244059,13.0234783 Z M84.7308416,7.18434783 L84.8488614,7.18434783 L88.2345545,7.18434783 C88.2908621,7.19178502 88.3479003,7.19178502 88.4042079,7.18434783 C88.395239,7.14396269 88.3829019,7.10440344 88.3673267,7.06608696 L86.6929208,2.93434783 L84.7529703,7.11043478 C84.7426423,7.13664153 84.7352214,7.16390683 84.7308416,7.19173913 L84.7308416,7.18434783 Z" id="Shape"></path>
                                    <path d="M102.787871,13.0234783 C102.596089,13.0234783 102.396931,13.0234783 102.190396,13.0234783 L102.146139,13.0234783 C101.895347,13.0234783 101.651931,13.0234783 101.408515,13.0234783 C99.8447525,13.0234783 99.3505446,13.0678261 99.1956436,13.0826087 L99.0923762,13.0826087 C98.8489604,13.0826087 98.7309406,12.9569565 98.7309406,12.7056522 C98.7309406,12.4543478 98.9964851,12.3434783 99.2841584,12.24 C99.5718317,12.1365217 100.088168,11.9517391 100.088168,11.4343478 L100.088168,2.18043478 C100.088168,1.6926087 100.043911,1.61869565 100.043911,1.61869565 L97.2335644,1.61869565 C96.3779208,1.61869565 96.2967822,1.8773913 96.0459901,2.65347826 L95.950099,2.97130435 C95.9132178,3.11913043 95.8394554,3.4 95.5370297,3.4 C95.3502232,3.38440234 95.2079226,3.2256075 95.2124752,3.03782609 L95.4042574,1.27869565 C95.4042574,1.04217391 95.4485149,0.539565217 95.8615842,0.539565217 C96.4516832,0.539565217 97.0270297,0.539565217 97.6835149,0.539565217 C98.4801485,0.539565217 99.4685644,0.583913043 100.729901,0.583913043 C103.038663,0.583913043 104.521287,0.546956522 105.236782,0.524782609 L105.753119,0.524782609 C106.225198,0.524782609 106.380099,0.68 106.402228,1.16782609 L106.490743,2.5426087 C106.525448,2.69295131 106.496044,2.8509855 106.409604,2.97869565 C106.342807,3.04938461 106.248457,3.08720154 106.151436,3.08217391 C105.775248,3.08217391 105.745743,2.7273913 105.723614,2.46869565 C105.723614,2.04 105.649851,1.59652174 104.698317,1.59652174 L102.094505,1.59652174 C101.974723,1.57815839 101.852851,1.57815839 101.733069,1.59652174 C101.712996,1.73623626 101.712996,1.87811156 101.733069,2.01782609 C101.733069,2.09173913 101.733069,2.17304348 101.733069,2.26173913 L101.733069,11.2052174 C101.733069,11.9443478 102.153515,12.0773913 102.559208,12.166087 C102.81,12.2252174 103.127178,12.2917391 103.127178,12.6169565 C103.138614,12.7154005 103.109289,12.8142396 103.04604,12.8904348 C102.988239,12.9759777 102.890933,13.0261233 102.787871,13.0234783 Z" id="Shape"></path>
                                    <path d="M115.106188,12.9643478 L114.523465,12.9643478 L114.442327,12.9643478 C114.095644,12.9643478 113.704703,12.92 113.24,12.92 C112.502376,12.92 112.148317,12.92 111.897525,12.9717391 L111.595099,12.9717391 C111.359059,12.9717391 111.086139,12.9273913 111.086139,12.5578261 C111.086139,12.1882609 111.359059,12.1956522 111.580347,12.1365217 C111.956535,12.0404348 112.428614,11.9147826 112.428614,10.9243478 L112.428614,2.12130435 C112.428614,1.43391304 111.934406,1.30826087 111.550842,1.21217391 C111.30005,1.15304348 111.041881,1.08652174 111.041881,0.827826087 C111.041881,0.569130435 111.137772,0.487826087 111.366436,0.487826087 C111.595099,0.487826087 112.04505,0.487826087 112.31797,0.487826087 C112.890397,0.520380329 113.464206,0.520380329 114.036634,0.487826087 C114.287426,0.487826087 114.567723,0.487826087 114.84802,0.487826087 C115.128317,0.487826087 115.327475,0.487826087 115.327475,0.813043478 C115.327475,1.13826087 115.076683,1.14565217 114.84802,1.20478261 C114.479208,1.30826087 114.110396,1.41173913 114.110396,2.11391304 L114.110396,11.3530435 C114.110396,11.9369565 114.538218,12.0404348 114.988168,12.1513043 C115.290594,12.2252174 115.637277,12.313913 115.637277,12.6391304 C115.637277,12.9643478 115.283218,12.9643478 115.106188,12.9643478 Z" id="Shape"></path>
                                    <path d="M125.750099,13.1417391 C122.06198,13.1417391 119.598317,10.5621739 119.598317,6.71869565 C119.579263,5.0122851 120.25703,3.37220456 121.47442,2.17884695 C122.69181,0.985489333 124.343046,0.342543144 126.045149,0.399130435 C127.720138,0.371701468 129.339721,1.0001738 130.559406,2.15086957 C131.75564,3.33288986 132.416693,4.95417624 132.388713,6.6373913 C132.388713,10.5252174 129.718515,13.1417391 125.750099,13.1417391 Z M125.528812,1.26391304 C123.419208,1.26391304 121.154703,2.81608696 121.154703,6.21608696 C121.154703,10.1778261 123.891287,12.3213043 126.47297,12.3213043 C129.054653,12.3213043 130.832327,10.2517391 130.832327,7.28043478 C130.832327,4.30913043 128.848119,1.27130435 125.528812,1.27130435 L125.528812,1.26391304 Z" id="Shape"></path>
                                    <path d="M147.126436,13.09 C146.927277,13.09 146.713366,12.9421739 146.388812,12.5578261 L138.946188,4.19086957 C138.896092,4.12586384 138.841888,4.06414307 138.783911,4.00608696 C138.779994,4.0725508 138.779994,4.13918833 138.783911,4.20565217 L138.783911,11.2347826 C138.783911,12.1069565 139.263366,12.1808696 139.735446,12.2621739 C139.986238,12.2991304 140.29604,12.3508696 140.29604,12.6465217 C140.309099,12.7434305 140.278938,12.8411879 140.213576,12.9138026 C140.148214,12.9864173 140.054274,13.0265309 139.956733,13.0234783 C139.779703,13.0234783 139.587921,13.0234783 139.381386,13.0234783 C139.174851,13.0234783 138.717525,12.9791304 138.223317,12.9791304 C137.729109,12.9791304 137.271782,12.9791304 136.939851,13.0308696 L136.607921,13.0308696 C136.51121,13.0439557 136.413651,13.0137332 136.341185,12.9482376 C136.268718,12.8827421 136.228686,12.7886103 136.231733,12.6908696 C136.231733,12.3804348 136.51203,12.2917391 136.733317,12.2326087 C137.161139,12.1069565 137.743861,11.9295652 137.743861,10.443913 L137.743861,4.0873913 C137.743861,1.6926087 136.792327,1.45608696 136.224356,1.31565217 C135.951436,1.24913043 135.671139,1.17521739 135.671139,0.872173913 C135.671139,0.569130435 135.929307,0.546956522 136.076832,0.546956522 C136.216833,0.537850617 136.357276,0.537850617 136.497277,0.546956522 C136.741348,0.589164778 136.99083,0.589164778 137.234901,0.546956522 C137.374905,0.537932822 137.515343,0.537932822 137.655347,0.546956522 C137.876634,0.546956522 138.038911,0.753913043 138.149554,0.909130435 L138.215941,0.997826087 L146.388812,10.1113043 L146.388812,3.03782609 C146.388812,1.65565217 145.651188,1.47826087 145.09797,1.33782609 C144.795545,1.26391304 144.485743,1.1826087 144.485743,0.879565217 C144.483444,0.790009761 144.518969,0.703640897 144.583575,0.641717659 C144.648181,0.579794421 144.735867,0.548068078 144.82505,0.554347826 C145.083218,0.554347826 145.326634,0.554347826 145.562673,0.554347826 C145.798713,0.554347826 146.093762,0.554347826 146.366683,0.554347826 C146.639604,0.554347826 147.023168,0.554347826 147.340347,0.517391304 C147.642772,0.517391304 147.886188,0.517391304 148.07797,0.517391304 C148.163237,0.511091067 148.247182,0.541250761 148.309028,0.600406088 C148.370874,0.659561415 148.404842,0.742184259 148.402525,0.827826087 C148.402525,1.09391304 148.188614,1.19 147.996832,1.27130435 C147.586297,1.38914535 147.327194,1.79442571 147.39198,2.2173913 L147.39198,12.2030435 C147.428861,12.6982609 147.428861,13.09 147.126436,13.09 Z" id="Shape"></path>
                                </g>
                            </g>
                            <g id="LION" transform="translate(55.000000, 0.000000)">
                                <path d="M24.8966667,10.7523077 C24.8966667,11.3769231 25.3146667,11.964359 26.4513333,11.5479487 C27.1406667,11.2951282 28.0646667,12.105641 28.5413333,11.7635897 C28.7833333,11.5925641 27.7053333,11.02 27.214,10.5069231 C26.7226667,9.99384615 27.5073333,10.2689744 26.972,9.82282051 C26.4366667,9.37666667 24.904,10.7523077 24.904,10.7523077 L24.8966667,10.7523077 Z M22.6453333,12.8864103 C22.1714596,12.2330823 21.4465428,11.8142088 20.6506667,11.7338462 C20.504,11.7338462 20.3206667,11.7933333 20.46,12.0089744 C20.6852718,12.3766243 20.930077,12.7315919 21.1933333,13.0723077 C22.0041985,13.9558804 21.9749534,15.3331485 21.1273333,16.1805128 C18.9786667,18.6120513 24.6766667,21.2369231 25.608,21.6458974 C28.3653333,22.8579487 29.744,23.3412821 30.8953333,24.3748718 C32.5746667,25.8620513 32.89,27.8474359 32.3106667,28.7025641 C32.2153333,28.8438462 32.0393333,28.9925641 31.504,28.7992308 C27.7796678,27.4582247 23.8619528,26.7521685 19.91,26.7097436 C14.8442809,26.5788081 9.79073029,27.2742572 4.94266667,28.7694872 C4.158,29.0148718 4.092,28.1448718 4.61266667,27.8102564 C5.83733333,27.0666667 6.49,26.9105128 7.20866667,26.0033333 C7.47936797,25.7815603 7.62393012,25.43806 7.59454258,25.0864371 C7.56515505,24.7348143 7.36564662,24.4208803 7.062,24.2484615 C5.896,23.6164103 4.97933333,24.7317949 4.18,25.3638462 C4.39904069,24.2402858 4.88202226,23.1868421 5.588,22.2928205 C5.00866667,21.8392308 4.12133333,22.3448718 2.60333333,23.3561538 C2.91866667,21.1253846 5.368,19.5861538 6.73933333,19.8464103 C5.93736727,18.9816972 4.76262691,18.579991 3.608,18.775641 C2.43775586,19.3614597 1.56091733,20.4149109 1.188,21.6830769 C1.188,21.6830769 0.132,18.7979487 3.64466667,18.7087179 C4.4342424,17.5349634 5.70856332,16.7903382 7.106,16.6861538 C6.93,16.3515385 5.63933333,15.1246154 3.05066667,16.9315385 C3.05066667,16.9315385 4.09933333,14.9610256 5.11133333,14.6041026 C4.884,14.5297436 3.96733333,14.3141026 3.586,14.21 C2.00933333,14.6264103 1.26133333,15.6971795 0.469333333,16.9761538 C-0.00733333333,14.7453846 1.48133333,13.6151282 3.57866667,14.0612821 C4.71533333,12.9310256 6.16,12.834359 7.67066667,12.9905128 C7.08681518,12.1386021 6.15988364,11.593735 5.14066667,11.5033333 C3.49915586,11.1922786 1.81469736,11.7532039 0.674666667,12.9905128 C0.674666667,12.76 1.64266667,8.57358974 5.51466667,11.0646154 C5.95466667,10.9605128 7.66333333,10.7448718 8.008,10.44 C7.47266667,9.69641026 4.78866667,9.32461538 4.532,9.31717949 C5.37981001,8.92576852 6.27883012,8.66030439 7.20133333,8.52897436 C8.31829827,8.43573539 9.42745706,8.78486327 10.296,9.50307692 C10.296,9.50307692 9.68,7.41358974 7.97133333,7.10128205 C6.12019566,6.87520905 4.26898617,7.52191814 2.948,8.85615385 C2.948,8.85615385 3.28533333,4.23846154 7.90533333,7.02692308 C9.0491616,6.60943706 10.3094936,6.66825526 11.4106667,7.19051282 C11.308,6.19410256 10.054,5.31666667 9.68733333,5.04153846 C7.788,4.86307692 5.96933333,5.13076923 5.412,5.78512821 C7.40666667,3.30897436 8.52133333,3.95589744 9.89266667,4.81846154 C11.3275802,4.47008212 12.8396382,4.69367461 14.1166667,5.44307692 C13.772,4.30538462 12.804,3.01153846 9.45266667,3.13794872 C9.45266667,3.13794872 9.45266667,3.13794872 9.45266667,3.13794872 C12.386,1.85897436 14.652,2.49102564 16.0526667,4.35 C16.7053333,5.20512821 16.1846667,1.04846154 12.3493333,1.85897436 C12.254,1.85897436 12.3493333,1.85897436 12.3493333,1.85897436 C14.3887359,1.06161494 16.7017415,1.61693836 18.172,3.25692308 C18.2233333,3.32384615 18.2526667,3.30897436 18.2526667,3.21974359 C18.2526667,2.72897436 18.3333333,1.10051282 15.07,0.557692308 C15.026,0.557692308 15.026,0.505641026 15.158,0.483333333 C18.898,-0.00743589744 19.8146667,3.03384615 19.9026667,2.81820513 C20.658,0.371794872 17.3213333,0 17.9666667,0 C21.384,0 21.1126667,2.86282051 21.384,2.57282051 C22.286,1.03358974 19.9906667,0.0297435897 20.6506667,0.126410256 C21.3104486,0.166715536 21.9152197,0.512692979 22.2904119,1.06447563 C22.6656041,1.61625829 22.7694594,2.31243428 22.572,2.95205128 C23.8113333,2.12666667 22.638,0.907179487 23.0193333,1.11538462 C24.6253333,2.12666667 23.2686667,3.53948718 23.8186667,3.28666667 C24.8893333,2.08948718 25.9013333,2.92974359 25.696,3.01897436 C25.1816268,3.24428427 24.7977464,3.69658103 24.6546667,4.24589744 C25.9086667,3.1825641 27.1113333,4.42435897 26.796,4.46153846 C26.325309,4.4865639 25.9164772,4.7982112 25.762,5.24974359 C26.8693333,4.29051282 27.9033333,5.91153846 27.5513333,5.83717949 C26.818,5.68102564 26.664,6.51384615 26.664,6.51384615 C27.0453333,6.32051282 27.8446667,7.06410256 27.3973333,7.03435897 C26.664,6.98974359 26.8033333,7.85974359 26.7886667,7.85974359 C27.3117118,8.07151402 27.7680291,8.42367961 28.1086667,8.87846154 C28.2960188,9.31069303 28.5429256,9.71377276 28.842,10.075641 C29.1133333,10.3061538 30.5286667,11.9866667 30.8953333,12.3064103 C31.262,12.6261538 32.362,13.7935897 32.56,13.9646154 C32.7832026,14.3864638 32.7490231,14.9005514 32.472,15.2882051 C32.054,15.6897436 31.4526667,15.8310256 31.4673333,16.0838462 C31.5154605,16.5080786 31.4113317,16.9356986 31.174,17.2884615 C30.9466667,17.4892308 30.6533333,17.615641 30.602,17.8982051 C30.5673875,18.3011081 30.4198009,18.6855557 30.1766667,19.0061538 C29.5234141,19.6363945 28.5178664,19.6991398 27.7933333,19.1548718 C27.17,18.7235897 26.4953333,18.2030769 25.8793333,18.4707692 C25.2633333,18.7384615 25.3146667,19.3853846 25.4686667,20.2628205 C22.1686667,18.3964103 21.802,16.3366667 22.33,15.1171795 C22.6966667,14.2397436 23.1733333,13.7638462 22.6966667,12.8864103 L22.6453333,12.8864103 Z" id="Shape"></path>
                            </g>
                        </g>
                    </g>
                </g>
            </g>
        </g>
    </g>
</svg>