<?xml version="1.0" encoding="UTF-8"?>
<svg width="223px" height="35px" viewBox="0 0 223 35" version="1.1" xmlns="http://www.w3.org/2000/svg" xmlns:xlink="http://www.w3.org/1999/xlink">
    <!-- Generator: sketchtool 50.2 (55047) - http://www.bohemiancoding.com/sketch -->
    <title>EA40188A-3910-4BCB-848F-4BA640B8F2A6</title>
    <desc>Created with sketchtool.</desc>
    <defs>
        <polygon id="path-1" points="0.981580645 0.608382353 223.327887 0.608382353 223.327887 34.7323529 0.981580645 34.7323529"></polygon>
    </defs>
    <g id="Mockups" stroke="none" stroke-width="1" fill="none" fill-rule="evenodd">
        <g id="homepage" transform="translate(-355.000000, -5182.000000)">
            <g id="div-brands-trust" transform="translate(150.000000, 5068.000000)">
                <g id="Group-2" transform="translate(0.000000, 96.000000)">
                    <g id="coca-cola-logo-grey" transform="translate(204.000000, 18.000000)">
                        <mask id="mask-2" fill="white">
                            <use xlink:href="#path-1"></use>
                        </mask>
                        <g id="path3001-3" transform="translate(112.154734, 17.670368) scale(-1, 1) rotate(-180.000000) translate(-112.154734, -17.670368) "></g>
                        <path d="M46.2305177,6.92444118 C46.0110339,6.61664706 45.7458242,6.32944118 45.4318403,6.05870588 C45.1178565,5.78797059 44.7693242,5.55223529 44.3882758,5.35252941 C44.0072274,5.14973529 43.5936629,4.99223529 43.1496145,4.87591176 C42.7055661,4.75855882 42.2422113,4.70091176 41.7625984,4.70091176 C40.9669694,4.70091176 40.2414532,4.83782353 39.5819855,5.11370588 C38.92455,5.38855882 38.35755,5.77355882 37.8820016,6.26561765 C37.4054371,6.75767647 37.0375984,7.34032353 36.7754371,8.01252941 C36.5153081,8.68473529 36.3842274,9.42385294 36.3842274,10.2288529 C36.3842274,11.0122353 36.5153081,11.7451765 36.7754371,12.4287059 C37.0375984,13.1112059 37.4054371,13.7041471 37.8820016,14.2075294 C38.35755,14.7109118 38.9265823,15.1072353 39.5911306,15.3985588 C40.2536468,15.6898824 40.9893242,15.8350294 41.7940984,15.8350294 C42.7655177,15.8350294 43.6150016,15.6548824 44.3415339,15.2945882 C45.0690823,14.9353235 45.6726629,14.4165 46.1532919,13.7391471 L44.5366306,12.1662059 C44.2236629,12.6109118 43.8527758,12.9691471 43.4239694,13.2388529 C42.9951629,13.5085588 42.48405,13.6444412 41.8875823,13.6444412 C41.4181306,13.6444412 40.9933887,13.5559118 40.617421,13.3819412 C40.2414532,13.2069412 39.9223887,12.9660588 39.6612435,12.6592941 C39.4000984,12.3515 39.1989048,11.9942941 39.0576629,11.5866471 C38.916421,11.179 38.8452919,10.7476765 38.8452919,10.2916471 C38.8452919,9.82532353 38.916421,9.39091176 39.0576629,8.98841176 C39.1989048,8.58694118 39.4000984,8.23694118 39.6612435,7.94047059 C39.9223887,7.64502941 40.2363726,7.41135294 40.602179,7.2415 C40.9669694,7.07267647 41.3795177,6.98826471 41.8408403,6.98826471 C42.2168081,6.98826471 42.5429855,7.02738235 42.8214048,7.10664706 C43.0977919,7.18591176 43.3436952,7.29194118 43.5580984,7.42473529 C43.7725016,7.55752941 43.9625177,7.71091176 44.130179,7.88591176 C44.2958081,8.06091176 44.4594048,8.23694118 44.6158887,8.41708824 L46.2305177,6.92444118 Z" id="path3005" fill="#7689A2" fill-rule="nonzero" mask="url(#mask-2)" transform="translate(41.307373, 10.267971) scale(-1, 1) rotate(-180.000000) translate(-41.307373, -10.267971) "></path>
                        <path d="M46.9091903,11.8475926 C46.9091903,12.3972985 47.0067387,12.9140632 47.1998032,13.3968574 C47.3928677,13.8786221 47.6631581,14.2986221 48.0076258,14.6589162 C48.3531097,15.0181809 48.7676903,15.3022985 49.2534,15.5092103 C49.7391097,15.7150926 50.2756258,15.8190632 50.8609161,15.8190632 C51.4462065,15.8190632 51.9796742,15.7150926 52.4603032,15.5092103 C52.9409323,15.3022985 53.3534806,15.0181809 53.6989645,14.6589162 C54.0434323,14.2986221 54.3127065,13.8786221 54.5067871,13.3968574 C54.6998516,12.9140632 54.7963839,12.3972985 54.7963839,11.8475926 C54.7963839,11.2968574 54.6998516,10.7800926 54.5067871,10.2983279 C54.3127065,9.81656324 54.0434323,9.39553382 53.6989645,9.03626912 C53.3534806,8.675975 52.9409323,8.38979853 52.4603032,8.17876912 C51.9796742,7.96568088 51.4462065,7.86068088 50.8609161,7.86068088 C50.2756258,7.86068088 49.7391097,7.96568088 49.2534,8.17876912 C48.7676903,8.38979853 48.3531097,8.675975 48.0076258,9.03626912 C47.6631581,9.39553382 47.3928677,9.81656324 47.1998032,10.2983279 C47.0067387,10.7800926 46.9091903,11.2968574 46.9091903,11.8475926 M50.8609161,9.84641618 C51.1444161,9.84641618 51.3933677,9.900975 51.6138677,10.0131809 C51.8333516,10.1233279 52.0193032,10.2746515 52.1707065,10.4650926 C52.3221097,10.6555338 52.4349,10.8696515 52.5080613,11.1095044 C52.5802065,11.3462691 52.6167871,11.5933279 52.6167871,11.8475926 C52.6167871,12.1008279 52.5802065,12.3478868 52.5080613,12.5856809 C52.4349,12.8245044 52.3221097,13.0365632 52.1707065,13.2218574 C52.0193032,13.4071515 51.8333516,13.5543574 51.6138677,13.6655338 C51.3933677,13.7767103 51.1444161,13.8322985 50.8609161,13.8322985 C50.5784323,13.8322985 50.3254161,13.7767103 50.0998355,13.6655338 C49.875271,13.5543574 49.6903355,13.4071515 49.5440129,13.2218574 C49.3976903,13.0365632 49.2849,12.8245044 49.2066581,12.5856809 C49.1284161,12.3478868 49.0898032,12.1008279 49.0898032,11.8475926 C49.0898032,11.5933279 49.1284161,11.3462691 49.2066581,11.1095044 C49.2849,10.8696515 49.3976903,10.6555338 49.5440129,10.4650926 C49.6903355,10.2746515 49.875271,10.1233279 50.0998355,10.0131809 C50.3254161,9.900975 50.5784323,9.84641618 50.8609161,9.84641618" id="path3009" fill="#7689A2" fill-rule="nonzero" mask="url(#mask-2)" transform="translate(50.852787, 11.839872) scale(-1, 1) rotate(-180.000000) translate(-50.852787, -11.839872) "></path>
                        <path d="M62.6347016,9.09988676 C62.3318952,8.76121029 61.9315403,8.46988676 61.4356694,8.22591618 C60.9387823,7.982975 60.3504435,7.86150441 59.6706532,7.86150441 C59.0752016,7.86150441 58.5336048,7.95826912 58.0478952,8.15488676 C57.5621855,8.35150441 57.1465887,8.62635735 56.8011048,8.98150441 C56.4566371,9.33562206 56.1873629,9.75665147 55.9942984,10.2435632 C55.8012339,10.730475 55.7047016,11.2657691 55.7047016,11.8484162 C55.7047016,12.3981221 55.8032661,12.9148868 56.0014113,13.3966515 C56.1995565,13.8784162 56.4749274,14.2994456 56.8244758,14.6597397 C57.1750403,15.0190044 57.5936855,15.3020926 58.0804113,15.5090044 C58.566121,15.7159162 59.0965403,15.8188574 59.6706532,15.8188574 C60.3392661,15.8188574 60.9204919,15.7076809 61.4122984,15.4853279 C61.9030887,15.262975 62.3166532,14.9665044 62.6499435,14.5959162 L61.2852823,13.1022397 C61.1186371,13.2926809 60.9143952,13.4625338 60.6745887,13.6107691 C60.4337661,13.7590044 60.1157177,13.8341515 59.7184113,13.8341515 C59.4460887,13.8341515 59.2032339,13.7775338 58.9888306,13.6663574 C58.7744274,13.5562103 58.5915242,13.4100338 58.440121,13.2298868 C58.2877016,13.0497397 58.172879,12.8407691 58.0956532,12.6019456 C58.0174113,12.3641515 57.9777823,12.112975 57.9777823,11.8484162 C57.9777823,11.6044456 58.0174113,11.3635632 58.0956532,11.1247397 C58.172879,10.8869456 58.2877016,10.6738574 58.440121,10.4906221 C58.5915242,10.3042985 58.7744274,10.1540044 58.9888306,10.0366515 C59.2032339,9.92032794 59.4460887,9.86268088 59.7184113,9.86268088 C60.1045403,9.86268088 60.4286855,9.93885735 60.6898306,10.0932691 C60.9519919,10.2456221 61.1613145,10.4134162 61.3177984,10.5925338 L62.6347016,9.09988676 Z" id="path3013" fill="#7689A2" fill-rule="nonzero" mask="url(#mask-2)" transform="translate(59.177323, 11.840181) scale(-1, 1) rotate(-180.000000) translate(-59.177323, -11.840181) "></path>
                        <path d="M67.9939694,8.78242647 C67.7429855,8.48492647 67.4259532,8.25845588 67.0449048,8.09992647 C66.6638565,7.94036765 66.2380984,7.86110294 65.7676306,7.86110294 C65.5054694,7.86110294 65.2311145,7.89816176 64.9445661,7.97227941 C64.6570016,8.04639706 64.3897597,8.17095588 64.1438565,8.34492647 C63.8989694,8.52095588 63.6947274,8.75566176 63.5331629,9.05316176 C63.3705823,9.34860294 63.2903081,9.71919118 63.2903081,10.1638971 C63.2903081,10.5983088 63.376679,10.9843382 63.5484048,11.3240441 C63.7211468,11.6627206 63.958921,11.9458088 64.2627435,12.1743382 C64.56555,12.4018382 64.9232274,12.5727206 65.3357758,12.6900735 C65.7483242,12.8063971 66.195421,12.8640441 66.67605,12.8640441 C66.9382113,12.8640441 67.2024048,12.8588971 67.4686306,12.8486029 C67.7358726,12.8383088 67.9106468,12.8228676 67.9939694,12.80125 L67.9939694,12.9597794 C67.9939694,13.1502206 67.9553565,13.3128676 67.8771145,13.4446324 C67.7978565,13.5774265 67.6931952,13.6875735 67.5621145,13.7781618 C67.4310339,13.8677206 67.282679,13.9315441 67.1160339,13.9686029 C66.9483726,14.0056618 66.7715661,14.0241912 66.5835823,14.0241912 C66.0805984,14.0241912 65.6650016,13.9603676 65.3357758,13.83375 C65.0075661,13.7061029 64.7271145,13.5640441 64.4974694,13.4044853 L63.5727919,14.8024265 C63.7282597,14.91875 63.9070984,15.0350735 64.1062597,15.1524265 C64.3033887,15.2677206 64.5391306,15.3747794 64.8114532,15.4694853 C65.0827597,15.5641912 65.3875984,15.6413971 65.7280016,15.7000735 C66.0684048,15.7577206 66.4575823,15.7875735 66.89655,15.7875735 C68.0153081,15.7875735 68.841421,15.4818382 69.3738726,14.8734559 C69.9073403,14.2661029 70.17255,13.4466912 70.17255,12.4203676 L70.17255,8.08345588 L68.0559532,8.08345588 L67.9939694,8.78242647 Z M67.9939694,11.3713971 C67.9421468,11.3816912 67.8425661,11.3950735 67.6962435,11.4105147 C67.5489048,11.4269853 67.3812435,11.4352206 67.1942758,11.4352206 C66.5673242,11.4352206 66.1222597,11.3446324 65.8611145,11.1655147 C65.5989532,10.9843382 65.4699048,10.7311029 65.4699048,10.4027206 C65.4699048,9.78816176 65.8357113,9.48139706 66.5673242,9.48139706 C66.7451468,9.48139706 66.919921,9.51022059 67.0916468,9.56889706 C67.2654048,9.62654412 67.4157919,9.70889706 67.5468726,9.81492647 C67.6769371,9.92095588 67.7846468,10.05375 67.8679694,10.21125 C67.9512919,10.3708088 67.9939694,10.5561029 67.9939694,10.7671324 L67.9939694,11.3713971 Z" id="path3017" fill="#7689A2" fill-rule="nonzero" mask="url(#mask-2)" transform="translate(66.731429, 11.824338) scale(-1, 1) rotate(-180.000000) translate(-66.731429, -11.824338) "></path>
                        <polygon id="path3019" fill="#7689A2" fill-rule="nonzero" mask="url(#mask-2)" transform="translate(74.791669, 11.125882) scale(-1, 1) rotate(-180.000000) translate(-74.791669, -11.125882) " points="72.3067258 12.2139706 77.2766129 12.2139706 77.2766129 10.0377941 72.3067258 10.0377941"></polygon>
                        <path d="M88.9981592,6.92444118 C88.7786753,6.61664706 88.5114334,6.32944118 88.1984656,6.05870588 C87.8844818,5.78797059 87.5359495,5.55223529 87.1559173,5.35252941 C86.7748689,5.14973529 86.3602882,4.99223529 85.917256,4.87591176 C85.4721915,4.75855882 85.0098527,4.70091176 84.5292237,4.70091176 C83.7346108,4.70091176 83.0080785,4.83782353 82.3496269,5.11370588 C81.6911753,5.38855882 81.1241753,5.77355882 80.6496431,6.26561765 C80.1730785,6.75767647 79.8042237,7.34032353 79.5430785,8.01252941 C79.2819334,8.68473529 79.1518689,9.42385294 79.1518689,10.2288529 C79.1518689,11.0122353 79.2819334,11.7451765 79.5430785,12.4287059 C79.8042237,13.1112059 80.1730785,13.7041471 80.6496431,14.2075294 C81.1241753,14.7109118 81.6942237,15.1072353 82.3567398,15.3985588 C83.0212882,15.6898824 83.7559495,15.8350294 84.5617398,15.8350294 C85.5331592,15.8350294 86.3826431,15.6548824 87.1091753,15.2945882 C87.8346915,14.9353235 88.4392882,14.4165 88.9199173,13.7391471 L87.3042721,12.1662059 C86.9913044,12.6109118 86.6194011,12.9691471 86.1916108,13.2388529 C85.7628044,13.5085588 85.2516915,13.6444412 84.6552237,13.6444412 C84.184756,13.6444412 83.7610302,13.5559118 83.3850624,13.3819412 C83.0080785,13.2069412 82.689014,12.9660588 82.4278689,12.6592941 C82.1657076,12.3515 81.9655302,11.9942941 81.8242882,11.5866471 C81.6840624,11.179 81.6119173,10.7476765 81.6119173,10.2916471 C81.6119173,9.82532353 81.6840624,9.39091176 81.8242882,8.98841176 C81.9655302,8.58694118 82.1657076,8.23694118 82.4278689,7.94047059 C82.689014,7.64502941 83.004014,7.41135294 83.3688044,7.2415 C83.7346108,7.07267647 84.1471592,6.98826471 84.6074656,6.98826471 C84.9834334,6.98826471 85.3106269,7.02738235 85.5880302,7.10664706 C85.8654334,7.18591176 86.1103205,7.29194118 86.3247237,7.42473529 C86.5391269,7.55752941 86.7291431,7.71091176 86.8968044,7.88591176 C87.0634495,8.06091176 87.2270463,8.23694118 87.3835302,8.41708824 L88.9981592,6.92444118 Z" id="path3023" fill="#7689A2" fill-rule="nonzero" mask="url(#mask-2)" transform="translate(84.075014, 10.267971) scale(-1, 1) rotate(-180.000000) translate(-84.075014, -10.267971) "></path>
                        <path d="M89.6768419,11.8475926 C89.6768419,12.3972985 89.7733742,12.9140632 89.9664387,13.3968574 C90.1605194,13.8786221 90.4287774,14.2986221 90.7742613,14.6589162 C91.1197452,15.0181809 91.5343258,15.3022985 92.0210516,15.5092103 C92.5067613,15.7150926 93.0412452,15.8190632 93.6285677,15.8190632 C94.2138581,15.8190632 94.7463097,15.7150926 95.2279548,15.5092103 C95.7085839,15.3022985 96.1211323,15.0181809 96.4666161,14.6589162 C96.8110839,14.2986221 97.0803581,13.8786221 97.2734226,13.3968574 C97.4664871,12.9140632 97.5640355,12.3972985 97.5640355,11.8475926 C97.5640355,11.2968574 97.4664871,10.7800926 97.2734226,10.2983279 C97.0803581,9.81656324 96.8110839,9.39553382 96.4666161,9.03626912 C96.1211323,8.675975 95.7085839,8.38979853 95.2279548,8.17876912 C94.7463097,7.96568088 94.2138581,7.86068088 93.6285677,7.86068088 C93.0412452,7.86068088 92.5067613,7.96568088 92.0210516,8.17876912 C91.5343258,8.38979853 91.1197452,8.675975 90.7742613,9.03626912 C90.4287774,9.39553382 90.1605194,9.81656324 89.9664387,10.2983279 C89.7733742,10.7800926 89.6768419,11.2968574 89.6768419,11.8475926 M93.6285677,9.84641618 C93.9100355,9.84641618 94.1610194,9.900975 94.3805032,10.0131809 C94.5999871,10.1233279 94.7849226,10.2746515 94.9373419,10.4650926 C95.0897613,10.6555338 95.2015355,10.8696515 95.2736806,11.1095044 C95.3478581,11.3462691 95.3844387,11.5933279 95.3844387,11.8475926 C95.3844387,12.1008279 95.3478581,12.3478868 95.2736806,12.5856809 C95.2015355,12.8245044 95.0897613,13.0365632 94.9373419,13.2218574 C94.7849226,13.4071515 94.5999871,13.5543574 94.3805032,13.6655338 C94.1610194,13.7767103 93.9100355,13.8322985 93.6285677,13.8322985 C93.3450677,13.8322985 93.0930677,13.7767103 92.8674871,13.6655338 C92.6429226,13.5543574 92.456971,13.4071515 92.3106484,13.2218574 C92.1653419,13.0365632 92.0515355,12.8245044 91.9732935,12.5856809 C91.8960677,12.3478868 91.8554226,12.1008279 91.8554226,11.8475926 C91.8554226,11.5933279 91.8960677,11.3462691 91.9732935,11.1095044 C92.0515355,10.8696515 92.1653419,10.6555338 92.3106484,10.4650926 C92.456971,10.2746515 92.6429226,10.1233279 92.8674871,10.0131809 C93.0930677,9.900975 93.3450677,9.84641618 93.6285677,9.84641618" id="path3027" fill="#7689A2" fill-rule="nonzero" mask="url(#mask-2)" transform="translate(93.620439, 11.839872) scale(-1, 1) rotate(-180.000000) translate(-93.620439, -11.839872) "></path>
                        <polygon id="path3029" fill="#7689A2" fill-rule="nonzero" mask="url(#mask-2)" transform="translate(99.960677, 10.267353) scale(-1, 1) rotate(-180.000000) translate(-99.960677, -10.267353) " points="98.8317581 15.5647059 101.089597 15.5647059 101.089597 4.97 98.8317581 4.97"></polygon>
                        <path d="M107.251708,8.78242647 C107.000724,8.48492647 106.684708,8.25845588 106.302644,8.09992647 C105.921595,7.94036765 105.494821,7.86110294 105.025369,7.86110294 C104.763208,7.86110294 104.489869,7.89816176 104.202305,7.97227941 C103.91474,8.04639706 103.648515,8.17095588 103.402611,8.34492647 C103.156708,8.52095588 102.953482,8.75566176 102.790902,9.05316176 C102.629337,9.34860294 102.548047,9.71919118 102.548047,10.1638971 C102.548047,10.5983088 102.634418,10.9843382 102.80716,11.3240441 C102.978885,11.6627206 103.217676,11.9458088 103.520482,12.1743382 C103.823289,12.4018382 104.181982,12.5727206 104.594531,12.6900735 C105.006063,12.8063971 105.454176,12.8640441 105.934805,12.8640441 C106.19595,12.8640441 106.460144,12.8588971 106.726369,12.8486029 C106.993611,12.8383088 107.168385,12.8228676 107.251708,12.80125 L107.251708,12.9597794 C107.251708,13.1502206 107.213095,13.3128676 107.133837,13.4446324 C107.055595,13.5774265 106.950934,13.6875735 106.819853,13.7781618 C106.689789,13.8677206 106.541434,13.9315441 106.373773,13.9686029 C106.206111,14.0056618 106.029305,14.0241912 105.840305,14.0241912 C105.338337,14.0241912 104.92274,13.9603676 104.594531,13.83375 C104.265305,13.7061029 103.984853,13.5640441 103.755208,13.4044853 L102.830531,14.8024265 C102.987015,14.91875 103.163821,15.0350735 103.362982,15.1524265 C103.562144,15.2677206 103.796869,15.3747794 104.069192,15.4694853 C104.340498,15.5641912 104.646353,15.6413971 104.98574,15.7000735 C105.326144,15.7577206 105.715321,15.7875735 106.154289,15.7875735 C107.273047,15.7875735 108.09916,15.4818382 108.632627,14.8734559 C109.165079,14.2661029 109.431305,13.4466912 109.431305,12.4203676 L109.431305,8.08345588 L107.314708,8.08345588 L107.251708,8.78242647 Z M107.251708,11.3713971 C107.199885,11.3816912 107.099289,11.3950735 106.952966,11.4105147 C106.80766,11.4269853 106.639998,11.4352206 106.453031,11.4352206 C105.824047,11.4352206 105.379998,11.3446324 105.119869,11.1655147 C104.856692,10.9843382 104.727644,10.7311029 104.727644,10.4027206 C104.727644,9.78816176 105.09345,9.48139706 105.824047,9.48139706 C106.001869,9.48139706 106.17766,9.51022059 106.350402,9.56889706 C106.523144,9.62654412 106.674547,9.70889706 106.804611,9.81492647 C106.935692,9.92095588 107.041369,10.05375 107.126724,10.21125 C107.210047,10.3708088 107.251708,10.5561029 107.251708,10.7671324 L107.251708,11.3713971 Z" id="path3033" fill="#7689A2" fill-rule="nonzero" mask="url(#mask-2)" transform="translate(105.989676, 11.824338) scale(-1, 1) rotate(-180.000000) translate(-105.989676, -11.824338) "></path>
                        <polygon id="path3037" fill="#7689A2" fill-rule="nonzero" mask="url(#mask-2)" transform="translate(41.425451, 25.782122) scale(-1, 1) rotate(-180.000000) translate(-41.425451, -25.782122) " points="36.7924105 31.0789603 39.1599912 31.0789603 39.1599912 27.0127838 43.6909105 27.0127838 43.6909105 31.0789603 46.0584912 31.0789603 46.0584912 20.4852838 43.6909105 20.4852838 43.6909105 24.8355779 39.1599912 24.8355779 39.1599912 20.4852838 36.7924105 20.4852838"></polygon>
                        <path d="M54.6663194,24.4407059 C54.5819806,24.3882059 54.4569968,24.3007059 54.2893355,24.1792353 C54.1226903,24.0567353 53.9052387,23.9373235 53.6390129,23.8199706 C53.3738032,23.7046765 53.056771,23.6007059 52.6909645,23.5111471 C52.3241419,23.4205588 51.9065129,23.3762941 51.4360452,23.3762941 C50.8090935,23.3762941 50.2441258,23.4751176 49.7421581,23.6696765 C49.2412065,23.8662941 48.8154484,24.1390882 48.4648839,24.4880588 C48.1143194,24.8380588 47.8480935,25.2580588 47.6651903,25.7511471 C47.4822871,26.2432059 47.3908355,26.7857059 47.3908355,27.3796765 C47.3908355,27.8985 47.4772065,28.3977647 47.6499484,28.8815882 C47.8216742,29.3623235 48.0706258,29.7833529 48.394771,30.1426176 C48.7189161,30.5039412 49.1152065,30.7921765 49.5856742,31.0093824 C50.0561419,31.2255588 50.5896097,31.3346765 51.1840452,31.3346765 C51.781529,31.3346765 52.3038194,31.2286471 52.7529484,31.0165882 C53.2030935,30.8065882 53.5831258,30.5111471 53.8899968,30.1364412 C54.1989,29.7596765 54.4305774,29.3098235 54.5880774,28.7848235 C54.7445613,28.2608529 54.8228032,27.6864412 54.8228032,27.0615882 L54.8228032,26.6807059 L49.5856742,26.6807059 C49.5958355,26.2782059 49.7716258,25.9261471 50.1110129,25.6235 C50.4514161,25.3229118 50.9188355,25.1715882 51.5142871,25.1715882 C52.0995774,25.1715882 52.5751258,25.2580588 52.9419484,25.4340882 C53.3077548,25.6080588 53.5739806,25.7593824 53.7416419,25.886 L54.6663194,24.4407059 Z M52.6909645,28.1424706 C52.6909645,28.301 52.6594645,28.4605588 52.5974806,28.6262941 C52.5334645,28.791 52.4399806,28.9412941 52.3139806,29.0782059 C52.1879806,29.2182059 52.0314968,29.3304118 51.8435129,29.421 C51.6565452,29.5105588 51.4309645,29.5558529 51.1708355,29.5558529 C50.9086742,29.5558529 50.6780129,29.5105588 50.4798677,29.421 C50.2807065,29.3304118 50.1171097,29.2182059 49.986029,29.0782059 C49.8549484,28.9412941 49.7563839,28.791 49.6872871,28.6262941 C49.6192065,28.4605588 49.5856742,28.301 49.5856742,28.1424706 L52.6909645,28.1424706 Z" id="path3041" fill="#7689A2" fill-rule="nonzero" mask="url(#mask-2)" transform="translate(51.106819, 27.355485) scale(-1, 1) rotate(-180.000000) translate(-51.106819, -27.355485) "></path>
                        <polygon id="path3043" fill="#7689A2" fill-rule="nonzero" mask="url(#mask-2)" transform="translate(57.221782, 25.783162) scale(-1, 1) rotate(-180.000000) translate(-57.221782, -25.783162) " points="56.093371 31.08 58.3501935 31.08 58.3501935 20.4863235 56.093371 20.4863235"></polygon>
                        <polygon id="path3045" fill="#7689A2" fill-rule="nonzero" mask="url(#mask-2)" transform="translate(61.517976, 25.783162) scale(-1, 1) rotate(-180.000000) translate(-61.517976, -25.783162) " points="60.3895645 31.08 62.6463871 31.08 62.6463871 20.4863235 60.3895645 20.4863235"></polygon>
                        <path d="M71.3180323,24.4407059 C71.2336935,24.3882059 71.1087097,24.3007059 70.9410484,24.1792353 C70.7733871,24.0567353 70.5569516,23.9373235 70.2907258,23.8199706 C70.0245,23.7046765 69.7074677,23.6007059 69.3416613,23.5111471 C68.976871,23.4205588 68.5582258,23.3762941 68.0877581,23.3762941 C67.4608065,23.3762941 66.8968548,23.4751176 66.3948871,23.6696765 C65.8929194,23.8662941 65.4661452,24.1390882 65.1165968,24.4880588 C64.7660323,24.8380588 64.5008226,25.2580588 64.3169032,25.7511471 C64.134,26.2432059 64.0425484,26.7857059 64.0425484,27.3796765 C64.0425484,27.8985 64.1279032,28.3977647 64.3016613,28.8815882 C64.4733871,29.3623235 64.7223387,29.7833529 65.0464839,30.1426176 C65.3696129,30.5039412 65.7669194,30.7921765 66.2373871,31.0093824 C66.7078548,31.2255588 67.2403065,31.3346765 67.8367742,31.3346765 C68.4332419,31.3346765 68.9555323,31.2286471 69.4046613,31.0165882 C69.8537903,30.8065882 70.2328065,30.5111471 70.5417097,30.1364412 C70.8495968,29.7596765 71.0833065,29.3098235 71.2397903,28.7848235 C71.3952581,28.2608529 71.4755323,27.6864412 71.4755323,27.0615882 L71.4755323,26.6807059 L66.2373871,26.6807059 C66.2475484,26.2782059 66.4233387,25.9261471 66.7627258,25.6235 C67.103129,25.3229118 67.5695323,25.1715882 68.166,25.1715882 C68.7523065,25.1715882 69.2268387,25.2580588 69.5926452,25.4340882 C69.9594677,25.6080588 70.2246774,25.7593824 70.3933548,25.886 L71.3180323,24.4407059 Z M69.3416613,28.1424706 C69.3416613,28.301 69.3121935,28.4605588 69.2481774,28.6262941 C69.1851774,28.791 69.0906774,28.9412941 68.9656935,29.0782059 C68.8396935,29.2182059 68.6842258,29.3304118 68.4952258,29.421 C68.3062258,29.5105588 68.0826774,29.5558529 67.8215323,29.5558529 C67.5603871,29.5558529 67.3297258,29.5105588 67.1315806,29.421 C66.9324194,29.3304118 66.7688226,29.2182059 66.6377419,29.0782059 C66.5066613,28.9412941 66.4070806,28.791 66.3400161,28.6262941 C66.2719355,28.4605588 66.2373871,28.301 66.2373871,28.1424706 L69.3416613,28.1424706 Z" id="path3049" fill="#7689A2" fill-rule="nonzero" mask="url(#mask-2)" transform="translate(67.759040, 27.355485) scale(-1, 1) rotate(-180.000000) translate(-67.759040, -27.355485) "></path>
                        <path d="M72.7360403,30.9058235 L74.9003952,30.9058235 L74.962379,30.0967059 C75.2042177,30.3921471 75.5202339,30.6309706 75.9114435,30.8100882 C76.3036694,30.9902353 76.7131694,31.0797941 77.1419758,31.0797941 C77.9894274,31.0797941 78.6600726,30.8265588 79.1559435,30.317 C79.6538468,29.8084706 79.9027984,29.057 79.9027984,28.0625882 L79.9027984,23.4559706 L77.6439435,23.4559706 L77.6439435,27.7445 C77.6439435,28.1572941 77.5423306,28.4846471 77.3380887,28.7286176 C77.1348629,28.9715588 76.8503468,29.0940588 76.4845403,29.0940588 C76.2335565,29.0940588 76.0130565,29.0497941 75.8260887,28.9602353 C75.6370887,28.8696471 75.4806048,28.7512647 75.3546048,28.602 C75.229621,28.4537647 75.135121,28.2818529 75.0731371,28.0852353 C75.0101371,27.8896471 74.9786371,27.6817059 74.9786371,27.4583235 L74.9786371,23.4559706 L72.7360403,23.4559706 L72.7360403,30.9058235 Z" id="path3053" fill="#7689A2" fill-rule="nonzero" mask="url(#mask-2)" transform="translate(76.319419, 27.267882) scale(-1, 1) rotate(-180.000000) translate(-76.319419, -27.267882) "></path>
                        <path d="M81.2344355,31.08 L83.6497742,31.08 L83.6497742,29.0314706 L81.2344355,29.0314706 L81.2344355,31.08 Z M81.3126774,27.9361765 L83.5705161,27.9361765 L83.5705161,20.4863235 L81.3126774,20.4863235 L81.3126774,27.9361765 Z" id="path3055" fill="#7689A2" fill-rule="nonzero" mask="url(#mask-2)" transform="translate(82.442105, 25.783162) scale(-1, 1) rotate(-180.000000) translate(-82.442105, -25.783162) "></path>
                        <path d="M91.7679237,24.6148824 C91.4651173,24.2762059 91.0647624,23.9848824 90.5688915,23.7409118 C90.0730205,23.4979706 89.4836656,23.3765 88.8038753,23.3765 C88.2094398,23.3765 87.6678431,23.4732647 87.1811173,23.6698824 C86.6954076,23.8665 86.2808269,24.1413529 85.9343269,24.4954706 C85.5908753,24.8495882 85.3216011,25.2716471 85.1285366,25.7595882 C84.934456,26.2465 84.8379237,26.7807647 84.8379237,27.3623824 C84.8379237,27.9131176 84.9375044,28.4298824 85.1356495,28.9116471 C85.3337947,29.3944412 85.6071334,29.8144412 85.958714,30.1747353 C86.3092785,30.534 86.7279237,30.8170882 87.2136334,31.024 C87.6993431,31.2309118 88.2297624,31.3338529 88.8038753,31.3338529 C89.4735044,31.3338529 90.053714,31.2226765 90.5455205,31.0013529 C91.0363108,30.7779706 91.4498753,30.4815 91.7831656,30.1109118 L90.4195205,28.6172353 C90.2528753,28.8076765 90.0486334,28.9775294 89.8078108,29.1247353 C89.5680044,29.2750294 89.249956,29.3491471 88.8526495,29.3491471 C88.5803269,29.3491471 88.336456,29.2925294 88.1230689,29.1813529 C87.9076495,29.0712059 87.7247463,28.9260588 87.5733431,28.7448824 C87.4219398,28.5657647 87.3071173,28.3567941 87.2288753,28.1169412 C87.1516495,27.8791471 87.1099882,27.6269412 87.1099882,27.3623824 C87.1099882,27.1194412 87.1516495,26.8775294 87.2288753,26.6407647 C87.3071173,26.4029706 87.4219398,26.1898824 87.5733431,26.0056176 C87.7247463,25.8192941 87.9076495,25.669 88.1230689,25.5526765 C88.336456,25.4353235 88.5803269,25.3776765 88.8526495,25.3776765 C89.2387785,25.3776765 89.5619076,25.4548824 89.8230527,25.6082647 C90.085214,25.7606176 90.2945366,25.9284118 90.4510205,26.1075294 L91.7679237,24.6148824 Z" id="path3059" fill="#7689A2" fill-rule="nonzero" mask="url(#mask-2)" transform="translate(88.310545, 27.355176) scale(-1, 1) rotate(-180.000000) translate(-88.310545, -27.355176) "></path>
                        <path d="M96.4562516,31.0789603 L100.376477,31.0789603 C101.024768,31.0789603 101.572461,31.0027838 102.02159,30.8494015 C102.472752,30.6960191 102.837542,30.4911662 103.120026,30.2379309 C103.40251,29.9826368 103.605735,29.688225 103.731735,29.3546956 C103.856719,29.0211662 103.920735,28.6752838 103.920735,28.3149897 C103.920735,27.9763132 103.859768,27.6777838 103.738848,27.4173426 C103.618945,27.1579309 103.477703,26.9366074 103.316139,26.7513132 C103.153558,26.5649897 102.981832,26.4188132 102.797913,26.3138132 C102.616026,26.2067544 102.466655,26.1398426 102.352848,26.1069015 C102.528639,26.0533721 102.737961,25.9751368 102.978784,25.8691074 C103.229768,25.7630779 103.464494,25.6066074 103.683977,25.3996956 C103.903461,25.1948426 104.089413,24.9344015 104.241832,24.6214603 C104.392219,24.3095485 104.468429,23.9410191 104.468429,23.5179309 C104.468429,22.9661662 104.371897,22.5019015 104.177816,22.1199897 C103.984752,21.7401368 103.712429,21.4261662 103.362881,21.183225 C103.012316,20.9392544 102.58351,20.7611662 102.078494,20.6510191 C101.569413,20.5398426 101.002413,20.4852838 100.376477,20.4852838 L96.4562516,20.4852838 L96.4562516,31.0789603 Z M100.155977,26.8377838 C100.3338,26.8377838 100.50959,26.8594015 100.682332,26.9016074 C100.854058,26.9427838 101.005461,27.0096956 101.136542,27.0992544 C101.267623,27.1888132 101.374316,27.3113132 101.458655,27.4646956 C101.541977,27.6191074 101.582623,27.8064603 101.582623,28.0288132 C101.582623,28.2624897 101.541977,28.4549897 101.458655,28.6094015 C101.374316,28.7627838 101.264574,28.8842544 101.129429,28.9738132 C100.993268,29.0644015 100.838816,29.1271956 100.666074,29.1652838 C100.492316,29.2013132 100.323639,29.2198426 100.155977,29.2198426 L98.7608323,29.2198426 L98.7608323,26.8377838 L100.155977,26.8377838 Z M100.298235,22.3258721 C100.464881,22.3258721 100.652865,22.3392544 100.862187,22.3660191 C101.07151,22.3927838 101.264574,22.4535191 101.442397,22.5492544 C101.620219,22.6439603 101.768574,22.7829309 101.889494,22.9630779 C102.009397,23.1421956 102.069348,23.3913132 102.069348,23.7083721 C102.069348,23.9945485 102.011429,24.2271956 101.896606,24.4063132 C101.781784,24.5864603 101.635461,24.7274897 101.458655,24.8294015 C101.279816,24.9292544 101.086752,24.9971956 100.877429,25.0342544 C100.668106,25.0723426 100.476058,25.0908721 100.298235,25.0908721 L98.7608323,25.0908721 L98.7608323,22.3258721 L100.298235,22.3258721 Z" id="path3063" fill="#7689A2" fill-rule="nonzero" mask="url(#mask-2)" transform="translate(100.462340, 25.782122) scale(-1, 1) rotate(-180.000000) translate(-100.462340, -25.782122) "></path>
                        <path d="M105.315383,27.3629897 C105.315383,27.913725 105.411915,28.4294603 105.60498,28.9122544 C105.79906,29.3950485 106.067318,29.8150485 106.412802,30.1743132 C106.75727,30.5346074 107.172867,30.8176956 107.658576,31.0246074 C108.145302,31.2304897 108.679786,31.3344603 109.267109,31.3344603 C109.852399,31.3344603 110.383834,31.2304897 110.86548,31.0246074 C111.345092,30.8176956 111.757641,30.5346074 112.105157,30.1743132 C112.448609,29.8150485 112.718899,29.3950485 112.911963,28.9122544 C113.104012,28.4294603 113.202576,27.913725 113.202576,27.3629897 C113.202576,26.8122544 113.104012,26.2954897 112.911963,25.813725 C112.718899,25.3319603 112.448609,24.9109309 112.105157,24.5516662 C111.757641,24.1913721 111.345092,23.906225 110.86548,23.6941662 C110.383834,23.4821074 109.852399,23.3760779 109.267109,23.3760779 C108.679786,23.3760779 108.145302,23.4821074 107.658576,23.6941662 C107.172867,23.906225 106.75727,24.1913721 106.412802,24.5516662 C106.067318,24.9109309 105.79906,25.3319603 105.60498,25.813725 C105.411915,26.2954897 105.315383,26.8122544 105.315383,27.3629897 M109.267109,25.3618132 C109.548576,25.3618132 109.79956,25.4174015 110.019044,25.5285779 C110.238528,25.638725 110.423463,25.7910779 110.574867,25.9815191 C110.72627,26.1729897 110.83906,26.3860779 110.912221,26.6249015 C110.985383,26.8616662 111.021963,27.108725 111.021963,27.3629897 C111.021963,27.6172544 110.985383,27.8643132 110.912221,28.1031368 C110.83906,28.3399015 110.72627,28.5519603 110.574867,28.7372544 C110.423463,28.9225485 110.238528,29.0707838 110.019044,29.1809309 C109.79956,29.2921074 109.548576,29.348725 109.267109,29.348725 C108.983609,29.348725 108.729576,29.2921074 108.506028,29.1809309 C108.281463,29.0707838 108.095512,28.9225485 107.949189,28.7372544 C107.802867,28.5519603 107.690076,28.3399015 107.611834,28.1031368 C107.533592,27.8643132 107.49498,27.6172544 107.49498,27.3629897 C107.49498,27.108725 107.533592,26.8616662 107.611834,26.6249015 C107.690076,26.3860779 107.802867,26.1729897 107.949189,25.9815191 C108.095512,25.7910779 108.281463,25.638725 108.506028,25.5285779 C108.729576,25.4174015 108.983609,25.3618132 109.267109,25.3618132" id="path3067" fill="#7689A2" fill-rule="nonzero" mask="url(#mask-2)" transform="translate(109.258980, 27.355269) scale(-1, 1) rotate(-180.000000) translate(-109.258980, -27.355269) "></path>
                        <path d="M114.963518,27.3000103 L113.803098,27.3000103 L113.803098,29.0953044 L114.963518,29.0953044 L114.963518,31.3497162 L117.222373,31.3497162 L117.222373,29.0953044 L119.117453,29.0953044 L119.117453,27.3000103 L117.222373,27.3000103 L117.222373,24.3610397 C117.222373,24.001775 117.292485,23.7238338 117.433727,23.5272162 C117.573953,23.3305985 117.796485,23.2338338 118.099292,23.2338338 C118.328937,23.2338338 118.529115,23.2729515 118.693727,23.3532456 C118.863421,23.4325103 119.019905,23.5251574 119.166227,23.6311868 L120.075663,22.2332456 C119.364373,21.6619221 118.591098,21.3757456 117.754824,21.3757456 C117.232534,21.3757456 116.791534,21.4519221 116.437921,21.6053044 C116.082276,21.7586868 115.793695,21.9707456 115.576244,22.2404515 C115.35676,22.5111868 115.19926,22.8364809 115.103744,23.2194221 C115.01026,23.599275 114.963518,24.0223632 114.963518,24.4886868 L114.963518,27.3000103 Z" id="path3071" fill="#7689A2" fill-rule="nonzero" mask="url(#mask-2)" transform="translate(116.939381, 26.362731) scale(-1, 1) rotate(-180.000000) translate(-116.939381, -26.362731) "></path>
                        <path d="M121.094749,27.3000103 L119.933313,27.3000103 L119.933313,29.0953044 L121.094749,29.0953044 L121.094749,31.3497162 L123.353604,31.3497162 L123.353604,29.0953044 L125.248684,29.0953044 L125.248684,27.3000103 L123.353604,27.3000103 L123.353604,24.3610397 C123.353604,24.001775 123.423717,23.7238338 123.563942,23.5272162 C123.704168,23.3305985 123.927717,23.2338338 124.229507,23.2338338 C124.459152,23.2338338 124.660346,23.2729515 124.825975,23.3532456 C124.994652,23.4325103 125.151136,23.5251574 125.298475,23.6311868 L126.206894,22.2332456 C125.495604,21.6619221 124.723346,21.3757456 123.885039,21.3757456 C123.363765,21.3757456 122.922765,21.4519221 122.568136,21.6053044 C122.213507,21.7586868 121.92391,21.9707456 121.707475,22.2404515 C121.486975,22.5111868 121.330491,22.8364809 121.233959,23.2194221 C121.141491,23.599275 121.094749,24.0223632 121.094749,24.4886868 L121.094749,27.3000103 Z" id="path3075" fill="#7689A2" fill-rule="nonzero" mask="url(#mask-2)" transform="translate(123.070104, 26.362731) scale(-1, 1) rotate(-180.000000) translate(-123.070104, -26.362731) "></path>
                        <polygon id="path3077" fill="#7689A2" fill-rule="nonzero" mask="url(#mask-2)" transform="translate(127.993137, 25.783162) scale(-1, 1) rotate(-180.000000) translate(-127.993137, -25.783162) " points="126.864726 31.08 129.121548 31.08 129.121548 20.4863235 126.864726 20.4863235"></polygon>
                        <path d="M131.033903,31.08 L133.449242,31.08 L133.449242,29.0314706 L131.033903,29.0314706 L131.033903,31.08 Z M131.114177,27.9361765 L133.372016,27.9361765 L133.372016,20.4863235 L131.114177,20.4863235 L131.114177,27.9361765 Z" id="path3079" fill="#7689A2" fill-rule="nonzero" mask="url(#mask-2)" transform="translate(132.241573, 25.783162) scale(-1, 1) rotate(-180.000000) translate(-132.241573, -25.783162) "></path>
                        <path d="M135.143444,30.9058235 L137.306783,30.9058235 L137.369783,30.0967059 C137.609589,30.3921471 137.925605,30.6309706 138.319863,30.8100882 C138.711073,30.9902353 139.120573,31.0797941 139.54938,31.0797941 C140.395815,31.0797941 141.068492,30.8265588 141.563347,30.317 C142.06125,29.8084706 142.30817,29.057 142.30817,28.0625882 L142.30817,23.4559706 L140.050331,23.4559706 L140.050331,27.7445 C140.050331,28.1572941 139.949734,28.4846471 139.744476,28.7286176 C139.542267,28.9715588 139.25775,29.0940588 138.889912,29.0940588 C138.639944,29.0940588 138.419444,29.0497941 138.233492,28.9602353 C138.044492,28.8696471 137.886992,28.7512647 137.762009,28.602 C137.634992,28.4537647 137.541509,28.2818529 137.480541,28.0852353 C137.417541,27.8896471 137.387057,27.6817059 137.387057,27.4583235 L137.387057,23.4559706 L135.143444,23.4559706 L135.143444,30.9058235 Z" id="path3083" fill="#7689A2" fill-rule="nonzero" mask="url(#mask-2)" transform="translate(138.725807, 27.267882) scale(-1, 1) rotate(-180.000000) translate(-138.725807, -27.267882) "></path>
                        <path d="M145.0821,25.8847544 C145.374746,25.7046074 145.686697,25.5646074 146.014907,25.463725 C146.344133,25.3638721 146.706891,25.3134309 147.104197,25.3134309 C147.616326,25.3134309 148.020746,25.4503426 148.312375,25.7251956 C148.60502,26.0021074 148.750326,26.4149015 148.750326,26.9656368 L148.750326,27.4896074 C148.280875,27.0768132 147.653923,26.8688721 146.870488,26.8688721 C146.348197,26.8688721 145.879762,26.9574015 145.465181,27.1324015 C145.053649,27.3063721 144.706133,27.5524015 144.423649,27.8715191 C144.142181,28.1885779 143.923713,28.5632838 143.77231,28.998725 C143.619891,29.4331368 143.545713,29.908725 143.545713,30.4275485 C143.545713,31.0318132 143.648342,31.5804897 143.852584,32.0725485 C144.05581,32.5646074 144.343375,32.9876956 144.713246,33.3428426 C145.084133,33.6969603 145.529197,33.9697544 146.047423,34.1601956 C146.564633,34.3516662 147.141794,34.4463721 147.779923,34.4463721 C148.38452,34.4463721 148.962697,34.3938721 149.512423,34.2878426 C150.0591,34.1807838 150.554971,34.0490191 150.993939,33.8915191 L150.993939,27.0768132 C150.993939,25.8476956 150.658617,24.9397544 149.988988,24.3519603 C149.320375,23.7641662 148.406875,23.4718132 147.245439,23.4718132 C146.588004,23.4718132 146.012875,23.5346074 145.520052,23.6601956 C145.031294,23.7888721 144.582165,23.9896074 144.172665,24.2644603 L145.0821,25.8847544 Z M148.7676,32.3978426 C148.621278,32.4503426 148.474955,32.4894603 148.3266,32.516225 C148.181294,32.5440191 147.989246,32.5563721 147.748423,32.5563721 C147.423262,32.5563721 147.141794,32.5007838 146.901988,32.3885779 C146.661165,32.2784309 146.458955,32.131225 146.298407,31.9449015 C146.135826,31.7585779 146.014907,31.5424015 145.937681,31.2932838 C145.858423,31.0441662 145.820826,30.7816662 145.820826,30.5068132 C145.820826,29.9663721 145.946826,29.5381368 146.203907,29.2210779 C146.458955,28.9029897 146.833907,28.7444603 147.325713,28.7444603 C147.783988,28.7444603 148.140649,28.858725 148.390617,29.0851956 C148.6416,29.313725 148.7676,29.6699015 148.7676,30.1568132 L148.7676,32.3978426 Z" id="path3087" fill="#7689A2" fill-rule="nonzero" mask="url(#mask-2)" transform="translate(147.269826, 28.959093) scale(-1, 1) rotate(-180.000000) translate(-147.269826, -28.959093) "></path>
                        <path d="M167.017268,22.4408676 C166.797784,22.1330735 166.531558,21.8448382 166.21859,21.5741029 C165.904606,21.3054265 165.556074,21.0686618 165.175026,20.8668971 C164.793977,20.6661618 164.379397,20.5066029 163.937381,20.3913088 C163.492316,20.2749853 163.029977,20.2163088 162.549348,20.2163088 C161.753719,20.2163088 161.029219,20.35425 160.368735,20.6291029 C159.709268,20.9049853 159.1443,21.2899853 158.668752,21.7820441 C158.194219,22.2730735 157.823332,22.8557206 157.562187,23.5279265 C157.302058,24.2001324 157.169961,24.9382206 157.169961,25.74425 C157.169961,26.5276324 157.302058,27.2616029 157.562187,27.9441029 C157.823332,28.6286618 158.194219,29.2195441 158.668752,29.7239559 C159.1443,30.2273382 159.713332,30.6236618 160.377881,30.9149853 C161.042429,31.2052794 161.775058,31.3504265 162.580848,31.3504265 C163.552268,31.3504265 164.401752,31.1702794 165.1293,30.8110147 C165.855832,30.4507206 166.459413,29.9318971 166.940042,29.2545441 L165.324397,27.6826324 C165.011429,28.1273382 164.639526,28.4835147 164.210719,28.7532206 C163.781913,29.0249853 163.269784,29.1598382 162.675348,29.1598382 C162.205897,29.1598382 161.781155,29.0713088 161.404171,28.8973382 C161.029219,28.7223382 160.709139,28.4804265 160.44901,28.1736618 C160.185832,27.8668971 159.985655,27.5096912 159.844413,27.1010147 C159.703171,26.6954265 159.633058,26.2620441 159.633058,25.8080735 C159.633058,25.34175 159.703171,24.9073382 159.844413,24.5048382 C159.985655,24.1033676 160.185832,23.7533676 160.44901,23.4568971 C160.709139,23.1593971 161.023123,22.9277794 161.389945,22.7579265 C161.753719,22.5880735 162.1683,22.5036618 162.628606,22.5036618 C163.003558,22.5036618 163.330752,22.5438088 163.607139,22.6230735 C163.884542,22.7023382 164.130445,22.8073382 164.344848,22.9411618 C164.559252,23.0718971 164.749268,23.2252794 164.916929,23.4023382 C165.08459,23.5752794 165.246155,23.7533676 165.402639,23.9335147 L167.017268,22.4408676 Z" id="path3091" fill="#7689A2" fill-rule="nonzero" mask="url(#mask-2)" transform="translate(162.093615, 25.783368) scale(-1, 1) rotate(-180.000000) translate(-162.093615, -25.783368) "></path>
                        <path d="M167.582134,27.3629897 C167.582134,27.913725 167.678666,28.4294603 167.872747,28.9122544 C168.066827,29.3950485 168.335085,29.8150485 168.680569,30.1743132 C169.025037,30.5346074 169.440634,30.8176956 169.926344,31.0246074 C170.412053,31.2304897 170.947553,31.3344603 171.532844,31.3344603 C172.11915,31.3344603 172.652618,31.2304897 173.132231,31.0246074 C173.613876,30.8176956 174.026424,30.5346074 174.371908,30.1743132 C174.71536,29.8150485 174.98565,29.3950485 175.178715,28.9122544 C175.371779,28.4294603 175.469327,27.913725 175.469327,27.3629897 C175.469327,26.8122544 175.371779,26.2954897 175.178715,25.813725 C174.98565,25.3319603 174.71536,24.9109309 174.371908,24.5516662 C174.026424,24.1913721 173.613876,23.906225 173.132231,23.6941662 C172.652618,23.4821074 172.11915,23.3760779 171.532844,23.3760779 C170.947553,23.3760779 170.412053,23.4821074 169.926344,23.6941662 C169.440634,23.906225 169.025037,24.1913721 168.680569,24.5516662 C168.335085,24.9109309 168.066827,25.3319603 167.872747,25.813725 C167.678666,26.2954897 167.582134,26.8122544 167.582134,27.3629897 M171.532844,25.3618132 C171.816344,25.3618132 172.066311,25.4174015 172.285795,25.5285779 C172.506295,25.638725 172.691231,25.7910779 172.842634,25.9815191 C172.995053,26.1729897 173.105811,26.3860779 173.178973,26.6249015 C173.25315,26.8616662 173.289731,27.108725 173.289731,27.3629897 C173.289731,27.6172544 173.25315,27.8643132 173.178973,28.1031368 C173.105811,28.3399015 172.995053,28.5519603 172.842634,28.7372544 C172.691231,28.9225485 172.506295,29.0707838 172.285795,29.1809309 C172.066311,29.2921074 171.816344,29.348725 171.532844,29.348725 C171.251376,29.348725 170.997344,29.2921074 170.772779,29.1809309 C170.548215,29.0707838 170.362263,28.9225485 170.216956,28.7372544 C170.070634,28.5519603 169.957844,28.3399015 169.878585,28.1031368 C169.800344,27.8643132 169.761731,27.6172544 169.761731,27.3629897 C169.761731,27.108725 169.800344,26.8616662 169.878585,26.6249015 C169.957844,26.3860779 170.070634,26.1729897 170.216956,25.9815191 C170.362263,25.7910779 170.548215,25.638725 170.772779,25.5285779 C170.997344,25.4174015 171.251376,25.3618132 171.532844,25.3618132" id="path3095" fill="#7689A2" fill-rule="nonzero" mask="url(#mask-2)" transform="translate(171.525731, 27.355269) scale(-1, 1) rotate(-180.000000) translate(-171.525731, -27.355269) "></path>
                        <path d="M176.675269,30.9058235 L178.839624,30.9058235 L178.918882,30.0792059 C179.148527,30.3664118 179.440156,30.6031765 179.796818,30.7946471 C180.152463,30.9840588 180.569076,31.0797941 181.050721,31.0797941 C181.343366,31.0797941 181.604511,31.0468529 181.834156,30.9840588 C182.062785,30.9212647 182.266011,30.8399412 182.437737,30.7380294 C182.610479,30.6381765 182.761882,30.5259706 182.893979,30.4045 C183.024044,30.282 183.130737,30.1636176 183.21406,30.0472941 C183.516866,30.3746471 183.885721,30.6309706 184.320624,30.8100882 C184.753495,30.9902353 185.205673,31.0797941 185.67614,31.0797941 C186.617076,31.0797941 187.336495,30.8100882 187.832366,30.2696471 C188.328237,29.7292059 188.576173,28.9942059 188.576173,28.0625882 L188.576173,23.4559706 L186.31935,23.4559706 L186.31935,27.6971471 C186.31935,28.1408235 186.221802,28.4846471 186.029753,28.7286176 C185.835673,28.9715588 185.546076,29.0940588 185.158931,29.0940588 C184.719963,29.0940588 184.369398,28.9406765 184.108253,28.6328824 C183.846092,28.3261176 183.717044,27.9349412 183.717044,27.4583235 L183.717044,23.4559706 L181.536431,23.4559706 L181.536431,27.6971471 C181.536431,28.1408235 181.439898,28.4846471 181.244802,28.7286176 C181.053769,28.9715588 180.76214,29.0940588 180.377027,29.0940588 C179.948221,29.0940588 179.599689,28.9406765 179.333463,28.6328824 C179.067237,28.3261176 178.934124,27.9349412 178.934124,27.4583235 L178.934124,23.4559706 L176.675269,23.4559706 L176.675269,30.9058235 Z" id="path3099" fill="#7689A2" fill-rule="nonzero" mask="url(#mask-2)" transform="translate(182.625721, 27.267882) scale(-1, 1) rotate(-180.000000) translate(-182.625721, -27.267882) "></path>
                        <path d="M190.207263,34.1165588 L192.371618,34.1165588 C192.39194,33.9786176 192.408198,33.8427353 192.41836,33.7099412 C192.428521,33.5792059 192.438682,33.4433235 192.44986,33.3074412 C192.690682,33.6131765 192.997553,33.8489118 193.374537,34.0125882 C193.750505,34.1762647 194.143747,34.2575882 194.550198,34.2575882 C195.083666,34.2575882 195.554134,34.1525882 195.961602,33.9415588 C196.370085,33.7305294 196.70744,33.4464118 196.980779,33.0922941 C197.252085,32.7371471 197.456327,32.3284706 197.593505,31.8683235 C197.729666,31.4081765 197.794698,30.9336176 197.794698,30.4467059 C197.794698,29.7590588 197.680892,29.1609706 197.452263,28.6524412 C197.220585,28.1428824 196.92286,27.7249412 196.556037,27.3965588 C196.192263,27.0692059 195.778698,26.8252353 195.319408,26.6667059 C194.859102,26.5081765 194.403876,26.4278824 193.953731,26.4278824 C193.599102,26.4278824 193.306456,26.4597941 193.076811,26.5236176 C192.84615,26.5864118 192.637844,26.6502353 192.44986,26.7130294 L192.44986,23.4889118 L190.207263,23.4889118 L190.207263,34.1165588 Z M192.44986,28.6349412 C192.742505,28.4342059 193.176392,28.3343529 193.750505,28.3343529 C194.304295,28.3343529 194.741231,28.5217059 195.059279,28.8984706 C195.37936,29.2731765 195.537876,29.7734706 195.537876,30.3993529 C195.537876,30.6433235 195.509424,30.8811176 195.452521,31.1137647 C195.394602,31.3474412 195.305182,31.5512647 195.185279,31.7262647 C195.065376,31.9002353 194.908892,32.0392059 194.715827,32.1462647 C194.522763,32.2512647 194.283973,32.3047941 194.001489,32.3047941 C193.750505,32.3047941 193.527973,32.2574412 193.334908,32.1617059 C193.14286,32.067 192.979263,31.9393529 192.849198,31.7808235 C192.718118,31.6233235 192.619553,31.4421471 192.551473,31.2403824 C192.483392,31.0396471 192.44986,30.8327353 192.44986,30.6217059 L192.44986,28.6349412 Z" id="path3103" fill="#7689A2" fill-rule="nonzero" mask="url(#mask-2)" transform="translate(194.000981, 28.873250) scale(-1, 1) rotate(-180.000000) translate(-194.000981, -28.873250) "></path>
                        <path d="M203.409116,24.2974118 C203.158132,23.9999118 202.843132,23.7724118 202.460052,23.6149118 C202.079003,23.4563824 201.653245,23.3760882 201.182777,23.3760882 C200.920616,23.3760882 200.647277,23.4131471 200.359713,23.4882941 C200.072148,23.5613824 199.804906,23.6859412 199.560019,23.8609412 C199.314116,24.0359412 199.11089,24.2706471 198.949326,24.5671176 C198.786745,24.8635882 198.706471,25.2341765 198.706471,25.6788824 C198.706471,26.1132941 198.791826,26.4993235 198.964568,26.8390294 C199.13731,27.1777059 199.374068,27.4607941 199.67789,27.6893235 C199.980697,27.9168235 200.33939,28.0877059 200.751939,28.2050588 C201.164487,28.3213824 201.611584,28.3790294 202.092213,28.3790294 C202.353358,28.3790294 202.617552,28.3749118 202.883777,28.3635882 C203.151019,28.3532941 203.325794,28.3368235 203.409116,28.3152059 L203.409116,28.4747647 C203.409116,28.6652059 203.370503,28.8278529 203.291245,28.9585882 C203.213003,29.0924118 203.108342,29.2025588 202.977261,29.2931471 C202.847197,29.3827059 202.698842,29.4475588 202.532197,29.4825588 C202.363519,29.5206471 202.186713,29.5391765 201.998729,29.5391765 C201.496761,29.5391765 201.081165,29.4763824 200.751939,29.3487353 C200.422713,29.2210882 200.142261,29.0800588 199.913632,28.9194706 L198.987939,30.3174118 C199.144423,30.4337353 199.322245,30.5500588 199.521406,30.6684412 C199.718535,30.7827059 199.954277,30.8897647 200.2266,30.9844706 C200.497906,31.0802059 200.803761,31.1574118 201.143148,31.2150588 C201.483552,31.2727059 201.872729,31.3025588 202.310681,31.3025588 C203.430455,31.3025588 204.255552,30.9968235 204.789019,30.3905 C205.323503,29.7810882 205.588713,28.9616765 205.588713,27.9353529 L205.588713,23.5984412 L203.472116,23.5984412 L203.409116,24.2974118 Z M203.409116,26.8863824 C203.357294,26.8966765 203.256697,26.9100588 203.11139,26.9255 C202.965068,26.9419706 202.797406,26.9491765 202.610439,26.9491765 C201.982471,26.9491765 201.537406,26.8585882 201.276261,26.6805 C201.015116,26.4993235 200.886068,26.2460882 200.886068,25.9177059 C200.886068,25.3031471 201.250858,24.9974118 201.982471,24.9974118 C202.159277,24.9974118 202.336084,25.0252059 202.50781,25.0828529 C202.680552,25.1415294 202.831955,25.2249118 202.963035,25.3288824 C203.0931,25.4359412 203.20081,25.5687353 203.284132,25.7272647 C203.366439,25.8857941 203.409116,26.0710882 203.409116,26.2821176 L203.409116,26.8863824 Z" id="path3107" fill="#7689A2" fill-rule="nonzero" mask="url(#mask-2)" transform="translate(202.147592, 27.339324) scale(-1, 1) rotate(-180.000000) translate(-202.147592, -27.339324) "></path>
                        <path d="M207.179148,30.9058235 L209.342487,30.9058235 L209.40447,30.0967059 C209.645293,30.3921471 209.961309,30.6309706 210.354551,30.8100882 C210.746777,30.9902353 211.156277,31.0797941 211.585083,31.0797941 C212.431519,31.0797941 213.10318,30.8265588 213.599051,30.317 C214.095938,29.8084706 214.343874,29.057 214.343874,28.0625882 L214.343874,23.4559706 L212.086035,23.4559706 L212.086035,27.7445 C212.086035,28.1572941 211.984422,28.4846471 211.78018,28.7286176 C211.576954,28.9715588 211.292438,29.0940588 210.925616,29.0940588 C210.675648,29.0940588 210.455148,29.0497941 210.26818,28.9602353 C210.07918,28.8696471 209.92168,28.7512647 209.797712,28.602 C209.671712,28.4537647 209.577212,28.2818529 209.515229,28.0852353 C209.453245,27.8896471 209.420729,27.6817059 209.420729,27.4583235 L209.420729,23.4559706 L207.179148,23.4559706 L207.179148,30.9058235 Z" id="path3111" fill="#7689A2" fill-rule="nonzero" mask="url(#mask-2)" transform="translate(210.761511, 27.267882) scale(-1, 1) rotate(-180.000000) translate(-210.761511, -27.267882) "></path>
                        <path d="M216.022011,25.8226809 C216.146995,25.727975 216.285188,25.6425338 216.436591,25.5684162 C216.589011,25.4953279 216.753624,25.4572397 216.931446,25.4572397 C217.171253,25.4572397 217.372446,25.5334162 217.534011,25.6867985 C217.696591,25.8412103 217.850027,26.1037103 217.997366,26.4742985 L218.21685,27.0775338 L214.860575,34.4481221 L217.432398,34.4481221 L219.267527,29.7457691 L220.928898,34.4481221 L223.327979,34.4481221 L220.318204,27.0456221 C220.149527,26.6317985 219.98593,26.2220926 219.82335,25.8134162 C219.661785,25.4078279 219.46364,25.0423868 219.227898,24.7181221 C218.993172,24.3948868 218.704591,24.1334162 218.365204,23.9316515 C218.026833,23.7309162 217.601075,23.6300338 217.08793,23.6300338 C216.690624,23.6300338 216.329898,23.6825338 216.005753,23.7895926 C215.681608,23.8945926 215.383882,24.0490044 215.111559,24.2497397 L216.022011,25.8226809 Z" id="path3115" fill="#7689A2" fill-rule="nonzero" mask="url(#mask-2)" transform="translate(219.094277, 29.039078) scale(-1, 1) rotate(-180.000000) translate(-219.094277, -29.039078) "></path>
                        <path d="M22.5627438,10.6857985 C22.5627438,10.7609456 22.5617277,10.8350632 22.5617277,10.9071221 C22.5779857,11.2962397 22.6094857,11.5803574 22.6094857,11.6812397 C22.6094857,11.9591809 23.0789373,14.8353574 23.1480341,15.5013868 C23.2171309,16.1684456 23.0504857,16.3238868 23.0504857,16.3238868 C23.485389,18.7810926 22.674518,21.4122691 22.674518,21.4122691 C22.9641148,21.664475 22.359518,22.9749162 22.359518,22.9749162 C21.9124212,24.0588868 21.3687922,25.5957985 21.3687922,25.5957985 L21.3657438,25.5957985 C21.2783567,25.9437397 21.1564212,26.4491809 21.0670019,27.0050632 C20.9877438,27.8563868 20.9785986,28.7200632 20.9785986,28.996975 C20.9785986,29.2141809 21.2519373,29.2028574 21.2519373,29.3984456 C21.2519373,29.6290338 20.981647,30.1838868 20.965389,30.2425632 C20.9552277,30.2857985 20.9603083,30.3805044 20.9877438,30.4412397 C21.0161954,30.5060926 21.0710664,30.5534456 21.0710664,30.5534456 C21.0710664,30.8159456 20.8698728,31.0805044 20.5660502,31.0805044 L18.1883083,31.0805044 C17.8824535,31.0805044 17.6832922,30.8159456 17.6832922,30.5534456 C17.6832922,30.5534456 17.7401954,30.5060926 17.768647,30.4412397 C17.7950664,30.3805044 17.7991309,30.2857985 17.7889696,30.2425632 C17.7727115,30.1838868 17.5034373,29.6259456 17.5034373,29.3984456 C17.5034373,29.2028574 17.7757599,29.2141809 17.7757599,28.996975 C17.7757599,28.7200632 17.768647,27.859475 17.689389,27.0132985 C17.5959051,26.4553574 17.477018,25.9457985 17.3896309,25.5957985 L17.3845502,25.5957985 C17.3845502,25.5957985 16.8439696,24.0588868 16.3948406,22.9749162 C16.3948406,22.9749162 15.7871954,21.664475 16.0808567,21.4122691 C16.0808567,21.4122691 15.2699857,18.7810926 15.704889,16.3238868 C15.704889,16.3238868 15.5341793,16.1684456 15.6042922,15.5013868 C15.6723728,14.8353574 16.1397922,11.9591809 16.1397922,11.6812397 C16.1397922,11.5782985 16.1763728,11.2880044 16.1905986,10.8937397 L16.1905986,10.6857985 C16.1905986,8.93991618 15.4813406,8.08859265 15.4813406,6.95829853 C15.4813406,5.45741618 16.4212599,4.67403382 19.3792115,4.67403382 C22.3351309,4.67403382 23.2740341,5.45741618 23.2740341,6.95829853 C23.2740341,8.08859265 22.5627438,8.93991618 22.5627438,10.6857985" id="path3119" fill="#7689A2" fill-rule="nonzero" mask="url(#mask-2)" transform="translate(19.377687, 17.877269) scale(-1, 1) rotate(-180.000000) translate(-19.377687, -17.877269) "></path>
                        <path d="M8.06369415,10.6863235 C8.06369415,10.7625 8.06166189,10.8376471 8.06166189,10.9117647 C8.07995221,11.2977941 8.11246834,11.5819118 8.11246834,11.6838235 C8.11246834,11.9607353 8.57988769,14.84 8.64898447,15.505 C8.71808124,16.1689706 8.55143608,16.3244118 8.55143608,16.3244118 C8.98633931,18.7826471 8.17546834,21.4148529 8.17546834,21.4148529 C8.46608124,21.665 7.86148447,22.9785294 7.86148447,22.9785294 C7.41337156,24.0594118 6.86974253,25.5994118 6.86974253,25.5994118 L6.86669415,25.5994118 C6.77930705,25.9473529 6.65838769,26.4538235 6.56693608,27.0066176 C6.48767802,27.8589706 6.47954898,28.7216176 6.47954898,29.0016176 C6.47954898,29.2177941 6.75288769,29.2064706 6.75288769,29.4020588 C6.75288769,29.6305882 6.48259737,30.1885294 6.46735544,30.2451471 C6.45719415,30.2883824 6.46125866,30.3810294 6.48767802,30.4417647 C6.51612963,30.5066176 6.57303285,30.5539706 6.57303285,30.5539706 C6.57303285,30.8205882 6.37082318,31.0841176 6.0670006,31.0841176 L3.68925866,31.0841176 C3.38238769,31.0841176 3.18424253,30.8205882 3.18424253,30.5539706 C3.18424253,30.5539706 3.24114576,30.5066176 3.2706135,30.4417647 C3.2950006,30.3810294 3.30109737,30.2883824 3.28991995,30.2451471 C3.27467802,30.1885294 3.00337156,29.6305882 3.00337156,29.4020588 C3.00337156,29.2064706 3.2777264,29.2177941 3.2777264,29.0016176 C3.2777264,28.7216176 3.2706135,27.8620588 3.18932318,27.0148529 C3.09685544,26.4558824 2.97796834,25.9473529 2.89058124,25.5994118 L2.8855006,25.5994118 C2.8855006,25.5994118 2.34491995,24.0594118 1.89579092,22.9785294 C1.89579092,22.9785294 1.28814576,21.665 1.58180705,21.4148529 C1.58180705,21.4148529 0.769919952,18.7826471 1.20482318,16.3244118 C1.20482318,16.3244118 1.03512963,16.1689706 1.10524253,15.505 C1.17129092,14.84 1.64074253,11.9607353 1.64074253,11.6838235 C1.64074253,11.5819118 1.67630705,11.2916176 1.69256511,10.8983824 L1.69256511,10.6863235 C1.69256511,8.94044118 0.982290919,8.09220588 0.982290919,6.96191176 C0.982290919,5.45794118 1.92221027,4.67455882 4.88016189,4.67455882 C7.83608124,4.67455882 8.7760006,5.45794118 8.7760006,6.96191176 C8.7760006,8.09220588 8.06369415,8.94044118 8.06369415,10.6863235" id="path3123" fill="#7689A2" fill-rule="nonzero" mask="url(#mask-2)" transform="translate(4.879146, 17.879338) scale(-1, 1) rotate(-180.000000) translate(-4.879146, -17.879338) "></path>
                        <path d="M16.2455671,8.37632353 C16.2455671,8.47720588 16.2455671,8.56985294 16.2435349,8.66455882 C16.2638575,9.16382353 16.3095833,9.53235294 16.3095833,9.66617647 C16.3095833,10.0213235 16.9131639,13.7405882 17.0025833,14.5991176 C17.0940349,15.4576471 16.8755671,15.6625 16.8755671,15.6625 C17.4385026,18.8361765 16.3878252,22.2363235 16.3878252,22.2363235 C16.7668413,22.5636765 15.9823897,24.2580882 15.9823897,24.2580882 C15.4031962,25.6570588 14.7051155,27.6458824 14.7051155,27.6458824 L14.6969865,27.6458824 C14.58318,28.0926471 14.4287284,28.7483824 14.3098413,29.4648529 C14.2082284,30.5642647 14.197051,31.6811765 14.197051,32.0425 C14.197051,32.3214706 14.55168,32.3080882 14.55168,32.5613235 C14.55168,32.8567647 14.2000994,33.5742647 14.1828252,33.6504412 C14.1685994,33.705 14.1746962,33.8254412 14.2082284,33.9036765 C14.2458252,33.9891176 14.3189865,34.0498529 14.3189865,34.0498529 C14.3189865,34.3916176 14.0578413,34.7323529 13.6645994,34.7323529 L10.5908091,34.7323529 C10.1975671,34.7323529 9.93743811,34.3916176 9.93743811,34.0498529 C9.93743811,34.0498529 10.0095833,33.9891176 10.0481962,33.9036765 C10.0827446,33.8254412 10.0898575,33.705 10.0776639,33.6504412 C10.0563252,33.5742647 9.70372844,32.8536765 9.70372844,32.5613235 C9.70372844,32.3080882 10.0583575,32.3214706 10.0583575,32.0425 C10.0583575,31.6811765 10.0481962,30.5694118 9.94861553,29.4730882 C9.82972844,28.7555882 9.67527682,28.0957353 9.55943811,27.6458824 L9.55435747,27.6458824 C9.55435747,27.6458824 8.85221231,25.6570588 8.27301876,24.2580882 C8.27301876,24.2580882 7.48958327,22.5636765 7.86555102,22.2363235 C7.86555102,22.2363235 6.81792198,18.8361765 7.37984134,15.6625 C7.37984134,15.6625 7.16238973,15.4576471 7.25384134,14.5991176 C7.34427682,13.7405882 7.94582521,10.0213235 7.94582521,9.66617647 C7.94582521,9.52926471 7.99155102,9.15661765 8.01288973,8.64808824 L8.01288973,8.37632353 C8.01288973,6.11882353 7.09329295,5.0225 7.09329295,3.56073529 C7.09329295,1.61823529 8.30858327,0.608382353 12.1302446,0.608382353 C15.9498736,0.608382353 17.1641478,1.61823529 17.1641478,3.56073529 C17.1641478,5.0225 16.2455671,6.11882353 16.2455671,8.37632353" id="path3127" fill="#7689A2" fill-rule="nonzero" mask="url(#mask-2)" transform="translate(12.128720, 17.670368) scale(-1, 1) rotate(-180.000000) translate(-12.128720, -17.670368) "></path>
                    </g>
                </g>
            </g>
        </g>
    </g>
</svg>