<?xml version="1.0" encoding="UTF-8"?>
<svg width="173px" height="44px" viewBox="0 0 173 44" version="1.1" xmlns="http://www.w3.org/2000/svg" xmlns:xlink="http://www.w3.org/1999/xlink">
    <!-- Generator: sketchtool 50.2 (55047) - http://www.bohemiancoding.com/sketch -->
    <title>7AB9DD7B-C335-4A40-8BEA-60FABEB13E5E</title>
    <desc>Created with sketchtool.</desc>
    <defs></defs>
    <g id="Mockups" stroke="none" stroke-width="1" fill="none" fill-rule="evenodd">
        <g id="medium-enterprises" transform="translate(-571.000000, -2361.000000)" fill="#7689A2" fill-rule="nonzero">
            <g id="div-features" transform="translate(-130.000000, 1458.000000)">
                <g id="div-brands-trust" transform="translate(294.000000, 793.000000)">
                    <g id="logos" transform="translate(0.000000, 100.000000)">
                        <g id="interswitch-logo" transform="translate(406.327499, 10.000000)">
                            <g id="Group">
                                <path d="M57.2952381,22.947619 L57.9666667,19.8142857 C57.9666667,19.8142857 53.4904762,18.4714286 49.6857143,20.9333333 L49.6857143,33.4666667 L53.7142857,33.4666667 L53.7142857,23.3952381 C55.2809524,22.2761905 57.2952381,22.947619 57.2952381,22.947619" id="Shape"></path>
                                <path d="M23.7238095,16.2333333 L27.5285714,15.5619048 L27.5285714,19.5904762 L31.3333333,19.5904762 L31.3333333,22.947619 L27.5285714,22.947619 L27.5285714,27.8714286 C27.5285714,28.7666667 27.752381,29.4380952 27.9761905,29.8857143 C28.2,30.3333333 28.8714286,30.5571429 29.7666667,30.5571429 C30.2142857,30.5571429 30.6619048,30.5571429 31.1095238,30.3333333 C31.5571429,30.3333333 32.0047619,30.1095238 32.2285714,30.1095238 L32.6761905,33.2428571 C32.2285714,33.4666667 31.7809524,33.6904762 31.1095238,33.6904762 C30.4380952,33.9142857 29.7666667,33.9142857 29.0952381,33.9142857 C27.9761905,33.9142857 27.0809524,33.6904762 26.4095238,33.4666667 C25.7380952,33.2428571 25.0666667,32.7952381 24.6190476,32.347619 C24.1714286,31.9 23.947619,31.2285714 23.7238095,30.5571429 C23.5,29.8857143 23.5,28.9904762 23.5,28.0952381 L23.7238095,16.2333333 Z" id="Shape"></path>
                                <path d="M63.7857143,30.7809524 C64.4571429,30.7809524 64.9047619,30.7809524 65.352381,30.5571429 C65.5761905,30.3333333 65.8,30.1095238 65.8,29.6619048 C65.8,29.4380952 65.5761905,28.9904762 65.1285714,28.7666667 C64.6809524,28.5428571 64.2333333,28.3190476 63.3380952,27.8714286 C62.6666667,27.647619 62.2190476,27.4238095 61.7714286,27.2 C61.3238095,26.9761905 60.8761905,26.752381 60.4285714,26.3047619 C59.9809524,25.8571429 59.7571429,25.6333333 59.5333333,25.1857143 C59.3095238,24.7380952 59.3095238,24.0666667 59.3095238,23.3952381 C59.3095238,22.052381 59.7571429,21.1571429 60.652381,20.2619048 C61.547619,19.5904762 62.8904762,19.1428571 64.6809524,19.1428571 C65.5761905,19.1428571 66.247619,19.1428571 67.1428571,19.3666667 C68.0380952,19.5904762 68.4857143,19.5904762 68.9333333,19.8142857 L68.2619048,22.947619 C67.8142857,22.7238095 67.3666667,22.7238095 66.6952381,22.5 C66.247619,22.2761905 65.5761905,22.2761905 64.9047619,22.2761905 C63.7857143,22.2761905 63.1142857,22.7238095 63.1142857,23.3952381 C63.1142857,23.6190476 63.1142857,23.6190476 63.1142857,23.8428571 C63.1142857,24.0666667 63.3380952,24.0666667 63.3380952,24.2904762 C63.5619048,24.5142857 63.7857143,24.5142857 64.0095238,24.7380952 C64.2333333,24.9619048 64.6809524,24.9619048 65.1285714,25.1857143 C66.0238095,25.4095238 66.6952381,25.8571429 67.1428571,26.0809524 C67.5904762,26.3047619 68.0380952,26.752381 68.4857143,26.9761905 C68.7095238,27.4238095 68.9333333,27.647619 69.1571429,28.0952381 C69.3809524,28.5428571 69.3809524,28.9904762 69.3809524,29.6619048 C69.3809524,31.0047619 68.9333333,32.1238095 67.8142857,32.7952381 C66.6952381,33.4666667 65.352381,33.9142857 63.5619048,33.9142857 C62.4428571,33.9142857 61.3238095,33.9142857 60.4285714,33.6904762 C59.5333333,33.4666667 59.0857143,33.2428571 58.6380952,33.2428571 L59.3095238,30.1095238 C59.9809524,30.3333333 60.652381,30.5571429 61.3238095,30.7809524 C62.4428571,30.5571429 63.1142857,30.7809524 63.7857143,30.7809524" id="Shape"></path>
                                <path d="M81.6904762,25.6333333 C81.2428571,26.9761905 81.0190476,28.3190476 80.5714286,29.6619048 C80.1238095,31.0047619 79.6761905,32.347619 79.2285714,33.6904762 L76.0952381,33.6904762 C75.8714286,33.0190476 75.4238095,32.1238095 74.9761905,31.0047619 C74.5285714,29.8857143 74.3047619,28.9904762 73.8571429,27.647619 C73.4095238,26.3047619 72.9619048,25.1857143 72.7380952,23.8428571 C72.2904762,22.5 71.8428571,21.1571429 71.6190476,19.8142857 L75.647619,19.8142857 C75.8714286,20.4857143 75.8714286,21.1571429 76.0952381,21.8285714 C76.3190476,22.5 76.5428571,23.3952381 76.5428571,24.0666667 C76.7666667,24.9619048 76.9904762,25.6333333 77.2142857,26.5285714 C77.4380952,27.4238095 77.6619048,28.0952381 77.8857143,28.7666667 C78.1095238,28.0952381 78.3333333,27.2 78.5571429,26.3047619 C78.7809524,25.4095238 79.0047619,24.7380952 79.2285714,23.8428571 C79.452381,23.1714286 79.6761905,22.2761905 79.9,21.6047619 C80.1238095,20.9333333 80.347619,20.2619048 80.347619,19.5904762 L83.2571429,19.5904762 C83.4809524,20.2619048 83.4809524,20.9333333 83.7047619,21.6047619 C83.9285714,22.2761905 84.152381,23.1714286 84.152381,23.8428571 C84.3761905,24.5142857 84.6,25.4095238 84.8238095,26.3047619 C85.047619,27.2 85.2714286,27.8714286 85.4952381,28.7666667 C85.7190476,28.0952381 85.9428571,27.2 86.1666667,26.5285714 C86.3904762,25.6333333 86.6142857,24.9619048 86.8380952,24.0666667 C87.0619048,23.1714286 87.2857143,22.5 87.2857143,21.8285714 C87.5095238,21.1571429 87.5095238,20.4857143 87.7333333,19.8142857 L91.7619048,19.8142857 C91.3142857,21.1571429 90.8666667,22.5 90.6428571,23.8428571 C90.4190476,25.1857143 89.747619,26.5285714 89.5238095,27.647619 C89.3,28.7666667 88.852381,29.8857143 88.4047619,31.0047619 C87.9571429,32.1238095 87.7333333,32.7952381 87.2857143,33.6904762 L84.152381,33.6904762 C83.7047619,32.347619 83.2571429,31.0047619 82.8095238,29.6619048 C82.3619048,28.3190476 81.9142857,26.9761905 81.6904762,25.6333333" id="Shape"></path>
                                <rect id="Rectangle-path" x="94.447619" y="19.8142857" width="3.8047619" height="13.8761905"></rect>
                                <path d="M101.609524,16.2333333 L105.414286,15.5619048 L105.414286,19.5904762 L109.219048,19.5904762 L109.219048,22.947619 L105.414286,22.947619 L105.414286,27.8714286 C105.414286,28.7666667 105.638095,29.4380952 105.861905,29.8857143 C106.085714,30.3333333 106.757143,30.5571429 107.652381,30.5571429 C108.1,30.5571429 108.547619,30.5571429 108.995238,30.3333333 C109.442857,30.1095238 109.890476,30.1095238 110.114286,30.1095238 L110.561905,33.2428571 C110.114286,33.4666667 109.666667,33.6904762 108.995238,33.6904762 C108.32381,33.9142857 107.652381,33.9142857 106.980952,33.9142857 C105.861905,33.9142857 104.966667,33.6904762 104.295238,33.4666667 C103.62381,33.2428571 102.952381,32.7952381 102.504762,32.347619 C102.057143,31.9 101.833333,31.2285714 101.609524,30.5571429 C101.385714,29.8857143 101.385714,28.9904762 101.385714,28.0952381 L101.609524,16.2333333 Z" id="Shape"></path>
                                <path d="M112.128571,26.752381 C112.128571,25.8571429 112.352381,24.7380952 112.57619,23.8428571 C112.8,22.947619 113.471429,22.2761905 113.919048,21.6047619 C114.590476,20.9333333 115.261905,20.4857143 116.157143,20.0380952 C117.052381,19.5904762 117.947619,19.3666667 119.066667,19.3666667 C119.738095,19.3666667 120.409524,19.3666667 121.080952,19.5904762 C121.752381,19.8142857 122.2,19.8142857 122.871429,20.2619048 L121.97619,23.3952381 C121.528571,23.1714286 121.304762,23.1714286 120.857143,22.947619 C120.409524,22.947619 119.961905,22.7238095 119.290476,22.7238095 C118.171429,22.7238095 117.27619,23.1714286 116.604762,23.8428571 C115.933333,24.5142857 115.709524,25.4095238 115.709524,26.752381 C115.709524,28.0952381 115.933333,28.9904762 116.604762,29.6619048 C117.052381,30.3333333 118.171429,30.7809524 119.290476,30.7809524 C119.738095,30.7809524 120.185714,30.7809524 120.857143,30.5571429 C121.304762,30.5571429 121.97619,30.3333333 122.42381,30.1095238 L122.871429,33.2428571 C122.42381,33.4666667 121.752381,33.6904762 121.080952,33.6904762 C120.409524,33.9142857 119.738095,33.9142857 118.842857,33.9142857 C117.5,33.9142857 116.604762,33.6904762 115.485714,33.2428571 C114.590476,32.7952381 113.919048,32.347619 113.247619,31.6761905 C112.57619,31.0047619 112.128571,30.3333333 111.904762,29.4380952 C112.128571,28.5428571 112.128571,27.647619 112.128571,26.752381" id="Shape"></path>
                                <path d="M125.780952,33.4666667 L125.780952,16.2333333 L129.585714,15.5619048 L129.585714,19.8142857 C129.809524,19.8142857 130.257143,19.5904762 130.704762,19.5904762 C131.152381,19.5904762 131.6,19.3666667 131.82381,19.3666667 C132.942857,19.3666667 133.838095,19.5904762 134.509524,19.8142857 C135.180952,20.0380952 135.852381,20.4857143 136.3,21.1571429 C136.747619,21.6047619 136.971429,22.2761905 137.195238,23.1714286 C137.419048,24.0666667 137.419048,24.7380952 137.419048,25.6333333 L137.419048,33.4666667 L133.614286,33.4666667 L133.614286,26.0809524 C133.614286,24.7380952 133.390476,23.8428571 133.166667,23.3952381 C132.942857,22.947619 132.271429,22.5 131.37619,22.5 C130.928571,22.5 130.704762,22.5 130.480952,22.5 C130.257143,22.5 129.809524,22.7238095 129.585714,22.7238095 L129.585714,33.2428571 C129.585714,33.4666667 125.780952,33.4666667 125.780952,33.4666667 Z" id="Shape"></path>
                                <path d="M7.83333333,33.4666667 L7.83333333,20.9333333 C7.83333333,20.9333333 9.84761905,19.3666667 14.1,19.3666667 C17.9047619,19.3666667 20.1428571,21.3809524 20.1428571,25.6333333 L20.1428571,33.4666667 L16.3380952,33.4666667 L16.3380952,25.6333333 C16.3380952,22.947619 14.9952381,22.7238095 13.8761905,22.7238095 C12.7571429,22.7238095 11.8619048,23.3952381 11.8619048,23.3952381 L11.8619048,33.4666667 L7.83333333,33.4666667 Z" id="Shape"></path>
                                <polygon id="Shape" points="0.671428571 33.4666667 0.671428571 16.2333333 4.47619048 15.5619048 4.47619048 33.4666667"></polygon>
                                <path d="M46.7761905,27.647619 L38.047619,27.647619 C38.047619,27.647619 38.2714286,30.5571429 42.0761905,30.5571429 C44.0904762,30.5571429 45.8809524,29.8857143 45.8809524,29.8857143 L46.3285714,33.0190476 C46.3285714,33.0190476 44.3142857,33.9142857 41.6285714,33.9142857 C37.8238095,33.9142857 34.2428571,31.9 34.2428571,26.5285714 C34.2428571,22.2761905 36.9285714,19.5904762 40.9571429,19.5904762 C46.7761905,19.3666667 47,25.1857143 46.7761905,27.647619 M40.7333333,22.2761905 C38.2714286,22.2761905 38.047619,24.9619048 38.047619,24.9619048 L43.4190476,24.9619048 C43.4190476,24.9619048 43.1952381,22.2761905 40.7333333,22.2761905" id="Shape"></path>
                                <path d="M145.47619,43.7619048 C143.909524,43.3142857 158.233333,26.752381 155.771429,19.8142857 C154.652381,16.2333333 142.566667,16.6809524 142.566667,15.3380952 C142.566667,13.9952381 165.619048,10.8619048 167.857143,13.9952381 C171.438095,18.4714286 147.490476,44.6571429 145.47619,43.7619048" id="Shape"></path>
                                <path d="M173.452381,5.26666667 C173.452381,8.17619048 171.214286,10.4142857 168.304762,10.4142857 C165.395238,10.4142857 163.157143,8.17619048 163.157143,5.26666667 C163.157143,2.35714286 165.395238,0.119047619 168.304762,0.119047619 C171.214286,0.119047619 173.452381,2.35714286 173.452381,5.26666667" id="Shape"></path>
                            </g>
                        </g>
                    </g>
                </g>
            </g>
        </g>
    </g>
</svg>