<?xml version="1.0" encoding="UTF-8"?>
<svg width="119px" height="40px" viewBox="0 0 119 40" version="1.1" xmlns="http://www.w3.org/2000/svg" xmlns:xlink="http://www.w3.org/1999/xlink">
    <!-- Generator: sketchtool 50.2 (55047) - http://www.bohemiancoding.com/sketch -->
    <title>0F3BB3DB-E0F2-47E8-BBC4-F444A5F38D37</title>
    <desc>Created with sketchtool.</desc>
    <defs></defs>
    <g id="Mockups" stroke="none" stroke-width="1" fill="none" fill-rule="evenodd">
        <g id="homepage" transform="translate(-1010.000000, -5179.000000)" fill="#7689A2">
            <g id="div-brands-trust" transform="translate(150.000000, 5068.000000)">
                <g id="Group-2" transform="translate(0.000000, 96.000000)">
                    <g id="lafarge-logo-grey" transform="translate(860.000000, 15.000000)">
                        <path d="M37.5320635,14.888254 L33.3047619,24.9542857 L33.3047619,22.1219048 L27.5009524,22.1219048 L27.5009524,14.888254 L22.7879365,14.888254 L22.7879365,25.1473016 L37.9365079,25.1473016 L38.7631746,22.9492063 L42.4565079,22.9492063 L43.3003175,25.1473016 L48.2603175,25.1473016 L43.8812698,14.888254 L37.5320635,14.888254 Z M39.3034921,20.5447619 L40.5657143,17.3384127 L40.6349206,17.3384127 L41.9142857,20.5447619 L39.3034921,20.5447619 Z" id="Fill-2"></path>
                        <polyline id="Fill-3" points="55.0342857 17.3612698 60.8552381 17.3612698 60.8552381 14.888254 50.3212698 14.888254 50.3212698 25.1473016 55.0342857 25.1473016 55.0342857 21.4838095 60.6793651 21.4838095 60.6793651 19.0101587 55.0342857 19.0101587 55.0342857 17.3612698"></polyline>
                        <path d="M65.0355556,14.888254 L60.7269841,25.1473016 L65.44,25.1473016 L66.2666667,22.9492063 L69.96,22.9492063 L70.8044444,25.1473016 L75.7631746,25.1473016 L71.3847619,14.888254 L65.0355556,14.888254 Z M66.8069841,20.5447619 L68.0685714,17.3384127 L68.1384127,17.3384127 L69.4177778,20.5447619 L66.8069841,20.5447619 Z" id="Fill-4"></path>
                        <path d="M88.5225397,20.7663492 C88.1466667,20.5314286 87.6895238,20.3669841 87.1511111,20.2730159 C87.9942857,20.1555556 88.6749206,19.8806349 89.1911111,19.4463492 C89.7536508,18.9657143 90.0342857,18.3612698 90.0342857,17.6336508 C90.0342857,16.495873 89.4247619,15.7155556 88.2057143,15.2926984 C87.4552381,15.0228571 86.4114286,14.888254 85.0755556,14.888254 L77.7073016,14.888254 L77.7073016,25.1473016 L82.4196825,25.1473016 L82.4196825,21.5752381 L83.4749206,21.5752381 C83.8266667,21.5752381 84.1257143,21.6336508 84.3720635,21.7511111 C84.7238095,21.9142857 84.9346032,22.1961905 85.0044444,22.5955556 L85.4615873,25.1473016 L90.3866667,25.1473016 L89.5771429,22.1733333 C89.4133333,21.5752381 89.0615873,21.1060317 88.5225397,20.7663492 Z M84.1555556,19.3415873 C83.9911111,19.3650794 83.728254,19.3765079 83.3657143,19.3765079 L82.2088889,19.3765079 L82.2088889,17.1784127 L83.4361905,17.1784127 C84.0673016,17.1784127 84.5314286,17.2692063 84.8304762,17.4507937 C85.127619,17.632381 85.2774603,17.8996825 85.2774603,18.2507937 C85.2774603,18.8374603 84.9034921,19.2006349 84.1555556,19.3415873 Z" id="Fill-5"></path>
                        <path d="M99.8584127,21.295873 L100.747302,21.295873 L100.747302,22.7003175 C100.594921,22.7244444 100.462222,22.7447619 100.351746,22.7619048 C100.24,22.7803175 100.090159,22.7892063 99.9028571,22.7892063 C99.1409524,22.7892063 98.5130159,22.6012698 98.0209524,22.2266667 C97.4463492,21.7815873 97.1593651,21.1428571 97.1593651,20.3104762 C97.1593651,19.3377778 97.5111111,18.5879365 98.2146032,18.0609524 C98.9180952,17.5333333 99.8679365,17.2698413 101.063492,17.2698413 C101.766984,17.2698413 102.459048,17.351746 103.139048,17.5149206 C103.584762,17.6203175 103.977143,17.7371429 104.31746,17.8647619 L104.31746,15.1136508 C103.496508,14.9619048 102.754286,14.8596825 102.092698,14.8069841 C101.429841,14.7542857 100.764444,14.728254 100.095873,14.728254 C97.8336508,14.728254 96.0336508,15.1206349 94.6971429,15.9053968 C93.712381,16.4793651 93.0209524,17.2526984 92.6222222,18.2253968 C92.3873016,18.7873016 92.2704762,19.367619 92.2704762,19.9650794 C92.2704762,21.3701587 92.7390476,22.5371429 93.6774603,23.4615873 C94.9428571,24.6920635 96.9536508,25.3079365 99.7098413,25.3079365 C100.729524,25.3079365 101.664127,25.2609524 102.514286,25.1663492 C103.364444,25.0730159 104.128889,24.944127 104.809524,24.7796825 L104.809524,19.3809524 L99.8584127,19.3809524 L99.8584127,21.295873" id="Fill-6"></path>
                        <polyline id="Fill-7" points="112.629841 22.7428571 112.629841 21.1403175 118.398095 21.1403175 118.398095 18.8038095 112.629841 18.8038095 112.629841 17.3155556 118.661587 17.3155556 118.661587 14.888254 107.916825 14.888254 107.916825 25.1473016 118.785397 25.1473016 118.785397 22.7428571 112.629841 22.7428571"></polyline>
                        <polyline id="Fill-8" points="21.7174603 27.3155556 21.7174603 13.7206349 27.7015873 13.7206349 33.7409524 0 17.3879365 0 0 39.5022222 25.9066667 39.5022222 28.6571429 33.255873 19.1028571 33.255873 21.7174603 27.3155556"></polyline>
                    </g>
                </g>
            </g>
        </g>
    </g>
</svg>