<?xml version="1.0" encoding="UTF-8"?>
<svg width="107px" height="37px" viewBox="0 0 107 37" version="1.1" xmlns="http://www.w3.org/2000/svg" xmlns:xlink="http://www.w3.org/1999/xlink">
    <!-- Generator: sketchtool 50.2 (55047) - http://www.bohemiancoding.com/sketch -->
    <title>3CC26218-924F-4CC6-927A-9804B2E4CF20</title>
    <desc>Created with sketchtool.</desc>
    <defs></defs>
    <g id="Mockups" stroke="none" stroke-width="1" fill="none" fill-rule="evenodd">
        <g id="homepage" transform="translate(-644.000000, -5181.000000)" fill="#7689A2" fill-rule="nonzero">
            <g id="div-brands-trust" transform="translate(150.000000, 5068.000000)">
                <g id="Group-2" transform="translate(0.000000, 96.000000)">
                    <g id="uber-logo-grey" transform="translate(494.000000, 17.000000)">
                        <path d="M6.12775155,26.4066242 C6.57784161,27.6010807 7.20098137,28.6223727 7.99728571,29.4705 C8.79359006,30.3187422 9.73697516,30.9678509 10.827441,31.417941 C11.9180217,31.8680311 13.1037453,32.0930186 14.3847267,32.0930186 C15.6311211,32.0930186 16.7994938,31.8592981 17.8900745,31.3918571 C18.9806553,30.9244161 19.9326584,30.2666894 20.7461988,29.4185621 C21.5597391,28.5703199 22.1916118,27.5577609 22.6417019,26.3806553 C23.0917919,25.2035497 23.3167795,23.8880963 23.3167795,22.4339503 L23.3167795,0 L28.7694534,0 L28.7694534,36.351236 L23.3687174,36.351236 L23.3687174,32.9757329 C22.1570248,34.2565994 20.7288478,35.2433043 19.0844161,35.9358478 C17.4398696,36.6281615 15.6657081,36.9743758 13.761587,36.9743758 C11.822764,36.9743758 10.0139006,36.6367795 8.33476708,35.9617019 C6.65574845,35.2866242 5.20160248,34.3260031 3.97267391,33.0796087 C2.74374534,31.8332143 1.7742764,30.3360932 1.0646118,28.5876708 C0.354832298,26.8393634 0,24.8920373 0,22.7454627 L0,0 L5.45267391,0 L5.45267391,22.4339503 C5.45267391,23.8880963 5.67766149,25.2121677 6.12775155,26.4066242 Z" id="Shape"></path>
                        <path d="M38.1683727,0 L38.1683727,13.2422081 C39.3800652,12.0305155 40.7822733,11.0698944 42.3747671,10.3601149 C43.9672609,9.6503354 45.6983323,9.29550311 47.5677516,9.29550311 C49.5065745,9.29550311 51.323941,9.65895342 53.0204255,10.3859689 C54.716795,11.1129845 56.1880621,12.0996894 57.4344565,13.3460839 C58.6808509,14.5924783 59.6675559,16.0637453 60.3945714,17.7601149 C61.121587,19.4565994 61.4850373,21.2568447 61.4850373,23.1609658 C61.4850373,25.064972 61.121587,26.8565994 60.3945714,28.535618 C59.6675559,30.2147516 58.6808509,31.6775155 57.4344565,32.9236801 C56.1880621,34.1700745 54.716795,35.1567795 53.0204255,35.883795 C51.323941,36.6108106 49.5064596,36.9742609 47.5677516,36.9742609 C45.6982174,36.9742609 43.9586429,36.6194286 42.3487981,35.9096491 C40.7389534,35.1999845 39.3281273,34.2392484 38.1164348,33.0275559 L38.1164348,36.3511211 L32.9234503,36.3511211 L32.9234503,0 L38.1683727,0 Z M38.7655435,26.7441056 C39.2328696,27.8520373 39.8820932,28.8213913 40.7129845,29.6522826 C41.5438758,30.4831739 42.5132298,31.1410155 43.6210466,31.6256925 C44.7289783,32.1103696 45.9233199,32.3527081 47.2043012,32.3527081 C48.4506957,32.3527081 49.6276863,32.1103696 50.7355031,31.6256925 C51.8433199,31.1410155 52.803941,30.4832888 53.6177112,29.6522826 C54.4312516,28.8215062 55.0803602,27.8520373 55.5650373,26.7441056 C56.0497143,25.6362888 56.2920528,24.4419472 56.2920528,23.1609658 C56.2920528,21.8799845 56.0497143,20.6769099 55.5650373,19.5517422 C55.0803602,18.4265745 54.4312516,17.4486025 53.6177112,16.6177112 C52.8040559,15.7869348 51.8434348,15.1377112 50.7355031,14.6703851 C49.6275714,14.203059 48.4505807,13.9692236 47.2043012,13.9692236 C45.9580217,13.9692236 44.7809161,14.2029441 43.6730994,14.6703851 C42.5652826,15.1378261 41.5959286,15.7869348 40.7649224,16.6177112 C39.934146,17.4486025 39.2763043,18.4265745 38.7916273,19.5517422 C38.3069503,20.6769099 38.0646118,21.8799845 38.0646118,23.1609658 C38.0644969,24.4419472 38.2982174,25.6362888 38.7655435,26.7441056 Z" id="Shape"></path>
                        <path d="M64.4445776,17.8121677 C65.1368913,16.1503851 66.0891242,14.687736 67.3007019,13.4241056 C68.5122795,12.1604752 69.9491894,11.1651522 71.610972,10.4381366 C73.2727547,9.71112112 75.073,9.34767081 77.0117081,9.34767081 C78.9158292,9.34767081 80.6814876,9.69388509 82.3086832,10.3861988 C83.935764,11.0786273 85.3378571,12.0393634 86.5149627,13.2684068 C87.6920683,14.4973354 88.6095994,15.9514814 89.2672112,17.6305 C89.9250528,19.3096335 90.2539161,21.1358478 90.2539161,23.1092578 L90.2539161,24.8229783 L68.7029099,24.8229783 C68.8760745,25.8962081 69.2222888,26.8915311 69.7415528,27.8088323 C70.2609317,28.7262484 70.9099255,29.5225528 71.6888789,30.1976304 C72.4678323,30.872823 73.3506615,31.4008199 74.3373665,31.7815062 C75.3240714,32.1623075 76.3712174,32.352823 77.4791491,32.352823 C80.6296646,32.352823 83.1742764,31.0544907 85.1129845,28.457941 L88.9038758,31.2621273 C87.5883075,33.0277857 85.9612267,34.4126429 84.0225186,35.4165839 C82.0836957,36.4205248 79.9026491,36.9225528 77.479264,36.9225528 C75.505854,36.9225528 73.6624037,36.5762236 71.9486832,35.8839099 C70.2349627,35.1915963 68.7463447,34.2221273 67.4827143,32.9757329 C66.2190839,31.7293385 65.2237609,30.2666894 64.4967453,28.5876708 C63.7697298,26.9086522 63.4061646,25.082323 63.4061646,23.109028 C63.4059348,21.2396087 63.752264,19.4739503 64.4445776,17.8121677 Z M71.7408168,15.7608509 C70.2694348,16.9898944 69.2914627,18.6257081 68.8067857,20.6682919 L84.9571708,20.6682919 C84.5070807,18.6257081 83.5463447,16.9898944 82.0749627,15.7608509 C80.6035807,14.5319224 78.8812422,13.9174006 76.9079472,13.9174006 C74.9345373,13.9174006 73.2121988,14.5319224 71.7408168,15.7608509 Z" id="Shape"></path>
                        <path d="M100.068453,16.3580217 C98.9606366,17.5697143 98.4066708,19.214146 98.4066708,21.2914317 L98.4066708,36.3513509 L93.1616335,36.3513509 L93.1616335,9.86681988 L98.354618,9.86681988 L98.354618,13.1384472 C99.0124596,12.0652174 99.8693199,11.2169752 100.925199,10.5938354 C101.981078,9.97058075 103.23609,9.65895342 104.690236,9.65895342 L106.507717,9.65895342 L106.507717,14.5404255 L104.326671,14.5404255 C102.595714,14.5405404 101.17627,15.1463292 100.068453,16.3580217 Z" id="Shape"></path>
                    </g>
                </g>
            </g>
        </g>
    </g>
</svg>