<?xml version="1.0" encoding="UTF-8"?>
<svg width="138px" height="30px" viewBox="0 0 138 30" version="1.1" xmlns="http://www.w3.org/2000/svg" xmlns:xlink="http://www.w3.org/1999/xlink">
    <!-- Generator: sketchtool 50.2 (55047) - http://www.bohemiancoding.com/sketch -->
    <title>0A13A742-EE33-49D9-AA80-3145F7BCDBE3</title>
    <desc>Created with sketchtool.</desc>
    <defs></defs>
    <g id="Mockups" stroke="none" stroke-width="1" fill="none" fill-rule="evenodd">
        <g id="homepage" transform="translate(-150.000000, -5184.000000)" fill="#7689A2" fill-rule="nonzero">
            <g id="div-brands-trust" transform="translate(150.000000, 5068.000000)">
                <g id="Group-2" transform="translate(0.000000, 96.000000)">
                    <path d="M17.7718779,31.2580687 C17.5460805,30.5267435 16.8866495,28.8828913 16.707038,27.6692304 C16.3106096,24.9811866 17.6936185,23.2108843 18.9637288,22.8054615 C20.3890747,22.4013424 20.9458705,23.1287568 21.4975346,24.819539 C22.210849,27.3941687 22.2903913,30.7679114 22.0504815,35.5977864 C21.7387272,42.1953565 18.4903241,50.1630208 10.415502,49.9974623 C3.44529094,49.8423327 0.36110405,45.2549292 0.0403691412,38.2558471 C-0.111017736,34.9564103 0.121194338,31.658277 1.46571508,26.9939604 C2.17902952,24.4962437 2.81536757,23.6071817 5.02843845,23.1287568 C6.76810459,22.8054615 6.61158596,24.6539805 6.21772349,26.8336164 C5.3504563,31.658277 4.94761325,33.987828 5.26834816,39.4616864 C5.57881955,45.2549292 8.19729935,47.5088709 11.0479912,47.5088709 C15.324029,47.5923019 17.2227797,43.972177 18.0182023,38.7368792 C18.6455597,34.5548984 18.172155,32.5434282 17.7718779,31.2580687 Z M108.9427,36.9717913 C110.607956,36.9717913 111.085209,38.9728326 110.687498,40.1851899 C110.289787,41.3897256 108.867007,42.7637305 106.65137,43.1639388 C106.174116,41.9541887 105.93549,36.9717913 108.9427,36.9717913 Z M77.9904985,39.6989434 C77.9904985,38.336671 77.2733353,37.2090483 76.4099169,37.2090483 C75.6889048,37.2090483 74.0326297,38.0107685 74.0326297,40.5867018 C74.0326297,42.6046901 74.7382465,43.5615398 75.0615473,43.972177 C77.3515946,43.2447626 77.9904985,41.3089017 77.9904985,39.6989434 Z M53.3606234,23.2891009 C53.2490076,21.998527 52.2534465,21.1198938 50.9063598,21.1198938 C49.4040375,21.1198938 47.9889551,22.7220305 48.139059,24.7348043 C48.2352795,26.0618793 49.0050433,27.1530009 50.5176291,27.1530009 C52.2534465,27.1543045 53.5197079,25.1428343 53.3606234,23.2891009 Z M66.2374885,28.0146871 C66.100214,25.7646562 65.5639452,24.749144 64.3746601,24.8325751 C62.7979273,24.9290422 62.0692176,29.9701021 62.3912355,35.2692767 C62.5965058,38.7264504 63.103267,39.2596268 63.5753888,39.225733 C64.4477877,39.172285 66.5402623,32.9957808 66.2374885,28.0146871 Z M118.76232,36.4842412 C117.780871,40.6205957 114.805734,46.7058471 110.366763,46.7058471 C109.339129,46.7058471 107.517354,46.3004244 107.517354,45.2549292 C107.517354,44.1273065 114.490131,43.972177 114.490131,38.5778388 C114.490131,36.5689758 112.66964,33.7492674 109.975467,33.7492674 C106.412743,33.7492674 102.93726,37.6952949 102.93726,43.1652424 C102.93726,48.0694232 105.93549,49.6793815 108.943983,49.6793815 C114.171962,49.6793815 117.33954,45.3318422 119.000947,41.7143245 C119.796369,44.1286102 120.26336,49.6793815 122.250633,49.6793815 C123.039641,49.6793815 123.59772,49.276566 124.548378,47.107359 C126.917967,41.7130208 129.216995,35.5182662 132.385856,35.5182662 C133.570009,35.5182662 132.860544,37.6952949 135.709953,37.6952949 C137.053191,37.6952949 138,36.5689758 138,35.2757947 C138,33.4233649 136.339876,31.9802687 133.808636,31.9802687 C126.363737,31.9802687 124.785722,43.3255864 123.596437,43.3255864 C121.615578,43.3255864 122.24935,34.2329067 120.821438,34.2329067 C119.553894,34.2316031 118.931668,35.7659521 118.76232,36.4842412 Z M55.4210244,46.1374731 C56.6077436,46.1374731 58.6489006,45.7463902 60.255141,43.1326521 C59.3365562,41.0599122 58.680974,36.8714133 58.5898853,35.3461897 C58.1177635,27.5466911 61.0749394,20.2099741 64.3117961,20.0066109 C66.6852344,19.8606066 68.5839851,22.1432277 68.8020848,25.8415692 C69.3858224,35.5599817 66.2002832,39.616816 64.6055893,43.1170088 C64.8750066,44.4740668 67.140678,46.7840637 69.2780554,46.7840637 C70.0670633,46.7840637 71.0215704,46.3812482 71.2614801,46.0553457 C71.1023956,45.496097 70.9407452,44.7725935 70.9407452,43.7231874 C70.9407452,38.0915923 74.5047515,33.3425411 77.5940702,33.3425411 C80.0483337,33.3425411 81.4736796,36.6406744 81.4736796,38.8177031 C81.4736796,41.388422 79.3337363,43.4846268 76.1687242,45.496097 C76.72552,46.0553457 77.7493059,46.462072 78.6242707,46.462072 C83.1415011,46.462072 85.504676,40.9086935 87.2546056,35.8376506 C87.5702088,34.870372 88.1282875,33.5054923 89.2341815,33.5054923 C91.1342151,33.5054923 91.9296377,46.218297 95.088235,46.218297 C96.4391705,46.218297 97.5450644,43.3998922 97.5450644,41.2332924 C97.5450644,39.6220304 96.9908345,39.4603828 96.9908345,37.1269209 C96.9908345,34.5548984 98.3379211,32.3843878 100.163544,32.3843878 C101.270721,32.3843878 101.670998,33.5054923 101.670998,34.870372 C101.670998,40.0209351 98.0236009,49.5972541 92.6468009,49.5972541 C88.6016922,49.5972541 88.9172954,42.5160446 87.4932324,42.5160446 C85.9023872,42.5160446 83.6854676,49.6767743 75.854404,49.6767743 C74.5817279,49.6767743 73.2384901,49.0340945 72.1325961,47.7435207 C70.2351284,49.0340945 68.6468491,49.5972541 66.8250749,49.5972541 C63.8986895,49.5972541 62.6285793,46.538985 61.444426,46.538985 C60.0165142,46.538985 58.4372155,49.6767743 53.6813583,49.6767743 C49.8812911,49.6767743 49.2475189,44.5327293 47.9042811,44.5327293 C46.7137131,44.5327293 44.8932218,49.6767743 42.9149288,49.6767743 C39.5844176,49.6767743 38.8788008,40.7483495 35.9434349,40.7483495 C33.6482559,40.7483495 26.3932322,49.8162605 24.4239199,49.6089866 C23.6323461,49.5255555 23.2987818,48.9245913 23.3821729,48.1189603 C23.4937886,47.0056774 24.4367493,44.025625 24.8190653,42.6164226 C25.4592522,40.1695466 26.0468385,37.4880209 26.3752711,36.6328527 C26.7011377,35.7698629 27.5799514,35.154559 28.2855682,35.2210431 C28.6409425,35.254937 28.7474264,35.9289033 28.8577593,36.4855448 C29.2580364,38.4748536 29.8161152,40.5032708 30.4460385,40.5032708 C31.5583472,40.5032708 35.2314034,33.3412375 37.3687808,33.3412375 C39.9859777,33.3412375 40.2990149,44.6083386 43.8604554,44.6083386 C45.0510233,44.6083386 45.9247052,43.1626352 46.7137131,41.3871183 C46.7945383,38.4057623 47.5861121,34.1507793 49.9608333,34.1507793 C51.624806,34.1507793 52.4176627,37.928641 51.2258118,41.2319888 C51.2232459,45.1714981 53.7544858,46.1374731 55.4210244,46.1374731 Z" id="unilever-logo-grey"></path>
                </g>
            </g>
        </g>
    </g>
</svg>