<?xml version="1.0" encoding="UTF-8"?>
<svg width="104px" height="31px" viewBox="0 0 104 31" version="1.1" xmlns="http://www.w3.org/2000/svg" xmlns:xlink="http://www.w3.org/1999/xlink">
    <!-- Generator: sketchtool 53 (72520) - https://sketchapp.com -->
    <title>4904EA43-6EC9-44ED-B141-0EF2A9CEA520</title>
    <desc>Created with sketchtool.</desc>
    <defs>
        <polygon id="path-1" points="0 0.131538461 31.7294471 0.131538461 31.7294471 29.9998846 0 29.9998846"></polygon>
        <polygon id="path-3" points="0.20272178 0.131538461 31.6463466 0.131538461 31.6463466 29.9998846 0.20272178 29.9998846"></polygon>
        <polygon id="path-5" points="0.119303657 0.131538461 31.5629284 0.131538461 31.5629284 29.9998846 0.119303657 29.9998846"></polygon>
    </defs>
    <g id="Mockups" stroke="none" stroke-width="1" fill="none" fill-rule="evenodd">
        <g id="about" transform="translate(-675.000000, -2308.000000)">
            <g id="Press-Container" transform="translate(0.000000, 2070.000000)">
                <g id="Press-Card" transform="translate(650.000000, 209.500000)">
                    <g id="bbc-logo-press" transform="translate(25.000000, 29.000000)">
                        <path d="M56.4702346,19.7254139 C56.4702346,19.7254139 56.5884961,16.7396619 52.4998232,16.7648645 L48.5294118,16.7648645 L48.5294118,22.9389005 L52.4998232,22.9389005 C52.4998232,22.9389005 56.4702346,23.1414325 56.4702346,19.7254139" id="Fill-1" fill="#444971" fill-rule="nonzero"></path>
                        <g id="Group-5">
                            <g id="Fill-3-Clipped">
                                <mask id="mask-2" fill="white">
                                    <use xlink:href="#path-1"></use>
                                </mask>
                                <g id="path-1"></g>
                                <path d="M8.33907273,4.33805769 L15.8771262,4.33805769 C22.6689979,4.96315384 22.2482599,10.0833461 22.2482599,10.0833461 C22.2725166,13.20825 19.5049444,14.3860384 19.5049444,14.3860384 C24.3660994,15.612 24.1974578,19.7468077 24.1974578,19.7468077 C24.1974578,25.8284423 16.9782064,25.8045 16.9782064,25.8045 L8.33907273,25.8045007 L8.33907273,4.33805769 Z M-2.88770053e-05,29.9998846 L31.7294471,29.9998846 L31.7294471,0.131423077 L-2.88770053e-05,0.131423077 L-2.88770053e-05,29.9998846 Z" id="Fill-3" fill="#444971" fill-rule="nonzero" mask="url(#mask-2)"></path>
                            </g>
                        </g>
                        <path d="M18.5288246,10.3704202 C18.5288246,10.3704202 18.6492561,8.10151261 15.4407381,7.94117647 L12.3529412,7.94117647 L12.3529412,13.2352941 L14.9824611,13.2352941 C14.9824611,13.2352941 18.5288246,13.189366 18.5288246,10.3704202" id="Fill-6" fill="#444971" fill-rule="nonzero"></path>
                        <path d="M20.293764,19.7254139 C20.293764,19.7254139 20.4120255,16.7396619 16.3233526,16.7648645 L12.3529412,16.7648645 L12.3529412,22.9389005 L16.3233526,22.9389005 C16.3233526,22.9389005 20.293764,23.1414325 20.293764,19.7254139" id="Fill-8" fill="#444971" fill-rule="nonzero"></path>
                        <path d="M54.7052951,10.3704202 C54.7052951,10.3704202 54.8257267,8.10151261 51.6172087,7.94117647 L48.5294118,7.94117647 L48.5294118,13.2352941 L51.1589317,13.2352941 C51.1589317,13.2352941 54.7052951,13.189366 54.7052951,10.3704202" id="Fill-10" fill="#444971" fill-rule="nonzero"></path>
                        <g id="Group-14" transform="translate(36.176471, 0.000000)">
                            <g id="Fill-12-Clipped">
                                <mask id="mask-4" fill="white">
                                    <use xlink:href="#path-3"></use>
                                </mask>
                                <g id="path-3"></g>
                                <path d="M8.45467727,4.33805769 L15.9248203,4.33805769 C22.6555039,4.96315384 22.2385564,10.0833461 22.2385564,10.0833461 C22.2623084,13.20825 19.5199555,14.3860384 19.5199555,14.3860384 C24.3370302,15.612 24.170194,19.7468077 24.170194,19.7468077 C24.170194,25.8284423 17.0159809,25.8045 17.0159809,25.8045 L8.45467727,25.8045007 L8.45467727,4.33805769 Z M0.20272178,29.9998846 L31.6463466,29.9998846 L31.6463466,0.131423077 L0.20272178,0.131423077 L0.20272178,29.9998846 Z" id="Fill-12" fill="#444971" fill-rule="nonzero" mask="url(#mask-4)"></path>
                            </g>
                        </g>
                        <g id="Group-17" transform="translate(72.352941, 0.000000)">
                            <g id="Fill-15-Clipped">
                                <mask id="mask-6" fill="white">
                                    <use xlink:href="#path-5"></use>
                                </mask>
                                <g id="path-5"></g>
                                <path d="M25.3387631,24.0979616 C25.3387631,24.0979616 18.8762194,27.96825 11.3880477,24.9872884 C11.3880477,24.9872884 5.09234022,22.6680577 4.85396185,15.0656539 C4.85396185,15.0656539 4.59125914,7.24719231 12.9857266,4.65075 C12.9857266,4.65075 15.2275707,3.78536539 19.2576821,4.17017307 C19.2576821,4.17017307 21.6660763,4.41046154 25.1478887,5.87671154 L25.1478887,9.84305771 C25.1478887,9.84305771 21.3083657,7.46353846 17.063628,7.41536539 C17.063628,7.41536539 9.14648965,7.25959616 8.78877902,15.0656539 C8.78877902,15.0656539 8.50261049,22.2469039 16.9683339,22.6556539 C16.9683339,22.6556539 20.5216884,23.0883461 25.3387631,19.9873846 L25.3387631,24.0979616 Z M0.119303657,29.9998846 L31.5629284,29.9998846 L31.5629284,0.131423077 L0.119303657,0.131423077 L0.119303657,29.9998846 Z" id="Fill-15" fill="#444971" fill-rule="nonzero" mask="url(#mask-6)"></path>
                            </g>
                        </g>
                    </g>
                </g>
            </g>
        </g>
    </g>
</svg>