<?xml version="1.0" encoding="UTF-8"?>
<svg width="108px" height="19px" viewBox="0 0 108 19" version="1.1" xmlns="http://www.w3.org/2000/svg" xmlns:xlink="http://www.w3.org/1999/xlink">
    <!-- Generator: sketchtool 53 (72520) - https://sketchapp.com -->
    <title>1DE311E1-4B66-405B-8C6C-F46553BD6AAF</title>
    <desc>Created with sketchtool.</desc>
    <g id="Mockups" stroke="none" stroke-width="1" fill="none" fill-rule="evenodd">
        <g id="about" transform="translate(-395.000000, -2319.000000)" fill="#444971" fill-rule="nonzero">
            <g id="Press-Container" transform="translate(0.000000, 2070.000000)">
                <g id="Press-Card" transform="translate(370.000000, 209.500000)">
                    <g id="cnbc-logo-press" transform="translate(25.000000, 40.000000)">
                        <path d="M18.8629014,6.0973813 C18.4657394,4.1673493 16.8869014,3.6555753 15.1199014,3.4913163 C9.41132043,2.9611563 8.39880443,7.2379943 8.39880443,9.0436063 C8.39880443,12.1332523 9.29915943,14.6878333 14.9035464,14.6878333 C15.9369014,14.6878333 18.7905784,13.6207683 18.7905784,11.8887033 L26.8508684,11.8887033 C26.5254174,17.0272843 17.9061584,18.2586073 14.1472234,18.2586073 C6.35722343,18.2586073 -0.311163567,16.8054133 0.0112234326,9.1134773 C0.241675433,3.6230923 5.41703143,-0.229617696 15.7119654,0.0106403043 C21.4511914,0.144252304 26.9630314,1.9382193 26.9869334,6.0973813 L18.8629014,6.0973813 Z" id="Path"></path>
                        <path d="M99.5934724,6.0973813 C99.1969244,4.1673493 97.6168594,3.6555753 95.8504724,3.4913163 C90.1412794,2.9611563 89.1299884,7.2379943 89.1299884,9.0436063 C89.1299884,12.1332523 90.0297304,14.6878333 95.6347304,14.6878333 C96.6674724,14.6878333 99.5205374,13.6207683 99.5205374,11.8887033 L107.58144,11.8887033 C107.257827,17.0272843 98.6367304,18.2586073 94.8771824,18.2586073 C87.0877954,18.2586073 80.4194084,16.8054133 80.7417954,9.1134773 C80.9722464,3.6230923 86.1488274,-0.229617696 96.4413114,0.0106403043 C102.181762,0.144253304 107.694214,1.9382203 107.718117,6.0973823 L99.5934724,6.0973823 L99.5934724,6.0973813 Z" id="Path"></path>
                        <path d="M28.4260914,0.377706304 L38.8889624,0.377706304 L47.8171234,12.9244483 L47.8888334,12.9244483 L47.8888334,0.377706304 L54.5952204,0.377706304 L54.5952204,17.7994803 L44.5711884,17.7994803 L35.2054144,5.2521263 L35.1318654,5.2521263 L35.1318654,17.7994803 L28.4260914,17.7994803 L28.4260914,0.377706304 Z M64.0229594,14.1482933 L66.1301204,14.1482933 C70.0404434,14.1482933 71.4752504,13.7376483 71.4752504,12.3868093 C71.4752504,10.9391323 69.6635074,10.4555523 66.7424104,10.4555523 L64.0229594,10.4555523 L64.0229594,14.1482933 Z M64.0229594,7.1471003 L66.1301204,7.1471003 C69.3742174,7.1471003 71.0958624,6.8933583 71.0958624,5.5419063 C71.0958624,4.0948423 69.6635074,3.6118743 66.7424104,3.6118743 L64.0229594,3.6118743 L64.0229594,7.1471003 L64.0229594,7.1471003 Z M56.6650564,0.377584304 L69.3742164,0.377584304 C75.4824104,0.377584304 79.0758624,2.0881973 79.0758624,4.6721973 C79.0758624,6.1983263 77.5717984,8.0830033 74.2186044,8.6376813 L74.2186044,8.6861003 C78.2564104,8.9263583 79.7463784,11.4852293 79.7463784,13.0193263 C79.7463784,16.0899713 76.2430234,17.7993583 69.4116044,17.7993583 L56.6650564,17.7993583 L56.6650564,0.377584304 Z" id="Shape"></path>
                    </g>
                </g>
            </g>
        </g>
    </g>
</svg>