<svg xmlns="http://www.w3.org/2000/svg" width="64" height="138" viewBox="0 0 64 138">
  <g fill="none" fill-rule="evenodd">
    <circle cx="1.5" cy="1.5" r="1.5" fill="#75CAE8"/>
    <circle cx="1.5" cy="10.5" r="1.5" fill="#75CAE8"/>
    <circle cx="10.5" cy="1.5" r="1.5" fill="#75CAE8"/>
    <circle cx="10.5" cy="10.5" r="1.5" fill="#75CAE8"/>
    <circle cx="18.5" cy="1.5" r="1.5" fill="#75CAE8"/>
    <circle cx="18.5" cy="10.5" r="1.5" fill="#75CAE8"/>
    <circle cx="27.5" cy="1.5" r="1.5" fill="#75CAE8"/>
    <circle cx="27.5" cy="10.5" r="1.5" fill="#75CAE8"/>
    <circle cx="36.5" cy="1.5" r="1.5" fill="#75CAE8"/>
    <circle cx="36.5" cy="10.5" r="1.5" fill="#75CAE8"/>
    <circle cx="45.5" cy="1.5" r="1.5" fill="#75CAE8"/>
    <circle cx="45.5" cy="10.5" r="1.5" fill="#75CAE8"/>
    <circle cx="53.5" cy="1.5" r="1.5" fill="#75CAE8"/>
    <circle cx="53.5" cy="10.5" r="1.5" fill="#75CAE8"/>
    <circle cx="62.5" cy="1.5" r="1.5" fill="#81D5B5"/>
    <circle cx="62.5" cy="10.5" r="1.5" fill="#81D5B5"/>
    <circle cx="1.5" cy="19.5" r="1.5" fill="#75CAE8"/>
    <circle cx="10.5" cy="19.5" r="1.5" fill="#75CAE8"/>
    <circle cx="18.5" cy="19.5" r="1.5" fill="#75CAE8"/>
    <circle cx="27.5" cy="19.5" r="1.5" fill="#75CAE8"/>
    <circle cx="36.5" cy="19.5" r="1.5" fill="#75CAE8"/>
    <circle cx="45.5" cy="19.5" r="1.5" fill="#75CAE8"/>
    <circle cx="53.5" cy="19.5" r="1.5" fill="#75CAE8"/>
    <circle cx="62.5" cy="19.5" r="1.5" fill="#81D5B5"/>
    <circle cx="1.5" cy="28.5" r="1.5" fill="#75CAE8"/>
    <circle cx="10.5" cy="28.5" r="1.5" fill="#75CAE8"/>
    <circle cx="18.5" cy="28.5" r="1.5" fill="#75CAE8"/>
    <circle cx="27.5" cy="28.5" r="1.5" fill="#75CAE8"/>
    <circle cx="36.5" cy="28.5" r="1.5" fill="#75CAE8"/>
    <circle cx="45.5" cy="28.5" r="1.5" fill="#75CAE8"/>
    <circle cx="53.5" cy="28.5" r="1.5" fill="#75CAE8"/>
    <circle cx="62.5" cy="28.5" r="1.5" fill="#81D5B5"/>
    <circle cx="1.5" cy="37.5" r="1.5" fill="#75CAE8"/>
    <circle cx="10.5" cy="37.5" r="1.5" fill="#75CAE8"/>
    <circle cx="18.5" cy="37.5" r="1.5" fill="#75CAE8"/>
    <circle cx="27.5" cy="37.5" r="1.5" fill="#75CAE8"/>
    <circle cx="36.5" cy="37.5" r="1.5" fill="#75CAE8"/>
    <circle cx="45.5" cy="37.5" r="1.5" fill="#75CAE8"/>
    <circle cx="53.5" cy="37.5" r="1.5" fill="#75CAE8"/>
    <circle cx="62.5" cy="37.5" r="1.5" fill="#81D5B5"/>
    <circle cx="1.5" cy="46.5" r="1.5" fill="#75CAE8"/>
    <circle cx="10.5" cy="46.5" r="1.5" fill="#75CAE8"/>
    <circle cx="18.5" cy="46.5" r="1.5" fill="#75CAE8"/>
    <circle cx="27.5" cy="46.5" r="1.5" fill="#75CAE8"/>
    <circle cx="36.5" cy="46.5" r="1.5" fill="#75CAE8"/>
    <circle cx="45.5" cy="46.5" r="1.5" fill="#75CAE8"/>
    <circle cx="53.5" cy="46.5" r="1.5" fill="#86D4D1"/>
    <circle cx="62.5" cy="46.5" r="1.5" fill="#81D5B5"/>
    <circle cx="1.5" cy="55.5" r="1.5" fill="#75CAE8"/>
    <circle cx="10.5" cy="55.5" r="1.5" fill="#75CAE8"/>
    <circle cx="18.5" cy="55.5" r="1.5" fill="#75CAE8"/>
    <circle cx="27.5" cy="55.5" r="1.5" fill="#75CAE8"/>
    <circle cx="36.5" cy="55.5" r="1.5" fill="#75CAE8"/>
    <circle cx="45.5" cy="55.5" r="1.5" fill="#75CAE8"/>
    <circle cx="53.5" cy="55.5" r="1.5" fill="#81D5B5"/>
    <circle cx="62.5" cy="55.5" r="1.5" fill="#81D5B5"/>
    <circle cx="1.5" cy="64.5" r="1.5" fill="#75CAE8"/>
    <circle cx="10.5" cy="64.5" r="1.5" fill="#75CAE8"/>
    <circle cx="18.5" cy="64.5" r="1.5" fill="#75CAE8"/>
    <circle cx="27.5" cy="64.5" r="1.5" fill="#75CAE8"/>
    <circle cx="36.5" cy="64.5" r="1.5" fill="#75CAE8"/>
    <circle cx="45.5" cy="64.5" r="1.5" fill="#81D5B5"/>
    <circle cx="53.5" cy="64.5" r="1.5" fill="#81D5B5"/>
    <circle cx="62.5" cy="64.5" r="1.5" fill="#81D5B5"/>
    <circle cx="1.5" cy="73.5" r="1.5" fill="#75CAE8"/>
    <circle cx="10.5" cy="73.5" r="1.5" fill="#75CAE8"/>
    <circle cx="18.5" cy="73.5" r="1.5" fill="#75CAE8"/>
    <circle cx="27.5" cy="73.5" r="1.5" fill="#75CAE8"/>
    <circle cx="36.5" cy="73.5" r="1.5" fill="#86D4D1"/>
    <circle cx="45.5" cy="73.5" r="1.5" fill="#81D5B5"/>
    <circle cx="53.5" cy="73.5" r="1.5" fill="#81D5B5"/>
    <circle cx="62.5" cy="73.5" r="1.5" fill="#81D5B5"/>
    <circle cx="1.5" cy="82.5" r="1.5" fill="#75CAE8"/>
    <circle cx="10.5" cy="82.5" r="1.5" fill="#75CAE8"/>
    <circle cx="18.5" cy="82.5" r="1.5" fill="#75CAE8"/>
    <circle cx="27.5" cy="82.5" r="1.5" fill="#86D4D1"/>
    <circle cx="36.5" cy="82.5" r="1.5" fill="#81D5B5"/>
    <circle cx="45.5" cy="82.5" r="1.5" fill="#81D5B5"/>
    <circle cx="53.5" cy="82.5" r="1.5" fill="#81D5B5"/>
    <circle cx="62.5" cy="82.5" r="1.5" fill="#81D5B5"/>
    <circle cx="1.5" cy="91.5" r="1.5" fill="#75CAE8"/>
    <circle cx="10.5" cy="91.5" r="1.5" fill="#75CAE8"/>
    <circle cx="18.5" cy="91.5" r="1.5" fill="#86D4D1"/>
    <circle cx="27.5" cy="91.5" r="1.5" fill="#81D5B5"/>
    <circle cx="36.5" cy="91.5" r="1.5" fill="#81D5B5"/>
    <circle cx="45.5" cy="91.5" r="1.5" fill="#81D5B5"/>
    <circle cx="53.5" cy="91.5" r="1.5" fill="#81D5B5"/>
    <circle cx="62.5" cy="91.5" r="1.5" fill="#81D5B5"/>
    <circle cx="1.5" cy="100.5" r="1.5" fill="#75CAE8"/>
    <circle cx="10.5" cy="100.5" r="1.5" fill="#86D4D1"/>
    <circle cx="18.5" cy="100.5" r="1.5" fill="#81D5B5"/>
    <circle cx="27.5" cy="100.5" r="1.5" fill="#81D5B5"/>
    <circle cx="36.5" cy="100.5" r="1.5" fill="#81D5B5"/>
    <circle cx="45.5" cy="100.5" r="1.5" fill="#81D5B5"/>
    <circle cx="53.5" cy="100.5" r="1.5" fill="#81D5B5"/>
    <circle cx="62.5" cy="100.5" r="1.5" fill="#81D5B5"/>
    <circle cx="1.5" cy="109.5" r="1.5" fill="#86D4D1"/>
    <circle cx="10.5" cy="109.5" r="1.5" fill="#81D5B5"/>
    <circle cx="18.5" cy="109.5" r="1.5" fill="#81D5B5"/>
    <circle cx="27.5" cy="109.5" r="1.5" fill="#81D5B5"/>
    <circle cx="36.5" cy="109.5" r="1.5" fill="#81D5B5"/>
    <circle cx="45.5" cy="109.5" r="1.5" fill="#81D5B5"/>
    <circle cx="53.5" cy="109.5" r="1.5" fill="#81D5B5"/>
    <circle cx="62.5" cy="109.5" r="1.5" fill="#81D5B5"/>
    <circle cx="1.5" cy="118.5" r="1.5" fill="#81D5B5"/>
    <circle cx="10.5" cy="118.5" r="1.5" fill="#81D5B5"/>
    <circle cx="18.5" cy="118.5" r="1.5" fill="#81D5B5"/>
    <circle cx="27.5" cy="118.5" r="1.5" fill="#81D5B5"/>
    <circle cx="36.5" cy="118.5" r="1.5" fill="#81D5B5"/>
    <circle cx="45.5" cy="118.5" r="1.5" fill="#81D5B5"/>
    <circle cx="53.5" cy="118.5" r="1.5" fill="#81D5B5"/>
    <circle cx="62.5" cy="118.5" r="1.5" fill="#81D5B5"/>
    <circle cx="1.5" cy="127.5" r="1.5" fill="#81D5B5"/>
    <circle cx="10.5" cy="127.5" r="1.5" fill="#81D5B5"/>
    <circle cx="18.5" cy="127.5" r="1.5" fill="#81D5B5"/>
    <circle cx="27.5" cy="127.5" r="1.5" fill="#81D5B5"/>
    <circle cx="36.5" cy="127.5" r="1.5" fill="#81D5B5"/>
    <circle cx="45.5" cy="127.5" r="1.5" fill="#81D5B5"/>
    <circle cx="53.5" cy="127.5" r="1.5" fill="#81D5B5"/>
    <circle cx="62.5" cy="127.5" r="1.5" fill="#81D5B5"/>
    <circle cx="1.5" cy="136.5" r="1.5" fill="#81D5B5"/>
    <circle cx="10.5" cy="136.5" r="1.5" fill="#81D5B5"/>
    <circle cx="18.5" cy="136.5" r="1.5" fill="#81D5B5"/>
    <circle cx="27.5" cy="136.5" r="1.5" fill="#81D5B5"/>
    <circle cx="36.5" cy="136.5" r="1.5" fill="#81D5B5"/>
    <circle cx="45.5" cy="136.5" r="1.5" fill="#81D5B5"/>
    <circle cx="53.5" cy="136.5" r="1.5" fill="#81D5B5"/>
    <circle cx="62.5" cy="136.5" r="1.5" fill="#81D5B5"/>
  </g>
</svg>
