<?xml version="1.0" encoding="UTF-8"?>
<svg width="149px" height="50px" viewBox="0 0 149 50" version="1.1" xmlns="http://www.w3.org/2000/svg" xmlns:xlink="http://www.w3.org/1999/xlink">
    <!-- Generator: sketchtool 50.2 (55047) - http://www.bohemiancoding.com/sketch -->
    <title>46BEE9AA-C615-4247-8BE3-7482965780AB</title>
    <desc>Created with sketchtool.</desc>
    <defs>
        <linearGradient x1="0%" y1="49.9926128%" x2="100%" y2="49.9926128%" id="linearGradient-1">
            <stop stop-color="#AB0132" offset="0%"></stop>
            <stop stop-color="#DD1836" offset="100%"></stop>
        </linearGradient>
        <linearGradient x1="0%" y1="49.9937015%" x2="100%" y2="49.9937015%" id="linearGradient-2">
            <stop stop-color="#15734E" offset="0%"></stop>
            <stop stop-color="#4E9020" offset="100%"></stop>
        </linearGradient>
    </defs>
    <g id="Symbols" stroke="none" stroke-width="1" fill="none" fill-rule="evenodd">
        <g id="div-footer" transform="translate(-87.000000, -79.000000)">
            <g id="gloopro-tagline-logo">
                <g transform="translate(87.000000, 79.000000)">
                    <path d="M8.82926829,12.7536585 C10.8400297,8.18238351 15.3621295,5.23126853 20.3560976,5.23126853 C25.3500656,5.23126853 29.8721654,8.18238351 31.8829268,12.7536585 L36.4317073,10.1268293 C33.5984009,4.20833099 27.742054,0.325475263 21.1874594,0.0196383549 C14.6328647,-0.286198553 8.44040242,3.03446062 5.06829268,8.66341463 L5.06829268,2.6195122 L0,2.6195122 L0,17.8219512 L15.202439,17.8219512 L15.202439,12.7536585 L8.82926829,12.7536585 Z" id="Shape" fill="url(#linearGradient-1)"></path>
                    <path d="M31.8829268,22.8902439 C29.8721654,27.4615189 25.3500656,30.4126339 20.3560976,30.4126339 C15.3621295,30.4126339 10.8400297,27.4615189 8.82926829,22.8902439 L4.2804878,25.5170732 C7.11379426,31.4355715 12.9701411,35.3184272 19.5247357,35.6242641 C26.0793304,35.930101 32.2717927,32.6094418 35.6439024,26.9804878 L35.6439024,33.0243902 L40.7121951,33.0243902 L40.7121951,17.8219512 L25.5097561,17.8219512 L25.5097561,22.8902439 L31.8829268,22.8902439 Z" id="Shape" fill="url(#linearGradient-2)"></path>
                    <path d="M79.7926829,20.2439024 C79.7897225,22.2895663 81.0197224,24.1354474 82.9088203,24.9203412 C84.7979182,25.705235 86.9738349,25.2744648 88.4213863,23.8290083 C89.8689376,22.3835518 90.3028587,20.2082612 89.5207015,18.3180286 C88.7385443,16.4277959 86.8944465,15.1951241 84.8487805,15.195122 C82.0586736,15.1937741 79.7953758,17.4537965 79.7926829,20.2439024 Z M106.258537,20.2829268 C106.259523,18.2374827 105.028006,16.3929434 103.138451,15.6097301 C101.248895,14.8265167 99.0735863,15.2589399 97.6272387,16.7052875 C96.1808911,18.1516351 95.7484679,20.3269441 96.5316813,22.2164995 C97.3148946,24.1060549 99.1594339,25.3375718 101.204878,25.3365854 C103.992526,25.3352458 106.253158,23.0778869 106.258537,20.2902439 L106.258537,20.2829268 Z M93.7,20.2829268 C93.7094242,16.1403327 97.0736342,12.7888513 101.216234,12.7951306 C105.358834,12.8014098 108.712869,16.1630745 108.709735,20.3056781 C108.7066,24.4482818 105.347483,27.8048673 101.204878,27.804878 C99.2127691,27.8048797 97.302394,27.0128504 95.8946756,25.603302 C94.4869572,24.1937536 93.6974103,22.2823511 93.7,20.2902439 L93.7,20.2829268 Z M122.578049,20.297561 C122.571316,17.5064354 120.304157,15.2487326 117.513027,15.253667 C114.721898,15.2586014 112.462735,17.5243062 112.465872,20.3154381 C112.469008,23.10657 114.733257,25.367192 117.52439,25.3658537 C118.865973,25.3658551 120.1525,24.8324133 121.100456,23.8830853 C122.048411,22.9337573 122.579991,21.6464589 122.578049,20.304878 L122.578049,20.297561 Z M145.712195,20.2829268 C145.713182,18.2377046 144.481929,16.3933195 142.592673,15.6099631 C140.703417,14.8266068 138.528299,15.2585828 137.08176,16.7044245 C135.63522,18.1502662 135.202195,20.3251752 135.98464,22.2148088 C136.767084,24.1044424 138.610875,25.3365851 140.656098,25.3365854 C143.444698,25.3365906 145.706814,23.0788387 145.712195,20.2902439 L145.712195,20.2829268 Z M140.656098,12.7878049 C144.79958,12.7878049 148.158537,16.1467612 148.158537,20.2902439 C148.158537,24.4337266 144.79958,27.7926829 140.656098,27.7926829 C136.512615,27.7926829 133.153659,24.4337266 133.153659,20.2902439 C133.155005,16.147319 136.513173,12.7891511 140.656098,12.7878049 Z M71.502439,16.4341463 L71.502439,24.195122 L71.3414634,24.3707317 L71.2487805,24.4682927 C71.2219512,24.5 71.1926829,24.5292683 71.1634146,24.5585366 L71.0780488,24.6463415 L70.9902439,24.7317073 L70.9073171,24.8121951 L70.8219512,24.8926829 L70.7365854,24.9707317 L70.6536585,25.0439024 L70.6292683,25.0658537 L70.5512195,25.1341463 L70.5317073,25.1512195 L70.4487805,25.2219512 L70.4268293,25.2390244 L70.3560976,25.297561 L70.3195122,25.3292683 L70.2536585,25.3829268 L70.2146341,25.4121951 L70.1512195,25.4609756 L70.1,25.502439 L70.0512195,25.5390244 L69.9926829,25.5829268 L69.9512195,25.6146341 L69.902439,25.6487805 L69.8658537,25.6780488 L69.8536585,25.6780488 L69.7902439,25.7243902 L69.7512195,25.7512195 L69.6804878,25.8 L69.6414634,25.8268293 L69.5731707,25.8731707 L69.5365854,25.9 L69.4634146,25.9487805 L69.4243902,25.9731707 L69.3463415,26.0219512 C64.8036313,28.8870173 58.8200558,27.7633469 55.6262571,23.4454227 C52.4324584,19.1274985 53.1096647,13.0771098 57.1790623,9.57213867 C61.2484599,6.06716752 67.3323956,6.29418624 71.1292683,10.0926829 L71.4634146,10.6097561 L69.7317073,12.3414634 L69.302439,11.9121951 C66.2878608,8.90458922 61.4189022,8.86847103 58.360037,11.8310238 C55.3011717,14.7935766 55.1815535,19.6611995 58.0912093,22.7704243 C61.000865,25.8796491 65.8657206,26.0827322 69.0243902,23.2268293 L69.0243902,18.9146341 L62.3487805,18.9146341 L62.3487805,16.4341463 L71.502439,16.4341463 Z M109.936585,12.9902439 L112.468293,12.9902439 L112.468293,14.7609756 C115.463766,12.0297343 120.087082,12.1718921 122.909095,15.0820097 C125.731107,17.9921273 125.731107,22.6176288 122.909095,25.5277464 C120.087082,28.437864 115.463766,28.5800218 112.468293,25.8487805 L112.468293,33.0707317 L109.936585,33.0707317 L109.936585,12.9902439 Z M126.136585,12.9268293 L128.670732,12.9268293 L128.670732,14.6341463 C130.04054,13.4179551 131.809665,12.7478057 133.641463,12.7512195 L134.24878,12.7512065 L134.24878,15.1902439 L133.641463,15.1902439 C131.205968,15.1912901 129.116965,16.9276841 128.670732,19.3219512 L128.670732,27.495122 L126.136585,27.495122 L126.136585,12.9268293 Z M73.1926829,7.4195122 L75.6707317,7.4195122 L75.6707317,27.5 L73.1926829,27.5 L73.1926829,7.4195122 Z M92.3512195,20.2439024 C92.352206,23.2797859 90.5240628,26.0172395 87.7194608,27.1794776 C84.9148588,28.3417156 81.6862856,27.6997852 79.5395917,25.5530912 C77.3928978,23.4063973 76.7509673,20.1778241 77.9132053,17.3732221 C79.0754434,14.5686201 81.812897,12.7404769 84.8487805,12.7414634 C88.9922631,12.7414634 92.3512195,16.1004198 92.3512195,20.2439024 Z" id="Shape" fill="#3E882D"></path>
                    <path d="M54.2073171,40.6292683 L54.2073171,36.3146341 C54.2053196,36.1904805 54.2537587,36.0708247 54.34156,35.9830234 C54.4293612,35.8952222 54.5490171,35.846783 54.6731707,35.8487805 L57.7219512,35.8487805 C57.9485001,35.851415 58.1315118,36.0344268 58.1341463,36.2609756 C58.1341463,36.4886247 57.9496003,36.6731707 57.7219512,36.6731707 L55.1219512,36.6731707 L55.1219512,38.0487805 L57.3756098,38.0487805 C57.6049992,38.0514596 57.7891621,38.2388916 57.7878049,38.4682927 C57.7851261,38.693641 57.60097,38.8745281 57.3756098,38.8731707 L55.1219512,38.8731707 L55.1219512,40.2804878 L57.7512195,40.2804878 C57.9777684,40.2831224 58.1607801,40.4661341 58.1634146,40.6926829 C58.1640685,40.802203 58.1208509,40.9074268 58.0434072,40.9848706 C57.9659634,41.0623143 57.8607396,41.1055319 57.7512195,41.104878 L54.6731707,41.104878 C54.5472777,41.1069752 54.4260614,41.0572122 54.3379566,40.9672622 C54.2498518,40.8773123 54.2026115,40.7550908 54.2073171,40.6292683 Z" id="Shape" fill="#808080" fill-rule="nonzero"></path>
                    <path d="M59.1243902,37.5609756 C59.1210837,37.4400756 59.1669818,37.3230093 59.2515786,37.2365735 C59.3361753,37.1501377 59.4522275,37.1017329 59.5731707,37.102439 C59.6947607,37.1017783 59.8115266,37.1499551 59.8972754,37.2361624 C59.9830241,37.3223697 60.0305775,37.4393909 60.0292683,37.5609756 L60.0292683,37.7536585 C60.2921432,37.323211 60.761498,37.0621498 61.2658537,37.0658537 C62.1585366,37.0658537 62.6731707,37.6658537 62.6731707,38.5780488 L62.6731707,40.6902439 C62.6758413,40.8102886 62.6294981,40.9262419 62.5448231,41.0113771 C62.4601481,41.0965123 62.3444476,41.1434833 62.2243902,41.1414634 C62.1036794,41.1434337 61.9872657,41.0966865 61.9014412,41.0117799 C61.8156166,40.9268733 61.7676205,40.8109689 61.7682927,40.6902439 L61.7682927,38.8560976 C61.7682927,38.2414634 61.4609756,37.8804878 60.9219512,37.8804878 C60.3829268,37.8804878 60.0292683,38.2463415 60.0292683,38.8560976 L60.0292683,40.6756098 C60.0118545,40.9126228 59.8144812,41.0960268 59.5768293,41.0960268 C59.3391773,41.0960268 59.141804,40.9126228 59.1243902,40.6756098 L59.1243902,37.5609756 Z" id="Shape" fill="#808080" fill-rule="nonzero"></path>
                    <path d="M63.9560976,40 L63.9560976,37.9170732 L63.8073171,37.9170732 C63.6609786,37.9286694 63.5205124,37.8571618 63.4437886,37.7320103 C63.3670648,37.6068588 63.3670648,37.4492387 63.4437886,37.3240873 C63.5205124,37.1989358 63.6609786,37.1274281 63.8073171,37.1390244 L63.9560976,37.1390244 L63.9560976,36.4634146 C63.9560976,36.2128659 64.1592074,36.0097561 64.4097561,36.0097561 C64.6603048,36.0097561 64.8634146,36.2128659 64.8634146,36.4634146 L64.8634146,37.1390244 L65.5756098,37.1390244 C65.7219482,37.1274281 65.8624144,37.1989358 65.9391382,37.3240873 C66.015862,37.4492387 66.015862,37.6068588 65.9391382,37.7320103 C65.8624144,37.8571618 65.7219482,37.9286694 65.5756098,37.9170732 L64.8634146,37.9170732 L64.8634146,39.8682927 C64.8433852,40.0028178 64.8882918,40.138876 64.984464,40.2350482 C65.0806362,40.3312204 65.2166944,40.376127 65.3512195,40.3560976 C65.4271538,40.3526482 65.5028622,40.3453216 65.5780488,40.3341463 C65.786296,40.3341292 65.9558667,40.5015259 65.9585366,40.7097561 C65.9543187,40.8649167 65.8585482,41.0028262 65.7146341,41.0609756 C65.5151709,41.1325181 65.3045772,41.16803 65.0926829,41.1658537 C64.4292683,41.1609756 63.9560976,40.8682927 63.9560976,40 Z" id="Shape" fill="#808080" fill-rule="nonzero"></path>
                    <path d="M68.6609756,41.1829268 C68.1141837,41.1989163 67.5852915,40.9871965 67.2005724,40.5983157 C66.8158532,40.209435 66.609836,39.6782956 66.6317073,39.1317073 L66.6317073,39.1146341 C66.6317073,37.9853659 67.4341463,37.0560976 68.5634146,37.0560976 C69.8243902,37.0560976 70.4439024,38.0902439 70.4439024,39.0073171 C70.4472128,39.1223946 70.4036292,39.2338793 70.3231484,39.3161997 C70.2426676,39.3985201 70.1321961,39.4446117 70.0170732,39.4439024 L67.5390244,39.4439024 C67.5917921,40.0277383 68.0922399,40.4681753 68.6780488,40.4463415 C69.0207731,40.4484447 69.3526464,40.3262668 69.6121951,40.102439 C69.6794176,40.0437812 69.7670524,40.0139854 69.8560976,40.0195122 C69.9531144,40.0187907 70.0462254,40.0576854 70.1139017,40.1272031 C70.1815779,40.1967209 70.2179594,40.2908423 70.2146341,40.3878049 C70.2137191,40.492059 70.1706014,40.5914937 70.095122,40.6634146 C69.7026894,41.0162758 69.1883537,41.2025913 68.6609756,41.1829268 Z M69.5609756,38.8390244 C69.5,38.2536585 69.1560976,37.797561 68.5560976,37.797561 C68.002439,37.797561 67.6121951,38.2243902 67.5317073,38.8390244 L69.5609756,38.8390244 Z" id="Shape" fill="#808080" fill-rule="nonzero"></path>
                    <path d="M71.3756098,37.5609756 C71.3729851,37.4402704 71.419106,37.3235988 71.5035548,37.2373141 C71.5880036,37.1510295 71.7036565,37.1024105 71.8243902,37.102439 C71.9459802,37.1017783 72.0627461,37.1499551 72.1484949,37.2361624 C72.2342436,37.3223697 72.281797,37.4393909 72.2804878,37.5609756 L72.2804878,37.9634146 C72.4902439,37.4756098 72.8804878,37.095122 73.2780488,37.095122 C73.3995627,37.0863023 73.5189083,37.1307443 73.6050577,37.2168936 C73.691207,37.3030429 73.7356489,37.4223886 73.7268293,37.5439024 C73.7345003,37.759018 73.580794,37.9461842 73.3682927,37.9804878 C72.7243902,38.0926829 72.2804878,38.5853659 72.2804878,39.5219512 L72.2804878,40.6902439 C72.2798427,40.8105622 72.2314268,40.925696 72.1458916,41.0103165 C72.0603563,41.0949369 71.9447085,41.142112 71.8243902,41.1414634 C71.7047408,41.1421244 71.5898359,41.0947185 71.5054593,41.0098834 C71.4210827,40.9250482 71.3743003,40.809888 71.3756098,40.6902439 L71.3756098,37.5609756 Z" id="Shape" fill="#808080" fill-rule="nonzero"></path>
                    <path d="M74.4707317,37.5609756 C74.4674251,37.4400756 74.5133233,37.3230093 74.59792,37.2365735 C74.6825168,37.1501377 74.798569,37.1017329 74.9195122,37.102439 C75.1691099,37.1064505 75.3685701,37.3113604 75.3658537,37.5609756 L75.3658537,37.804878 C75.6595999,37.3451487 76.16909,37.0687527 76.7146341,37.0731707 C77.6439024,37.0731707 78.5512195,37.804878 78.5512195,39.1243902 L78.5512195,39.1414634 C78.5512195,40.4512195 77.6512195,41.1926829 76.7146341,41.1926829 C76.1757693,41.1967547 75.6701757,40.9325295 75.3658537,40.4878049 L75.3658537,41.8878049 C75.3484399,42.124818 75.1510666,42.3082219 74.9134146,42.3082219 C74.6757627,42.3082219 74.4783894,42.124818 74.4609756,41.8878049 L74.4707317,37.5609756 Z M77.6414634,39.1341463 L77.6414634,39.1170732 C77.6414634,38.3536585 77.1243902,37.8512195 76.5097561,37.8512195 C76.1871684,37.8611622 75.8823811,38.0014142 75.6649848,38.2399526 C75.4475886,38.478491 75.3361443,38.7949496 75.3560976,39.1170732 L75.3560976,39.1341463 C75.3361443,39.4562699 75.4475886,39.7727285 75.6649848,40.0112669 C75.8823811,40.2498053 76.1871684,40.3900574 76.5097561,40.4 C77.1292683,40.3902439 77.6390244,39.902439 77.6390244,39.1243902 L77.6414634,39.1341463 Z" id="Shape" fill="#808080" fill-rule="nonzero"></path>
                    <path d="M79.497561,37.5609756 C79.4949363,37.4402704 79.5410572,37.3235988 79.625506,37.2373141 C79.7099548,37.1510295 79.8256077,37.1024105 79.9463415,37.102439 C80.068152,37.1017859 80.1851624,37.1498861 80.2712967,37.2360204 C80.357431,37.3221546 80.4055312,37.4391651 80.404878,37.5609756 L80.404878,37.9634146 C80.6146341,37.4756098 81.004878,37.095122 81.4,37.095122 C81.5217063,37.086391 81.6412333,37.1307731 81.7277473,37.2168195 C81.8142614,37.3028659 81.8592907,37.4221506 81.8512195,37.5439024 C81.857626,37.7594385 81.7031442,37.946278 81.4902439,37.9804878 C80.8463415,38.0926829 80.404878,38.5853659 80.404878,39.5219512 L80.404878,40.6902439 C80.4042359,40.8109882 80.3554849,40.9264949 80.2694206,41.0111858 C80.1833563,41.0958767 80.0670805,41.1427635 79.9463415,41.1414634 C79.8266921,41.1421244 79.7117871,41.0947185 79.6274105,41.0098834 C79.5430339,40.9250482 79.4962515,40.809888 79.497561,40.6902439 L79.497561,37.5609756 Z" id="Shape" fill="#808080" fill-rule="nonzero"></path>
                    <path d="M82.5780488,36.0731707 C82.6206528,35.8208156 82.8391958,35.6360758 83.095122,35.6360758 C83.3510481,35.6360758 83.5695911,35.8208156 83.6121951,36.0731707 L83.6121951,36.1195122 C83.5766288,36.3778305 83.3558773,36.5702706 83.095122,36.5702706 C82.8343666,36.5702706 82.6136151,36.3778305 82.5780488,36.1195122 L82.5780488,36.0731707 Z M82.6463415,37.5512195 C82.6430349,37.4303195 82.688933,37.3132532 82.7735298,37.2268174 C82.8581265,37.1403816 82.9741787,37.0919768 83.095122,37.0926829 C83.2167119,37.0920222 83.3334778,37.140199 83.4192266,37.2264063 C83.5049753,37.3126136 83.5525287,37.4296348 83.5512195,37.5512195 L83.5512195,40.6804878 C83.5338057,40.9175009 83.3364324,41.1009048 83.0987805,41.1009048 C82.8611286,41.1009048 82.6637552,40.9175009 82.6463415,40.6804878 L82.6463415,37.5512195 Z" id="Shape" fill="#808080" fill-rule="nonzero"></path>
                    <path d="M84.5853659,40.697561 C84.4748699,40.6321136 84.4092791,40.5112391 84.4146341,40.3829268 C84.413321,40.2852765 84.451365,40.191207 84.5201907,40.1219226 C84.5890163,40.0526381 84.6828309,40.0139699 84.7804878,40.0146341 C84.8491797,40.0145791 84.9166052,40.0331211 84.9756098,40.0682927 C85.3099587,40.3036767 85.7059407,40.4359534 86.1146341,40.4487805 C86.502439,40.4487805 86.7292683,40.2853659 86.7292683,40.0219512 L86.7292683,40 C86.7292683,39.6926829 86.3097561,39.5878049 85.8439024,39.4463415 C85.2609756,39.2804878 84.6073171,39.0414634 84.6073171,38.2853659 L84.6073171,38.2682927 C84.6073171,37.5195122 85.2292683,37.0634146 86.0170732,37.0634146 C86.4514584,37.0699281 86.877975,37.1803206 87.2609756,37.3853659 C87.3928545,37.4493813 87.4769918,37.5826774 87.4780488,37.7292683 C87.4787452,37.8284354 87.4391545,37.9236369 87.3683448,37.9930672 C87.297535,38.0624975 87.2015732,38.1002079 87.102439,38.097561 C87.0398918,38.0993454 86.978131,38.0832707 86.9243902,38.0512195 C86.6384347,37.8938092 86.320973,37.8021536 85.995122,37.7829268 C85.6414634,37.7829268 85.4390244,37.9463415 85.4390244,38.1731707 L85.4390244,38.1878049 C85.4390244,38.4780488 85.8658537,38.6 86.3317073,38.7487805 C86.9073171,38.9292683 87.5512195,39.1902439 87.5512195,39.902439 L87.5512195,39.9170732 C87.5512195,40.7487805 86.904878,41.1609756 86.0878049,41.1609756 C85.5521987,41.1583855 85.0293732,40.9971244 84.5853659,40.697561 Z" id="Shape" fill="#808080" fill-rule="nonzero"></path>
                    <path d="M90.302439,41.1829268 C89.7556471,41.1989163 89.2267549,40.9871965 88.8420358,40.5983157 C88.4573167,40.209435 88.2512994,39.6782956 88.2731707,39.1317073 L88.2731707,39.1146341 C88.2731707,37.9853659 89.0731707,37.0560976 90.204878,37.0560976 C91.4634146,37.0560976 92.0853659,38.0902439 92.0853659,39.0073171 C92.0886762,39.1223946 92.0450926,39.2338793 91.9646118,39.3161997 C91.884131,39.3985201 91.7736596,39.4446117 91.6585366,39.4439024 L89.1780488,39.4439024 C89.2319926,40.0271407 89.7317077,40.4669327 90.3170732,40.4463415 C90.6606354,40.4490364 90.9934763,40.3268214 91.2536585,40.102439 C91.3206075,40.0433081 91.4084442,40.0134437 91.497561,40.0195122 C91.5943655,40.0194763 91.687071,40.0585869 91.7545972,40.1279506 C91.8221235,40.1973144 91.8587317,40.2910362 91.8560976,40.3878049 C91.8540996,40.4918264 91.8111549,40.5908622 91.7365854,40.6634146 C91.3438848,41.0158285 90.8297364,41.2020761 90.302439,41.1829268 Z M91.202439,38.8390244 C91.1414634,38.2536585 90.797561,37.797561 90.197561,37.797561 C89.6439024,37.797561 89.2536585,38.2243902 89.1707317,38.8390244 L91.202439,38.8390244 Z" id="Shape" fill="#808080" fill-rule="nonzero"></path>
                    <path d="M97.0731707,41.1829268 C96.5261728,41.1988753 95.997063,40.9872264 95.6119664,40.5984314 C95.2268697,40.2096363 95.0202876,39.6785278 95.0414634,39.1317073 L95.0414634,39.1146341 C95.0414634,37.9853659 95.8439024,37.0560976 96.9756098,37.0560976 C98.2341463,37.0560976 98.8560976,38.0902439 98.8560976,39.0073171 C98.8594262,39.1228216 98.8155124,39.2346894 98.7344978,39.3170849 C98.6534832,39.3994804 98.5423736,39.4452786 98.4268293,39.4439024 L95.9536585,39.4439024 C96.0064262,40.0277383 96.506874,40.4681753 97.0926829,40.4463415 C97.436091,40.4481525 97.7686315,40.3260477 98.0292683,40.102439 C98.0928825,40.0458873 98.1759246,40.0161669 98.2609756,40.0195122 C98.3579925,40.0187907 98.4511035,40.0576854 98.5187797,40.1272031 C98.586456,40.1967209 98.6228375,40.2908423 98.6195122,40.3878049 C98.6185971,40.492059 98.5754794,40.5914937 98.5,40.6634146 C98.1095441,41.0147103 97.59809,41.2009321 97.0731707,41.1829268 Z M97.9707317,38.8390244 C97.9121951,38.2536585 97.5658537,37.797561 96.9682927,37.797561 C96.4121951,37.797561 96.0243902,38.2243902 95.9414634,38.8390244 L97.9707317,38.8390244 Z" id="Shape" fill="#808080" fill-rule="nonzero"></path>
                    <path d="M99.895122,36.3146341 C99.8931402,36.1909093 99.9412476,36.0716355 100.028516,35.9839083 C100.115783,35.8961811 100.234803,35.8474482 100.358537,35.8487805 L101.963415,35.8487805 C103.182927,35.8487805 103.956098,36.5463415 103.956098,37.602439 L103.956098,37.6170732 C103.956098,38.7926829 103.012195,39.4073171 101.856098,39.4073171 L100.817073,39.4073171 L100.817073,40.6731707 C100.817073,40.9277605 100.610687,41.1341463 100.356098,41.1341463 C100.101508,41.1341463 99.895122,40.9277605 99.895122,40.6731707 L99.895122,36.3146341 Z M101.887805,38.5756098 C102.582927,38.5756098 103.019512,38.1878049 103.019512,37.6390244 L103.019512,37.6243902 C103.019512,37.0097561 102.57561,36.6878049 101.887805,36.6878049 L100.817073,36.6878049 L100.817073,38.5756098 L101.887805,38.5756098 Z" id="Shape" fill="#808080" fill-rule="nonzero"></path>
                    <path d="M104.795122,37.5609756 C104.792497,37.4402704 104.838618,37.3235988 104.923067,37.2373141 C105.007516,37.1510295 105.123169,37.1024105 105.243902,37.102439 C105.365713,37.1017859 105.482723,37.1498861 105.568858,37.2360204 C105.654992,37.3221546 105.703092,37.4391651 105.702439,37.5609756 L105.702439,37.9634146 C105.912195,37.4756098 106.302439,37.095122 106.697561,37.095122 C106.819267,37.086391 106.938794,37.1307731 107.025308,37.2168195 C107.111822,37.3028659 107.156852,37.4221506 107.14878,37.5439024 C107.155187,37.7594385 107.000705,37.946278 106.787805,37.9804878 C106.143902,38.0926829 105.702439,38.5853659 105.702439,39.5219512 L105.702439,40.6902439 C105.701797,40.8109882 105.653046,40.9264949 105.566982,41.0111858 C105.480917,41.0958767 105.364641,41.1427635 105.243902,41.1414634 C105.124253,41.1421244 105.009348,41.0947185 104.924971,41.0098834 C104.840595,40.9250482 104.793812,40.809888 104.795122,40.6902439 L104.795122,37.5609756 Z" id="Shape" fill="#808080" fill-rule="nonzero"></path>
                    <path d="M107.673171,39.1390244 L107.673171,39.1243902 C107.706963,37.9874259 108.635997,37.081933 109.773454,37.0773279 C110.910911,37.0727228 111.847247,37.9706636 111.890244,39.1073171 L111.890244,39.1243902 C111.888462,39.6804433 111.662594,40.2122994 111.263708,40.5997108 C110.864821,40.9871221 110.3266,41.1973727 109.770732,41.1829268 C109.219419,41.1974055 108.685652,40.9884752 108.290661,40.6035886 C107.89567,40.2187021 107.672981,39.6905273 107.673171,39.1390244 Z M110.985366,39.1390244 L110.985366,39.1243902 C111.000702,38.7913499 110.879021,38.4665511 110.648635,38.2255672 C110.418249,37.9845832 110.099247,37.8484276 109.765854,37.8487805 C109.437758,37.8475244 109.123756,37.982035 108.898313,38.2204127 C108.672871,38.4587905 108.55607,38.7798014 108.57561,39.1073171 L108.57561,39.1243902 C108.563083,39.4532524 108.684003,39.7732173 108.9109,40.0115971 C109.137797,40.2499769 109.451408,40.3865332 109.780488,40.3902439 C110.108083,40.3927297 110.42216,40.2598038 110.64844,40.0229024 C110.87472,39.786001 110.993109,39.4661615 110.97561,39.1390244 L110.985366,39.1390244 Z" id="Shape" fill="#808080" fill-rule="nonzero"></path>
                    <path d="M112.595122,39.1390244 L112.595122,39.1243902 C112.588548,38.5751272 112.803335,38.0463365 113.191062,37.6572335 C113.578789,37.2681304 114.106815,37.0514698 114.656098,37.0560976 C115.163077,37.0368704 115.658378,37.2112721 116.041463,37.5439024 C116.1322,37.6233893 116.184578,37.7379104 116.185366,37.8585366 C116.184731,37.9687137 116.140014,38.0740509 116.061195,38.1510372 C115.982375,38.2280236 115.876015,38.2702503 115.765854,38.2682927 C115.668888,38.2665873 115.574631,38.2360175 115.495122,38.1804878 C115.265425,37.9654707 114.963398,37.8444859 114.64878,37.8414634 C114.329062,37.8540593 114.027745,37.9943324 113.812284,38.2308811 C113.596823,38.4674297 113.485213,38.7804973 113.502439,39.1 L113.502439,39.1170732 C113.483757,39.443817 113.599614,39.7639712 113.823069,40.0030912 C114.046524,40.2422112 114.358107,40.3794611 114.685366,40.3829268 C115.014158,40.3790358 115.329745,40.2529747 115.570732,40.0292683 C115.685335,39.9277649 115.84938,39.9042741 115.987864,39.9695363 C116.126347,40.0347985 116.212651,40.1762706 116.207317,40.3292683 C116.211601,40.4389151 116.164745,40.544339 116.080488,40.6146341 C115.698388,40.9915924 115.177878,41.1945028 114.641463,41.1756098 C114.098449,41.182175 113.575618,40.9700329 113.190704,40.586954 C112.80579,40.203875 112.591152,39.6820645 112.595122,39.1390244 Z" id="Shape" fill="#808080" fill-rule="nonzero"></path>
                    <path d="M120.604878,40.6804878 C120.604878,40.9323835 120.400676,41.1365854 120.14878,41.1365854 C119.896885,41.1365854 119.692683,40.9323835 119.692683,40.6804878 L119.692683,40.4878049 C119.433031,40.9225178 118.962435,41.1870541 118.456098,41.1829268 C117.563415,41.1829268 117.046341,40.5829268 117.046341,39.6634146 L117.046341,37.5609756 C117.046341,37.3104269 117.249451,37.1073171 117.5,37.1073171 C117.750549,37.1073171 117.953659,37.3104269 117.953659,37.5609756 L117.953659,39.395122 C117.953659,40.0097561 118.260976,40.3536585 118.8,40.3536585 C119.339024,40.3536585 119.692683,39.995122 119.692683,39.3780488 L119.692683,37.5609756 C119.691374,37.4393909 119.738927,37.3223697 119.824676,37.2361624 C119.910425,37.1499551 120.027191,37.1017783 120.14878,37.102439 C120.40107,37.103781 120.604882,37.3086823 120.604878,37.5609756 L120.604878,40.6804878 Z" id="Shape" fill="#808080" fill-rule="nonzero"></path>
                    <path d="M121.739024,37.5609756 C121.735718,37.4400756 121.781616,37.3230093 121.866213,37.2365735 C121.950809,37.1501377 122.066862,37.1017329 122.187805,37.102439 C122.309395,37.1017783 122.426161,37.1499551 122.51191,37.2361624 C122.597658,37.3223697 122.645212,37.4393909 122.643902,37.5609756 L122.643902,37.9634146 C122.853659,37.4756098 123.243902,37.095122 123.641463,37.095122 C123.762977,37.0863023 123.882323,37.1307443 123.968472,37.2168936 C124.054622,37.3030429 124.099064,37.4223886 124.090244,37.5439024 C124.097915,37.759018 123.944209,37.9461842 123.731707,37.9804878 C123.085366,38.0926829 122.643902,38.5853659 122.643902,39.5219512 L122.643902,40.6902439 C122.643257,40.8105622 122.594841,40.925696 122.509306,41.0103165 C122.423771,41.0949369 122.308123,41.142112 122.187805,41.1414634 C122.068155,41.1421244 121.95325,41.0947185 121.868874,41.0098834 C121.784497,40.9250482 121.737715,40.809888 121.739024,40.6902439 L121.739024,37.5609756 Z" id="Shape" fill="#808080" fill-rule="nonzero"></path>
                    <path d="M126.646341,41.1829268 C126.099344,41.1988753 125.570234,40.9872264 125.185137,40.5984314 C124.80004,40.2096363 124.593458,39.6785278 124.614634,39.1317073 L124.614634,39.1146341 C124.614634,37.9853659 125.417073,37.0560976 126.54878,37.0560976 C127.807317,37.0560976 128.429268,38.0902439 128.429268,39.0073171 C128.432579,39.1223946 128.388995,39.2338793 128.308514,39.3161997 C128.228033,39.3985201 128.117562,39.4446117 128.002439,39.4439024 L125.521951,39.4439024 C125.574719,40.0277383 126.075167,40.4681753 126.660976,40.4463415 C127.004461,40.4485927 127.33715,40.3264332 127.597561,40.102439 C127.664369,40.0430659 127.752311,40.0131659 127.841463,40.0195122 C127.93848,40.0187907 128.031591,40.0576854 128.099268,40.1272031 C128.166944,40.1967209 128.203325,40.2908423 128.2,40.3878049 C128.199085,40.492059 128.155967,40.5914937 128.080488,40.6634146 C127.688325,41.0167254 127.1738,41.2031092 126.646341,41.1829268 Z M127.543902,38.8390244 C127.485366,38.2536585 127.139024,37.797561 126.541463,37.797561 C125.985366,37.797561 125.597561,38.2243902 125.514634,38.8390244 L127.543902,38.8390244 Z" id="Shape" fill="#808080" fill-rule="nonzero"></path>
                    <path d="M129.358537,37.5609756 C129.355912,37.4402704 129.402033,37.3235988 129.486482,37.2373141 C129.57093,37.1510295 129.686583,37.1024105 129.807317,37.102439 C129.929128,37.1017859 130.046138,37.1498861 130.132272,37.2360204 C130.218407,37.3221546 130.266507,37.4391651 130.265854,37.5609756 L130.265854,37.7463415 C130.521903,37.3255091 130.978129,37.0678432 131.470732,37.0658537 C131.968804,37.0417321 132.433981,37.314521 132.656098,37.7609756 C132.955686,37.320993 133.455541,37.0600799 133.987805,37.0658537 C134.85122,37.0658537 135.37561,37.6121951 135.37561,38.5780488 L135.37561,40.6902439 C135.378303,40.8107202 135.331629,40.9270611 135.246418,41.012272 C135.161207,41.0974829 135.044867,41.1441566 134.92439,41.1414634 C134.803679,41.1434337 134.687266,41.0966865 134.601441,41.0117799 C134.515617,40.9268733 134.46762,40.8109689 134.468293,40.6902439 L134.468293,38.8560976 C134.468293,38.2268293 134.17561,37.8804878 133.665854,37.8804878 C133.156098,37.8804878 132.819512,38.2243902 132.819512,38.8560976 L132.819512,40.6756098 C132.802098,40.9126228 132.604725,41.0960268 132.367073,41.0960268 C132.129421,41.0960268 131.932048,40.9126228 131.914634,40.6756098 L131.914634,38.8341463 C131.914634,38.2195122 131.614634,37.8756098 131.112195,37.8756098 C130.609756,37.8756098 130.265854,38.2487805 130.265854,38.8512195 L130.265854,40.6707317 C130.265854,40.9212804 130.062744,41.1243902 129.812195,41.1243902 C129.561646,41.1243902 129.358537,40.9212804 129.358537,40.6707317 L129.358537,37.5609756 Z" id="Shape" fill="#808080" fill-rule="nonzero"></path>
                    <path d="M138.292683,41.1829268 C137.745891,41.1989163 137.216999,40.9871965 136.83228,40.5983157 C136.447561,40.209435 136.241543,39.6782956 136.263415,39.1317073 L136.263415,39.1146341 C136.263415,37.9853659 137.063415,37.0560976 138.195122,37.0560976 C139.453659,37.0560976 140.07561,38.0902439 140.07561,39.0073171 C140.07892,39.1223946 140.035336,39.2338793 139.954856,39.3161997 C139.874375,39.3985201 139.763903,39.4446117 139.64878,39.4439024 L137.165854,39.4439024 C137.219797,40.0271407 137.719513,40.4669327 138.304878,40.4463415 C138.64844,40.4490364 138.981281,40.3268214 139.241463,40.102439 C139.308412,40.0433081 139.396249,40.0134437 139.485366,40.0195122 C139.58217,40.0194763 139.674876,40.0585869 139.742402,40.1279506 C139.809928,40.1973144 139.846537,40.2910362 139.843902,40.3878049 C139.841905,40.4918264 139.79896,40.5908622 139.72439,40.6634146 C139.332305,41.0152331 138.819147,41.2014384 138.292683,41.1829268 Z M139.192683,38.8390244 C139.131707,38.2536585 138.787805,37.797561 138.187805,37.797561 C137.634146,37.797561 137.243902,38.2243902 137.160976,38.8390244 L139.192683,38.8390244 Z" id="Shape" fill="#808080" fill-rule="nonzero"></path>
                    <path d="M141.002439,37.5609756 C140.999803,37.4398461 141.046256,37.3227971 141.131236,37.236439 C141.216216,37.150081 141.332502,37.1017519 141.453659,37.102439 C141.575248,37.1017783 141.692014,37.1499551 141.777763,37.2361624 C141.863512,37.3223697 141.911065,37.4393909 141.909756,37.5609756 L141.909756,37.7536585 C142.172631,37.323211 142.641986,37.0621498 143.146341,37.0658537 C144.036585,37.0658537 144.553659,37.6658537 144.553659,38.5780488 L144.553659,40.6902439 C144.556329,40.8102886 144.509986,40.9262419 144.425311,41.0113771 C144.340636,41.0965123 144.224935,41.1434833 144.104878,41.1414634 C143.984167,41.1434337 143.867753,41.0966865 143.781929,41.0117799 C143.696104,40.9268733 143.648108,40.8109689 143.64878,40.6902439 L143.64878,38.8560976 C143.64878,38.2414634 143.341463,37.8804878 142.802439,37.8804878 C142.263415,37.8804878 141.909756,38.2463415 141.909756,38.8560976 L141.909756,40.6756098 C141.909756,40.9261584 141.706646,41.1292683 141.456098,41.1292683 C141.205549,41.1292683 141.002439,40.9261584 141.002439,40.6756098 L141.002439,37.5609756 Z" id="Shape" fill="#808080" fill-rule="nonzero"></path>
                    <path d="M145.836585,40 L145.836585,37.9170732 L145.687805,37.9170732 C145.541466,37.9286694 145.401,37.8571618 145.324276,37.7320103 C145.247553,37.6068588 145.247553,37.4492387 145.324276,37.3240873 C145.401,37.1989358 145.541466,37.1274281 145.687805,37.1390244 L145.836585,37.1390244 L145.836585,36.4634146 C145.836585,36.2128659 146.039695,36.0097561 146.290244,36.0097561 C146.540793,36.0097561 146.743902,36.2128659 146.743902,36.4634146 L146.743902,37.1390244 L147.456098,37.1390244 C147.602436,37.1274281 147.742902,37.1989358 147.819626,37.3240873 C147.89635,37.4492387 147.89635,37.6068588 147.819626,37.7320103 C147.742902,37.8571618 147.602436,37.9286694 147.456098,37.9170732 L146.743902,37.9170732 L146.743902,39.8682927 C146.723873,40.0028178 146.76878,40.138876 146.864952,40.2350482 C146.961124,40.3312204 147.097182,40.376127 147.231707,40.3560976 C147.336585,40.3560976 147.426829,40.3341463 147.458537,40.3341463 C147.666247,40.3354315 147.835059,40.5020795 147.839024,40.7097561 C147.834806,40.8649167 147.739036,41.0028262 147.595122,41.0609756 C147.395659,41.1325181 147.185065,41.16803 146.973171,41.1658537 C146.309756,41.1609756 145.836585,40.8682927 145.836585,40 Z" id="Shape" fill="#808080" fill-rule="nonzero"></path>
                    <path d="M53.8073171,48.5365854 L55.2365854,45.3463415 C55.3024326,45.1795158 55.4645678,45.0707785 55.6439024,45.0731707 L55.6780488,45.0731707 C55.8555734,45.0710092 56.0154619,45.1802013 56.0780488,45.3463415 L57.5073171,48.5365854 C57.5320283,48.579702 57.5454514,48.6283607 57.5463415,48.6780488 C57.5483242,48.7638271 57.5154589,48.8467471 57.4552496,48.9078756 C57.3950403,48.9690041 57.3126278,49.0031219 57.2268293,49.002439 C57.0758506,49.0009778 56.9429552,48.9025368 56.897561,48.7585366 L56.5853659,48.0487805 L54.7146341,48.0487805 L54.3902439,48.7804878 C54.3437433,48.9121704 54.2176505,48.9988592 54.0780488,48.995122 C53.9946298,48.9964385 53.9142067,48.9640491 53.8549841,48.9052857 C53.7957615,48.8465222 53.7627473,48.7663535 53.7634146,48.6829268 C53.7668908,48.6314715 53.7818952,48.5814569 53.8073171,48.5365854 Z M56.3268293,47.4463415 L55.6487805,45.8902439 L54.9731707,47.4463415 L56.3268293,47.4463415 Z" id="Shape" fill="#DA1736" fill-rule="nonzero"></path>
                    <path d="M59.9268293,45.4658537 C59.9248319,45.3751191 59.959828,45.2874752 60.0237722,45.223071 C60.0877163,45.1586668 60.1751071,45.1230433 60.2658537,45.1243902 L61.4439024,45.1243902 C62.3439024,45.1243902 62.9073171,45.6365854 62.9073171,46.4121951 C62.9073171,47.2756098 62.2146341,47.7268293 61.3682927,47.7268293 L60.604878,47.7268293 L60.604878,48.6560976 C60.5899548,48.8315651 60.4431742,48.9663921 60.2670732,48.9663921 C60.0909721,48.9663921 59.9441915,48.8315651 59.9292683,48.6560976 L59.9268293,45.4658537 Z M61.3902439,47.1268293 C61.902439,47.1268293 62.2195122,46.8390244 62.2195122,46.4390244 L62.2195122,46.4268293 C62.2195122,45.9780488 61.895122,45.7414634 61.3902439,45.7414634 L60.604878,45.7414634 L60.604878,47.1268293 L61.3902439,47.1268293 Z" id="Shape" fill="#DA1736" fill-rule="nonzero"></path>
                    <path d="M63.3292683,48.1365854 C63.3292683,47.5097561 63.8170732,47.202439 64.5268293,47.202439 C64.7917562,47.1996213 65.0553723,47.2399875 65.3073171,47.3219512 L65.3073171,47.2512195 C65.3073171,46.8390244 65.0634146,46.6195122 64.5878049,46.6195122 C64.3678475,46.6165965 64.1493389,46.6554976 63.9439024,46.7341463 C63.9100676,46.7453546 63.8746672,46.7511174 63.8390244,46.7512195 C63.7652804,46.7518692 63.694299,46.7231962 63.6416967,46.6715087 C63.5890944,46.6198213 63.5591806,46.5493538 63.5585366,46.4756098 C63.5617,46.3592393 63.6335279,46.2558072 63.7414634,46.2121951 C64.0388426,46.0952979 64.3561068,46.0373122 64.6756098,46.0414634 C65.0267507,46.0141662 65.3738268,46.1313265 65.6365854,46.3658537 C65.8594745,46.6086373 65.9731808,46.9321273 65.9512195,47.2609756 L65.9512195,48.6902439 C65.9519024,48.7760424 65.9177846,48.8584549 65.8566561,48.9186642 C65.7955276,48.9788735 65.7126076,49.0117388 65.6268293,49.0097561 C65.5464165,49.0164696 65.4666896,48.990506 65.4056506,48.937728 C65.3446116,48.8849499 65.3074076,48.8098077 65.302439,48.7292683 L65.302439,48.6195122 C65.0693541,48.8993924 64.7201237,49.0560061 64.3560976,49.0439024 C63.8121951,49.0243902 63.3292683,48.7195122 63.3292683,48.1365854 Z M65.3170732,47.9292683 L65.3170732,47.7292683 C65.1064358,47.6510421 64.8832174,47.6121856 64.6585366,47.6146341 C64.2292683,47.6146341 63.9780488,47.797561 63.9780488,48.102439 C63.9780488,48.3829268 64.2219512,48.5414634 64.5439024,48.5414634 C64.9829268,48.5487805 65.3170732,48.2926829 65.3170732,47.9292683 Z" id="Shape" fill="#DA1736" fill-rule="nonzero"></path>
                    <path d="M66.8121951,49.7853659 C66.6889903,49.7520776 66.6037895,49.6398131 66.604878,49.5121951 C66.6029024,49.4397803 66.6302942,49.369644 66.6808246,49.3177356 C66.7313549,49.2658271 66.800729,49.2365584 66.8731707,49.2365854 C66.9147561,49.2371006 66.9559671,49.2445186 66.995122,49.2585366 C67.0689755,49.2836843 67.1463757,49.2968588 67.2243902,49.297561 C67.4243902,49.297561 67.5268293,49.2146341 67.6365854,48.9902439 L67.6609756,48.9292683 L66.5853659,46.5219512 C66.562896,46.4710378 66.5496812,46.4165267 66.5463415,46.3609756 C66.5456591,46.2738836 66.580291,46.1902308 66.6423341,46.1291068 C66.7043772,46.0679828 66.7885376,46.0346033 66.8756098,46.0365854 C67.0263843,46.035386 67.1592834,46.1353102 67.2,46.2804878 L67.9804878,48.2097561 L68.7121951,46.2804878 C68.7542154,46.1393074 68.882033,46.0409862 69.0292683,46.0365854 C69.198349,46.0378149 69.3362249,46.1724594 69.3414634,46.3414634 C69.339154,46.3952197 69.3301412,46.4484772 69.3146341,46.5 L68.2536585,49.0463415 C68.0097561,49.6390244 67.7414634,49.8585366 67.2780488,49.8585366 C67.1194012,49.8661336 66.9608743,49.8412341 66.8121951,49.7853659 Z" id="Shape" fill="#DA1736" fill-rule="nonzero"></path>
                    <path d="M70.0512195,45.4439024 C70.0505642,45.3531414 70.0863292,45.2659076 70.1505086,45.2017281 C70.214688,45.1375487 70.3019219,45.1017837 70.3926829,45.102439 L70.4634146,45.102439 C70.5931559,45.1015319 70.7129777,45.17174 70.7756098,45.2853659 L71.9414634,47.1097561 L73.1121951,45.2780488 C73.1739324,45.1668441 73.2923616,45.0991703 73.4195122,45.102439 L73.4926829,45.102439 C73.583022,45.1024367 73.6696258,45.1384898 73.7332758,45.2025977 C73.7969258,45.2667056 73.8323572,45.3535657 73.8317073,45.4439024 L73.8317073,48.6658537 C73.8317169,48.7553265 73.7958434,48.8410656 73.7321198,48.9038723 C73.6683962,48.966679 73.5821462,49.0013062 73.4926829,49 C73.3082839,48.9986924 73.1587462,48.8502383 73.1560976,48.6658537 L73.1560976,46.3560976 L72.2170732,47.7682927 C72.1602944,47.8737383 72.051426,47.9407342 71.9317073,47.9439024 C71.8132953,47.9405233 71.7059813,47.8733354 71.6512195,47.7682927 L70.7146341,46.3682927 L70.7146341,48.6707317 C70.715316,48.7591173 70.68017,48.8440104 70.6172123,48.9060491 C70.5542546,48.9680877 70.4688538,49.0019815 70.3804878,49 C70.2927596,49.0013294 70.2082343,48.9670659 70.146194,48.9050255 C70.0841537,48.8429852 70.0498901,48.7584599 70.0512195,48.6707317 L70.0512195,45.4439024 Z" id="Shape" fill="#DA1736" fill-rule="nonzero"></path>
                    <path d="M76.0756098,49.0390244 C75.673864,49.0508624 75.2852542,48.8952781 75.002677,48.6094635 C74.7200999,48.323649 74.5689523,47.9332922 74.5853659,47.5317073 C74.5661368,47.1410895 74.7064526,46.7594245 74.9741192,46.4742814 C75.2417859,46.1891383 75.6138257,46.0249949 76.004878,46.0195122 C76.3798426,46.017867 76.7391706,46.1696304 76.9994323,46.4395655 C77.259694,46.7095006 77.3982489,47.0741255 77.3829268,47.4487805 C77.3855848,47.5330349 77.3537897,47.6147336 77.2948776,47.6750265 C77.2359654,47.7353194 77.1550251,47.7689983 77.0707317,47.7682927 L75.2512195,47.7682927 C75.2922127,48.1943066 75.6576422,48.5148588 76.0853659,48.5 C76.3364393,48.5036581 76.5804926,48.4171144 76.7731707,48.2560976 C76.8201329,48.2145908 76.8812713,48.1927556 76.9439024,48.195122 C77.0150508,48.1950945 77.0831845,48.2238492 77.1328002,48.2748431 C77.1824158,48.3258369 77.2092934,48.3947328 77.2073171,48.4658537 C77.206107,48.542319 77.1745139,48.6151587 77.1195122,48.6682927 C76.8322386,48.9216359 76.4583259,49.0544273 76.0756098,49.0390244 Z M76.7341463,47.3170732 C76.6902439,46.8902439 76.4390244,46.5536585 76.002439,46.5536585 C75.5658537,46.5536585 75.3097561,46.8682927 75.2487805,47.3170732 L76.7341463,47.3170732 Z" id="Shape" fill="#DA1736" fill-rule="nonzero"></path>
                    <path d="M78.0658537,46.3731707 C78.0638845,46.2845826 78.097704,46.1989397 78.1596685,46.1355983 C78.221633,46.0722568 78.3065119,46.0365635 78.395122,46.0365854 C78.4841673,46.036583 78.5695304,46.0721222 78.6322656,46.1353153 C78.6950008,46.1985084 78.7299183,46.2841278 78.7292683,46.3731707 L78.7292683,46.5146341 C78.9220362,46.1986599 79.2664616,46.0070038 79.6365854,46.0097561 C80.2902439,46.0097561 80.6707317,46.4487805 80.6707317,47.1195122 L80.6707317,48.6707317 C80.6720612,48.7584599 80.6377976,48.8429852 80.5757572,48.9050255 C80.5137169,48.9670659 80.4291916,49.0013294 80.3414634,49 C80.2528752,49.0019691 80.1672324,48.9681497 80.1038909,48.9061852 C80.0405495,48.8442207 80.0048562,48.7593418 80.004878,48.6707317 L80.004878,47.3170732 C80.004878,46.8658537 79.7804878,46.6073171 79.3829268,46.6073171 C79.1967738,46.6040091 79.0182357,46.6811355 78.8930423,46.8189417 C78.767849,46.9567478 78.7081616,47.1418471 78.7292683,47.3268293 L78.7292683,48.6634146 C78.7292683,48.8466115 78.5807579,48.995122 78.397561,48.995122 C78.2143641,48.995122 78.0658537,48.8466115 78.0658537,48.6634146 L78.0658537,46.3731707 Z" id="Shape" fill="#DA1736" fill-rule="nonzero"></path>
                    <path d="M81.6097561,48.1707317 L81.6097561,46.6414634 L81.5,46.6414634 C81.3423968,46.6414634 81.2146341,46.5137008 81.2146341,46.3560976 C81.2146341,46.1984944 81.3423968,46.0707317 81.5,46.0707317 L81.6097561,46.0707317 L81.6097561,45.5829268 C81.6245646,45.410072 81.7691949,45.2773025 81.9426829,45.2773025 C82.1161709,45.2773025 82.2608012,45.410072 82.2756098,45.5829268 L82.2756098,46.0707317 L82.797561,46.0707317 C82.9551642,46.0707317 83.0829268,46.1984944 83.0829268,46.3560976 C83.0829268,46.5137008 82.9551642,46.6414634 82.797561,46.6414634 L82.2756098,46.6414634 L82.2756098,48.0658537 C82.2600392,48.1648736 82.2922076,48.265425 82.3623612,48.3370201 C82.4325148,48.4086153 82.5323912,48.4428218 82.6317073,48.4292683 C82.6872638,48.4266316 82.7426325,48.4209319 82.797561,48.4121951 C82.9505849,48.412172 83.0753875,48.5348041 83.0780488,48.6878049 C83.07487,48.8008335 83.0063386,48.9017269 82.902439,48.9463415 C82.7537505,48.9993735 82.596881,49.0257936 82.4390244,49.0243902 C81.9512195,49.0243902 81.6097561,48.8073171 81.6097561,48.1707317 Z" id="Shape" fill="#DA1736" fill-rule="nonzero"></path>
                    <path d="M85.0609756,49.0390244 C84.6596472,49.0501729 84.271687,48.8942845 83.989651,48.6085496 C83.7076149,48.3228147 83.5567944,47.9328564 83.5731707,47.5317073 C83.5539524,47.1415063 83.6939393,46.760216 83.9610762,46.4751474 C84.2282131,46.1900788 84.5996181,46.0256496 84.9902439,46.0195122 C85.3656309,46.0171982 85.7255991,46.1686681 85.9863951,46.4386795 C86.2471912,46.7086909 86.3860747,47.0737001 86.3707317,47.4487805 C86.3727151,47.533265 86.340364,47.6149446 86.2810694,47.6751585 C86.2217748,47.7353724 86.1406026,47.7689762 86.0560976,47.7682927 L84.2365854,47.7682927 C84.2787858,48.1946827 84.6449584,48.5149503 85.0731707,48.5 C85.3242442,48.5036581 85.5682975,48.4171144 85.7609756,48.2560976 C85.807318,48.2151782 85.8674703,48.1933839 85.9292683,48.195122 C86.0008388,48.1944315 86.0696089,48.2228947 86.1197571,48.273963 C86.1699053,48.3250313 86.1971134,48.3943075 86.195122,48.4658537 C86.1939119,48.542319 86.1623188,48.6151587 86.1073171,48.6682927 C85.8189075,48.921348 85.4443701,49.0540513 85.0609756,49.0390244 Z M85.7219512,47.3170732 C85.6780488,46.8902439 85.4243902,46.5536585 84.9902439,46.5536585 C84.5560976,46.5536585 84.297561,46.8682927 84.2365854,47.3170732 L85.7219512,47.3170732 Z" id="Shape" fill="#DA1736" fill-rule="nonzero"></path>
                    <path d="M88.7804878,45.4658537 C88.7791597,45.3748913 88.8147085,45.2872649 88.8790355,45.2229379 C88.9433625,45.158611 89.0309888,45.1230621 89.1219512,45.1243902 L90.5073171,45.1243902 C90.8742876,45.100579 91.235706,45.2233911 91.5121951,45.4658537 C91.6827283,45.6331457 91.7763289,45.8636152 91.7707317,46.102439 C91.7775868,46.4730746 91.5612129,46.8115795 91.2219512,46.9609756 C91.6707317,47.1146341 91.9853659,47.3707317 91.9853659,47.895122 C91.9853659,48.5829268 91.4195122,48.9512195 90.5609756,48.9512195 L89.1219512,48.9512195 C89.0309888,48.9525476 88.9433625,48.9169988 88.8790355,48.8526718 C88.8147085,48.7883448 88.7791597,48.7007185 88.7804878,48.6097561 L88.7804878,45.4658537 Z M90.3682927,46.7463415 C90.802439,46.7463415 91.1,46.5756098 91.1,46.2243902 L91.1,46.2121951 C91.1,45.9097561 90.8560976,45.7243902 90.4219512,45.7243902 L89.4463415,45.7243902 L89.4463415,46.7463415 L90.3682927,46.7463415 Z M90.5658537,48.3731707 C91.0292683,48.3731707 91.3097561,48.1926829 91.3097561,47.8463415 C91.3097561,47.5219512 91.0512195,47.3292683 90.5170732,47.3292683 L89.4463415,47.3292683 L89.4463415,48.3853659 L90.5658537,48.3731707 Z" id="Shape" fill="#DA1736" fill-rule="nonzero"></path>
                    <path d="M92.6682927,46.3731707 C92.6663115,46.2841579 92.7004624,46.1981368 92.7629584,46.1347218 C92.8254544,46.0713068 92.9109677,46.0359038 93,46.0365854 C93.0890453,46.036583 93.1744085,46.0721222 93.2371437,46.1353153 C93.2998788,46.1985084 93.3347963,46.2841278 93.3341463,46.3731707 L93.3341463,46.6707317 C93.4878049,46.3073171 93.7731707,46.0317073 94.0658537,46.0317073 C94.1550503,46.0250721 94.2427119,46.0576258 94.3059577,46.1208716 C94.3692034,46.1841174 94.4017572,46.271779 94.395122,46.3609756 C94.400746,46.5187668 94.2876752,46.6559175 94.1317073,46.6804878 C93.6585366,46.7634146 93.3341463,47.1268293 93.3341463,47.8121951 L93.3341463,48.6707317 C93.3335018,48.7587067 93.2979346,48.8428222 93.2352695,48.9045725 C93.1726044,48.9663228 93.087975,49.0006493 93,49 C92.9122508,49.00065 92.8278722,48.9662465 92.7655939,48.9044261 C92.7033156,48.8426058 92.6682903,48.7584833 92.6682927,48.6707317 L92.6682927,46.3731707 Z" id="Shape" fill="#DA1736" fill-rule="nonzero"></path>
                    <path d="M94.7463415,48.1365854 C94.7463415,47.5097561 95.2341463,47.202439 95.9463415,47.202439 C96.2112499,47.1998807 96.4748245,47.2402405 96.7268293,47.3219512 L96.7268293,47.2512195 C96.7268293,46.8390244 96.4829268,46.6195122 95.995122,46.6195122 C95.7759732,46.6167873 95.5582991,46.6556873 95.3536585,46.7341463 C95.3197855,46.7451983 95.2844099,46.7509571 95.2487805,46.7512195 C95.1750365,46.7518692 95.1040551,46.7231962 95.0514528,46.6715087 C94.9988505,46.6198213 94.9689367,46.5493538 94.9682927,46.4756098 C94.9710406,46.359829 95.0418006,46.2565576 95.1487805,46.2121951 C95.446295,46.0957734 95.7634655,46.0378049 96.0829268,46.0414634 C96.4347831,46.0143465 96.7825446,46.1314408 97.0463415,46.3658537 C97.2683468,46.6090336 97.3811555,46.9324772 97.3585366,47.2609756 L97.3585366,48.6902439 C97.3599119,48.7762514 97.3260141,48.8590718 97.2647308,48.9194335 C97.2034475,48.9797952 97.1201231,49.0124343 97.0341463,49.0097561 C96.9537336,49.0164696 96.8740067,48.990506 96.8129677,48.937728 C96.7519287,48.8849499 96.7147246,48.8098077 96.7097561,48.7292683 L96.7097561,48.6195122 C96.4774319,48.8990047 96.1291075,49.0556156 95.7658537,49.0439024 C95.2317073,49.0243902 94.7463415,48.7195122 94.7463415,48.1365854 Z M96.7365854,47.9292683 L96.7365854,47.7292683 C96.5258903,47.6512557 96.3027117,47.6124061 96.0780488,47.6146341 C95.6487805,47.6146341 95.395122,47.797561 95.395122,48.102439 C95.395122,48.3829268 95.6390244,48.5414634 95.9609756,48.5414634 C96.402439,48.5487805 96.7365854,48.2926829 96.7365854,47.9292683 Z" id="Shape" fill="#DA1736" fill-rule="nonzero"></path>
                    <path d="M98.1658537,46.3731707 C98.1638845,46.2845826 98.197704,46.1989397 98.2596685,46.1355983 C98.321633,46.0722568 98.4065119,46.0365635 98.495122,46.0365854 C98.5845893,46.0359299 98.6705824,46.071181 98.7338471,46.1344456 C98.7971117,46.1977102 98.8323628,46.2837034 98.8317073,46.3731707 L98.8317073,46.5146341 C99.0241265,46.1982972 99.3687762,46.0065163 99.7390244,46.0097561 C100.392683,46.0097561 100.770732,46.4487805 100.770732,47.1195122 L100.770732,48.6707317 C100.772061,48.7584599 100.737798,48.8429852 100.675757,48.9050255 C100.613717,48.9670659 100.529192,49.0013294 100.441463,49 C100.353097,49.0019815 100.267697,48.9680877 100.204739,48.9060491 C100.141781,48.8440104 100.106635,48.7591173 100.107317,48.6707317 L100.107317,47.3170732 C100.107317,46.8658537 99.8804878,46.6073171 99.4853659,46.6073171 C99.2989581,46.6031967 99.1199166,46.6800809 98.9945411,46.8180875 C98.8691657,46.9560941 98.8097676,47.1416713 98.8317073,47.3268293 L98.8317073,48.6634146 C98.8168988,48.8362695 98.6722685,48.969039 98.4987805,48.969039 C98.3252925,48.969039 98.1806622,48.8362695 98.1658537,48.6634146 L98.1658537,46.3731707 Z" id="Shape" fill="#DA1736" fill-rule="nonzero"></path>
                    <path d="M104.426829,48.6707317 C104.412021,48.8435865 104.26739,48.9763561 104.093902,48.9763561 C103.920414,48.9763561 103.775784,48.8435865 103.760976,48.6707317 L103.760976,48.4878049 C103.548031,48.8281594 103.174651,49.0346713 102.773171,49.0341463 C102.090244,49.0341463 101.42439,48.4878049 101.42439,47.5268293 C101.42439,46.5634146 102.080488,46.0195122 102.773171,46.0195122 C103.1673,46.0146253 103.537866,46.2067705 103.760976,46.5317073 L103.760976,45.2731707 C103.775784,45.1003159 103.920414,44.9675464 104.093902,44.9675464 C104.26739,44.9675464 104.412021,45.1003159 104.426829,45.2731707 L104.426829,48.6707317 Z M102.095122,47.5170732 C102.077008,47.7526501 102.156225,47.9853586 102.314308,48.1609555 C102.472391,48.3365524 102.695529,48.4396951 102.931707,48.4463415 C103.16779,48.4382605 103.390526,48.3348718 103.549083,48.1597705 C103.707639,47.9846692 103.788485,47.7527976 103.773171,47.5170732 C103.789895,47.279952 103.708947,47.046302 103.549115,46.8703481 C103.389282,46.6943943 103.164462,46.5914354 102.926829,46.5853659 C102.689817,46.5897338 102.465361,46.6927381 102.307498,46.8695813 C102.149636,47.0464245 102.072667,47.2810861 102.095122,47.5170732 Z" id="Shape" fill="#DA1736" fill-rule="nonzero"></path>
                </g>
            </g>
        </g>
    </g>
</svg>