<?xml version="1.0" encoding="UTF-8"?>
<!DOCTYPE svg PUBLIC "-//W3C//DTD SVG 1.1//EN" "http://www.w3.org/Graphics/SVG/1.1/DTD/svg11.dtd">
<!-- Creator: CorelDRAW X8 -->
<svg xmlns="http://www.w3.org/2000/svg" xml:space="preserve" width="11.6929in" height="8.26772in" version="1.1" style="shape-rendering:geometricPrecision; text-rendering:geometricPrecision; image-rendering:optimizeQuality; fill-rule:evenodd; clip-rule:evenodd"
viewBox="0 0 11693 8268"
 xmlns:xlink="http://www.w3.org/1999/xlink">
 <defs>
  <style type="text/css">
   <![CDATA[
    .fil2 {fill:#3E882D}
    .fil1 {fill:url(#id0)}
    .fil0 {fill:url(#id1)}
   ]]>
  </style>
  <linearGradient id="id0" gradientUnits="userSpaceOnUse" x1="2408.48" y1="3793.91" x2="3409.55" y2="4975.41">
   <stop offset="0" style="stop-opacity:1; stop-color:#15734E"/>
   <stop offset="1" style="stop-opacity:1; stop-color:#4E9020"/>
  </linearGradient>
  <linearGradient id="id1" gradientUnits="userSpaceOnUse" x1="2164.79" y1="2779.07" x2="3165.85" y2="3960.57">
   <stop offset="0" style="stop-opacity:1; stop-color:#AB0132"/>
   <stop offset="1" style="stop-opacity:1; stop-color:#DD1836"/>
  </linearGradient>
 </defs>
 <g id="Layer_x0020_1">
  <metadata id="CorelCorpID_0Corel-Layer"/>
  <g id="_2754396367424">
   <path class="fil0" d="M2131 3589c111,-253 363,-429 656,-429 293,0 545,176 657,429l0 0 259 -150c-164,-341 -512,-577 -916,-577 -369,0 -693,198 -870,494l0 -344 -289 0 0 577 0 288 866 0 0 -288 -363 0z"/>
   <path class="fil1" d="M3444 4166c-112,252 -364,428 -657,428 -293,0 -545,-176 -656,-428l0 0 -259 149c163,341 512,577 915,577 370,0 693,-198 871,-493l0 344 288 0 0 -577 0 -289 -865 0 0 289 363 0z"/>
  </g>
  <path class="fil2" d="M6887 4016c0,236 -191,427 -427,427 -236,0 -428,-191 -428,-427 0,-236 192,-428 428,-428 236,0 427,192 427,428zm-1091 -731l141 0 0 1143 -141 0 0 -1143zm3015 314l144 0 0 97c75,-67 175,-108 283,-108l35 0 0 140 -35 0c-141,0 -258,101 -283,235l0 465 -144 0 0 -378 0 -34 0 -417zm-923 3l144 0 0 101c76,-69 177,-112 288,-112 236,0 428,192 428,428 0,236 -192,427 -428,427 -111,0 -212,-42 -288,-112l0 412 -144 0 0 -1144zm-2188 196l0 195 0 215 0 32 -9 10c-2,2 -4,4 -6,6l0 0c-1,1 -3,3 -5,5l0 1c-2,1 -4,3 -5,5l-1 0c-1,2 -3,3 -5,5l0 0c-2,2 -3,4 -5,5l0 0 -1 1c-1,1 -3,3 -4,4l-1 1 0 0 0 0c-2,2 -3,3 -5,5l0 0 -1 0c-1,1 -3,3 -4,4l-2 2c-1,1 -3,2 -4,3l-1 1c-2,2 -3,3 -5,4l-1 1 -4 4 -2 1 -4 4 -2 1 -4 3 -3 2 -3 3 -3 2 -2 2 -3 2 -2 1 -1 1c-1,1 -2,2 -4,2l-2 2 0 0 -4 3 -2 1 -1 1c-1,1 -2,2 -4,2l-2 2 0 0c-1,1 -3,2 -4,3l0 0 -3 1c-1,1 -2,2 -4,3l0 0c-92,58 -200,90 -312,90 -322,0 -584,-261 -584,-584 0,-322 262,-584 584,-584 156,0 304,61 413,171l25 25 -99 98 -24 -24c-84,-84 -196,-131 -315,-131 -245,0 -444,200 -444,445 0,246 199,445 444,445 112,0 218,-42 298,-115l0 -246 -380 0 0 -141 380 0 142 0 0 0zm3938 -207c236,0 427,191 427,427 0,236 -191,427 -427,427 -236,0 -428,-191 -428,-427 0,-236 192,-427 428,-427zm287 427c0,-159 -128,-288 -287,-288 -159,0 -288,129 -288,288 0,159 129,288 288,288 159,0 287,-129 287,-288zm-1317 1c0,-159 -129,-288 -288,-288 -159,0 -288,129 -288,288 0,159 129,287 288,287 159,0 288,-128 288,-287zm-1644 -1c0,-236 191,-427 427,-427 236,0 427,191 427,427 0,236 -191,427 -427,427 -236,0 -427,-191 -427,-427zm715 0c0,-159 -129,-288 -288,-288 -159,0 -288,129 -288,288 0,159 129,288 288,288 159,0 288,-129 288,-288zm-1507 -2c0,159 129,287 288,287 159,0 287,-128 287,-287 0,-159 -128,-288 -287,-288 -159,0 -288,129 -288,288z"/>
 </g>
</svg>
