<?xml version="1.0" encoding="UTF-8"?>
<svg width="47px" height="41px" viewBox="0 0 47 41" version="1.1" xmlns="http://www.w3.org/2000/svg" xmlns:xlink="http://www.w3.org/1999/xlink">
    <!-- Generator: sketchtool 53.1 (72631) - https://sketchapp.com -->
    <title>C69BBC80-D31F-42D9-B674-8FA811281881</title>
    <desc>Created with sketchtool.</desc>
    <defs>
        <linearGradient x1="25.8693976%" y1="36.0813134%" x2="74.113253%" y2="63.9337738%" id="linearGradient-1">
            <stop stop-color="#AB0132" offset="0%"></stop>
            <stop stop-color="#DD1836" offset="100%"></stop>
        </linearGradient>
        <linearGradient x1="25.8669238%" y1="36.0641126%" x2="74.1345227%" y2="63.9434383%" id="linearGradient-2">
            <stop stop-color="#15734E" offset="0%"></stop>
            <stop stop-color="#4E9020" offset="100%"></stop>
        </linearGradient>
    </defs>
    <g id="Mockups" stroke="none" stroke-width="1" fill="none" fill-rule="evenodd">
        <g id="presskit-mobile" transform="translate(-150.000000, -2443.000000)">
            <g id="Group-Copy" transform="translate(19.000000, 2396.000000)">
                <g id="gloopro-mark-coloured" transform="translate(131.000000, 47.000000)">
                    <path d="M10.1591133,14.6832512 C12.4009852,9.57339901 17.4906404,6.01871921 23.4083744,6.01871921 C29.3261084,6.01871921 34.4157635,9.57339901 36.6778325,14.6832512 L36.6778325,14.6832512 L41.908867,11.6536946 C38.5965517,4.76650246 31.5679803,0 23.4083744,0 C15.955665,0 9.41182266,3.99901478 5.83694581,9.9773399 L5.83694581,3.02955665 L0,3.02955665 L0,14.6832512 L0,20.5 L17.4906404,20.5 L17.4906404,14.6832512 L10.1591133,14.6832512 Z" id="Path" fill="url(#linearGradient-1)"></path>
                    <path d="M36.6778325,26.3369458 C34.4157635,31.426601 29.3261084,34.9812808 23.4083744,34.9812808 C17.4906404,34.9812808 12.4009852,31.426601 10.1591133,26.3369458 L10.1591133,26.3369458 L4.92807882,29.3463054 C8.22019704,36.2334975 15.2689655,41 23.4083744,41 C30.8812808,41 37.4049261,37.0009852 41,31.0428571 L41,37.9906404 L46.8167488,37.9906404 L46.8167488,26.3369458 L46.8167488,20.5 L29.3463054,20.5 L29.3463054,26.3369458 L36.6778325,26.3369458 Z" id="Path" fill="url(#linearGradient-2)"></path>
                </g>
            </g>
        </g>
    </g>
</svg>