<?xml version="1.0" encoding="UTF-8"?>
<svg width="89px" height="48px" viewBox="0 0 89 48" version="1.1" xmlns="http://www.w3.org/2000/svg" xmlns:xlink="http://www.w3.org/1999/xlink">
    <!-- Generator: sketchtool 50.2 (55047) - http://www.bohemiancoding.com/sketch -->
    <title>BB2F7383-5E73-4401-ABFA-BC38956AF5B4</title>
    <desc>Created with sketchtool.</desc>
    <defs></defs>
    <g id="Mockups" stroke="none" stroke-width="1" fill="none" fill-rule="evenodd">
        <g id="large-enterprises" transform="translate(-860.000000, -2225.000000)" fill-rule="nonzero">
            <g id="div-problem" transform="translate(-390.000000, 652.000000)">
                <g id="ariba-2-logo-svg-vector" transform="translate(1250.000000, 1573.000000)">
                    <path d="M77.9279716,30.6061118 C63.0516244,15.6278827 48.2742096,0 43.5052876,0 C38.7387669,0 23.9584706,15.6278827 9.08116292,30.6061118 C9.03024205,30.6482181 9.00056193,30.7103971 9,30.7761458 C9,30.89998 9.10085333,30.9995237 9.22667988,30.9995237 C9.27263166,30.99913 9.31730515,30.9844729 9.35442743,30.9576106 C9.35634845,30.9576106 9.35634845,30.9557054 9.35826947,30.9557054 C11.7412897,29.4368307 22.1652022,21.5466837 26.3736678,21.5466837 C27.847087,21.5466837 30.231548,22.6088005 32.7557629,24.023845 C29.3589265,27.2221027 26.5038166,30.2965262 26.219026,30.6061118 C26.1682812,30.64817 26.1392043,30.710562 26.1397841,30.7761458 C26.1397841,30.89998 26.239677,30.9995237 26.362622,30.9995237 C26.4088528,30.9999411 26.453929,30.9852073 26.4908498,30.9576106 C26.4927708,30.9576106 26.4946918,30.9557054 26.4946918,30.9557054 C27.7567993,30.1517354 31.2741794,27.5612181 34.9284319,25.2993378 C38.93375,27.744588 42.7426443,30.5565781 43.3770598,30.963326 L43.3809019,30.963326 C43.397258,30.9741077 43.4150346,30.982602 43.4337298,30.9885691 C43.4375718,30.9904743 43.4414139,30.9904743 43.4414139,30.9923794 C43.460651,30.9967858 43.4802726,30.9993379 43.5000048,31 L43.5096099,31 C43.5293695,30.9996862 43.5490279,30.9971293 43.5682009,30.9923794 C43.5720429,30.9904743 43.573964,30.9904743 43.575885,30.9885691 C43.5944106,30.9836816 43.6117339,30.9750915 43.6267919,30.963326 L43.6306339,30.963326 C44.2655297,30.5565781 48.0797067,27.744588 52.0792619,25.2993378 C55.7344749,27.5612181 59.2547365,30.1517354 60.5144427,30.9557054 C60.5163637,30.9557054 60.5163637,30.9576106 60.5182847,30.9576106 C60.5866293,31.0060645 60.6765798,31.0124767 60.7512095,30.9742149 C60.8258392,30.935953 60.8725754,30.8594631 60.8722319,30.7761458 C60.8722242,30.7105856 60.8430528,30.648368 60.7925097,30.6061118 C60.5053179,30.2965262 57.6492475,27.2221027 54.2557729,24.023845 C56.7819088,22.6092768 59.1644488,21.5466837 60.637868,21.5466837 C64.8477743,21.5466837 75.2688053,29.4368307 77.6532663,30.9557054 L77.6561478,30.9576106 C77.7541913,31.0188824 77.8831587,30.9959881 77.9536832,30.9047921 C78.0242076,30.813596 78.0130628,30.6841323 77.9279716,30.6061118 Z M43.5052876,5.02100266 C45.3441801,5.0229078 48.3606553,6.52558883 51.37617,8.34499977 C49.4431478,8.85272021 46.4449222,11.1479404 43.5278596,13.738934 C43.5201755,13.7313135 43.5105704,13.7260743 43.5052876,13.7203589 C43.4976036,13.7260743 43.4903998,13.7313135 43.4846367,13.738934 C40.565653,11.1479404 37.5655065,8.85272021 35.6348855,8.34499977 C38.6499199,6.52558883 41.6692767,5.02338409 43.5052876,5.02100266 Z M34.9375567,22.0263033 C31.9734292,19.395778 28.9315005,17.0705517 27.0008795,16.6095073 C30.0346439,14.7772366 33.0765726,13.2593145 34.9207478,13.2593145 C36.394167,13.2593145 38.778628,14.3214313 41.3023626,15.7364758 C38.8386598,18.0559866 35.1397436,21.8448384 34.9375567,22.0263033 Z M43.5072086,30.4489376 L43.5052876,30.4470324 C43.5033666,30.4470324 43.5033666,30.4470324 43.5033666,30.4489376 C41.43699,28.2393044 39.3030266,26.0927953 37.1044626,24.0124142 C39.6022636,22.6016562 41.9675144,21.5485888 43.5052876,21.5466837 C45.0430609,21.5485888 47.4083117,22.6016562 49.9065929,24.0124142 C47.7068788,26.0917921 45.5727247,28.2383318 43.5072086,30.4489376 Z M52.0749396,22.0263033 C51.8722724,21.8448384 48.1699945,18.0559866 45.7086929,15.7364758 C48.2319473,14.3219076 50.6164082,13.2593145 52.0898274,13.2593145 C53.9340027,13.2593145 56.9759314,14.7772366 60.0092155,16.6095073 C58.0809958,17.0705517 55.0357053,19.395778 52.0749396,22.0263033 Z" id="Shape" fill="#CC2131"></path>
                    <path d="M9.00327652,45.1905677 L3.04406459,45.1905677 L6.0234327,40.2383005 L9.00327652,45.1905677 Z M0,47.9981302 L1.36243178,47.9981302 L2.46655335,46.154002 L9.57983633,46.154002 L10.6839579,47.9981302 L12.0444868,47.9981302 L6.7707722,39.2743988 L5.27371465,39.2743988 L0,47.9981302 Z M23.1185265,43.5881161 L23.1185265,40.2383005 L28.5891848,40.2383005 C30.3559696,40.2383005 30.782681,40.5505635 30.782681,41.5266192 L30.782681,42.3236379 C30.782681,43.2375214 30.2213439,43.5881161 28.8831732,43.5881161 L23.1185265,43.5881161 Z M21.9168845,47.9981302 L23.1180508,47.9981302 L23.1180508,44.5524853 L28.9821208,44.5524853 C30.0733982,44.5524853 30.7489056,44.7212382 30.7489056,46.0834156 L30.7489056,47.9981302 L31.8753855,47.9981302 L31.8753855,45.7692827 C31.8753855,44.973199 31.5794943,44.3458682 30.3559696,44.1303693 L30.3559696,44.104659 C31.2750402,44.0205163 31.9881286,43.6839454 31.9881286,42.4540591 L31.9881286,41.7435205 C31.9881286,40.1027372 31.57997,39.2739313 29.0201776,39.2739313 L21.9168845,39.2739313 L21.9168845,47.9981302 Z M42.7182304,39.2743988 L43.9193967,39.2743988 L43.9193967,48 L42.7182304,48 L42.7182304,39.2743988 Z M63.973403,45.8651119 C63.973403,46.6373552 63.56905,47.0346959 62.4497058,47.0346959 L56.0985093,47.0346959 L56.0985093,43.9854568 L62.2670333,43.9854568 C63.3597379,43.9854568 63.9738787,44.1551447 63.9738787,45.2401184 L63.9738787,45.8651119 L63.973403,45.8651119 Z M63.6289894,41.9482678 C63.6289894,42.8154054 62.9553849,43.0201527 62.3041387,43.0201527 L56.0985093,43.0201527 L56.0985093,40.2383005 L62.3645538,40.2383005 C62.7322772,40.2383005 63.6289894,40.3589051 63.6289894,41.153119 L63.6289894,41.9482678 Z M54.8968673,47.9981302 L62.5976514,47.9981302 C64.0704478,47.9981302 65.175045,47.3600478 65.175045,46.1427829 L65.175045,45.1054901 C65.175045,43.7797746 64.3396993,43.4319846 63.3949404,43.3824339 L63.3949404,43.3324157 C64.4752765,43.2253675 64.8306314,42.58822 64.8306314,41.9608892 L64.8306314,41.2120189 C64.8306314,40.2130577 64.314011,39.2739313 62.4763455,39.2739313 L54.897343,39.2739313 L54.897343,47.9981302 L54.8968673,47.9981302 Z M83.9013464,45.1905677 L77.9411831,45.1905677 L80.9210269,40.2383005 L83.9013464,45.1905677 Z M74.8980699,47.9981302 L76.2609774,47.9981302 L77.3646233,46.154002 L84.4779062,46.154002 L85.5815521,47.9981302 L86.9416053,47.9981302 L81.6678907,39.2743988 L80.1713088,39.2743988 L74.8980699,47.9981302 Z M86.3293673,40.4491248 C86.3284816,40.1375022 86.4539355,39.838365 86.677997,39.6178383 C86.9020585,39.3973117 87.2062748,39.2735572 87.523398,39.2739313 C88.1860612,39.2739313 88.7212343,39.7979536 88.7212343,40.4491248 C88.7212343,41.1002961 88.1860612,41.6243183 87.523398,41.6243183 C87.2062748,41.6246924 86.9020585,41.500938 86.677997,41.2804113 C86.4539355,41.0598846 86.3284816,40.7607474 86.3293673,40.4491248 Z M86.0496502,40.4491248 C86.0496502,41.2497125 86.7101085,41.8987171 87.5248251,41.8987171 C88.3395417,41.8987171 89,41.2497125 89,40.4491248 C89,39.6511712 88.3392396,39 87.523398,39 C86.7097503,39.0015448 86.0506972,39.6495867 86.0496502,40.4491248 Z M86.9573037,41.2671791 L87.2379723,41.2671791 L87.2379723,40.563185 L87.4815355,40.563185 L87.8987327,41.2671791 L88.217458,41.2671791 L87.7583984,40.5505635 C88.0167086,40.5248533 88.206041,40.4070534 88.206041,40.1069444 C88.206041,39.763829 87.9867389,39.6277983 87.5752503,39.6277983 L86.9573037,39.6277983 L86.9573037,41.2671791 Z M87.2379723,40.3350647 L87.2379723,39.8540487 L87.5752503,39.8540487 C87.7398457,39.8540487 87.9272753,39.8905106 87.9272753,40.0849738 C87.9272753,40.3093544 87.7655341,40.3350647 87.5714446,40.3350647 L87.2379723,40.3350647 Z" id="Shape" fill="#000000"></path>
                </g>
            </g>
        </g>
    </g>
</svg>