<?xml version="1.0" encoding="UTF-8"?>
<svg width="137px" height="30px" viewBox="0 0 137 30" version="1.1" xmlns="http://www.w3.org/2000/svg" xmlns:xlink="http://www.w3.org/1999/xlink">
    <!-- Generator: sketchtool 50.2 (55047) - http://www.bohemiancoding.com/sketch -->
    <title>4DF056F3-8D5F-4B7E-B6BD-FFA6C231D561</title>
    <desc>Created with sketchtool.</desc>
    <defs></defs>
    <g id="Mockups" stroke="none" stroke-width="1" fill="none" fill-rule="evenodd">
        <g id="medium-enterprises" transform="translate(-191.000000, -634.000000)" fill-rule="nonzero">
            <g id="axa-mansard-logo" transform="translate(191.000000, 634.000000)">
                <g transform="translate(37.692308, 16.153846)" fill="#00008F" id="Shape">
                    <path d="M98.4615385,5.75387659 C98.3761338,6.13825865 98.3115914,6.5262053 98.200761,6.90583456 C97.6381337,8.84794422 96.1875592,9.9951494 93.9950728,10.1341686 C92.8313535,10.2084309 91.657855,10.1472387 90.4615385,10.1472387 L90.4615385,0.00834509442 C91.3827348,0.00834509442 92.282417,-0.0154188659 93.1788394,0.0172565795 C93.7825392,0.0386441438 94.397974,0.0837956683 94.9808115,0.217467945 C96.9255593,0.6630422 97.947155,1.88985665 98.3148511,3.63116084 C98.3683105,3.88187062 98.4119907,4.1337686 98.4602346,4.38566658 L98.4615385,5.75387659 Z M91.8012826,1.03791867 L91.8012826,1.38606069 C91.8012826,3.86107715 91.8064981,6.33609362 91.7941112,8.81229828 C91.7941112,9.10221859 91.8860352,9.18955114 92.1963604,9.16875768 C92.6299029,9.14380552 93.0654012,9.16400489 93.5002476,9.15093471 C95.0772992,9.10459499 96.2260238,8.33761317 96.7162854,6.96940316 C97.1515387,5.76691087 97.1663458,4.47093303 96.7586618,3.26044306 C96.420955,2.22730488 95.6966456,1.51260378 94.5296666,1.2012959 C93.6449791,0.966626792 92.7466008,1.06346493 91.8012826,1.03791867 Z"></path>
                    <path d="M39.435443,1.53365768 C39.3274616,1.79753182 39.2332234,2.02464147 39.1416028,2.25293708 C38.2613912,4.44694677 37.3746353,6.64095647 36.5107845,8.84445377 C36.404112,9.11722254 36.230033,9.14094157 35.9715322,9.14094157 C35.7130314,9.14094157 35.5677474,9.10239815 35.4676192,8.84801162 C34.5514138,6.51761754 33.61034,4.19433917 32.6771194,1.86868889 C32.6378535,1.76966197 32.5946609,1.67122802 32.5318354,1.52120519 C32.5671748,4.42975048 32.6012052,7.27721928 32.6365446,10.1709402 L31.3846154,10.1709402 L31.3846154,0.00733850476 C31.8800207,0.00733850476 32.366264,-0.00570695829 32.8538162,0.0191980166 C32.9408557,0.0239418214 33.0540725,0.173964646 33.0953017,0.276549424 C33.6515693,1.65660129 34.2010744,3.03843208 34.743817,4.4220418 C35.1174979,5.37080274 35.48398,6.31956369 35.8563521,7.26535976 C35.8943092,7.36260776 35.9407739,7.45689088 36.0212691,7.63774844 C36.1083086,7.43910161 36.1613176,7.32643625 36.2064734,7.21139899 C37.107845,4.8972129 38.0074714,2.58223619 38.9053527,0.266468839 C38.9832302,0.0636711861 39.0905571,-0.00867183625 39.3261528,0.000815773238 C39.7482617,0.018605041 40.171025,0.00615255358 40.6153846,0.00615255358 L40.6153846,10.149593 L39.3124097,10.149593 C39.3536389,7.29085772 39.3942137,4.43627321 39.435443,1.53365768 Z"></path>
                    <path d="M59.1124896,8.52125707 C59.0694967,5.68660033 59.0278267,2.87914873 58.9848338,0.0302980091 L60.3076923,0.0302980091 L60.3076923,10.1671677 C59.8658576,10.1671677 59.4286528,10.1760389 58.9927709,10.1582965 C58.9140608,10.1582965 58.8168307,10.0547987 58.7685464,9.98087168 C57.0898389,7.31358566 55.4142181,4.64491967 53.7416839,1.97487371 C53.6808324,1.87788149 53.6186581,1.78207211 53.5432552,1.66497175 C53.5862481,4.51618813 53.6285795,7.3224569 53.6715724,10.168942 C53.2356905,10.168942 52.8652901,10.1766304 52.4962126,10.161845 C52.4346997,10.161845 52.3500367,10.0684012 52.3249024,10.0039369 C52.2944767,9.92409574 52.3136581,9.82651211 52.3136581,9.74016538 L52.3136581,0.456117506 C52.3136581,0.0302980091 52.3222567,0.0776112865 52.7667372,0.0196525216 C53.5174594,-0.0785225291 53.9037341,0.193528816 54.2622288,0.781987705 C55.8000518,3.31620513 57.4046792,5.81789467 58.9854952,8.33141254 C59.0225352,8.39232838 59.0635438,8.44910432 59.1124896,8.52125707 Z"></path>
                    <path d="M88,10.1672725 C87.5041776,10.1672725 87.0761385,10.1803234 86.65061,10.1571877 C86.5514455,10.1512554 86.4265485,10.0385428 86.3694347,9.94422013 C85.5980857,8.67887255 84.8305025,7.41055884 84.0779822,6.13453322 C83.9486918,5.91563343 83.8043384,5.827243 83.5375986,5.83792104 C83.1101871,5.85927711 82.6802652,5.85453132 82.2522261,5.83792104 C82.0093359,5.82902267 81.9283725,5.89724347 81.930883,6.13453322 C81.9428078,7.3803044 81.9365316,8.62607558 81.935904,9.87184676 C81.935904,9.95845752 81.9277449,10.0456615 81.9220963,10.1471029 L80.6153846,10.1471029 L80.6153846,0.0308476673 C80.6632347,0.0155918606 80.7126835,0.00524970987 80.7628761,0 C82.1003413,0.0154238336 83.4384341,0.0136441605 84.774644,0.0593224371 C85.1914591,0.082112961 85.6016028,0.168661312 85.989095,0.315595365 C87.0234182,0.691106392 87.6077355,1.42373849 87.6479033,2.47493208 C87.666732,2.97027443 87.6340956,3.49112542 87.4891147,3.9627388 C87.2255129,4.81104965 86.5351273,5.29986653 85.6821873,5.60241096 C85.5566626,5.64690279 85.431138,5.68902172 85.2779979,5.74300514 L88,10.1672725 Z M81.9484564,4.84842278 C82.4718942,4.84842278 82.962068,4.87037209 83.4484761,4.84249054 C83.9668929,4.81282932 84.4984898,4.79503259 84.9943122,4.66808258 C86.0047856,4.41002997 86.4234103,3.72485583 86.3581375,2.58705148 C86.3110658,1.7672154 85.7932766,1.21729641 84.7802926,1.10399055 C83.8815361,1.00551531 82.9677166,1.03339685 82.060801,1.00848143 C82.0250265,1.00848143 81.9886243,1.03576975 81.9484564,1.05238003 L81.9484564,4.84842278 Z"></path>
                    <path d="M8.61538462,10.1631588 C8.22994484,10.1631588 7.89841705,10.145975 7.57060734,10.1684916 C7.3227361,10.1862679 7.21119404,10.1092373 7.13683267,9.87222012 C6.87161044,9.0130327 6.57912238,8.16214089 6.30522466,7.30413856 C6.24325685,7.11274715 6.15340353,7.03690164 5.93713587,7.03867927 C4.82171529,7.04815996 3.70629471,7.04815996 2.59087413,7.03867927 C2.37026873,7.03867927 2.28103508,7.12459801 2.22464438,7.3088789 C1.94764827,8.17517684 1.6551602,9.03732697 1.38250184,9.90480999 C1.32053403,10.0950163 1.24369395,10.180935 1.02122951,10.166714 C0.693419793,10.145975 0.362511688,10.1613811 0,10.1613811 C0.0122852575,10.0831375 0.0290416466,10.0055959 0.050193926,9.92910425 C1.18998851,6.70171979 2.32833718,3.47295273 3.46523993,0.242803065 C3.52720774,0.0602998063 3.61272332,-0.00784264411 3.81225967,0.00163804464 C4.12181837,0.01946179 4.43221811,0.01946179 4.74177682,0.00163804464 C4.97043803,-0.0131755315 5.06400943,0.0721506672 5.13403305,0.271245131 C6.20401057,3.325212 7.27811928,6.37779626 8.35635917,9.42899792 C8.437537,9.65890463 8.51809515,9.88999641 8.61538462,10.1631588 Z M5.8739287,6.03254118 C5.34534329,4.34616367 4.82915143,2.69830145 4.31357925,1.05043924 L4.23983756,1.05517958 C3.71992763,2.70778214 3.19815867,4.36097724 2.67143229,6.03254118 L5.8739287,6.03254118 Z"></path>
                    <path d="M79.3846154,10.1666587 C78.955084,10.1666587 78.5732095,10.1802852 78.1938108,10.1559946 C78.1034483,10.15007 77.9759505,10.0303943 77.9462423,9.9379714 C77.6510168,9.07772787 77.3650752,8.21333715 77.0952255,7.3453917 C77.0234306,7.11551946 76.9095491,7.04027778 76.6619805,7.04324005 C75.5796935,7.05627404 74.4967875,7.05627404 73.4132626,7.04324005 C73.1755968,7.04324005 73.0685234,7.11848174 73.0004421,7.33354262 C72.7274978,8.20089561 72.4304156,9.06113915 72.159328,9.92908459 C72.0974359,10.1168926 72.0138815,10.1785078 71.8158267,10.1702135 C71.4778957,10.1554021 71.1387268,10.1660663 70.7692308,10.1660663 C70.8076039,10.0333565 70.8311229,9.92908459 70.8676393,9.82836737 C71.9816976,6.66545174 73.0941055,3.50154868 74.204863,0.336658192 C74.2964633,0.0736085148 74.4214854,-0.0223690701 74.7061892,0.00429137015 C74.9836246,0.0303573431 75.2630597,0.0303573431 75.5404951,0.00429137015 C75.7880637,-0.0194067989 75.8499558,0.110933131 75.9118479,0.294593942 C76.8748895,3.03963186 77.8412319,5.78348488 78.8108753,8.52615298 C78.9971706,9.05817688 79.182847,9.58664605 79.3846154,10.1666587 Z M75.0923961,1.0600448 L75.0156499,1.0600448 L73.4528736,6.02540369 L76.6440318,6.02540369 C76.1204244,4.35112804 75.6091954,2.7064751 75.0923961,1.0600448 Z"></path>
                    <path d="M26.4615385,10.1652585 C26.0628959,10.1652585 25.7119171,10.1528367 25.3627953,10.1699906 C25.1609979,10.1800464 25.0749555,10.1108392 25.0173876,9.93338482 C24.741928,9.06859052 24.4435651,8.21030288 24.1742956,7.34373403 C24.1062045,7.12428213 24.0053058,7.04797675 23.7676059,7.04797675 C22.6752591,7.05822967 21.5816743,7.05822967 20.4868516,7.04797675 C20.2472946,7.04797675 20.150729,7.12664819 20.0826379,7.34373403 C19.8158445,8.20083864 19.5150055,9.04788751 19.2488311,9.90558363 C19.182597,10.1191204 19.0823173,10.1800464 18.8631877,10.1688076 C18.5351123,10.1522452 18.2057988,10.164667 17.8461538,10.164667 C17.8832945,10.0463641 17.9080549,9.95467934 17.9414814,9.8635861 C19.065604,6.67808297 20.1876633,3.49159398 21.3076591,0.304119138 C21.3800833,0.0976805537 21.4729349,-0.00110237948 21.7174439,0.0178260868 C22.1043253,0.0485848444 22.5871533,-0.0821398755 22.8551848,0.0953144954 C23.108979,0.263304633 23.1442625,0.738882347 23.2655886,1.0819608 C24.2993357,4.00601449 25.3310194,6.93006818 26.3606398,9.85412187 C26.3953044,9.94580662 26.4219218,10.0410405 26.4615385,10.1652585 Z M23.7378934,6.04299349 L22.1761305,1.0659899 L22.1049443,1.0659899 C21.5837377,2.71690707 21.0625311,4.36841575 20.5351344,6.04121895 L23.7378934,6.04299349 Z"></path>
                    <path d="M50.4615385,10.1628187 C50.0279821,10.1628187 49.6489299,10.1776316 49.2698778,10.1521534 C49.1819278,10.1468208 49.0599126,10.0206149 49.0277056,9.92640485 C48.7328872,9.06607178 48.4483917,8.20238111 48.1742189,7.33533286 C48.1073273,7.12321217 48.00699,7.03907492 47.7654372,7.03907492 C46.6716363,7.05092523 45.5774226,7.05092523 44.482796,7.03907492 C44.2406238,7.03907492 44.1402865,7.12202714 44.0740143,7.33533286 C43.8083061,8.18381562 43.5165846,9.0257807 43.2558314,9.87544848 C43.1846043,10.1059372 43.0743571,10.1877044 42.8222751,10.1681513 C42.5125919,10.1450432 42.2029088,10.1628187 41.8461538,10.1628187 C41.880219,10.0383904 41.9006581,9.93884768 41.9341039,9.84345262 C43.0625892,6.65374208 44.1883906,3.46343902 45.311508,0.272543446 C45.3827352,0.0693104954 45.4713045,-0.0106791498 45.698612,0.00176368389 C45.9972206,0.021019582 46.2968457,0.021019582 46.5954543,0.00176368389 C46.8196649,-0.0130492134 46.9169054,0.0645703683 46.9875131,0.267803319 C47.6378477,2.13600592 48.2999502,4.00065343 48.9577172,5.86648597 C49.421829,7.18187124 49.8849085,8.49725652 50.3469557,9.8126418 C50.3828789,9.9133695 50.4138473,10.0152822 50.4615385,10.1628187 Z M47.731372,6.03298293 L46.1711884,1.04992429 L46.0974838,1.05466442 C45.5772162,2.70719124 45.0563291,4.36031057 44.5298678,6.0317979 L47.731372,6.03298293 Z"></path>
                    <path d="M62.1538462,9.23636054 L62.9241878,8.36985657 C63.5308948,8.93217523 64.1967621,9.35936774 65.0010894,9.54781721 C65.6442995,9.69809202 66.2919152,9.71142285 66.9244261,9.51267229 C67.6437893,9.28726007 68.1044839,8.82249885 68.175602,8.07536642 C68.2435733,7.36459079 67.9131572,6.83256947 67.263024,6.51929496 C66.4681372,6.13633657 65.6461876,5.80488365 64.8456365,5.4316204 C64.4604656,5.24983636 64.0702599,5.06805231 63.7297739,4.820826 C62.2193,3.73436334 62.2677611,1.63960516 63.8367658,0.631309634 C65.0149354,-0.126123901 66.2912858,-0.156421242 67.5959577,0.298644825 C68.1867449,0.508384246 68.7204123,0.844433082 69.1567807,1.28149058 L68.4707738,2.10194259 C67.9043461,1.61354944 67.2800169,1.25967649 66.5272974,1.16636068 C65.9363245,1.09304112 65.3535333,1.11364331 64.808504,1.37904802 C63.8449475,1.84805086 63.6555089,3.01510446 64.468018,3.6949768 C64.8078746,3.97977181 65.237101,4.17973426 65.6493344,4.36818372 C66.4045714,4.7159972 67.1856122,5.00988141 67.9389611,5.36193652 C68.5462975,5.64551964 69.0246142,6.07755972 69.3015344,6.69138386 C69.8798806,7.99065765 69.3683251,9.50140283 68.1057426,10.222842 C66.3460405,11.2456802 63.5132726,10.7851606 62.1538462,9.23636054 Z"></path>
                    <path d="M13.3263893,4.1471522 C13.4123832,3.99955039 13.4682151,3.91004085 13.518913,3.81638187 C14.1747769,2.62015513 14.8332079,1.42511395 15.4813709,0.224737766 C15.5699318,0.0611309378 15.6738945,-0.00763135237 15.8728357,0.00066754472 C16.2341384,0.0148942255 16.5967246,0.00481699327 17.0100088,0.00481699327 C16.9407002,0.132264341 16.8938528,0.224737766 16.838021,0.317211191 C15.9607548,1.7855232 15.0860556,3.25502076 14.199805,4.71859054 C14.0874995,4.90413017 14.0830073,5.04106197 14.199805,5.22837993 C15.1527971,6.75893367 16.0935961,8.29600797 17.0382456,9.83130393 C17.0953609,9.92377735 17.1486258,10.0192147 17.2307692,10.1638526 C16.7346999,10.1638526 16.2822693,10.1727443 15.8304804,10.1543681 C15.7598884,10.1543681 15.677745,10.0358125 15.6308976,9.95282349 C14.8779161,8.67123667 14.1251486,7.38806911 13.372595,6.1033208 C13.3084204,5.99424958 13.2371867,5.88814225 13.1422083,5.73757655 C13.0677659,5.85613222 13.0189932,5.9308223 12.9759962,6.00610515 C12.2302879,7.32622256 11.4884301,8.64811832 10.7298868,9.96290073 C10.6547952,10.0687467 10.533818,10.1394257 10.3981044,10.1567393 C10.0271755,10.1816359 9.6530378,10.1662237 9.23076923,10.1662237 C9.30585346,10.0334414 9.35911834,9.92911236 9.4232929,9.83071115 C10.3538239,8.29956464 11.2785793,6.76545423 12.2232287,5.24201384 C12.3766059,4.9936397 12.3644127,4.81462064 12.2142443,4.57276706 C11.3318442,3.15009899 10.4680546,1.72209591 9.59913118,0.295278392 C9.5529255,0.219402761 9.51377902,0.139377682 9.44190352,0.00837366345 C9.9347641,0.00837366345 10.3884782,-0.00288912546 10.8402671,0.019043674 C10.9147095,0.0226003442 10.9974947,0.162496038 11.0494761,0.252598349 C11.7365717,1.43459841 12.4211003,2.61758643 13.1030619,3.80156241 C13.1621025,3.89996362 13.2294857,3.99717927 13.3263893,4.1471522 Z"></path>
                </g>
                <g id="AXA_Logo">
                    <rect id="base-2" fill="#00008F" x="0" y="0" width="30" height="30"></rect>
                    <polygon id="switch" fill="#FF1721" points="17.1428571 15.3061224 18.8295885 15.3061224 30 0 28.3501552 0"></polygon>
                    <path d="M23.0610657,21.4339293 C23.5871335,22.8788979 24.6711038,26.6391821 25.1020408,26.9387755 L22.2562595,26.9387755 C22.2477088,26.6063314 22.2029315,26.2757415 22.122693,25.9526574 C21.9999864,25.5228673 20.9706352,22.2715051 20.9706352,22.2715051 L16.4503482,22.2715051 L15.7396615,23.260707 C15.7396615,23.260707 16.5932841,25.8842401 16.6463061,26.0128688 C16.7383493,26.2446198 17.1459162,26.9387755 17.1459162,26.9387755 L14.4186892,26.9387755 C14.4186892,26.9387755 14.3479931,26.5380981 14.3214821,26.3712101 C14.3001349,26.2364662 14.0630796,25.4984064 14.0630796,25.4984064 C14.0630796,25.4984064 13.4449685,26.1634495 13.2765331,26.4717715 C13.1065006,26.7795185 13.0311199,26.9387755 13.0311199,26.9387755 L10.8975691,26.9387755 C10.8975691,26.9387755 10.8263408,26.5380981 10.7998298,26.3712101 C10.7790681,26.2364662 10.518055,25.4391881 10.518055,25.4391881 C10.518055,25.4391881 9.92075871,26.151219 9.75072625,26.4589661 C9.58175848,26.7672881 9.50898629,26.9387755 9.50898629,26.9387755 L7.39885891,26.9387755 C7.39885891,26.9387755 7.99514371,26.3814021 8.20361181,26.1420201 C8.55501579,25.7362205 9.86459583,24.0559467 9.86459583,24.0559467 L9.33954154,22.2715041 L4.85353785,22.2715041 C4.85353785,22.2715041 2.29575769,25.5713699 2.19493174,25.673447 C2.09304002,25.7740083 1.34753763,26.8244669 1.33087402,26.9387745 L0,26.9387755 L0,26.1078365 C0.0165068746,26.0901906 0.0340322843,26.07349 0.0524896714,26.0578172 C0.0935870613,26.0281819 1.99162636,23.7149569 3.73528427,21.4339283 C5.30220211,19.4448098 6.77239202,17.5103102 6.9013271,17.3260697 C7.21376308,16.880495 7.66397115,15.9183673 7.66397115,15.9183673 L9.98309898,15.9183673 C9.98309898,15.9183673 10.0548597,16.8034014 10.1224681,17.0182703 C10.1827301,17.2081557 11.5957457,21.7600732 11.6290175,21.8090995 L12.4104003,20.8280513 L11.0748416,16.7916414 C11.0748416,16.7916414 10.7618732,16.0321522 10.6599815,15.9183673 L13.3690554,15.9183673 C13.3594926,16.162506 13.3893177,16.4065933 13.4574255,16.6415834 C13.5676218,16.9744185 14.148362,19.0319019 14.148362,19.0319019 C14.148362,19.0319019 15.9959878,16.7579816 16.104108,16.5946478 C16.2353612,16.3909349 16.313723,16.158725 16.3323263,15.9183673 L18.5895951,15.9183673 C18.5895951,15.9183673 18.1763321,16.214877 17.4521237,17.1142322 C17.2088399,17.4169094 14.8251913,20.3911529 14.8251913,20.3911529 C14.8251913,20.3911529 15.0331803,21.087347 15.1345397,21.4339303 C15.1621154,21.5334464 15.1813332,21.6008183 15.1813332,21.6079789 C15.1813332,21.6110626 15.2338229,21.5477675 15.3242712,21.4339303 C15.9392926,20.6687963 18.7367387,17.0672987 18.9062388,16.7589767 C19.0429462,16.5099253 19.2441211,16.2266392 19.362143,15.9183694 L21.5643115,15.9183694 C21.5643115,15.9183694 21.6152573,16.5640215 21.6823334,16.7426695 L23.0610657,21.4339293 Z M19.7099249,18.0248258 C19.3865757,18.7077964 17.4833194,20.9827098 17.4833194,20.9827098 L20.4975361,20.9827098 C20.4975361,20.9827098 19.9132292,19.2161435 19.8113375,18.8180271 C19.7592682,18.5634616 19.7393502,18.3035661 19.7520337,18.0442168 C19.7520316,18.0079959 19.7452729,17.9493003 19.7099249,18.0248258 Z M8.12871235,18.0248258 C7.8053632,18.7077964 5.90210688,20.9827098 5.90210688,20.9827098 L8.9163236,20.9827098 C8.9163236,20.9827098 8.33254902,19.2161435 8.2306573,18.8180271 C8.17858809,18.5634616 8.15867006,18.3035661 8.17135356,18.0442168 C8.17135356,18.0079959 8.1641136,17.9493003 8.12871129,18.0248258 L8.12871235,18.0248258 Z M12.6667266,24.9226351 L13.4964467,23.8038115 C13.4200013,23.7231617 12.9526537,22.3317688 12.9526537,22.3317688 L12.1504539,23.3535851 L12.6667266,24.9226351 Z" id="axa" fill="#FFFFFF"></path>
                </g>
            </g>
        </g>
    </g>
</svg>