<?xml version="1.0" encoding="UTF-8"?>
<svg width="69px" height="38px" viewBox="0 0 69 38" version="1.1" xmlns="http://www.w3.org/2000/svg" xmlns:xlink="http://www.w3.org/1999/xlink">
    <!-- Generator: sketchtool 50.2 (55047) - http://www.bohemiancoding.com/sketch -->
    <title>FD533073-8E18-4408-AD03-60C35FB36E13</title>
    <desc>Created with sketchtool.</desc>
    <defs></defs>
    <g id="Mockups" stroke="none" stroke-width="1" fill="none" fill-rule="evenodd">
        <g id="large-enterprises" transform="translate(-405.000000, -632.000000)" fill-rule="nonzero">
            <g id="batn-logo" transform="translate(405.000000, 632.000000)">
                <polygon id="Shape" fill="#003380" points="10.5078431 25.8580952 10.9813725 26.4552381 10.9813725 30.1964286 12.1539216 30.1964286 12.1539216 25.8580952"></polygon>
                <polygon id="Shape" fill="#003380" points="52.9541176 25.9033333 53.4276471 26.5004762 53.4276471 30.2371429 54.5415686 30.2371429 54.5415686 25.9033333"></polygon>
                <polygon id="Shape" fill="#003380" points="17.4619608 25.9033333 17.9354902 26.5366667 17.9354902 30.2778571 19.1035294 30.2778571 19.1035294 25.9033333"></polygon>
                <polygon id="Shape" fill="#003380" points="13.0062745 27.0433333 13.2227451 25.8580952 16.812549 25.8580952 16.9929412 27.0071429 16.3841176 26.3738095 15.5137255 26.3738095 15.5137255 30.2371429 14.3952941 30.2371429 14.3952941 26.3285714 13.7098039 26.3285714"></polygon>
                <path d="M23.0856863,27.0930952 L23,26.03 C22.3054902,25.9440476 21.7417647,25.6861905 21.0517647,25.9892857 C20.3617647,26.292381 19.7619608,27.4278571 20.6639216,28.0657143 C21.114902,28.4140476 23.0405882,29.1785714 21.6154902,29.8164286 C21.026789,29.9671776 20.4177073,29.6578241 20.1903922,29.092619 L20.1903922,29.7259524 C20.6109232,30.021861 21.1032596,30.1984648 21.6154902,30.2371429 C22.8692157,30.327619 23.4690196,29.1785714 23.0405882,28.427619 C22.5944673,27.9851896 22.0853189,27.611671 21.5298039,27.3192857 C21.3447069,27.186841 21.2348289,26.9728313 21.2348289,26.7447619 C21.2348289,26.5166925 21.3447069,26.3026828 21.5298039,26.1702381 C21.8895379,26.0700817 22.2753352,26.1491634 22.5670588,26.3828571 L23.0856863,27.0930952 Z" id="Shape" fill="#003380"></path>
                <polygon id="Shape" fill="#003380" points="23.8162745 25.8128571 24.3394118 26.4552381 24.3394118 30.1964286 25.5480392 30.1964286 25.5480392 28.2014286 27.1490196 28.2014286 27.1490196 30.1964286 28.3982353 30.1964286 28.3982353 25.862619 27.1490196 25.862619 27.1490196 27.5545238 25.5480392 27.5545238 25.5480392 25.8128571"></polygon>
                <polygon id="Shape" fill="#003380" points="37.2239216 30.2371429 38.0401961 26.6678571 37.6523529 25.9395238 39.0278431 25.9395238 40.0290196 27.9888095 41.1880392 25.8580952 42.2343137 25.8580952 42.9288235 30.2371429 41.7517647 30.2371429 41.2376471 27.0433333 39.7268627 29.902381 38.2566667 27.0930952 37.5666667 30.2371429"></polygon>
                <polygon id="Shape" fill="#003380" points="43.5737255 25.8580952 44.0472549 26.3692857 44.0472549 30.2371429 46.9876471 30.2371429 46.9876471 29.3911905 46.4645098 29.7711905 45.1701961 29.7711905 45.1701961 28.025 46.5998039 28.025 46.5998039 27.477619 45.1701961 27.477619 45.1701961 26.3692857 46.7260784 26.3692857 46.7260784 25.8580952"></polygon>
                <path d="M59.3490196,27.2152381 L59.2588235,26.1521429 C57.2745098,25.3016667 55.3713725,26.41 55.8043137,28.667381 C55.935098,29.3911905 57.017451,30.2371429 57.9645098,30.1964286 C58.4288544,30.2106582 58.8906666,30.1226414 59.317451,29.9385714 L59.317451,29.1785714 C58.672549,29.6897619 58.0592157,30.0245238 57.2023529,29.1333333 C56.3003922,27.9888095 56.8911765,26.2380952 58.5552941,26.3692857 C58.8980392,26.577381 59.0694118,26.9211905 59.3760784,27.2152381" id="Shape" fill="#003380"></path>
                <polygon id="Shape" fill="#003380" points="64.8780392 25.8580952 65.3154902 26.6678571 65.3154902 30.2371429 65.7890196 30.2371429 65.7890196 27.3057143 68.3370588 30.2371429 68.9864706 30.2371429 68.9864706 25.8580952 68.4272549 25.8580952 68.4272549 28.7080952 66.0505882 25.8580952"></polygon>
                <path d="M3.20196078,25.1795238 C4.55490196,25.3921429 4.45568627,26.9890476 3.28764706,27.3871429 C4.93372549,27.9028571 4.93372549,29.7711905 3.11627451,30.2371429 L0.450980392,30.2371429 L0.450980392,25.8580952 L0,25.1795238 L3.20196078,25.1795238 Z M1.56039216,25.555 L1.56039216,27.3645238 C2.46235294,27.3645238 2.94039216,27.2378571 2.99,26.4597619 C3.07117647,25.8128571 2.55254902,25.3921429 1.56039216,25.555 Z M1.56039216,27.8169048 L1.56039216,29.735 C2.6427451,29.735 3.20196078,29.735 3.24254902,28.762381 C3.28313725,27.7897619 2.60215686,27.6857143 1.56039216,27.8078571 L1.56039216,27.8169048 Z" id="Shape" fill="#003380"></path>
                <path d="M7.86509804,25.9033333 C9.51568627,25.9033333 9.43,27.857619 8.00039216,28.1652381 L10.1154902,30.2461905 L8.60019608,30.2461905 L6.70607843,28.4366667 L6.70607843,30.2461905 L5.62372549,30.2461905 L5.62372549,26.5004762 L5.23137255,25.9033333 L7.86509804,25.9033333 Z M6.76470588,26.1069048 L6.76470588,27.7264286 C7.54490196,27.7264286 7.97333333,27.5997619 8.01843137,26.9211905 C8.06352941,26.242619 7.61254902,26.0661905 6.76470588,26.1069048 Z" id="Shape" fill="#003380"></path>
                <path d="M50.2752941,25.9033333 C51.8717647,25.9033333 51.7815686,27.7128571 50.4060784,28.025 L52.692549,30.2371429 L51.1366667,30.2371429 L49.1568627,28.2421429 L49.1568627,30.2371429 L48.1647059,30.2371429 L48.1647059,26.4552381 L47.7678431,25.9033333 L50.2752941,25.9033333 Z M49.1929412,26.2833333 L49.1929412,27.9028571 C49.9235294,27.9028571 50.3564706,27.8078571 50.4060784,27.1338095 C50.4556863,26.4597619 50.0137255,26.1566667 49.1929412,26.2833333 Z" id="Shape" fill="#003380"></path>
                <path d="M31.5145098,30.2371429 L33.5845098,25.6002381 L33.1335294,24.9216667 L34.6488235,24.9216667 L36.9037255,30.2371429 L35.627451,30.2371429 L34.8833333,28.427619 L33.0252941,28.427619 L32.245098,30.2371429 L31.5145098,30.2371429 Z M34.752549,28.047619 L34.0219608,25.9711905 L33.2011765,28.047619 L34.752549,28.047619 Z" id="Shape" fill="#003380"></path>
                <path d="M59.9803922,30.2371429 L61.7121569,26.4552381 L61.3333333,25.9033333 L62.5960784,25.9033333 L64.4,30.2371429 L63.3717647,30.2371429 L62.8035294,28.7940476 L61.202549,28.7940476 L60.5982353,30.2371429 L59.9803922,30.2371429 Z M62.6862745,28.427619 L62.0729412,26.7311905 L61.3829412,28.427619 L62.6862745,28.427619 Z" id="Shape" fill="#003380"></path>
                <polygon id="Shape" fill="#003380" points="17.502549 33.8154762 17.7280392 32.6211905 22.0439216 32.6211905 22.2152941 33.7657143 21.6109804 33.1278571 20.4068627 33.1278571 20.4068627 37.6380952 19.32 37.6380952 19.32 33.0916667 18.1970588 33.0916667"></polygon>
                <path d="M41.147451,34.7021429 L41.1023529,33.6435714 C39.1180392,32.7388095 37.214902,33.9014286 37.6072549,36.1542857 C37.9591198,37.0640871 38.8398794,37.6566971 39.812549,37.6380952 C40.2529727,37.6658171 40.6939364,37.593126 41.1023529,37.4254762 L41.1023529,36.6654762 C40.4980392,37.1721429 39.8982353,37.5159524 39.0323529,36.5795238 C38.1303922,35.4711905 38.6805882,33.6842857 40.3852941,33.8652381 C40.6871295,34.1039728 40.9489934,34.3895578 41.1609804,34.7111905" id="Shape" fill="#003380"></path>
                <path d="M45.6888235,34.747381 L45.6482353,33.6842857 C43.6594118,32.7795238 41.7517647,33.937619 42.1441176,36.1904762 C42.4775952,37.1113765 43.3642195,37.7122088 44.3403922,37.6788095 C44.7860261,37.7098031 45.2329206,37.6402421 45.6482353,37.4752381 L45.6482353,36.7016667 C45.0394118,37.2128571 44.435098,37.5566667 43.5737255,36.6202381 C42.6176471,35.5119048 43.2219608,33.7295238 44.9266667,33.9059524 C45.229535,34.1449473 45.4928482,34.4304529 45.7068627,34.7519048" id="Shape" fill="#003380"></path>
                <path d="M30.6666667,33.4264286 C31.9654902,33.5983333 31.8798039,34.9192857 30.7523529,35.2359524 C32.3488235,35.6611905 32.2586275,37.4028571 30.6215686,37.5747619 L28.0509804,37.5747619 L28.0509804,33.9557143 L27.6,33.3992857 L30.6666667,33.4264286 Z M29.1062745,33.7295238 L29.1062745,35.2585714 C29.9721569,35.2585714 30.4592157,35.1771429 30.4907843,34.5347619 C30.5223529,33.892381 30.0398039,33.5983333 29.0882353,33.7295238 L29.1062745,33.7295238 Z M29.1062745,35.5978571 L29.1062745,37.2128571 C30.1480392,37.2128571 30.7072549,37.2128571 30.7072549,36.407619 C30.774902,35.6430952 30.0894118,35.5119048 29.0882353,35.5978571 L29.1062745,35.5978571 Z" id="Shape" fill="#003380"></path>
                <path d="M32.4705882,37.597381 L34.1031373,33.9285714 L33.7107843,33.3766667 L35.0637255,33.3766667 L36.7954902,37.6290476 L35.7176471,37.5883333 L35.2666667,36.5297619 L33.4988235,36.5297619 L33.0478431,37.5883333 L32.4705882,37.597381 Z M35.1088235,36.0638095 L34.4188235,34.2542857 L33.6837255,36.0638095 L35.1088235,36.0638095 Z" id="Shape" fill="#003380"></path>
                <path d="M24.6821569,33.3495238 C25.9719608,33.3495238 27.0543137,34.2814286 27.0543137,35.4711905 C26.9816407,36.7139896 25.921446,37.6642538 24.6821569,37.597381 C23.8735268,37.6811997 23.0879131,37.295701 22.6575252,36.6038992 C22.2271372,35.9120973 22.2271372,35.0348074 22.6575252,34.3430056 C23.0879131,33.6512038 23.8735268,33.2657051 24.6821569,33.3495238 Z M23.4509804,35.5119048 C23.4509804,36.5388095 24.0147059,37.3214286 24.6641176,37.3214286 C25.3135294,37.3214286 25.8772549,36.5207143 25.8772549,35.5119048 C25.8772549,34.5030952 25.3541176,33.7295238 24.6641176,33.7295238 C23.9741176,33.7295238 23.4509804,34.5347619 23.4509804,35.5119048 Z" id="Shape" fill="#003380"></path>
                <path d="M49.1568627,33.3495238 C49.9654928,33.2657051 50.7511065,33.6512038 51.1814945,34.3430056 C51.6118824,35.0348074 51.6118824,35.9120973 51.1814945,36.6038992 C50.7511065,37.295701 49.9654928,37.6811997 49.1568627,37.597381 C47.9158589,37.6668392 46.8528419,36.7158532 46.7801961,35.4711905 C46.7801961,34.2814286 47.8580392,33.3495238 49.1568627,33.3495238 Z M47.9482353,35.5119048 C47.9482353,36.5388095 48.4758824,37.3214286 49.1568627,37.3214286 C49.8378431,37.3214286 50.3654902,36.5207143 50.3654902,35.5119048 C50.3654902,34.5030952 49.8062745,33.7295238 49.1568627,33.7295238 C48.507451,33.7295238 47.9347059,34.5347619 47.9347059,35.5119048 L47.9482353,35.5119048 Z" id="Shape" fill="#003380"></path>
                <path d="M27.392549,22.0128571 C21.3990196,22.0128571 15.8294118,16.0414286 14.4313725,9.30547619 C19.7529412,9.01142857 26.3011765,11.0109524 29.3543137,14.082619 C29.1333333,8.79880952 31.3476471,3.20285714 34.4909804,0 C38.364902,3.54666667 39.767451,10.2871429 39.6862745,13.9559524 C44.1103922,10.5857143 48.8276471,9.34619048 54.5686275,9.55880952 C53.0352941,16.435 47.6731373,22.1666667 41.3819608,22.1033333 L46.0992157,19.5021429 L40.0605882,21.3795238 L48.8637255,13.7885714 L38.4009804,20.8638095 L40.9535294,15.5302381 L36.9803922,20.7371429 L37.8327451,15.2316667 L35.212549,20.6059524 L34.6668627,4.57809524 L33.764902,20.4792857 L31.257451,15.1457143 L32.2811765,20.6059524 L28.1592157,15.747381 L30.5809804,20.9090476 L19.9964706,13.6980952 L29.002549,21.2619048 L23.1398039,19.2533333 L27.392549,22.0128571 Z" id="Shape" fill="#F8B51A"></path>
            </g>
        </g>
    </g>
</svg>