<?xml version="1.0" encoding="UTF-8"?>
<svg width="150px" height="38px" viewBox="0 0 150 38" version="1.1" xmlns="http://www.w3.org/2000/svg" xmlns:xlink="http://www.w3.org/1999/xlink">
    <!-- Generator: sketchtool 50.2 (55047) - http://www.bohemiancoding.com/sketch -->
    <title>76577A32-DC51-4740-B57A-579B49F93066</title>
    <desc>Created with sketchtool.</desc>
    <defs></defs>
    <g id="Mockups" stroke="none" stroke-width="1" fill="none" fill-rule="evenodd">
        <g id="customers" transform="translate(-114.000000, -1348.000000)" fill-rule="nonzero">
            <g id="Group-3-Copy" transform="translate(85.000000, 1302.000000)">
                <g id="cars45-logo" transform="translate(29.000000, 46.000000)">
                    <path d="M90.7398265,20.5157045 C90.7881814,20.4793257 90.8394672,20.4470157 90.8931576,20.4191059 C93.1885245,19.6233174 95.2002289,17.5165477 95.0844639,14.3287936 C94.9993651,11.9935606 93.9597801,10.3337512 91.8231108,9.36699842 C90.1633014,8.61644257 88.3984602,8.4983776 86.6159858,8.4914777 C84.6863136,8.4845778 82.7574081,8.49991091 80.8285025,8.48151118 C80.4911741,8.48151118 80.4137418,8.56201002 80.4145085,8.89703853 C80.4257528,14.6331559 80.4285638,20.3695288 80.4229417,26.1061573 C80.4229417,27.0522104 80.4382748,27.9974968 80.4137418,28.9427832 C80.4060753,29.2578786 80.5103404,29.3115445 80.7970697,29.3077112 C81.9593196,29.2923781 83.1218251,29.2923781 84.2845861,29.3077112 C84.5858817,29.3123112 84.7062467,29.2632452 84.6901469,28.9243834 C84.658714,28.261993 84.680947,27.5965359 84.680947,26.9310788 C84.680947,25.1938371 84.6878469,23.4558288 84.6740471,21.7178205 C84.6740471,21.429558 84.7507127,21.3344927 85.0382086,21.3551924 C85.3956927,21.3755104 85.7540423,21.3755104 86.1115264,21.3551924 C86.8015165,21.3252929 87.2829762,21.6035889 87.6448377,22.2031136 C88.9029196,24.2730837 90.2016342,26.3131544 91.4635494,28.3785246 C91.8468772,29.0102488 92.3942693,29.2885448 93.1018924,29.2939114 C94.289442,29.3023446 95.4785249,29.2977447 96.6660744,29.2939114 C96.7550065,29.2939114 96.8677049,29.3521773 96.9413038,29.2333456 C95.4631918,26.9533118 93.9804798,24.6809445 92.5146342,22.3963108 C92.045441,21.6672213 91.5724145,20.9488649 90.7398265,20.5157045 Z M78.6588671,29.301578 C78.6597884,29.2589304 78.6564496,29.2162974 78.6489006,29.1743131 C75.9978054,22.3940108 73.3505436,15.6129418 70.707115,8.83110614 C70.6082164,8.57580982 70.5085512,8.47921121 70.2294885,8.48304449 C68.990573,8.49888871 67.751402,8.49888871 66.5119754,8.48304449 C66.2505458,8.48304449 66.145514,8.56507664 66.051982,8.80733982 C63.7458819,14.7361433 61.4328819,20.6611135 59.112982,26.5822505 C58.7618537,27.4815375 58.4091921,28.3800579 58.0488639,29.3008113 L61.2688176,29.3008113 C62.1121388,29.3008113 62.5935985,28.9596496 62.8741945,28.1699943 C63.2835886,27.0200108 63.6968159,25.8700274 64.0939436,24.720044 C64.1706091,24.4900473 64.2557079,24.3850155 64.5324706,24.3865488 C67.0879893,24.4013708 69.6435081,24.4013708 72.1990268,24.3865488 C72.4765562,24.3865488 72.5662549,24.488514 72.645987,24.7192773 C73.0584478,25.9083602 73.4893082,27.0920765 73.9071356,28.2788594 C74.1294657,28.9067503 74.5825592,29.2755117 75.2342164,29.2931448 C76.3681001,29.326111 77.5088837,29.301578 78.6588671,29.301578 Z M104.990421,8.28524734 C104.518161,8.30134711 104.049735,8.29291389 103.578242,8.3619129 C102.186762,8.56430999 100.939413,9.09176906 99.9028945,10.0355221 C98.3534835,11.4484684 97.7907582,13.2263428 98.0429879,15.298613 C98.2821845,17.264318 99.28497,18.6496647 101.066678,19.4899193 C101.969798,19.9161798 102.918918,20.2105756 103.874171,20.4865716 C104.735125,20.7365013 105.597612,20.9756979 106.366568,21.4655908 C107.214489,22.0060831 107.530351,22.7827052 107.405386,23.7494579 C107.280422,24.7162107 106.810462,25.4361003 105.862109,25.784162 C104.63546,26.2326555 103.42951,26.1498567 102.235061,25.6737636 C101.452305,25.3625014 100.778415,24.8588086 100.060826,24.4340814 C99.3946018,24.0400204 98.777444,24.2040847 98.36115,24.853442 C98.1012538,25.2582362 97.8505574,25.6691636 97.599861,26.080091 C97.1268345,26.8544132 97.1168679,26.8712797 97.8658905,27.4110052 C100.228723,29.1160473 102.842252,29.8252038 105.747877,29.3828435 C109.496056,28.8109184 111.804456,25.6775968 111.421129,21.9723502 C111.253231,20.3777065 110.489642,19.1817237 109.176361,18.3184695 C108.068544,17.5901467 106.811228,17.2022189 105.563113,16.8004914 C104.677626,16.5152955 103.774505,16.2676657 102.99175,15.7356067 C102.564723,15.4458109 102.181395,15.1061824 102.05643,14.5779567 C101.786513,13.469969 102.389349,12.3354899 103.458643,11.939128 C104.274471,11.6414846 105.159652,11.5895092 106.004707,11.7896302 C106.879461,11.9828274 107.651483,12.4121546 108.415072,12.8629481 C109.138028,13.2876753 109.68312,13.1412441 110.093281,12.4090879 C110.346277,11.9575278 110.577807,11.4944678 110.814704,11.0344744 C111.140533,10.3981502 111.138233,10.3981502 110.559408,9.9772563 C108.895765,8.76977369 107.025125,8.26761426 104.989655,8.28524734 L104.990421,8.28524734 Z M50.6836034,8.27988075 C49.3802888,8.23541472 48.0194751,8.55971005 46.9760568,8.95760432 C42.8752158,10.5200485 40.8428118,14.2475281 40.6427146,18.1007393 C40.570649,19.463853 40.6634143,20.8200668 41.0199092,22.1479143 C41.8486639,25.2314033 43.6089053,27.5413367 46.6164953,28.7618524 C49.0283939,29.7408717 51.5108248,29.7485382 54.0016889,29.0907477 C55.6228445,28.6703646 57.0683622,27.7454373 58.1293628,26.4496191 C58.2550943,26.2962879 58.2474278,26.2088892 58.1293628,26.0808577 C57.6203035,25.5441988 57.1212106,24.99834 56.6075514,24.466281 C56.265623,24.1120861 55.8623621,24.0829531 55.4437681,24.368149 C55.2245046,24.5214802 55.0274741,24.7031775 54.8166438,24.8672418 C53.6934933,25.7366293 52.3886455,25.9497596 51.0140319,25.9321265 C48.5745337,25.9014603 46.8250256,24.7714099 45.7846739,22.5879747 C44.8884535,20.7073684 44.8225211,18.722497 45.2418817,16.710026 C46.0737031,12.7234168 49.4009885,11.1901055 52.8984715,12.1269587 C53.6651271,12.3324224 54.3305842,12.7479497 54.9853081,13.1811102 C55.6522985,13.6219371 56.1582912,13.5391383 56.6236511,12.9089474 C56.9717128,12.4382209 57.3136412,11.9651943 57.6609362,11.4921678 C58.0534639,10.9516756 58.044264,10.9624088 57.539038,10.5407482 C55.617799,8.93690462 53.3883644,8.26224767 50.6836034,8.27988075 Z M125.739189,14.9635845 C125.739189,12.9204472 125.734589,10.8765434 125.745322,8.83033949 C125.745322,8.56201002 125.668657,8.4845778 125.403394,8.48841108 C124.343109,8.50221088 123.282824,8.4983776 122.223306,8.48841108 C122.044741,8.47675514 121.874521,8.56541136 121.781713,8.71840777 C121.382285,9.27806637 120.963691,9.82469183 120.555064,10.3766839 C117.846214,14.0055205 115.137364,17.6318016 112.428514,21.2555272 C112.275183,21.4548577 112.229184,21.6296551 112.300483,21.8849515 C112.436947,22.3717778 112.518979,22.8747039 112.623245,23.3707301 C112.767376,24.0568869 113.083238,24.3160165 113.785495,24.3160165 C116.480289,24.3160165 119.175084,24.3221497 121.869878,24.3091166 C122.19724,24.3091166 122.304572,24.3735156 122.299205,24.7238772 C122.276972,26.1414235 122.299205,27.5605031 122.284639,28.9772827 C122.284639,29.2233791 122.345205,29.3038779 122.601268,29.3000447 C123.521254,29.2847116 124.441241,29.277045 125.361228,29.3000447 C125.697023,29.3100112 125.752222,29.1950129 125.749156,28.8906506 C125.732289,27.4991706 125.749156,26.106924 125.734589,24.7146774 C125.734589,24.4080151 125.793622,24.2830503 126.125583,24.3068166 C126.544944,24.3367162 126.968905,24.3183164 127.389799,24.3129498 C127.859758,24.3060499 128.115821,24.0522869 128.121955,23.5761938 C128.128855,22.9383363 128.113522,22.2989455 128.128855,21.6595547 C128.134988,21.4149916 128.042223,21.3590257 127.817592,21.3636256 C127.243367,21.3758921 126.667609,21.3513592 126.094151,21.3743588 C125.801288,21.3866253 125.733056,21.2923267 125.735356,21.0086641 C125.742256,19.0023263 125.736122,16.9837221 125.736122,14.9658845 L125.739189,14.9635845 Z M133.559076,15.9288039 C133.551631,15.8292777 133.551631,15.7293344 133.559076,15.6298082 C133.744607,14.5288907 133.937804,13.4302732 134.117968,12.3285891 C134.160901,12.0640929 134.284333,11.9912606 134.549595,11.9920273 C136.376536,11.9966272 138.20271,11.9920273 140.02965,11.9713276 C141.171967,11.9567611 141.818257,11.3058705 141.85889,10.1650869 C141.874223,9.75645948 141.84049,9.34629872 141.868857,8.93843793 C141.891856,8.59497621 141.792191,8.48534446 141.431096,8.48764442 C138.990832,8.50451085 136.551333,8.49607763 134.111068,8.49607763 C133.319113,8.49607763 132.527158,8.49607763 131.734436,8.49607763 C131.532039,8.49607763 131.427774,8.51831065 131.393274,8.771307 C131.262176,9.69972697 131.093512,10.623547 130.933281,11.5481337 C130.534109,13.8481006 130.133148,16.1462786 129.730398,18.4426677 C129.697432,18.6304983 129.736531,18.74933 129.954262,18.8029959 C130.592119,18.9670602 131.226143,19.1479909 131.856334,19.3396548 C132.04936,19.3945876 132.255054,19.3848952 132.442059,19.3120552 C133.716241,18.8896279 135.013422,18.6987307 136.342036,19.025326 C137.687517,19.3588212 138.444973,20.2374085 138.61977,21.6127887 C138.782301,22.8869704 138.591404,24.0821865 137.776449,25.1072051 C136.807396,26.3261875 134.995022,26.5324179 133.491611,26.0547914 C132.793954,25.8332279 132.188296,25.4330337 131.564238,25.0581391 C130.802949,24.5981457 130.203425,24.7300105 129.678266,25.4460668 C129.371603,25.8677274 129.072608,26.3001212 128.743712,26.705682 C128.548982,26.9448786 128.602648,27.0652435 128.824978,27.2515408 C131.063612,29.1267805 133.615809,29.8896028 136.499967,29.3698103 C138.416606,29.0240486 140.048816,28.1347281 141.219499,26.523218 C142.416249,24.8741417 142.77351,23.025735 142.536614,21.0239972 C142.252185,18.6205318 140.639141,16.7015928 138.310041,16.0407356 C136.743764,15.5868755 135.16982,15.6689077 133.557543,15.9311039 L133.559076,15.9288039 Z M144.982245,13.9508324 C144.605817,14.0159981 144.467053,14.2275951 144.516885,14.5779567 C144.534589,14.7051194 144.534589,14.8341218 144.516885,14.9612845 C144.483152,15.2104476 144.574384,15.2802133 144.823548,15.27638 C145.922165,15.2618135 147.020783,15.27638 148.120167,15.2664135 C148.498128,15.2664135 149.002587,15.4335444 149.216484,15.1897479 C149.402015,14.9812176 149.250984,14.4851914 149.27705,14.11643 C149.29545,13.862667 149.211884,13.7990346 148.963488,13.8028679 C148.005935,13.818201 147.046849,13.8113011 146.090063,13.8028679 C145.971998,13.8028679 145.842433,13.8534671 145.736634,13.7262023 C145.514304,13.4594062 145.434572,13.1512106 145.55187,12.8384151 C145.656902,12.5585858 145.922932,12.4949534 146.215794,12.49802 C147.084415,12.5087532 147.953802,12.4834535 148.822423,12.5110531 C149.176618,12.5217863 149.336849,12.4558539 149.282417,12.0679262 C149.235651,11.7551307 149.411215,11.3388367 149.218784,11.1479394 C149.026354,10.9570422 148.61466,11.1019401 148.298797,11.0912069 C147.559741,11.0659073 146.819152,11.135673 146.081629,11.0536408 C145.726668,11.0137747 145.537304,10.8098443 145.520437,10.4533494 C145.498204,9.97648965 145.735101,9.75569283 146.29476,9.75185955 C147.201458,9.7457263 148.108156,9.7457263 149.014854,9.75185955 C149.200384,9.75185955 149.29545,9.72655991 149.28165,9.5072964 C149.263959,9.20088931 149.263959,8.89371675 149.28165,8.58730965 C149.291616,8.39411244 149.217251,8.35731297 149.04092,8.35731297 C148.018968,8.36497952 146.997016,8.34887975 145.974298,8.36497952 C145.207642,8.37647936 144.684783,8.81040644 144.509985,9.55329574 C144.320621,10.3575175 144.519185,11.0429076 145.199975,11.5542669 C144.250089,12.2358238 144.17649,12.9664466 144.981479,13.9531324 L144.982245,13.9508324 Z M149.352182,18.4235013 C149.356782,16.9538225 148.373163,15.9702033 146.894284,15.9594701 C145.464472,15.9518036 144.450186,16.9208563 144.445586,18.2985365 C144.44022,19.8732471 145.365573,20.8353999 146.885851,20.8285 C148.363963,20.8177668 149.344516,19.8625139 149.349116,18.4258013 L149.352182,18.4235013 Z M146.689587,26.2272889 C145.610136,26.2272889 144.740749,27.0759767 144.754549,28.1186284 C144.759807,28.6216058 144.964724,29.1018788 145.324192,29.4537262 C145.68366,29.8055736 146.168213,30.0001539 146.671188,29.9946347 C147.759072,29.9946347 148.587827,29.1743131 148.587827,28.1009953 C148.587827,26.9931779 147.581208,26.1329903 146.686521,26.2295889 L146.689587,26.2272889 Z M144.445586,23.0909008 C144.445586,24.025454 145.054311,24.8542087 146.155995,25.1286714 C146.564237,25.2315096 146.989675,25.2464052 147.40411,25.1723708 C148.304931,25.0106065 148.976521,24.5644129 149.239484,23.673559 C149.507047,22.7643055 149.322283,21.9179177 148.668325,21.2018613 C148.61926,21.1481954 148.574027,21.0814964 148.478195,21.1052627 C148.26462,21.1523781 148.089556,21.3046696 148.013322,21.5096635 C147.937089,21.7146574 147.970107,21.9443312 148.101,22.1195481 C148.520361,22.7328726 148.283464,23.4627287 147.585041,23.675859 C147.267982,23.7748478 146.933829,23.8069578 146.603722,23.7701576 C145.663802,23.6612926 145.239075,23.0203684 145.592503,22.2560128 C145.876932,21.6426883 145.870032,21.6495882 145.339507,21.2463273 C145.175442,21.1221291 145.092644,21.1405289 144.973812,21.2854268 C144.600451,21.7392869 144.43792,22.2567794 144.44252,23.0932007 L144.445586,23.0909008 Z" id="Shape" fill="#FEFEFE"></path>
                    <path d="M17.6376793,37.6581243 C17.3486501,37.5001932 17.0243548,37.5599924 16.7176926,37.5270262 C14.1955039,37.2691078 11.756874,36.4783561 9.56326226,35.2071263 C4.91221814,32.5084985 1.91791682,28.5489777 0.580358308,23.328564 C0.102626201,21.4471049 -0.0600635456,19.499491 0.0988985756,17.564847 C0.482226388,12.6084184 2.50389727,8.40254565 6.17157778,5.03539414 C8.78817343,2.63269542 11.8578626,1.07715115 15.3714453,0.471493209 C21.1305623,-0.525159103 26.313921,0.788888638 30.831056,4.51406832 C34.1690745,7.26636201 36.2559112,10.8159776 37.1636314,15.0379501 C37.577127,16.9831426 37.6708652,18.9827197 37.4411608,20.9580648 C37.0424998,24.5153469 35.7499184,27.7046343 33.538117,30.4983274 C30.8640221,33.8785121 27.4125385,36.0864803 23.2219989,37.119932 C22.173214,37.378295 21.1098626,37.5615257 20.0250449,37.587592 C19.9621792,37.587592 19.8962468,37.587592 19.8632806,37.6581243 L17.6376793,37.6581243 Z M5.601186,26.569984 C5.601186,26.9655783 5.59505275,27.3619393 5.601186,27.7575336 C5.61728576,28.7196864 6.11331195,29.2072793 7.08389797,29.2141792 C7.7347886,29.2195458 8.38721254,29.2141792 9.03810316,29.2141792 C10.5392149,29.2141792 10.9194761,28.8454179 10.9547422,27.353506 C10.9677754,26.8590132 11.0429076,26.7777477 11.5412338,26.7723811 C12.1798579,26.7654812 12.818482,26.7723811 13.4578728,26.7723811 L25.9942256,26.7723811 C26.567684,26.7723811 26.6773158,26.8850795 26.6842157,27.471571 C26.6842157,27.6249021 26.6842157,27.7782333 26.6949489,27.9315644 C26.7516814,28.675987 27.0690768,29.0692813 27.8088995,29.1620467 C28.8109184,29.2870115 29.8252038,29.2594119 30.828756,29.1819797 C31.5793118,29.1237139 31.9020739,28.7480526 31.9856393,27.9921302 C32.0745714,27.2040082 32.0132389,26.4105196 32.0170722,25.6154977 C32.0100373,25.2451193 32.132607,24.8839184 32.3636005,24.5943124 C34.0387431,22.4331102 34.1690745,20.2841745 32.7875611,17.914442 C32.5460646,17.5004479 32.5728975,17.4475487 33.0581905,17.3869829 C33.8179463,17.2926843 34.01881,17.12862 34.1744411,16.4148636 C34.3101392,15.7931059 34.4297375,15.1675149 34.5393692,14.5403906 C34.6413344,13.9554323 34.3538386,13.6372703 33.7558472,13.5682712 C33.0152578,13.4839391 32.2792684,13.562138 31.5409791,13.5774711 C30.919988,13.5905043 30.4845276,13.2708089 30.3104968,12.6858506 C30.198244,12.3342176 30.0656444,11.9894076 29.9133692,11.6531655 C29.0301819,9.58319531 27.4876708,8.29444721 25.3134354,7.75318833 C22.4487762,7.04586688 19.4880988,6.80945805 16.547495,7.05323175 C14.8002868,7.19199642 13.0891115,7.48792549 11.4247021,8.04988406 C10.1466872,8.48227783 9.11630204,9.1998675 8.41864542,10.389717 C7.95039226,11.1797399 7.54511075,12.0054272 7.20656287,12.8591148 C6.99419927,13.3957737 6.68370374,13.6096707 6.15931129,13.5721045 C5.43354228,13.5249546 4.70547836,13.5249546 3.97970935,13.5721045 C3.22838684,13.6150372 2.95315747,13.9554323 3.09958869,14.6944884 C3.21765366,15.2940131 3.33776304,15.8935378 3.45991684,16.4930625 C3.58104842,17.0925872 3.87391087,17.3486501 4.47726885,17.3877496 C5.01392779,17.4222491 5.03922742,17.4705484 4.76783133,17.9420416 C4.71723206,18.030207 4.66203285,18.1168391 4.61450021,18.2065378 C3.58411505,20.156143 3.57184856,22.1164815 4.85216345,23.9135223 C5.45092149,24.7530102 5.69548464,25.5595319 5.60041934,26.5308846 C5.60013922,26.5439367 5.60065127,26.5569939 5.60195265,26.569984 L5.601186,26.569984 Z" id="Shape" fill="#00B4A9"></path>
                    <path d="M90.7398265,20.5157045 C91.5724145,20.9488649 92.043141,21.665688 92.5154009,22.4009107 C93.9812464,24.6855445 95.4639584,26.9579117 96.9420705,29.2379456 C96.8654049,29.3567772 96.7557731,29.2977447 96.6668411,29.2985114 C95.4785249,29.3031113 94.2902086,29.3077112 93.1026591,29.2985114 C92.3950359,29.2931448 91.8499438,29.0148488 91.464316,28.3831245 C90.2024009,26.3177543 88.9036862,24.2746171 87.6456043,22.2077135 C87.2806763,21.6081888 86.8022832,21.3298928 86.1122931,21.3597924 C85.7548089,21.3801104 85.3964594,21.3801104 85.0389752,21.3597924 C84.7499461,21.3398593 84.6725138,21.4364579 84.6748138,21.7224205 C84.6886136,23.4596621 84.6817137,25.1976704 84.6817137,26.9356787 C84.6817137,27.6003692 84.6594807,28.2658262 84.6909136,28.9289833 C84.7070133,29.2678451 84.5866484,29.3169111 84.2853527,29.3123112 C83.1231028,29.2944225 81.9605973,29.2944225 80.7978363,29.3123112 C80.5126404,29.3161444 80.4083752,29.2624785 80.4145085,28.9473831 C80.4390415,28.0020967 80.4237084,27.0568103 80.4237084,26.1107573 C80.4237084,20.3746399 80.4208973,14.6382669 80.4152751,8.90163846 C80.4152751,8.56660995 80.4919407,8.48304449 80.8292692,8.48611111 C82.7581747,8.50451085 84.6870803,8.48611111 86.6167525,8.49607763 C88.3992268,8.50297754 90.1640681,8.6210425 91.8238775,9.37159836 C93.9605467,10.3383511 95.0001318,11.9981605 95.0852305,14.3333936 C95.2009955,17.5211477 93.1892912,19.6279173 90.8939242,20.4237058 C90.8401287,20.450106 90.7885899,20.4808755 90.7398265,20.5157045 Z M86.2932238,18.3384025 C86.7708503,18.2993031 87.3404754,18.3621689 87.9162338,18.2724702 C89.4863445,18.027907 90.676194,17.0695875 90.8808911,15.4005782 C91.1016879,13.5958709 90.2062341,12.2703233 88.4229932,11.894662 C87.2469434,11.6477989 86.0593939,11.7873302 84.8779775,11.7413309 C84.6479809,11.7328977 84.683247,11.8908287 84.683247,12.0249935 C84.683247,14.0428311 84.683247,16.0614353 84.6786471,18.0815729 C84.6786471,18.2786034 84.7292464,18.3499024 84.9347101,18.3430025 C85.3517707,18.3276694 85.774198,18.3384025 86.2893905,18.3384025 L86.2932238,18.3384025 Z" id="Shape" fill="#222222"></path>
                    <path d="M78.6588671,29.301578 C77.5088837,29.301578 76.3688668,29.326111 75.2334498,29.2923781 C74.5817925,29.2724451 74.128699,28.9090503 73.9063689,28.2780927 C73.4862416,27.0913098 73.0576811,25.9075935 72.6452204,24.7185107 C72.5685548,24.488514 72.4757895,24.3842488 72.1982602,24.3857821 C69.6427414,24.4011152 67.0872227,24.4011152 64.5317039,24.3857821 C64.2549412,24.3857821 64.1721424,24.4892806 64.0931769,24.7192773 C63.6960493,25.8692608 63.2828219,27.0192442 62.8734278,28.1692276 C62.5928318,28.9588829 62.1067722,29.3000447 61.2680509,29.3000447 L58.0480973,29.3000447 C58.4084254,28.3800579 58.761087,27.4807709 59.1122153,26.5814838 C61.4275153,20.6577914 63.7405153,14.7328211 66.0512154,8.80657316 C66.145514,8.56430999 66.2505458,8.47921121 66.5112087,8.48227783 C67.7501242,8.49658874 68.9892953,8.49658874 70.2287219,8.48227783 C70.5077845,8.47844456 70.6074497,8.57504316 70.7063483,8.83033949 C73.3461992,15.6137085 75.9932055,22.3947775 78.6473673,29.1735465 C78.6554815,29.2157304 78.6593341,29.2586233 78.6588671,29.301578 Z M68.3603821,12.4558539 C68.2177842,12.936547 68.1066191,13.3758407 67.9571212,13.8028679 C67.1214666,16.1892113 66.2804454,18.5737658 65.4340576,20.9565315 C65.2761265,21.405025 65.2753599,21.405025 65.7637195,21.405025 L71.0536433,21.405025 C71.1855081,21.405025 71.3173728,21.3935252 71.4615041,21.387392 C70.4556519,18.3920684 69.315635,15.4864436 68.3603821,12.4558539 Z" id="Shape" fill="#222222"></path>
                    <path d="M104.989655,8.28524734 C107.021292,8.26761426 108.899598,8.76977369 110.555574,9.9772563 C111.134399,10.3981502 111.136699,10.3981502 110.810871,11.0344744 C110.573974,11.4944678 110.342444,11.9544612 110.089448,12.4090879 C109.679287,13.1412441 109.134195,13.2876753 108.411239,12.8629481 C107.644583,12.4144545 106.877927,11.9851274 106.000873,11.7896302 C105.155818,11.5895092 104.270638,11.6414846 103.45481,11.939128 C102.385516,12.3354899 101.78268,13.469969 102.052597,14.5779567 C102.177562,15.1061824 102.56089,15.4458109 102.987917,15.7356067 C103.770672,16.2676657 104.674559,16.5152955 105.55928,16.8004914 C106.807395,17.2022189 108.06471,17.5901467 109.172528,18.3184695 C110.485809,19.1817237 111.249398,20.3777065 111.417295,21.9723502 C111.806756,25.6775968 109.49529,28.8109184 105.744044,29.3828435 C102.838419,29.8252038 100.224123,29.1160473 97.8620572,27.4110052 C97.1130347,26.8743463 97.1230012,26.8544132 97.5960277,26.080091 C97.8467241,25.6691636 98.0974205,25.2582362 98.3573167,24.853442 C98.7736107,24.2040847 99.3907685,24.0400204 100.056992,24.4340814 C100.775349,24.8588086 101.448472,25.3625014 102.231228,25.6737636 C103.425677,26.1498567 104.634693,26.2326555 105.858275,25.784162 C106.806628,25.4361003 107.277355,24.7108441 107.401553,23.7494579 C107.525751,22.7880718 107.210656,22.0060831 106.362735,21.4655908 C105.596079,20.9756979 104.731292,20.7365013 103.870337,20.4865716 C102.915084,20.2082756 101.965965,19.9138799 101.062844,19.4899193 C99.2811368,18.6465981 98.2783512,17.266618 98.0391547,15.298613 C97.786925,13.2286428 98.3496502,11.4484684 99.8990612,10.0355221 C100.93558,9.09176906 102.182928,8.56430999 103.574408,8.3619129 C104.048968,8.29291389 104.517395,8.30134711 104.989655,8.28524734 Z" id="Shape" fill="#222222"></path>
                    <path d="M50.6836034,8.27988075 C53.3883644,8.2599477 55.617799,8.93460465 57.5359713,10.5361483 C58.0404307,10.9578088 58.0503973,10.9470757 57.6578696,11.4875679 C57.3128745,11.9605944 56.9678795,12.4336209 56.6205845,12.9043475 C56.1552246,13.5345384 55.6492318,13.6173372 54.9822414,13.1765102 C54.3275175,12.7433498 53.6635938,12.3278224 52.8954048,12.1223587 C49.3979219,11.1893388 46.0721698,12.7180502 45.2388151,16.7054261 C44.8194545,18.7178971 44.8853869,20.7027685 45.7816073,22.5833747 C46.821959,24.76681 48.5714671,25.8968604 51.0109653,25.9275266 C52.3855788,25.9451597 53.69426,25.7320294 54.8135772,24.8626419 C55.0244075,24.6985776 55.221438,24.5145803 55.4407015,24.3635491 C55.8592955,24.0752866 56.2625563,24.1074861 56.6044848,24.461681 C57.118144,24.99374 57.6172368,25.5395988 58.1262962,26.0762578 C58.2474278,26.2042893 58.2550943,26.293988 58.1262962,26.4450191 C57.0661704,27.7424054 55.6208663,28.6689788 53.9993889,29.0907477 C51.5085248,29.7485382 49.0260939,29.7408717 46.6141953,28.7618524 C43.6058386,27.5413367 41.8455973,25.2314033 41.0176092,22.1479143 C40.6611144,20.8200668 40.568349,19.4646197 40.6404147,18.1007393 C40.8443451,14.2490614 42.8729159,10.5200485 46.9737568,8.95760432 C48.0194751,8.56201002 49.3779888,8.23771469 50.6836034,8.27988075 Z" id="Shape" fill="#222222"></path>
                    <path d="M125.736122,14.9658845 C125.736122,16.9837221 125.742256,19.0023263 125.729989,21.0224639 C125.729989,21.3061265 125.795922,21.4004251 126.088784,21.3881586 C126.662242,21.365159 127.238767,21.3881586 127.812226,21.3774254 C128.036856,21.3728255 128.129621,21.4287914 128.123488,21.6733545 C128.108155,22.311212 128.123488,22.9506028 128.116588,23.5899936 C128.110455,24.0660867 127.854392,24.3198497 127.384432,24.3267496 C126.962771,24.3321162 126.541111,24.350516 126.120217,24.3206164 C125.788255,24.2968501 125.725389,24.4210483 125.729223,24.7284772 C125.746089,26.1207238 125.729223,27.5129704 125.743789,28.9044504 C125.743789,29.2111126 125.691656,29.323811 125.355861,29.3138445 C124.435874,29.2885448 123.515888,29.2962114 122.595901,29.3138445 C122.339838,29.3176778 122.277739,29.2371789 122.279272,28.9910825 C122.290005,27.5735362 122.271606,26.1544566 122.293839,24.737677 C122.299205,24.3873154 122.191873,24.321383 121.864512,24.3229164 C119.169717,24.3359495 116.474922,24.3305829 113.780128,24.3298163 C113.077871,24.3298163 112.762009,24.0706867 112.617878,23.3845299 C112.513613,22.8885037 112.431581,22.3878776 112.295116,21.8987513 C112.223817,21.6434549 112.27365,21.4686575 112.423147,21.269327 C115.131997,17.6450903 117.840847,14.0188092 120.549697,10.3904837 C120.961391,9.83849163 121.379985,9.29186617 121.776346,8.73220757 C121.869155,8.57921116 122.039375,8.49055494 122.21794,8.50221088 C123.277458,8.50987744 124.337743,8.51371071 125.398027,8.50221088 C125.66559,8.4983776 125.741489,8.57887644 125.739956,8.84413929 C125.731522,10.8788433 125.736122,12.9227472 125.736122,14.9658845 Z M116.409757,21.3398593 C116.476388,21.3563377 116.543986,21.3686283 116.612154,21.3766588 C118.399995,21.3766588 120.188602,21.3728255 121.978743,21.385092 C122.285405,21.385092 122.285405,21.2317609 122.291539,21.0017642 C122.328338,18.3667688 122.18344,15.7279401 122.416504,12.9725798 L116.409757,21.3398593 Z" id="Shape" fill="#00B4A9"></path>
                    <path d="M133.557543,15.9311039 C135.16752,15.6689077 136.743764,15.5868755 138.310808,16.0346024 C140.639908,16.6992928 142.252951,18.6182319 142.53738,21.017864 C142.774277,23.0196018 142.417016,24.8680085 141.220266,26.5170848 C140.049583,28.1270616 138.421206,29.0179154 136.500734,29.3636771 C133.616576,29.8834696 131.064379,29.1206473 128.825745,27.2454076 C128.603414,27.0591103 128.549749,26.9387453 128.744479,26.6995488 C129.073374,26.293988 129.37007,25.8615942 129.679032,25.4399336 C130.204191,24.7238772 130.803716,24.5927791 131.565005,25.0520059 C132.185996,25.4276671 132.791654,25.8278613 133.492377,26.0486582 C134.995789,26.5262846 136.808163,26.3200543 137.777216,25.1010718 C138.592171,24.0760532 138.783068,22.8777705 138.620537,21.6066555 C138.445739,20.2312753 137.688284,19.3526879 136.342803,19.0191927 C135.014189,18.6895308 133.717007,18.8834947 132.442826,19.3059219 C132.255821,19.3787619 132.050127,19.3884543 131.857101,19.3335215 C131.22691,19.1441576 130.592886,18.9632269 129.955028,18.7968626 C129.737298,18.7416634 129.698199,18.6243651 129.731165,18.4365345 C130.132381,16.1365676 130.533342,13.8383896 130.934048,11.5420004 C131.095045,10.6174137 131.263709,9.69359372 131.394041,8.76517376 C131.429307,8.5121774 131.532806,8.48841108 131.735203,8.48994439 C132.527158,8.49607763 133.319113,8.48994439 134.111835,8.48994439 C136.5521,8.48994439 138.991598,8.4983776 141.431863,8.48151118 C141.793724,8.48151118 141.891856,8.58884297 141.869623,8.93230469 C141.841257,9.33939882 141.87499,9.74955958 141.859657,10.1589537 C141.819024,11.2997373 141.169667,11.9506279 140.030417,11.9651943 C138.203476,11.988194 136.377302,11.990494 134.550362,11.985894 C134.285099,11.985894 134.161668,12.0579597 134.118735,12.3224559 C133.938571,13.42414 133.745374,14.5227575 133.559843,15.623675 C133.551206,15.7259412 133.550437,15.8287199 133.557543,15.9311039 Z" id="Shape" fill="#00B4A9"></path>
                    <path d="M144.981479,13.9531324 C144.17649,12.9664466 144.250089,12.2358238 145.197675,11.5650001 C144.516119,11.0536408 144.317555,10.3682507 144.507685,9.56402892 C144.682483,8.82113962 145.209175,8.38721254 145.971998,8.3757127 C146.993183,8.35961293 148.015135,8.3757127 149.03862,8.36804615 C149.214951,8.36804615 149.289317,8.40484562 149.27935,8.59804283 C149.261659,8.90444993 149.261659,9.21162249 149.27935,9.51802958 C149.29315,9.73729309 149.198085,9.76412604 149.012554,9.76259273 C148.106367,9.75441507 147.199669,9.75441507 146.29246,9.76259273 C145.732801,9.76259273 145.495904,9.98722283 145.518138,10.4640826 C145.535004,10.8205775 145.724368,11.0245079 146.079329,11.064374 C146.816852,11.1464061 147.557441,11.0766405 148.296497,11.1019401 C148.61236,11.1126733 149.025587,10.9662421 149.216484,11.1586726 C149.407381,11.3511032 149.233351,11.7719971 149.280117,12.0786594 C149.337616,12.4665871 149.177385,12.5325195 148.820123,12.5217863 C147.953036,12.4941867 147.083648,12.5217863 146.213494,12.5087532 C145.920632,12.5087532 145.654602,12.569319 145.54957,12.8491483 C145.432272,13.1619438 145.512004,13.4701393 145.734334,13.7369355 C145.840133,13.8634337 145.969698,13.813601 146.087763,13.813601 C147.045316,13.8189676 148.004402,13.8258675 148.961188,13.813601 C149.209584,13.8097678 149.29315,13.8734002 149.27475,14.1271632 C149.248684,14.4943912 149.399715,14.9904174 149.214184,15.2004811 C149.000287,15.4412109 148.495828,15.2710134 148.117867,15.2771466 C147.020016,15.2878798 145.921398,15.2725467 144.821248,15.2871132 C144.569018,15.2909464 144.477786,15.2211808 144.514585,14.9720177 C144.532289,14.844855 144.532289,14.7158526 144.514585,14.5886899 C144.466286,14.2298951 144.605051,14.0182981 144.981479,13.9531324 Z" id="Shape" fill="#222222"></path>
                    <path d="M149.349116,18.4258013 C149.349116,19.8625139 148.363963,20.8177668 146.882785,20.8277334 C145.36634,20.8376999 144.437153,19.8755471 144.44252,18.2977698 C144.44712,16.9177897 145.461405,15.9510369 146.891218,15.9587035 C148.370096,15.9694367 149.353716,16.9561225 149.349116,18.4258013 Z M148.275798,18.3759687 C148.275798,17.9489415 148.122467,17.7181781 147.725339,17.5686803 C147.188172,17.3635673 146.594263,17.3635673 146.057096,17.5686803 C145.663802,17.7128116 145.470605,18.0087406 145.477505,18.4120015 C145.484405,18.8152623 145.682968,19.1311245 146.064763,19.2553227 C146.572027,19.4252142 147.119771,19.4319169 147.63104,19.2744891 C148.124,19.116558 148.278098,18.8911613 148.275798,18.3759687 Z" id="Shape" fill="#222222"></path>
                    <path d="M146.686521,26.2295889 C147.578908,26.1329903 148.587827,26.9962445 148.583993,28.1032952 C148.583993,29.1766131 147.753705,29.9977013 146.667354,29.9969346 C146.16438,30.0024539 145.679827,29.8078736 145.320358,29.4560262 C144.96089,29.1041787 144.755973,28.6239058 144.750715,28.1209283 C144.737682,27.0782767 145.60707,26.2280556 146.686521,26.2295889 Z" id="Shape" fill="#00B4A9"></path>
                    <path d="M144.44252,23.0932007 C144.434853,22.2567794 144.600451,21.7392869 144.970745,21.2877267 C145.089577,21.1428288 145.172376,21.1244291 145.33644,21.2486273 C145.866966,21.6518882 145.873099,21.6426883 145.589436,22.2583128 C145.236008,23.0249684 145.660735,23.6635925 146.600655,23.7724576 C146.930763,23.8092577 147.264915,23.7771478 147.581974,23.678159 C148.280398,23.4650287 148.517294,22.7359392 148.097934,22.1218481 C147.96704,21.9466311 147.934022,21.7169574 148.010255,21.5119635 C148.086489,21.3069696 148.261553,21.154678 148.475128,21.1075627 C148.57096,21.0837963 148.616193,21.1504954 148.665259,21.2041613 C149.319216,21.9202176 149.50398,22.7666054 149.236417,23.675859 C148.973454,24.5667128 148.301864,25.0129064 147.401044,25.1746708 C146.986609,25.2487052 146.561171,25.2338096 146.152928,25.1309714 C145.051244,24.8603419 144.44252,24.0277539 144.44252,23.0932007 Z" id="Shape" fill="#222222"></path>
                    <path d="M5.601186,26.569984 C5.601186,26.5569508 5.601186,26.5439177 5.601186,26.5316512 C5.69548464,25.5602985 5.44785487,24.7537768 4.85293011,23.9142889 C3.57261521,22.1180148 3.5848817,20.1576763 4.61526686,18.2073044 C4.66279951,18.1176057 4.71799872,18.0309736 4.76859799,17.9428082 C5.03999408,17.471315 5.01469444,17.4230157 4.4780355,17.3885162 C3.87467753,17.3494168 3.58181508,17.0933538 3.46068349,16.4938291 C3.3395519,15.8943044 3.21995362,15.2947797 3.10035535,14.695255 C2.95392412,13.9531324 3.22915349,13.6158039 3.980476,13.5698046 C4.70624501,13.5226547 5.43430894,13.5226547 6.16007795,13.5698046 C6.68447039,13.6073707 6.99496592,13.3950071 7.20732953,12.8568148 C7.54585053,12.004726 7.95087162,11.180585 8.41864542,10.392017 C9.11630204,9.20600074 10.1466872,8.4845778 11.4247021,8.05218403 C13.0891115,7.48869214 14.7979869,7.19276307 16.547495,7.05553172 C19.4875912,6.81192549 22.4477371,7.04833322 25.3119021,7.7554883 C27.4876708,8.29674717 29.0301819,9.5885619 29.9118359,11.6554655 C30.0640835,11.9914576 30.1966827,12.3360109 30.3089635,12.6873839 C30.4829943,13.2754088 30.9184547,13.5920376 31.5394458,13.5790044 C32.2777351,13.5636713 33.0137245,13.4854724 33.7543139,13.5698046 C34.3523052,13.6388036 34.6398011,13.9569657 34.5378359,14.5419239 C34.4282041,15.1690482 34.3078392,15.7946392 34.1729078,16.4163969 C34.0195767,17.1301533 33.816413,17.2942176 33.0566572,17.3885162 C32.5713642,17.449082 32.5445313,17.5019813 32.7860278,17.9159753 C34.1660079,20.2857078 34.0372098,22.4346436 32.3620672,24.5958458 C32.1310737,24.8854517 32.008504,25.2466526 32.0155389,25.617031 C32.0117056,26.4082197 32.0730381,27.2017082 31.984106,27.9936635 C31.8982406,28.7495859 31.5777785,29.1252472 30.8272227,29.183513 C29.8236705,29.2601786 28.8093851,29.2885448 27.8073662,29.16358 C27.0675435,29.0708146 26.7501481,28.6775203 26.6934155,27.9330977 C26.6819157,27.7797666 26.6849823,27.6264354 26.6826824,27.4731043 C26.6757825,26.8866128 26.5661507,26.7739144 25.9926923,26.7739144 L13.4609395,26.7739144 C12.8223153,26.7739144 12.1836912,26.7693145 11.5443004,26.7739144 C11.0459742,26.779281 10.970842,26.8605465 10.9578088,27.3550394 C10.9202427,28.8469512 10.5399815,29.2157126 9.04116978,29.2157126 C8.3895125,29.2157126 7.73785522,29.2195458 7.0869646,29.2157126 C6.11637858,29.2088127 5.62035239,28.7212197 5.60425262,27.7590669 C5.59658606,27.3619393 5.60195265,26.9655783 5.601186,26.569984 Z M18.8275288,14.8232865 C21.8164636,14.8232865 24.8064205,14.8232865 27.7973996,14.8232865 C28.5724885,14.8232865 28.5908882,14.7949202 28.2918925,14.0604642 C28.1055952,13.6004708 27.9085647,13.1473773 27.7268673,12.685084 C27.2768405,11.5236007 26.4649522,10.7270455 25.3065355,10.2900518 C24.1481189,9.85305809 22.9452362,9.67136071 21.7316203,9.52339617 C20.0150784,9.31639915 18.2939365,9.32329905 16.5727946,9.44673061 C15.0939159,9.55559571 13.6434035,9.81395865 12.241957,10.3115182 C11.2698377,10.6572798 10.5499481,11.2782709 10.1328874,12.2358238 C9.8545914,12.8759812 9.56402892,13.5115387 9.28419962,14.1524628 C9.03120326,14.7305212 9.08870243,14.8194532 9.70969349,14.8194532 C12.7482053,14.823031 15.7874837,14.8243087 18.8275288,14.8232865 Z M30.1464325,21.2631938 C30.134166,19.8724805 29.0915143,18.8190956 27.7414338,18.8351954 C26.3913532,18.8512952 25.3648013,19.9138799 25.3855011,21.2677937 C25.4023675,22.5665083 26.4588189,23.5746605 27.7881998,23.5677606 C29.092281,23.5562607 30.156399,22.515909 30.1464325,21.2593605 L30.1464325,21.2631938 Z M9.90212405,23.5631606 C11.2407048,23.5631606 12.2657233,22.5274089 12.2611234,21.1865282 C12.2556454,20.3374392 11.7976,19.5557711 11.0595283,19.1359707 C10.3214567,18.7161703 9.41548953,18.7220152 8.68289589,19.1513038 C7.95030225,19.5805924 7.50238054,20.3681054 7.50785853,21.2171944 C7.51322512,22.5458086 8.55664343,23.5662273 9.90212405,23.5631606 Z" id="Shape" fill="#222222"></path>
                    <path d="M86.2893905,18.3384025 C85.774198,18.3384025 85.3517707,18.3276694 84.9308768,18.3430025 C84.7254131,18.3499024 84.6740471,18.2786034 84.6748138,18.0815729 C84.680947,16.0637353 84.6748138,14.045131 84.6794137,12.0249935 C84.6794137,11.8908287 84.6418476,11.7328977 84.8741443,11.7413309 C86.0555606,11.7850303 87.2431101,11.6454989 88.4191599,11.894662 C90.2024009,12.2703233 91.0978546,13.5958709 90.8770578,15.4005782 C90.6731274,17.0695875 89.4825112,18.027907 87.9124005,18.2724702 C87.3366421,18.3621689 86.767017,18.2993031 86.2893905,18.3384025 Z" id="Shape" fill="#FEFEFE"></path>
                    <path d="M68.3603821,12.4558539 C69.315635,15.4864436 70.4556519,18.3920684 71.4576708,21.3896919 C71.3135396,21.3958252 71.1816748,21.407325 71.04981,21.407325 L65.7598862,21.407325 C65.2715266,21.407325 65.2722932,21.407325 65.4302243,20.9588315 C66.276101,18.5729992 67.1184,16.1866558 67.9571212,13.7998012 C68.1066191,13.3758407 68.2177842,12.936547 68.3603821,12.4558539 Z" id="Shape" fill="#FEFEFE"></path>
                    <path d="M116.409757,21.3398593 L122.41497,12.9756465 C122.184974,15.7310068 122.326805,18.3698354 122.290005,21.0048308 C122.290005,21.2348275 122.283872,21.3881586 121.97721,21.3881586 C120.188602,21.3758921 118.399995,21.3812587 116.610621,21.3797254 C116.542903,21.3706225 116.475818,21.357308 116.409757,21.3398593 Z" id="Shape" fill="#FEFEFE"></path>
                    <path d="M148.275798,18.3759687 C148.275798,18.8911613 148.122467,19.116558 147.63104,19.2706558 C147.119771,19.4280836 146.572027,19.4213809 146.064763,19.2514894 C145.681435,19.1295912 145.485171,18.8213956 145.477505,18.4081682 C145.469838,17.9949408 145.663802,17.7082116 146.057096,17.564847 C146.594263,17.359734 147.188172,17.359734 147.725339,17.564847 C148.124767,17.7181781 148.271198,17.9489415 148.275798,18.3759687 Z" id="Shape" fill="#FEFEFE"></path>
                    <path d="M18.8275288,14.8232865 C15.7879948,14.8232865 12.7469275,14.8232865 9.7043269,14.8232865 C9.08333584,14.8232865 9.02583667,14.7343545 9.27883303,14.1562961 C9.55866233,13.5161387 9.84922481,12.8805812 10.1275208,12.2396571 C10.5445815,11.2821042 11.2644711,10.6611131 12.2365904,10.3153514 C13.6380369,9.81779193 15.0885494,9.55942899 16.5674281,9.45056389 C18.2885699,9.32406571 20.0097118,9.31716581 21.7262538,9.52722945 C22.9398696,9.67366067 24.1488855,9.85842468 25.3011689,10.2938851 C26.4534523,10.7293455 27.2714739,11.527434 27.7215007,12.6889172 C27.9008982,13.1489106 28.1002286,13.6050707 28.2865259,14.0642974 C28.5855216,14.7987535 28.5671219,14.8271198 27.7920331,14.8271198 C24.8051427,14.8255865 21.8169747,14.8243087 18.8275288,14.8232865 Z" id="Shape" fill="#FEFEFE"></path>
                    <path d="M30.1464325,21.2593605 C30.156399,22.515909 29.092281,23.5593274 27.7881998,23.5631606 C26.456519,23.5708272 25.4023675,22.562675 25.3855011,21.2631938 C25.367868,19.9092799 26.3974865,18.8459286 27.7414338,18.8305955 C29.0853811,18.8152623 30.134166,19.8686472 30.1464325,21.2593605 Z" id="Shape" fill="#FEFEFE"></path>
                    <path d="M9.90212405,23.5631606 C8.55664343,23.5631606 7.51399178,22.5458086 7.50632522,21.2179611 C7.50084723,20.3688721 7.94876894,19.581359 8.68136258,19.1520705 C9.41395622,18.7227819 10.3199234,18.7169369 11.057995,19.1367373 C11.7960666,19.5565378 12.2541121,20.3382059 12.2595901,21.1872948 C12.26649,22.5274089 11.2407048,23.560094 9.90212405,23.5631606 Z" id="Shape" fill="#FEFEFE"></path>
                </g>
            </g>
        </g>
    </g>
</svg>