<?xml version="1.0" encoding="UTF-8"?>
<svg width="150px" height="66px" viewBox="0 0 150 66" version="1.1" xmlns="http://www.w3.org/2000/svg" xmlns:xlink="http://www.w3.org/1999/xlink">
    <!-- Generator: sketchtool 50.2 (55047) - http://www.bohemiancoding.com/sketch -->
    <title>A8E99F6A-94A0-47E0-B8E0-90C612771EEE</title>
    <desc>Created with sketchtool.</desc>
    <defs></defs>
    <g id="Mockups" stroke="none" stroke-width="1" fill="none" fill-rule="evenodd">
        <g id="customers" transform="translate(-114.000000, -1564.000000)" fill-rule="nonzero">
            <g id="Group-3-Copy" transform="translate(85.000000, 1532.000000)">
                <g id="CMB_logo" transform="translate(29.000000, 32.000000)">
                    <g id="CMB_wording" transform="translate(33.727568, 58.579460)" fill="#94969A">
                        <polygon id="Shape" points="1.05958288 0.552264267 1.7759206 0.552264267 3.46229899 5.52264267 5.26806699 0.552264267 6.02171397 0.552264267 6.90221242 6.44571294 6.23064581 6.56405529 5.52176994 1.52267148 5.50684623 1.52267148 3.77569674 6.44571294 3.11159198 6.44571294 1.4998321 1.52267148 1.47744655 1.52267148 0.716337722 6.56405529 0.0447711076 6.44571294 1.05958288 0.552264267"></polygon>
                        <polygon id="Shape" points="9.52878407 0.552264267 12.394135 0.552264267 12.394135 1.16764445 10.2152744 1.16764445 10.1928888 3.17157479 12.3195164 3.17157479 12.3195164 3.77906548 10.2078125 3.77906548 10.185427 5.83033276 12.4239824 5.83033276 12.4239824 6.44571294 9.47655111 6.44571294 9.52878407 0.552264267"></polygon>
                        <path d="M15.9907473,3.36092254 L16.6846994,3.36092254 C17.3711897,3.36092254 18.0800656,3.10845887 18.0800656,2.24850451 C18.0800656,1.61734535 17.7442823,1.06508109 16.8413983,1.06508109 L16.005671,1.06508109 L16.005671,3.36092254 L15.9907473,3.36092254 Z M15.3117188,0.552264267 L16.9906353,0.552264267 C18.0427564,0.552264267 18.7590941,1.12030751 18.7590941,2.13016217 C18.7932182,2.98727141 18.1734273,3.7161736 17.3637279,3.77117599 C17.7368205,3.85007089 18.0502182,4.37866669 18.2815356,4.67846729 L19.4008133,6.25636519 L18.7889415,6.65083967 L17.4756557,4.75736218 C17.1324105,4.2918823 16.9682498,3.96841323 16.4384583,3.96841323 L15.9982091,3.96841323 L15.9982091,6.48516039 L15.2967951,6.48516039 L15.3415662,0.591711714 L15.3117188,0.552264267 Z" id="Shape"></path>
                        <path d="M25.437451,1.49111352 C25.014731,1.18415595 24.509776,1.02924371 23.9973137,1.04930211 C22.7687401,1.12304963 21.8082162,2.19791378 21.8082162,3.4989886 C21.8082162,4.80006343 22.7687401,5.87492758 23.9973137,5.9486751 C24.5038774,5.9272657 24.9969358,5.76978498 25.4299891,5.49108471 L25.7060776,6.01179102 C25.1901691,6.34650716 24.6020494,6.53658461 23.9973137,6.56405529 C23.205036,6.6256289 22.4256311,6.32631311 21.8554066,5.74149616 C21.285182,5.15667921 20.9784887,4.34210286 21.0125732,3.50293335 C20.9993208,2.67021798 21.3125665,1.86882555 21.8779644,1.2889588 C22.4433622,0.709092045 23.2105032,0.402450084 23.9973137,0.441811413 C24.6034822,0.437714423 25.2001766,0.600875879 25.7284632,0.915180785 L25.437451,1.49111352 Z" id="Shape"></path>
                        <polygon id="Shape" points="28.2281833 0.552264267 28.9295974 0.552264267 28.9072118 3.17157479 31.906876 3.17157479 31.9441853 0.552264267 32.6455993 0.552264267 32.5933663 6.44571294 31.8919523 6.44571294 31.9143379 3.77906548 28.9146737 3.77906548 28.8848263 6.44571294 28.1834122 6.44571294 28.2281833 0.552264267"></polygon>
                        <path d="M37.4435697,1.21498139 L36.5108382,3.87373936 L38.3389918,3.87373936 L37.4584934,1.21498139 L37.4435697,1.21498139 Z M37.1301719,0.552264267 L37.7718911,0.552264267 L40.0104465,6.31948111 L39.3164943,6.5561658 L38.5703092,4.48123005 L36.2795209,4.48123005 L35.4661791,6.5561658 L34.7871506,6.35103907 L37.1227101,0.552264267 L37.1301719,0.552264267 Z" id="Shape"></path>
                        <polygon id="Shape" points="42.4280863 0.702164568 43.0026488 0.433921924 46.0918553 5.20706309 46.106779 5.20706309 46.1366264 0.552264267 46.8380404 0.552264267 46.7858074 6.3273706 46.1813975 6.56405529 43.1295003 1.74357719 43.1071148 1.74357719 43.0772674 6.44571294 42.3758533 6.44571294 42.4280863 0.702164568"></polygon>
                        <polygon id="Shape" points="49.2258328 0.552264267 53.4492406 0.552264267 53.4492406 1.16764445 51.6807819 1.16764445 51.6360108 6.44571294 50.9420586 6.44571294 50.9868297 1.16764445 49.2258328 1.16764445 49.2258328 0.552264267"></polygon>
                        <path d="M60.4335334,3.09267989 L60.955863,3.09267989 C61.8736707,3.09267989 62.2467633,2.67453695 62.2467633,2.08282523 C62.2467633,1.49111352 61.8885944,1.07297058 61.008096,1.07297058 L60.455919,1.07297058 L60.455919,3.10056938 L60.4335334,3.09267989 Z M60.4335334,5.88555919 L61.2468752,5.88555919 C61.9557511,5.88555919 62.4034621,5.55420063 62.4034621,4.74158321 C62.4034621,3.92896578 61.9184418,3.65283365 61.1125619,3.65283365 L60.4633808,3.65283365 L60.4633808,5.88555919 L60.4335334,5.88555919 Z M59.7843523,0.560153756 L61.3289556,0.560153756 C62.5526992,0.560153756 62.9705628,1.34910271 62.9705628,1.98815136 C63.0132606,2.64182784 62.5924842,3.22827514 61.9855985,3.36092254 C62.6523865,3.46213169 63.1352214,4.08570296 63.0974143,4.79680963 C63.0974143,5.84611174 62.3885384,6.42993396 61.2916463,6.42993396 L59.7321194,6.42993396 L59.7768905,0.536485288 L59.7843523,0.560153756 Z" id="Shape"></path>
                        <path d="M67.5670632,1.21498139 L66.6343318,3.87373936 L68.4624854,3.87373936 L67.5819869,1.21498139 L67.5670632,1.21498139 Z M67.2536655,0.552264267 L67.9103084,0.552264267 L70.1488638,6.31948111 L69.4549116,6.5561658 L68.7087265,4.48123005 L66.4030144,4.48123005 L65.5896726,6.5561658 L64.9479534,6.34314958 L67.2835129,0.544374777 L67.2536655,0.552264267 Z" id="Shape"></path>
                        <polygon id="Shape" points="72.3575717 0.702164568 72.9395961 0.433921924 76.0213407 5.20706309 76.0437263 5.20706309 76.0735737 0.552264267 76.7749877 0.552264267 76.7227547 6.3273706 76.1183448 6.56405529 73.0589857 1.74357719 73.044062 1.74357719 73.0142146 6.44571294 72.3128006 6.44571294 72.3575717 0.702164568"></polygon>
                        <path d="M80.4387567,3.44770692 L83.2071035,0.433921924 L83.6921238,0.883622827 L81.3043314,3.43192794 L83.7145094,6.08279642 L83.1921798,6.56405529 L80.4462185,3.44770692 L80.4387567,3.44770692 Z M79.76719,0.552264267 L80.4611422,0.552264267 L80.4163711,6.44571294 L79.7224189,6.44571294 L79.76719,0.552264267 Z" id="Shape"></path>
                    </g>
                    <g id="CORONATION_OUTLINED" transform="translate(0.000000, 37.277838)" fill="#002C4D">
                        <g id="coronation">
                            <path d="M6.97272206,13.0364381 C5.30819062,13.1178938 3.6855558,12.50522 2.50077221,11.3479209 C1.31598862,10.1906219 0.678029342,8.59514282 0.742568909,6.95081178 C0.742568909,3.21145101 3.48264818,0.388600237 7.11381015,0.388600237 C8.5789413,0.319623595 10.0302729,0.695795532 11.272196,1.46641599 C11.4157479,1.57543693 11.5798178,1.65519156 11.7548658,1.70104255 C11.7872481,1.68893711 11.8173627,1.67159169 11.8439741,1.64971799 C11.934458,1.57600228 12.0462052,1.53238006 12.1632787,1.52507263 C12.490009,1.52507263 12.4974347,1.78169543 12.5494146,2.8521791 L12.5494146,3.05014526 C12.5494146,3.29210389 12.5494146,3.50473421 12.5939687,3.69536829 C12.6310971,4.15728933 12.6533742,4.42857628 12.5197118,4.58254996 C12.46183,4.64230006 12.3805886,4.67438696 12.2969411,4.67053492 C12.037042,4.67053492 11.9108053,4.36258756 11.8142713,4.14262517 C11.7989673,4.10506549 11.7816154,4.06835137 11.7622915,4.03264397 C10.5741813,2.00165782 9.29696274,1.18046487 7.37370927,1.18046487 C4.29947398,1.18046487 2.53958567,3.08680565 2.53958567,6.41556995 C2.53958567,9.28974528 4.2177914,12.1932489 7.42568909,12.1932489 C10.0840858,12.1932489 11.7103117,10.5142026 11.9405081,9.81032296 C11.9849738,9.63162224 12.1407982,9.50143297 12.3266439,9.48771144 C12.4176731,9.49298781 12.5023276,9.5355849 12.5601467,9.60520714 C12.6179658,9.67482938 12.6436883,9.76514153 12.6310971,9.85431544 L12.2449613,11.5700221 C12.2449613,11.5700221 11.1830878,13.0364381 6.97272206,13.0364381 Z" id="Shape"></path>
                            <path d="M22.833994,13.0364381 C19.1211494,13.0364381 16.6409693,10.4775422 16.6409693,6.66486067 C16.6217875,4.9721231 17.3040985,3.34518405 18.5296502,2.16138847 C19.7552018,0.977592888 21.4175082,0.339798443 23.1310215,0.395932317 C24.8172407,0.36872313 26.4476811,0.992159691 27.6755432,2.13363526 C28.8797968,3.30618437 29.545282,4.91447984 29.5171141,6.58420779 C29.5096884,10.4408818 26.8290147,13.0364381 22.833994,13.0364381 Z M22.6112233,1.25378567 C20.4874762,1.25378567 18.2077896,2.79352246 18.2077896,6.16627923 C18.2077896,10.0962741 20.9627203,12.2225773 23.5617115,12.2225773 C26.1607027,12.2225773 27.9354424,10.1695949 27.9354424,7.22943082 C27.9354424,4.28926676 25.9527834,1.26111775 22.6112233,1.26111775 L22.6112233,1.25378567 Z" id="Shape"></path>
                            <path d="M51.1555721,16.6071611 C48.287088,16.4066153 45.5723469,15.2511748 43.4551326,13.3297213 C42.4745087,12.4161544 41.6115822,11.3868012 40.8858441,10.2649119 C40.2323835,9.2824132 39.5640715,8.22659369 39.4378348,8.02862753 L39.2670439,7.7500085 C38.955165,7.24409498 38.9180365,7.19277042 38.093785,7.18543834 L36.6829041,7.18543834 C36.4824105,7.18543834 36.423005,7.22943082 36.4081536,7.24409498 C36.3933022,7.25875914 36.4081536,7.3467441 36.4081536,7.42739698 L36.4081536,11.0934369 C36.4081536,11.8706374 36.9799317,11.9952828 37.4848785,12.105264 C37.8413116,12.1785848 38.2274474,12.2592377 38.2274474,12.6038454 C38.2320871,12.6829673 38.2023811,12.7602959 38.1457649,12.8164757 C38.0578111,12.8852589 37.9446949,12.9145111 37.8338859,12.8971286 L37.5962639,12.8971286 C37.3586418,12.8971286 36.853695,12.838472 35.7918214,12.838472 C35.4725168,12.838472 35.1383608,12.838472 34.8190561,12.838472 C34.4997515,12.838472 34.1655955,12.838472 33.8165881,12.838472 C33.7272982,12.8385631 33.6418606,12.8025683 33.5801414,12.738857 C33.5184222,12.6751458 33.4857991,12.5892695 33.4898578,12.5011963 C33.4898578,12.2445735 33.7274798,12.1492565 33.9651019,12.0539394 C34.4525916,11.9524894 34.7889601,11.5106963 34.7522249,11.0201161 L34.7522249,2.41958638 C34.7522249,1.51774055 34.2992579,1.43708767 33.8611422,1.35643479 C33.5938174,1.30511023 33.2670871,1.24645359 33.2670871,0.901845833 C33.2670871,0.725875914 33.4527293,0.542573916 33.7646083,0.542573916 C33.8535569,0.535125245 33.9429845,0.535125245 34.0319331,0.542573916 C34.3097074,0.582300949 34.5905629,0.597025639 34.871036,0.586566395 C35.3611314,0.586566395 35.8512269,0.586566395 36.3561738,0.586566395 L36.423005,0.586566395 C36.8982491,0.586566395 37.8338859,0.586566395 38.2868529,0.586566395 L38.4576438,0.586566395 C40.2992147,0.505913516 41.294257,1.05581951 41.7992039,1.53240471 C42.3706754,2.1037669 42.6724971,2.88606109 42.6308811,3.68803621 C42.5792207,5.01094304 41.7614269,6.18650366 40.5294111,6.70885315 C41.1234662,7.62536314 42.8090976,10.2062553 43.3214702,10.8588104 C43.8145114,11.5148736 44.3662284,12.1258904 44.9699731,12.6844983 C46.5613395,14.2680716 48.5663237,15.3848306 50.7620106,15.9106135 L50.8659703,15.9106135 C51.4154713,16.0572551 51.6085392,16.1159117 51.660519,16.3065458 C51.6730957,16.3825865 51.6513957,16.4602572 51.6011135,16.5191761 C51.4786213,16.6238624 51.3094199,16.6572761 51.1555721,16.6071611 Z M36.3933022,6.22493587 C36.9126204,6.33576675 37.4463346,6.3654561 37.974974,6.31292083 L38.7175429,6.31292083 C39.3316012,6.35210636 39.932201,6.12357969 40.3608347,5.68765255 C40.7894683,5.2517254 41.0030637,4.65220281 40.9452496,4.04730813 C40.9452496,1.67904631 38.7175429,1.42242351 37.8041832,1.42242351 L37.0616142,1.42242351 C36.8017151,1.42242351 36.5937958,1.42242351 36.4972619,1.52507263 C36.417285,1.6354778 36.3827788,1.77176273 36.4007279,1.90634078 L36.3933022,6.22493587 Z" id="Shape"></path>
                            <path d="M54.8461396,13.0364381 C51.1332951,13.0364381 48.6531149,10.4775422 48.6531149,6.66486067 C48.6339332,4.9721231 49.3162442,3.34518405 50.5417958,2.16138847 C51.7673474,0.977592888 53.4296538,0.339798443 55.1431672,0.395932317 C56.8293864,0.36872313 58.4598267,0.992159691 59.6876889,2.13363526 C60.8919424,3.30618437 61.5574276,4.91447984 61.5292598,6.58420779 C61.5292598,10.4408818 58.8411603,13.0364381 54.8461396,13.0364381 Z M54.6233689,1.25378567 C52.4996219,1.25378567 50.2199353,2.79352246 50.2199353,6.16627923 C50.2199353,10.0962741 52.9822917,12.2225773 55.5738571,12.2225773 C58.1654226,12.2225773 59.9624394,10.1695949 59.9624394,7.22209874 C59.9624394,4.27460261 57.964929,1.26111775 54.6233689,1.26111775 L54.6233689,1.25378567 Z" id="Shape"></path>
                            <path d="M76.5440031,12.9851136 C76.3435095,12.9851136 76.1281645,12.838472 75.8014342,12.4572038 L68.3089139,4.15728933 C68.2586455,4.09267143 68.2040693,4.03143494 68.1455488,3.97398733 C68.1416227,4.03991911 68.1416227,4.1060217 68.1455488,4.17195349 L68.1455488,11.1447615 C68.1455488,12.0099469 68.6282186,12.0832677 69.1034627,12.1639206 C69.3559361,12.200581 69.667815,12.2519056 69.667815,12.5451888 C69.680962,12.6413211 69.650599,12.7382951 69.5847987,12.810328 C69.5189984,12.8823608 69.4244287,12.922153 69.3262333,12.9191249 C69.1480168,12.9191249 68.9549489,12.9191249 68.7470296,12.9191249 C68.5391103,12.9191249 68.0787176,12.8751324 67.5811964,12.8751324 C67.0836752,12.8751324 66.6232825,12.8751324 66.2965522,12.9264569 L65.9846733,12.9264569 C65.8867836,12.9422042 65.786949,12.9131956 65.7133007,12.8476052 C65.6396524,12.7820147 65.6001643,12.6869437 65.6059631,12.5891813 C65.6059631,12.2812339 65.8807136,12.1932489 66.11091,12.1345923 C66.5415999,12.0099469 67.1282294,11.833977 67.1282294,10.360229 L67.1282294,4.05464021 C67.1282294,1.67904631 66.1703155,1.44441975 65.5985374,1.30511023 C65.3237869,1.23912151 65.0416107,1.16580071 65.0416107,0.865185433 C65.0416107,0.564570155 65.3089355,0.542573916 65.4574493,0.542573916 C65.5742367,0.54611023 65.6907437,0.555900727 65.8064567,0.571902235 C66.0522365,0.612922885 66.3032459,0.612922885 66.5490256,0.571902235 C66.6899599,0.562701655 66.8313557,0.562701655 66.9722899,0.571902235 C67.1950606,0.571902235 67.3584257,0.777200474 67.4698111,0.931174152 L67.5366423,1.01915911 L75.8088599,10.0302854 L75.8088599,3.01348486 C75.8088599,1.64238591 75.066291,1.46641599 74.5093643,1.32710647 C74.2049111,1.25378567 73.8930321,1.17313279 73.8930321,0.872517513 C73.8907177,0.783679639 73.9264815,0.698002823 73.9915206,0.636575759 C74.0565597,0.575148694 74.1448334,0.543676565 74.2346138,0.549905996 C74.4870873,0.549905996 74.732135,0.549905996 74.9771827,0.549905996 C75.2222305,0.549905996 75.519258,0.549905996 75.7865829,0.549905996 C76.0539077,0.549905996 76.4474692,0.549905996 76.7667738,0.513245596 C77.0563757,0.513245596 77.3162748,0.513245596 77.5093427,0.513245596 C77.5951815,0.50699584 77.6796886,0.536913873 77.7419492,0.595595206 C77.8042097,0.654276538 77.8384054,0.736237349 77.836073,0.821192953 C77.836073,1.08514783 77.6207281,1.18046487 77.4202345,1.26111775 C77.0069476,1.37801452 76.746107,1.78004749 76.8113279,2.19962398 L76.8113279,12.105264 C76.8558821,12.5965133 76.8558821,12.9851136 76.5440031,12.9851136 Z" id="Shape"></path>
                            <path d="M84.1850372,12.9191249 L84.0142464,12.9191249 C83.7617729,12.9191249 83.4944481,12.9191249 83.2716775,12.9191249 C83.0489068,12.9191249 82.7890077,12.9191249 82.5291085,12.9191249 C82.2692094,12.9191249 82.0538644,12.9191249 81.8385195,12.9191249 C81.6231745,12.9191249 81.3781267,12.9191249 81.1479304,12.9191249 C81.0598017,12.9195205 80.9756174,12.8830821 80.9161944,12.8188201 C80.8567713,12.7545582 80.8276572,12.6684721 80.8360514,12.5818492 C80.8360514,12.3325585 81.0588221,12.2592377 81.25189,12.200581 C81.6446651,12.1128785 81.9675458,11.8380419 82.11327,11.467373 L86.2790815,2.77152622 L86.8805624,1.48841223 C87.3855092,0.403264397 87.4449147,0.263954878 87.7122395,0.263954878 C87.9795643,0.263954878 88.083524,0.579234315 88.1874836,0.901845833 L88.1874836,0.997162872 L91.7740915,9.7956588 C91.8409227,9.96429664 91.9077539,10.1329345 91.9745851,10.3089044 C92.1391311,10.7981979 92.3582995,11.2678963 92.6280457,11.7093317 C92.8530539,12.0127625 93.2054467,12.1988756 93.5859596,12.2152452 C93.8607101,12.2592377 94.172589,12.3105622 94.172589,12.6258417 C94.172589,12.9411211 93.8829872,12.933789 93.7790275,12.933789 C93.4077431,12.933789 93.0364586,12.933789 92.7097283,12.933789 C92.1310457,12.8994792 91.5507996,12.8994792 90.972117,12.933789 C90.7493464,12.933789 90.5042986,12.933789 90.2295481,12.933789 C89.9547976,12.933789 89.6948985,12.8238078 89.6948985,12.6111775 C89.6948985,12.3985472 89.9919261,12.2225773 90.2295481,12.1419244 C90.4671702,12.0612715 90.734495,11.9586224 90.734495,11.7239958 C90.6628509,11.3083596 90.5354959,10.9039884 90.3557848,10.5215347 C90.303805,10.3968894 90.2592509,10.2795761 90.2221224,10.184259 L89.6651958,8.76916761 C89.5018306,8.39523153 89.4275737,8.23392577 89.0562893,8.23392577 L85.2543364,8.23392577 C84.9053291,8.23392577 84.7048354,8.23392577 84.5785987,8.50521273 L83.5167252,10.8368142 C83.4515771,11.0081146 83.4164223,11.1891113 83.4127655,11.372056 C83.4127655,11.9879507 83.7543472,12.0466073 84.118206,12.105264 C84.3484024,12.1492565 84.6380042,12.200581 84.6380042,12.4938642 C84.6465818,12.6074383 84.6061218,12.7192982 84.5266189,12.8018116 C84.4332892,12.884548 84.3102211,12.9268147 84.1850372,12.9191249 Z M85.2988906,7.1267817 L85.4177016,7.1267817 L88.8260929,7.1267817 C88.882778,7.1341593 88.9401986,7.1341593 88.9968837,7.1267817 C88.9878546,7.08672016 88.9754349,7.04747789 88.9597553,7.00946842 L87.2741239,2.91083574 L85.3211676,7.0534609 C85.3107704,7.07945766 85.3032998,7.1065045 85.2988906,7.13411378 L85.2988906,7.1267817 Z" id="Shape"></path>
                            <path d="M103.476977,12.9191249 C103.28391,12.9191249 103.083416,12.9191249 102.875497,12.9191249 L102.830943,12.9191249 C102.578469,12.9191249 102.333421,12.9191249 102.088374,12.9191249 C100.514128,12.9191249 100.016606,12.9631173 99.8606669,12.9777815 L99.7567072,12.9777815 C99.5116595,12.9777815 99.3928485,12.8531361 99.3928485,12.6038454 C99.3928485,12.3545547 99.6601733,12.2445735 99.9497751,12.1419244 C100.239377,12.0392753 100.759175,11.8559733 100.759175,11.3427277 L100.759175,2.16296358 C100.759175,1.67904631 100.714621,1.60572551 100.714621,1.60572551 L97.8854336,1.60572551 C97.0240536,1.60572551 96.9423711,1.8623483 96.6898976,2.6322167 L96.5933637,2.94749614 C96.5562352,3.09413773 96.4819783,3.37275677 96.1775251,3.37275677 C95.9894662,3.35728409 95.8462116,3.19976163 95.8507948,3.01348486 L96.0438627,1.26844983 C96.0438627,1.03382327 96.0884168,0.535241836 96.5042554,0.535241836 C97.0983105,0.535241836 97.6775143,0.535241836 98.3384006,0.535241836 C99.140375,0.535241836 100.135417,0.579234315 101.40521,0.579234315 C103.729451,0.579234315 105.222014,0.542573916 105.942306,0.520577676 L106.462104,0.520577676 C106.937349,0.520577676 107.093288,0.674551354 107.115565,1.15846863 L107.204673,2.5222355 C107.239611,2.67137347 107.21001,2.82814137 107.122991,2.95482822 C107.055746,3.02495076 106.960764,3.06246468 106.863092,3.05747734 C106.484382,3.05747734 106.454679,2.7055375 106.432402,2.4489147 C106.432402,2.02365406 106.358145,1.58372927 105.400231,1.58372927 L102.778963,1.58372927 C102.658378,1.56551306 102.535689,1.56551306 102.415104,1.58372927 C102.394896,1.7223243 102.394896,1.86306279 102.415104,2.00165782 C102.415104,2.07497862 102.415104,2.1556315 102.415104,2.24361646 L102.415104,11.1154332 C102.415104,11.8486412 102.838368,11.9806186 103.246781,12.0686036 C103.499255,12.1272602 103.818559,12.1932489 103.818559,12.5158605 C103.830071,12.6135157 103.80055,12.7115628 103.736877,12.7871474 C103.678689,12.8720049 103.58073,12.9217487 103.476977,12.9191249 Z" id="Shape"></path>
                            <path d="M115.877878,12.8604682 L115.291249,12.8604682 L115.209566,12.8604682 C114.860559,12.8604682 114.466997,12.8164757 113.999179,12.8164757 C113.25661,12.8164757 112.900177,12.8164757 112.647703,12.8678003 L112.34325,12.8678003 C112.105628,12.8678003 111.830878,12.8238078 111.830878,12.4572038 C111.830878,12.0905998 112.105628,12.0979319 112.328399,12.0392753 C112.707109,11.9439582 113.182353,11.8193129 113.182353,10.8368142 L113.182353,2.10430694 C113.182353,1.42242351 112.684832,1.29777815 112.298696,1.20246111 C112.046223,1.14380447 111.786324,1.07781575 111.786324,0.821192953 C111.786324,0.564570155 111.882858,0.483917276 112.113054,0.483917276 C112.34325,0.483917276 112.796217,0.483917276 113.070968,0.483917276 C113.647233,0.51621067 114.224888,0.51621067 114.801153,0.483917276 C115.053627,0.483917276 115.335803,0.483917276 115.617979,0.483917276 C115.900155,0.483917276 116.100649,0.483917276 116.100649,0.806528793 C116.100649,1.12914031 115.848175,1.13647239 115.617979,1.19512903 C115.246695,1.29777815 114.87541,1.40042727 114.87541,2.09697486 L114.87541,11.2620748 C114.87541,11.8413091 115.3061,11.9439582 115.759067,12.0539394 C116.06352,12.1272602 116.412528,12.2152452 116.412528,12.5378567 C116.412528,12.8604682 116.056095,12.8604682 115.877878,12.8604682 Z" id="Shape"></path>
                            <path d="M126.593148,13.0364381 C122.880303,13.0364381 120.400123,10.4775422 120.400123,6.66486067 C120.380941,4.9721231 121.063252,3.34518405 122.288804,2.16138847 C123.514355,0.977592888 125.176662,0.339798443 126.890175,0.395932317 C128.576394,0.36872313 130.206835,0.992159691 131.434697,2.13363526 C132.63895,3.30618437 133.304436,4.91447984 133.276268,6.58420779 C133.276268,10.4408818 130.588168,13.0364381 126.593148,13.0364381 Z M126.370377,1.25378567 C124.24663,1.25378567 121.966943,2.79352246 121.966943,6.16627923 C121.966943,10.0962741 124.721874,12.2225773 127.320865,12.2225773 C129.919856,12.2225773 131.709447,10.1695949 131.709447,7.22209874 C131.709447,4.27460261 129.711937,1.26111775 126.370377,1.26111775 L126.370377,1.25378567 Z" id="Shape"></path>
                            <path d="M148.112795,12.9851136 C147.912301,12.9851136 147.696956,12.838472 147.370226,12.4572038 L139.877705,4.15728933 C139.827273,4.09280447 139.772706,4.03157825 139.71434,3.97398733 C139.710397,4.03991861 139.710397,4.1060222 139.71434,4.17195349 L139.71434,11.1447615 C139.71434,12.0099469 140.19701,12.0832677 140.672254,12.1639206 C140.924728,12.200581 141.236606,12.2519056 141.236606,12.5451888 C141.249753,12.6413211 141.21939,12.7382951 141.15359,12.810328 C141.08779,12.8823608 140.99322,12.922153 140.895025,12.9191249 C140.716808,12.9191249 140.52374,12.9191249 140.315821,12.9191249 C140.107902,12.9191249 139.647509,12.8751324 139.149988,12.8751324 C138.652467,12.8751324 138.192074,12.8751324 137.857918,12.9264569 L137.523762,12.9264569 C137.426402,12.9394382 137.32819,12.9094579 137.255238,12.8444871 C137.182285,12.7795163 137.141985,12.6861388 137.145052,12.5891813 C137.145052,12.2812339 137.427228,12.1932489 137.649999,12.1345923 C138.080689,12.0099469 138.667318,11.833977 138.667318,10.360229 L138.667318,4.05464021 C138.667318,1.67904631 137.709404,1.44441975 137.137626,1.30511023 C136.862876,1.23912151 136.580699,1.16580071 136.580699,0.865185433 C136.580699,0.564570155 136.840599,0.542573916 136.989112,0.542573916 C137.130052,0.533540974 137.271437,0.533540974 137.412377,0.542573916 C137.658083,0.584443969 137.909239,0.584443969 138.154946,0.542573916 C138.295888,0.53362252 138.437267,0.53362252 138.57821,0.542573916 C138.80098,0.542573916 138.964346,0.747872154 139.075731,0.901845833 L139.142562,0.989830792 L147.370226,10.0302854 L147.370226,3.01348486 C147.370226,1.64238591 146.627657,1.46641599 146.07073,1.32710647 C145.766277,1.25378567 145.454398,1.17313279 145.454398,0.872517513 C145.452083,0.783679639 145.487847,0.698002823 145.552886,0.636575759 C145.617925,0.575148694 145.706199,0.543676565 145.79598,0.549905996 C146.055879,0.549905996 146.300926,0.549905996 146.538548,0.549905996 C146.776171,0.549905996 147.073198,0.549905996 147.347949,0.549905996 C147.622699,0.549905996 148.008835,0.549905996 148.32814,0.513245596 C148.632593,0.513245596 148.877641,0.513245596 149.070708,0.513245596 C149.156547,0.50699584 149.241054,0.536913873 149.303315,0.595595206 C149.365575,0.654276538 149.399771,0.736237349 149.397439,0.821192953 C149.397439,1.08514783 149.182094,1.18046487 148.989026,1.26111775 C148.575739,1.37801452 148.314898,1.78004749 148.380119,2.19962398 L148.380119,12.105264 C148.417248,12.5965133 148.417248,12.9851136 148.112795,12.9851136 Z" id="Shape"></path>
                        </g>
                    </g>
                    <g id="LION" transform="translate(55.916757, 0.000000)" fill="#A7674C">
                        <path d="M25.4455761,10.8597306 C25.4455761,11.4905863 25.872792,12.0838911 27.0345193,11.6633206 C27.7390507,11.4079743 28.6834226,12.2265847 29.1705986,11.8811161 C29.4179341,11.7083818 28.3161669,11.1300973 27.8140008,10.6118944 C27.3118348,10.0936915 28.1138015,10.3715684 27.5666654,9.92095722 C27.0195293,9.47034599 25.4530711,10.8597306 25.4530711,10.8597306 L25.4455761,10.8597306 Z M23.1446065,13.0151543 C22.6602851,12.3552992 21.9193856,11.9322408 21.1059624,11.8510753 C20.9560621,11.8510753 20.7686867,11.9111568 20.911092,12.1289522 C21.1413304,12.5002752 21.391533,12.8587892 21.6605935,13.202909 C22.4893362,14.0953092 22.4594463,15.4863372 21.5931384,16.3421672 C19.3970989,18.7979984 25.2207256,21.4490945 26.1725926,21.8621548 C28.9907182,23.0863153 30.399781,23.5744774 31.5764984,24.6183935 C33.2928569,26.1204309 33.6151425,28.1256509 33.0230363,28.9893224 C32.9256011,29.1320159 32.7457208,29.2822197 32.1985847,29.0869548 C28.3921403,27.7325512 24.3880493,27.019441 20.3489659,26.9765922 C15.1715603,26.8443486 10.0065915,27.5467457 5.05164014,29.0569141 C4.24967353,29.3047502 4.1822184,28.4260583 4.71436447,28.0880999 C5.96603198,27.3370812 6.63308832,27.1793673 7.36759979,26.2631244 C7.64426939,26.0391357 7.79201877,25.6922036 7.76198331,25.3370678 C7.73194786,24.981932 7.52804076,24.6648616 7.21769949,24.4907203 C6.0259921,23.8523544 5.08911522,24.9788824 4.27215858,25.6172484 C4.49602857,24.4824629 4.98965868,23.4184945 5.71120147,22.5155411 C5.11909528,22.0574196 4.21219846,22.5681124 2.66073034,23.5894978 C2.98301599,21.3364417 5.48635102,19.7818329 6.88791883,20.0446895 C6.06827141,19.1713373 4.86763096,18.7656179 3.6875474,18.9632225 C2.4915023,19.554894 1.59533166,20.6188698 1.21419244,21.8997057 C1.21419244,21.8997057 0.134910271,18.9857531 3.72502248,18.8956309 C4.53200639,17.7101496 5.83442291,16.9580852 7.26266958,16.85286 C7.08278922,16.5149015 5.76366657,15.2757207 3.11792626,17.1006961 C3.11792626,17.1006961 4.18971341,15.1104965 5.22402549,14.7500076 C4.99168002,14.6749057 4.05480314,14.4571103 3.66506236,14.3519676 C2.05363412,14.7725381 1.28914259,15.8540051 0.479680963,17.1457573 C-0.00749501505,14.8927011 1.51399304,13.7511527 3.65756734,14.2017639 C4.81929468,13.0602154 6.29581264,12.962583 7.83978574,13.1202969 C7.24306179,12.259875 6.29569372,11.7095644 5.25400555,11.6182595 C3.57630352,11.3040972 1.85470692,11.8706264 0.689541385,13.1202969 C0.689541385,12.8874811 1.67888337,8.65924578 5.63625132,11.1751585 C6.08595222,11.0700159 7.83229073,10.8522204 8.18455643,10.5443028 C7.63742034,9.79328404 4.89424483,9.41777468 4.6319193,9.41026449 C5.49842141,9.01494306 6.41726267,8.74682676 7.36010478,8.61418466 C8.50169601,8.52001417 9.63530898,8.87263007 10.5230011,9.59801917 C10.5230011,9.59801917 9.89341987,7.48765658 8.14708136,7.17222872 C6.25513072,6.9438971 4.36310667,7.59706725 3.01299605,8.94463289 C3.01299605,8.94463289 3.35776674,4.28080667 8.07962622,7.09712685 C9.24867306,6.67546986 10.5367922,6.7348757 11.6622434,7.26235097 C11.5573132,6.25598589 10.2756656,5.36978381 9.90091488,5.09190688 C7.95970598,4.91166239 6.10094225,5.18202913 5.53132111,5.8429256 C7.5699652,3.34203328 8.70920749,3.99541956 10.1107753,4.86660127 C11.5773251,4.5147413 13.1227202,4.74056764 14.427904,5.49745699 C14.0756383,4.34839836 13.0862963,3.04162579 9.6610744,3.16929898 C9.6610744,3.16929898 9.6610744,3.16929898 9.6610744,3.16929898 C12.6590804,1.87754679 14.9750401,2.51591269 16.4065879,4.39345948 C17.0736443,5.257131 16.5414982,1.05893639 12.6216053,1.87754679 C12.5241701,1.87754679 12.6216053,1.87754679 12.6216053,1.87754679 C14.7059717,1.0722212 17.0699732,1.63309268 18.5726473,3.28946197 C18.6251124,3.35705365 18.6550925,3.34203328 18.6550925,3.25191103 C18.6550925,2.75623868 18.7375376,1.1115077 15.4022559,0.563264036 C15.3572858,0.563264036 15.3572858,0.510692726 15.4921961,0.488162164 C19.3146538,-0.00751018715 20.2515307,3.06415636 20.3414708,2.84636093 C21.1134574,0.375509357 17.7032255,0 18.3627869,0 C21.8554639,0 21.5781483,2.89142205 21.8554639,2.59852475 C22.7773507,1.04391601 20.431411,0.0300407486 21.1059624,0.127673181 C21.7802908,0.168381138 22.3983957,0.517815133 22.7818599,1.07511047 C23.1653241,1.63240581 23.2714693,2.33553708 23.0696563,2.9815443 C24.3363139,2.14791352 23.1371115,0.916242832 23.5268522,1.12652807 C25.1682605,2.14791352 23.7816828,3.57484908 24.3438089,3.31950272 C25.4380811,2.11036259 26.4723932,2.95901374 26.2625327,3.04913598 C25.7368189,3.27669689 25.3444749,3.73351241 25.1982406,4.28831686 C26.4798882,3.2143601 27.7090706,4.46856135 27.386785,4.50611229 C26.9057164,4.53138775 26.4878709,4.84614862 26.3299879,5.30219212 C27.4617351,4.33337798 28.5185323,5.97059878 28.1587715,5.89549691 C27.40927,5.73778298 27.2518747,6.57892394 27.2518747,6.57892394 C27.6416155,6.38365907 28.4585721,7.13467779 28.0013762,7.10463704 C27.2518747,7.05957592 27.39428,7.93826781 27.37929,7.93826781 C27.913867,8.15215398 28.3802449,8.50783794 28.7283927,8.96716345 C28.9198755,9.40371323 29.172226,9.81082 29.4778942,10.1763036 C29.7552097,10.4091194 31.2017477,12.1064217 31.5764984,12.4293597 C31.9512492,12.7522978 33.0755014,13.9313972 33.2778668,14.1041315 C33.5059905,14.5301945 33.4710574,15.0494181 33.1879266,15.4409448 C32.7607108,15.8464949 32.1461195,15.9891884 32.1611096,16.2445348 C32.2102978,16.6730056 32.1038732,17.1048978 31.861309,17.4611851 C31.6289635,17.6639602 31.3291629,17.7916333 31.2766978,18.0770205 C31.2413222,18.4839487 31.0904817,18.8722372 30.8419869,19.1960383 C30.1743318,19.8325755 29.1466143,19.8959477 28.406107,19.3462421 C27.7690308,18.9106512 27.0794894,18.3849381 26.4499081,18.6553049 C25.8203268,18.9256716 25.872792,19.5790579 26.0301873,20.46526 C22.6574305,18.580203 22.2826797,16.4998812 22.8223208,15.2682105 C23.1970716,14.3820084 23.6842476,13.9013564 23.1970716,13.0151543 L23.1446065,13.0151543 Z" id="Shape"></path>
                    </g>
                </g>
            </g>
        </g>
    </g>
</svg>