<?xml version="1.0" encoding="UTF-8"?>
<svg width="192px" height="30px" viewBox="0 0 192 30" version="1.1" xmlns="http://www.w3.org/2000/svg" xmlns:xlink="http://www.w3.org/1999/xlink">
    <!-- Generator: sketchtool 50.2 (55047) - http://www.bohemiancoding.com/sketch -->
    <title>5F77D112-9381-4A66-B5C0-C224CED85C65</title>
    <desc>Created with sketchtool.</desc>
    <defs>
        <polygon id="path-1" points="0.843054545 0.229411765 191.810618 0.229411765 191.810618 29.4785294 0.843054545 29.4785294"></polygon>
    </defs>
    <g id="Mockups" stroke="none" stroke-width="1" fill="none" fill-rule="evenodd">
        <g id="homepage" transform="translate(-221.000000, -579.000000)">
            <g id="coca-cola-hellenic-logo" transform="translate(221.000000, 579.000000)">
                <g id="g2995" transform="translate(96.000000, 15.000000) scale(-1, 1) rotate(-180.000000) translate(-96.000000, -15.000000) ">
                    <g id="g2997-Clipped">
                        <mask id="mask-2" fill="white">
                            <use xlink:href="#path-1"></use>
                        </mask>
                        <g id="path3001-3"></g>
                        <g id="g2997" mask="url(#mask-2)">
                            <g transform="translate(0.000000, -0.882353)">
                                <g id="g3003" stroke-width="1" fill="none" fill-rule="evenodd" transform="translate(30.978938, 16.568294)">
                                    <path d="M8.72727273,2.64705882 C8.53876364,2.38323529 8.31098182,2.13705882 8.04130909,1.905 C7.77163636,1.67294118 7.47229091,1.47088235 7.14501818,1.29970588 C6.81774545,1.12588235 6.46254545,0.990882353 6.08116364,0.891176471 C5.69978182,0.790588235 5.30181818,0.741176471 4.88989091,0.741176471 C4.20654545,0.741176471 3.58341818,0.858529412 3.01701818,1.095 C2.45236364,1.33058824 1.96538182,1.66058824 1.55694545,2.08235294 C1.14763636,2.50411765 0.831709091,3.00352941 0.606545455,3.57970588 C0.383127273,4.15588235 0.270545455,4.78941176 0.270545455,5.47941176 C0.270545455,6.15088235 0.383127273,6.77911765 0.606545455,7.365 C0.831709091,7.95 1.14763636,8.45823529 1.55694545,8.88970588 C1.96538182,9.32117647 2.45410909,9.66088235 3.02487273,9.91058824 C3.59389091,10.1602941 4.22574545,10.2847059 4.91694545,10.2847059 C5.75127273,10.2847059 6.48087273,10.1302941 7.10487273,9.82147059 C7.72974545,9.51352941 8.24814545,9.06882353 8.66094545,8.48823529 L7.27243636,7.14 C7.00363636,7.52117647 6.68509091,7.82823529 6.3168,8.05941176 C5.94850909,8.29058824 5.50952727,8.40705882 4.99723636,8.40705882 C4.59403636,8.40705882 4.22923636,8.33117647 3.90632727,8.18205882 C3.58341818,8.03205882 3.30938182,7.82558824 3.08509091,7.56264706 C2.8608,7.29882353 2.688,6.99264706 2.56669091,6.64323529 C2.44538182,6.29382353 2.38429091,5.92411765 2.38429091,5.53323529 C2.38429091,5.13352941 2.44538182,4.76117647 2.56669091,4.41617647 C2.688,4.07205882 2.8608,3.77205882 3.08509091,3.51794118 C3.30938182,3.26470588 3.57905455,3.06441176 3.89323636,2.91882353 C4.20654545,2.77411765 4.56087273,2.70176471 4.95709091,2.70176471 C5.28,2.70176471 5.56014545,2.73529412 5.79927273,2.80323529 C6.03665455,2.87117647 6.24785455,2.96205882 6.432,3.07588235 C6.61614545,3.18970588 6.77934545,3.32117647 6.92334545,3.47117647 C7.0656,3.62117647 7.20610909,3.77205882 7.34050909,3.92647059 L8.72727273,2.64705882 Z" id="path3005" fill="#E41E2B" fill-rule="nonzero"></path>
                                </g>
                                <g id="g3007" stroke-width="1" fill="none" fill-rule="evenodd" transform="translate(40.289105, 17.211097)">
                                    <path d="M0,3.52941176 C0,4.00058824 0.0837818182,4.44352941 0.2496,4.85735294 C0.415418182,5.27029412 0.647563636,5.63029412 0.943418182,5.93911765 C1.24014545,6.24705882 1.59621818,6.49058824 2.01338182,6.66794118 C2.43054545,6.84441176 2.89134545,6.93352941 3.39403636,6.93352941 C3.89672727,6.93352941 4.35490909,6.84441176 4.76770909,6.66794118 C5.18050909,6.49058824 5.53483636,6.24705882 5.83156364,5.93911765 C6.12741818,5.63029412 6.35869091,5.27029412 6.52538182,4.85735294 C6.6912,4.44352941 6.77410909,4.00058824 6.77410909,3.52941176 C6.77410909,3.05735294 6.6912,2.61441176 6.52538182,2.20147059 C6.35869091,1.78852941 6.12741818,1.42764706 5.83156364,1.11970588 C5.53483636,0.810882353 5.18050909,0.565588235 4.76770909,0.384705882 C4.35490909,0.202058824 3.89672727,0.112058824 3.39403636,0.112058824 C2.89134545,0.112058824 2.43054545,0.202058824 2.01338182,0.384705882 C1.59621818,0.565588235 1.24014545,0.810882353 0.943418182,1.11970588 C0.647563636,1.42764706 0.415418182,1.78852941 0.2496,2.20147059 C0.0837818182,2.61441176 0,3.05735294 0,3.52941176 M3.39403636,1.81411765 C3.63752727,1.81411765 3.85134545,1.86088235 4.04072727,1.95705882 C4.22923636,2.05147059 4.38894545,2.18117647 4.51898182,2.34441176 C4.64901818,2.50764706 4.74589091,2.69117647 4.80872727,2.89676471 C4.87069091,3.09970588 4.90210909,3.31147059 4.90210909,3.52941176 C4.90210909,3.74647059 4.87069091,3.95823529 4.80872727,4.16205882 C4.74589091,4.36676471 4.64901818,4.54852941 4.51898182,4.70735294 C4.38894545,4.86617647 4.22923636,4.99235294 4.04072727,5.08764706 C3.85134545,5.18294118 3.63752727,5.23058824 3.39403636,5.23058824 C3.15141818,5.23058824 2.93410909,5.18294118 2.74036364,5.08764706 C2.54749091,4.99235294 2.38865455,4.86617647 2.26298182,4.70735294 C2.13730909,4.54852941 2.04043636,4.36676471 1.97323636,4.16205882 C1.90603636,3.95823529 1.87287273,3.74647059 1.87287273,3.52941176 C1.87287273,3.31147059 1.90603636,3.09970588 1.97323636,2.89676471 C2.04043636,2.69117647 2.13730909,2.50764706 2.26298182,2.34441176 C2.38865455,2.18117647 2.54749091,2.05147059 2.74036364,1.95705882 C2.93410909,1.86088235 3.15141818,1.81411765 3.39403636,1.81411765" id="path3009" fill="#E41E2B" fill-rule="nonzero"></path>
                                </g>
                                <g id="g3011" stroke-width="1" fill="none" fill-rule="evenodd" transform="translate(47.686255, 16.620097)">
                                    <path d="M6.10909091,1.76470588 C5.84901818,1.47441176 5.50516364,1.22470588 5.07927273,1.01558824 C4.65250909,0.807352941 4.1472,0.703235294 3.56334545,0.703235294 C3.05192727,0.703235294 2.58676364,0.786176471 2.1696,0.954705882 C1.75243636,1.12323529 1.39549091,1.35882353 1.09876364,1.66323529 C0.802909091,1.96676471 0.571636364,2.32764706 0.405818182,2.745 C0.24,3.16235294 0.157090909,3.62117647 0.157090909,4.12058824 C0.157090909,4.59176471 0.241745455,5.03470588 0.411927273,5.44764706 C0.582109091,5.86058824 0.818618182,6.22147059 1.11883636,6.53029412 C1.41992727,6.83823529 1.77949091,7.08088235 2.19752727,7.25823529 C2.61469091,7.43558824 3.07025455,7.52382353 3.56334545,7.52382353 C4.1376,7.52382353 4.6368,7.42852941 5.0592,7.23794118 C5.48072727,7.04735294 5.83592727,6.79323529 6.12218182,6.47558824 L4.95010909,5.19529412 C4.80698182,5.35852941 4.63156364,5.50411765 4.4256,5.63117647 C4.21876364,5.75823529 3.9456,5.82264706 3.60436364,5.82264706 C3.37047273,5.82264706 3.16189091,5.77411765 2.97774545,5.67882353 C2.7936,5.58441176 2.63650909,5.45911765 2.50647273,5.30470588 C2.37556364,5.15029412 2.27694545,4.97117647 2.21061818,4.76647059 C2.14341818,4.56264706 2.10938182,4.34735294 2.10938182,4.12058824 C2.10938182,3.91147059 2.14341818,3.705 2.21061818,3.50029412 C2.27694545,3.29647059 2.37556364,3.11382353 2.50647273,2.95676471 C2.63650909,2.79705882 2.7936,2.66823529 2.97774545,2.56764706 C3.16189091,2.46794118 3.37047273,2.41852941 3.60436364,2.41852941 C3.936,2.41852941 4.2144,2.48382353 4.43869091,2.61617647 C4.66385455,2.74676471 4.84363636,2.89058824 4.97803636,3.04411765 L6.10909091,1.76470588 Z" id="path3013" fill="#E41E2B" fill-rule="nonzero"></path>
                                </g>
                                <g id="g3015" stroke-width="1" fill="none" fill-rule="evenodd" transform="translate(54.034647, 17.257500)">
                                    <path d="M4.36363636,0.882352941 C4.14807273,0.627352941 3.87578182,0.433235294 3.54850909,0.297352941 C3.22123636,0.160588235 2.85556364,0.0926470588 2.45149091,0.0926470588 C2.22632727,0.0926470588 1.99069091,0.124411765 1.74458182,0.187941176 C1.4976,0.251470588 1.26807273,0.358235294 1.05687273,0.507352941 C0.846545455,0.658235294 0.671127273,0.859411765 0.532363636,1.11441176 C0.392727273,1.36764706 0.323781818,1.68529412 0.323781818,2.06647059 C0.323781818,2.43882353 0.397963636,2.76970588 0.545454545,3.06088235 C0.693818182,3.35117647 0.898036364,3.59382353 1.15898182,3.78970588 C1.41905455,3.98470588 1.72625455,4.13117647 2.08058182,4.23176471 C2.43490909,4.33147059 2.81890909,4.38088235 3.23170909,4.38088235 C3.45687273,4.38088235 3.68378182,4.37647059 3.91243636,4.36764706 C4.14196364,4.35882353 4.29207273,4.34558824 4.36363636,4.32705882 L4.36363636,4.46294118 C4.36363636,4.62617647 4.33047273,4.76558824 4.26327273,4.87852941 C4.1952,4.99235294 4.10530909,5.08676471 3.99272727,5.16441176 C3.88014545,5.24117647 3.75272727,5.29588235 3.6096,5.32764706 C3.4656,5.35941176 3.31374545,5.37529412 3.15229091,5.37529412 C2.72029091,5.37529412 2.36334545,5.32058824 2.08058182,5.21205882 C1.79869091,5.10264706 1.55781818,4.98088235 1.36058182,4.84411765 L0.5664,6.04235294 C0.699927273,6.14205882 0.853527273,6.24176471 1.02458182,6.34235294 C1.19389091,6.44117647 1.39636364,6.53294118 1.63025455,6.61411765 C1.86327273,6.69529412 2.12509091,6.76147059 2.41745455,6.81176471 C2.70981818,6.86117647 3.04407273,6.88676471 3.42109091,6.88676471 C4.38196364,6.88676471 5.09149091,6.62470588 5.5488,6.10323529 C6.00698182,5.58264706 6.23476364,4.88029412 6.23476364,4.00058824 L6.23476364,0.283235294 L4.41687273,0.283235294 L4.36363636,0.882352941 Z M4.36363636,3.10147059 C4.31912727,3.11029412 4.2336,3.12176471 4.10792727,3.135 C3.98138182,3.14911765 3.83738182,3.15617647 3.6768,3.15617647 C3.13832727,3.15617647 2.75607273,3.07852941 2.53178182,2.925 C2.30661818,2.76970588 2.19578182,2.55264706 2.19578182,2.27117647 C2.19578182,1.74441176 2.50996364,1.48147059 3.13832727,1.48147059 C3.29105455,1.48147059 3.44116364,1.50617647 3.58865455,1.55647059 C3.73789091,1.60588235 3.86705455,1.67647059 3.97963636,1.76735294 C4.09134545,1.85823529 4.18385455,1.97205882 4.25541818,2.10705882 C4.32698182,2.24382353 4.36363636,2.40264706 4.36363636,2.58352941 L4.36363636,3.10147059 Z" id="path3017" fill="#E41E2B" fill-rule="nonzero"></path>
                                </g>
                                <polygon id="path3019" fill="#E41E2B" fill-rule="nonzero" points="62.1024 22.2785294 66.3709091 22.2785294 66.3709091 20.4132353 62.1024 20.4132353"></polygon>
                                <g id="g3021" stroke-width="1" fill="none" fill-rule="evenodd" transform="translate(67.710973, 16.568294)">
                                    <path d="M8.72727273,2.64705882 C8.53876364,2.38323529 8.30923636,2.13705882 8.04043636,1.905 C7.77076364,1.67294118 7.47141818,1.47088235 7.14501818,1.29970588 C6.81774545,1.12588235 6.46167273,0.990882353 6.08116364,0.891176471 C5.69890909,0.790588235 5.30181818,0.741176471 4.88901818,0.741176471 C4.20654545,0.741176471 3.58254545,0.858529412 3.01701818,1.095 C2.45149091,1.33058824 1.96450909,1.66058824 1.55694545,2.08235294 C1.14763636,2.50411765 0.830836364,3.00352941 0.606545455,3.57970588 C0.382254545,4.15588235 0.270545455,4.78941176 0.270545455,5.47941176 C0.270545455,6.15088235 0.382254545,6.77911765 0.606545455,7.365 C0.830836364,7.95 1.14763636,8.45823529 1.55694545,8.88970588 C1.96450909,9.32117647 2.45410909,9.66088235 3.02312727,9.91058824 C3.59389091,10.1602941 4.22487273,10.2847059 4.91694545,10.2847059 C5.75127273,10.2847059 6.48087273,10.1302941 7.10487273,9.82147059 C7.728,9.51352941 8.24727273,9.06882353 8.66007273,8.48823529 L7.27243636,7.14 C7.00363636,7.52117647 6.68421818,7.82823529 6.3168,8.05941176 C5.94850909,8.29058824 5.50952727,8.40705882 4.99723636,8.40705882 C4.59316364,8.40705882 4.22923636,8.33117647 3.90632727,8.18205882 C3.58254545,8.03205882 3.30850909,7.82558824 3.08421818,7.56264706 C2.85905455,7.29882353 2.68712727,6.99264706 2.56581818,6.64323529 C2.44538182,6.29382353 2.38341818,5.92411765 2.38341818,5.53323529 C2.38341818,5.13352941 2.44538182,4.76117647 2.56581818,4.41617647 C2.68712727,4.07205882 2.85905455,3.77205882 3.08421818,3.51794118 C3.30850909,3.26470588 3.57905455,3.06441176 3.89236364,2.91882353 C4.20654545,2.77411765 4.56087273,2.70176471 4.95621818,2.70176471 C5.27912727,2.70176471 5.56014545,2.73529412 5.7984,2.80323529 C6.03665455,2.87117647 6.24698182,2.96205882 6.43112727,3.07588235 C6.61527273,3.18970588 6.77847273,3.32117647 6.92247273,3.47117647 C7.0656,3.62117647 7.20610909,3.77205882 7.34050909,3.92647059 L8.72727273,2.64705882 Z" id="path3023" fill="#E41E2B" fill-rule="nonzero"></path>
                                </g>
                                <g id="g3025" stroke-width="1" fill="none" fill-rule="evenodd" transform="translate(77.021149, 17.211097)">
                                    <path d="M0,3.52941176 C0,4.00058824 0.0829090909,4.44352941 0.248727273,4.85735294 C0.415418182,5.27029412 0.645818182,5.63029412 0.942545455,5.93911765 C1.23927273,6.24705882 1.59534545,6.49058824 2.01338182,6.66794118 C2.43054545,6.84441176 2.8896,6.93352941 3.39403636,6.93352941 C3.89672727,6.93352941 4.35403636,6.84441176 4.76770909,6.66794118 C5.18050909,6.49058824 5.53483636,6.24705882 5.83156364,5.93911765 C6.12741818,5.63029412 6.35869091,5.27029412 6.52450909,4.85735294 C6.69032727,4.44352941 6.77410909,4.00058824 6.77410909,3.52941176 C6.77410909,3.05735294 6.69032727,2.61441176 6.52450909,2.20147059 C6.35869091,1.78852941 6.12741818,1.42764706 5.83156364,1.11970588 C5.53483636,0.810882353 5.18050909,0.565588235 4.76770909,0.384705882 C4.35403636,0.202058824 3.89672727,0.112058824 3.39403636,0.112058824 C2.8896,0.112058824 2.43054545,0.202058824 2.01338182,0.384705882 C1.59534545,0.565588235 1.23927273,0.810882353 0.942545455,1.11970588 C0.645818182,1.42764706 0.415418182,1.78852941 0.248727273,2.20147059 C0.0829090909,2.61441176 0,3.05735294 0,3.52941176 M3.39403636,1.81411765 C3.63578182,1.81411765 3.85134545,1.86088235 4.03985455,1.95705882 C4.22836364,2.05147059 4.3872,2.18117647 4.51810909,2.34441176 C4.64901818,2.50764706 4.74501818,2.69117647 4.80698182,2.89676471 C4.87069091,3.09970588 4.90210909,3.31147059 4.90210909,3.52941176 C4.90210909,3.74647059 4.87069091,3.95823529 4.80698182,4.16205882 C4.74501818,4.36676471 4.64901818,4.54852941 4.51810909,4.70735294 C4.3872,4.86617647 4.22836364,4.99235294 4.03985455,5.08764706 C3.85134545,5.18294118 3.63578182,5.23058824 3.39403636,5.23058824 C3.15054545,5.23058824 2.93410909,5.18294118 2.74036364,5.08764706 C2.54749091,4.99235294 2.38778182,4.86617647 2.26210909,4.70735294 C2.13730909,4.54852941 2.03956364,4.36676471 1.97236364,4.16205882 C1.90603636,3.95823529 1.87112727,3.74647059 1.87112727,3.52941176 C1.87112727,3.31147059 1.90603636,3.09970588 1.97236364,2.89676471 C2.03956364,2.69117647 2.13730909,2.50764706 2.26210909,2.34441176 C2.38778182,2.18117647 2.54749091,2.05147059 2.74036364,1.95705882 C2.93410909,1.86088235 3.15054545,1.81411765 3.39403636,1.81411765" id="path3027" fill="#E41E2B" fill-rule="nonzero"></path>
                                </g>
                                <polygon id="path3029" fill="#E41E2B" fill-rule="nonzero" points="84.8840727 26.6223529 86.8232727 26.6223529 86.8232727 17.5411765 84.8840727 17.5411765"></polygon>
                                <g id="g3031" stroke-width="1" fill="none" fill-rule="evenodd" transform="translate(87.752116, 17.257500)">
                                    <path d="M4.36363636,0.882352941 C4.14807273,0.627352941 3.87665455,0.433235294 3.54850909,0.297352941 C3.22123636,0.160588235 2.85469091,0.0926470588 2.45149091,0.0926470588 C2.22632727,0.0926470588 1.99156364,0.124411765 1.74458182,0.187941176 C1.4976,0.251470588 1.26894545,0.358235294 1.05774545,0.507352941 C0.846545455,0.658235294 0.672,0.859411765 0.532363636,1.11441176 C0.3936,1.36764706 0.323781818,1.68529412 0.323781818,2.06647059 C0.323781818,2.43882353 0.397963636,2.76970588 0.546327273,3.06088235 C0.693818182,3.35117647 0.898909091,3.59382353 1.15898182,3.78970588 C1.41905455,3.98470588 1.72712727,4.13117647 2.08145455,4.23176471 C2.43490909,4.33147059 2.81978182,4.38088235 3.23258182,4.38088235 C3.45687273,4.38088235 3.68378182,4.37647059 3.91243636,4.36764706 C4.14196364,4.35882353 4.29207273,4.34558824 4.36363636,4.32705882 L4.36363636,4.46294118 C4.36363636,4.62617647 4.33047273,4.76558824 4.2624,4.87852941 C4.1952,4.99235294 4.10530909,5.08676471 3.99272727,5.16441176 C3.88101818,5.24117647 3.7536,5.29588235 3.6096,5.32764706 C3.4656,5.35941176 3.31374545,5.37529412 3.15141818,5.37529412 C2.72029091,5.37529412 2.36334545,5.32058824 2.08145455,5.21205882 C1.79869091,5.10264706 1.55781818,4.98088235 1.36058182,4.84411765 L0.5664,6.04235294 C0.7008,6.14205882 0.852654545,6.24176471 1.02370909,6.34235294 C1.19476364,6.44117647 1.39636364,6.53294118 1.63025455,6.61411765 C1.86327273,6.69529412 2.12596364,6.76147059 2.41745455,6.81176471 C2.70981818,6.86117647 3.04407273,6.88676471 3.42109091,6.88676471 C4.38196364,6.88676471 5.09149091,6.62470588 5.54967273,6.10323529 C6.00698182,5.58264706 6.23563636,4.88029412 6.23563636,4.00058824 L6.23563636,0.283235294 L4.41774545,0.283235294 L4.36363636,0.882352941 Z M4.36363636,3.10147059 C4.31912727,3.11029412 4.23272727,3.12176471 4.10705455,3.135 C3.98225455,3.14911765 3.83825455,3.15617647 3.67767273,3.15617647 C3.13745455,3.15617647 2.75607273,3.07852941 2.53265455,2.925 C2.30661818,2.76970588 2.19578182,2.55264706 2.19578182,2.27117647 C2.19578182,1.74441176 2.50996364,1.48147059 3.13745455,1.48147059 C3.29018182,1.48147059 3.44116364,1.50617647 3.58952727,1.55647059 C3.73789091,1.60588235 3.86792727,1.67647059 3.97963636,1.76735294 C4.09221818,1.85823529 4.18298182,1.97205882 4.25629091,2.10705882 C4.32785455,2.24382353 4.36363636,2.40264706 4.36363636,2.58352941 L4.36363636,3.10147059 Z" id="path3033" fill="#E41E2B" fill-rule="nonzero"></path>
                                </g>
                                <g id="g3035" stroke-width="1" fill="none" fill-rule="evenodd" transform="translate(31.600062, 3.617656)">
                                    <polygon id="path3037" fill="#000000" fill-rule="nonzero" points="0 9.70588235 2.03345455 9.70588235 2.03345455 6.22058824 5.92494545 6.22058824 5.92494545 9.70588235 7.9584 9.70588235 7.9584 0.625588235 5.92494545 0.625588235 5.92494545 4.35441176 2.03345455 4.35441176 2.03345455 0.625588235 0 0.625588235"></polygon>
                                </g>
                                <g id="g3039" stroke-width="1" fill="none" fill-rule="evenodd" transform="translate(39.969687, 3.171706)">
                                    <path d="M6.98181818,1.76470588 C6.90938182,1.71970588 6.80203636,1.64470588 6.65803636,1.54058824 C6.51490909,1.43558824 6.32814545,1.33323529 6.09949091,1.23264706 C5.87170909,1.13382353 5.59941818,1.04470588 5.28523636,0.967941176 C4.97018182,0.890294118 4.61149091,0.852352941 4.20741818,0.852352941 C3.66894545,0.852352941 3.18370909,0.937058824 2.75258182,1.10382353 C2.32232727,1.27235294 1.95665455,1.50617647 1.65556364,1.80529412 C1.35447273,2.10529412 1.12581818,2.46529412 0.968727273,2.88794118 C0.811636364,3.30970588 0.733090909,3.77470588 0.733090909,4.28382353 C0.733090909,4.72852941 0.807272727,5.15647059 0.955636364,5.57117647 C1.10312727,5.98323529 1.31694545,6.34411765 1.59534545,6.65205882 C1.87374545,6.96176471 2.21410909,7.20882353 2.61818182,7.395 C3.02225455,7.58029412 3.48043636,7.67382353 3.99098182,7.67382353 C4.50414545,7.67382353 4.95272727,7.58294118 5.33847273,7.40117647 C5.72509091,7.22117647 6.05149091,6.96794118 6.31505455,6.64676471 C6.58036364,6.32382353 6.77934545,5.93823529 6.91461818,5.48823529 C7.04901818,5.03911765 7.11621818,4.54676471 7.11621818,4.01117647 L7.11621818,3.68470588 L2.61818182,3.68470588 C2.62690909,3.33970588 2.77789091,3.03794118 3.06938182,2.77852941 C3.36174545,2.52088235 3.7632,2.39117647 4.27461818,2.39117647 C4.77730909,2.39117647 5.18574545,2.46529412 5.5008,2.61617647 C5.81498182,2.76529412 6.04363636,2.895 6.18763636,3.00352941 L6.98181818,1.76470588 Z M5.28523636,4.93764706 C5.28523636,5.07352941 5.25818182,5.21029412 5.20494545,5.35235294 C5.14996364,5.49352941 5.06967273,5.62235294 4.96145455,5.73970588 C4.85323636,5.85970588 4.71883636,5.95588235 4.55738182,6.03352941 C4.3968,6.11029412 4.20305455,6.14911765 3.97963636,6.14911765 C3.75447273,6.14911765 3.55636364,6.11029412 3.38618182,6.03352941 C3.21512727,5.95588235 3.07461818,5.85970588 2.96203636,5.73970588 C2.84945455,5.62235294 2.7648,5.49352941 2.70545455,5.35235294 C2.64698182,5.21029412 2.61818182,5.07352941 2.61818182,4.93764706 L5.28523636,4.93764706 Z" id="path3041" fill="#000000" fill-rule="nonzero"></path>
                                </g>
                                <polygon id="path3043" fill="#000000" fill-rule="nonzero" points="48.1771636 13.3226471 50.1154909 13.3226471 50.1154909 4.24235294 48.1771636 4.24235294"></polygon>
                                <polygon id="path3045" fill="#000000" fill-rule="nonzero" points="51.8670545 13.3226471 53.8053818 13.3226471 53.8053818 4.24235294 51.8670545 4.24235294"></polygon>
                                <g id="g3047" stroke-width="1" fill="none" fill-rule="evenodd" transform="translate(54.271418, 3.171706)">
                                    <path d="M6.98181818,1.76470588 C6.90938182,1.71970588 6.80203636,1.64470588 6.65803636,1.54058824 C6.51403636,1.43558824 6.32814545,1.33323529 6.09949091,1.23264706 C5.87083636,1.13382353 5.59854545,1.04470588 5.28436364,0.967941176 C4.97105455,0.890294118 4.61149091,0.852352941 4.20741818,0.852352941 C3.66894545,0.852352941 3.18458182,0.937058824 2.75345455,1.10382353 C2.32232727,1.27235294 1.95578182,1.50617647 1.65556364,1.80529412 C1.35447273,2.10529412 1.12669091,2.46529412 0.968727273,2.88794118 C0.811636364,3.30970588 0.733090909,3.77470588 0.733090909,4.28382353 C0.733090909,4.72852941 0.8064,5.15647059 0.955636364,5.57117647 C1.10312727,5.98323529 1.31694545,6.34411765 1.59534545,6.65205882 C1.87287273,6.96176471 2.21410909,7.20882353 2.61818182,7.395 C3.02225455,7.58029412 3.47956364,7.67382353 3.99185455,7.67382353 C4.50414545,7.67382353 4.95272727,7.58294118 5.33847273,7.40117647 C5.72421818,7.22117647 6.04974545,6.96794118 6.31505455,6.64676471 C6.57949091,6.32382353 6.78021818,5.93823529 6.91461818,5.48823529 C7.04814545,5.03911765 7.11709091,4.54676471 7.11709091,4.01117647 L7.11709091,3.68470588 L2.61818182,3.68470588 C2.62690909,3.33970588 2.77789091,3.03794118 3.06938182,2.77852941 C3.36174545,2.52088235 3.76232727,2.39117647 4.27461818,2.39117647 C4.77818182,2.39117647 5.18574545,2.46529412 5.49992727,2.61617647 C5.81498182,2.76529412 6.04276364,2.895 6.18763636,3.00352941 L6.98181818,1.76470588 Z M5.28436364,4.93764706 C5.28436364,5.07352941 5.25905455,5.21029412 5.20407273,5.35235294 C5.14996364,5.49352941 5.0688,5.62235294 4.96145455,5.73970588 C4.85323636,5.85970588 4.71970909,5.95588235 4.55738182,6.03352941 C4.39505455,6.11029412 4.20305455,6.14911765 3.97876364,6.14911765 C3.75447273,6.14911765 3.55636364,6.11029412 3.38618182,6.03352941 C3.21512727,5.95588235 3.07461818,5.85970588 2.96203636,5.73970588 C2.84945455,5.62235294 2.76392727,5.49352941 2.70632727,5.35235294 C2.64785455,5.21029412 2.61818182,5.07352941 2.61818182,4.93764706 L5.28436364,4.93764706 Z" id="path3049" fill="#000000" fill-rule="nonzero"></path>
                                </g>
                                <g id="g3051" stroke-width="1" fill="none" fill-rule="evenodd" transform="translate(62.471127, 3.569294)">
                                    <path d="M0,7.05882353 L1.85890909,7.05882353 L1.91214545,6.36529412 C2.11985455,6.61852941 2.39127273,6.82323529 2.72727273,6.97676471 C3.06414545,7.13117647 3.41585455,7.20794118 3.78414545,7.20794118 C4.512,7.20794118 5.088,6.99088235 5.51389091,6.55411765 C5.94152727,6.11823529 6.15534545,5.47411765 6.15534545,4.62176471 L6.15534545,0.673235294 L4.21527273,0.673235294 L4.21527273,4.34911765 C4.21527273,4.70294118 4.128,4.98352941 3.95258182,5.19264706 C3.77803636,5.40088235 3.53367273,5.50588235 3.21949091,5.50588235 C3.00392727,5.50588235 2.81454545,5.46794118 2.65396364,5.39117647 C2.49163636,5.31352941 2.35723636,5.21205882 2.24901818,5.08411765 C2.14167273,4.95705882 2.06050909,4.80970588 2.00727273,4.64117647 C1.95316364,4.47352941 1.92610909,4.29529412 1.92610909,4.10382353 L1.92610909,0.673235294 L0,0.673235294 L0,7.05882353 Z" id="path3053" fill="#000000" fill-rule="nonzero"></path>
                                </g>
                                <path d="M69.7701818,13.3226471 L71.8446545,13.3226471 L71.8446545,11.5667647 L69.7701818,11.5667647 L69.7701818,13.3226471 Z M69.8373818,10.6279412 L71.7765818,10.6279412 L71.7765818,4.24235294 L69.8373818,4.24235294 L69.8373818,10.6279412 Z" id="path3055" fill="#000000" fill-rule="nonzero"></path>
                                <g id="g3057" stroke-width="1" fill="none" fill-rule="evenodd" transform="translate(72.708035, 3.321529)">
                                    <path d="M6.10909091,1.76470588 C5.84901818,1.47441176 5.50516364,1.22470588 5.07927273,1.01558824 C4.65338182,0.807352941 4.1472,0.703235294 3.56334545,0.703235294 C3.0528,0.703235294 2.58763636,0.786176471 2.1696,0.954705882 C1.75243636,1.12323529 1.39636364,1.35882353 1.09876364,1.66235294 C0.803781818,1.96588235 0.572509091,2.32764706 0.406690909,2.74588235 C0.24,3.16323529 0.157090909,3.62117647 0.157090909,4.11970588 C0.157090909,4.59176471 0.242618182,5.03470588 0.4128,5.44764706 C0.582981818,5.86147059 0.817745455,6.22147059 1.11970909,6.53029412 C1.4208,6.83823529 1.78036364,7.08088235 2.19752727,7.25823529 C2.61469091,7.43558824 3.07025455,7.52382353 3.56334545,7.52382353 C4.13847273,7.52382353 4.6368,7.42852941 5.0592,7.23882353 C5.48072727,7.04735294 5.83592727,6.79323529 6.12218182,6.47558824 L4.95098182,5.19529412 C4.80785455,5.35852941 4.63243636,5.50411765 4.4256,5.63029412 C4.21963636,5.75911765 3.94647273,5.82264706 3.60523636,5.82264706 C3.37134545,5.82264706 3.16189091,5.77411765 2.97861818,5.67882353 C2.7936,5.58441176 2.63650909,5.46 2.50647273,5.30470588 C2.37643636,5.15117647 2.27781818,4.97205882 2.21061818,4.76647059 C2.14429091,4.56264706 2.10850909,4.34647059 2.10850909,4.11970588 C2.10850909,3.91147059 2.14429091,3.70411765 2.21061818,3.50117647 C2.27781818,3.29735294 2.37643636,3.11470588 2.50647273,2.95676471 C2.63650909,2.79705882 2.7936,2.66823529 2.97861818,2.56852941 C3.16189091,2.46794118 3.37134545,2.41852941 3.60523636,2.41852941 C3.93687273,2.41852941 4.2144,2.48470588 4.43869091,2.61617647 C4.66385455,2.74676471 4.84363636,2.89058824 4.97803636,3.04411765 L6.10909091,1.76470588 Z" id="path3059" fill="#000000" fill-rule="nonzero"></path>
                                </g>
                                <g id="g3061" stroke-width="1" fill="none" fill-rule="evenodd" transform="translate(82.843811, 3.617656)">
                                    <path d="M0,9.70588235 L3.36698182,9.70588235 C3.92378182,9.70588235 4.39418182,9.64058824 4.77992727,9.50911765 C5.16741818,9.37764706 5.48072727,9.20205882 5.72334545,8.985 C5.96596364,8.76617647 6.14050909,8.51382353 6.24872727,8.22794118 C6.35607273,7.94205882 6.41105455,7.64558824 6.41105455,7.33676471 C6.41105455,7.04647059 6.35869091,6.79058824 6.25483636,6.56735294 C6.15185455,6.345 6.03054545,6.15529412 5.89178182,5.99647059 C5.75214545,5.83676471 5.60465455,5.71147059 5.44669091,5.62147059 C5.29047273,5.52970588 5.16218182,5.47235294 5.06443636,5.44411765 C5.21541818,5.39823529 5.3952,5.33117647 5.60203636,5.24029412 C5.8176,5.14941176 6.0192,5.01529412 6.20770909,4.83794118 C6.39621818,4.66235294 6.55592727,4.43911765 6.68683636,4.17088235 C6.816,3.90352941 6.88145455,3.58764706 6.88145455,3.225 C6.88145455,2.75205882 6.79854545,2.35411765 6.63185455,2.02676471 C6.46603636,1.70117647 6.23214545,1.43205882 5.93192727,1.22382353 C5.63083636,1.01470588 5.26254545,0.862058824 4.8288,0.767647059 C4.39156364,0.672352941 3.90458182,0.625588235 3.36698182,0.625588235 L0,0.625588235 L0,9.70588235 Z M3.1776,6.07058824 C3.33032727,6.07058824 3.48130909,6.08911765 3.62967273,6.12529412 C3.77716364,6.16058824 3.9072,6.21794118 4.01978182,6.29470588 C4.13236364,6.37147059 4.224,6.47647059 4.29643636,6.60794118 C4.368,6.74029412 4.40290909,6.90088235 4.40290909,7.09147059 C4.40290909,7.29176471 4.368,7.45676471 4.29643636,7.58911765 C4.224,7.72058824 4.12974545,7.82470588 4.01367273,7.90147059 C3.89672727,7.97911765 3.76407273,8.03294118 3.61570909,8.06558824 C3.46647273,8.09647059 3.3216,8.11235294 3.1776,8.11235294 L1.97934545,8.11235294 L1.97934545,6.07058824 L3.1776,6.07058824 Z M3.29978182,2.20323529 C3.44290909,2.20323529 3.60436364,2.21470588 3.78414545,2.23764706 C3.96392727,2.26058824 4.12974545,2.31264706 4.28247273,2.39470588 C4.4352,2.47588235 4.56261818,2.595 4.66647273,2.74941176 C4.76945455,2.90294118 4.82094545,3.11647059 4.82094545,3.38823529 C4.82094545,3.63352941 4.7712,3.83294118 4.67258182,3.98647059 C4.57396364,4.14088235 4.44829091,4.26176471 4.29643636,4.34911765 C4.14283636,4.43470588 3.97701818,4.49294118 3.79723636,4.52470588 C3.61745455,4.55735294 3.45250909,4.57323529 3.29978182,4.57323529 L1.97934545,4.57323529 L1.97934545,2.20323529 L3.29978182,2.20323529 Z" id="path3063" fill="#000000" fill-rule="nonzero"></path>
                                </g>
                                <g id="g3065" stroke-width="1" fill="none" fill-rule="evenodd" transform="translate(90.452692, 3.912185)">
                                    <path d="M0,3.52941176 C0,4.00147059 0.0829090909,4.44352941 0.248727273,4.85735294 C0.415418182,5.27117647 0.645818182,5.63117647 0.942545455,5.93911765 C1.2384,6.24794118 1.59534545,6.49058824 2.01250909,6.66794118 C2.43054545,6.84441176 2.8896,6.93352941 3.39403636,6.93352941 C3.89672727,6.93352941 4.35316364,6.84441176 4.76683636,6.66794118 C5.17876364,6.49058824 5.53309091,6.24794118 5.83156364,5.93911765 C6.12654545,5.63117647 6.35869091,5.27117647 6.52450909,4.85735294 C6.68945455,4.44352941 6.77410909,4.00147059 6.77410909,3.52941176 C6.77410909,3.05735294 6.68945455,2.61441176 6.52450909,2.20147059 C6.35869091,1.78852941 6.12654545,1.42764706 5.83156364,1.11970588 C5.53309091,0.810882353 5.17876364,0.566470588 4.76683636,0.384705882 C4.35316364,0.202941176 3.89672727,0.112058824 3.39403636,0.112058824 C2.8896,0.112058824 2.43054545,0.202941176 2.01250909,0.384705882 C1.59534545,0.566470588 1.2384,0.810882353 0.942545455,1.11970588 C0.645818182,1.42764706 0.415418182,1.78852941 0.248727273,2.20147059 C0.0829090909,2.61441176 0,3.05735294 0,3.52941176 M3.39403636,1.81411765 C3.63578182,1.81411765 3.85134545,1.86176471 4.03985455,1.95705882 C4.22836364,2.05147059 4.3872,2.18205882 4.51723636,2.34529412 C4.64727273,2.50941176 4.74414545,2.69205882 4.80698182,2.89676471 C4.86981818,3.09970588 4.90123636,3.31147059 4.90123636,3.52941176 C4.90123636,3.74735294 4.86981818,3.95911765 4.80698182,4.16382353 C4.74414545,4.36676471 4.64727273,4.54852941 4.51723636,4.70735294 C4.3872,4.86617647 4.22836364,4.99323529 4.03985455,5.08764706 C3.85134545,5.18294118 3.63578182,5.23147059 3.39403636,5.23147059 C3.15054545,5.23147059 2.93236364,5.18294118 2.74036364,5.08764706 C2.54749091,4.99323529 2.38778182,4.86617647 2.26210909,4.70735294 C2.13643636,4.54852941 2.03956364,4.36676471 1.97236364,4.16382353 C1.90516364,3.95911765 1.872,3.74735294 1.872,3.52941176 C1.872,3.31147059 1.90516364,3.09970588 1.97236364,2.89676471 C2.03956364,2.69205882 2.13643636,2.50941176 2.26210909,2.34529412 C2.38778182,2.18205882 2.54749091,2.05147059 2.74036364,1.95705882 C2.93236364,1.86176471 3.15054545,1.81411765 3.39403636,1.81411765" id="path3067" fill="#000000" fill-rule="nonzero"></path>
                                </g>
                                <g id="g3069" stroke-width="1" fill="none" fill-rule="evenodd" transform="translate(96.993775, 3.794991)">
                                    <path d="M1.74545455,5.29411765 L0.7488,5.29411765 L0.7488,6.83294118 L1.74545455,6.83294118 L1.74545455,8.76529412 L3.68552727,8.76529412 L3.68552727,6.83294118 L5.31316364,6.83294118 L5.31316364,5.29411765 L3.68552727,5.29411765 L3.68552727,2.775 C3.68552727,2.46705882 3.74574545,2.22882353 3.86705455,2.06029412 C3.98749091,1.89176471 4.17861818,1.80882353 4.43869091,1.80882353 C4.63592727,1.80882353 4.80785455,1.84235294 4.94923636,1.91117647 C5.09498182,1.97911765 5.22938182,2.05852941 5.35505455,2.14941176 L6.13614545,0.951176471 C5.52523636,0.461470588 4.86109091,0.216176471 4.14283636,0.216176471 C3.69425455,0.216176471 3.31549091,0.281470588 3.01178182,0.412941176 C2.70632727,0.544411765 2.45847273,0.726176471 2.27170909,0.957352941 C2.0832,1.18941176 1.94792727,1.46823529 1.86589091,1.79647059 C1.7856,2.12205882 1.74545455,2.48470588 1.74545455,2.88441176 L1.74545455,5.29411765 Z" id="path3071" fill="#000000" fill-rule="nonzero"></path>
                                </g>
                                <g id="g3073" stroke-width="1" fill="none" fill-rule="evenodd" transform="translate(102.259732, 3.794991)">
                                    <path d="M1.74545455,5.29411765 L0.747927273,5.29411765 L0.747927273,6.83294118 L1.74545455,6.83294118 L1.74545455,8.76529412 L3.68552727,8.76529412 L3.68552727,6.83294118 L5.31316364,6.83294118 L5.31316364,5.29411765 L3.68552727,5.29411765 L3.68552727,2.775 C3.68552727,2.46705882 3.74574545,2.22882353 3.86618182,2.06029412 C3.98661818,1.89176471 4.17861818,1.80882353 4.43781818,1.80882353 C4.63505455,1.80882353 4.80785455,1.84235294 4.95010909,1.91117647 C5.09498182,1.97911765 5.22938182,2.05852941 5.35592727,2.14941176 L6.13614545,0.951176471 C5.52523636,0.461470588 4.86196364,0.216176471 4.14196364,0.216176471 C3.69425455,0.216176471 3.31549091,0.281470588 3.01090909,0.412941176 C2.70632727,0.544411765 2.4576,0.726176471 2.27170909,0.957352941 C2.08232727,1.18941176 1.94792727,1.46823529 1.86501818,1.79647059 C1.7856,2.12205882 1.74545455,2.48470588 1.74545455,2.88441176 L1.74545455,5.29411765 Z" id="path3075" fill="#000000" fill-rule="nonzero"></path>
                                </g>
                                <polygon id="path3077" fill="#000000" fill-rule="nonzero" points="108.960873 13.3226471 110.8992 13.3226471 110.8992 4.24235294 108.960873 4.24235294"></polygon>
                                <path d="M112.541673,13.3226471 L114.616145,13.3226471 L114.616145,11.5667647 L112.541673,11.5667647 L112.541673,13.3226471 Z M112.610618,10.6279412 L114.549818,10.6279412 L114.549818,4.24235294 L112.610618,4.24235294 L112.610618,10.6279412 Z" id="path3079" fill="#000000" fill-rule="nonzero"></path>
                                <g id="g3081" stroke-width="1" fill="none" fill-rule="evenodd" transform="translate(116.071252, 3.569294)">
                                    <path d="M0,7.05882353 L1.85803636,7.05882353 L1.91214545,6.36529412 C2.11810909,6.61852941 2.38952727,6.82323529 2.72814545,6.97676471 C3.06414545,7.13117647 3.41585455,7.20794118 3.78414545,7.20794118 C4.51112727,7.20794118 5.08887273,6.99088235 5.51389091,6.55411765 C5.94152727,6.11823529 6.1536,5.47411765 6.1536,4.62176471 L6.1536,0.673235294 L4.2144,0.673235294 L4.2144,4.34911765 C4.2144,4.70294118 4.128,4.98352941 3.95170909,5.19264706 C3.77803636,5.40088235 3.53367273,5.50588235 3.21774545,5.50588235 C3.00305455,5.50588235 2.81367273,5.46794118 2.65396364,5.39117647 C2.49163636,5.31352941 2.35636364,5.21205882 2.24901818,5.08411765 C2.13992727,4.95705882 2.05963636,4.80970588 2.00727273,4.64117647 C1.95316364,4.47352941 1.92698182,4.29529412 1.92698182,4.10382353 L1.92698182,0.673235294 L0,0.673235294 L0,7.05882353 Z" id="path3083" fill="#000000" fill-rule="nonzero"></path>
                                </g>
                                <g id="g3085" stroke-width="1" fill="none" fill-rule="evenodd" transform="translate(122.861856, 0.778068)">
                                    <path d="M1.74545455,2.64705882 C1.9968,2.49264706 2.26472727,2.37264706 2.54661818,2.28617647 C2.82938182,2.20058824 3.14094545,2.15735294 3.48218182,2.15735294 C3.92203636,2.15735294 4.26938182,2.27470588 4.51985455,2.51029412 C4.7712,2.74764706 4.896,3.10147059 4.896,3.57352941 L4.896,4.02264706 C4.4928,3.66882353 3.95432727,3.49058824 3.28145455,3.49058824 C2.83287273,3.49058824 2.43054545,3.56647059 2.07447273,3.71647059 C1.72101818,3.86558824 1.42254545,4.07647059 1.17992727,4.35 C0.938181818,4.62176471 0.750545455,4.94294118 0.620509091,5.31617647 C0.4896,5.68852941 0.425890909,6.09617647 0.425890909,6.54088235 C0.425890909,7.05882353 0.514036364,7.52911765 0.689454545,7.95088235 C0.864,8.37264706 1.11098182,8.73529412 1.42865455,9.03970588 C1.7472,9.34323529 2.12945455,9.57705882 2.57454545,9.74029412 C3.01876364,9.90441176 3.51447273,9.98558824 4.06254545,9.98558824 C4.58181818,9.98558824 5.0784,9.94058824 5.55054545,9.84970588 C6.02007273,9.75794118 6.44596364,9.645 6.82298182,9.51 L6.82298182,3.66882353 C6.82298182,2.61529412 6.53498182,1.83705882 5.95985455,1.33323529 C5.3856,0.829411765 4.60101818,0.578823529 3.60349091,0.578823529 C3.03883636,0.578823529 2.54487273,0.632647059 2.1216,0.740294118 C1.70181818,0.850588235 1.31607273,1.02264706 0.964363636,1.25823529 L1.74545455,2.64705882 Z M4.91083636,8.22970588 C4.78516364,8.27470588 4.65949091,8.30823529 4.53207273,8.33117647 C4.40727273,8.355 4.24232727,8.36558824 4.03549091,8.36558824 C3.75621818,8.36558824 3.51447273,8.31794118 3.30850909,8.22176471 C3.10167273,8.12735294 2.928,8.00117647 2.79010909,7.84147059 C2.65047273,7.68176471 2.54661818,7.49647059 2.48029091,7.28294118 C2.41221818,7.06941176 2.37992727,6.84441176 2.37992727,6.60882353 C2.37992727,6.14558824 2.48814545,5.77852941 2.70894545,5.50676471 C2.928,5.23411765 3.25003636,5.09823529 3.67243636,5.09823529 C4.06603636,5.09823529 4.37236364,5.19617647 4.58705455,5.39029412 C4.80261818,5.58617647 4.91083636,5.89147059 4.91083636,6.30882353 L4.91083636,8.22970588 Z" id="path3087" fill="#000000" fill-rule="nonzero"></path>
                                </g>
                                <g id="g3089" stroke-width="1" fill="none" fill-rule="evenodd" transform="translate(134.719593, 3.270265)">
                                    <path d="M8.72727273,2.64705882 C8.53876364,2.38323529 8.31010909,2.13617647 8.04130909,1.90411765 C7.77163636,1.67382353 7.47229091,1.47088235 7.14501818,1.29794118 C6.81774545,1.12588235 6.46167273,0.989117647 6.08203636,0.890294118 C5.69978182,0.790588235 5.30269091,0.740294118 4.88989091,0.740294118 C4.20654545,0.740294118 3.58429091,0.858529412 3.01701818,1.09411765 C2.45061818,1.33058824 1.96538182,1.66058824 1.55694545,2.08235294 C1.14938182,2.50323529 0.830836364,3.00264706 0.606545455,3.57882353 C0.383127273,4.155 0.269672727,4.78764706 0.269672727,5.47852941 C0.269672727,6.15 0.383127273,6.77911765 0.606545455,7.36411765 C0.830836364,7.95088235 1.14938182,8.45735294 1.55694545,8.88970588 C1.96538182,9.32117647 2.45410909,9.66088235 3.02487273,9.91058824 C3.59563636,10.1594118 4.22487273,10.2838235 4.91694545,10.2838235 C5.75127273,10.2838235 6.48087273,10.1294118 7.10574545,9.82147059 C7.72974545,9.51264706 8.24814545,9.06794118 8.66094545,8.48735294 L7.27330909,7.14 C7.00450909,7.52117647 6.68509091,7.82647059 6.3168,8.05764706 C5.94850909,8.29058824 5.50865455,8.40617647 4.99810909,8.40617647 C4.59490909,8.40617647 4.23010909,8.33029412 3.90632727,8.18117647 C3.58429091,8.03117647 3.30938182,7.82382353 3.08596364,7.56088235 C2.85992727,7.29794118 2.688,6.99176471 2.56669091,6.64147059 C2.44538182,6.29382353 2.38516364,5.92235294 2.38516364,5.53323529 C2.38516364,5.13352941 2.44538182,4.76117647 2.56669091,4.41617647 C2.688,4.07205882 2.85992727,3.77205882 3.08596364,3.51794118 C3.30938182,3.26294118 3.57905455,3.06441176 3.89410909,2.91882353 C4.20654545,2.77323529 4.56261818,2.70088235 4.95796364,2.70088235 C5.28,2.70088235 5.56101818,2.73529412 5.7984,2.80323529 C6.03665455,2.87117647 6.24785455,2.96117647 6.432,3.07588235 C6.61614545,3.18794118 6.77934545,3.31941176 6.92334545,3.47117647 C7.06734545,3.61941176 7.20610909,3.77205882 7.34050909,3.92647059 L8.72727273,2.64705882 Z" id="path3091" fill="#000000" fill-rule="nonzero"></path>
                                </g>
                                <g id="g3093" stroke-width="1" fill="none" fill-rule="evenodd" transform="translate(143.932015, 3.912185)">
                                    <path d="M0,3.52941176 C0,4.00147059 0.0829090909,4.44352941 0.2496,4.85735294 C0.416290909,5.27117647 0.646690909,5.63117647 0.943418182,5.93911765 C1.23927273,6.24794118 1.59621818,6.49058824 2.01338182,6.66794118 C2.43054545,6.84441176 2.89047273,6.93352941 3.39316364,6.93352941 C3.89672727,6.93352941 4.35490909,6.84441176 4.76683636,6.66794118 C5.18050909,6.49058824 5.53483636,6.24794118 5.83156364,5.93911765 C6.12654545,5.63117647 6.35869091,5.27117647 6.52450909,4.85735294 C6.69032727,4.44352941 6.77410909,4.00147059 6.77410909,3.52941176 C6.77410909,3.05735294 6.69032727,2.61441176 6.52450909,2.20147059 C6.35869091,1.78852941 6.12654545,1.42764706 5.83156364,1.11970588 C5.53483636,0.810882353 5.18050909,0.566470588 4.76683636,0.384705882 C4.35490909,0.202941176 3.89672727,0.112058824 3.39316364,0.112058824 C2.89047273,0.112058824 2.43054545,0.202941176 2.01338182,0.384705882 C1.59621818,0.566470588 1.23927273,0.810882353 0.943418182,1.11970588 C0.646690909,1.42764706 0.416290909,1.78852941 0.2496,2.20147059 C0.0829090909,2.61441176 0,3.05735294 0,3.52941176 M3.39316364,1.81411765 C3.63665455,1.81411765 3.85134545,1.86176471 4.03985455,1.95705882 C4.22923636,2.05147059 4.38807273,2.18205882 4.51810909,2.34529412 C4.64901818,2.50941176 4.74414545,2.69205882 4.80698182,2.89676471 C4.87069091,3.09970588 4.90210909,3.31147059 4.90210909,3.52941176 C4.90210909,3.74735294 4.87069091,3.95911765 4.80698182,4.16382353 C4.74414545,4.36676471 4.64901818,4.54852941 4.51810909,4.70735294 C4.38807273,4.86617647 4.22923636,4.99323529 4.03985455,5.08764706 C3.85134545,5.18294118 3.63665455,5.23147059 3.39316364,5.23147059 C3.15141818,5.23147059 2.93323636,5.18294118 2.74036364,5.08764706 C2.54749091,4.99323529 2.38778182,4.86617647 2.26298182,4.70735294 C2.13730909,4.54852941 2.04043636,4.36676471 1.97236364,4.16382353 C1.90516364,3.95911765 1.872,3.74735294 1.872,3.52941176 C1.872,3.31147059 1.90516364,3.09970588 1.97236364,2.89676471 C2.04043636,2.69205882 2.13730909,2.50941176 2.26298182,2.34529412 C2.38778182,2.18205882 2.54749091,2.05147059 2.74036364,1.95705882 C2.93323636,1.86176471 3.15141818,1.81411765 3.39316364,1.81411765" id="path3095" fill="#000000" fill-rule="nonzero"></path>
                                </g>
                                <g id="g3097" stroke-width="1" fill="none" fill-rule="evenodd" transform="translate(151.741876, 3.569294)">
                                    <path d="M0,7.05882353 L1.85890909,7.05882353 L1.92698182,6.35029412 C2.12421818,6.59647059 2.37469091,6.79941176 2.68101818,6.96352941 C2.98647273,7.12588235 3.34429091,7.20794118 3.75796364,7.20794118 C4.00930909,7.20794118 4.2336,7.17970588 4.43083636,7.12588235 C4.6272,7.07205882 4.80174545,7.00235294 4.94923636,6.915 C5.0976,6.82941176 5.22763636,6.73323529 5.34109091,6.62911765 C5.4528,6.52411765 5.54443636,6.42264706 5.616,6.32294118 C5.87607273,6.60352941 6.19287273,6.82323529 6.5664,6.97676471 C6.93818182,7.13117647 7.32654545,7.20794118 7.73061818,7.20794118 C8.53876364,7.20794118 9.15665455,6.97676471 9.58254545,6.51352941 C10.0084364,6.05029412 10.2213818,5.42029412 10.2213818,4.62176471 L10.2213818,0.673235294 L8.28305455,0.673235294 L8.28305455,4.30852941 C8.28305455,4.68882353 8.19927273,4.98352941 8.03432727,5.19264706 C7.86763636,5.40088235 7.61890909,5.50588235 7.2864,5.50588235 C6.90938182,5.50588235 6.60829091,5.37441176 6.384,5.11058824 C6.15883636,4.84764706 6.048,4.51235294 6.048,4.10382353 L6.048,0.673235294 L4.17512727,0.673235294 L4.17512727,4.30852941 C4.17512727,4.68882353 4.09221818,4.98352941 3.92465455,5.19264706 C3.76058182,5.40088235 3.51010909,5.50588235 3.17934545,5.50588235 C2.81105455,5.50588235 2.51170909,5.37441176 2.28305455,5.11058824 C2.0544,4.84764706 1.94007273,4.51235294 1.94007273,4.10382353 L1.94007273,0.673235294 L0,0.673235294 L0,7.05882353 Z" id="path3099" fill="#000000" fill-rule="nonzero"></path>
                                </g>
                                <g id="g3101" stroke-width="1" fill="none" fill-rule="evenodd" transform="translate(163.364160, 0.922235)">
                                    <path d="M0,9.70588235 L1.85890909,9.70588235 C1.87636364,9.58764706 1.89032727,9.47117647 1.89905455,9.35735294 C1.90778182,9.24529412 1.91650909,9.12882353 1.92610909,9.01235294 C2.13294545,9.27441176 2.39650909,9.47647059 2.72029091,9.61676471 C3.0432,9.75705882 3.38094545,9.82676471 3.73003636,9.82676471 C4.18821818,9.82676471 4.59229091,9.73676471 4.94225455,9.55588235 C5.29309091,9.375 5.58283636,9.13147059 5.8176,8.82794118 C6.05061818,8.52352941 6.22603636,8.17323529 6.34385455,7.77882353 C6.4608,7.38441176 6.51665455,6.97764706 6.51665455,6.56029412 C6.51665455,5.97088235 6.41890909,5.45823529 6.22254545,5.02235294 C6.02356364,4.58558824 5.76785455,4.22735294 5.4528,3.94588235 C5.14036364,3.66529412 4.78516364,3.45617647 4.39069091,3.32029412 C3.99534545,3.18441176 3.60436364,3.11558824 3.21774545,3.11558824 C2.91316364,3.11558824 2.66181818,3.14294118 2.46458182,3.19764706 C2.26647273,3.25147059 2.08756364,3.30617647 1.92610909,3.36 L1.92610909,0.596470588 L0,0.596470588 L0,9.70588235 Z M1.92610909,5.00735294 C2.17745455,4.83529412 2.55010909,4.74970588 3.0432,4.74970588 C3.51883636,4.74970588 3.89410909,4.91029412 4.16727273,5.23323529 C4.44218182,5.55441176 4.57832727,5.98323529 4.57832727,6.51970588 C4.57832727,6.72882353 4.55389091,6.93264706 4.50501818,7.13205882 C4.45527273,7.33235294 4.37847273,7.50705882 4.27549091,7.65705882 C4.17250909,7.80617647 4.03810909,7.92529412 3.87229091,8.01705882 C3.70647273,8.10705882 3.50138182,8.15294118 3.25876364,8.15294118 C3.0432,8.15294118 2.85207273,8.11235294 2.68625455,8.03029412 C2.52130909,7.94911765 2.3808,7.83970588 2.26909091,7.70382353 C2.15650909,7.56882353 2.07185455,7.41352941 2.01338182,7.24058824 C1.95490909,7.06852941 1.92610909,6.89117647 1.92610909,6.71029412 L1.92610909,5.00735294 Z" id="path3103" fill="#000000" fill-rule="nonzero"></path>
                                </g>
                                <g id="g3105" stroke-width="1" fill="none" fill-rule="evenodd" transform="translate(170.339258, 3.958941)">
                                    <path d="M4.36363636,0.882352941 C4.14807273,0.627352941 3.87752727,0.432352941 3.54850909,0.297352941 C3.22123636,0.161470588 2.85556364,0.0926470588 2.45149091,0.0926470588 C2.22632727,0.0926470588 1.99156364,0.124411765 1.74458182,0.188823529 C1.4976,0.251470588 1.26807273,0.358235294 1.05774545,0.508235294 C0.846545455,0.658235294 0.672,0.859411765 0.533236364,1.11352941 C0.3936,1.36764706 0.324654545,1.68529412 0.324654545,2.06647059 C0.324654545,2.43882353 0.397963636,2.76970588 0.546327273,3.06088235 C0.694690909,3.35117647 0.898036364,3.59382353 1.15898182,3.78970588 C1.41905455,3.98470588 1.72712727,4.13117647 2.08145455,4.23176471 C2.43578182,4.33147059 2.81978182,4.38088235 3.23258182,4.38088235 C3.45687273,4.38088235 3.68378182,4.37735294 3.91243636,4.36764706 C4.14196364,4.35882353 4.29207273,4.34470588 4.36363636,4.32617647 L4.36363636,4.46294118 C4.36363636,4.62617647 4.33047273,4.76558824 4.2624,4.87764706 C4.1952,4.99235294 4.10530909,5.08676471 3.99272727,5.16441176 C3.88101818,5.24117647 3.7536,5.29676471 3.61047273,5.32676471 C3.4656,5.35941176 3.31374545,5.37529412 3.15229091,5.37529412 C2.72116364,5.37529412 2.36421818,5.32147059 2.08145455,5.21205882 C1.79869091,5.10264706 1.55781818,4.98176471 1.36145455,4.84411765 L0.5664,6.04235294 C0.7008,6.14205882 0.853527273,6.24176471 1.02458182,6.34323529 C1.19389091,6.44117647 1.39636364,6.53294118 1.63025455,6.61411765 C1.86327273,6.69617647 2.12596364,6.76235294 2.41745455,6.81176471 C2.70981818,6.86117647 3.04407273,6.88676471 3.42021818,6.88676471 C4.38196364,6.88676471 5.09061818,6.62470588 5.5488,6.105 C6.00785455,5.58264706 6.23563636,4.88029412 6.23563636,4.00058824 L6.23563636,0.283235294 L4.41774545,0.283235294 L4.36363636,0.882352941 Z M4.36363636,3.10147059 C4.31912727,3.11029412 4.23272727,3.12176471 4.10792727,3.135 C3.98225455,3.14911765 3.83825455,3.15529412 3.67767273,3.15529412 C3.13832727,3.15529412 2.75607273,3.07764706 2.53178182,2.925 C2.30749091,2.76970588 2.19665455,2.55264706 2.19665455,2.27117647 C2.19665455,1.74441176 2.50996364,1.48235294 3.13832727,1.48235294 C3.29018182,1.48235294 3.44203636,1.50617647 3.58952727,1.55558824 C3.73789091,1.60588235 3.86792727,1.67735294 3.98050909,1.76647059 C4.09221818,1.85823529 4.18472727,1.97205882 4.25629091,2.10794118 C4.32698182,2.24382353 4.36363636,2.40264706 4.36363636,2.58352941 L4.36363636,3.10147059 Z" id="path3107" fill="#000000" fill-rule="nonzero"></path>
                                </g>
                                <g id="g3109" stroke-width="1" fill="none" fill-rule="evenodd" transform="translate(177.940879, 3.569294)">
                                    <path d="M0,7.05882353 L1.85803636,7.05882353 L1.91127273,6.36529412 C2.11810909,6.61852941 2.38952727,6.82323529 2.72727273,6.97676471 C3.06414545,7.13117647 3.41585455,7.20794118 3.78414545,7.20794118 C4.51112727,7.20794118 5.088,6.99088235 5.51389091,6.55411765 C5.94065455,6.11823529 6.1536,5.47411765 6.1536,4.62176471 L6.1536,0.673235294 L4.2144,0.673235294 L4.2144,4.34911765 C4.2144,4.70294118 4.12712727,4.98352941 3.95170909,5.19264706 C3.77716364,5.40088235 3.5328,5.50588235 3.21774545,5.50588235 C3.00305455,5.50588235 2.81367273,5.46794118 2.65309091,5.39117647 C2.49076364,5.31352941 2.35549091,5.21205882 2.24901818,5.08411765 C2.1408,4.95705882 2.05963636,4.80970588 2.0064,4.64117647 C1.95316364,4.47352941 1.92523636,4.29529412 1.92523636,4.10382353 L1.92523636,0.673235294 L0,0.673235294 L0,7.05882353 Z" id="path3111" fill="#000000" fill-rule="nonzero"></path>
                                </g>
                                <g id="g3113" stroke-width="1" fill="none" fill-rule="evenodd" transform="translate(183.790333, 0.587744)">
                                    <path d="M1.74545455,2.64705882 C1.8528,2.56588235 1.97149091,2.49264706 2.10152727,2.42911765 C2.23243636,2.36647059 2.37381818,2.33382353 2.52654545,2.33382353 C2.73250909,2.33382353 2.90530909,2.39911765 3.04407273,2.53058824 C3.18370909,2.66294118 3.31549091,2.88794118 3.44203636,3.20558824 L3.63054545,3.72264706 L0.747927273,10.0402941 L2.9568,10.0402941 L4.53294545,6.00970588 L5.95985455,10.0402941 L8.02036364,10.0402941 L5.43534545,3.69529412 C5.29047273,3.34058824 5.14996364,2.98941176 5.01032727,2.63911765 C4.87156364,2.29147059 4.70138182,1.97823529 4.49890909,1.70029412 C4.29730909,1.42323529 4.04945455,1.19911765 3.75796364,1.02617647 C3.46734545,0.854117647 3.10167273,0.767647059 2.66094545,0.767647059 C2.31970909,0.767647059 2.00989091,0.812647059 1.73149091,0.904411765 C1.45309091,0.994411765 1.19738182,1.12676471 0.963490909,1.29882353 L1.74545455,2.64705882 Z" id="path3115" fill="#000000" fill-rule="nonzero"></path>
                                </g>
                                <g id="g3117" stroke-width="1" fill="none" fill-rule="evenodd" transform="translate(13.269473, 4.100744)">
                                    <path d="M6.10909091,5.29411765 C6.10909091,5.35852941 6.10821818,5.42205882 6.10821818,5.48382353 C6.12218182,5.81735294 6.14923636,6.06088235 6.14923636,6.14735294 C6.14923636,6.38558824 6.55243636,8.85088235 6.61178182,9.42176471 C6.67112727,9.99352941 6.528,10.1267647 6.528,10.1267647 C6.90152727,12.2329412 6.20509091,14.4882353 6.20509091,14.4882353 C6.45381818,14.7044118 5.93454545,15.8276471 5.93454545,15.8276471 C5.55054545,16.7567647 5.08363636,18.0741176 5.08363636,18.0741176 L5.08101818,18.0741176 C5.00596364,18.3723529 4.90123636,18.8055882 4.82443636,19.2820588 C4.75636364,20.0117647 4.74850909,20.7520588 4.74850909,20.9894118 C4.74850909,21.1755882 4.98327273,21.1658824 4.98327273,21.3335294 C4.98327273,21.5311765 4.75112727,22.0067647 4.73716364,22.0570588 C4.72843636,22.0941176 4.7328,22.1752941 4.75636364,22.2273529 C4.7808,22.2829412 4.82792727,22.3235294 4.82792727,22.3235294 C4.82792727,22.5485294 4.65512727,22.7752941 4.39418182,22.7752941 L2.352,22.7752941 C2.08930909,22.7752941 1.91825455,22.5485294 1.91825455,22.3235294 C1.91825455,22.3235294 1.96712727,22.2829412 1.99156364,22.2273529 C2.01425455,22.1752941 2.01774545,22.0941176 2.00901818,22.0570588 C1.99505455,22.0067647 1.76378182,21.5285294 1.76378182,21.3335294 C1.76378182,21.1658824 1.99767273,21.1755882 1.99767273,20.9894118 C1.99767273,20.7520588 1.99156364,20.0144118 1.92349091,19.2891176 C1.8432,18.8108824 1.74109091,18.3741176 1.66603636,18.0741176 L1.66167273,18.0741176 C1.66167273,18.0741176 1.19738182,16.7567647 0.811636364,15.8276471 C0.811636364,15.8276471 0.289745455,14.7044118 0.541963636,14.4882353 C0.541963636,14.4882353 -0.154472727,12.2329412 0.219054545,10.1267647 C0.219054545,10.1267647 0.0724363636,9.99352941 0.132654545,9.42176471 C0.191127273,8.85088235 0.592581818,6.38558824 0.592581818,6.14735294 C0.592581818,6.05911765 0.624,5.81029412 0.636218182,5.47235294 L0.636218182,5.29411765 C0.636218182,3.79764706 0.0270545455,3.06794118 0.0270545455,2.09911765 C0.0270545455,0.812647059 0.834327273,0.141176471 3.37483636,0.141176471 C5.9136,0.141176471 6.72,0.812647059 6.72,2.09911765 C6.72,3.06794118 6.10909091,3.79764706 6.10909091,5.29411765" id="path3119" fill="#000000" fill-rule="nonzero"></path>
                                </g>
                                <g id="g3121" stroke-width="1" fill="none" fill-rule="evenodd" transform="translate(0.816610, 4.097647)">
                                    <path d="M6.10909091,5.29411765 C6.10909091,5.35941176 6.10734545,5.42382353 6.10734545,5.48735294 C6.12305455,5.81823529 6.15098182,6.06176471 6.15098182,6.14911765 C6.15098182,6.38647059 6.55243636,8.85441176 6.61178182,9.42441176 C6.67112727,9.99352941 6.528,10.1267647 6.528,10.1267647 C6.90152727,12.2338235 6.20509091,14.49 6.20509091,14.49 C6.45469091,14.7044118 5.93541818,15.8302941 5.93541818,15.8302941 C5.55054545,16.7567647 5.08363636,18.0767647 5.08363636,18.0767647 L5.08101818,18.0767647 C5.00596364,18.375 4.90210909,18.8091176 4.82356364,19.2829412 C4.75549091,20.0135294 4.74850909,20.7529412 4.74850909,20.9929412 C4.74850909,21.1782353 4.98327273,21.1685294 4.98327273,21.3361765 C4.98327273,21.5320588 4.75112727,22.0102941 4.73803636,22.0588235 C4.72930909,22.0958824 4.7328,22.1752941 4.75549091,22.2273529 C4.77992727,22.2829412 4.8288,22.3235294 4.8288,22.3235294 C4.8288,22.5520588 4.65512727,22.7779412 4.39418182,22.7779412 L2.352,22.7779412 C2.08843636,22.7779412 1.91825455,22.5520588 1.91825455,22.3235294 C1.91825455,22.3235294 1.96712727,22.2829412 1.99243636,22.2273529 C2.01338182,22.1752941 2.01861818,22.0958824 2.00901818,22.0588235 C1.99592727,22.0102941 1.76290909,21.5320588 1.76290909,21.3361765 C1.76290909,21.1685294 1.99854545,21.1782353 1.99854545,20.9929412 C1.99854545,20.7529412 1.99243636,20.0161765 1.92261818,19.29 C1.8432,18.8108824 1.74109091,18.375 1.66603636,18.0767647 L1.66167273,18.0767647 C1.66167273,18.0767647 1.19738182,16.7567647 0.811636364,15.8302941 C0.811636364,15.8302941 0.289745455,14.7044118 0.541963636,14.49 C0.541963636,14.49 -0.155345455,12.2338235 0.218181818,10.1267647 C0.218181818,10.1267647 0.0724363636,9.99352941 0.132654545,9.42441176 C0.189381818,8.85441176 0.592581818,6.38647059 0.592581818,6.14911765 C0.592581818,6.06176471 0.623127273,5.81294118 0.637090909,5.47588235 L0.637090909,5.29411765 C0.637090909,3.79764706 0.0270545455,3.07058824 0.0270545455,2.10176471 C0.0270545455,0.812647059 0.834327273,0.141176471 3.37483636,0.141176471 C5.9136,0.141176471 6.72087273,0.812647059 6.72087273,2.10176471 C6.72087273,3.07058824 6.10909091,3.79764706 6.10909091,5.29411765" id="path3123" fill="#8E9091" fill-rule="nonzero"></path>
                                </g>
                                <g id="g3125" stroke-width="1" fill="none" fill-rule="evenodd" transform="translate(5.225630, 0.711176)">
                                    <path d="M8.72727273,7.05882353 C8.72727273,7.14529412 8.72727273,7.22470588 8.72552727,7.30588235 C8.74298182,7.73382353 8.78225455,8.04970588 8.78225455,8.16441176 C8.78225455,8.46882353 9.30065455,11.6567647 9.37745455,12.3926471 C9.456,13.1285294 9.26836364,13.3041176 9.26836364,13.3041176 C9.75185455,16.0244118 8.84945455,18.9388235 8.84945455,18.9388235 C9.17498182,19.2194118 8.50123636,20.6717647 8.50123636,20.6717647 C8.00378182,21.8708824 7.40421818,23.5755882 7.40421818,23.5755882 L7.39723636,23.5755882 C7.29949091,23.9585294 7.16683636,24.5205882 7.06472727,25.1347059 C6.97745455,26.0770588 6.96785455,27.0344118 6.96785455,27.3441176 C6.96785455,27.5832353 7.27243636,27.5717647 7.27243636,27.7888235 C7.27243636,28.0420588 6.97047273,28.6570588 6.95563636,28.7223529 C6.94341818,28.7691176 6.94865455,28.8723529 6.97745455,28.9394118 C7.00974545,29.0126471 7.07258182,29.0647059 7.07258182,29.0647059 C7.07258182,29.3576471 6.84829091,29.6497059 6.51054545,29.6497059 L3.87054545,29.6497059 C3.5328,29.6497059 3.30938182,29.3576471 3.30938182,29.0647059 C3.30938182,29.0647059 3.37134545,29.0126471 3.40450909,28.9394118 C3.43418182,28.8723529 3.44029091,28.7691176 3.42981818,28.7223529 C3.41149091,28.6570588 3.10865455,28.0394118 3.10865455,27.7888235 C3.10865455,27.5717647 3.41323636,27.5832353 3.41323636,27.3441176 C3.41323636,27.0344118 3.40450909,26.0814706 3.31898182,25.1417647 C3.21687273,24.5267647 3.08421818,23.9611765 2.98472727,23.5755882 L2.98036364,23.5755882 C2.98036364,23.5755882 2.37730909,21.8708824 1.87985455,20.6717647 C1.87985455,20.6717647 1.20698182,19.2194118 1.52989091,18.9388235 C1.52989091,18.9388235 0.630109091,16.0244118 1.11272727,13.3041176 C1.11272727,13.3041176 0.925963636,13.1285294 1.00450909,12.3926471 C1.08218182,11.6567647 1.59883636,8.46882353 1.59883636,8.16441176 C1.59883636,8.04705882 1.63810909,7.72764706 1.65643636,7.29176471 L1.65643636,7.05882353 C1.65643636,5.12382353 0.866618182,4.18411765 0.866618182,2.93117647 C0.866618182,1.26617647 1.9104,0.400588235 5.19272727,0.400588235 C8.47330909,0.400588235 9.51621818,1.26617647 9.51621818,2.93117647 C9.51621818,4.18411765 8.72727273,5.12382353 8.72727273,7.05882353" id="path3127" fill="#E41E2B" fill-rule="nonzero"></path>
                                </g>
                            </g>
                        </g>
                    </g>
                </g>
            </g>
        </g>
    </g>
</svg>