<?xml version="1.0" encoding="UTF-8"?>
<svg width="91px" height="65px" viewBox="0 0 91 65" version="1.1" xmlns="http://www.w3.org/2000/svg" xmlns:xlink="http://www.w3.org/1999/xlink">
    <!-- Generator: sketchtool 50.2 (55047) - http://www.bohemiancoding.com/sketch -->
    <title>A30ECC7D-CB97-4B4D-8398-EB1032F155B9</title>
    <desc>Created with sketchtool.</desc>
    <defs></defs>
    <g id="Mockups" stroke="none" stroke-width="1" fill="none" fill-rule="evenodd">
        <g id="customers" transform="translate(-969.000000, -1335.000000)" fill-rule="nonzero">
            <g id="Group-4" transform="translate(370.000000, 1302.000000)">
                <g id="Group" transform="translate(570.000000, 0.000000)">
                    <g id="execujet-aviation-logo" transform="translate(29.000000, 33.000000)">
                        <rect id="Rectangle-path" fill="#001947" x="0" y="0" width="91" height="65"></rect>
                        <rect id="Rectangle-path" fill="#E4D1B3" x="10" y="48" width="47" height="1"></rect>
                        <rect id="Rectangle-path" fill="#E4D1B3" x="65" y="48" width="17" height="1"></rect>
                        <g id="Group" transform="translate(10.000000, 17.000000)" fill="#E4D1B3">
                            <path d="M16.5928177,28.2088353 L16.5928177,28.5558233 L20.9600368,28.5558233 L20.9600368,28.2088353 C20.9600368,28.2088353 19.6394107,28.2216867 18.8418048,27.4634538 L16.5143646,25.2273092 L18.6848987,23.351004 C19.1556169,22.9526104 20.3585635,22.9140562 20.3585635,22.9140562 L20.3585635,22.6441767 L17.325046,22.6441767 L17.325046,22.9140562 C17.325046,22.9140562 18.6064457,22.9269076 18.0311234,23.4281124 L16.2267035,24.9574297 L14.6445672,23.4281124 C14.0953959,22.9012048 15.6513812,22.9140562 15.6513812,22.9140562 L15.6513812,22.6441767 L11.3756906,22.6441767 L11.3756906,22.9140562 C11.3756906,22.9140562 12.4348066,22.9140562 12.8793738,23.351004 L15.3375691,25.7285141 L13.3108656,27.4506024 C12.4740331,28.1702811 11.1926335,28.1959839 11.1926335,28.1959839 L11.1926335,28.5429719 L14.4353591,28.5429719 L14.4353591,28.1959839 C14.4353591,28.1959839 13.1016575,28.1574297 13.7946593,27.5534137 L15.6121547,25.9855422 L17.2335175,27.5534137 C17.8872928,28.1959839 16.5928177,28.2088353 16.5928177,28.2088353" id="Shape"></path>
                            <path d="M49.4515654,28.5558233 L49.4515654,28.2088353 C49.4515654,28.2088353 47.9609576,28.2088353 47.9609576,27.5277108 L47.9609576,22.6441767 L44.8882136,22.6441767 L44.8882136,22.9140562 C44.8882136,22.9140562 46.6664825,22.8883534 46.6664825,23.5951807 L46.6664825,27.0008032 C46.6664825,27.0008032 45.5158379,27.7975904 44.1559853,27.7975904 C43.0968692,27.7975904 42.4823204,27.373494 42.4823204,26.8208835 L42.4823204,22.6441767 L39.8149171,22.6441767 L39.8149171,22.9140562 C39.8149171,22.9140562 41.1878453,22.8883534 41.1878453,23.5951807 L41.1878453,26.6024096 C41.1878453,28.1188755 42.652302,28.5686747 43.4629834,28.5686747 C44.9405157,28.5686747 46.6664825,27.437751 46.6664825,27.437751 L46.6664825,28.5686747 L49.4515654,28.5558233 Z" id="Shape"></path>
                            <path d="M0.22228361,28.2088353 L0.22228361,28.5558233 L9.28360958,28.5558233 L9.88508287,26.8722892 L9.57127072,26.8208835 C9.57127072,26.8208835 8.78674033,28.2216867 7.51841621,28.2216867 L3.73959484,28.2216867 C3.37348066,28.2216867 3.07274401,28.1317269 3.07274401,27.6048193 L3.07274401,23.9293173 L7.32228361,23.9293173 C8.106814,23.9293173 8.34217311,24.77751 8.34217311,24.77751 L8.55138122,24.77751 L8.55138122,22.6570281 L8.34217311,22.6570281 C8.34217311,22.6570281 8.106814,23.5052209 7.32228361,23.5052209 L3.07274401,23.5052209 L3.07274401,19.3413655 L7.7145488,19.3413655 C9.00902394,19.3413655 9.1267035,20.562249 9.1267035,20.562249 L9.37513812,20.5108434 L9.34898711,18.9943775 L0.22228361,18.9943775 L0.22228361,19.3413655 C0.22228361,19.3413655 1.58213628,19.2514056 1.58213628,20.2923695 L1.58213628,27.2706827 C1.58213628,28.2987952 0.22228361,28.2088353 0.22228361,28.2088353" id="Shape"></path>
                            <path d="M35.0946593,22.6955823 C37.3044199,22.6955823 37.6443831,23.6722892 37.9712707,24.4690763 L38.2066298,24.4690763 L38.2197053,22.7212851 L37.9843462,22.6313253 L37.7751381,22.9012048 C37.7751381,22.9012048 37.1344383,22.464257 35.4084715,22.464257 C32.3618785,22.464257 31.2504604,24.1092369 31.2504604,25.664257 C31.2504604,26.897992 32.3095764,28.5558233 35.1469613,28.5558233 C37.2259669,28.5558233 38.520442,27.3092369 38.520442,27.3092369 L38.520442,26.962249 C38.520442,26.962249 37.7228361,28.0289157 35.9053407,28.0289157 C34.0878453,28.0289157 32.5972376,26.8722892 32.5972376,25.3943775 C32.5972376,23.9421687 33.4471455,22.6955823 35.0946593,22.6955823" id="Shape"></path>
                            <path d="M25.6279926,22.6955823 C27.5893186,22.6955823 27.5631766,24.4048193 27.5631766,24.4048193 L23.2744015,24.4048193 C23.5882136,23.415261 24.3858195,22.6955823 25.6279926,22.6955823 Z M29.1191529,24.8289157 C29.1191529,24.8289157 29.1845304,22.4771084 25.9418048,22.4771084 C22.8952118,22.4771084 21.7837937,24.1220884 21.7837937,25.6771084 C21.7837937,26.9108434 22.8429098,28.5686747 25.6802947,28.5686747 C27.7593002,28.5686747 29.2368324,27.3220884 29.2368324,27.3220884 L29.2368324,26.9751004 C29.2368324,26.9751004 28.2561694,28.0417671 26.438674,28.0417671 C24.6211786,28.0417671 23.1305709,26.8851406 23.1305709,25.4072289 C23.1305709,25.2016064 23.1436464,25.0088353 23.1828729,24.8160643 L29.1191529,24.8160643 L29.1191529,24.8289157 Z" id="Shape"></path>
                            <path d="M53.727256,20.2795181 C53.727256,19.2385542 55.0871087,19.3285141 55.0871087,19.3285141 L55.0871087,18.9815261 L50.8898711,18.9815261 L50.8898711,19.3285141 C50.8898711,19.3285141 52.3020258,19.2385542 52.3020258,20.2795181 L52.3020258,28.5558233 C52.3020258,30.7405622 51.4128913,31.4730924 50.0399632,31.4730924 C49.2946593,31.4730924 48.8500921,31.0104418 48.8500921,31.0104418 L48.8500921,31.3060241 C48.8500921,31.3060241 49.3992634,31.935743 50.732965,31.935743 C52.0666667,31.935743 53.727256,31.113253 53.727256,27.848996 L53.727256,20.2795181 Z" id="Shape"></path>
                            <path d="M60.0558011,22.6955823 C62.0171271,22.6955823 61.9909851,24.4048193 61.9909851,24.4048193 L57.7152855,24.4048193 C58.0160221,23.415261 58.813628,22.6955823 60.0558011,22.6955823 Z M63.5469613,24.8289157 C63.5469613,24.8289157 63.6123389,22.4771084 60.3696133,22.4771084 C57.3230203,22.4771084 56.2116022,24.1220884 56.2116022,25.6771084 C56.2116022,26.9108434 57.2707182,28.5686747 60.1081031,28.5686747 C62.1871087,28.5686747 63.6646409,27.3220884 63.6646409,27.3220884 L63.6646409,26.9751004 C63.6646409,26.9751004 62.6839779,28.0417671 60.8664825,28.0417671 C59.0489871,28.0417671 57.5583794,26.8851406 57.5583794,25.4072289 C57.5583794,25.2016064 57.5714549,25.0088353 57.6106814,24.8160643 L63.5469613,24.8160643 L63.5469613,24.8289157 Z" id="Shape"></path>
                            <path d="M70.8953959,22.9140562 L70.8953959,22.6441767 L67.901105,22.6441767 L67.901105,20.4594378 L67.5872928,20.4080321 C67.5872928,20.4080321 67.0642726,21.9759036 65.2467772,22.6441767 L65.2467772,22.9140562 L66.6066298,22.9140562 L66.6066298,26.962249 C66.6066298,27.7590361 66.86814,28.5686747 68.4764273,28.5686747 C69.888582,28.5686747 70.921547,27.8232932 70.921547,27.8232932 L70.921547,27.4763052 C70.921547,27.4763052 70.0585635,28.0931727 69.2348066,28.0931727 C68.1103131,28.0931727 67.9141805,27.6562249 67.9141805,26.7566265 L67.9141805,22.9012048 L70.8953959,22.9012048 L70.8953959,22.9140562 Z" id="Shape"></path>
                            <path d="M28.2169429,5.7188755 C26.8701657,6.05301205 22.9344383,7.63373494 21.352302,9.43293173 C20.6985267,10.1783133 20.9992634,11.026506 21.2084715,11.2321285 C23.3528545,10.1012048 25.1311234,9.31726908 26.5955801,8.79036145 C26.8570902,8.70040161 27.2101289,8.57188755 27.445488,8.49477912 C27.340884,8.28915663 27.288582,8.07068273 27.288582,7.83935743 C27.288582,6.96546185 28.1384899,6.27148594 29.1191529,6.27148594 C30.0867403,6.27148594 30.8451197,6.8626506 30.8581952,7.72369478 C30.9889503,7.96787149 31.4073665,7.94216867 31.5119705,7.87791165 C31.5119705,6.57991968 30.3090239,5.61606426 28.9491713,5.61606426 C28.7530387,5.61606426 28.5569061,5.64176707 28.3607735,5.68032129 L28.2169429,5.7188755 Z" id="Shape"></path>
                            <path d="M22.8167587,2.04337349 C22.9736648,1.90200803 23.3790055,1.56787149 23.7451197,1.27228916 C24.1112339,0.976706827 24.4381215,0.706827309 24.4381215,0.706827309 C24.7519337,0.449799197 25.0788214,0.346987952 25.379558,0.449799197 C25.6802947,0.552610442 25.9679558,0.861044177 26.2033149,1.42650602 L27.0009208,3.30281124 L27.7985267,5.17911647 C27.7985267,5.17911647 27.9685083,5.11485944 28.2038674,5.07630522 C28.373849,5.05060241 28.4915285,5.06345382 28.4915285,5.06345382 L27.5370166,3.07148594 L26.5825046,1.07951807 C26.307919,0.501204819 25.9156538,0.167068273 25.5103131,0.0642570281 C25.1049724,-0.0385542169 24.6604052,0.102811245 24.2812155,0.449799197 L23.4836096,1.16947791 L22.6860037,1.88915663 C22.6337017,1.94056225 22.6337017,2.00481928 22.6598527,2.03052209 C22.6990792,2.08192771 22.7644567,2.09477912 22.8167587,2.04337349" id="Shape"></path>
                            <path d="M1.05911602,13.4682731 L30.3220994,14.1493976 L34.6108656,14.2522088 C35.6307551,14.2779116 35.0292818,13.4297189 33.6040516,13.0955823 C33.5909761,13.0827309 33.564825,13.0698795 33.512523,13.0698795 C33.1856354,13.0056225 32.8195212,12.9542169 32.4141805,12.9542169 L0.431491713,12.9156627 C8.90953977e-15,12.9156627 -0.0261510129,13.4168675 0.418416206,13.4297189 C0.418416206,13.4297189 1.04604052,13.4682731 1.05911602,13.4682731" id="Shape"></path>
                            <path d="M12.3432781,5.52610442 L26.0071823,5.98875502 C26.7786372,6.01445783 26.1117864,5.01204819 25.0265193,5.0248996 L12.3694291,5.12771084 C12.0556169,5.12771084 12.0033149,5.51325301 12.3432781,5.52610442" id="Shape"></path>
                            <path d="M46.9149171,2.93012048 C54.6425414,0.167068273 54.812523,1.70923695 56.5777164,2.03052209 C55.793186,1.41365462 55.4532228,1.25943775 54.73407,0.925301205 C53.9103131,0.526907631 52.1974217,0.0771084337 50.680663,0.0771084337 C48.8500921,0.0771084337 46.6403315,0.925301205 43.1883978,2.48032129 L32.6495396,7.19678715 C32.8718232,7.762249 32.7672192,8.28915663 32.3880295,8.94457831 L46.9149171,2.93012048 Z" id="Shape"></path>
                            <path d="M70.5554328,13.4682731 C70.9869245,13.4554217 70.973849,12.9542169 70.5554328,12.9542169 L47.8040516,12.9542169 C51.7005525,11.5148594 57.7022099,9.34297189 59.0489871,8.80321285 C60.7226519,8.12208835 61.8471455,6.8497992 61.4548803,5.75742972 C61.4287293,5.68032129 61.3241252,5.51325301 61.2325967,5.43614458 C61.2718232,5.50040161 61.3372007,5.56465863 61.3633517,5.62891566 C61.7686924,6.41285141 61.0495396,7.73654618 58.9574586,8.58473896 C57.1268877,9.33012048 51.9751381,9.42008032 43.9990792,14.097992 L70.5554328,13.4682731 Z" id="Shape"></path>
                        </g>
                        <polygon id="Shape" fill="#E4D1B3" points="11.5935484 53 11 53 11 56 13 56 13 55.5870445 11.5935484 55.5870445"></polygon>
                        <path d="M15.359375,54.7450199 C15.359375,55.0438247 15.34375,55.187251 15.28125,55.2948207 C15.171875,55.4860558 14.921875,55.5816733 14.546875,55.5816733 C13.859375,55.5816733 13.734375,55.2828685 13.734375,54.8047809 L13.734375,53 L13,53 L13,54.7330677 C13,55.2589641 13.03125,55.4143426 13.203125,55.5936255 C13.4375,55.8446215 13.90625,56 14.46875,56 C14.96875,56 15.375,55.8924303 15.640625,55.7250996 C15.921875,55.5219124 16,55.3426295 16,54.7450199 L16,53 L15.359375,53 L15.359375,54.7450199 Z" id="Shape" fill="#E4D1B3"></path>
                        <polygon id="Shape" fill="#E4D1B3" points="20.9439252 53 20.2990654 53 19.5700935 54.0931174 18.8411215 53 18.0700935 53 19.1635514 54.4696356 18 56 18.6588785 56 19.4579439 54.8340081 20.2149533 56 21 56 19.864486 54.4453441"></polygon>
                        <path d="M21.930131,54.9146341 L22.4279476,53.4634146 L22.9388646,54.9146341 L21.930131,54.9146341 Z M22.1266376,53 L21,56 L21.5502183,56 L21.8122271,55.2804878 L23.069869,55.2804878 L23.3318777,56 L24,56 L22.8340611,53 L22.1266376,53 Z" id="Shape" fill="#E4D1B3"></path>
                        <polygon id="Shape" fill="#E4D1B3" points="25.5605381 55.51417 24.6860987 53 24 53 25.1569507 56 25.8699552 56 27 53 26.4215247 53"></polygon>
                        <rect id="Rectangle-path" fill="#E4D1B3" x="29" y="53" width="1" height="3"></rect>
                        <path d="M31.930131,54.9146341 L32.4279476,53.4634146 L32.9388646,54.9146341 L31.930131,54.9146341 Z M32.1266376,53 L31,56 L31.5502183,56 L31.8122271,55.2804878 L33.069869,55.2804878 L33.3318777,56 L34,56 L32.8340611,53 L32.1266376,53 Z" id="Shape" fill="#E4D1B3"></path>
                        <polygon id="Shape" fill="#E4D1B3" points="34 53.4129555 35.1384615 53.4129555 35.1384615 56 35.8615385 56 35.8615385 53.4129555 37 53.4129555 37 53 34 53"></polygon>
                        <rect id="Rectangle-path" fill="#E4D1B3" x="38" y="53" width="1" height="3"></rect>
                        <path d="M41.5068452,55.5866142 C41.2417521,55.5866142 41.0185157,55.503937 40.8929453,55.3385827 C40.7534226,55.1614173 40.6836612,54.8543307 40.6836612,54.5 C40.6836612,53.7795276 40.9627067,53.4133858 41.5068452,53.4133858 C42.0509837,53.4133858 42.3160769,53.7677165 42.3160769,54.5 C42.3160769,55.2440945 42.064936,55.5866142 41.5068452,55.5866142 M41.5068452,53 C40.5441385,53 40,53.5314961 40,54.5 C40,55.4685039 40.5301863,56 41.4928929,56 C42.4695518,56 42.9997381,55.4685039 42.9997381,54.5 C43.0136904,53.5314961 42.4695518,53 41.5068452,53" id="Shape" fill="#E4D1B3"></path>
                        <polygon id="Shape" fill="#E4D1B3" points="46.421875 55.4534413 44.96875 53 44 53 44 56 44.609375 56 44.578125 53.5708502 46.03125 56 47 56 47 53 46.390625 53"></polygon>
                        <path d="M51.7608696,55.5629921 C51.125,55.5629921 50.798913,55.1968504 50.798913,54.476378 C50.798913,53.8385827 51.0923913,53.4251969 51.8586957,53.4251969 C52.1032609,53.4251969 52.3641304,53.4370079 52.7717391,53.507874 L52.8858696,53.1299213 C52.3967391,53.0472441 52.0706522,53 51.7445652,53 C50.6358696,53 50,53.5433071 50,54.511811 C50,55.4448819 50.6195652,56 51.6141304,56 C52.0054348,56 52.4456522,55.9409449 53,55.7874016 L52.8369565,55.4212598 C52.298913,55.5275591 52.0054348,55.5629921 51.7608696,55.5629921" id="Shape" fill="#E4D1B3"></path>
                        <polygon id="Shape" fill="#E4D1B3" points="55.2129278 53 54.5285171 55.51417 53.8326996 53 53.148289 53 53 56 53.4562738 56 53.513308 53.4736842 54.1977186 56 54.756654 56 55.4524715 53.4736842 55.4980989 56 56 56 55.8973384 53"></polygon>
                        <rect id="Rectangle-path" fill="#E4D1B3" x="59" y="53" width="1" height="3"></rect>
                        <g id="Group" transform="translate(63.000000, 53.000000)" fill="#E4D1B3">
                            <path d="M1.98129496,2.45769231 C1.8647482,2.49230769 1.6705036,2.52692308 1.45035971,2.52692308 C1.19136691,2.52692308 1.01007194,2.45769231 0.89352518,2.29615385 C0.751079137,2.12307692 0.673381295,1.83461538 0.673381295,1.47692308 C0.673381295,0.773076923 0.945323741,0.426923077 1.51510791,0.426923077 C1.72230216,0.426923077 1.98129496,0.45 2.38273381,0.530769231 L2.47338129,0.161538462 C2.03309353,0.0461538462 1.69640288,0.0115384615 1.43741007,0.0115384615 C0.556834532,0.0115384615 0.0388489209,0.530769231 0.0388489209,1.47692308 C0.0388489209,2.42307692 0.517985612,2.94230769 1.35971223,2.94230769 C1.69640288,2.94230769 2.03309353,2.87307692 2.56402878,2.68846154 L2.56402878,1.54615385 L1.98129496,1.54615385 L1.98129496,2.45769231 Z" id="Shape"></path>
                            <path d="M4.79136691,1.33846154 L4.63597122,1.33846154 L4.63597122,0.426923077 L4.90791367,0.426923077 C5.16690647,0.426923077 5.29640288,0.438461538 5.4,0.496153846 C5.5294964,0.565384615 5.58129496,0.692307692 5.58129496,0.876923077 C5.58129496,1.30384615 5.24460432,1.33846154 4.79136691,1.33846154 M5.49064748,1.52307692 C5.95683453,1.45384615 6.18992806,1.21153846 6.18992806,0.807692308 C6.18992806,0.496153846 6.06043165,0.276923077 5.80143885,0.161538462 C5.63309353,0.0807692308 5.4647482,0.0576923077 5.02446043,0.0576923077 L4.01438849,0.0576923077 L4.01438849,2.89615385 L4.62302158,2.89615385 L4.62302158,1.70769231 L4.71366906,1.70769231 C4.89496403,1.70769231 5.01151079,1.70769231 5.10215827,1.71923077 C5.36115108,1.75384615 5.45179856,1.95 5.55539568,2.21538462 L5.82733813,2.88461538 L6.4618705,2.88461538 L6.18992806,2.21538462 C5.98273381,1.70769231 5.81438849,1.56923077 5.49064748,1.52307692" id="Shape"></path>
                            <path d="M8.9352518,2.53846154 C8.68920863,2.53846154 8.48201439,2.45769231 8.36546763,2.29615385 C8.23597122,2.12307692 8.17122302,1.82307692 8.17122302,1.47692308 C8.17122302,0.773076923 8.43021583,0.415384615 8.9352518,0.415384615 C9.44028777,0.415384615 9.68633094,0.761538462 9.68633094,1.47692308 C9.69928058,2.20384615 9.45323741,2.53846154 8.9352518,2.53846154 M8.9352518,0.0115384615 C8.04172662,0.0115384615 7.53669065,0.530769231 7.53669065,1.47692308 C7.53669065,2.42307692 8.02877698,2.94230769 8.92230216,2.94230769 C9.82877698,2.94230769 10.3208633,2.42307692 10.3208633,1.47692308 C10.3338129,0.530769231 9.82877698,0.0115384615 8.9352518,0.0115384615" id="Shape"></path>
                            <path d="M13.6748201,1.73076923 C13.6748201,2.01923077 13.6618705,2.15769231 13.5971223,2.26153846 C13.5064748,2.44615385 13.2992806,2.53846154 12.9884892,2.53846154 C12.418705,2.53846154 12.3151079,2.25 12.3151079,1.78846154 L12.3151079,0.0461538462 L11.7064748,0.0461538462 L11.7064748,1.71923077 C11.7064748,2.22692308 11.7323741,2.37692308 11.8748201,2.55 C12.0690647,2.79230769 12.457554,2.94230769 12.923741,2.94230769 C13.3381295,2.94230769 13.6748201,2.83846154 13.894964,2.67692308 C14.1280576,2.48076923 14.1928058,2.30769231 14.1928058,1.73076923 L14.1928058,0.0461538462 L13.6618705,0.0461538462 L13.6618705,1.73076923 L13.6748201,1.73076923 Z" id="Shape"></path>
                            <path d="M17.1453237,1.33846154 C17.028777,1.38461538 16.8733813,1.40769231 16.5366906,1.40769231 L16.3553957,1.40769231 L16.3553957,0.438461538 L16.6273381,0.438461538 C16.8992806,0.438461538 17.028777,0.45 17.1194245,0.484615385 C17.2877698,0.542307692 17.3913669,0.703846154 17.3913669,0.911538462 C17.3913669,1.13076923 17.3136691,1.26923077 17.1453237,1.33846154 M17.6374101,0.184615385 C17.4561151,0.0807692308 17.2748201,0.0576923077 16.7956835,0.0576923077 L15.7467626,0.0576923077 L15.7467626,2.89615385 L16.3553957,2.89615385 L16.3553957,1.77692308 L16.7827338,1.77692308 C17.2748201,1.77692308 17.5208633,1.71923077 17.7151079,1.56923077 C17.8964029,1.41923077 18,1.18846154 18,0.888461538 C18,0.553846154 17.8705036,0.311538462 17.6374101,0.184615385" id="Shape"></path>
                        </g>
                    </g>
                </g>
            </g>
        </g>
    </g>
</svg>