<?xml version="1.0" encoding="UTF-8"?>
<svg width="120px" height="65px" viewBox="0 0 120 65" version="1.1" xmlns="http://www.w3.org/2000/svg" xmlns:xlink="http://www.w3.org/1999/xlink">
    <!-- Generator: sketchtool 50.2 (55047) - http://www.bohemiancoding.com/sketch -->
    <title>428DC4AD-CDFC-4BAE-B78C-A60DBF20FB60</title>
    <desc>Created with sketchtool.</desc>
    <defs></defs>
    <g id="Mockups" stroke="none" stroke-width="1" fill="none" fill-rule="evenodd">
        <g id="customers" transform="translate(-114.000000, -875.000000)" fill-rule="nonzero">
            <g id="Group-3-Copy" transform="translate(85.000000, 842.000000)">
                <g id="friesland-logo" transform="translate(29.000000, 33.000000)">
                    <g id="XMLID_49_" transform="translate(46.669090, 53.336102)" fill="#0094D9">
                        <g id="XMLID_50_">
                            <path d="M1.16672724,3.00015576 C1.33340256,3.00015576 1.50007788,3.16683108 1.41674022,3.41684406 C1.33340256,3.66685704 1.33340256,4.83358428 1.58341554,5.50028556 C2.00010384,4.5835713 2.41679214,3.7501947 2.66680512,3.41684406 C2.9168181,3.08349342 3.16683108,2.75014278 3.50018172,2.83348044 C3.83353236,2.9168181 4.00020768,3.16683108 4.08354534,3.58351938 C4.166883,3.91687002 4.25022066,5.75029854 4.25022066,6.16698684 C4.25022066,6.41699982 4.33355832,6.58367514 4.50023364,6.75035046 C4.5835713,6.83368812 4.5835713,7.00036344 4.41689598,7.0837011 C4.25022066,7.16703876 4.00020768,7.0837011 3.83353236,6.91702578 C3.7501947,6.75035046 3.66685704,6.50033748 3.66685704,6.2503245 C3.66685704,5.75029854 3.58351938,4.66690896 3.41684406,4.08354534 C3.3335064,3.91687002 3.3335064,3.83353236 3.25016874,3.83353236 C3.16683108,3.83353236 3.08349342,3.91687002 3.00015576,4.08354534 C2.66680512,4.50023364 2.25011682,5.50028556 2.0834415,5.8336362 C2.00010384,6.08364918 1.83342852,6.41699982 1.58341554,6.41699982 C1.2500649,6.41699982 1.08338958,6.16698684 1.00005192,5.8336362 C0.8333766,5.0002596 0.58336362,4.166883 0.75003894,3.3335064 C0.8333766,3.08349342 1.00005192,3.00015576 1.16672724,3.00015576" id="XMLID_73_"></path>
                            <path d="M5.0002596,4.33355832 C4.66690896,5.33361024 4.75024662,6.41699982 5.66696088,6.6670128 C6.6670128,7.00036344 7.5003894,6.33366216 7.83374004,5.4169479 C8.25042834,4.25022066 7.75040238,3.3335064 7.00036344,3.16683108 C6.75035046,3.08349342 6.6670128,3.25016874 6.6670128,3.3335064 C6.6670128,3.41684406 6.75035046,3.50018172 6.91702578,3.58351938 C7.25037642,3.66685704 7.58372706,4.166883 7.25037642,5.08359726 C6.91702578,6.00031152 6.2503245,6.2503245 5.8336362,6.08364918 C5.4169479,5.91697386 5.33361024,5.25027258 5.50028556,4.50023364 C5.75029854,3.58351938 6.16698684,3.25016874 6.50033748,3.16683108 C6.75035046,3.08349342 6.83368812,2.66680512 6.58367514,2.66680512 C6.41699982,2.66680512 6.16698684,2.66680512 6.00031152,2.83348044 C5.66696088,3.08349342 5.25027258,3.50018172 5.0002596,4.33355832" id="XMLID_72_"></path>
                            <path d="M8.58377898,2.83348044 C8.16709068,2.83348044 8.25042834,3.16683108 8.333766,3.41684406 C8.58377898,4.41689598 9.00046728,6.00031152 9.83384388,6.16698684 C10.4172075,6.2503245 10.8338958,5.16693492 11.1672464,4.41689598 C11.1672464,5.08359726 11.2505841,5.8336362 11.3339218,6.2503245 C11.3339218,6.41699982 11.4172594,6.58367514 11.5005971,6.58367514 C11.6672724,6.6670128 11.9172854,6.6670128 11.8339477,6.2503245 C11.7506101,5.8336362 11.6672724,5.08359726 11.6672724,4.5835713 L11.6672724,3.3335064 C11.6672724,3.00015576 11.6672724,2.83348044 11.4172594,2.75014278 C11.1672464,2.75014278 11.0005711,3.00015576 11.0005711,3.25016874 C10.7505581,4.00020768 10.2505322,4.83358428 10.0005192,5.08359726 C9.75050622,5.50028556 9.66716856,5.4169479 9.50049324,5.0002596 C9.41715558,4.75024662 9.00046728,3.7501947 8.91712962,3.08349342 C9.00046728,2.83348044 8.7504543,2.75014278 8.58377898,2.83348044" id="XMLID_71_"></path>
                            <path d="M12.9173373,2.66680512 C12.6673243,2.66680512 12.6673243,2.83348044 12.6673243,3.08349342 C12.6673243,3.3335064 12.9173373,4.91692194 12.9173373,5.4169479 C13.000675,6.00031152 13.000675,6.16698684 13.0840126,6.2503245 C13.1673503,6.33366216 13.2506879,6.41699982 13.4173633,6.41699982 C13.5840386,6.41699982 13.6673762,6.41699982 13.7507139,6.08364918 C13.7507139,5.66696088 13.9173892,5.0002596 14.1674022,4.33355832 C14.4174152,3.66685704 14.6674282,3.3335064 14.8341035,3.3335064 C15.0841165,3.3335064 15.0007788,3.50018172 15.0007788,3.66685704 C15.0007788,3.7501947 15.0007788,3.83353236 15.1674541,3.83353236 C15.3341294,3.83353236 15.5008048,3.7501947 15.5841424,3.41684406 C15.7508177,3.00015576 15.6674801,2.58346746 15.3341294,2.5001298 C14.9174411,2.41679214 14.5007528,2.66680512 14.2507399,3.00015576 C14.0007269,3.41684406 13.6673762,4.166883 13.5840386,4.91692194 C13.5007009,4.166883 13.5007009,3.25016874 13.3340256,2.83348044 C13.2506879,2.75014278 13.1673503,2.66680512 12.9173373,2.66680512" id="XMLID_70_"></path>
                            <path d="M16.8342073,2.9168181 C16.5008567,2.9168181 16.417519,3.08349342 16.417519,3.41684406 C16.417519,3.91687002 16.5008567,5.16693492 16.7508697,5.91697386 C16.917545,6.33366216 17.167558,6.41699982 17.4175709,6.33366216 C17.6675839,6.2503245 17.5842463,6.16698684 17.5009086,6.00031152 C17.3342333,5.8336362 17.3342333,5.50028556 17.2508956,4.83358428 C17.167558,4.08354534 17.2508956,3.58351938 17.2508956,3.3335064 C17.167558,3.08349342 17.0842203,2.9168181 16.8342073,2.9168181" id="XMLID_69_"></path>
                            <path d="M16.5008567,1.41674022 C16.417519,1.6667532 16.667532,1.75009086 16.917545,1.6667532 C17.0842203,1.6667532 17.2508956,1.58341554 17.3342333,1.50007788 C17.3342333,1.41674022 17.167558,1.2500649 16.917545,1.16672724 C16.667532,1.2500649 16.5008567,1.33340256 16.5008567,1.41674022" id="XMLID_68_"></path>
                            <path d="M18.9176488,1.91676618 C18.1676099,1.91676618 17.8342592,2.33345448 17.8342592,2.66680512 C17.8342592,3.08349342 18.1676099,3.50018172 18.8343112,4.08354534 C19.5010124,4.66690896 20.0010384,5.08359726 19.9177007,5.58362322 C19.8343631,6.08364918 19.2509995,6.75035046 18.7509735,6.75035046 C18.4176229,6.75035046 18.2509475,6.50033748 18.1676099,6.33366216 C18.0842722,6.16698684 17.8342592,6.2503245 17.9175969,6.41699982 C17.9175969,6.6670128 18.0842722,6.91702578 18.1676099,7.00036344 C18.3342852,7.16703876 18.7509735,7.25037642 19.2509995,7.0837011 C19.7510254,6.91702578 20.584402,6.2503245 20.584402,5.4169479 C20.584402,4.91692194 20.2510514,4.50023364 19.5843501,3.91687002 C19.2509995,3.58351938 18.7509735,3.16683108 18.5842982,2.9168181 C18.4176229,2.66680512 18.5009605,2.41679214 18.6676358,2.33345448 C19.0009865,2.25011682 19.3343371,2.33345448 19.4176748,2.66680512 C19.5010124,2.9168181 19.5843501,2.9168181 19.8343631,2.9168181 C20.0010384,2.83348044 20.1677137,2.58346746 20.0010384,2.25011682 C19.9177007,2.0834415 19.5843501,1.91676618 18.9176488,1.91676618" id="XMLID_67_"></path>
                            <path d="M21.5844539,0.66670128 C21.8344669,0.66670128 22.0011422,0.91671426 22.0011422,1.2500649 C21.8344669,2.25011682 21.6677916,3.66685704 21.8344669,5.16693492 C22.5011682,3.66685704 22.9178565,3.08349342 23.4178824,3.16683108 C24.0012461,3.25016874 24.501272,4.50023364 24.1679214,7.00036344 C24.1679214,7.25037642 24.0012461,7.33371408 23.8345707,7.33371408 C23.6678954,7.33371408 23.5845578,7.25037642 23.5845578,7.00036344 C23.5845578,5.75029854 23.6678954,5.0002596 23.4178824,4.25022066 C23.3345448,3.83353236 23.0845318,3.91687002 22.9178565,4.166883 C22.6678435,4.50023364 22.3344929,5.08359726 22.0011422,5.91697386 C21.9178046,6.16698684 21.7511292,6.16698684 21.5844539,6.16698684 C21.4177786,6.16698684 21.3344409,6.08364918 21.2511033,5.75029854 C21.1677656,5.25027258 21.084428,2.83348044 21.2511033,1.2500649 C21.3344409,0.8333766 21.4177786,0.66670128 21.5844539,0.66670128" id="XMLID_66_"></path>
                            <path d="M25.3346486,3.08349342 C25.0846356,3.08349342 25.001298,3.16683108 24.9179603,3.58351938 C24.8346227,4.5835713 25.001298,6.08364918 25.1679733,6.58367514 C25.3346486,7.00036344 25.5846616,7.0837011 25.7513369,7.00036344 C25.9180122,7.00036344 25.9180122,6.83368812 25.8346746,6.75035046 C25.5846616,6.2503245 25.5846616,5.0002596 25.6679993,3.66685704 C25.7513369,3.25016874 25.5013239,3.08349342 25.3346486,3.08349342" id="XMLID_65_"></path>
                            <path d="M25.8346746,1.50007788 C25.5013239,1.41674022 25.4179863,1.50007788 25.3346486,1.6667532 C25.3346486,1.83342852 25.4179863,2.00010384 25.6679993,2.00010384 C25.8346746,2.0834415 26.0846876,2.00010384 26.1680252,1.91676618 C26.1680252,1.75009086 26.0846876,1.58341554 25.8346746,1.50007788" id="XMLID_64_"></path>
                            <path d="M27.0014018,3.3335064 C26.7513888,3.25016874 26.5847135,3.3335064 26.5847135,3.58351938 C26.5013759,4.25022066 26.5847135,5.25027258 26.6680512,5.8336362 C26.6680512,6.08364918 26.8347265,6.16698684 27.0014018,6.33366216 C27.2514148,6.50033748 27.5014278,6.50033748 27.6681031,6.33366216 C27.8347784,6.08364918 28.418142,4.91692194 29.0015057,4.166883 C29.168181,3.91687002 29.3348563,4.00020768 29.3348563,4.166883 C29.418194,5.0002596 29.3348563,5.8336362 29.2515186,6.75035046 C29.2515186,7.16703876 29.418194,7.33371408 29.5015316,7.41705174 C29.5848693,7.5003894 29.7515446,7.5003894 29.8348823,7.41705174 C29.9182199,7.33371408 30.0015576,7.25037642 29.9182199,7.16703876 C29.8348823,7.00036344 29.8348823,6.58367514 29.8348823,6.16698684 C29.8348823,5.75029854 30.0015576,4.75024662 30.0015576,4.166883 C30.0015576,3.58351938 30.0015576,3.25016874 29.5848693,3.16683108 C29.2515186,3.16683108 29.0015057,3.3335064 28.668155,3.7501947 C28.3348044,4.166883 27.6681031,5.33361024 27.4180901,5.58362322 C27.3347525,5.66696088 27.3347525,5.66696088 27.2514148,5.58362322 C27.1680771,5.25027258 27.1680771,4.166883 27.2514148,3.83353236 C27.3347525,3.41684406 27.2514148,3.41684406 27.0014018,3.3335064" id="XMLID_63_"></path>
                            <path d="M33.335064,3.16683108 C33.335064,3.41684406 33.1683887,3.3335064 32.9183757,3.41684406 C32.0849991,3.66685704 31.0016095,4.50023364 31.4182978,5.50028556 C31.8349861,6.33366216 32.3350121,6.00031152 32.835038,5.4169479 C33.085051,5.08359726 33.2517263,5.0002596 33.2517263,4.91692194 C33.335064,4.83358428 33.335064,4.75024662 33.335064,4.5835713 C33.335064,4.41689598 33.335064,4.25022066 33.585077,4.25022066 C33.8350899,4.25022066 34.0017653,4.33355832 34.0017653,4.5835713 C34.0017653,4.83358428 34.0851029,5.50028556 34.1684406,6.50033748 C34.2517782,7.5003894 34.7518042,10.0005192 33.6684146,10.6672205 C33.2517263,10.9172335 32.7517004,10.8338958 32.6683627,10.6672205 C32.585025,10.5005452 32.585025,10.4172075 32.7517004,10.4172075 C33.085051,10.5005452 33.335064,10.4172075 33.585077,9.91718154 C33.7517523,9.41715558 33.8350899,8.83379196 33.7517523,8.08375302 C33.6684146,7.33371408 33.5017393,6.00031152 33.5017393,5.4169479 C33.085051,6.08364918 32.6683627,6.41699982 32.0016614,6.41699982 C31.1682848,6.41699982 30.6682589,5.75029854 30.6682589,5.08359726 C30.6682589,4.41689598 31.5849731,3.25016874 32.5016874,3.08349342 C33.085051,2.9168181 33.335064,3.08349342 33.335064,3.16683108" id="XMLID_62_"></path>
                            <path d="M37.001921,0.75003894 C37.001921,0.50002596 37.0852587,0.25001298 37.3352717,0.25001298 C37.5852846,0.25001298 37.75196,0.4166883 37.75196,0.66670128 C37.9186353,2.33345448 38.0019729,3.3335064 38.2519859,4.5835713 C38.6686742,3.83353236 39.4187132,3.08349342 40.3354274,2.9168181 C40.5021027,2.9168181 41.0021287,3.00015576 41.0854664,3.08349342 C41.418817,3.41684406 41.5021547,4.41689598 41.168804,5.16693492 C40.918791,5.75029854 40.5021027,6.33366216 39.8354015,6.50033748 C39.5020508,6.58367514 39.4187132,6.41699982 39.3353755,6.2503245 C39.2520378,6.08364918 39.3353755,6.00031152 39.4187132,6.08364918 C39.5853885,6.16698684 39.8354015,6.16698684 40.0854144,6.00031152 C40.5854404,5.58362322 40.918791,4.5835713 40.6687781,3.66685704 C40.5854404,3.41684406 40.4187651,3.41684406 40.1687521,3.50018172 C39.9187391,3.58351938 38.9186872,4.166883 38.5019989,5.66696088 C38.4186612,5.91697386 38.3353236,6.00031152 38.0853106,6.00031152 C37.8352976,6.00031152 37.75196,5.8336362 37.8352976,5.58362322 C37.9186353,5.33361024 37.8352976,4.83358428 37.75196,4.41689598 C37.501947,4.00020768 37.1685963,1.91676618 37.001921,0.75003894" id="XMLID_61_"></path>
                            <path d="M42.1688559,3.66685704 C41.918843,3.58351938 41.8355053,3.91687002 41.918843,4.33355832 C41.918843,4.75024662 42.1688559,5.75029854 42.3355313,6.00031152 C42.5022066,6.2503245 42.5855442,6.33366216 42.8355572,6.41699982 C43.0022325,6.50033748 43.3355832,6.58367514 43.5855962,6.2503245 C43.8356091,5.91697386 44.3356351,5.16693492 44.6689857,4.41689598 C44.4189728,5.75029854 44.1689598,6.58367514 44.0022845,7.33371408 C43.8356091,8.08375302 43.7522715,8.83379196 43.9189468,10.0005192 C43.9189468,10.2505322 44.0022845,10.3338698 43.9189468,10.5005452 C43.9189468,10.6672205 44.0022845,10.7505581 44.1689598,10.7505581 C44.3356351,10.7505581 44.4189728,10.7505581 44.4189728,10.5005452 C44.4189728,10.3338698 44.3356351,10.0838569 44.3356351,9.66716856 C44.2522974,9.1671426 44.1689598,8.58377898 44.4189728,7.41705174 C44.6689857,6.16698684 45.1690117,4.83358428 45.2523494,4.00020768 C45.335687,3.16683108 45.085674,3.08349342 44.9189987,3.08349342 C44.7523234,3.08349342 44.5856481,3.16683108 44.4189728,3.66685704 C44.1689598,4.41689598 43.6689338,5.16693492 43.3355832,5.66696088 C43.0022325,6.16698684 42.7522196,6.08364918 42.6688819,5.58362322 C42.5855442,5.08359726 42.5022066,4.50023364 42.4188689,4.166883 C42.4188689,3.83353236 42.2521936,3.66685704 42.1688559,3.66685704" id="XMLID_60_"></path>
                            <path d="M48.2525051,3.00015576 C48.5025181,3.08349342 48.5858558,3.3335064 48.5025181,3.7501947 C48.5025181,4.33355832 48.5025181,5.08359726 48.5858558,5.58362322 C49.0858817,4.5835713 49.752583,3.41684406 50.0859336,3.08349342 C50.1692713,2.9168181 50.3359466,2.9168181 50.6692973,3.00015576 C51.1693232,3.16683108 51.2526609,3.25016874 51.2526609,3.50018172 C51.2526609,3.83353236 51.3359985,4.83358428 51.3359985,5.58362322 C51.4193362,6.33366216 51.4193362,6.6670128 51.5026739,7.0837011 C51.5860115,7.41705174 51.5026739,7.58372706 51.1693232,7.5003894 C50.8359726,7.41705174 50.7526349,7.41705174 50.7526349,7.00036344 C50.7526349,6.58367514 50.6692973,4.50023364 50.5026219,3.7501947 C50.4192843,3.50018172 50.4192843,3.50018172 50.252609,3.7501947 C50.0859336,4.00020768 49.3358947,4.83358428 48.8358687,6.58367514 C48.7525311,6.75035046 48.5858558,6.83368812 48.3358428,6.75035046 C48.0858298,6.6670128 48.0858298,6.58367514 48.0024921,6.2503245 C47.9191545,6.00031152 47.8358168,4.50023364 47.8358168,3.58351938 C48.0024921,3.16683108 48.0858298,3.00015576 48.2525051,3.00015576" id="XMLID_59_"></path>
                            <path d="M54.3361543,3.41684406 C53.0860894,3.91687002 52.2527128,5.0002596 52.5027258,5.4169479 C52.6694011,5.75029854 54.0028037,5.16693492 54.5028296,4.75024662 C54.5028296,4.33355832 54.5028296,3.91687002 54.8361803,4.00020768 C55.1695309,4.08354534 55.1695309,4.166883 55.2528686,4.25022066 C55.2528686,4.75024662 55.2528686,6.33366216 55.5028815,7.00036344 C55.5028815,7.33371408 55.1695309,7.41705174 55.0028556,7.0837011 C54.7528426,6.6670128 54.6695049,5.8336362 54.6695049,5.4169479 C53.8361283,6.00031152 52.7527388,6.41699982 52.2527128,5.8336362 C51.7526868,5.25027258 52.0026998,4.50023364 52.7527388,3.7501947 C53.5027777,3.00015576 54.0028037,3.00015576 54.2528166,3.00015576 C54.419492,3.00015576 54.5861673,3.16683108 54.3361543,3.41684406" id="XMLID_58_"></path>
                            <path d="M56.4195958,0.50002596 C56.1695828,0.4166883 56.0029075,0.58336362 56.0029075,1.08338958 C56.0029075,1.58341554 56.3362581,5.58362322 56.5029335,6.41699982 C56.5862711,6.83368812 56.6696088,7.16703876 56.9196218,7.16703876 C57.2529724,7.16703876 57.586323,6.6670128 57.586323,6.00031152 C57.586323,5.50028556 57.2529724,5.75029854 57.0862971,5.91697386 C56.9196218,4.50023364 56.7529464,2.41679214 56.7529464,1.58341554 C56.7529464,0.75003894 56.6696088,0.58336362 56.4195958,0.50002596" id="XMLID_57_"></path>
                            <path d="M55.5862192,2.33345448 C55.2528686,2.33345448 55.1695309,2.5001298 55.2528686,2.66680512 C55.3362062,2.83348044 55.5862192,2.9168181 55.9195698,2.9168181 C56.2529205,2.9168181 56.8362841,2.83348044 57.4196477,2.66680512 C57.9196737,2.5001298 58.6697126,2.41679214 58.9197256,2.41679214 C59.2530762,2.33345448 59.4197516,2.25011682 59.3364139,2.16677916 L59.0864009,1.91676618 C58.2530243,2.00010384 57.3363101,2.0834415 56.5862711,2.16677916 C56.2529205,2.25011682 55.8362322,2.33345448 55.5862192,2.33345448" id="XMLID_56_"></path>
                            <path d="M58.4196996,3.25016874 C58.0030113,3.25016874 58.0030113,3.50018172 58.0030113,3.7501947 C58.0030113,4.08354534 58.2530243,5.4169479 58.6697126,6.08364918 C59.0864009,6.75035046 59.7531022,6.75035046 60.1697905,6.16698684 C60.4198035,5.91697386 60.5864788,5.58362322 60.7531541,5.25027258 C60.8364918,5.91697386 60.9198294,6.41699982 61.0865048,6.6670128 C61.2531801,6.91702578 61.5865307,6.91702578 61.6698684,6.50033748 C61.6698684,6.33366216 61.5865307,6.16698684 61.5031931,6.16698684 C61.3365177,5.25027258 61.2531801,4.75024662 61.4198554,3.66685704 C61.5031931,3.08349342 61.4198554,3.00015576 61.1698424,2.9168181 C60.9198294,2.83348044 60.8364918,3.16683108 60.7531541,3.83353236 C60.4198035,4.91692194 60.0864528,5.50028556 59.6697645,5.91697386 C59.4197516,6.08364918 59.2530762,6.16698684 59.0864009,5.75029854 C58.9197256,5.4169479 58.7530503,4.66690896 58.6697126,4.00020768 C58.6697126,3.41684406 58.7530503,3.25016874 58.4196996,3.25016874" id="XMLID_55_"></path>
                            <path d="M63.0032709,6.6670128 C62.5865826,5.4169479 62.503245,4.00020768 62.4199073,3.08349342 C62.4199073,2.9168181 62.503245,2.83348044 62.6699203,2.83348044 C62.8365956,2.83348044 62.9199333,2.83348044 63.0032709,3.08349342 C63.0866086,3.3335064 63.1699462,3.83353236 63.1699462,4.25022066 C63.4199592,3.58351938 63.7533099,2.9168181 64.5866865,2.83348044 C65.0033748,2.83348044 65.2533877,2.9168181 65.2533877,3.50018172 C65.2533877,4.00020768 65.0867124,4.50023364 64.6700241,4.41689598 C64.5033488,4.41689598 64.5866865,4.25022066 64.5866865,4.166883 C64.5866865,4.08354534 64.7533618,3.41684406 64.5033488,3.41684406 C64.1699982,3.3335064 63.7533099,4.00020768 63.5866345,5.0002596 C63.5032969,5.4169479 63.5032969,5.66696088 63.6699722,6.50033748 C63.7533099,6.91702578 63.6699722,7.00036344 63.5032969,7.00036344 C63.2532839,6.91702578 63.0866086,6.83368812 63.0032709,6.6670128" id="XMLID_54_"></path>
                            <path d="M68.5868941,4.33355832 C68.7535695,3.91687002 68.5868941,3.58351938 68.3368812,3.41684406 C67.7535175,2.9168181 66.8368033,3.25016874 66.170102,3.91687002 C65.8367514,4.25022066 65.670076,4.5835713 65.5034007,5.0002596 C65.4200631,5.0002596 65.3367254,5.0002596 65.2533877,4.91692194 C65.0033748,5.0002596 65.0867124,5.16693492 65.1700501,5.33361024 C65.1700501,5.4169479 65.3367254,5.4169479 65.4200631,5.50028556 C65.4200631,5.75029854 65.5034007,6.00031152 65.670076,6.16698684 C66.0867643,6.91702578 67.1701539,7.0837011 68.0868682,6.75035046 C68.2535435,6.6670128 68.4202188,6.41699982 68.3368812,6.2503245 C68.2535435,6.08364918 68.0868682,6.16698684 67.9201929,6.2503245 C67.0868163,6.58367514 66.3367773,6.2503245 66.0867643,5.66696088 L66.0867643,5.50028556 L66.420115,5.50028556 C67.3368292,5.4169479 68.3368812,4.91692194 68.5868941,4.33355832 Z M66.670128,4.25022066 C66.9201409,3.91687002 67.6701799,3.50018172 67.9201929,3.7501947 C68.0868682,3.91687002 67.9201929,4.41689598 67.3368292,4.66690896 C67.0034786,4.83358428 66.5867903,5.0002596 66.170102,5.0002596 C66.2534397,4.75024662 66.420115,4.50023364 66.670128,4.25022066 Z" id="XMLID_51_"></path>
                        </g>
                    </g>
                    <path d="M59.2530762,45.5857 L59.2530762,48.5025181 L57.5029854,48.5025181 L57.5029854,45.2523494 C57.5029854,44.9189987 57.5029854,44.6689857 57.4196477,44.4189728 C57.3363101,43.9189468 57.0862971,43.6689338 56.4195958,43.6689338 C56.1695828,43.6689338 55.9195698,43.7522715 55.5862192,43.8356091 L55.5862192,48.5025181 L53.8361283,48.5025181 L53.8361283,42.8355572 C54.6695049,42.5855442 55.5028815,42.3355313 56.5862711,42.3355313 C58.0030113,42.3355313 58.8363879,43.1689079 59.0864009,44.3356351 C59.1697386,44.6689857 59.2530762,45.085674 59.2530762,45.5857" id="XMLID_48_" fill="#0094D9"></path>
                    <path d="M101.421932,45.5857 L101.421932,48.5025181 L99.6718413,48.5025181 L99.6718413,45.2523494 C99.6718413,44.9189987 99.6718413,44.6689857 99.5885037,44.4189728 C99.505166,43.9189468 99.255153,43.6689338 98.5884517,43.6689338 C98.3384388,43.6689338 98.0884258,43.7522715 97.7550751,43.8356091 L97.7550751,48.5025181 L96.0049843,48.5025181 L96.0049843,42.8355572 C96.8383609,42.5855442 97.6717375,42.3355313 98.7551271,42.3355313 C100.171867,42.3355313 101.005244,43.1689079 101.255257,44.3356351 C101.421932,44.6689857 101.421932,45.085674 101.421932,45.5857" id="XMLID_47_" fill="#0094D9"></path>
                    <path d="M52.9194141,48.5025181 L51.6693492,48.5025181 C51.6693492,48.5025181 51.5860115,48.3358428 51.5026739,48.0858298 C51.3359985,48.1691675 51.0026479,48.5858558 50.1692713,48.5858558 C49.0858817,48.5858558 48.0858298,47.5858038 47.8358168,46.2524013 C47.3357909,43.6689338 49.1692194,42.4188689 50.9193102,42.4188689 C51.6693492,42.4188689 52.5027258,42.5855442 52.9194141,42.7522196 L52.9194141,48.5025181 Z M50.7526349,43.6689338 C50.002596,43.6689338 49.252557,44.5856481 49.50257,46.085726 C49.6692453,47.0024402 50.1692713,47.2524532 50.5026219,47.2524532 C50.7526349,47.2524532 51.0026479,47.1691155 51.1693232,47.0024402 L51.1693232,43.6689338 L50.7526349,43.6689338 Z" id="XMLID_44_" fill="#0094D9"></path>
                    <path d="M76.9206601,48.5025181 L75.5872576,48.5025181 C75.5872576,48.5025181 75.5039199,48.3358428 75.4205823,48.0858298 C75.2539069,48.1691675 74.9205563,48.5858558 74.0871797,48.5858558 C73.0037901,48.5858558 72.0037382,47.5858038 71.7537252,46.2524013 C71.2536993,43.6689338 73.0871278,42.4188689 74.9205563,42.4188689 C75.6705952,42.4188689 76.5039718,42.5855442 76.9206601,42.7522196 L76.9206601,48.5025181 Z M74.753881,43.6689338 C74.003842,43.6689338 73.2538031,44.5856481 73.5038161,46.085726 C73.6704914,47.0024402 74.1705174,47.2524532 74.503868,47.2524532 C74.753881,47.2524532 75.003894,47.1691155 75.1705693,47.0024402 L75.1705693,43.6689338 L74.753881,43.6689338 Z" id="XMLID_41_" fill="#0094D9"></path>
                    <path d="M107.422244,48.5025181 L106.088841,48.5025181 C106.088841,48.5025181 106.005503,48.3358428 105.922166,48.0858298 C105.75549,48.1691675 105.42214,48.5858558 104.588763,48.5858558 C103.505374,48.5858558 102.505322,47.5858038 102.255309,46.2524013 C101.755283,43.6689338 103.588711,42.4188689 105.338802,42.4188689 C106.005503,42.4188689 106.922218,42.5855442 107.338906,42.7522196 L107.422244,48.5025181 Z M105.255465,43.6689338 C104.505426,43.6689338 103.755387,44.5856481 104.0054,46.085726 C104.172075,47.0024402 104.672101,47.2524532 105.005452,47.2524532 C105.255465,47.2524532 105.505478,47.1691155 105.672153,47.0024402 L105.672153,43.6689338 L105.255465,43.6689338 Z" id="XMLID_38_" fill="#0094D9"></path>
                    <path d="M86.754504,45.5857 L86.754504,48.5025181 L85.0044132,48.5025181 L85.0044132,45.2523494 C85.0044132,44.9189987 85.0044132,44.6689857 84.9210755,44.4189728 C84.8377378,44.0022845 84.5877249,43.6689338 83.9210236,43.6689338 C83.6710106,43.6689338 83.1709846,43.7522715 82.9209717,43.9189468 C82.9209717,43.9189468 83.087647,44.5023104 83.087647,45.2523494 L83.087647,48.5858558 L81.3375561,48.5858558 L81.3375561,45.335687 C81.3375561,45.0023364 81.3375561,44.6689857 81.2542185,44.5023104 C81.1708808,44.0856221 80.9208678,43.7522715 80.2541665,43.7522715 C80.0041536,43.7522715 79.7541406,43.8356091 79.4207899,43.9189468 L79.4207899,48.5858558 L77.6706991,48.5858558 L77.6706991,42.9188949 C78.3374004,42.6688819 79.4207899,42.4188689 80.4208419,42.4188689 C81.0875431,42.4188689 81.5875691,42.5855442 82.0042574,42.9188949 C82.5042834,42.6688819 83.1709846,42.4188689 84.0043612,42.4188689 C85.4211015,42.4188689 86.2544781,43.2522455 86.504491,44.4189728 C86.754504,44.6689857 86.754504,45.085674 86.754504,45.5857" id="XMLID_37_" fill="#0094D9"></path>
                    <path d="M89.5879845,42.4188689 C88.8379455,42.4188689 88.0045689,42.5855442 87.5878806,42.6688819 L87.5878806,51.3359985 L89.3379715,51.3359985 L89.3379715,48.4191804 C89.5046468,48.5025181 90.0046728,48.5858558 90.3380234,48.5858558 C91.671426,48.5858558 92.5048026,47.6691415 92.7548155,46.4190766 C93.2548415,43.5855962 91.3380753,42.4188689 89.5879845,42.4188689 M91.0047247,46.085726 C90.7547117,47.7524792 89.4213091,47.4191285 89.2546338,47.2524532 L89.2546338,43.6689338 L89.6713221,43.6689338 C90.5046987,43.6689338 91.2547377,44.5856481 91.0047247,46.085726" id="XMLID_34_" fill="#0094D9"></path>
                    <path d="M44.4189728,46.5857519 C44.2522974,45.835713 43.6689338,45.335687 43.0855702,45.0023364 C42.4188689,44.6689857 42.0021806,44.4189728 41.918843,44.1689598 C41.8355053,43.9189468 42.0021806,43.5022585 42.5022066,43.5022585 C43.0022325,43.5022585 43.2522455,43.5855962 43.9189468,43.9189468 L43.9189468,42.6688819 C43.2522455,42.4188689 42.8355572,42.3355313 42.3355313,42.3355313 C41.168804,42.3355313 40.2520898,43.0022325 40.5021027,44.2522974 C40.6687781,44.9189987 41.0854664,45.335687 41.5854923,45.6690377 C42.1688559,46.0023883 42.8355572,46.3357389 42.9188949,46.7524272 C43.0022325,47.0857779 42.7522196,47.5024662 42.0021806,47.5024662 C41.5021547,47.5024662 41.0021287,47.2524532 40.5854404,47.0024402 L40.5854404,48.3358428 C41.0021287,48.5025181 41.5021547,48.5858558 42.1688559,48.5858558 C43.5855962,48.6691934 44.6689857,48.0858298 44.4189728,46.5857519" id="XMLID_33_" fill="#0094D9"></path>
                    <path d="M31.9183238,42.5022066 C30.5015835,42.5022066 29.6682069,42.7522196 29.0015057,43.0022325 L29.0015057,48.5858558 L30.7515965,48.5858558 L30.7515965,43.9189468 C31.0016095,43.8356091 31.5016355,43.7522715 31.7516484,43.7522715 L32.0016614,43.7522715 L32.0016614,42.5022066 L31.9183238,42.5022066" id="XMLID_32_" fill="#0094D9"></path>
                    <path d="M34.4184536,48.5025181 L32.7517004,48.5025181 L32.7517004,42.4188689 C32.7517004,42.4188689 33.0017133,42.3355313 33.585077,42.3355313 C34.2517782,42.3355313 34.4184536,42.4188689 34.4184536,42.4188689 L34.4184536,48.5025181 Z" id="XMLID_31_" fill="#0094D9"></path>
                    <path d="M47.4191285,47.1691155 L47.2524532,47.1691155 C46.9191026,47.1691155 46.7524272,47.0024402 46.7524272,46.4190766 L46.7524272,40.5021027 C46.7524272,40.5021027 46.5857519,40.4187651 45.9190506,40.4187651 C45.2523494,40.4187651 45.085674,40.5021027 45.085674,40.5021027 L45.085674,46.5024143 C45.085674,48.3358428 46.1690636,48.6691934 46.9191026,48.6691934 C47.3357909,48.6691934 47.6691415,48.5858558 47.9191545,48.5025181 L47.4191285,47.1691155 Z" id="XMLID_30_" fill="#0094D9"></path>
                    <path d="M95.1716077,48.5025181 L93.5048545,48.5025181 L93.5048545,42.5855442 C93.5048545,42.5855442 93.7548675,42.5022066 94.3382311,42.5022066 C95.0049324,42.5022066 95.1716077,42.5855442 95.1716077,42.5855442 L95.1716077,48.5025181 Z" id="XMLID_29_" fill="#0094D9"></path>
                    <path d="M71.0870239,47.0857779 C70.7536733,47.1691155 70.336985,47.3357909 69.836959,47.3357909 C68.6702318,47.3357909 68.1702058,46.1690636 68.1702058,44.6689857 C68.1702058,43.2522455 68.5035565,42.0021806 69.7536214,42.0021806 C70.086972,42.0021806 70.586998,42.0855183 71.0036863,42.4188689 L71.8370629,41.2521417 C71.4203746,40.7521157 70.7536733,40.5021027 69.7536214,40.5021027 C67.8368552,40.5021027 66.3367773,41.7521676 66.3367773,44.6689857 C66.3367773,47.6691415 67.7535175,48.8358687 69.836959,48.8358687 C70.4203227,48.8358687 71.3370369,48.6691934 71.7537252,48.5025181 L71.0870239,47.0857779 Z" id="XMLID_28_" fill="#0094D9"></path>
                    <path d="M64.4200111,40.5021027 C63.7533099,40.5021027 63.5866345,40.5854404 63.5866345,40.5854404 L63.5866345,42.5022066 C63.4199592,42.5022066 63.2532839,42.4188689 63.0866086,42.4188689 C61.3365177,42.4188689 59.5030892,43.5022585 60.0864528,46.3357389 C60.3364658,47.7524792 61.3365177,48.6691934 62.5865826,48.6691934 C63.0032709,48.6691934 63.4199592,48.5025181 63.8366475,48.1691675 L64.0033228,48.5025181 L65.3367254,48.5025181 L65.3367254,40.5021027 C65.2533877,40.5854404 65.0867124,40.5021027 64.4200111,40.5021027 M62.7532579,47.3357909 C62.4199073,47.3357909 61.9198814,47.0024402 61.753206,46.085726 C61.5865307,45.1690117 61.8365437,44.1689598 62.4199073,43.7522715 C62.7532579,43.5022585 63.2532839,43.5855962 63.5032969,43.6689338 L63.5032969,47.0024402 C63.3366216,47.2524532 63.0866086,47.3357909 62.7532579,47.3357909" id="XMLID_25_" fill="#0094D9"></path>
                    <path d="M38.3353236,46.1690636 L39.8354015,46.1690636 C39.8354015,46.1690636 39.9187391,45.6690377 39.9187391,45.085674 C39.9187391,43.0022325 38.9186872,42.5022066 37.6686223,42.4188689 C36.1685444,42.4188689 35.0851548,43.3355832 35.0851548,45.5857 C35.1684925,47.8358168 36.1685444,48.7525311 37.75196,48.7525311 C38.1686483,48.7525311 38.9186872,48.6691934 39.6687261,48.3358428 L39.6687261,47.0857779 C39.0020249,47.4191285 38.6686742,47.5858038 37.9186353,47.5024662 C36.5852327,47.4191285 36.6685704,46.2524013 36.6685704,46.2524013 L38.3353236,46.2524013 L38.3353236,46.1690636 Z M37.75196,43.5855962 C38.2519859,43.5855962 38.5853366,44.0856221 38.5853366,44.8356611 L38.5853366,45.1690117 L36.6685704,45.1690117 C36.751908,45.1690117 36.5852327,43.5855962 37.75196,43.5855962 Z" id="XMLID_22_" fill="#0094D9"></path>
                    <path d="M25.7513369,41.918843 C26.0013499,41.66883 26.5847135,41.66883 27.1680771,41.66883 C28.5014797,41.66883 29.0015057,41.918843 29.0015057,41.918843 L29.418194,40.6687781 C29.418194,40.6687781 28.418142,40.1687521 26.4180382,40.3354274 C24.5846097,40.5021027 24.0012461,41.0021287 24.0012461,41.0021287 L24.0012461,48.5858558 L25.8346746,48.5858558 L25.8346746,45.1690117 L28.418142,45.1690117 L28.418142,43.7522715 L25.8346746,43.7522715 L25.8346746,41.918843 L25.7513369,41.918843 Z" id="XMLID_21_" fill="#0094D9"></path>
                    <path d="M115.589334,41.3354793 C115.589334,41.8355053 115.172646,42.2521936 114.67262,42.2521936 C114.172594,42.2521936 113.755906,41.8355053 113.755906,41.3354793 C113.755906,40.8354534 114.172594,40.4187651 114.67262,40.4187651 C115.172646,40.4187651 115.589334,40.8354534 115.589334,41.3354793" id="XMLID_20_" fill="#0094D9"></path>
                    <path d="M119.756217,43.8356091 C119.756217,43.2522455 119.506204,42.9188949 119.256191,42.6688819 C118.922841,42.4188689 118.506152,42.4188689 118.172802,42.4188689 L117.756114,42.4188689 C117.006075,42.5022066 116.422711,42.6688819 116.08936,42.7522196 L116.08936,46.8357649 L117.422763,46.8357649 L117.422763,43.8356091 C117.672776,43.7522715 117.922789,43.7522715 118.006127,43.7522715 C118.172802,43.7522715 118.256139,43.7522715 118.339477,43.8356091 C118.422815,43.8356091 118.422815,43.9189468 118.422815,44.0856221 C118.422815,44.1689598 118.422815,44.4189728 118.339477,44.5856481 C118.256139,44.9189987 118.089464,45.2523494 118.006127,45.5857 L118.006127,46.9191026 L118.922841,46.9191026 C118.922841,46.9191026 119.589542,45.1690117 119.67288,44.6689857 C119.756217,44.2522974 119.756217,44.0022845 119.756217,43.8356091" id="XMLID_19_" fill="#0094D9"></path>
                    <polygon id="XMLID_18_" fill="#0094D9" points="110.672412 48.5025181 118.672828 48.5025181 118.672828 47.3357909 110.672412 47.3357909"></polygon>
                    <path d="M115.339321,42.7522196 C115.339321,42.7522196 115.172646,42.6688819 114.589282,42.6688819 C114.172594,42.6688819 113.839244,42.7522196 113.839244,42.7522196 L113.839244,46.7524272 L115.255984,46.7524272 L115.255984,42.7522196 L115.339321,42.7522196 Z" id="XMLID_17_" fill="#0094D9"></path>
                    <path d="M111.339114,45.5023623 C111.255776,45.1690117 111.089101,44.8356611 111.005763,44.5023104 C110.922425,44.2522974 110.922425,44.0856221 110.922425,44.0022845 C110.922425,43.8356091 110.922425,43.8356091 111.005763,43.7522715 C111.089101,43.7522715 111.172438,43.6689338 111.339114,43.6689338 C111.505789,43.6689338 111.672464,43.6689338 111.922477,43.7522715 L111.922477,46.7524272 L113.25588,46.7524272 L113.25588,42.6688819 C112.922529,42.5855442 112.339166,42.4188689 111.589127,42.3355313 L111.172438,42.3355313 C110.839088,42.3355313 110.422399,42.4188689 110.089049,42.5855442 C109.755698,42.8355572 109.589023,43.1689079 109.589023,43.7522715 C109.589023,44.0022845 109.589023,44.2522974 109.672361,44.5023104 C109.755698,45.0023364 110.422399,46.7524272 110.422399,46.7524272 L111.339114,46.7524272 L111.339114,45.5023623 Z" id="XMLID_16_" fill="#0094D9"></path>
                    <path d="M29.0848433,1.91676618 C27.5847654,6.08364918 26.7513888,8.7504543 26.3347005,10.6672205 C26.0846876,11.9172854 25.9180122,12.8339996 26.0013499,13.6673762 C26.0846876,16.0008307 27.4180901,16.5841943 28.668155,16.917545 C29.8348823,17.167558 31.1682848,17.167558 32.835038,17.0842203 C34.4184536,17.0008826 36.2518821,16.8342073 38.0853106,16.5841943 C40.6687781,16.2508437 45.7523753,15.4174671 48.2525051,15.0841165 C44.5856481,15.5841424 40.3354274,16.0841684 36.751908,16.167506 C35.1684925,16.167506 33.7517523,16.0841684 32.5016874,15.9174931 C31.2516225,15.6674801 30.1682329,15.4174671 29.168181,14.5007528 C28.5014797,13.9173892 28.0847914,13.1673503 27.8347784,12.3339737 C27.5847654,11.5839347 27.5014278,10.7505581 27.5014278,10.0005192 C27.5014278,8.00041536 28.0014537,5.8336362 28.5014797,3.91687002 C28.5848174,3.25016874 28.8348303,2.58346746 29.0848433,1.91676618 L29.168181,1.6667532 L29.0848433,1.91676618 Z" id="XMLID_15_" fill="#AED299"></path>
                    <path d="M27.4180901,10.0005192 C27.4180901,10.8338958 27.5014278,11.5839347 27.7514408,12.3339737 C28.0014537,13.0840126 28.418142,13.8340516 29.0848433,14.5007528 C30.0848952,15.3341294 31.1682848,15.6674801 32.4183497,15.9174931 C33.6684146,16.167506 35.0851548,16.167506 36.6685704,16.167506 C40.2520898,16.0841684 44.5023104,15.5841424 48.1691675,15.0841165 C48.4191804,15.0841165 48.6691934,15.0007788 48.9192064,15.0007788 C48.8358687,14.7507658 48.7525311,14.5007528 48.6691934,14.1674022 C48.4191804,13.2506879 47.9191545,12.250636 47.5024662,11.5839347 C45.5023623,11.8339477 43.3355832,12.0839607 41.2521417,12.4173113 C36.6685704,13.000675 32.5016874,13.0840126 31.0849472,11.6672724 C29.7515446,10.3338698 30.6682589,5.8336362 31.6683108,2.58346746 C31.0016095,2.0834415 30.2515706,1.58341554 29.3348563,1.33340256 C29.3348563,1.41674022 29.2515186,1.50007788 29.2515186,1.58341554 C29.0015057,2.25011682 28.668155,3.08349342 28.418142,4.00020768 C27.9181161,5.75029854 27.4180901,7.9170777 27.4180901,10.0005192" id="XMLID_14_" fill="#39B54A"></path>
                    <path d="M12.000623,42.6688819 C13.3340256,39.4187132 15.5008048,34.1684406 17.8342592,30.7515965 C18.6676358,29.5015316 19.5010124,28.5014797 20.4177267,27.6681031 C20.9177526,27.2514148 21.5011163,26.8347265 22.2511552,26.6680512 C22.6678435,26.5847135 23.0845318,26.5013759 23.5012201,26.5013759 C24.6679473,26.5013759 25.5846616,26.8347265 26.5013759,27.4180901 C27.5014278,27.9181161 28.3348044,28.668155 29.168181,29.3348563 C31.0016095,30.8349342 34.1684406,35.0018172 34.1684406,35.0018172 C34.1684406,35.0018172 31.0016095,30.6682589 29.0848433,28.5848174 C28.1681291,27.5847654 27.1680771,26.5013759 26.0846876,25.6679993 C25.5846616,25.251311 25.0846356,24.9179603 24.501272,24.6679473 C23.9179084,24.4179344 23.3345448,24.1679214 22.6678435,24.1679214 C22.4178305,24.1679214 22.1678175,24.1679214 21.9178046,24.251259 C21.0010903,24.501272 20.584402,25.001298 20.0843761,25.5013239 C19.3343371,26.4180382 18.5842982,27.7514408 17.8342592,29.2515186 C15.6674801,33.4184016 13.3340256,39.3353755 12.000623,42.6688819 Z" id="XMLID_13_" fill="#F19DC3"></path>
                    <path d="M31.1682848,35.6685185 C32.0016614,35.6685185 33.1683887,35.4185055 34.0851029,35.0018172 C34.0851029,35.0018172 30.9182718,30.8349342 29.2515186,29.418194 C28.418142,28.668155 27.5014278,28.0014537 26.5847135,27.5014278 C25.5846616,27.0014018 24.751285,26.5847135 23.5845578,26.5847135 C23.1678695,26.5847135 22.7511812,26.6680512 22.3344929,26.7513888 C21.5844539,26.9180642 21.084428,27.3347525 20.5010644,27.7514408 C19.5843501,28.5014797 18.7509735,29.5848693 17.9175969,30.8349342 C15.5841424,34.2517782 13.3340256,39.5020508 12.0839607,42.7522196 C12.750662,43.0022325 14.1674022,43.2522455 15.6674801,43.1689079 C15.7508177,42.8355572 20.6677397,30.2515706 24.0012461,29.7515446 C26.5013759,29.3348563 30.4182459,34.5851289 31.1682848,35.6685185" id="XMLID_12_" fill="#EC008C"></path>
                    <path d="M38.1686483,17.8342592 C43.5855962,16.5008567 47.6691415,15.9174931 49.0025441,15.7508177 C47.2524532,15.9174931 40.8354534,16.917545 35.0018172,18.0842722 C29.168181,19.2509995 26.3347005,20.4177267 27.6681031,24.1679214 C28.918168,27.6681031 34.0851029,33.7517523 34.8351419,34.5851289 C34.3351159,33.9184276 31.7516484,30.5015835 30.9182718,28.418142 C27.7514408,21.8344669 32.6683627,19.1676618 38.1686483,17.8342592" id="XMLID_11_" fill="#85C2EB"></path>
                    <path d="M49.0025441,18.5842982 C49.0025441,18.5842982 49.3358947,17.167558 49.0025441,15.7508177 C47.6691415,16.0008307 43.5855962,16.5008567 38.1686483,17.8342592 C32.6683627,19.1676618 27.7514408,21.8344669 30.8349342,28.3348044 C31.7516484,30.4182459 34.2517782,33.8350899 34.7518042,34.5017912 L34.8351419,34.5851289 C34.8351419,34.5851289 36.4185574,33.6684146 37.3352717,32.0849991 L37.4186093,32.0016614 C37.501947,32.1683367 33.2517263,26.5013759 33.6684146,24.0012461 C34.0851029,21.2511033 45.335687,19.1676618 49.0025441,18.5842982" id="XMLID_10_" fill="#0094D9"></path>
                    <path d="M8.25042834,3.3335064 L8.333766,3.41684406 C9.25048026,4.5835713 10.9172335,6.58367514 12.9173373,8.83379196 C14.1674022,10.2505322 15.4174671,11.5005971 16.5841943,12.500649 C17.167558,13.000675 17.7509216,13.4173633 18.4176229,13.7507139 C20.0010384,14.5840905 21.4177786,14.5840905 22.8345188,13.3340256 C23.7512331,12.5839867 24.4179344,11.5839347 25.001298,10.5005452 C25.9180122,8.83379196 26.6680512,6.83368812 27.3347525,4.91692194 C27.7514408,3.7501947 28.0847914,2.66680512 28.5014797,1.58341554 C28.0014537,2.75014278 27.5014278,4.00020768 26.9180642,5.25027258 C26.0846876,7.0837011 25.001298,8.83379196 23.5012201,10.1671945 C22.5011682,11.0839088 21.1677656,11.7506101 19.6676878,11.8339477 L19.2509995,11.8339477 C17.8342592,11.8339477 16.667532,11.2505841 15.5008048,10.5005452 C14.3340775,9.75050622 13.2506879,8.7504543 12.0839607,7.66706472 C10.8338958,6.41699982 9.50049324,4.91692194 8.333766,3.41684406 C8.333766,3.41684406 8.25042834,3.41684406 8.25042834,3.3335064 Z" id="XMLID_9_" fill="#EFEC9A"></path>
                    <path d="M15.5008048,10.5005452 C16.667532,11.2505841 17.8342592,11.8339477 19.2509995,11.8339477 L19.6676878,11.8339477 C21.1677656,11.6672724 22.5011682,11.0005711 23.5012201,10.1671945 C25.001298,8.83379196 26.0846876,7.0837011 26.9180642,5.25027258 C27.5014278,4.00020768 28.0014537,2.75014278 28.5014797,1.58341554 C28.5848174,1.41674022 28.5848174,1.33340256 28.668155,1.08338958 C28.5848174,1.08338958 28.5014797,1.08338958 28.418142,1.00005192 C27.1680771,0.75003894 25.9180122,0.75003894 24.9179603,1.00005192 C24.251259,2.58346746 22.1678175,8.25042834 19.2509995,8.66711664 C16.7508697,9.00046728 13.5007009,5.16693492 10.2505322,1.33340256 C9.41715558,1.50007788 8.333766,2.00010384 7.66706472,2.5001298 L7.75040238,2.58346746 C9.1671426,4.33355832 10.6672205,6.08364918 12.250636,7.66706472 C13.2506879,8.7504543 14.3340775,9.75050622 15.5008048,10.5005452" id="XMLID_8_" fill="#D7DF23"></path>
                    <path d="M16.0008307,15.0007788 C15.5841424,14.0007269 14.9174411,13.000675 14.3340775,12.0839607 C13.7507139,11.1672464 13.0840126,10.3338698 12.500649,9.50049324 C11.0839088,7.66706472 9.66716856,5.91697386 8.08375302,4.25022066 C7.75040238,3.83353236 7.33371408,3.50018172 7.00036344,3.08349342 C8.58377898,4.83358428 11.1672464,7.83374004 13.0840126,11.8339477 C13.5840386,13.000675 15.0007788,16.2508437 12.5839867,18.4176229 C10.0838569,20.6677397 5.08359726,21.3344409 0.4166883,22.0011422 C2.58346746,21.7511292 4.83358428,21.5011163 7.00036344,21.1677656 C8.58377898,20.9177526 10.1671945,20.6677397 11.6672724,20.334389 C12.9173373,20.0010384 14.4174152,19.6676878 15.4174671,18.8343112 C16.0008307,18.4176229 16.3341814,17.7509216 16.417519,17.0842203 C16.5008567,16.3341814 16.2508437,15.6674801 16.0008307,15.0007788" id="XMLID_7_" fill="#FBCA8C"></path>
                    <path d="M4.75024662,5.8336362 C7.16703876,8.58377898 8.16709068,9.50049324 9.91718154,13.0840126 C11.3339218,15.8341554 9.75050622,16.667532 7.9170777,17.4175709 C6.33366216,18.0842722 0.58336362,19.0009865 0.58336362,19.0009865 C0.25001298,19.9177007 0.16667532,20.834415 0.33335064,21.9178046 C5.0002596,21.2511033 10.0005192,20.584402 12.500649,18.3342852 C14.9174411,16.167506 13.5840386,12.9173373 13.000675,11.7506101 C11.0839088,7.75040238 8.50044132,4.75024662 6.91702578,3.00015576 C6.50033748,3.3335064 6.08364918,3.7501947 5.58362322,4.41689598 C5.08359726,5.0002596 4.75024662,5.66696088 4.75024662,5.8336362" id="XMLID_6_" fill="#F7931E"></path>
                    <path d="M15.9174931,23.0845318 C15.2507918,22.3344929 14.2507399,22.0844799 13.2506879,21.9178046 C12.3339737,21.7511292 11.3339218,21.7511292 10.4172075,21.7511292 C7.0837011,21.8344669 3.7501947,22.2511552 0.4166883,22.6678435 C3.25016874,22.3344929 5.4169479,22.1678175 7.0837011,22.1678175 C8.91712962,22.1678175 10.1671945,22.3344929 11.1672464,22.6678435 C11.2505841,22.6678435 11.3339218,22.7511812 11.4172594,22.7511812 C11.4172594,22.7511812 11.5005971,22.7511812 11.5005971,22.8345188 L11.5839347,22.8345188 C14.0007269,23.7512331 14.6674282,25.7513369 14.7507658,28.1681291 C14.7507658,30.5015835 14.0840645,33.4184016 13.3340256,36.4185574 C12.750662,38.5853366 12.0839607,40.7521157 11.4172594,42.5022066 C12.250636,40.3354274 13.1673503,38.0853106 13.9173892,35.9185314 C14.7507658,33.585077 15.5841424,31.1682848 16.167506,28.7514927 C16.417519,27.6681031 16.667532,26.5847135 16.667532,25.5013239 C16.667532,24.5846097 16.5008567,23.6678954 15.9174931,23.0845318" id="XMLID_5_" fill="#F2987A"></path>
                    <path d="M14.7507658,28.1681291 C14.7507658,25.7513369 14.0840645,23.7512331 11.5839347,22.8345188 L11.5005971,22.8345188 C11.5005971,22.8345188 11.4172594,22.8345188 11.4172594,22.7511812 C11.3339218,22.7511812 11.2505841,22.6678435 11.1672464,22.6678435 C10.1671945,22.3344929 8.91712962,22.1678175 7.0837011,22.1678175 C5.4169479,22.1678175 3.25016874,22.3344929 0.4166883,22.6678435 C0.66670128,24.4179344 1.41674022,25.5846616 1.75009086,26.0013499 C4.08354534,25.7513369 5.8336362,25.6679993 7.16703876,25.6679993 C12.0839607,25.6679993 12.250636,27.0847395 12.000623,31.0016095 C11.7506101,34.2517782 9.5838309,39.8354015 9.00046728,41.0854664 C9.00046728,41.0854664 9.41715558,41.5021547 9.91718154,41.8355053 C10.5838828,42.2521936 11.3339218,42.5855442 11.4172594,42.5855442 C12.0839607,40.7521157 12.750662,38.5853366 13.3340256,36.5018951 C14.0840645,33.4184016 14.7507658,30.5015835 14.7507658,28.1681291" id="XMLID_4_" fill="#ED1C24"></path>
                </g>
            </g>
        </g>
    </g>
</svg>