<?xml version="1.0" encoding="UTF-8"?>
<svg width="140px" height="33px" viewBox="0 0 140 33" version="1.1" xmlns="http://www.w3.org/2000/svg" xmlns:xlink="http://www.w3.org/1999/xlink">
    <!-- Generator: sketchtool 50.2 (55047) - http://www.bohemiancoding.com/sketch -->
    <title>5A8AEEB6-22C8-42BE-8915-4A125F28B12B</title>
    <desc>Created with sketchtool.</desc>
    <defs></defs>
    <g id="Mockups" stroke="none" stroke-width="1" fill="none" fill-rule="evenodd">
        <g id="customers" transform="translate(-969.000000, -2040.000000)" fill="#00BCA1" fill-rule="nonzero">
            <g id="Group-4" transform="translate(370.000000, 1992.000000)">
                <g id="Group" transform="translate(570.000000, 0.000000)">
                    <g id="haralogo-logo" transform="translate(29.000000, 48.000000)">
                        <path d="M0.0761697497,0.192757009 C0.457018498,0.115654206 0.837867247,0.0771028037 1.218716,0.0771028037 C1.59956474,0.0385514019 1.98041349,0.0385514019 2.36126224,0.0385514019 C2.74211099,0.0385514019 3.12295974,0.0385514019 3.50380849,0.0771028037 C3.88465724,0.115654206 4.30359086,0.154205607 4.68443961,0.192757009 L4.68443961,9.29088785 C4.83677911,9.09813084 5.02720348,8.86682243 5.29379761,8.59696262 C5.56039173,8.3271028 5.86507073,8.05724299 6.2078346,7.78738318 C6.58868335,7.51752336 7.00761697,7.32476636 7.54080522,7.13200935 C8.07399347,6.93925234 8.64526659,6.86214953 9.33079434,6.86214953 C11.1969532,6.86214953 12.6060936,7.40186916 13.5963003,8.44275701 C14.5484222,9.48364486 15.0435256,11.1413551 15.0435256,13.4158879 L15.0435256,24.3259346 C14.6626768,24.4030374 14.2437432,24.4415888 13.8628945,24.4415888 C13.4820457,24.4801402 13.101197,24.4801402 12.7203482,24.4801402 C12.3394995,24.4801402 11.9586507,24.4801402 11.577802,24.4415888 C11.1969532,24.4030374 10.7780196,24.364486 10.3971708,24.3259346 L10.3971708,14.6880841 C10.3971708,13.4929907 10.2067465,12.567757 9.82589771,11.9509346 C9.44504897,11.2955607 8.83569097,10.9871495 7.92165397,10.9871495 C7.54080522,10.9871495 7.15995647,11.0257009 6.77910773,11.1413551 C6.39825898,11.2570093 6.01741023,11.4497664 5.71273123,11.796729 C5.40805223,12.1051402 5.14145811,12.567757 4.91294886,13.146028 C4.72252448,13.7242991 4.60826986,14.4567757 4.60826986,15.3820093 L4.60826986,24.364486 C4.22742111,24.4415888 3.80848749,24.4801402 3.42763874,24.4801402 C3.04678999,24.5186916 2.66594124,24.5186916 2.28509249,24.5186916 C1.90424374,24.5186916 1.52339499,24.5186916 1.14254625,24.4801402 L0,24.364486 L0,0.192757009 L0.0761697497,0.192757009 Z M27.4972797,13.1074766 C27.4972797,12.567757 27.4211099,12.1436916 27.2306855,11.8352804 C27.0402612,11.4883178 26.8117519,11.2570093 26.5070729,11.0642523 C26.2023939,10.8714953 25.8215452,10.7558411 25.3645267,10.6787383 C24.9075082,10.6016355 24.4124048,10.5630841 23.8792165,10.5630841 C22.6985854,10.5630841 21.4417845,10.7943925 20.1468988,11.2570093 C19.8422198,10.6787383 19.6137106,10.1390187 19.4613711,9.63785047 C19.3090316,9.13668224 19.2328618,8.51985981 19.2328618,7.82593458 C20.1849837,7.47897196 21.1371055,7.24766355 22.0892274,7.09345794 C23.0413493,6.93925234 23.9173014,6.86214953 24.7551687,6.86214953 C27.0021763,6.86214953 28.7921654,7.40186916 30.0489663,8.51985981 C31.3057671,9.63785047 31.95321,11.3726636 31.95321,13.8014019 L31.95321,23.7091121 C31.1915125,23.9404206 30.2774755,24.171729 29.1730141,24.4030374 C28.0685528,24.6343458 26.8498368,24.75 25.4787813,24.75 C24.3743199,24.75 23.3460283,24.6343458 22.4319913,24.4415888 C21.5179543,24.2488318 20.7181719,23.9018692 20.0707291,23.4392523 C19.4232862,22.9766355 18.8900979,22.3983645 18.5473341,21.6658879 C18.2045702,20.9334112 18.0141458,20.046729 18.0141458,19.0058411 C18.0141458,17.9649533 18.2426551,17.078271 18.6996736,16.3457944 C19.1566921,15.6133178 19.7279652,15.0735981 20.4134929,14.6109813 C21.0990207,14.1869159 21.898803,13.8785047 22.7747552,13.6857477 C23.6507073,13.4929907 24.5266594,13.4158879 25.3645267,13.4158879 C26.0119695,13.4158879 26.6974973,13.4544393 27.4591948,13.5315421 L27.4591948,13.1074766 L27.4972797,13.1074766 Z M27.4972797,16.5 C27.2306855,16.4614486 26.9640914,16.4228972 26.6594124,16.3843458 C26.3547334,16.3457944 26.0881393,16.3457944 25.85963,16.3457944 C24.7932535,16.3457944 23.9553863,16.5385514 23.3460283,16.9240654 C22.7366703,17.3095794 22.4319913,17.9264019 22.4319913,18.7745327 C22.4319913,19.3528037 22.5462459,19.7768692 22.7747552,20.0852804 C23.0032644,20.3936916 23.3079434,20.625 23.6507073,20.7792056 C23.9934712,20.9334112 24.336235,21.010514 24.7170838,21.0490654 C25.0979325,21.0876168 25.4406964,21.0876168 25.7072905,21.0876168 C26.0500544,21.0876168 26.3547334,21.0490654 26.6974973,21.010514 C27.0402612,20.9719626 27.3068553,20.8948598 27.5353645,20.8563084 L27.5353645,16.5 L27.4972797,16.5 Z M35.9521219,7.24766355 C36.2948857,7.17056075 36.5995647,7.13200935 36.8661589,7.09345794 C37.1708379,7.05490654 37.4755169,7.05490654 37.8182807,7.05490654 C38.1610446,7.05490654 38.4657236,7.09345794 38.7704026,7.13200935 C39.0750816,7.17056075 39.3797606,7.24766355 39.6844396,7.28621495 C39.7606094,7.40186916 39.7986942,7.55607477 39.874864,7.74883178 C39.9129489,7.94158879 39.9891186,8.1728972 40.0272035,8.40420561 L40.1414581,9.09813084 C40.179543,9.32943925 40.2176279,9.52219626 40.2176279,9.67640187 C40.7127312,8.98247664 41.2840044,8.36565421 41.9695321,7.86448598 C42.6550598,7.32476636 43.531012,7.05490654 44.5593036,7.05490654 C44.7878128,7.05490654 45.0163221,7.05490654 45.3210011,7.09345794 C45.5875952,7.13200935 45.8161045,7.13200935 45.9303591,7.20911215 C45.968444,7.44042056 46.0065288,7.67172897 46.0446137,7.98014019 C46.0826986,8.25 46.0826986,8.55841121 46.0826986,8.86682243 C46.0826986,9.25233645 46.0826986,9.63785047 46.0446137,10.1004673 C46.0065288,10.5245327 45.968444,10.9485981 45.8541893,11.3726636 C45.6256801,11.3341121 45.359086,11.2955607 45.054407,11.2955607 L44.5212187,11.2955607 C44.14037,11.2955607 43.7214363,11.3341121 43.2644178,11.411215 C42.8073993,11.4883178 42.3884657,11.6810748 41.9695321,12.0280374 C41.5505985,12.375 41.2078346,12.8376168 40.9412405,13.5315421 C40.6746464,14.1869159 40.5223069,15.1121495 40.5223069,16.307243 L40.5223069,24.4415888 C40.1414581,24.5186916 39.7225245,24.557243 39.3416757,24.557243 C38.960827,24.5957944 38.5799782,24.5957944 38.1991295,24.5957944 C37.8182807,24.5957944 37.437432,24.5957944 37.0565832,24.557243 C36.6757345,24.5186916 36.2948857,24.4801402 35.8759521,24.4415888 L35.8759521,7.24766355 L35.9521219,7.24766355 Z M56.9749728,13.1074766 C56.9749728,12.567757 56.898803,12.1436916 56.7083787,11.8352804 C56.5179543,11.4883178 56.289445,11.2570093 55.9847661,11.0642523 C55.6800871,10.8714953 55.2992383,10.7558411 54.8422198,10.6787383 C54.3852013,10.6016355 53.8900979,10.5630841 53.3569097,10.5630841 C52.1762786,10.5630841 50.9194777,10.7943925 49.6245919,11.2570093 C49.3199129,10.6787383 49.0914037,10.1390187 48.9390642,9.63785047 C48.7867247,9.13668224 48.710555,8.51985981 48.710555,7.82593458 C49.6626768,7.47897196 50.6147987,7.24766355 51.5669206,7.09345794 C52.5190424,6.93925234 53.4330794,6.86214953 54.2328618,6.86214953 C56.4798694,6.86214953 58.2698585,7.40186916 59.5266594,8.51985981 C60.7834603,9.63785047 61.4309032,11.3726636 61.4309032,13.8014019 L61.4309032,23.7091121 C60.6692057,23.9404206 59.7551687,24.171729 58.6507073,24.4030374 C57.5462459,24.6343458 56.3275299,24.75 54.9564744,24.75 C53.8520131,24.75 52.8237214,24.6343458 51.9096844,24.4415888 C50.9956474,24.2488318 50.1958651,23.9018692 49.5484222,23.4392523 C48.9009793,22.9766355 48.3677911,22.3983645 48.0250272,21.6658879 C47.6822633,20.9334112 47.491839,20.046729 47.491839,19.0058411 C47.491839,17.9649533 47.7203482,17.078271 48.1773667,16.3457944 C48.6343852,15.6133178 49.2056583,15.0735981 49.8911861,14.6109813 C50.6147987,14.1869159 51.3764962,13.8785047 52.2524483,13.6857477 C53.1284004,13.4929907 54.0043526,13.4158879 54.8422198,13.4158879 C55.4896627,13.4158879 56.1751904,13.4544393 56.9368879,13.5315421 L56.9368879,13.1074766 L56.9749728,13.1074766 Z M56.9749728,16.5 C56.7083787,16.4614486 56.4417845,16.4228972 56.1371055,16.3843458 C55.8324266,16.3457944 55.5658324,16.3457944 55.3373232,16.3457944 C54.2709467,16.3457944 53.4330794,16.5385514 52.8237214,16.9240654 C52.2143634,17.3095794 51.9096844,17.9264019 51.9096844,18.7745327 C51.9096844,19.3528037 52.0239391,19.7768692 52.2524483,20.0852804 C52.4809576,20.3936916 52.7856366,20.625 53.1284004,20.7792056 C53.4711643,20.9334112 53.8139282,21.010514 54.1947769,21.0490654 C54.5756257,21.0876168 54.9183896,21.0876168 55.1849837,21.0876168 C55.5277476,21.0876168 55.8324266,21.0490654 56.1751904,21.010514 C56.5179543,20.9719626 56.7845484,20.8948598 57.0130577,20.8563084 L57.0130577,16.5 L56.9749728,16.5 Z M65.3155604,0.192757009 C66.1153428,0.0771028037 66.8770403,0 67.6387378,0 C68.3623504,0 69.1240479,0.0771028037 69.9238303,0.192757009 L69.9238303,17.5408879 C69.9238303,18.2348131 69.9619151,18.7745327 70.0380849,19.1985981 C70.1142546,19.6226636 70.2285092,19.9310748 70.3808487,20.1623832 C70.5331882,20.3936916 70.7616975,20.5478972 71.0282916,20.625 C71.2948857,20.7021028 71.5995647,20.7406542 72.0184984,20.7406542 C72.2089227,20.7406542 72.3993471,20.7406542 72.5897715,20.7021028 C72.7801959,20.6635514 73.0087051,20.6635514 73.1991295,20.5864486 C73.4276387,21.4731308 73.5418934,22.3598131 73.5418934,23.2464953 L73.5418934,23.7091121 C73.5418934,23.7091121 73.5038085,24.0175234 73.4657236,24.171729 C73.1229597,24.2873832 72.7040261,24.364486 72.2089227,24.4030374 C71.7138194,24.4415888 71.2568009,24.4801402 70.8378672,24.4801402 C69.1621328,24.4801402 67.8291621,24.0175234 66.8008705,23.0922897 C65.7725789,22.1670561 65.2774755,20.625 65.2774755,18.5046729 L65.2774755,0.192757009 L65.3155604,0.192757009 Z M85.4243743,13.1074766 C85.4243743,12.567757 85.3482046,12.1436916 85.1577802,11.8352804 C84.9673558,11.4883178 84.7388466,11.2570093 84.4341676,11.0642523 C84.1294886,10.8714953 83.7486398,10.7558411 83.2916213,10.6787383 C82.8346028,10.6016355 82.3394995,10.5630841 81.8063112,10.5630841 C80.6256801,10.5630841 79.3688792,10.7943925 78.0739935,11.2570093 C77.7693145,10.6787383 77.5408052,10.1390187 77.3884657,9.63785047 C77.2361262,9.13668224 77.1599565,8.51985981 77.1599565,7.82593458 C78.1120783,7.47897196 79.0642002,7.24766355 80.0163221,7.09345794 C80.968444,6.93925234 81.882481,6.86214953 82.6822633,6.86214953 C84.9292709,6.86214953 86.7192601,7.40186916 87.9760609,8.51985981 C89.2328618,9.63785047 89.8803047,11.3726636 89.8803047,13.8014019 L89.8803047,23.7091121 C89.1186072,23.9404206 88.2045702,24.171729 87.1001088,24.4030374 C85.9956474,24.6343458 84.7769314,24.75 83.405876,24.75 C82.3014146,24.75 81.273123,24.6343458 80.359086,24.4415888 C79.445049,24.2488318 78.6452666,23.9018692 77.9978237,23.4392523 C77.3503808,22.9766355 76.8171926,22.3983645 76.4744287,21.6658879 C76.1316649,20.9334112 75.9412405,20.046729 75.9412405,19.0058411 C75.9412405,17.9649533 76.1697497,17.078271 76.6267682,16.3457944 C77.0837867,15.6133178 77.6550598,15.0735981 78.3405876,14.6109813 C79.0642002,14.1869159 79.8258977,13.8785047 80.7018498,13.6857477 C81.577802,13.4929907 82.4537541,13.4158879 83.2916213,13.4158879 C83.9390642,13.4158879 84.6245919,13.4544393 85.3862894,13.5315421 L85.3862894,13.1074766 L85.4243743,13.1074766 Z M85.4243743,16.5 C85.1577802,16.4614486 84.8911861,16.4228972 84.5865071,16.3843458 C84.2818281,16.3457944 84.0152339,16.3457944 83.7867247,16.3457944 C82.7203482,16.3457944 81.882481,16.5385514 81.273123,16.9240654 C80.663765,17.3095794 80.359086,17.9264019 80.359086,18.7745327 C80.359086,19.3528037 80.4733406,19.7768692 80.7018498,20.0852804 C80.9303591,20.3936916 81.2350381,20.625 81.577802,20.7792056 C81.9205658,20.9334112 82.2633297,21.010514 82.6441785,21.0490654 C83.0250272,21.0876168 83.3677911,21.0876168 83.6343852,21.0876168 C83.9771491,21.0876168 84.2818281,21.0490654 84.6245919,21.010514 C84.9673558,20.9719626 85.2339499,20.8948598 85.4624592,20.8563084 L85.4624592,16.5 L85.4243743,16.5 Z M109.722524,7.05490654 C108.694233,7.05490654 107.856366,7.20911215 107.247008,7.47897196 C106.828074,7.67172897 106.48531,7.94158879 106.180631,8.2114486 C106.028292,8.36565421 105.837867,8.51985981 105.723613,8.67406542 C105.190424,8.2114486 104.542982,7.82593458 103.743199,7.51752336 C103.628945,7.47897196 103.552775,7.44042056 103.43852,7.40186916 C102.524483,7.05490654 101.534276,6.90070093 100.4679,6.90070093 C99.6681175,6.90070093 98.9445049,7.01635514 98.2589771,7.17056075 C98.1447225,7.17056075 98.0304679,7.20911215 97.9162133,7.24766355 L97.4591948,7.36331776 C96.5832427,7.67172897 95.8215452,8.09579439 95.2121872,8.63551402 C94.6028292,9.17523364 94.1077258,9.79205607 93.8030468,10.5245327 C93.4983678,11.2570093 93.3079434,12.0665888 93.3079434,12.9147196 C93.3079434,13.8785047 93.4983678,14.7651869 93.9173014,15.536215 C94.2981502,16.2686916 94.8694233,16.9240654 95.554951,17.463785 C95.5930359,17.5023364 95.6311208,17.5023364 95.6692057,17.5408879 C95.6692057,17.5408879 96.7355822,18.3504673 97.9542982,18.5817757 C98.6779108,18.7745327 99.515778,18.8901869 100.4679,18.8901869 C101.077258,18.8901869 101.648531,18.8516355 102.219804,18.7359813 C102.638738,18.6588785 103.057671,18.5432243 103.43852,18.4275701 C104.314472,18.1191589 105.038085,17.6950935 105.647443,17.1553738 C106.256801,16.6542056 106.675734,16.0373832 107.018498,15.3049065 C107.018498,15.3049065 107.018498,15.2663551 107.056583,15.2663551 C107.361262,14.5338785 107.513602,13.7242991 107.513602,12.8761682 C107.513602,12.375 107.475517,11.9509346 107.399347,11.6425234 C107.399347,11.603972 107.361262,11.603972 107.361262,11.5654206 C107.285092,11.2955607 107.208923,11.0642523 107.094668,10.8714953 L109.722524,10.8714953 C109.798694,10.4859813 109.836779,10.1390187 109.836779,9.79205607 C109.874864,9.44509346 109.874864,9.09813084 109.874864,8.75116822 C109.874864,8.44275701 109.874864,8.1728972 109.836779,7.86448598 C109.798694,7.63317757 109.760609,7.36331776 109.722524,7.05490654 Z M102.562568,14.9193925 C102.524483,14.9579439 102.486398,15.0350467 102.486398,15.0735981 C102.372144,15.2278037 102.181719,15.3820093 102.02938,15.4976636 C101.648531,15.728972 101.153428,15.8831776 100.54407,15.8831776 C99.6300326,15.8831776 98.9445049,15.6133178 98.5255713,15.1121495 C98.3732318,14.9193925 98.2589771,14.6880841 98.1828074,14.4567757 C98.0304679,14.0327103 97.9162133,13.5315421 97.9162133,12.953271 C97.9162133,12.4135514 97.992383,11.9509346 98.1447225,11.5268692 C98.2589771,11.2570093 98.3732318,10.9871495 98.5255713,10.7558411 C98.9445049,10.2161215 99.5919478,9.94626168 100.54407,9.94626168 C101.458107,9.94626168 102.10555,10.2161215 102.524483,10.7558411 C102.600653,10.8714953 102.676823,10.9871495 102.752992,11.1413551 C102.829162,11.2955607 102.867247,11.411215 102.943417,11.5654206 C103.057671,11.9509346 103.133841,12.4135514 103.133841,12.953271 C103.057671,13.7628505 102.905332,14.4182243 102.562568,14.9193925 Z M108.694233,24.75 C108.579978,24.4801402 108.465724,24.2488318 108.313384,24.0175234 C108.275299,23.978972 108.275299,23.9404206 108.237214,23.9404206 C106.56148,21.588785 102.752992,21.8200935 102.752992,21.8200935 C96.164309,21.9357477 95.2121872,20.4707944 95.2121872,20.4707944 C95.1360174,20.5093458 94.9075082,20.6635514 94.9075082,20.6635514 C94.8313384,20.7021028 94.7932535,20.7406542 94.7551687,20.817757 C94.6028292,20.9719626 94.4885745,21.1261682 94.3743199,21.2803738 C94.2219804,21.5502336 94.1077258,21.8200935 93.9934712,22.0899533 C93.9173014,22.2441589 93.8792165,22.4369159 93.8411317,22.6296729 C93.726877,23.0151869 93.6507073,23.4007009 93.6126224,23.8633178 C94.1838955,24.1331776 94.7551687,24.3259346 95.3264418,24.5186916 C94.5647443,24.9813084 93.9553863,25.5595794 93.4983678,26.1764019 C93.0413493,26.7932243 92.81284,27.6028037 92.81284,28.6051402 C92.81284,29.260514 92.9270947,29.8773364 93.1936888,30.4170561 C93.4602829,30.9567757 93.8411317,31.4193925 94.4124048,31.8049065 C94.9836779,32.1904206 95.7072905,32.4602804 96.6213275,32.6915888 C97.5353645,32.8843458 98.6398259,33 99.9347116,33 C101.229597,33 102.448313,32.8457944 103.552775,32.5759346 C104.657236,32.3060748 105.647443,31.8820093 106.48531,31.3808411 C107.323177,30.8411215 107.97062,30.2242991 108.427639,29.453271 C108.884657,28.682243 109.151251,27.8726636 109.151251,26.9474299 C109.075082,26.0607477 108.960827,25.3668224 108.694233,24.75 Z M103.43852,28.9521028 C102.600653,29.3761682 101.496192,29.6074766 100.125136,29.6074766 C99.0968444,29.6074766 98.2589771,29.453271 97.6496192,29.1834112 C97.0402612,28.875 96.7355822,28.3352804 96.7355822,27.4871495 C96.7355822,27.2558411 96.773667,26.9859813 96.8498368,26.7546729 C96.9260065,26.4848131 97.0402612,26.2535047 97.2306855,26.0607477 C97.4211099,25.8679907 97.6496192,25.6752336 97.992383,25.5595794 C98.297062,25.4439252 98.7159956,25.3668224 99.1730141,25.4053738 L102.562568,25.4824766 C103.019587,25.4824766 103.36235,25.521028 103.667029,25.6366822 C103.933624,25.7523364 104.162133,25.8679907 104.314472,26.0607477 C104.466812,26.2149533 104.581066,26.4077103 104.619151,26.6004673 C104.657236,26.7932243 104.695321,27.0245327 104.695321,27.2172897 C104.695321,27.911215 104.276387,28.489486 103.43852,28.9521028 Z M118.977149,24.7114486 C117.606094,24.7114486 116.425462,24.4801402 115.397171,24.0175234 C114.368879,23.5549065 113.569097,22.9380841 112.883569,22.1285047 C112.236126,21.3189252 111.702938,20.3936916 111.398259,19.3142523 C111.055495,18.2348131 110.903156,17.078271 110.903156,15.8060748 C110.903156,14.5338785 111.055495,13.3773364 111.398259,12.2593458 C111.741023,11.1413551 112.236126,10.2161215 112.883569,9.40654206 C113.531012,8.59696262 114.368879,7.98014019 115.397171,7.51752336 C116.425462,7.05490654 117.606094,6.82359813 118.977149,6.82359813 C120.348205,6.82359813 121.528836,7.05490654 122.557127,7.51752336 C123.585419,7.98014019 124.423286,8.59696262 125.108814,9.40654206 C125.794342,10.2161215 126.289445,11.1799065 126.594124,12.2593458 C126.936888,13.3773364 127.089227,14.5338785 127.089227,15.8060748 C127.089227,17.078271 126.936888,18.2348131 126.594124,19.3142523 C126.25136,20.3936916 125.756257,21.3189252 125.108814,22.1285047 C124.423286,22.9380841 123.585419,23.5549065 122.557127,24.0175234 C121.566921,24.4801402 120.348205,24.7114486 118.977149,24.7114486 Z M118.977149,21.1647196 C120.195865,21.1647196 121.071817,20.7021028 121.605005,19.7768692 C122.138194,18.8516355 122.404788,17.5408879 122.404788,15.8446262 C122.404788,14.1098131 122.138194,12.7990654 121.605005,11.9123832 C121.071817,10.9871495 120.195865,10.5245327 118.977149,10.5245327 C117.796518,10.5245327 116.920566,10.9871495 116.387378,11.9123832 C115.854189,12.8376168 115.587595,14.1483645 115.587595,15.8446262 C115.587595,17.5794393 115.854189,18.8901869 116.387378,19.7768692 C116.920566,20.7021028 117.796518,21.1647196 118.977149,21.1647196 Z M139.809576,13.2231308 C139.92383,13.8785047 140,14.5724299 140,15.2278037 C140,15.921729 139.92383,16.6156542 139.809576,17.271028 L131.507073,17.271028 C131.392818,16.6156542 131.316649,15.921729 131.316649,15.2663551 C131.316649,14.5724299 131.392818,13.8785047 131.507073,13.2231308 L139.809576,13.2231308 Z" id="Logomark"></path>
                    </g>
                </g>
            </g>
        </g>
    </g>
</svg>