<?xml version="1.0" encoding="UTF-8"?>
<svg width="121px" height="40px" viewBox="0 0 121 40" version="1.1" xmlns="http://www.w3.org/2000/svg" xmlns:xlink="http://www.w3.org/1999/xlink">
    <!-- Generator: sketchtool 50.2 (55047) - http://www.bohemiancoding.com/sketch -->
    <title>854B0583-520A-4089-9099-F74D041625E5</title>
    <desc>Created with sketchtool.</desc>
    <defs></defs>
    <g id="Mockups" stroke="none" stroke-width="1" fill="none" fill-rule="evenodd">
        <g id="customers" transform="translate(-399.000000, -1347.000000)" fill="#00AEFF">
            <g id="Group-4" transform="translate(370.000000, 1302.000000)">
                <g id="Group-3">
                    <g id="Hotels.ngLogo" transform="translate(29.000000, 45.000000)">
                        <path d="M84.0352765,32.8131595 L80.9994134,32.8131595 C80.6764492,32.8131595 80.353485,32.4901953 80.353485,32.1026383 L80.353485,28.2916611 C80.353485,27.968697 80.6764492,27.6457328 80.9994134,27.6457328 L84.0352765,27.6457328 C84.4228336,27.6457328 84.7457977,27.968697 84.7457977,28.2916611 L84.7457977,32.1026383 C84.7457977,32.4901953 84.4228336,32.8131595 84.0352765,32.8131595 Z M15.0501302,32.8131595 L11.9496742,32.8131595 C11.5621172,32.8131595 11.2391531,32.4256025 11.2391531,32.1026383 L11.2391531,20.9926709 C11.2391531,18.0859934 10.7224104,17.3108794 8.46166121,17.3108794 C7.2989902,17.3108794 5.94254069,17.6984364 4.52149835,18.4735504 L4.52149835,32.1026383 C4.52149835,32.4256025 4.19853419,32.8131595 3.81097718,32.8131595 L0.71052117,32.8131595 C0.322964168,32.8131595 0,32.4256025 0,32.1026383 L0,0.645928336 C0,0.322964168 0.322964168,0 0.71052117,0 L3.81097718,0 C4.19853419,0 4.52149835,0.322964168 4.52149835,0.645928336 L4.52149835,14.7917589 C5.81335503,14.0166449 7.23439737,13.5644951 9.62433221,13.5644951 C14.3396091,13.5644951 15.7606514,16.8587296 15.7606514,20.9926709 L15.7606514,32.1026383 C15.7606514,32.4256025 15.4376872,32.8131595 15.0501302,32.8131595 Z M28.0332898,21.9615634 C28.0332898,19.1840716 26.806026,17.3754722 24.4160911,17.3754722 C22.0261563,17.3754722 20.7342996,19.1840716 20.7342996,21.9615634 L20.7342996,24.6744624 C20.7342996,27.4519543 22.0261563,29.1959608 24.4160911,29.1959608 C26.806026,29.1959608 28.0332898,27.4519543 28.0332898,24.6744624 L28.0332898,21.9615634 Z M24.4160911,33.0715308 C19.0548859,33.0715308 16.2773941,29.518925 16.2773941,24.6744624 L16.2773941,21.9615634 C16.2773941,17.1171009 19.0548859,13.5644951 24.4160911,13.5644951 C29.7127035,13.5644951 32.5547881,17.1171009 32.5547881,21.9615634 L32.5547881,24.6744624 C32.5547881,29.518925 29.7127035,33.0715308 24.4160911,33.0715308 Z M42.5666774,32.8131595 C41.7269705,32.9423452 41.0164494,33.0715308 40.2413354,33.0715308 C36.3657653,33.0715308 34.8155373,32.231824 34.8155373,27.7103256 L34.8155373,17.1171009 L31.6504885,16.6649511 C31.2629315,16.6003582 30.9399673,16.3419869 30.9399673,15.9544299 L30.9399673,14.4687947 C30.9399673,14.0812377 31.2629315,13.7582736 31.6504885,13.7582736 L34.8155373,13.7582736 L34.8155373,10.9807817 C34.8155373,10.6578175 35.1385015,10.3994462 35.5260585,10.3348534 L38.6911073,9.81811071 L38.820293,9.81811071 C39.1432572,9.81811071 39.3370357,9.94729638 39.3370357,10.2702605 L39.3370357,13.7582736 L42.4374917,13.7582736 C42.7604559,13.7582736 43.08342,14.0812377 43.08342,14.4687947 L43.08342,16.4065797 C43.08342,16.7941367 42.7604559,17.1171009 42.4374917,17.1171009 L39.3370357,17.1171009 L39.3370357,27.7103256 C39.3370357,29.3897393 39.4662213,29.5835178 40.6934852,29.5835178 L42.5020845,29.5835178 C42.9542344,29.5835178 43.2126057,29.7772963 43.2126057,30.1002605 L43.2126057,32.231824 C43.2126057,32.5547881 43.0188272,32.7485666 42.5666774,32.8131595 Z M55.1622799,21.5094136 C55.1622799,18.9257003 53.7412376,17.3754722 51.6096741,17.3754722 C49.4781106,17.3754722 47.9924754,18.8611074 47.9924754,21.5094136 L47.9924754,21.6385993 L55.1622799,21.6385993 L55.1622799,21.5094136 Z M59.0378499,24.8036481 L47.9278826,24.8036481 L47.9278826,24.9328338 C47.9278826,26.8706188 48.7675894,29.1959608 51.9972311,29.1959608 C54.5163516,29.1959608 56.8416936,29.0021823 58.2627359,28.8729966 L58.3919216,28.8729966 C58.7148858,28.8729966 58.9732571,29.0667751 58.9732571,29.3897393 L58.9732571,31.5858956 C58.9732571,32.1672311 58.9086643,32.3610096 58.2627359,32.4901953 C56.0665796,32.8777523 54.7747229,33.0715308 51.6742669,33.0715308 C48.2508467,33.0715308 43.470977,31.2629315 43.470977,24.6098696 L43.470977,22.0907491 C43.470977,16.8587296 46.3776545,13.5644951 51.6096741,13.5644951 C56.8416936,13.5644951 59.7483711,17.0525081 59.7483711,22.0907491 L59.7483711,23.9639413 C59.7483711,24.5452768 59.4899998,24.8036481 59.0378499,24.8036481 Z M64.5282408,39.5308142 L61.3631919,39.5308142 C60.9756349,39.5308142 60.6526708,39.1432572 60.6526708,38.820293 L60.6526708,7.81573287 C60.6526708,7.42817587 60.9756349,7.1052117 61.3631919,7.1052117 L64.5282408,7.1052117 C64.9157978,7.1052117 65.1741691,7.42817587 65.1741691,7.81573287 L65.1741691,38.820293 C65.1741691,39.1432572 64.9157978,39.5308142 64.5282408,39.5308142 Z M72.6669378,33.0715308 C71.3750812,33.0715308 68.4684036,32.8777523 66.5952115,32.3610096 C66.1430616,32.2964168 65.9492831,32.0380455 65.9492831,31.5858956 L65.9492831,29.5835178 C65.9492831,29.3251465 66.1430616,29.0667751 66.5306186,29.0667751 L66.6598043,29.0667751 C68.2746251,29.2605536 71.3750812,29.3897393 72.3439737,29.3897393 C74.4755372,29.3897393 74.7985013,28.743811 74.7985013,27.7749185 C74.7985013,27.193583 74.4109443,26.7414331 73.3128662,26.0955048 L68.5975893,23.2534201 C66.9025543,22.3064233 65.8249847,20.5431275 65.7555046,18.6027361 C65.7555046,15.2439087 67.8870681,13.5644951 72.214788,13.5644951 C74.9922798,13.5644951 76.5425078,13.8228664 78.2865144,14.2104234 C78.7386642,14.3396091 78.9324427,14.5979804 78.9324427,14.9855374 L78.9324427,16.9233224 C78.9324427,17.3754722 78.7386642,17.5692507 78.3511072,17.5692507 L78.2219215,17.5692507 C77.253029,17.4400651 74.54013,17.1816937 72.602345,17.1816937 C70.9875242,17.1816937 70.277003,17.5692507 70.277003,18.6027361 C70.277003,19.1194788 70.7937457,19.4424429 71.6334525,19.9591856 L76.090358,22.6720846 C78.9324427,24.4160911 79.3845925,26.0955048 79.3845925,27.7749185 C79.3845925,30.7461888 77.1238434,33.0715308 72.6669378,33.0715308 Z M100.958599,32.8131595 L97.8581429,32.8131595 C97.4705859,32.8131595 97.1476218,32.4256025 97.1476218,32.1026383 L97.1476218,21.1218566 C97.1476218,18.1505862 96.8892504,17.3108794 94.2409443,17.3108794 C93.0782733,17.3108794 91.8510094,17.7630292 90.4299671,18.5381433 L90.4299671,32.1026383 C90.4299671,32.4256025 90.1070029,32.8131595 89.7194459,32.8131595 L86.6189899,32.8131595 C86.2314329,32.8131595 85.9084687,32.4256025 85.9084687,32.1026383 L85.9084687,14.4687947 C85.9084687,14.0812377 86.2314329,13.7582736 86.6189899,13.7582736 L89.5902602,13.7582736 C89.9132244,13.7582736 90.2361886,14.0812377 90.2361886,14.4687947 L90.2361886,15.1793159 C92.2385664,13.8874592 93.5304231,13.5644951 95.7911723,13.5644951 C100.700228,13.5644951 101.66912,16.7941367 101.66912,21.1218566 L101.66912,32.1026383 C101.66912,32.4256025 101.346156,32.8131595 100.958599,32.8131595 Z M114.781465,20.0237784 C114.781465,18.4089576 114.070944,17.1816937 111.164267,17.1816937 C108.257589,17.1816937 107.482475,18.4735504 107.482475,20.0237784 L107.482475,20.3467426 C107.482475,21.5740064 107.934625,22.9950488 111.164267,22.9950488 C113.941759,22.9950488 114.781465,22.0261563 114.781465,20.3467426 L114.781465,20.0237784 Z M115.169022,34.1050162 C115.169022,33.394495 114.716873,32.9423452 111.164267,32.1026383 L108.128403,31.3921171 C107.611661,32.1026383 107.224104,32.5547881 107.224104,33.7174592 L107.224104,34.0404233 C107.224104,35.3968728 108.128403,36.2365797 111.293452,36.2365797 C114.587687,36.2365797 115.169022,35.5906513 115.169022,34.3633875 L115.169022,34.1050162 Z M119.496742,16.8587296 L118.334071,17.3108794 C118.915407,18.0859934 119.173778,18.7965146 119.173778,19.9591856 L119.173778,20.2175569 C119.173778,24.4160911 116.267101,26.3538761 111.164267,26.3538761 C109.355667,26.3538761 108.128403,26.030912 107.417882,25.7725406 C107.030325,26.030912 106.836547,26.3538761 106.836547,26.6768403 C106.836547,27.3227686 107.224104,27.58114 107.999218,27.7749185 L112.003974,28.743811 C116.654658,29.7772963 119.625928,30.4878175 119.625928,34.1050162 L119.625928,34.3633875 C119.625928,37.7868077 117.106807,39.6599998 111.293452,39.6599998 C105.803061,39.6599998 102.831791,37.5930292 102.831791,34.0404233 L102.831791,33.7174592 C102.831791,32.3610096 103.477719,31.0045601 104.575798,30.0356676 C103.624198,29.2903964 103.074797,28.1438203 103.090162,26.9352116 L103.090162,26.8706188 C103.090162,25.8371335 103.477719,24.8036481 104.446612,24.1577198 C103.413127,23.1242344 103.02557,21.8969706 103.02557,20.2175569 L103.02557,19.9591856 C103.02557,16.6003582 105.221726,13.7582736 111.164267,13.7582736 L119.109185,13.7582736 C119.625928,13.7582736 120.013485,14.2104234 120.013485,14.6625732 L120.013485,16.0836156 C120.013485,16.6003582 119.884299,16.6649511 119.496742,16.8587296 Z" id="Shape"></path>
                    </g>
                </g>
            </g>
        </g>
    </g>
</svg>