<?xml version="1.0" encoding="UTF-8"?>
<svg width="116px" height="30px" viewBox="0 0 116 30" version="1.1" xmlns="http://www.w3.org/2000/svg" xmlns:xlink="http://www.w3.org/1999/xlink">
    <!-- Generator: sketchtool 50.2 (55047) - http://www.bohemiancoding.com/sketch -->
    <title>93EAB002-5EA2-4562-987F-E2E9D28B1027</title>
    <desc>Created with sketchtool.</desc>
    <defs></defs>
    <g id="Mockups" stroke="none" stroke-width="1" fill="none" fill-rule="evenodd">
        <g id="medium-enterprises" transform="translate(-358.000000, -634.000000)" fill-rule="nonzero">
            <g id="interswitch-logo" transform="translate(358.000000, 634.000000)">
                <g id="Group">
                    <path d="M38.2905983,15.8518519 L38.7393162,13.7777778 C38.7393162,13.7777778 35.7478632,12.8888889 33.2051282,14.5185185 L33.2051282,22.8148148 L35.8974359,22.8148148 L35.8974359,16.1481481 C36.9444444,15.4074074 38.2905983,15.8518519 38.2905983,15.8518519" id="Shape" fill="#004262"></path>
                    <path d="M15.8547009,11.4074074 L18.3974359,10.962963 L18.3974359,13.6296296 L20.9401709,13.6296296 L20.9401709,15.8518519 L18.3974359,15.8518519 L18.3974359,19.1111111 C18.3974359,19.7037037 18.5470085,20.1481481 18.6965812,20.4444444 C18.8461538,20.7407407 19.2948718,20.8888889 19.8931624,20.8888889 C20.1923077,20.8888889 20.491453,20.8888889 20.7905983,20.7407407 C21.0897436,20.7407407 21.3888889,20.5925926 21.5384615,20.5925926 L21.8376068,22.6666667 C21.5384615,22.8148148 21.2393162,22.962963 20.7905983,22.962963 C20.3418803,23.1111111 19.8931624,23.1111111 19.4444444,23.1111111 C18.6965812,23.1111111 18.0982906,22.962963 17.6495726,22.8148148 C17.2008547,22.6666667 16.7521368,22.3703704 16.4529915,22.0740741 C16.1538462,21.7777778 16.0042735,21.3333333 15.8547009,20.8888889 C15.7051282,20.4444444 15.7051282,19.8518519 15.7051282,19.2592593 L15.8547009,11.4074074 Z" id="Shape" fill="#004262"></path>
                    <path d="M42.6282051,21.037037 C43.0769231,21.037037 43.3760684,21.037037 43.6752137,20.8888889 C43.8247863,20.7407407 43.974359,20.5925926 43.974359,20.2962963 C43.974359,20.1481481 43.8247863,19.8518519 43.525641,19.7037037 C43.2264957,19.5555556 42.9273504,19.4074074 42.3290598,19.1111111 C41.8803419,18.962963 41.5811966,18.8148148 41.2820513,18.6666667 C40.982906,18.5185185 40.6837607,18.3703704 40.3846154,18.0740741 C40.0854701,17.7777778 39.9358974,17.6296296 39.7863248,17.3333333 C39.6367521,17.037037 39.6367521,16.5925926 39.6367521,16.1481481 C39.6367521,15.2592593 39.9358974,14.6666667 40.534188,14.0740741 C41.1324786,13.6296296 42.0299145,13.3333333 43.2264957,13.3333333 C43.8247863,13.3333333 44.2735043,13.3333333 44.8717949,13.4814815 C45.4700855,13.6296296 45.7692308,13.6296296 46.0683761,13.7777778 L45.6196581,15.8518519 C45.3205128,15.7037037 45.0213675,15.7037037 44.5726496,15.5555556 C44.2735043,15.4074074 43.8247863,15.4074074 43.3760684,15.4074074 C42.6282051,15.4074074 42.1794872,15.7037037 42.1794872,16.1481481 C42.1794872,16.2962963 42.1794872,16.2962963 42.1794872,16.4444444 C42.1794872,16.5925926 42.3290598,16.5925926 42.3290598,16.7407407 C42.4786325,16.8888889 42.6282051,16.8888889 42.7777778,17.037037 C42.9273504,17.1851852 43.2264957,17.1851852 43.525641,17.3333333 C44.1239316,17.4814815 44.5726496,17.7777778 44.8717949,17.9259259 C45.1709402,18.0740741 45.4700855,18.3703704 45.7692308,18.5185185 C45.9188034,18.8148148 46.0683761,18.962963 46.2179487,19.2592593 C46.3675214,19.5555556 46.3675214,19.8518519 46.3675214,20.2962963 C46.3675214,21.1851852 46.0683761,21.9259259 45.3205128,22.3703704 C44.5726496,22.8148148 43.6752137,23.1111111 42.4786325,23.1111111 C41.7307692,23.1111111 40.982906,23.1111111 40.3846154,22.962963 C39.7863248,22.8148148 39.4871795,22.6666667 39.1880342,22.6666667 L39.6367521,20.5925926 C40.0854701,20.7407407 40.534188,20.8888889 40.982906,21.037037 C41.7307692,20.8888889 42.1794872,21.037037 42.6282051,21.037037" id="Shape" fill="#004262"></path>
                    <path d="M54.5940171,17.6296296 C54.2948718,18.5185185 54.1452991,19.4074074 53.8461538,20.2962963 C53.5470085,21.1851852 53.2478632,22.0740741 52.9487179,22.962963 L50.8547009,22.962963 C50.7051282,22.5185185 50.4059829,21.9259259 50.1068376,21.1851852 C49.8076923,20.4444444 49.6581197,19.8518519 49.3589744,18.962963 C49.0598291,18.0740741 48.7606838,17.3333333 48.6111111,16.4444444 C48.3119658,15.5555556 48.0128205,14.6666667 47.8632479,13.7777778 L50.5555556,13.7777778 C50.7051282,14.2222222 50.7051282,14.6666667 50.8547009,15.1111111 C51.0042735,15.5555556 51.1538462,16.1481481 51.1538462,16.5925926 C51.3034188,17.1851852 51.4529915,17.6296296 51.6025641,18.2222222 C51.7521368,18.8148148 51.9017094,19.2592593 52.0512821,19.7037037 C52.2008547,19.2592593 52.3504274,18.6666667 52.5,18.0740741 C52.6495726,17.4814815 52.7991453,17.037037 52.9487179,16.4444444 C53.0982906,16 53.2478632,15.4074074 53.3974359,14.962963 C53.5470085,14.5185185 53.6965812,14.0740741 53.6965812,13.6296296 L55.6410256,13.6296296 C55.7905983,14.0740741 55.7905983,14.5185185 55.9401709,14.962963 C56.0897436,15.4074074 56.2393162,16 56.2393162,16.4444444 C56.3888889,16.8888889 56.5384615,17.4814815 56.6880342,18.0740741 C56.8376068,18.6666667 56.9871795,19.1111111 57.1367521,19.7037037 C57.2863248,19.2592593 57.4358974,18.6666667 57.5854701,18.2222222 C57.7350427,17.6296296 57.8846154,17.1851852 58.034188,16.5925926 C58.1837607,16 58.3333333,15.5555556 58.3333333,15.1111111 C58.482906,14.6666667 58.482906,14.2222222 58.6324786,13.7777778 L61.3247863,13.7777778 C61.025641,14.6666667 60.7264957,15.5555556 60.5769231,16.4444444 C60.4273504,17.3333333 59.9786325,18.2222222 59.8290598,18.962963 C59.6794872,19.7037037 59.3803419,20.4444444 59.0811966,21.1851852 C58.7820513,21.9259259 58.6324786,22.3703704 58.3333333,22.962963 L56.2393162,22.962963 C55.9401709,22.0740741 55.6410256,21.1851852 55.3418803,20.2962963 C55.042735,19.4074074 54.7435897,18.5185185 54.5940171,17.6296296" id="Shape" fill="#004262"></path>
                    <rect id="Rectangle-path" fill="#004262" x="63.1196581" y="13.7777778" width="2.54273504" height="9.18518519"></rect>
                    <path d="M67.9059829,11.4074074 L70.4487179,10.962963 L70.4487179,13.6296296 L72.991453,13.6296296 L72.991453,15.8518519 L70.4487179,15.8518519 L70.4487179,19.1111111 C70.4487179,19.7037037 70.5982906,20.1481481 70.7478632,20.4444444 C70.8974359,20.7407407 71.3461538,20.8888889 71.9444444,20.8888889 C72.2435897,20.8888889 72.542735,20.8888889 72.8418803,20.7407407 C73.1410256,20.5925926 73.4401709,20.5925926 73.5897436,20.5925926 L73.8888889,22.6666667 C73.5897436,22.8148148 73.2905983,22.962963 72.8418803,22.962963 C72.3931624,23.1111111 71.9444444,23.1111111 71.4957265,23.1111111 C70.7478632,23.1111111 70.1495726,22.962963 69.7008547,22.8148148 C69.2521368,22.6666667 68.8034188,22.3703704 68.5042735,22.0740741 C68.2051282,21.7777778 68.0555556,21.3333333 67.9059829,20.8888889 C67.7564103,20.4444444 67.7564103,19.8518519 67.7564103,19.2592593 L67.9059829,11.4074074 Z" id="Shape" fill="#004262"></path>
                    <path d="M74.9358974,18.3703704 C74.9358974,17.7777778 75.0854701,17.037037 75.2350427,16.4444444 C75.3846154,15.8518519 75.8333333,15.4074074 76.1324786,14.962963 C76.5811966,14.5185185 77.0299145,14.2222222 77.6282051,13.9259259 C78.2264957,13.6296296 78.8247863,13.4814815 79.5726496,13.4814815 C80.0213675,13.4814815 80.4700855,13.4814815 80.9188034,13.6296296 C81.3675214,13.7777778 81.6666667,13.7777778 82.1153846,14.0740741 L81.517094,16.1481481 C81.2179487,16 81.0683761,16 80.7692308,15.8518519 C80.4700855,15.8518519 80.1709402,15.7037037 79.7222222,15.7037037 C78.974359,15.7037037 78.3760684,16 77.9273504,16.4444444 C77.4786325,16.8888889 77.3290598,17.4814815 77.3290598,18.3703704 C77.3290598,19.2592593 77.4786325,19.8518519 77.9273504,20.2962963 C78.2264957,20.7407407 78.974359,21.037037 79.7222222,21.037037 C80.0213675,21.037037 80.3205128,21.037037 80.7692308,20.8888889 C81.0683761,20.8888889 81.517094,20.7407407 81.8162393,20.5925926 L82.1153846,22.6666667 C81.8162393,22.8148148 81.3675214,22.962963 80.9188034,22.962963 C80.4700855,23.1111111 80.0213675,23.1111111 79.4230769,23.1111111 C78.525641,23.1111111 77.9273504,22.962963 77.1794872,22.6666667 C76.5811966,22.3703704 76.1324786,22.0740741 75.6837607,21.6296296 C75.2350427,21.1851852 74.9358974,20.7407407 74.7863248,20.1481481 C74.9358974,19.5555556 74.9358974,18.962963 74.9358974,18.3703704" id="Shape" fill="#004262"></path>
                    <path d="M84.0598291,22.8148148 L84.0598291,11.4074074 L86.6025641,10.962963 L86.6025641,13.7777778 C86.7521368,13.7777778 87.0512821,13.6296296 87.3504274,13.6296296 C87.6495726,13.6296296 87.9487179,13.4814815 88.0982906,13.4814815 C88.8461538,13.4814815 89.4444444,13.6296296 89.8931624,13.7777778 C90.3418803,13.9259259 90.7905983,14.2222222 91.0897436,14.6666667 C91.3888889,14.962963 91.5384615,15.4074074 91.6880342,16 C91.8376068,16.5925926 91.8376068,17.037037 91.8376068,17.6296296 L91.8376068,22.8148148 L89.2948718,22.8148148 L89.2948718,17.9259259 C89.2948718,17.037037 89.1452991,16.4444444 88.9957265,16.1481481 C88.8461538,15.8518519 88.3974359,15.5555556 87.7991453,15.5555556 C87.5,15.5555556 87.3504274,15.5555556 87.2008547,15.5555556 C87.0512821,15.5555556 86.7521368,15.7037037 86.6025641,15.7037037 L86.6025641,22.6666667 C86.6025641,22.8148148 84.0598291,22.8148148 84.0598291,22.8148148 Z" id="Shape" fill="#004262"></path>
                    <path d="M5.23504274,22.8148148 L5.23504274,14.5185185 C5.23504274,14.5185185 6.58119658,13.4814815 9.42307692,13.4814815 C11.965812,13.4814815 13.4615385,14.8148148 13.4615385,17.6296296 L13.4615385,22.8148148 L10.9188034,22.8148148 L10.9188034,17.6296296 C10.9188034,15.8518519 10.0213675,15.7037037 9.27350427,15.7037037 C8.52564103,15.7037037 7.92735043,16.1481481 7.92735043,16.1481481 L7.92735043,22.8148148 L5.23504274,22.8148148 Z" id="Shape" fill="#004262"></path>
                    <polygon id="Shape" fill="#004262" points="0.448717949 22.8148148 0.448717949 11.4074074 2.99145299 10.962963 2.99145299 22.8148148"></polygon>
                    <path d="M31.2606838,18.962963 L25.4273504,18.962963 C25.4273504,18.962963 25.5769231,20.8888889 28.1196581,20.8888889 C29.465812,20.8888889 30.6623932,20.4444444 30.6623932,20.4444444 L30.9615385,22.5185185 C30.9615385,22.5185185 29.6153846,23.1111111 27.8205128,23.1111111 C25.2777778,23.1111111 22.8846154,21.7777778 22.8846154,18.2222222 C22.8846154,15.4074074 24.6794872,13.6296296 27.3717949,13.6296296 C31.2606838,13.4814815 31.4102564,17.3333333 31.2606838,18.962963 M27.2222222,15.4074074 C25.5769231,15.4074074 25.4273504,17.1851852 25.4273504,17.1851852 L29.017094,17.1851852 C29.017094,17.1851852 28.8675214,15.4074074 27.2222222,15.4074074" id="Shape" fill="#004262"></path>
                    <path d="M97.2222222,29.6296296 C96.1752137,29.3333333 105.747863,18.3703704 104.102564,13.7777778 C103.354701,11.4074074 95.2777778,11.7037037 95.2777778,10.8148148 C95.2777778,9.92592593 110.683761,7.85185185 112.179487,9.92592593 C114.57265,12.8888889 98.5683761,30.2222222 97.2222222,29.6296296" id="Shape" fill="#EE312A"></path>
                    <path d="M115.918803,4.14814815 C115.918803,6.07407407 114.423077,7.55555556 112.478632,7.55555556 C110.534188,7.55555556 109.038462,6.07407407 109.038462,4.14814815 C109.038462,2.22222222 110.534188,0.740740741 112.478632,0.740740741 C114.423077,0.740740741 115.918803,2.22222222 115.918803,4.14814815" id="Shape" fill="#EE312A"></path>
                </g>
            </g>
        </g>
    </g>
</svg>