<?xml version="1.0" encoding="UTF-8"?>
<svg width="120px" height="40px" viewBox="0 0 120 40" version="1.1" xmlns="http://www.w3.org/2000/svg" xmlns:xlink="http://www.w3.org/1999/xlink">
    <!-- Generator: sketchtool 50.2 (55047) - http://www.bohemiancoding.com/sketch -->
    <title>7ABEA763-73F0-4C55-8C5B-B431376682F1</title>
    <desc>Created with sketchtool.</desc>
    <defs></defs>
    <g id="Mockups" stroke="none" stroke-width="1" fill="none" fill-rule="evenodd">
        <g id="customers" transform="translate(-969.000000, -657.000000)">
            <g id="Group-4" transform="translate(370.000000, 612.000000)">
                <g id="Group" transform="translate(570.000000, 0.000000)">
                    <g id="lafarge-logo" transform="translate(29.000000, 45.000000)">
                        <path d="M37.7297872,14.9680851 L33.4787234,25.0851064 L33.4787234,22.2382979 L27.6446809,22.2382979 L27.6446809,14.9680851 L22.9085106,14.9680851 L22.9085106,25.2829787 L38.1382979,25.2829787 L38.9680851,23.0680851 L42.6829787,23.0680851 L43.5319149,25.2829787 L48.5106383,25.2829787 L44.106383,14.9680851 L37.7297872,14.9680851 Z M39.5106383,20.6553191 L40.787234,17.4319149 L40.8510638,17.4319149 L42.1276596,20.6553191 L39.5106383,20.6553191 Z" id="Shape" fill="#231F20"></path>
                        <polygon id="Shape" fill="#231F20" points="55.3276596 17.4510638 61.1808511 17.4510638 61.1808511 14.9680851 50.5914894 14.9680851 50.5914894 25.2829787 55.3276596 25.2829787 55.3276596 21.6 61.0021277 21.6 61.0021277 19.1106383 55.3276596 19.1106383 55.3276596 17.4510638"></polygon>
                        <path d="M65.3808511,14.9680851 L61.0468085,25.2829787 L65.7893617,25.2829787 L66.6191489,23.0680851 L70.3340426,23.0680851 L71.1829787,25.2829787 L76.1680851,25.2829787 L71.7638298,14.9680851 L65.3808511,14.9680851 Z M67.1617021,20.6553191 L68.4382979,17.4319149 L68.5085106,17.4319149 L69.7851064,20.6553191 L67.1617021,20.6553191 Z" id="Shape" fill="#231F20"></path>
                        <path d="M88.9914894,20.8787234 C88.5682584,20.6255418 88.1001102,20.4564883 87.612766,20.3808511 C88.3625844,20.3042953 89.0752909,20.0165566 89.6680851,19.5510638 C90.2128379,19.1030414 90.5231292,18.4307438 90.5106383,17.7255319 C90.5323884,16.6057038 89.7645754,15.6246095 88.6723404,15.3765957 C87.6536057,15.0655187 86.589927,14.9274346 85.5255319,14.9680851 L78.1212766,14.9680851 L78.1212766,25.2829787 L82.8574468,25.2829787 L82.8574468,21.7021277 L83.9170213,21.7021277 C84.2288151,21.6919246 84.538822,21.7530528 84.8234043,21.8808511 C85.1695872,22.0332422 85.4114366,22.3549019 85.4617021,22.7297872 L85.9212766,25.2829787 L90.8744681,25.2829787 L90.0574468,22.2893617 C89.9034625,21.6981259 89.522796,21.191335 88.9978723,20.8787234 L88.9914894,20.8787234 Z M84.6,19.4425532 C84.3373764,19.4736442 84.0729091,19.486441 83.8085106,19.4808511 L82.6468085,19.4808511 L82.6468085,17.2723404 L83.8787234,17.2723404 C84.3620443,17.2399457 84.8455834,17.3322578 85.2829787,17.5404255 C85.5701367,17.7043153 85.7423416,18.0142842 85.7297872,18.3446809 C85.7297872,18.9382979 85.3531915,19.3021277 84.6,19.4425532 Z" id="Shape" fill="#231F20"></path>
                        <path d="M100.391489,21.4085106 L101.285106,21.4085106 L101.285106,22.8191489 L100.882979,22.8829787 C100.73428,22.8948718 100.584869,22.8948718 100.43617,22.8829787 C99.752955,22.9156814 99.0785676,22.717861 98.5212766,22.3212766 C97.9477648,21.8632452 97.627563,21.1588011 97.6595745,20.4255319 C97.613607,19.5427234 98.01105,18.6951642 98.7191489,18.1659574 C99.5586441,17.5927309 100.563722,17.3122963 101.578723,17.3680851 C102.28191,17.367454 102.982643,17.4510276 103.665957,17.6170213 C104.069118,17.7073202 104.465756,17.8246057 104.853191,17.9680851 L104.853191,15.1914894 C104.114452,15.0499283 103.368724,14.9476569 102.619149,14.8851064 C101.946809,14.8340426 101.276596,14.8085106 100.608511,14.8085106 C98.7274387,14.7159206 96.8554161,15.1233608 95.1829787,15.9893617 C94.2440965,16.5079634 93.5084239,17.329127 93.0957447,18.3191489 C92.8633556,18.8729113 92.7439962,19.4675378 92.7446809,20.0680851 C92.6977566,21.4000635 93.2172739,22.6895798 94.1744681,23.6170213 C95.4510638,24.8553191 97.4723404,25.4744681 100.238298,25.4744681 C101.180596,25.4798366 102.122467,25.4329561 103.059574,25.3340426 C103.835078,25.2527999 104.604689,25.1227548 105.36383,24.9446809 L105.36383,19.4808511 L100.391489,19.4808511 L100.391489,21.3957447 L100.391489,21.4085106 Z" id="Shape" fill="#231F20"></path>
                        <polygon id="Shape" fill="#231F20" points="113.22766 22.8638298 113.22766 21.2553191 119.029787 21.2553191 119.029787 18.906383 113.22766 18.906383 113.22766 17.406383 119.291489 17.406383 119.291489 14.9680851 108.491489 14.9680851 108.491489 25.2829787 119.419149 25.2829787 119.419149 22.8638298 113.22766 22.8638298"></polygon>
                        <polygon id="Shape" fill="#00904C" points="21.8297872 27.4595745 21.8297872 13.793617 27.8489362 13.793617 33.9191489 0 17.4829787 0 0 39.7148936 26.0425532 39.7148936 28.806383 33.4340426 19.206383 33.4340426 21.8297872 27.4595745"></polygon>
                    </g>
                </g>
            </g>
        </g>
    </g>
</svg>