<?xml version="1.0" encoding="UTF-8"?>
<svg width="159px" height="24px" viewBox="0 0 159 24" version="1.1" xmlns="http://www.w3.org/2000/svg" xmlns:xlink="http://www.w3.org/1999/xlink">
    <!-- Generator: sketchtool 50.2 (55047) - http://www.bohemiancoding.com/sketch -->
    <title>AE55C219-707D-4C5F-BB71-8306B2323311</title>
    <desc>Created with sketchtool.</desc>
    <defs></defs>
    <g id="Mockups" stroke="none" stroke-width="1" fill="none" fill-rule="evenodd">
        <g id="customers" transform="translate(-969.000000, -1584.000000)" fill-rule="nonzero">
            <g id="Group-4" transform="translate(370.000000, 1532.000000)">
                <g id="Group" transform="translate(570.000000, 0.000000)">
                    <g id="mazars_logo" transform="translate(29.000000, 52.000000)">
                        <g id="g10252" transform="translate(79.949384, 12.242808) scale(-1, 1) rotate(-180.000000) translate(-79.949384, -12.242808) translate(0.016126, 0.106345)">
                            <polygon id="path10172" fill="#BC2730" points="0.45700062 0.398410797 24.3089176 0.398410797 24.3089176 24.2729267 0.45700062 24.2729267"></polygon>
                            <polygon id="path10174" fill="#006092" points="24.3089176 0.398410797 48.1591606 0.398410797 48.1591606 24.2729267 24.3089176 24.2729267"></polygon>
                            <g id="g10176" transform="translate(29.862396, 6.700165)" fill="#F6AF24">
                                <path d="M0,0.836997473 L0.53986337,0.30131909 L2.06152477,1.8213065 C1.89161429,2.01046793 1.73593276,2.21469531 1.59448019,2.42645567 L0,0.836997473" id="path10178"></path>
                            </g>
                            <g id="g10180" transform="translate(30.950493, 5.614579)" fill="#F6AF24">
                                <path d="M0,0.836997473 L0.54321136,0.299645095 L2.13099557,1.89663627 C1.91839821,2.03474086 1.71417082,2.18874839 1.51915041,2.35531089 L0,0.836997473" id="path10182"></path>
                            </g>
                            <g id="g10184" transform="translate(39.312934, 5.927616)" fill="#F6AF24">
                                <path d="M1.67399495,0 L2.20967333,0.539026372 L0.693033907,2.05733979 C0.501361486,1.8882663 0.2979711,1.72923678 0.0895587296,1.5894582 L1.67399495,0" id="path10186"></path>
                            </g>
                            <g id="g10188" transform="translate(40.551691, 6.856683)" fill="#F6AF24">
                                <path d="M0,1.67399495 L1.51831342,0.158192522 L2.05817679,0.694707902 L0.468718585,2.2858401 C0.325592017,2.06905775 0.167399495,1.86901536 0,1.67399495" id="path10190"></path>
                            </g>
                            <g id="g10192" transform="translate(40.084646, 15.385688)" fill="#F6AF24">
                                <path d="M2.51099242,1.67399495 L1.97447704,2.21051033 L0.462022605,0.68884892 C0.624400115,0.497176499 0.780081644,0.295460108 0.923208212,0.0811887548 L2.51099242,1.67399495" id="path10194"></path>
                            </g>
                            <g id="g10196" transform="translate(39.004919, 16.470436)" fill="#F6AF24">
                                <path d="M2.51099242,1.67399495 L1.96945505,2.21134732 L0.379996853,0.616867137 C0.5959422,0.475414564 0.796821594,0.321407029 0.987657018,0.15568153 L2.51099242,1.67399495" id="path10198"></path>
                            </g>
                            <g id="g10200" transform="translate(30.656706, 16.170791)" fill="#F6AF24">
                                <path d="M0.836997473,2.51099242 L0.293786113,1.97364004 L1.81293653,0.455326625 C2.00795694,0.621052125 2.21218432,0.77505966 2.42478168,0.916512232 L0.836997473,2.51099242" id="path10202"></path>
                            </g>
                            <g id="g10204" transform="translate(29.565262, 15.084368)" fill="#F6AF24">
                                <path d="M0.836997473,2.51099242 L0.297134103,1.97447704 L1.89161429,0.382507845 C2.03306686,0.5959422 2.18874839,0.798495589 2.35865888,0.989331013 L0.836997473,2.51099242" id="path10206"></path>
                            </g>
                            <g id="g10208" transform="translate(25.561066, 10.707709)" fill="#F6AF24">
                                <path d="M5.02198484,2.51099242 L0.122201631,1.62544909 L5.01194087,0.703914874 C4.968417,0.991842005 4.94079608,1.2914871 4.94079608,1.59280619 C4.94079608,1.90333225 4.968417,2.21302132 5.02198484,2.51099242" id="path10210"></path>
                            </g>
                            <g id="g10212" transform="translate(35.311249, 1.620427)" fill="#F6AF24">
                                <path d="M0,5.02198484 L0.882195336,0.112157661 L1.80540355,5.01110387 C1.51831342,4.96758 1.21950532,4.93744809 0.919023225,4.93744809 C0.610171157,4.93744809 0.296297105,4.96925399 0,5.02198484" id="path10214"></path>
                            </g>
                            <g id="g10216" transform="translate(41.887539, 11.411624)" fill="#F6AF24">
                                <path d="M0,0 L4.89559822,0.888891316 L0,1.80707754 C0.046034861,1.50910644 0.0795147599,1.19858038 0.0795147599,0.888891316 C0.0795147599,0.587572226 0.046034861,0.287090133 0,0" id="path10218"></path>
                            </g>
                            <g id="g10220" transform="translate(34.605661, 17.124131)" fill="#F6AF24">
                                <path d="M2.51099242,0.836997473 L1.62461209,5.73510668 L0.705588869,0.83113849 C1.00439697,0.883032334 1.31576003,0.91065325 1.62461209,0.91065325 C1.92509419,0.91065325 2.22390228,0.883032334 2.51099242,0.836997473" id="path10222"></path>
                            </g>
                            <g id="g10224" transform="translate(55.387471, 5.939334)" fill="#006092">
                                <path d="M8.36997473,3.34798989 L3.11614159,12.7106436 L2.54782031,12.7106436 L1.67734294,2.91944718 C1.5568153,1.5886212 1.35426191,1.01946292 0.581713243,0.847041442 L0.581713243,0.471229577 C1.09479269,0.471229577 1.61289413,0.53651538 2.13015857,0.53651538 C2.64491201,0.53651538 3.16385045,0.471229577 3.68362588,0.471229577 L3.68362588,0.847041442 C2.95962306,0.981798035 2.69680586,1.45219061 2.69680586,2.3502889 C2.69680586,2.70768682 2.75037369,3.22244027 2.76292866,3.46935452 L3.06341075,8.58592007 L3.09521665,8.58592007 L7.98579289,0.416824741 L11.8903861,8.39926964 L11.923866,8.39926964 L12.3683117,3.20737431 C12.4009546,2.96799304 12.4402934,2.58799619 12.4402934,2.03557785 C12.4402934,1.46893056 12.2352291,0.913164243 11.6643968,0.847041442 L11.6643968,0.471229577 C12.267872,0.471229577 12.8546072,0.53651538 13.4597564,0.53651538 C14.0632315,0.53651538 14.6533148,0.471229577 15.2509309,0.471229577 L15.2509309,0.847041442 C14.5453421,0.881358339 14.3536697,1.65976599 14.2833619,2.52103639 L13.5091392,12.7106436 L12.9885268,12.7106436 L8.36997473,3.34798989" id="path10226"></path>
                            </g>
                            <g id="g10228" transform="translate(94.815074, 5.970303)" fill="#006092">
                                <path d="M1.67399495,10.0439697 C1.74011775,10.7822014 2.29421007,11.4526364 3.09103167,11.4526364 L8.90230512,11.4526364 L0.811887548,0.505546473 L9.57274009,0.505546473 C10.3494737,0.505546473 10.934535,0.472066575 11.4534734,0.22850031 L11.920518,2.62482407 L11.2877479,2.69764285 C10.9512749,1.81628452 10.2289461,1.54091235 7.50619333,1.54091235 C6.26911107,1.54091235 5.02449583,1.61038314 3.77820659,1.62879708 L12.1557143,12.4017916 L1.93346416,12.4017916 C1.64302604,12.4017916 1.35007692,12.4553594 1.02448491,12.5432441 L1.02448491,10.0925155 L1.67399495,10.0439697" id="path10230"></path>
                            </g>
                            <g id="g10232" transform="translate(150.732364, 5.421233)" fill="#006092">
                                <path d="M7.53297725,12.5549621 C6.49761138,13.0923145 5.32832591,13.2279081 4.17075841,13.2279081 C1.98033602,13.2279081 0.136430588,11.7623255 0.136430588,9.46811541 C0.136430588,4.966743 6.01550084,6.72945968 6.01550084,3.69032186 C6.01550084,2.36451786 4.97929796,1.49989947 3.68697387,1.49989947 C2.56707125,1.49989947 1.3592839,2.27830712 1.08223773,3.41662368 L0.46034861,3.41662368 L0.634444084,1.57104426 C1.20695036,1.18937341 2.58046321,0.777570652 3.70371382,0.777570652 C5.73761767,0.777570652 7.69116978,2.05566579 7.69116978,4.27956808 C7.69116978,8.94917698 1.80707754,6.71271973 1.80707754,10.3503107 C1.80707754,11.5564241 2.87341232,12.5064162 4.05023077,12.5064162 C5.34088087,12.5064162 6.40972664,11.9849668 6.87091225,10.6750658 L7.53297725,10.6750658 L7.53297725,12.5549621" id="path10234"></path>
                            </g>
                            <g id="g10236" transform="translate(77.243986, 5.720041)" fill="#006092">
                                <path d="M7.53297725,4.18498736 L8.13812643,2.5846482 C8.25865406,2.23813124 8.34737579,1.94601912 8.34737579,1.70663785 C8.34737579,1.30822705 8.13812643,1.06633478 7.77821751,1.06633478 L7.77821751,0.690522915 C8.35993076,0.690522915 8.93243703,0.755808718 9.51917226,0.755808718 C10.1067445,0.755808718 10.6750658,0.690522915 11.262638,0.690522915 L11.262638,1.06633478 C10.6424229,1.13245758 10.4867413,1.70663785 9.87824417,3.24001722 L6.10589656,12.929937 L5.89832119,12.929937 L2.22473928,3.65181997 C1.89747327,2.82235548 1.24628924,1.20109137 0.547396347,1.06633478 L0.547396347,0.690522915 C1.05377982,0.690522915 1.53086838,0.755808718 2.03808885,0.755808718 C2.53359135,0.755808718 3.01904988,0.690522915 3.51790038,0.690522915 L3.51790038,1.06633478 C3.10191263,1.06633478 2.89266327,1.39443779 2.89266327,1.80791454 C2.89266327,1.99874996 2.92865416,2.37707282 3.01904988,2.67085893 L3.48609447,4.18498736 L7.53297725,4.18498736 Z M3.8100125,5.01612585 L5.48568144,9.54763017 L7.22747318,5.01612585 L3.8100125,5.01612585 Z" id="path10238"></path>
                            </g>
                            <g id="g10240" transform="translate(113.023117, 5.720041)" fill="#006092">
                                <path d="M7.53297725,4.18498736 L8.12891945,2.5846482 C8.25195808,2.23813124 8.33900582,1.94601912 8.33900582,1.70663785 C8.33900582,1.30822705 8.12891945,1.06633478 7.76315156,1.06633478 L7.76315156,0.690522915 C8.35239778,0.690522915 8.91904507,0.755808718 9.51247628,0.755808718 C10.0967005,0.755808718 10.6591628,0.690522915 11.247572,0.690522915 L11.247572,1.06633478 C10.6281939,1.13245758 10.4733494,1.70663785 9.86485221,3.24001722 L6.0941786,12.929937 L5.88158124,12.929937 L2.21302132,3.65181997 C1.88575531,2.82235548 1.23457127,1.20109137 0.542374362,1.06633478 L0.542374362,0.690522915 C1.04457285,0.690522915 1.5224984,0.755808718 2.02218589,0.755808718 C2.52856936,0.755808718 3.00565792,0.690522915 3.50785641,0.690522915 L3.50785641,1.06633478 C3.09270566,1.06633478 2.88764128,1.39443779 2.88764128,1.80791454 C2.88764128,1.99874996 2.92698016,2.37707282 3.00565792,2.67085893 L3.47019152,4.18498736 L7.53297725,4.18498736 Z M3.79996853,5.01612585 L5.47145248,9.54763017 L7.21240722,5.01612585 L3.79996853,5.01612585 Z" id="path10242"></path>
                            </g>
                            <g id="g10244" transform="translate(132.056439, 5.621275)" fill="#006092">
                                <path d="M3.34798989,11.7179646 C3.34798989,12.1498553 3.82758944,12.2009122 4.28207907,12.2009122 C6.15611641,12.2009122 6.8868152,10.7863864 6.8868152,9.20027622 C6.8868152,7.56143517 5.52502032,6.49342639 3.9397471,6.49342639 C3.72714975,6.49342639 3.52208536,6.53025428 3.26010516,6.54615723 L3.34798989,11.7179646 Z M0.554929324,0.789288617 C1.17514445,0.789288617 1.76104268,0.855411417 2.3854428,0.855411417 C3.00565792,0.855411417 3.60745911,0.789288617 4.22767423,0.789288617 L4.22767423,1.16593748 C3.34798989,1.35258792 3.26010516,1.87320034 3.26010516,2.59385517 L3.26010516,6.00629386 C3.67358191,6.00629386 4.03600181,5.55850022 4.29463403,5.26889909 L7.15800239,1.92593118 C7.36641476,1.68069092 7.4191456,1.52668339 7.4191456,1.37183886 C7.40073165,1.25214822 7.34548982,1.18267743 7.23249516,1.16593748 L7.23249516,0.789288617 C7.79914245,0.789288617 8.36327875,0.855411417 8.93913301,0.855411417 C9.50243231,0.855411417 10.0866565,0.789288617 10.6599998,0.789288617 L10.6599998,1.16593748 C10.1887702,1.25214822 9.60789399,1.81879551 9.35177276,2.13183256 L5.86567829,6.16699738 C7.40073165,6.54615723 8.98516787,7.66354886 8.98516787,9.41036258 C8.98516787,11.271008 7.47187644,12.8211273 4.36745281,12.8211273 C3.07261772,12.8211273 2.55367929,12.7508195 2.03808885,12.7508195 C1.48818151,12.7508195 0.922371215,12.8211273 0.369952883,12.8211273 L0.369952883,12.4419674 C1.24545224,12.2728939 1.33501097,11.8359813 1.33501097,11.0299527 C1.33501097,9.56185913 1.41619972,8.07869961 1.41619972,6.59554008 L1.41619972,2.16531246 C1.41619972,1.57941423 1.13915356,1.30069407 0.554929324,1.16593748 L0.554929324,0.789288617 Z" id="path10246"></path>
                            </g>
                            <g id="g10248" transform="translate(4.223489, 6.299243)" fill="#F6AF24">
                                <path d="M8.36997473,2.51099242 L13.1835472,12.3632897 L13.4773333,12.3632897 L13.9761838,2.12346259 C14.0473286,0.733209786 14.1494423,0.575854261 14.905251,0.45365263 L14.905251,0.144800563 C14.4072375,0.144800563 13.893321,0.212597358 13.2864979,0.212597358 C12.7884844,0.212597358 12.2745679,0.144800563 11.8443512,0.144800563 L11.8443512,0.45365263 C12.5658431,0.504709476 12.7014366,1.00272297 12.7014366,1.6221011 C12.7014366,2.27495913 12.6704677,2.82737746 12.6520538,3.10609762 L12.3072108,9.21283118 L12.241088,9.21283118 L7.9799339,0.521449425 L3.01570189,9.23040813 L2.93535014,9.23040813 L2.60892112,3.83093743 C2.57293023,3.38146979 2.57293023,2.58799619 2.57293023,2.14187653 C2.57293023,0.936600172 3.05336678,0.521449425 3.63424303,0.45365263 L3.63424303,0.144800563 C3.15882846,0.144800563 2.65662998,0.212597358 2.13936554,0.212597358 C1.64302604,0.212597358 1.16593748,0.144800563 0.664575993,0.144800563 L0.664575993,0.45365263 C1.57271825,0.659554008 1.70998584,0.951666126 1.81795851,2.45323959 L2.46746855,12.3632897 L2.77966861,12.3632897 L8.36997473,2.51099242" id="path10250"></path>
                            </g>
                        </g>
                    </g>
                </g>
            </g>
        </g>
    </g>
</svg>