<?xml version="1.0" encoding="UTF-8"?>
<svg width="209px" height="26px" viewBox="0 0 209 26" version="1.1" xmlns="http://www.w3.org/2000/svg" xmlns:xlink="http://www.w3.org/1999/xlink">
    <!-- Generator: sketchtool 50.2 (55047) - http://www.bohemiancoding.com/sketch -->
    <title>E2A44DB9-61D5-4D25-92C4-5E7B05D8BEA5</title>
    <desc>Created with sketchtool.</desc>
    <defs></defs>
    <g id="Mockups" stroke="none" stroke-width="1" fill="none" fill-rule="evenodd">
        <g id="large-enterprises" transform="translate(-600.000000, -2247.000000)" fill="#F80000" fill-rule="nonzero">
            <g id="div-problem" transform="translate(-390.000000, 652.000000)">
                <g id="Oracle_logo" transform="translate(990.307692, 1595.000000)">
                    <path d="M86.7846254,16.8932371 L100.068044,16.8932371 L93.044246,5.66528084 L80.1531552,25.9659181 L74.2861956,25.9659181 L89.9660589,1.58052523 C90.6478077,0.595252923 91.783998,0 93.044246,0 C94.2630216,0 95.3992315,0.574737036 96.0603324,1.53947397 L111.802159,25.9659181 L105.935183,25.9659181 L103.166905,21.4295793 L89.7181068,21.4295793 L86.7846254,16.8932371 Z M147.727429,21.4295793 L147.727429,0.246317264 L142.748717,0.246317264 L142.748717,23.5027552 C142.748717,24.1390756 142.996663,24.7548607 143.471772,25.2269631 C143.946848,25.6990817 144.587298,25.9659181 145.289701,25.9659181 L167.993509,25.9659181 L170.926997,21.4295793 L147.727429,21.4295793 Z M65.3616968,17.6321922 C70.1958758,17.6321922 74.1210053,13.7527058 74.1210053,8.94951428 C74.1210053,4.14633899 70.1958758,0.246317264 65.3616968,0.246317264 L43.5812927,0.246317264 L43.5812927,25.9659181 L48.5580306,25.9659181 L48.5580306,4.7826594 L65.0311464,4.7826594 C67.3449928,4.7826594 69.2042278,6.6505499 69.2042278,8.94951428 C69.2042278,11.2484754 67.3449928,13.1163854 65.0311464,13.1163854 L50.9957714,13.09585 L65.8574375,25.9659181 L73.0880581,25.9659181 L63.0893162,17.6321922 L65.3616968,17.6321922 Z M12.9447775,25.9659181 C5.79889878,25.9659181 0,20.2185218 0,13.1163854 C0,6.01423273 5.79889878,0.246317264 12.9447775,0.246317264 L27.9903016,0.246317264 C35.1381604,0.246317264 40.9329322,6.01423273 40.9329322,13.1163854 C40.9329322,20.2185218 35.1381604,25.9659181 27.9903016,25.9659181 L12.9447775,25.9659181 Z M27.6556242,21.4295793 C32.285294,21.4295793 36.0348226,17.7142914 36.0348226,13.1163854 C36.0348226,8.51845988 32.285294,4.7826594 27.6556242,4.7826594 L13.2773081,4.7826594 C8.6497851,4.7826594 4.89810639,8.51845988 4.89810639,13.1163854 C4.89810639,17.7142914 8.6497851,21.4295793 13.2773081,21.4295793 L27.6556242,21.4295793 Z M122.193389,25.9659181 C115.045514,25.9659181 109.240524,20.2185218 109.240524,13.1163854 C109.240524,6.01423273 115.045514,0.246317264 122.193389,0.246317264 L140.063044,0.246317264 L137.150207,4.7826594 L122.523939,4.7826594 C117.896397,4.7826594 114.136631,8.51845988 114.136631,13.1163854 C114.136631,17.7142914 117.896397,21.4295793 122.523939,21.4295793 L140.476167,21.4295793 L137.542712,25.9659181 L122.193389,25.9659181 Z M183.074235,21.4295793 C179.252352,21.4295793 176.008965,18.8842976 175.017314,15.374279 L196.295697,15.374279 L199.229185,10.8379401 L175.017314,10.8379401 C176.008965,7.34845368 179.252352,4.7826594 183.074235,4.7826594 L197.679852,4.7826594 L200.633992,0.246317264 L182.743685,0.246317264 C175.59581,0.246317264 169.79082,6.01423273 169.79082,13.1163854 C169.79082,20.2185218 175.59581,25.9659181 182.743685,25.9659181 L198.093008,25.9659181 L201.026463,21.4295793 L183.074235,21.4295793 Z" id="path16197"></path>
                    <path d="M203.327701,3.74845686 C203.327701,2.48014565 204.349996,1.46135559 205.62289,1.46135559 C206.916642,1.46135559 207.938938,2.48014565 207.938938,3.74845686 C207.938938,5.03752944 206.916642,6.05633923 205.62289,6.05633923 C204.349996,6.05633923 203.327701,5.03752944 203.327701,3.74845686 Z M205.62289,6.7008821 C207.250345,6.7008821 208.564955,5.39099225 208.564955,3.76923796 C208.564955,2.14748367 207.250345,0.837610263 205.62289,0.837610263 C204.016129,0.837610263 202.701684,2.14748367 202.701684,3.76923796 C202.701684,5.39099225 204.016129,6.7008821 205.62289,6.7008821 Z M205.351598,2.02274118 C205.810616,2.02274118 205.998474,2.04352228 206.207191,2.12668284 C206.79136,2.31382453 206.853902,2.83360846 206.853902,3.04153124 C206.853902,3.08311317 206.853902,3.18707127 206.812185,3.31181376 C206.79136,3.43657598 206.707926,3.6860774 206.415776,3.87319935 C206.374059,3.89399689 206.3532,3.91478128 206.269766,3.95635991 L207.020935,5.30783169 L206.290625,5.30783169 L205.62289,4.0603213 L205.163905,4.0603213 L205.163905,5.30783169 L204.517029,5.30783169 L204.517029,2.02274118 L205.351598,2.02274118 Z M205.581173,3.51973654 C205.789758,3.49895544 205.998474,3.49895544 206.123625,3.31181376 C206.186168,3.2286532 206.207191,3.14549263 206.207191,3.02073041 C206.207191,2.85440929 206.102767,2.70886597 205.956758,2.62568897 C205.810616,2.56332594 205.664607,2.56332594 205.351598,2.56332594 L205.163905,2.56332594 L205.163905,3.51973654 L205.581173,3.51973654 Z" id="path16199"></path>
                </g>
            </g>
        </g>
    </g>
</svg>