<?xml version="1.0" encoding="UTF-8"?>
<svg width="89px" height="44px" viewBox="0 0 89 44" version="1.1" xmlns="http://www.w3.org/2000/svg" xmlns:xlink="http://www.w3.org/1999/xlink">
    <!-- Generator: sketchtool 50.2 (55047) - http://www.bohemiancoding.com/sketch -->
    <title>B3AEB053-26EA-4205-B65F-E795FF7C88B3</title>
    <desc>Created with sketchtool.</desc>
    <defs>
        <linearGradient x1="49.9649146%" y1="0.0540357987%" x2="49.9649146%" y2="100.003538%" id="linearGradient-1">
            <stop stop-color="#00B8F1" offset="0%"></stop>
            <stop stop-color="#06A5E5" offset="21.9864%"></stop>
            <stop stop-color="#06A5E5" offset="21.9864%"></stop>
            <stop stop-color="#1870C5" offset="79.4312%"></stop>
            <stop stop-color="#1D61BC" offset="100%"></stop>
        </linearGradient>
    </defs>
    <g id="Mockups" stroke="none" stroke-width="1" fill="none" fill-rule="evenodd">
        <g id="large-enterprises" transform="translate(-129.000000, -2229.000000)">
            <g id="div-problem" transform="translate(-390.000000, 652.000000)">
                <g id="Sap_logo" transform="translate(519.000000, 1577.000000)">
                    <polygon id="path3060" fill="url(#linearGradient-1)" fill-rule="nonzero" points="0 0 0 44 44.9763202 44 89 0.00495328155 89 0.00495328155 0 0.00495328155"></polygon>
                    <path d="M56.8710388,39.2649058 L56.8710388,42.7027139 L57.3871589,42.7027139 L57.3871589,41.2108349 L57.9676909,41.2108349 L58.9032103,42.7027139 L59.4838454,42.7027139 L58.483811,41.2108349 C58.9835186,41.1485652 59.3870213,40.8564164 59.3870213,40.2378704 C59.3870213,39.5601681 58.9745381,39.2649058 58.1613392,39.2649058 L56.8710388,39.2649058 Z M57.3871589,39.7189559 L58.0967209,39.7189559 C58.4457214,39.7189559 58.8386952,39.7760365 58.8386952,40.2053863 C58.8386952,40.7420476 58.4407666,40.7892688 58,40.7892688 L57.3871589,40.7892688 L57.3871589,39.7189559 Z M58.0323091,38 C56.395176,38 55,39.2683307 55,40.983758 C55,42.711743 56.3950728,44 58.0323091,44 C59.646733,44 61,42.7119506 61,40.983758 C61,39.2683307 59.646733,38 58.0323091,38 Z M58.0323091,38.4865342 C59.3679249,38.4865342 60.4192616,39.5713767 60.4192616,40.983758 C60.4192616,42.4203207 59.3679249,43.4810856 58.0323091,43.4810856 C56.6737777,43.4810856 55.5807384,42.4203207 55.5807384,40.983758 C55.5807384,39.5713767 56.6737777,38.4865342 58.0323091,38.4865342 Z" id="path5384" fill="#1870C5" fill-rule="nonzero"></path>
                    <path d="M54.1825754,21.6495212 L52.2499164,21.6495212 L52.2499164,14.3831855 L54.1825754,14.3831855 C56.7627644,14.3831855 58.8165869,15.2571469 58.8165869,17.9698986 C58.8165869,20.7714758 56.7627644,21.6495212 54.1825754,21.6495212 M33.3811669,26.8442825 C32.3582282,26.8442825 31.3988508,26.6523377 30.5695753,26.331749 L33.3533589,17.3062597 L33.4129475,17.3062597 L36.1391288,26.3562526 C35.3177984,26.6584636 34.3832496,26.8442825 33.3841463,26.8442825 M53.6701129,8.47986199 L44.8936962,8.47986199 L44.8936962,29.9337769 L37.2266218,8.47986199 L29.6270813,8.47986199 L23.0763011,26.4164906 C22.3840795,21.8955781 17.8285264,20.3304112 14.2472478,19.1634277 C11.8865437,18.3823757 9.3738885,17.2347909 9.39673082,15.9636671 C9.4165937,14.9243064 10.746414,13.9604985 13.3693082,14.1044571 C15.1371052,14.1963456 16.6963418,14.3433671 19.7919727,15.8819885 L22.8409259,10.4217716 C20.0164234,8.93828334 16.1024415,8.00714688 12.9005441,8 L12.8806812,8 C9.14546529,8 6.0329509,9.25172511 4.10227828,11.3008379 C2.76054026,12.734298 2.03455174,14.5475637 2.00177797,16.566047 C1.95212076,19.3308689 2.94228567,21.2931981 5.01497794,22.862449 C6.76887086,24.1836009 9.00642509,25.0340797 10.9827823,25.6711731 C13.4209517,26.4440572 15.411213,27.1189269 15.3883707,28.5574919 C15.3685078,29.0812562 15.1788172,29.572349 14.8103607,29.9603225 C14.2035495,30.6086467 13.2709869,30.8485777 11.9808924,30.8781862 C9.49405896,30.9292353 7.6497899,30.531052 4.71206891,28.7463738 L2.00177797,34.2831643 C4.93056067,35.9973947 8.3976276,37 11.9362009,37 L12.3940405,37 C15.472788,36.938741 17.9596214,36.0351711 19.9469033,34.3934305 L20.268682,34.1044923 L19.3907424,36.5303478 L27.3607259,36.5303478 L28.6994844,32.3453387 C30.099818,32.8323476 31.6948078,33.105971 33.3831532,33.105971 C35.0307797,33.105971 36.5850506,32.8507252 37.9605555,32.385157 L39.2476706,36.5303478 L52.2519027,36.5303478 L52.2519027,27.8622025 L55.0893162,27.8622025 C61.9420122,27.8622025 66,24.2765104 66,18.2588368 C66,11.5611886 62.0592032,8.48905084 53.6691197,8.48905084" id="path3100" fill="#FFFFFF"></path>
                </g>
            </g>
        </g>
    </g>
</svg>