<?xml version="1.0" encoding="UTF-8"?>
<svg width="150px" height="21px" viewBox="0 0 150 21" version="1.1" xmlns="http://www.w3.org/2000/svg" xmlns:xlink="http://www.w3.org/1999/xlink">
    <!-- Generator: sketchtool 50.2 (55047) - http://www.bohemiancoding.com/sketch -->
    <title>0A0E6ADC-A76E-4954-A803-7CEC47A08E58</title>
    <desc>Created with sketchtool.</desc>
    <defs></defs>
    <g id="Mockups" stroke="none" stroke-width="1" fill="none" fill-rule="evenodd">
        <g id="customers" transform="translate(-969.000000, -1126.000000)" fill="#00679F" fill-rule="nonzero">
            <g id="Group-4" transform="translate(370.000000, 1072.000000)">
                <g id="Group" transform="translate(570.000000, 0.000000)">
                    <g id="The_Carlyle_Group-logo" transform="translate(29.000000, 54.000000)">
                        <g id="g3011" transform="translate(75.001003, 10.056000) scale(-1, 1) rotate(-180.000000) translate(-75.001003, -10.056000) translate(3.352000, 3.352000)">
                            <g id="g3021" transform="translate(0.170996, 1.001227)">
                                <path d="M4.36884162,2.6711251 C4.36884162,2.08080645 4.33738596,1.67479544 4.22903869,1.50384343 C4.13904055,1.3480278 3.95554921,1.2874823 3.58856651,1.2696748 L2.85634865,1.22337529 L2.85634865,0.756818778 C3.65060406,0.787091529 4.36884162,0.802227904 5.11766108,0.802227904 C5.82017081,0.802227904 6.5375346,0.787091529 7.33353755,0.756818778 L7.33353755,1.22337529 L6.59869839,1.2696748 C6.234337,1.2874823 6.04909811,1.3480278 5.9582262,1.50384343 C5.8507527,1.67479544 5.82017081,2.08080645 5.82017081,2.6711251 L5.82017081,9.25990034 C5.82017081,9.85199973 5.83502487,10.348829 5.88133459,10.8162759 L8.25099429,10.8162759 C8.70884889,10.8162759 8.83117646,10.676487 8.86088458,10.3025295 L8.92204836,9.07203121 L9.39650456,9.07203121 C9.39650456,9.91521636 9.42621268,10.769086 9.5031043,11.5802177 C8.40302998,11.5802177 7.30208189,11.5339182 6.20200757,11.5339182 L3.9861311,11.5339182 C2.88518301,11.5339182 1.78510869,11.5802177 0.685034366,11.5802177 C0.761925979,10.769086 0.791634102,9.91521636 0.791634102,9.07203121 L1.26521653,9.07203121 L1.32725408,10.3025295 C1.35783598,10.676487 1.48103731,10.8162759 1.93801814,10.8162759 L4.30767784,10.8162759 C4.35311379,10.348829 4.36884162,9.85199973 4.36884162,9.25990034 L4.36884162,2.6711251 Z" id="path3023"></path>
                            </g>
                            <g id="g3025" transform="translate(9.859514, 1.456297)">
                                <path d="M1.74753665,1.78075006 C1.74753665,0.909072908 1.56491907,0.737230527 0.373099075,0.737230527 L0.373099075,0.301837136 C1.01444502,0.316973512 1.65666474,0.347246263 2.29801069,0.347246263 C3.01712202,0.347246263 3.75021365,0.316973512 4.43874309,0.301837136 L4.43874309,0.737230527 C3.33692123,0.737230527 3.1254693,0.814693155 3.1254693,1.78075006 L3.1254693,4.1010674 C3.73448582,4.11709415 4.37670554,4.13134015 5.09406933,4.13134015 C5.81318066,4.13134015 6.45540038,4.11709415 7.06616444,4.1010674 L7.06616444,1.78075006 C7.06616444,0.814693155 6.8520912,0.737230527 5.75201688,0.737230527 L5.75201688,0.301837136 C6.44142009,0.316973512 7.17189041,0.347246263 7.89187551,0.347246263 C8.53409523,0.347246263 9.17544118,0.316973512 9.81678713,0.301837136 L9.81678713,0.737230527 C8.6258409,0.737230527 8.44322332,0.909072908 8.44322332,1.78075006 L8.44322332,6.54603724 C8.44322332,7.46579465 8.65554902,7.49517702 9.87882468,7.49517702 L9.87882468,7.93235116 C9.25145902,7.91721479 8.44322332,7.88605166 7.84556579,7.88605166 C7.14305605,7.88605166 6.54714606,7.91721479 5.75201688,7.93235116 L5.75201688,7.49517702 C6.89840092,7.49517702 7.06616444,7.46579465 7.06616444,6.54603724 L7.06616444,4.66022292 C6.45540038,4.64686729 5.81318066,4.63173092 5.09406933,4.63173092 C4.37670554,4.63173092 3.73448582,4.64686729 3.1254693,4.66022292 L3.1254693,6.54603724 C3.1254693,7.46579465 3.29148528,7.49517702 4.43874309,7.49517702 L4.43874309,7.93235116 C3.64274014,7.91721479 3.04770392,7.88605166 2.34519418,7.88605166 C1.74753665,7.88605166 0.937553412,7.91721479 0.311935292,7.93235116 L0.311935292,7.49517702 C1.53521095,7.49517702 1.74753665,7.46579465 1.74753665,6.54603724 L1.74753665,1.78075006 Z" id="path3027"></path>
                            </g>
                            <g id="g3029" transform="translate(20.737930, 1.705959)">
                                <path d="M1.74753665,1.78075006 C1.74753665,0.674904275 1.65579097,0.487035143 0.433389089,0.487035143 L0.433389089,0.0516417519 C1.18220854,0.0676685025 1.71782853,0.0979412536 2.40461043,0.0979412536 C3.13857582,0.0979412536 3.88652151,0.0516417519 4.77252259,0.0516417519 C5.49163392,0.0516417519 6.24132714,0.0676685025 6.85296497,0.12910438 C6.91325498,0.737230527 6.95869094,1.45220168 6.973545,2.24730658 L6.57685418,2.24730658 C6.49996257,1.73266981 6.39336283,1.26700367 6.24132714,0.844965906 C5.87347068,0.737230527 5.20066907,0.659767899 4.52874123,0.659767899 C4.00972284,0.659767899 3.59730419,0.689150275 3.18313801,0.721203776 C3.13857582,1.45220168 3.12197422,2.48058484 3.12197422,3.72710989 C3.36837689,3.74224626 3.61303202,3.75738264 3.99399501,3.75738264 C5.32299663,3.75738264 5.4453242,3.57129426 5.4453242,2.59099134 L5.90492634,2.59099134 C5.88832474,3.02638474 5.87347068,3.5552675 5.87347068,4.03874115 C5.87347068,4.45810779 5.88832474,4.94336218 5.90492634,5.36183845 L5.4453242,5.36183845 C5.4453242,4.48927091 5.32299663,4.31831891 4.59077878,4.31831891 C3.88652151,4.31831891 3.47497663,4.33256491 3.12197422,4.35037241 C3.12197422,5.25232232 3.10799393,6.26645948 3.15430365,7.07581038 C3.42866691,7.12210988 3.75021365,7.17019014 4.11632258,7.17019014 C4.8494142,7.17019014 5.58337959,7.12210988 6.17841582,7.01259376 C6.2701615,6.68582612 6.28501556,6.35905848 6.33219905,5.76873984 L6.76034553,5.76873984 C6.79092742,6.51487411 6.85296497,7.10697351 6.94383687,7.63585628 C6.45540038,7.71420928 5.70570716,7.76050878 5.09406933,7.76050878 C4.54446906,7.76050878 3.97826718,7.72934566 3.42866691,7.69907291 C2.87819286,7.6670194 2.32771882,7.63585628 1.76326448,7.63585628 C1.22851826,7.63585628 0.800371785,7.6670194 0.326789353,7.68215578 L0.326789353,7.26189876 C1.4731734,7.26189876 1.74753665,7.19957251 1.74753665,6.1729701 L1.74753665,1.78075006 Z" id="path3031"></path>
                            </g>
                            <g id="g3033" transform="translate(32.514754, 1.330933)">
                                <path d="M10.4852199,1.78075006 L10.348912,1.9365657 C9.64552853,1.40768293 8.34623504,1.00345266 7.24703448,1.00345266 C4.21942724,1.00345266 2.21849778,2.99522161 2.21849778,6.08126147 C2.21849778,8.72834644 3.73099075,10.8607946 6.60481476,10.8607946 C7.17014287,10.8607946 7.82721665,10.7681956 8.31477938,10.5963533 C9.01816288,10.3319119 9.63067447,10.0665801 9.63067447,9.62940598 L9.63067447,8.51020456 L10.1033831,8.51020456 C10.1033831,9.31866509 10.2414385,10.1449331 10.394348,10.8777118 C9.6603826,11.1403724 8.28507125,11.5143299 6.86345019,11.5143299 C5.15261181,11.5143299 3.59293535,10.9854472 2.44742508,10.0193902 C1.27133291,9.0399777 0.582803472,7.6207199 0.582803472,5.83017571 C0.582803472,2.29449646 3.05818914,0.162048256 6.72539479,0.162048256 C7.65857936,0.162048256 9.17107233,0.457652767 10.058821,1.00345266 L10.4852199,1.78075006 Z" id="path3035"></path>
                            </g>
                            <g id="g3037" transform="translate(42.608788, 1.646392)">
                                <path d="M4.36884162,6.23262523 L5.65240729,3.17863887 C5.1473692,3.16439287 4.75067838,3.14747574 4.26136812,3.14747574 C3.81836758,3.14747574 3.42080299,3.16439287 3.02411217,3.17863887 L4.36884162,6.23262523 Z M4.44485947,7.91276291 L1.90831002,2.23038946 C1.22152812,0.641960398 0.975999218,0.54669027 0.289217315,0.54669027 L0.289217315,0.111296879 C0.975999218,0.12732363 1.32725408,0.156706006 1.78510869,0.156706006 C2.33558273,0.156706006 2.87032895,0.12732363 3.37449327,0.111296879 L3.37449327,0.54669027 C2.59596569,0.54669027 2.24471083,0.670452399 2.24471083,1.10673617 C2.24471083,1.68369919 2.62567382,2.1965552 2.76372921,2.52599397 C3.28362136,2.54023997 3.80263975,2.55537634 4.30767784,2.55537634 C4.84242405,2.55537634 5.36231621,2.54023997 5.88046082,2.52599397 C6.07968,2.08881983 6.49209865,1.30974167 6.49209865,0.968728035 C6.49209865,0.670452399 6.26317135,0.54669027 5.36231621,0.54669027 L5.36231621,0.111296879 C6.03337028,0.12732363 6.60044592,0.156706006 7.24091811,0.156706006 C7.89799189,0.156706006 8.81457486,0.12732363 9.06010376,0.111296879 L9.06010376,0.54669027 C8.47992159,0.54669027 8.15837485,0.609906897 7.68479241,1.76027144 L5.02504163,7.91276291 L4.44485947,7.91276291 Z" id="path3039"></path>
                            </g>
                            <g id="g3041" transform="translate(52.411857, 1.757956)">
                                <path d="M0,0 C0.703383501,0.0160267506 1.39278671,0.0454091267 2.07956861,0.0454091267 C3.19449699,0.0454091267 3.73011698,0.0160267506 4.09622591,0 L4.09622591,0.435393391 C2.93411403,0.435393391 2.75062269,0.466556517 2.75062269,1.19844479 L2.75062269,6.960952 C3.02673348,7.08560451 3.39458994,7.11765801 3.73011698,7.11765801 C4.8301913,7.11765801 5.35183099,6.66534749 5.35183099,5.65388146 C5.35183099,4.7180973 4.64844749,4.03428927 3.73011698,4.03428927 C3.51604374,4.03428927 3.34828022,4.04853527 3.17964293,4.06456202 L3.11847915,3.81525701 L6.17404698,0.0454091267 L8.07012425,0.0454091267 L8.07012425,0.435393391 C7.59654181,0.435393391 7.47421425,0.55915552 7.1692691,0.934003409 L4.8301913,3.84820089 C5.56328292,4.12777865 6.87830425,4.49995541 6.87830425,5.94859559 C6.87830425,7.24231051 5.8699756,7.63051403 4.50951832,7.63051403 C3.69953509,7.63051403 2.81266024,7.58421453 2.01840483,7.58421453 C1.28443944,7.58421453 0.657947548,7.63051403 0,7.63051403 L0,7.19423026 C1.25385755,7.19423026 1.37618511,7.08560451 1.37618511,6.27536323 L1.37618511,1.38631393 C1.37618511,0.466556517 1.10007432,0.435393391 0,0.435393391 L0,0 Z" id="path3043"></path>
                            </g>
                            <g id="g3045" transform="translate(61.327440, 1.642831)">
                                <path d="M1.74753665,1.78075006 C1.74753665,0.752366902 1.53258964,0.659767899 0.859788031,0.55025177 L0.859788031,0.114858379 C1.39628178,0.13088513 1.80782666,0.160267506 2.45004638,0.160267506 C3.16741018,0.160267506 3.61128449,0.114858379 5.0783415,0.114858379 C5.75114311,0.114858379 6.45365284,0.13088513 6.9569434,0.160267506 C7.00325312,0.893936533 7.0810185,1.54747181 7.21732636,2.21792421 L6.75947176,2.21792421 L6.45365284,0.954482035 C6.02550637,0.800447154 5.17008718,0.737230527 4.22204854,0.737230527 C3.79477583,0.737230527 3.48895692,0.752366902 3.18313801,0.769284028 C3.13770205,1.26700367 3.12197422,1.68726069 3.12197422,2.21792421 L3.12197422,6.34392211 C3.12197422,7.29484264 3.45837503,7.30908864 4.43699555,7.30908864 L4.43699555,7.74537241 C3.59555666,7.73023603 2.84761097,7.69907291 2.32684505,7.69907291 C1.62520908,7.69907291 1.07473504,7.73023603 0.372225306,7.74537241 L0.372225306,7.30908864 C1.50200775,7.30908864 1.74753665,7.29484264 1.74753665,6.57809074 L1.74753665,1.78075006 Z" id="path3047"></path>
                            </g>
                            <g id="g3049" transform="translate(68.408458, 1.757956)">
                                <path d="M1.74753665,0 C2.41509565,0.0160267506 2.96120085,0.0454091267 3.75196119,0.0454091267 C4.30156146,0.0454091267 5.09581687,0.0160267506 5.77036602,0 L5.77036602,0.435393391 C4.85203551,0.435393391 4.45447092,0.466556517 4.45447092,1.52521243 L4.45447092,3.13055861 C5.30989011,4.67268817 6.27453034,6.32433386 7.17451171,7.36696302 L7.17451171,7.58421453 L6.13647494,7.58421453 C5.5860009,6.50953186 4.48330527,4.51509179 4.14952577,3.90874639 L2.77945704,6.49439549 C2.42907594,7.16484789 2.0358802,7.58421453 1.64093691,7.72489378 C1.21715928,7.59846053 0.543483898,7.53791502 0.069901466,7.45956202 L0.069901466,7.02327826 C0.621249279,7.02327826 0.789886565,6.93067925 1.42861121,6.01181222 C1.83928232,5.41971282 2.39936782,4.48392866 3.08352842,3.22404799 L3.08352842,1.18330842 C3.08352842,0.669562024 2.86945518,0.435393391 1.74753665,0.435393391 L1.74753665,0 Z" id="path3051"></path>
                            </g>
                            <g id="g3053" transform="translate(76.362633, 1.642831)">
                                <path d="M1.74753665,1.78075006 C1.74753665,0.752366902 1.53433718,0.659767899 0.8606618,0.55025177 L0.8606618,0.114858379 C1.39628178,0.13088513 1.8095742,0.160267506 2.45004638,0.160267506 C3.16828394,0.160267506 3.61303202,0.114858379 5.07921527,0.114858379 C5.75289065,0.114858379 6.45452661,0.13088513 6.96043847,0.160267506 C7.00762196,0.893936533 7.0810185,1.54747181 7.22082143,2.21792421 L6.76034553,2.21792421 L6.45452661,0.954482035 C6.02812767,0.800447154 5.17270848,0.737230527 4.22466985,0.737230527 C3.79477583,0.737230527 3.48895692,0.752366902 3.18313801,0.769284028 C3.13770205,1.26700367 3.12284799,1.68726069 3.12284799,2.21792421 L3.12284799,6.34392211 C3.12284799,7.29484264 3.4592488,7.30908864 4.43961686,7.30908864 L4.43961686,7.74537241 C3.59643042,7.73023603 2.84761097,7.69907291 2.32946635,7.69907291 C1.62520908,7.69907291 1.07560881,7.73023603 0.372225306,7.74537241 L0.372225306,7.30908864 C1.50375529,7.30908864 1.74753665,7.29484264 1.74753665,6.57809074 L1.74753665,1.78075006 Z" id="path3055"></path>
                            </g>
                            <g id="g3057" transform="translate(83.712772, 1.705959)">
                                <path d="M1.74753665,1.78075006 C1.74753665,0.674904275 1.65579097,0.487035143 0.432515321,0.487035143 L0.432515321,0.0516417519 C1.18133477,0.0676685025 1.71520722,0.0979412536 2.40461043,0.0979412536 C3.13857582,0.0979412536 3.88564774,0.0516417519 4.77252259,0.0516417519 C5.49076015,0.0516417519 6.24045337,0.0676685025 6.85296497,0.12910438 C6.91238122,0.737230527 6.95869094,1.45220168 6.97267123,2.24730658 L6.57772795,2.24730658 C6.49996257,1.73266981 6.39336283,1.26700367 6.24045337,0.844965906 C5.87434445,0.737230527 5.2024166,0.659767899 4.52874123,0.659767899 C4.00972284,0.659767899 3.59555666,0.689150275 3.1805167,0.721203776 C3.13857582,1.45220168 3.12197422,2.48058484 3.12197422,3.72710989 C3.36488182,3.74224626 3.61215825,3.75738264 3.99312124,3.75738264 C5.32474417,3.75738264 5.44619797,3.57129426 5.44619797,2.59099134 L5.90405257,2.59099134 C5.88832474,3.02638474 5.87434445,3.5552675 5.87434445,4.03874115 C5.87434445,4.45810779 5.88832474,4.94336218 5.90405257,5.36183845 L5.44619797,5.36183845 C5.44619797,4.48927091 5.32474417,4.31831891 4.59077878,4.31831891 C3.88564774,4.31831891 3.47235532,4.33256491 3.12197422,4.35037241 C3.12197422,5.25232232 3.10712016,6.26645948 3.15168235,7.07581038 C3.4260456,7.12210988 3.74846611,7.17019014 4.11632258,7.17019014 C4.8494142,7.17019014 5.58250583,7.12210988 6.18016336,7.01259376 C6.27103526,6.68582612 6.28588933,6.35905848 6.33219905,5.76873984 L6.75947176,5.76873984 C6.79005365,6.51487411 6.85296497,7.10697351 6.94296311,7.63585628 C6.45540038,7.71420928 5.70483339,7.76050878 5.09319556,7.76050878 C4.54446906,7.76050878 3.97826718,7.72934566 3.4260456,7.69907291 C2.87819286,7.6670194 2.32684505,7.63585628 1.76151694,7.63585628 C1.22851826,7.63585628 0.799498017,7.6670194 0.326789353,7.68215578 L0.326789353,7.26189876 C1.4731734,7.26189876 1.74753665,7.19957251 1.74753665,6.1729701 L1.74753665,1.78075006 Z" id="path3059"></path>
                            </g>
                            <g id="g3061" transform="translate(95.762356, 0.658610)">
                                <path d="M8.77345154,2.6711251 C8.77345154,2.28203121 8.76121878,2.20456858 8.69743369,2.03361657 C8.60743556,1.75314844 7.73541477,1.48781668 6.55582753,1.48781668 C3.41026156,1.48781668 1.63651186,3.71553501 1.63651186,6.81671125 C1.63651186,9.58666797 3.1498786,11.5330278 6.05341074,11.5330278 C7.04863287,11.5330278 7.70308534,11.424402 8.19414314,11.2543404 C8.91150693,10.9872279 9.46198098,10.7388133 9.46198098,10.006925 L9.46198098,9.18243771 L9.93468964,9.18243771 C9.93468964,9.99089824 10.057891,10.8171663 10.2396348,11.5499449 C9.53799882,11.7520601 8.34617883,12.1865631 6.45097533,12.1865631 C2.76804184,12.1865631 0.00256509765,9.97576186 0.00256509765,6.55048911 C0.00256509765,2.64085235 2.75493532,0.834281405 6.16088425,0.834281405 C7.21464885,0.834281405 8.86519721,1.23940205 10.1802185,1.63027668 L10.1802185,4.24530815 C10.1802185,4.69494755 10.1802185,4.75816417 10.3479821,4.82049043 L10.7918564,4.97541568 L10.7315664,5.36539995 C10.1033269,5.35115394 9.48033011,5.33334644 8.85034315,5.33334644 C8.24045286,5.33334644 7.61221344,5.35115394 6.98572155,5.36539995 L6.98572155,4.89795305 L8.25268562,4.7893273 C8.65374528,4.75816417 8.77345154,4.60234854 8.77345154,4.24530815 L8.77345154,2.6711251 Z" id="path3063"></path>
                            </g>
                            <g id="g3065" transform="translate(108.023978, 1.757956)">
                                <path d="M0,0 C0.701635965,0.0160267506 1.38929164,0.0454091267 2.07782108,0.0454091267 C3.19449699,0.0454091267 3.73099075,0.0160267506 4.09447837,0 L4.09447837,0.435393391 C2.93411403,0.435393391 2.75062269,0.466556517 2.75062269,1.19844479 L2.75062269,6.960952 C3.02498594,7.08560451 3.39458994,7.11765801 3.73099075,7.11765801 C4.8301913,7.11765801 5.34920968,6.66534749 5.34920968,5.65388146 C5.34920968,4.7180973 4.64407864,4.03428927 3.73099075,4.03428927 C3.51516997,4.03428927 3.34653268,4.04853527 3.17964293,4.06456202 L3.11760538,3.81525701 L6.17229944,0.0454091267 L8.06837671,0.0454091267 L8.06837671,0.435393391 C7.59479428,0.435393391 7.47246671,0.55915552 7.16577403,0.934003409 L4.8301913,3.84820089 C5.56066162,4.12777865 6.87743048,4.49995541 6.87743048,5.94859559 C6.87743048,7.24231051 5.8699756,7.63051403 4.50951832,7.63051403 C3.70040885,7.63051403 2.81266024,7.58421453 2.01578352,7.58421453 C1.2826919,7.58421453 0.65707378,7.63051403 0,7.63051403 L0,7.19423026 C1.25298378,7.19423026 1.37443757,7.08560451 1.37443757,6.27536323 L1.37443757,1.38631393 C1.37443757,0.466556517 1.09832678,0.435393391 0,0.435393391 L0,0 Z" id="path3067"></path>
                            </g>
                            <g id="g3069" transform="translate(116.387688, 1.016897)">
                                <path d="M4.36884162,8.01337529 C6.26404512,8.01337529 7.05917429,6.39467348 7.05917429,4.46166929 C7.05917429,2.96761998 6.60131969,1.19310254 4.79873564,1.19310254 C2.65538194,1.19310254 2.01753106,3.21692499 2.01753106,4.92911618 C2.01753106,6.89239313 3.05382029,8.01337529 4.36884162,8.01337529 M4.66068024,8.54225806 C2.44218247,8.54225806 0.487562725,7.14169814 0.487562725,4.46166929 C0.487562725,1.97039995 2.59596569,0.568949646 4.43175294,0.568949646 C7.02771863,0.568949646 8.58826886,2.71831497 8.58826886,4.8213808 C8.58826886,6.7365775 7.28810159,8.54225806 4.66068024,8.54225806" id="path3071"></path>
                            </g>
                            <g id="g3073" transform="translate(124.849348, 1.207883)">
                                <path d="M3.4950733,7.12300026 C3.4950733,7.57353003 3.67769088,7.74359166 4.65718517,7.77653553 L4.65718517,8.1807658 C3.77118409,8.16473905 3.28100006,8.1344663 2.7943111,8.1344663 C2.14947008,8.1344663 1.49414383,8.16473905 0.836196287,8.1807658 L0.836196287,7.74359166 C1.72481867,7.74359166 2.12150949,7.66790978 2.12150949,6.96629425 L2.12150949,3.32287962 C2.12150949,1.43884605 2.70081789,0.378409389 5.23824111,0.378409389 C7.80449867,0.378409389 8.25012052,1.85732232 8.25012052,3.46177813 L8.25012052,6.81047862 C8.25012052,7.6349659 8.44584462,7.74359166 9.54941402,7.74359166 L9.54941402,8.1807658 C9.15097566,8.16473905 8.64681134,8.1344663 7.97226219,8.1344663 C7.43926351,8.1344663 6.88878947,8.16473905 6.33918919,8.1807658 L6.33918919,7.74359166 C7.53013542,7.74359166 7.63848269,7.60469315 7.63848269,6.74904275 L7.63848269,3.38342512 C7.63848269,1.79677682 6.88878947,1.18776029 5.55891408,1.18776029 C3.98525733,1.18776029 3.4950733,2.01313795 3.4950733,3.35315237 L3.4950733,7.12300026 Z" id="path3075"></path>
                            </g>
                            <g id="g3077" transform="translate(135.106864, 1.363431)">
                                <path d="M1.74753665,1.78075006 C1.74753665,1.06399816 1.47229963,0.82982953 0.372225306,0.82982953 L0.372225306,0.394436139 C1.07560881,0.41046289 1.76413825,0.439845266 2.45004638,0.439845266 C3.56497476,0.439845266 4.10059475,0.41046289 4.46845121,0.394436139 L4.46845121,0.82982953 C3.30633934,0.893046158 3.12284799,1.06399816 3.12284799,1.78075006 L3.12284799,7.38655127 C3.38323095,7.46490427 3.67244827,7.5744204 4.07088662,7.5744204 C4.98921713,7.5744204 5.72143499,6.98143063 5.72143499,6.0483176 C5.72143499,5.07958956 5.26270662,4.42872541 4.19321419,4.42872541 C4.00972284,4.42872541 3.82535772,4.47413454 3.70390393,4.55159717 L3.79390206,4.08504065 C3.93283123,4.0227144 4.19321419,3.95860739 4.46845121,3.95860739 C6.30074339,3.95860739 7.15528881,5.19177681 7.15528881,6.23529635 C7.15528881,7.29395227 6.63714419,8.1024128 4.57592472,8.1024128 C4.17836013,8.1024128 3.78079554,8.07124967 3.39808501,8.04186729 C3.01537449,8.00981379 2.6510131,7.97865067 2.25170097,7.97865067 C1.62433532,7.97865067 0.800371785,8.00981379 0.372225306,8.02495017 L0.372225306,7.5886664 C1.62433532,7.5886664 1.74753665,7.48004065 1.74753665,6.66979937 L1.74753665,1.78075006 Z" id="path3079"></path>
                            </g>
                        </g>
                        <polygon id="path3081" transform="translate(75.001003, 0.419000) scale(-1, 1) rotate(-180.000000) translate(-75.001003, -0.419000) " points="0 0 150.002005 0 150.002005 0.778778568 0 0.778778568"></polygon>
                        <polygon id="path3083" transform="translate(75.001003, 20.531001) scale(-1, 1) rotate(-180.000000) translate(-75.001003, -20.531001) " points="0 20.1120007 150.002005 20.1120007 150.002005 20.8907793 0 20.8907793"></polygon>
                    </g>
                </g>
            </g>
        </g>
    </g>
</svg>