<?xml version="1.0" encoding="UTF-8"?>
<svg width="178px" height="60px" viewBox="0 0 178 60" version="1.1" xmlns="http://www.w3.org/2000/svg" xmlns:xlink="http://www.w3.org/1999/xlink">
    <!-- Generator: sketchtool 53.2 (72643) - https://sketchapp.com -->
    <title>13808860-5E3F-4EBE-9962-E1654D211E46</title>
    <desc>Created with sketchtool.</desc>
    <g id="Mockups" stroke="none" stroke-width="1" fill="none" fill-rule="evenodd">
        <g id="about" transform="translate(-894.000000, -2564.000000)" fill="#000000" fill-rule="nonzero">
            <g id="Group-3" transform="translate(0.000000, 2279.000000)">
                <g id="tofino-capital-logo" transform="translate(894.000000, 285.000000)">
                    <path d="M129.297931,19.1337931 L129.297931,1.78758621 C129.297931,0.935172414 129.434483,0.794482759 130.291034,0.777931034 C130.514483,0.777931034 130.737931,0.777931034 130.957241,0.777931034 C131.528276,0.811034483 131.710345,1.0137931 131.722759,1.60551724 L131.722759,23.6110345 C131.722759,24.4055172 131.544828,24.5917241 130.762759,24.5337931 C130.552097,24.4984825 130.361955,24.3864608 130.228966,24.2193103 C127.933793,21.3641379 125.641379,18.5048276 123.351724,15.6413793 C120.725517,12.3558621 118.091034,9.07310345 115.448276,5.79310345 C115.372611,5.67851184 115.308833,5.55650107 115.257931,5.42896552 L115.063448,5.55310345 L115.063448,23.2137931 C115.063448,24.0910345 114.935172,24.2193103 114.041379,24.2193103 C113.805517,24.2193103 113.565517,24.2193103 113.329655,24.2193103 C113.138667,24.2322179 112.951617,24.160776 112.817862,24.0238363 C112.684107,23.8868966 112.617086,23.6982174 112.634483,23.5075862 C112.634483,23.4124138 112.634483,23.3131034 112.634483,23.217931 C112.634483,15.9517241 112.634483,8.68551724 112.634483,1.41931034 C112.634483,1.00551724 112.65931,0.657931034 113.097931,0.492413793 C113.556221,0.314488583 114.076851,0.441753594 114.401379,0.811034483 L128.73931,18.6868966 C128.875862,18.8565517 129.02069,19.0137931 129.153103,19.1793103 L129.297931,19.1337931 Z" id="Path"></path>
                    <path d="M169.278621,12.4924138 C169.290047,19.1335427 163.915612,24.5265045 157.274483,24.537931 C150.633354,24.5493576 145.240392,19.174922 145.228966,12.5337931 C145.241379,5.83448276 150.297931,0.504827586 157.204138,0.467586207 C160.411023,0.423996706 163.500025,1.67527192 165.772513,3.93841418 C168.045001,6.20155644 169.308995,9.28537615 169.278621,12.4924138 Z M166.936552,12.5586207 C167.016828,9.05132388 165.194516,5.7747202 162.172569,3.99275161 C159.150623,2.21078302 155.401373,2.20197256 152.371084,3.96971885 C149.340796,5.73746514 147.503105,9.00546809 147.566897,12.5131034 C147.662767,17.7846401 151.957034,22.011442 157.229428,22.0238318 C162.501822,22.0362215 166.815907,17.8296486 166.936552,12.5586207 L166.936552,12.5586207 Z" id="Shape"></path>
                    <path d="M29.8675862,12.5337931 C29.9089655,5.72275862 35.0648276,0.475862069 41.8675862,0.467586207 C45.076081,0.435098317 48.1623955,1.69646002 50.4297025,3.96688145 C52.6970095,6.23730287 53.9541335,9.3253459 53.9172414,12.5337931 C53.9172414,19.174922 48.5335427,24.5586207 41.8924138,24.5586207 C35.2512849,24.5586207 29.8675862,19.174922 29.8675862,12.5337931 Z M51.5710345,12.5337931 C51.6435449,9.02601733 49.8136501,5.75321798 46.7873362,3.97806375 C43.7610223,2.20290952 40.0113915,2.20290952 36.9850776,3.97806375 C33.9587636,5.75321798 32.1288688,9.02601733 32.2013793,12.5337931 C32.3103334,17.8045707 36.6143033,22.0204912 41.8862069,22.0204912 C47.1581105,22.0204912 51.4620804,17.8045707 51.5710345,12.5337931 L51.5710345,12.5337931 Z" id="Shape"></path>
                    <path d="M67.4482759,12.48 L67.4482759,1.97793103 C67.4482759,1.83724138 67.4482759,1.69655172 67.4482759,1.56413793 C67.4482759,0.984827586 67.6551724,0.786206897 68.2303448,0.786206897 L81.0331034,0.786206897 C81.2583003,0.748467255 81.4883165,0.816703307 81.6565019,0.971142849 C81.8246874,1.12558239 81.912241,1.34896087 81.8937931,1.57655172 C81.9889655,2.84689655 81.8068966,3.04551724 80.5365517,3.04551724 C77.1889655,3.04551724 73.8413793,3.04551724 70.4937931,3.04551724 C70.08,3.04551724 69.9806897,3.1737931 69.9848276,3.56689655 C70.0013793,6.30068966 70.0013793,9.03448276 69.9848276,11.7682759 C69.9848276,12.1406897 70.0965517,12.24 70.4606897,12.2358621 C73.4027586,12.2358621 76.3448276,12.2358621 79.2910345,12.2358621 C80.0772414,12.2358621 80.2386207,12.4013793 80.2386207,13.2 C80.2386207,14.4206897 80.1806897,14.4786207 78.9682759,14.4786207 C76.1503448,14.4786207 73.3324138,14.4786207 70.5186207,14.4786207 C70.08,14.4786207 69.9806897,14.6151724 69.9848276,15.0248276 C70.0013793,17.7834483 70.0013793,20.5310345 69.9848276,23.2675862 C69.9937349,23.5412623 69.9264015,23.8120284 69.7903448,24.0496552 C69.5710345,24.3724138 67.8537931,24.36 67.622069,24.0496552 C67.5010855,23.8516696 67.4380106,23.62374 67.44,23.3917241 C67.44,22.4855172 67.44,21.5793103 67.44,20.6731034 L67.4482759,12.48 Z" id="Path"></path>
                    <path d="M10.9117241,13.4234483 C10.9117241,10.1131034 10.9117241,6.84413793 10.9117241,3.55448276 C10.9117241,3.14068966 10.8165517,3.02896552 10.4027586,3.03310345 C8.77241379,3.05793103 7.14206897,3.03310345 5.50758621,3.03310345 C4.58482759,3.03310345 4.44413793,2.88 4.44413793,1.95724138 C4.44413793,1.80413793 4.44413793,1.65103448 4.44413793,1.49793103 C4.48137931,1.01793103 4.70896552,0.786206897 5.18896552,0.786206897 L19.2,0.786206897 C19.2683902,0.773608919 19.3385064,0.773608919 19.4068966,0.786206897 C20.0772414,1.04689655 19.9158621,1.63448276 19.9241379,2.14344828 C19.9324138,2.65241379 19.7627586,2.92137931 19.3696552,2.97103448 C19.1628977,3.00197121 18.953796,3.01443423 18.7448276,3.00827586 C17.1393103,3.00827586 15.537931,3.00827586 13.9324138,3.00827586 C13.5186207,3.00827586 13.4524138,3.13655172 13.4524138,3.50482759 C13.4524138,10.0593103 13.4524138,16.6124138 13.4524138,23.1641379 C13.4524138,24.0372414 13.2993103,24.1944828 12.4427586,24.1944828 L11.5862069,24.1944828 C11.4302934,24.2046791 11.2767392,24.1523574 11.1594891,24.0490841 C11.0422389,23.9458108 10.9709492,23.8000911 10.9613793,23.6441379 C10.9378618,23.4644275 10.9268009,23.2833057 10.9282759,23.102069 C10.9117241,19.8882759 10.9062069,16.662069 10.9117241,13.4234483 Z" id="Path"></path>
                    <path d="M97.4441379,12.5337931 L97.4441379,23.2924138 C97.4441379,24.0537931 97.2703448,24.2317241 96.5172414,24.2317241 C96.1986207,24.2317241 95.8758621,24.2317241 95.5572414,24.2317241 C95.3583143,24.257872 95.1585385,24.1900345 95.0166658,24.0481618 C94.8747931,23.9062891 94.8069556,23.7065133 94.8331034,23.5075862 C94.8331034,23.4248276 94.8331034,23.342069 94.8331034,23.2593103 L94.8331034,1.75034483 C94.8331034,0.968275862 95.0151724,0.786206897 95.7848276,0.786206897 C96.0786207,0.786206897 96.3724138,0.786206897 96.662069,0.786206897 C97.2206897,0.786206897 97.44,1.00965517 97.4441379,1.57655172 C97.4441379,2.67724138 97.4441379,3.77793103 97.4441379,4.88689655 L97.4441379,12.5337931 Z" id="Path"></path>
                    <path d="M51.1365517,59.3503448 C50.9987405,59.3422146 50.8605698,59.3422146 50.7227586,59.3503448 C50.3045908,59.4181099 49.9027653,59.1591556 49.7917241,58.7503448 C49.0675862,57.0951724 48.3227586,55.4689655 47.6068966,53.8262069 C47.5379183,53.5827773 47.3041242,53.4240066 47.0524138,53.4496552 C43.3448276,53.4496552 39.6358621,53.4496552 35.9255172,53.4496552 C35.6729178,53.4204371 35.4370225,53.5806346 35.3710345,53.8262069 C34.6593103,55.4482759 33.9310345,57.1034483 33.2193103,58.7213793 C33.1118163,59.1417902 32.7056483,59.4143503 32.2758621,59.3544828 C31.9572414,59.3255172 31.6344828,59.3544828 31.3158621,59.3544828 C30.6703448,59.3544828 30.422069,58.9406897 30.6910345,58.3365517 C31.2786207,57 31.8868966,55.6717241 32.4868966,54.3393103 C35.1931034,48.3531034 37.897931,42.3655172 40.6013793,36.3765517 C40.7917241,35.9627586 41.0151724,35.5737931 41.5489655,35.582069 C41.9247734,35.5763777 42.2603897,35.8163433 42.3765517,36.1737931 C43.32,38.2813793 44.2675862,40.3875862 45.2193103,42.4924138 L52.1751724,58.0013793 C52.2248276,58.1131034 52.2786207,58.2289655 52.3241379,58.3448276 C52.5765517,58.977931 52.3241379,59.342069 51.6455172,59.3544828 L51.1365517,59.3503448 Z M46.4482759,51.3765517 C46.4227226,51.2545956 46.3895542,51.1343601 46.3489655,51.0165517 C44.8206897,47.5765517 43.2924138,44.1406897 41.7641379,40.7089655 C41.6936571,40.6000741 41.6071688,40.5024259 41.5075862,40.4193103 C41.3965429,40.5069464 41.3001637,40.6117064 41.222069,40.7296552 C39.6993103,44.1393103 38.182069,47.5489655 36.6703448,50.9586207 C36.6185158,51.0939713 36.5743086,51.2321187 36.537931,51.3724138 L46.4482759,51.3765517 Z" id="Shape"></path>
                    <path d="M150.914483,59.3503448 C150.789102,59.342071 150.663312,59.342071 150.537931,59.3503448 C150.108918,59.4192497 149.696279,59.1560141 149.577931,58.737931 C148.857931,57.0827586 148.108966,55.4565517 147.388966,53.8137931 C147.31629,53.5725659 147.080384,53.4187903 146.830345,53.4496552 C143.136552,53.4496552 139.441379,53.4496552 135.744828,53.4496552 C135.481237,53.415694 135.231461,53.5763891 135.153103,53.8303448 C134.462069,55.4441379 133.729655,57.0372414 133.046897,58.6510345 C132.926446,59.1300949 132.458189,59.4362628 131.971034,59.3544828 C131.681379,59.3213793 131.387586,59.3544828 131.093793,59.3544828 C130.464828,59.3544828 130.208276,58.9406897 130.464828,58.3737931 C131.168276,56.7806897 131.888276,55.1958621 132.604138,53.6110345 C135.21931,47.817931 137.84,42.0331034 140.466207,36.2565517 C140.581452,35.8659187 140.936261,35.5947913 141.343448,35.5862069 C141.815172,35.5862069 142.030345,35.88 142.2,36.2565517 C143.761379,39.737931 145.324138,43.217931 146.888276,46.6965517 L151.998621,58.0882759 C152.054236,58.201492 152.103957,58.3175091 152.147586,58.4358621 C152.259507,58.6377305 152.250167,58.885032 152.123337,59.0778828 C151.996507,59.2707336 151.773139,59.3772778 151.543448,59.3544828 C151.336552,59.3544828 151.129655,59.3544828 150.914483,59.3544828 L150.914483,59.3503448 Z M146.255172,51.3765517 C146.188966,51.177931 146.151724,51.0331034 146.089655,50.8965517 C144.6,47.5365517 143.108966,44.177931 141.616552,40.8206897 C141.528146,40.6710164 141.422607,40.5321497 141.302069,40.4068966 C141.177523,40.5199364 141.068941,40.6494003 140.97931,40.7917241 C139.473103,44.1655172 137.973793,47.537931 136.481379,50.9089655 C136.425806,51.0574894 136.380188,51.2095501 136.344828,51.3641379 L146.255172,51.3765517 Z" id="Shape"></path>
                    <path d="M64.4068966,47.6068966 L64.4068966,37.0634483 C64.4068966,36.9227586 64.4068966,36.7862069 64.4068966,36.6496552 C64.4317241,36.1241379 64.6344828,35.9213793 65.16,35.9213793 C67.3655172,35.9213793 69.5668966,35.9213793 71.7806897,35.9213793 C72.8664285,35.8482989 73.9559595,35.9888836 74.9875862,36.3351724 C77.4703448,37.3365517 79.1875862,39.1034483 79.7751724,41.7765517 C80.2689992,44.0156188 79.7040413,46.3573476 78.2435832,48.1249303 C76.7831251,49.8925129 74.5899501,50.8889339 72.297931,50.8262069 C70.68,50.8262069 69.062069,50.8262069 67.4482759,50.8262069 C67.0344828,50.8262069 66.9227586,50.937931 66.9227586,51.3434483 C66.9434483,53.7144828 66.9227586,56.0855172 66.9227586,58.4565517 C66.9227586,59.1475862 66.7241379,59.3462069 66.0248276,59.3462069 C65.7062069,59.3462069 65.3834483,59.3462069 65.0648276,59.3462069 C64.89478,59.361709 64.726253,59.3035144 64.6020038,59.1863878 C64.4777547,59.0692613 64.4097241,58.9044589 64.4151724,58.7337931 C64.4068481,58.5794225 64.4068481,58.4247154 64.4151724,58.2703448 L64.4068966,47.6068966 Z M66.9310345,43.4110345 C66.9310345,44.8882759 66.9310345,46.3655172 66.9310345,47.8427586 C66.9310345,48.2358621 67.017931,48.3806897 67.4358621,48.3724138 C68.9668966,48.3517241 70.502069,48.3724138 72.0372414,48.3517241 C72.6616526,48.3392529 73.2813299,48.240383 73.8786207,48.057931 C76.9448276,47.0772414 78.3351724,43.377931 76.5931034,40.7668966 C75.7912674,39.4361474 74.3793661,38.5921097 72.8275862,38.5158621 C71.0193103,38.4372414 69.2027586,38.4786207 67.3903448,38.4455172 C67.0055172,38.4455172 66.9268966,38.582069 66.9310345,38.9337931 C66.9393103,40.4234483 66.9310345,41.9172414 66.9310345,43.4110345 Z" id="Shape"></path>
                    <path d="M0.111724138,47.6524138 C0.0746665421,45.0059992 0.933602305,42.4248171 2.54896552,40.3282759 C4.00961702,38.3472653 6.07482929,36.894936 8.43310345,36.1903448 C12.5213793,34.9489655 16.2951724,35.582069 19.7048276,38.2593103 C20.8344828,39.1406897 20.5613793,39.4593103 19.8082759,40.1668966 C19.0551724,40.8744828 19.0551724,40.9034483 18.1903448,40.2455172 C16.0055172,38.5903448 13.56,37.7255172 10.8041379,38.1310345 C8.32118001,38.4680024 6.09196381,39.8271342 4.65517241,41.88 C1.4965284,46.2764093 2.4861444,52.3990802 6.86896552,55.5765517 C8.64656447,56.8413886 10.8149668,57.4351702 12.9889655,57.2524138 C14.5425656,57.1228662 16.0296067,56.5641513 17.2841379,55.6386207 L18.5503448,54.7572414 C18.8430872,54.511117 19.2780077,54.5403554 19.5351724,54.8234483 C19.7751724,55.0386207 20.0193103,55.2372414 20.2510345,55.4689655 C20.4132517,55.5968646 20.5079141,55.7920472 20.5079141,55.9986207 C20.5079141,56.2051942 20.4132517,56.4003767 20.2510345,56.5282759 C18.8342928,57.9056259 17.0783071,58.8835529 15.1613793,59.3627586 C13.2045456,59.8572207 11.1554544,59.8572207 9.19862069,59.3627586 C7.44783875,58.924595 5.81843872,58.0971653 4.43172414,56.942069 C2.55773764,55.4178027 1.20419562,53.3484452 0.55862069,51.0206897 C0.316391238,49.9274297 0.129943321,48.8225531 3.55271368e-14,47.7103448 L0.111724138,47.6524138 Z" id="Path"></path>
                    <path d="M116.37931,48.6124138 C116.37931,51.8758621 116.37931,55.1393103 116.37931,58.4027586 C116.37931,59.1806897 116.205517,59.3503448 115.41931,59.3503448 C115.113103,59.3503448 114.806897,59.3503448 114.50069,59.3503448 C114.337128,59.3630541 114.1757,59.3068053 114.055454,59.1952041 C113.935208,59.0836028 113.867093,58.9268129 113.867586,58.7627586 C113.848991,58.5688523 113.840703,58.3740954 113.842759,58.1793103 L113.842759,38.7682759 C113.842759,38.1724138 113.842759,38.1724138 113.25931,38.1724138 C111.670345,38.1724138 110.081379,38.1724138 108.488276,38.1724138 C108.225408,38.2016828 107.959395,38.164697 107.714483,38.0648276 C107.205517,37.7627586 107.424828,37.2372414 107.391724,36.7655172 C107.324792,36.4582942 107.47241,36.1443934 107.751724,36 C107.883571,35.9494713 108.024487,35.9269246 108.165517,35.9337931 L122.068966,35.9337931 C122.151077,35.9191606 122.23513,35.9191606 122.317241,35.9337931 C122.991724,36.1903448 122.826207,36.7613793 122.834483,37.2910345 C122.842759,37.8206897 122.673103,38.0689655 122.28,38.1186207 C122.073033,38.1475014 121.864105,38.159954 121.655172,38.1558621 C120.037241,38.1558621 118.41931,38.1558621 116.801379,38.1558621 C116.449655,38.1558621 116.358621,38.2634483 116.358621,38.6027586 C116.387586,41.9503448 116.37931,45.2813793 116.37931,48.6124138 Z" id="Path"></path>
                    <path d="M164.193103,47.6317241 C164.193103,44.0758621 164.193103,40.52 164.193103,36.9641379 C164.188992,36.7968571 164.197291,36.6295017 164.217931,36.4634483 C164.226359,36.3074065 164.297471,36.1613882 164.415124,36.0585394 C164.532777,35.9556905 164.686991,35.9047356 164.842759,35.9172414 C165.256552,35.9172414 165.649655,35.9172414 166.055172,35.9172414 C166.233298,35.9071116 166.408043,35.9688515 166.540269,36.0886327 C166.672495,36.2084138 166.751151,36.3762261 166.758621,36.5544828 C166.766893,36.7074745 166.766893,36.8608014 166.758621,37.0137931 L166.758621,56.5075862 C166.758621,57.0910345 166.758621,57.0910345 167.358621,57.0910345 L175.862069,57.0910345 C176.056854,57.0889789 176.251611,57.0972664 176.445517,57.1158621 C176.7707,57.1181361 177.033111,57.3823952 177.033103,57.7075862 C177.057931,58.0409176 177.057931,58.3756341 177.033103,58.7089655 C176.995862,59.1641379 176.784828,59.342069 176.317241,59.3462069 L165.26069,59.3462069 C164.313103,59.3462069 164.193103,59.2262069 164.193103,58.2537931 L164.193103,47.6317241 Z" id="Path"></path>
                    <path d="M95.3255172,47.6772414 L95.3255172,58.4358621 C95.3255172,59.1889655 95.1434483,59.3627586 94.382069,59.3627586 C94.0510345,59.3627586 93.7158621,59.3627586 93.3806897,59.3627586 C93.2034665,59.3721412 93.0304422,59.3067079 92.9037764,59.1824024 C92.7771107,59.0580969 92.7084348,58.8863338 92.7144828,58.7089655 C92.7144828,58.5972414 92.7144828,58.4855172 92.7144828,58.3737931 L92.7144828,36.9103448 C92.7144828,36.0827586 92.88,35.9172414 93.7241379,35.9172414 L94.6013793,35.9172414 C94.7991165,35.8930649 94.9970148,35.9609462 95.1382803,36.1014045 C95.2795459,36.2418629 95.3485602,36.4393689 95.3255172,36.6372414 C95.3255172,36.7613793 95.3255172,36.8896552 95.3255172,37.0137931 L95.3255172,47.6772414 Z" id="Path"></path>
                </g>
            </g>
        </g>
    </g>
</svg>