<?xml version="1.0" encoding="UTF-8"?>
<svg width="73px" height="25px" viewBox="0 0 73 25" version="1.1" xmlns="http://www.w3.org/2000/svg" xmlns:xlink="http://www.w3.org/1999/xlink">
    <!-- Generator: sketchtool 50.2 (55047) - http://www.bohemiancoding.com/sketch -->
    <title>F5F5AC7F-E699-4400-B667-E7272ECFC64B</title>
    <desc>Created with sketchtool.</desc>
    <defs></defs>
    <g id="Mockups" stroke="none" stroke-width="1" fill="none" fill-rule="evenodd">
        <g id="homepage" transform="translate(-431.000000, -582.000000)" fill="#040404" fill-rule="nonzero">
            <g id="uber-logo" transform="translate(431.000000, 582.000000)">
                <path d="M4.16892697,17.8423137 C4.47513922,18.6493789 4.89908332,19.339441 5.44083744,19.9125 C5.98259156,20.4856366 6.62440994,20.9242236 7.36629257,21.2283385 C8.10825337,21.5324534 8.91494324,21.684472 9.78644035,21.684472 C10.6344067,21.684472 11.4292921,21.5265528 12.1712529,21.2107143 C12.9132138,20.8948758 13.5608953,20.4504658 14.1143757,19.8774068 C14.6678561,19.3042702 15.0977415,18.6201087 15.4039537,17.8247671 C15.710166,17.0294255 15.863233,16.1406056 15.863233,15.1580745 L15.863233,0 L19.5728807,0 L19.5728807,24.561646 L15.8985682,24.561646 L15.8985682,22.2809006 C15.0742108,23.1463509 14.1025712,23.8130435 12.983806,24.2809783 C11.8649625,24.7487578 10.6579375,24.9826863 9.36249625,24.9826863 C8.04344613,24.9826863 6.81281217,24.7545807 5.670438,24.2984472 C4.528142,23.8423137 3.53883487,23.1932453 2.70275112,22.351087 C1.86666738,21.5089286 1.20710323,20.4973602 0.724293211,19.3159938 C0.241405012,18.134705 0,16.8189441 0,15.3685559 L0,0 L3.70964768,0 L3.70964768,15.1580745 C3.70964768,16.1406056 3.86271471,17.0352484 4.16892697,17.8423137 Z" id="Shape"></path>
                <path d="M25.9672992,0 L25.9672992,8.94743789 C26.7916567,8.12872671 27.7456286,7.47965839 28.8290587,7.00007764 C29.9124888,6.52049689 31.0901981,6.28074534 32.3620304,6.28074534 C33.6810805,6.28074534 34.9174995,6.52631988 36.0716781,7.01754658 C37.2257785,7.50877329 38.2267338,8.17546584 39.0747001,9.01762422 C39.9226665,9.85978261 40.593957,10.853882 41.0885714,12.0000776 C41.5831859,13.1463509 41.8304541,14.3627329 41.8304541,15.6493012 C41.8304541,16.9357919 41.5831859,18.1463509 41.0885714,19.280823 C40.593957,20.4153727 39.9226665,21.4037267 39.0747001,22.2457298 C38.2267338,23.0878882 37.2257785,23.7545807 36.0716781,24.2458075 C34.9174995,24.7370342 33.6810024,24.9826087 32.3620304,24.9826087 C31.0901199,24.9826087 29.9066256,24.7428571 28.8113911,24.2632764 C27.7161566,23.7837733 26.7563215,23.1346273 25.931964,22.3159161 L25.931964,24.5615683 L22.3989923,24.5615683 L22.3989923,0 L25.9672992,0 Z M26.3735757,18.0703416 C26.6915142,18.8189441 27.1332041,19.473913 27.698489,20.0353261 C28.2637738,20.5967391 28.9232598,21.0412267 29.6769469,21.3687112 C30.4307121,21.6961957 31.2432652,21.8599379 32.1147623,21.8599379 C32.9627286,21.8599379 33.7634772,21.6961957 34.5171643,21.3687112 C35.2708514,21.0412267 35.924396,20.5968168 36.4780328,20.0353261 C37.0315132,19.4739907 37.4731249,18.8189441 37.8028679,18.0703416 C38.1326108,17.3218168 38.2974823,16.5148292 38.2974823,15.6493012 C38.2974823,14.7837733 38.1326108,13.9708851 37.8028679,13.2106366 C37.4731249,12.4503882 37.0315132,11.7895963 36.4780328,11.2281832 C35.9244742,10.6668478 35.2709295,10.2281832 34.5171643,9.91242236 C33.763399,9.59666149 32.9626505,9.4386646 32.1147623,9.4386646 C31.2668741,9.4386646 30.4660473,9.59658385 29.7123602,9.91242236 C28.9586732,10.2282609 28.2991872,10.6668478 27.7338242,11.2281832 C27.1686175,11.7895963 26.7210645,12.4503882 26.3913215,13.2106366 C26.0615785,13.9708851 25.896707,14.7837733 25.896707,15.6493012 C25.8966288,16.5148292 26.0556372,17.3218168 26.3735757,18.0703416 Z" id="Shape"></path>
                <path d="M43.8439345,12.0352484 C44.31494,10.9124224 44.9627779,9.92414596 45.7870572,9.07034161 C46.6113365,8.21653727 47.5889173,7.54402174 48.719487,7.05279503 C49.8500568,6.56156832 51.0748276,6.31599379 52.3937995,6.31599379 C53.6892407,6.31599379 54.8904808,6.54992236 55.9975198,7.01770186 C57.1044806,7.48555901 58.0583744,8.13470497 58.8592011,8.96513975 C59.6600278,9.79549689 60.2842568,10.778028 60.7316535,11.9125 C61.1792065,13.0470497 61.4029439,14.2809783 61.4029439,15.6143634 L61.4029439,16.7722826 L46.7410291,16.7722826 C46.8588392,17.4974379 47.094381,18.1699534 47.4476547,18.7897516 C47.8010066,19.4096273 48.2425402,19.9476708 48.7724898,20.4038043 C49.3024395,20.8600155 49.9030595,21.2167702 50.57435,21.4739907 C51.2456404,21.7312888 51.958051,21.8600155 52.7118162,21.8600155 C54.8552238,21.8600155 56.5864136,20.982764 57.9053855,19.2283385 L60.4844635,21.123059 C59.5894356,22.3160714 58.4824748,23.2517857 57.1635029,23.9301242 C55.8444528,24.6084627 54.3606093,24.9476708 52.7118944,24.9476708 C51.3693136,24.9476708 50.1151489,24.7136646 48.9492439,24.2458851 C47.783339,23.7781056 46.7705794,23.123059 45.9108867,22.2809006 C45.051194,21.4387422 44.3740405,20.4504658 43.879426,19.3159938 C43.3848115,18.1815217 43.1374652,16.9475155 43.1374652,15.6142081 C43.1373088,14.351087 43.3729289,13.1580745 43.8439345,12.0352484 Z M48.807825,10.6492236 C47.8067916,11.4796584 47.1414425,12.5849379 46.8116995,13.9650621 L57.79938,13.9650621 C57.4931677,12.5849379 56.8395449,11.4796584 55.8385115,10.6492236 C54.837478,9.81886646 53.66571,9.40364907 52.3232073,9.40364907 C50.9806265,9.40364907 49.8088584,9.81886646 48.807825,10.6492236 Z" id="Shape"></path>
                <path d="M68.0801221,11.0527174 C67.326435,11.8714286 66.9495524,12.9825311 66.9495524,14.3861025 L66.9495524,24.5617236 L63.3811673,24.5617236 L63.3811673,6.66677019 L66.914139,6.66677019 L66.914139,8.87732919 C67.361692,8.15217391 67.9446445,7.57903727 68.6629964,7.15799689 C69.3813483,6.73687888 70.2351778,6.52631988 71.2244849,6.52631988 L72.460982,6.52631988 L72.460982,9.8246118 L70.9771386,9.8246118 C69.7995074,9.82468944 68.8338092,10.2340062 68.0801221,11.0527174 Z" id="Shape"></path>
            </g>
        </g>
    </g>
</svg>