<?xml version="1.0" encoding="UTF-8"?>
<svg width="115px" height="25px" viewBox="0 0 115 25" version="1.1" xmlns="http://www.w3.org/2000/svg" xmlns:xlink="http://www.w3.org/1999/xlink">
    <!-- Generator: sketchtool 50.2 (55047) - http://www.bohemiancoding.com/sketch -->
    <title>9D93F738-9A67-499F-ACA8-3A637E611B17</title>
    <desc>Created with sketchtool.</desc>
    <defs></defs>
    <g id="Mockups" stroke="none" stroke-width="1" fill="none" fill-rule="evenodd">
        <g id="homepage" transform="translate(-87.000000, -582.000000)" fill="#1A00A1" fill-rule="nonzero">
            <path d="M102.204324,591.473764 C102.011148,590.867918 101.446987,589.506114 101.293325,588.50069 C100.95417,586.273855 102.137371,584.807297 103.223985,584.471435 C104.443407,584.136654 104.919761,584.73926 105.391725,586.139942 C106.001985,588.272823 106.070035,591.067707 105.864786,595.068884 C105.598072,600.534459 102.818974,607.13505 95.9107448,606.997898 C89.94754,606.869385 87.3089343,603.069077 87.0345369,597.270881 C86.9050213,594.537553 87.103685,591.805306 88.2539591,587.941282 C88.8642189,585.872117 89.4086234,585.135598 91.3019657,584.73926 C92.7902973,584.471435 92.6563914,586.00279 92.3194313,587.808449 C91.5774607,591.805306 91.2328175,593.735158 91.5072149,598.269825 C91.7728316,603.069077 94.0130122,604.936293 96.4518565,604.936293 C100.110123,605.005409 101.734556,602.006416 102.415061,597.669379 C102.951783,594.204932 102.546772,592.538585 102.204324,591.473764 Z M177.975681,596.285714 C179.305237,596.285714 179.686281,597.824561 179.368744,598.756892 C179.051208,599.683208 177.915246,600.73985 176.146261,601.047619 C175.765217,600.117293 175.574695,596.285714 177.975681,596.285714 Z M152.206186,598.477127 C152.206186,597.27816 151.561714,596.285714 150.785811,596.285714 C150.13788,596.285714 148.649485,596.991326 148.649485,599.258463 C148.649485,601.034539 149.28358,601.876684 149.574112,602.238095 C151.632041,601.597882 152.206186,599.894087 152.206186,598.477127 Z M132.039354,584.902622 C131.938456,583.883977 131.038494,583.190476 129.820761,583.190476 C128.462699,583.190476 127.1835,584.455035 127.319191,586.043709 C127.406171,587.091163 128.102019,587.95238 129.469358,587.95238 C131.038494,587.953409 132.183162,586.365765 132.039354,584.902622 Z M142.694921,588.206181 C142.571337,586.345954 142.08855,585.506373 141.017873,585.57535 C139.598388,585.655105 138.942352,589.822832 139.232255,594.203957 C139.417054,597.062197 139.873276,597.503004 140.298313,597.474982 C141.083707,597.430794 142.967499,592.324331 142.694921,588.206181 Z M185.738038,595.159159 C184.908401,598.497789 182.393463,603.409456 178.64112,603.409456 C177.772441,603.409456 176.232462,603.082222 176.232462,602.238358 C176.232462,601.328206 182.126678,601.202994 182.126678,596.848992 C182.126678,595.227552 180.587784,592.951644 178.31035,592.951644 C175.298714,592.951644 172.360825,596.136653 172.360825,600.551682 C172.360825,604.510057 174.895283,605.809524 177.438418,605.809524 C181.857724,605.809524 184.535336,602.300438 185.939753,599.380584 C186.612138,601.329258 187.006894,605.809524 188.686772,605.809524 C189.353735,605.809524 189.825489,605.484394 190.629098,603.733534 C192.632155,599.379532 194.575566,594.379479 197.254262,594.379479 C198.255248,594.379479 197.655524,596.136653 200.064181,596.136653 C201.199645,596.136653 202,595.227552 202,594.18377 C202,592.688595 200.596667,591.52381 198.456964,591.52381 C192.163655,591.52381 190.829729,600.681103 189.824405,600.681103 C188.149949,600.681103 188.685688,593.34201 187.478648,593.34201 C186.407169,593.340958 185.881191,594.579397 185.738038,595.159159 Z M132.660129,604.018459 C133.648381,604.018459 135.348175,603.689007 136.685788,601.487169 C135.920827,599.741073 135.374885,596.212641 135.29903,594.927778 C134.905866,588.357405 137.368483,582.176884 140.064008,582.005569 C142.040513,581.882574 143.621716,583.805476 143.803341,586.920994 C144.289454,595.107878 141.636665,598.525394 140.308667,601.47399 C140.533027,602.617189 142.419788,604.563153 144.19971,604.563153 C144.856765,604.563153 145.65164,604.223817 145.851427,603.949274 C145.718948,603.478157 145.584332,602.868671 145.584332,601.984641 C145.584332,597.240531 148.552294,593.239885 151.124955,593.239885 C153.168767,593.239885 154.355738,596.018264 154.355738,597.852214 C154.355738,600.017812 152.573679,601.783675 149.937984,603.478157 C150.401661,603.949274 151.254229,604.291904 151.982865,604.291904 C155.744634,604.291904 157.712591,599.613684 159.169862,595.341789 C159.432684,594.526944 159.89743,593.377157 160.818374,593.377157 C162.400646,593.377157 163.063042,604.086545 165.693396,604.086545 C166.818401,604.086545 167.739345,601.712294 167.739345,599.88713 C167.739345,598.529787 167.277804,598.393614 167.277804,596.427883 C167.277804,594.261186 168.399604,592.432727 169.91991,592.432727 C170.841923,592.432727 171.175258,593.377157 171.175258,594.526944 C171.175258,598.865828 168.137851,606.933011 163.660267,606.933011 C160.291662,606.933011 160.554484,600.967732 159.368581,600.967732 C158.043789,600.967732 156.197627,607 149.67623,607 C148.616397,607 147.497802,606.4586 146.576858,605.371409 C144.996722,606.4586 143.674067,606.933011 142.156966,606.933011 C139.71999,606.933011 138.662293,604.356696 137.676177,604.356696 C136.487069,604.356696 135.171892,607 131.211405,607 C128.046861,607 127.519081,602.666607 126.400486,602.666607 C125.409029,602.666607 123.892996,607 122.245553,607 C119.472036,607 118.884427,599.478609 116.439972,599.478609 C114.528638,599.478609 108.486945,607.117505 106.84698,606.942895 C106.187789,606.872612 105.91001,606.366354 105.979455,605.687683 C106.072404,604.749842 106.857664,602.239417 107.176041,601.052292 C107.709163,598.99102 108.198482,596.732077 108.471987,596.011675 C108.743356,595.284684 109.475197,594.766346 110.062806,594.822353 C110.358748,594.850906 110.447424,595.418661 110.539304,595.887581 C110.872639,597.563394 111.337385,599.272152 111.86196,599.272152 C112.788246,599.272152 115.84702,593.238787 117.626943,593.238787 C119.80644,593.238787 120.067124,602.730301 123.03295,602.730301 C124.024407,602.730301 124.751974,601.512427 125.409029,600.016714 C125.476337,597.505191 126.135527,593.920753 128.1131,593.920753 C129.49879,593.920753 130.15905,597.10326 129.166524,599.886031 C129.164387,603.204712 131.272302,604.018459 132.660129,604.018459 Z" id="unilever-logo"></path>
        </g>
    </g>
</svg>