<?xml version="1.0" encoding="UTF-8"?>
<svg width="309px" height="262px" viewBox="0 0 309 262" version="1.1" xmlns="http://www.w3.org/2000/svg" xmlns:xlink="http://www.w3.org/1999/xlink">
    <!-- Generator: sketchtool 53.2 (72643) - https://sketchapp.com -->
    <title>7D170026-FE94-4688-9C63-598C5695481A</title>
    <desc>Created with sketchtool.</desc>
    <defs>
        <linearGradient x1="49.9994744%" y1="100%" x2="49.9994744%" y2="0%" id="linearGradient-1">
            <stop stop-color="#808080" stop-opacity="0.25" offset="0%"></stop>
            <stop stop-color="#808080" stop-opacity="0.12" offset="54%"></stop>
            <stop stop-color="#808080" stop-opacity="0.1" offset="100%"></stop>
        </linearGradient>
        <path d="M22.5535686,3.84813496 C22.7873725,3.9281886 22.5535686,2.90324798 21.9944024,2.52841089 C20.2796878,1.37895163 15.1753134,-0.322287417 11.6848897,0.415963459 C9.34663285,0.910522326 6.43046199,2.15190431 4.56282685,3.73436445 C2.87920398,5.16095596 1.34724745,7.67596741 0.751121423,9.88549778 C0.125209248,12.2055478 -0.111384335,15.4337476 0.751121423,17.4578946 C1.77829776,19.868494 5.41611812,22.4665054 5.51232596,22.811556 C5.62214623,23.205284 5.19217039,24.7435225 4.87749864,26.3643517 C4.56282685,27.9851809 4.70603883,32.112045 4.87749864,32.7851482 C5.1514853,33.8607432 6.62084712,34.3896146 7.26169915,34.4674227 C10.8043098,34.897544 13.3723319,39.378471 14.4410689,40.5249416 C19.198313,45.3913276 22.5184458,47.5076803 24.4014673,46.8740007 C24.8970679,46.7072195 24.1542069,40.6604823 23.6586063,38.0687883 C23.1630058,35.4770937 18.3023907,30.8521045 17.9910894,29.3279503 C17.807739,28.4300936 17.7771337,26.8671176 17.7579382,26.7958549 C17.2994703,23.5758086 17.3784405,23.3140592 16.7097541,22.0019285 C16.0410678,20.6897979 15.5226311,20.612783 15.6833344,20.2305765 C16.4685794,18.363 18.9940661,12.6488254 19.5670251,10.7803338 C20.2498907,8.55338891 19.9271821,9.28484842 20.6311714,7.06545181 C20.9429044,6.08266236 21.3395987,3.43247618 22.5535686,3.84813496 Z" id="path-2"></path>
    </defs>
    <g id="Mockups" stroke="none" stroke-width="1" fill="none" fill-rule="evenodd">
        <g id="homepage" transform="translate(-155.000000, -3699.000000)">
            <g id="div-features" transform="translate(0.000000, 1481.000000)">
                <g id="auto-replenishing" transform="translate(155.000000, 2218.000000)">
                    <path d="M300.723929,178.341089 C300.417849,178.564787 300.136256,178.782356 299.836298,178.993796 C298.729562,179.777421 297.570934,180.484872 296.368413,181.111261 C290.06929,184.436079 282.304044,186.060184 274.740811,187.16335 C257.777865,189.639344 240.459867,190.120447 223.215328,190.592356 C176.620792,191.873254 129.913007,193.151088 83.43172,190.20012 C65.0669288,189.035667 46.2981122,187.086741 29.6565506,181.111261 C27.2711683,180.257329 24.9327182,179.315552 22.6412004,178.285931 C18.0040906,176.19911 13.5506288,173.658764 9.84706255,170.625059 C6.36693462,167.781343 3.54487837,164.514747 1.85837838,160.800756 C-1.65847913,153.06634 0.202486374,144.378911 4.21825405,136.797711 C5.88608397,133.730713 7.76697969,130.784757 9.84706255,127.98158 C12.9476515,123.712942 16.3665634,119.566878 19.4855171,115.301304 C30.5839726,100.138906 37.8258219,80.9560814 27.5813292,65.4045108 C24.636841,60.9366901 20.3823311,57.0143235 17.982665,52.3503845 C14.9218665,46.3840972 15.157548,39.7589749 16.1308819,33.3238422 C16.2573949,32.5066825 16.3910498,31.6976944 16.5318465,30.8968778 C18.1938601,21.3544954 21.3219962,11.0736048 30.9665724,5.11651057 C40.984566,-1.0734742 55.2111576,-0.760910615 67.6441212,1.43929189 C86.9791855,4.89587745 104.814459,12.0909687 122.839501,18.5873883 C140.864544,25.083808 159.722123,31.0194518 179.531611,31.6568364 C197.024075,32.2206766 217.427358,28.0010681 229.036967,17.0337634 C240.312949,6.38208667 261.508979,5.57003421 276.785424,12.0051669 C287.27172,16.4208937 295.095121,24.3759434 298.394662,33.3238422 C299.062921,35.1202663 299.54398,36.9810142 299.830176,38.8764424 C300.094646,40.6086929 300.1808,42.3635482 300.087283,44.1134146 C300.041371,44.977561 299.952608,45.8325144 299.830176,46.6782747 C297.27747,64.335053 278.903497,78.2625188 267.734643,94.0347225 C262.277239,101.738496 258.423694,110.992829 262.176233,119.300279 C267.899926,131.959104 287.804299,136.460633 299.824055,145.880442 C302.085989,147.59483 304.077394,149.640196 305.731396,151.947852 C311.562217,160.331911 309.410476,171.65468 300.723929,178.341089 Z" id="Path" fill="#E6EDF5" fill-rule="nonzero"></path>
                    <ellipse id="Oval" fill="#F6FAFE" fill-rule="nonzero" cx="73.5" cy="256" rx="53.5" ry="5"></ellipse>
                    <g id="5cfdbbb0-8197-4f02-a5fd-2740d54b5dec" transform="translate(12.000000, 236.000000)" fill-rule="nonzero">
                        <ellipse id="Oval" fill="#45CB87" opacity="0.1" cx="11.3259117" cy="19.4432184" rx="10.4046065" ry="1.73333333"></ellipse>
                        <path d="M13.5861804,0.143448276 C13.5861804,0.143448276 15.2721689,2.29218391 12.806142,5.52275862 C10.3401152,8.75333333 8.30710173,11.4997701 9.12092131,13.5229885 C9.12092131,13.5229885 12.8399232,7.50114943 15.8771593,7.41747126 C18.9143954,7.3337931 16.9213052,3.76551724 13.5861804,0.143448276 Z" id="Path" fill="#45CB87"></path>
                        <path d="M13.5861804,0.143448276 C13.733454,0.35140509 13.8492867,0.578859187 13.9301344,0.818850575 C16.884453,4.19586207 18.4598848,7.34873563 15.6191939,7.42643678 C12.975048,7.50114943 9.79961612,12.1034483 9.04107486,13.265977 C9.06612455,13.3560433 9.09584918,13.4448162 9.13013436,13.531954 C9.13013436,13.531954 12.8491363,7.51011494 15.8863724,7.42643678 C18.9236084,7.34275862 16.9213052,3.76551724 13.5861804,0.143448276 Z" id="Path" fill="#000000" opacity="0.1"></path>
                        <path d="M16.7216891,2.88091954 C16.7216891,3.63701149 16.6357006,4.24965517 16.528215,4.24965517 C16.4207294,4.24965517 16.3316699,3.65195402 16.3316699,2.88091954 C16.3316699,2.10988506 16.4422265,2.48045977 16.5497121,2.48045977 C16.6571977,2.48045977 16.7216891,2.12482759 16.7216891,2.88091954 Z" id="Path" fill="#FFD037"></path>
                        <path d="M17.7996161,3.78344828 C17.1178503,4.14505747 16.5220729,4.36321839 16.4698656,4.27057471 C16.4176583,4.17793103 16.9305182,3.81034483 17.6122841,3.44873563 C18.2940499,3.08712644 18.0238004,3.35011494 18.0760077,3.44873563 C18.128215,3.54735632 18.481382,3.42183908 17.7996161,3.78344828 Z" id="Path" fill="#FFD037"></path>
                        <path d="M4.67408829,0.143448276 C4.67408829,0.143448276 2.98809981,2.29218391 5.45412668,5.52275862 C7.92015355,8.75333333 9.95316699,11.4997701 9.13934741,13.5229885 C9.13934741,13.5229885 5.42034549,7.50114943 2.3831094,7.41747126 C-0.654126679,7.3337931 1.34510557,3.76551724 4.67408829,0.143448276 Z" id="Path" fill="#45CB87"></path>
                        <path d="M4.67408829,0.143448276 C4.52681476,0.35140509 4.41098197,0.578859187 4.33013436,0.818850575 C1.37581574,4.19586207 -0.199616123,7.34873563 2.64107486,7.42643678 C5.28829175,7.50114943 8.46065259,12.1034483 9.21919386,13.265977 C9.19554336,13.3564435 9.1657924,13.445295 9.13013436,13.531954 C9.13013436,13.531954 5.41113244,7.51011494 2.37389635,7.42643678 C-0.663339731,7.34275862 1.34510557,3.76551724 4.67408829,0.143448276 Z" id="Path" fill="#000000" opacity="0.1"></path>
                        <path d="M1.53857965,2.88091954 C1.53857965,3.63701149 1.62456814,4.24965517 1.73205374,4.24965517 C1.83953935,4.24965517 1.92859885,3.65195402 1.92859885,2.88091954 C1.92859885,2.10988506 1.81804223,2.48045977 1.71055662,2.48045977 C1.60307102,2.48045977 1.53857965,2.12482759 1.53857965,2.88091954 Z" id="Path" fill="#FFD037"></path>
                        <path d="M0.463723608,3.78344828 C1.14548944,4.14505747 1.73819578,4.36321839 1.79040307,4.27057471 C1.84261036,4.17793103 1.32975048,3.81034483 0.647984645,3.44873563 C-0.03378119,3.08712644 0.23646833,3.35011494 0.184261036,3.44873563 C0.132053743,3.54735632 -0.218042226,3.42183908 0.463723608,3.78344828 Z" id="Path" fill="#FFD037"></path>
                        <path d="M2.07600768,13.2510345 C2.07600768,13.2510345 6.79309021,13.1075862 8.21804223,12.1243678 C9.64299424,11.1411494 15.471785,9.96068966 15.824952,11.5416092 C16.178119,13.1225287 22.9128599,19.3983908 17.5877159,19.4402299 C12.262572,19.482069 5.21458733,18.6333333 3.79577735,17.7935632 C2.37696737,16.9537931 2.07600768,13.2510345 2.07600768,13.2510345 Z" id="Path" fill="#A8A8A8"></path>
                        <path d="M17.6798464,18.8903448 C12.3547025,18.9321839 5.30671785,18.0834483 3.88790787,17.2436782 C2.80690979,16.6011494 2.37696737,14.3029885 2.23262956,13.2450575 L2.07600768,13.2450575 C2.07600768,13.2450575 2.3831094,16.9448276 3.79270633,17.7875862 C5.20230326,18.6303448 12.259501,19.476092 17.5846449,19.4342529 C19.1201536,19.4342529 19.6545106,18.8903448 19.6238004,18.1013793 C19.4119002,18.5855172 18.8253359,18.8813793 17.6798464,18.8903448 Z" id="Path" fill="#000000" opacity="0.2"></path>
                        <path d="M159.600768,13.0747126 C159.600768,13.0747126 146.616507,12.3126437 148.148944,21.1675862 C148.148944,21.1675862 147.841843,22.7305747 149.300576,23.4418391 C149.300576,23.4418391 149.325144,22.7873563 150.633397,23.0085057 C151.098914,23.0848013 151.572113,23.1068725 152.042994,23.0742529 C152.680814,23.0333714 153.287186,22.7897796 153.768906,22.3809195 L153.768906,22.3809195 C153.768906,22.3809195 157.417274,20.9165517 158.836084,15.1098851 C158.836084,15.1098851 159.886372,13.8427586 159.846449,13.5170115 L157.653743,14.4135632 C157.653743,14.4135632 158.403071,15.9526437 157.813436,17.2317241 C157.813436,17.2317241 157.742802,14.4703448 157.322073,14.542069 C157.236084,14.542069 156.182726,15.074023 156.182726,15.074023 C156.182726,15.074023 157.472553,17.7636782 156.489827,19.7002299 C156.489827,19.7002299 156.858349,16.4128736 155.771209,15.2682759 L154.235701,16.143908 C154.235701,16.143908 155.740499,18.9112644 154.720921,21.1705747 C154.720921,21.1705747 154.981958,17.7068966 153.913244,16.356092 L152.515931,17.4170115 C152.515931,17.4170115 153.928599,20.1455172 153.065643,22.0193103 C153.065643,22.0193103 152.955086,17.9878161 152.2119,17.6829885 C152.2119,17.6829885 150.983493,18.731954 150.802303,19.1772414 C150.802303,19.1772414 151.769674,21.1556322 151.170825,22.2016092 C151.170825,22.2016092 150.802303,19.511954 150.498273,19.511954 C150.498273,19.511954 149.269866,21.3050575 149.153167,22.5004598 C149.153167,22.5004598 149.208445,20.6864368 150.203455,19.3296552 C149.501057,19.4598681 148.853107,19.7870848 148.339347,20.2710345 C148.339347,20.2710345 148.52975,19.0128736 150.48906,18.9022989 C150.48906,18.9022989 151.496353,17.5514943 151.766603,17.4708046 C151.766603,17.4708046 149.801152,17.3094253 148.609597,17.8234483 C148.609597,17.8234483 149.656814,16.628046 152.125912,17.1749425 L153.504798,16.0811494 C153.504798,16.0811494 150.919002,15.7344828 149.819578,16.1170115 C149.819578,16.1170115 151.084837,15.0650575 153.876392,15.8181609 L155.38119,14.9455172 C155.38119,14.9455172 153.173129,14.4822989 151.858733,14.6466667 C151.858733,14.6466667 153.246833,13.9174713 155.820345,14.7064368 L156.895202,14.2372414 C156.895202,14.2372414 155.276775,13.9383908 154.803839,13.8816092 C154.330902,13.8248276 154.306334,13.7052874 154.306334,13.7052874 C155.330497,13.5391253 156.381956,13.6529301 157.34357,14.034023 C157.34357,14.034023 159.640691,13.2151724 159.600768,13.0747126 Z" id="Path" fill="#45CB87"></path>
                        <ellipse id="Oval" fill="#45CB87" opacity="0.1" cx="150.657965" cy="24.2128736" rx="9.18848369" ry="1.51218391"></ellipse>
                        <path d="M136.853743,13.5468966 C136.853743,13.5468966 129.532438,13.1165517 130.404607,18.1103448 C130.314279,18.6296875 130.576859,19.1467636 131.055662,19.3924138 C131.055662,19.3924138 131.055662,19.0218391 131.808061,19.1473563 C132.069878,19.1888003 132.335613,19.2018303 132.600384,19.1862069 C132.959628,19.1606526 133.300917,19.0234044 133.573896,18.7947126 L133.573896,18.7947126 C133.573896,18.7947126 135.631478,17.9668966 136.433013,14.6944828 C136.433013,14.6944828 137.022649,13.9802299 137.001152,13.797931 L135.772745,14.3089655 C135.772745,14.3089655 136.193474,15.1786207 135.861804,15.8988506 C135.861804,15.8988506 135.821881,14.3418391 135.585413,14.3777011 C135.536276,14.3777011 134.94357,14.6765517 134.94357,14.6765517 C134.94357,14.6765517 135.66833,16.1708046 135.121689,17.2855172 C135.121689,17.2855172 135.327447,15.4236782 134.716315,14.7841379 L133.847217,15.2802299 C133.847217,15.2802299 134.694818,16.8402299 134.120537,18.1133333 C134.120537,18.1133333 134.267946,16.1588506 133.662956,15.3997701 L132.876775,15.9974713 C132.876775,15.9974713 133.672169,17.5365517 133.183877,18.5914943 C133.183877,18.5914943 133.119386,16.3172414 132.701727,16.1468966 C132.402697,16.3922734 132.135588,16.6722781 131.906334,16.9806897 C131.906334,16.9806897 132.452975,18.0983908 132.115163,18.6871264 C132.115163,18.6871264 131.906334,17.171954 131.737428,17.165977 C131.737428,17.165977 131.04952,18.1701149 130.978887,18.8574713 C131.010014,18.2197181 131.213395,17.6012267 131.568522,17.0643678 C131.172896,17.1372082 130.807807,17.321081 130.518234,17.5933333 C130.518234,17.5933333 130.62572,16.882069 131.746641,16.8222989 C131.746641,16.8222989 132.311708,16.0602299 132.465259,16.0154023 C132.465259,16.0154023 131.356622,15.9227586 130.684069,16.2126437 C130.684069,16.2126437 131.276775,15.5432184 132.667946,15.848046 L133.444914,15.2294253 C133.444914,15.2294253 131.98618,15.0351724 131.368906,15.2503448 C131.368906,15.2503448 132.081382,14.6526437 133.656814,15.0889655 L134.501344,14.5988506 C133.850476,14.4585061 133.183442,14.4022363 132.517466,14.4314943 C132.517466,14.4314943 133.300576,14.022069 134.750096,14.4643678 L135.364299,14.2013793 C135.364299,14.2013793 134.442994,14.0250575 134.1881,13.9981609 C133.933205,13.9712644 133.905566,13.8995402 133.905566,13.8995402 C134.483395,13.806009 135.076556,13.8701451 135.619194,14.0848276 C135.619194,14.0848276 136.87524,13.6275862 136.853743,13.5468966 Z" id="Path" fill="#45CB87"></path>
                        <ellipse id="Oval" fill="#45CB87" opacity="0.1" cx="131.811132" cy="19.8287356" rx="5.18080614" ry="1"></ellipse>
                        <path d="M150.786948,2.9645977 C150.786948,2.9645977 141.951631,2.4445977 142.992706,8.47241379 C142.883005,9.09960367 143.200263,9.7243061 143.778887,10.0204598 C143.778887,10.0204598 143.778887,9.57517241 144.684837,9.7216092 C145.001554,9.77081869 145.322886,9.78585227 145.642994,9.76643678 C146.07703,9.73618801 146.489488,9.57060722 146.819194,9.29425287 L146.819194,9.29425287 C146.819194,9.29425287 149.303647,8.29609195 150.267946,4.34229885 C150.267946,4.34229885 150.983493,3.4816092 150.955854,3.26045977 L149.46334,3.87908046 C149.46334,3.87908046 149.973129,4.92804598 149.573896,5.79770115 C149.573896,5.79770115 149.52476,3.91793103 149.236084,3.96275862 C149.180806,3.96275862 148.462188,4.32436782 148.462188,4.32436782 C148.462188,4.32436782 149.340499,6.15034483 148.677159,7.47425287 C148.677159,7.47425287 148.928983,5.22689655 148.188868,4.45586207 L147.13858,5.05356322 C147.13858,5.05356322 148.164299,6.93632184 147.47025,8.4754023 C147.47025,8.4754023 147.648369,6.11747126 146.917466,5.18804598 L145.965451,5.90827586 C145.965451,5.90827586 146.92975,7.76413793 146.343186,9.04022989 C146.343186,9.04022989 146.266411,6.29678161 145.759693,6.08758621 C145.759693,6.08758621 144.927447,6.80183908 144.801536,7.09471264 C144.801536,7.09471264 145.461804,8.44252874 145.050288,9.1537931 C145.050288,9.1537931 144.801536,7.32781609 144.595777,7.31885057 C144.595777,7.31885057 143.766603,8.51425287 143.674472,9.36 C143.714092,8.59253055 143.959748,7.84857356 144.386948,7.20229885 C143.909188,7.2907231 143.468366,7.51300241 143.118618,7.84183908 C143.118618,7.84183908 143.247601,6.98413793 144.592706,6.90942529 C144.592706,6.90942529 145.277543,5.99195402 145.461804,5.93517241 C145.461804,5.93517241 144.122841,5.82758621 143.312092,6.17724138 C143.312092,6.17724138 144.024568,5.36735632 145.707486,5.73494253 L146.647217,4.9908046 C146.647217,4.9908046 144.884453,4.75471264 144.138196,5.01471264 C144.138196,5.01471264 144.998081,4.30045977 146.902111,4.82045977 L147.92476,4.22275862 C147.92476,4.22275862 146.423033,3.92390805 145.529367,4.02252874 C145.529367,4.02252874 146.472169,3.52643678 148.22572,4.06137931 L148.956622,3.7445977 C148.956622,3.7445977 147.854127,3.53241379 147.53167,3.49954023 C147.209213,3.46666667 147.193858,3.38 147.193858,3.38 C147.890829,3.26713625 148.606314,3.34472849 149.260653,3.60413793 C149.260653,3.60413793 150.817658,3.06022989 150.786948,2.9645977 Z" id="Path" fill="#45CB87"></path>
                        <ellipse id="Oval" fill="#45CB87" opacity="0.1" cx="144.703263" cy="10.5464368" rx="6.25566219" ry="1.02804598"></ellipse>
                    </g>
                    <g id="1cf578eb-5ffb-4cd7-95b8-45aaaddab7e0" transform="translate(8.000000, 29.000000)" fill-rule="nonzero">
                        <path d="M292.723295,149.758229 L292.723295,0.165150905 L0.230587618,0.165150905 L0.230587618,141.176499 C3.96610703,144.277666 8.45795383,146.886439 13.1434942,149.030342 C15.4514201,150.088531 17.808538,151.055989 20.2148478,151.932716 L289.233736,151.932716 L292.723295,149.758229 Z" id="Path" fill="url(#linearGradient-1)"></path>
                        <path d="M292.157587,149.819396 L292.157587,4.44684105 L0.870083945,4.44684105 L0.870083945,141.491509 C4.59023085,144.507042 9.06363064,147.042414 13.7215005,149.137384 C16.0212277,150.156834 18.3701469,151.096767 20.7682581,151.957183 L288.674176,151.957183 L292.157587,149.819396 Z" id="Path" fill="#FFFFFF"></path>
                        <rect id="Rectangle" fill="#5A5773" x="0.873158447" y="0.590261569" width="291.284428" height="7.68869215"></rect>
                    </g>
                    <g id="6703b009-63cb-4af0-a0d7-9948e224c180" transform="translate(13.000000, 31.000000)" fill="#FFFFFF" fill-rule="nonzero">
                        <ellipse id="Oval" cx="2.06938776" cy="2" rx="1.98979592" ry="2"></ellipse>
                        <ellipse id="Oval" cx="7.42653061" cy="2" rx="1.98979592" ry="2"></ellipse>
                        <ellipse id="Oval" cx="12.7836735" cy="2" rx="1.98979592" ry="2"></ellipse>
                    </g>
                    <g id="8c4e1fb4-b9ff-4530-b767-610e84618ea6" transform="translate(18.000000, 54.000000)" fill-rule="nonzero">
                        <rect id="Rectangle" fill="#F0F6FE" x="66.4432318" y="0.0985263158" width="47.92978" height="30.2783684"></rect>
                        <rect id="Rectangle" fill="#F0F6FE" x="0.0796277496" y="0.0985263158" width="47.92978" height="30.2783684"></rect>
                        <rect id="Rectangle" fill="#F0F6FE" x="132.806836" y="0.0985263158" width="47.92978" height="30.2783684"></rect>
                        <rect id="Rectangle" fill="#F0F6FE" x="0.0796277496" y="43.3854474" width="47.92978" height="30.2783684"></rect>
                        <rect id="Rectangle" fill="#F0F6FE" x="66.4432318" y="43.3854474" width="47.92978" height="30.2783684"></rect>
                        <rect id="Rectangle" fill="#444971" opacity="0.5" x="132.806836" y="43.3854474" width="47.92978" height="41"></rect>
                        <rect id="Rectangle" fill="#F0F6FE" x="0.0796277496" y="86.6692895" width="47.92978" height="30.2783684"></rect>
                        <rect id="Rectangle" fill="#F0F6FE" x="66.4432318" y="86.6692895" width="47.92978" height="30.2783684"></rect>
                        <rect id="Rectangle" fill="#F0F6FE" x="130.806836" y="94.9476579" width="47.92978" height="24"></rect>
                    </g>
                    <g id="5f43f84a-a268-4bb5-a31a-6b0c09aee323" transform="translate(187.000000, 1.000000)" fill="#45CB87" fill-rule="nonzero" opacity="0.1">
                        <path d="M34.7509009,6.63283582 C34.7509009,6.63283582 22.7531532,5.94925373 24.1689189,13.9074627 C24.1689189,13.9074627 23.8882883,15.3134328 25.2346847,15.9522388 C25.2346847,15.9522388 25.2567568,15.3552239 26.4644144,15.561194 C26.8944843,15.6297156 27.3316154,15.6497558 27.7666667,15.6208955 C28.3540449,15.5823916 28.9120669,15.3633244 29.3558559,14.9970149 L29.3558559,14.9970149 C29.3558559,14.9970149 32.7265766,13.680597 34.0382883,8.46268657 C34.0382883,8.46268657 35.0094595,7.32238806 34.9842342,7.02985075 L32.9599099,7.85074627 C32.9599099,7.85074627 33.6504505,9.23283582 33.104955,10.3820896 C33.104955,10.3820896 33.0418919,7.89850746 32.6509009,7.95820896 C32.5720721,7.95820896 31.6009009,8.4358209 31.6009009,8.4358209 C31.6009009,8.4358209 32.7896396,10.8447761 31.890991,12.5970149 C31.890991,12.5970149 32.2315315,9.62985075 31.2288288,8.6119403 L29.7972973,9.41492537 C29.7972973,9.41492537 31.1878378,11.9014925 30.245045,13.9313433 C30.245045,13.9313433 30.4878378,10.8179104 29.4977477,9.60597015 L28.204955,10.558209 C28.204955,10.558209 29.5135135,12.9970149 28.7252252,14.680597 C28.7252252,14.680597 28.6211712,11.0537313 27.9337838,10.7820896 C27.9337838,10.7820896 26.804955,11.7253731 26.6346847,12.1134328 C26.6346847,12.1134328 27.527027,13.9044776 26.9720721,14.8298507 C26.9720721,14.8298507 26.6315315,12.4179104 26.3414414,12.4059701 C26.3414414,12.4059701 25.2157658,14.0059701 25.0990991,15.0925373 C25.1537994,14.0786569 25.4875025,13.0959241 26.0671171,12.241791 C25.4177444,12.3581606 24.8189574,12.6530153 24.3454955,13.0895522 C24.3454955,13.0895522 24.5189189,11.958209 26.3445946,11.8567164 C26.3445946,11.8567164 27.2747748,10.6447761 27.5238739,10.5701493 C27.5238739,10.5701493 25.7076577,10.4268657 24.6072072,10.8895522 C24.6072072,10.8895522 25.5752252,9.82089552 27.8581081,10.2925373 L29.1193694,9.30746269 C29.1193694,9.30746269 26.7292793,9.00895522 25.713964,9.34029851 C25.713964,9.34029851 26.8806306,8.39701493 29.4630631,9.08358209 L30.8504505,8.29850746 C30.8504505,8.29850746 28.8135135,7.88059701 27.5995495,8.03283582 C27.5995495,8.03283582 28.8797297,7.37910448 31.2572072,8.08656716 L32.2504505,7.66567164 C32.2504505,7.66567164 30.7558559,7.3880597 30.3207207,7.34328358 C29.8855856,7.29850746 29.8603604,7.18507463 29.8603604,7.18507463 C30.8058927,7.03609272 31.7765716,7.1394602 32.6635135,7.48358209 C32.6635135,7.48358209 34.7855856,6.75820896 34.7509009,6.63283582 Z" id="Path"></path>
                        <path d="M17.6513514,0.179104478 C17.6513514,0.179104478 7.56126126,6.36119403 13.6815315,11.9761194 C13.6815315,11.9761194 14.3342342,13.2656716 15.8193694,13.0268657 C15.8193694,13.0268657 15.4662162,12.5373134 16.5666667,12.0208955 C16.9567891,11.8349389 17.3219991,11.605446 17.6545045,11.3373134 C18.1038446,10.9766053 18.4170499,10.4873115 18.5468468,9.94328358 L18.5468468,9.94328358 C18.5468468,9.94328358 20.4387387,6.9880597 18.2315315,2.05074627 C18.2315315,2.05074627 18.3009009,0.588059701 18.0864865,0.373134328 L16.9702703,2.1641791 C16.9702703,2.1641791 18.3923423,2.88955224 18.672973,4.11940299 C18.672973,4.11940299 17.068018,2.15820896 16.7810811,2.4238806 C16.7243243,2.47761194 16.2324324,3.4 16.2324324,3.4 C16.2324324,3.4 18.7013514,4.67164179 19.0702703,6.58507463 C19.0702703,6.58507463 17.4936937,4.00298507 16.0400901,3.74925373 L15.3842342,5.18208955 C15.3842342,5.18208955 18.0644144,6.40597015 18.5752252,8.57014925 C18.5752252,8.57014925 16.8189189,5.92537313 15.2644144,5.50447761 L14.822973,6.99701493 C14.822973,6.99701493 17.4085586,8.23880597 17.8216216,10.041791 C17.8216216,10.041791 15.4693694,7.18208955 14.7441441,7.35522388 C14.7441441,7.35522388 14.4288288,8.74626866 14.5297297,9.14626866 C14.5297297,9.14626866 16.3648649,10.0776119 16.5036036,11.1462687 C16.5036036,11.1462687 14.7189189,9.39402985 14.4887387,9.54029851 C14.4887387,9.54029851 14.5833333,11.4597015 15.172973,12.4089552 C14.5834547,11.5614299 14.2378278,10.5829067 14.1702703,9.57014925 C13.7201167,10.0280473 13.4218954,10.6010004 13.3126126,11.2179104 C13.3126126,11.2179104 12.745045,10.2089552 14.1545045,9.10447761 C14.1545045,9.10447761 14.1545045,7.6119403 14.2963964,7.40597015 C14.2963964,7.40597015 12.745045,8.30149254 12.1459459,9.29850746 C12.1459459,9.29850746 12.2594595,7.89552239 14.4004505,7.00597015 L14.8103604,5.49850746 C14.8103604,5.49850746 12.6914414,6.59104478 12.0891892,7.4358209 C12.0891892,7.4358209 12.4391892,6.02089552 14.9459459,5.12537313 L15.5765766,3.71343284 C15.5765766,3.71343284 13.6846847,4.52238806 12.7891892,5.32537313 C12.7891892,5.32537313 13.4198198,4.07761194 15.7720721,3.31641791 L16.3081081,2.42089552 C16.3081081,2.42089552 14.9301802,3.0358209 14.5518018,3.24477612 C14.1734234,3.45373134 14.081982,3.3761194 14.081982,3.3761194 C14.7500742,2.72540762 15.5961635,2.26341812 16.5256757,2.04179104 C16.5256757,2.04179104 17.7585586,0.262686567 17.6513514,0.179104478 Z" id="Path"></path>
                        <path d="M2.2954955,7.38208955 C2.2954955,7.38208955 -3.73648649,17.2328358 4.40810811,19.6 C4.40810811,19.6 5.60945946,20.4686567 6.81711712,19.6 C6.81711712,19.6 6.27162162,19.319403 7.00315315,18.3850746 C7.25728267,18.0515966 7.46895652,17.6908935 7.63378378,17.3104478 C7.86168963,16.7956884 7.90705322,16.2248277 7.76306306,15.6835821 L7.76306306,15.6835821 C7.76306306,15.6835821 8.03108108,12.238806 3.6954955,8.78507463 C3.6954955,8.78507463 3.06486486,7.45373134 2.74954955,7.35522388 L2.61396396,9.44477612 C2.61396396,9.44477612 4.22837838,9.48059701 5.07027027,10.4567164 C5.07027027,10.4567164 2.6990991,9.39701493 2.57927928,9.75223881 C2.55405405,9.8238806 2.55720721,10.8567164 2.55720721,10.8567164 C2.55720721,10.8567164 5.39189189,10.9373134 6.65315315,12.4835821 C6.65315315,12.4835821 4.0045045,10.8626866 2.59504505,11.2567164 L2.69594595,12.8149254 C2.69594595,12.8149254 5.66936937,12.7552239 7.16081081,14.4656716 C7.16081081,14.4656716 4.32297297,12.8626866 2.7463964,13.1552239 L3.06171171,14.6746269 C3.06171171,14.6746269 5.96261261,14.6746269 7.19234234,16.1014925 C7.19234234,16.1014925 3.72387387,14.561194 3.15945946,15.0179104 C3.15945946,15.0179104 3.54099099,16.3970149 3.83108108,16.7164179 C3.83108108,16.7164179 5.91216216,16.758209 6.5490991,17.6507463 C6.5490991,17.6507463 4.11801802,16.8537313 3.98243243,17.0865672 C3.98243243,17.0865672 4.98828829,18.7552239 5.96891892,19.3462687 C5.0384949,18.8469144 4.26149098,18.1267605 3.71441441,17.2567164 C3.53304418,17.8578297 3.54181429,18.4960937 3.73963964,19.0925373 C3.73963964,19.0925373 2.74954955,18.438806 3.47477477,16.8477612 C3.47477477,16.8477612 2.74954955,15.5164179 2.79054054,15.2746269 C2.79054054,15.2746269 1.84459459,16.7462687 1.78153153,17.8835821 C1.78153153,17.8835821 1.20765766,16.5850746 2.68963964,14.8746269 L2.33333333,13.3522388 C2.33333333,13.3522388 0.968018018,15.2358209 0.835585586,16.2477612 C0.835585586,16.2477612 0.46981982,14.8358209 2.27657658,12.9641791 L2.15675676,11.438806 C2.15675676,11.438806 0.851351351,12.9761194 0.447747748,14.0716418 C0.447747748,14.0716418 0.403603604,12.6925373 2.14099099,11 L2.18828829,9.97014925 C2.18828829,9.97014925 1.24234234,11.1074627 1.01846847,11.4626866 C0.794594595,11.8179104 0.662162162,11.7671642 0.662162162,11.7671642 C0.946338945,10.8996201 1.47897086,10.1236277 2.2009009,9.52537313 C2.2009009,9.52537313 2.42792793,7.40895522 2.2954955,7.38208955 Z" id="Path"></path>
                    </g>
                    <path d="M239.861955,125.26634 C237.432449,125.26634 235.462945,127.221437 235.462945,129.63317 C235.462945,132.044904 237.432449,134 239.861955,134 C242.291461,134 244.260965,132.044904 244.260965,129.63317 C244.25421,127.22422 242.288657,125.273046 239.861955,125.26634 Z M227,91 L227,95.3668299 L231.39901,95.3668299 L239.317842,111.290043 L236.007057,116.639486 C235.64569,117.272199 235.456079,117.987241 235.456797,118.71457 C235.456797,121.637996 237.47032,123.081399 240.200104,123.081399 L265.920939,123.081399 L265.920939,118.882407 L240.738068,118.882407 C240.589531,118.891424 240.44423,118.836776 240.339003,118.732318 C240.233775,118.62786 240.178724,118.483622 240.187807,118.336172 C240.245789,118.147301 240.324118,117.965187 240.421438,117.792988 L242.619405,114.34774 L259.007331,114.34774 C260.621713,114.360895 262.107728,113.476044 262.856081,112.055993 L270.777987,98.5343836 C270.93245,98.1910219 271.008053,97.8178564 270.999321,97.4419133 C270.993146,96.8742153 270.75563,96.3331998 270.340934,95.9422358 C269.926239,95.5512717 269.369719,95.3436915 268.798279,95.3668299 L236.240687,95.3668299 L234.150312,91 L227,91 Z M261.518855,125.26634 C259.08975,125.268025 257.121789,127.223867 257.12292,129.635203 C257.124051,132.046539 259.093848,134.00056 261.522953,133.999999 C263.952059,133.999438 265.920939,132.044506 265.920939,129.63317 C265.914177,127.223032 263.946758,125.27137 261.518855,125.26634 Z" id="Shape" fill-opacity="0.757375437" fill="#6D6F7C" fill-rule="nonzero"></path>
                    <polygon id="Path" fill="#FFFFFF" fill-rule="nonzero" points="256 102.636364 252 102.636364 252 99 249 99 249 102.636364 245 102.636364 245 105.363636 249 105.363636 249 109 252 109 252 105.363636 256 105.363636"></polygon>
                    <g id="standing-20" transform="translate(47.000000, 80.000000)">
                        <g id="Head/Front/Hijab2" transform="translate(41.000000, 0.000000)">
                            <g id="Head" transform="translate(7.261699, 1.422716)" fill="#B28B67">
                                <path d="M3.61345007,15.3688289 C1.59821174,12.9586851 0.234256285,10.0050205 0.462174042,6.69535462 C1.11886856,-2.84071442 14.1474129,-0.742900727 16.6817345,4.07008804 C19.2160561,8.88307682 18.9149129,21.0916219 15.639528,21.9518373 C14.333309,22.29489 11.5506742,21.4545483 8.71860126,19.7152992 L10.496239,32.5288602 L0,32.5288602 L3.61345007,15.3688289 Z" id="Path"></path>
                            </g>
                            <g id="Hijab" fill="#89C5CC">
                                <path d="M22.5535686,3.84813496 C22.7873725,3.9281886 22.5535686,2.90324798 21.9944024,2.52841089 C20.2796878,1.37895163 15.1753134,-0.322287417 11.6848897,0.415963459 C9.34663285,0.910522326 6.43046199,2.15190431 4.56282685,3.73436445 C2.87920398,5.16095596 1.34724745,7.67596741 0.751121423,9.88549778 C0.125209248,12.2055478 -0.111384335,15.4337476 0.751121423,17.4578946 C1.77829776,19.868494 5.41611812,22.4665054 5.51232596,22.811556 C5.62214623,23.205284 5.19217039,24.7435225 4.87749864,26.3643517 C4.56282685,27.9851809 4.70603883,32.112045 4.87749864,32.7851482 C5.1514853,33.8607432 6.62084712,34.3896146 7.26169915,34.4674227 C10.8043098,34.897544 13.3723319,39.378471 14.4410689,40.5249416 C19.198313,45.3913276 22.5184458,47.5076803 24.4014673,46.8740007 C24.8970679,46.7072195 24.1542069,40.6604823 23.6586063,38.0687883 C23.1630058,35.4770937 18.3023907,30.8521045 17.9910894,29.3279503 C17.807739,28.4300936 17.7771337,26.8671176 17.7579382,26.7958549 C17.2994703,23.5758086 17.3784405,23.3140592 16.7097541,22.0019285 C16.0410678,20.6897979 15.5226311,20.612783 15.6833344,20.2305765 C16.4685794,18.363 18.9940661,12.6488254 19.5670251,10.7803338 C20.2498907,8.55338891 19.9271821,9.28484842 20.6311714,7.06545181 C20.9429044,6.08266236 21.3395987,3.43247618 22.5535686,3.84813496 Z" id="path-1"></path>
                            </g>
                            <g id="Shade-Clipped">
                                <mask id="mask-3" fill="white">
                                    <use xlink:href="#path-2"></use>
                                </mask>
                                <g id="path-1"></g>
                                <path d="M13.5227213,4.0963214 C12.7555368,6.57651375 12.5905324,7.90043142 12.7555368,11.2892582 L12.3791929,11.2892582 C11.6761434,8.09122433 12.3018631,5.08061224 13.0497007,4.0963214 L13.5227213,4.0963214 Z M3.23030819,10.497069 C4.65997124,14.0316048 5.31181736,16.1188002 9.30415519,18.9790104 L8.99587235,19.198948 C5.03261494,16.9104002 3.87847347,14.1805397 2.92959642,10.6443153 L3.23030819,10.497069 Z M9.1044257,6.90017789 C9.75377499,11.9170917 9.94335168,14.7827568 13.3260963,20.2705786 L12.9661969,20.3826884 C9.48476993,15.6044727 8.93291037,11.7045532 8.76843026,6.92773117 L9.1044257,6.90017789 Z M5.36776366,21.8028573 L5.67568375,21.4214744 C9.87738788,22.7623906 9.40935882,25.5307759 14.7014367,28.3343834 L14.2591918,28.6074033 C9.62528911,26.6589023 8.54205124,22.4797316 5.36776366,21.8028573 Z" id="Shade" fill-opacity="0.2" fill="#000000" mask="url(#mask-3)"></path>
                            </g>
                        </g>
                        <g id="Bottom/Standing/Sprint" transform="translate(0.000000, 58.000000)" fill-rule="nonzero">
                            <path d="M80.2219586,8.13953456 C71.7835046,15.0130259 74.8085614,75.0504097 74.244435,75.8080561 C73.9937122,76.144788 60.6444279,79.0431556 34.1965833,84.5031588 L35.323753,89.1472581 C66.2469148,87.5248659 82.6128962,85.5659913 84.4216959,83.2706349 C87.0113795,79.984341 90.2543066,61.6383863 94.1504774,28.2327703 L80.2219586,8.13953456 Z" id="Leg" fill="#B28B67" transform="translate(64.173530, 48.643396) rotate(-55.000000) translate(-64.173530, -48.643396) "></path>
                            <path d="M38.6307698,79.6030541 L40.6182279,87.0822042 C63.6578946,89.6549825 78.8612534,86.3414579 84.2242102,81.2493906 C87.7995145,77.854679 91.0505062,59.5585353 93.9771846,26.3609588 L79.0763954,5.08042692 C58.9928049,20.2252119 70.791486,69.574133 70.2760435,70.7056126 C69.7606014,71.8370918 57.6033173,72.7664341 38.6307698,79.6030541 Z" id="Pant" fill="#2F3676" transform="translate(66.303977, 46.527352) rotate(-55.000000) translate(-66.303977, -46.527352) "></path>
                            <g id="Accessories/Shoe/Flat-Sneaker" transform="translate(85.457404, 99.245408) rotate(20.000000) translate(-85.457404, -99.245408) translate(72.457404, 94.245408)" fill="#E4E4E4">
                                <path d="M0.75358464,2.74553167 C0.263213923,4.06281499 0.0180285645,5.04844733 0.0180285645,5.70242871 C0.0180285645,6.4978245 0.149705641,7.65850473 0.413059798,9.18446944 C1.329995,9.18446944 9.57064603,9.18446944 25.1350129,9.18446944 C25.7774488,7.04721334 25.4065976,5.89337758 24.0224591,5.72296206 C22.6383206,5.55254659 21.4884933,5.39867505 20.572977,5.26134746 L9.08245023,0.106524437 C8.86134965,0.00733537061 8.60220725,0.107294016 8.50363949,0.329788261 C8.50195328,0.333594501 8.50032075,0.337424637 8.4987424,0.341277443 L7.76014018,2.14423679 C6.47878997,2.74585273 5.43755989,3.04666069 4.63644998,3.04666069 C3.98556717,3.04666069 3.08669251,2.78213312 1.93982599,2.25307796 L1.93982838,2.25307267 C1.49971257,2.05004509 0.979372773,2.244492 0.777616911,2.68738199 C0.768920937,2.70647118 0.760905072,2.72586678 0.75358464,2.74553167 Z" id="shoe"></path>
                            </g>
                            <polygon id="Leg" fill="#997659" points="46.0538581 12.265233 23.3726497 67.0593958 1.08055215 113.383242 6.33997945 113.383242 63.8818847 12.265233"></polygon>
                            <g id="Accessories/Shoe/Flat-Sneaker" transform="translate(0.012396, 108.499187)" fill="#E4E4E4">
                                <path d="M0.75358464,2.74553167 C0.263213923,4.06281499 0.0180285645,5.04844733 0.0180285645,5.70242871 C0.0180285645,6.4978245 0.149705641,7.65850473 0.413059798,9.18446944 C1.329995,9.18446944 9.57064603,9.18446944 25.1350129,9.18446944 C25.7774488,7.04721334 25.4065976,5.89337758 24.0224591,5.72296206 C22.6383206,5.55254659 21.4884933,5.39867505 20.572977,5.26134746 L9.08245023,0.106524437 C8.86134965,0.00733537061 8.60220725,0.107294016 8.50363949,0.329788261 C8.50195328,0.333594501 8.50032075,0.337424637 8.4987424,0.341277443 L7.76014018,2.14423679 C6.47878997,2.74585273 5.43755989,3.04666069 4.63644998,3.04666069 C3.98556717,3.04666069 3.08669251,2.78213312 1.93982599,2.25307796 L1.93982838,2.25307267 C1.49971257,2.05004509 0.979372773,2.244492 0.777616911,2.68738199 C0.768920937,2.70647118 0.760905072,2.72586678 0.75358464,2.74553167 Z" id="shoe"></path>
                            </g>
                            <path d="M3.09363388,103.759995 L14.7801396,105.965402 C23.8161131,92.5971038 61.632031,37.7825956 65.7781871,12.265233 L39.761391,12.265233 C25.915266,30.7117025 11.7067827,90.1705603 3.09363388,103.759995 Z" id="Pant" fill="#5C63AB"></path>
                        </g>
                        <g id="Body/Pointing-Up" transform="translate(34.000000, 14.000000)" fill-rule="nonzero">
                            <path d="M48.9880309,10.7519499 L65.5861281,5.73694019 C68.6825168,3.31086951 71.603122,1.53704054 74.3479431,0.415453246 C75.1462336,0.264218893 76.46784,0.352052148 74.8163273,2.23767459 C73.1648145,4.12329702 71.5119262,6.18144636 71.9834609,6.97209598 C72.4549955,7.7627456 74.1730406,7.16672252 74.6702754,8.41915933 C75.0017656,9.25411719 72.1553704,9.8521315 66.1310905,10.2132022 L53.2257413,17.8575659 L48.9880309,10.7519499 Z M47.5213308,40.2059179 L61.4896122,50.529811 C65.2780976,51.5587265 68.4432549,52.8388711 70.9850837,54.3702448 C71.5855081,54.920917 72.3111771,56.0361199 69.8210728,55.8433849 C67.3309689,55.6506499 64.7031412,55.5606388 64.3595549,56.4154961 C64.015969,57.270353 65.5228453,58.2926685 64.8283082,59.4460948 C64.3652839,60.2150455 62.1777696,58.2869302 58.2657657,53.661748 L44.4335029,47.8885711 L47.5213308,40.2059179 Z" id="Skin" fill="#B28B67"></path>
                            <path d="M20.7198859,16.5938548 C31.7621503,28.4142917 45.2191895,36.1378031 63.5665291,42.9989231 L59.507822,51.1804356 C40.5860735,49.3558881 30.4694009,47.9068072 22.5212083,36.0731919 C20.5263732,33.1031944 16.9515687,22.8893334 14.8113131,17.5847988 L20.7198859,16.5938548 Z" id="Coat-Back" fill="#2026A2" transform="translate(39.188921, 33.887145) rotate(15.000000) translate(-39.188921, -33.887145) "></path>
                            <path d="M4.56025156,59.9654555 L38.2786202,59.9654555 C30.6408453,36.5200592 26.7391795,20.4285965 26.5736238,11.6910677 C26.5651836,11.2456201 25.7478141,10.4606784 25.3861918,10.5634735 C22.7416878,11.315203 19.9118598,11.0341245 16.896708,9.7202381 C8.90312707,22.6598832 6.13880821,38.5912062 4.56025156,59.9654555 Z" id="Shirt" fill="#F2F2F2"></path>
                            <path d="M19.7740243,9.74112749 C29.4392567,9.82078593 45.1203837,11.5972303 63.2051107,5.7535104 L64.9905745,14.7330714 C51.3223083,23.5809669 37.4820436,30.4349598 25.3545229,29.461652 C30.6208039,52.1982056 30.3780032,70.8104744 18.7515128,70.8104744 C13.1992849,70.8104744 7.2064149,70.8104744 0.772902281,70.8104744 C-2.08251602,51.4960279 5.42208211,24.7160622 12.3793902,11.2084637 C12.645069,10.6926492 13.2107252,9.7202381 14.5430787,9.7202381 C15.7039791,9.7202381 17.4453306,9.7202381 19.7671322,9.7202381 C19.7694299,9.72720123 19.7717271,9.73416436 19.7740243,9.74112749 Z" id="Coat-Front" fill="#1F28CF"></path>
                        </g>
                    </g>
                </g>
            </g>
        </g>
    </g>
</svg>