<?xml version="1.0" encoding="UTF-8"?>
<svg width="705px" height="517px" viewBox="0 0 705 517" version="1.1" xmlns="http://www.w3.org/2000/svg" xmlns:xlink="http://www.w3.org/1999/xlink">
    <!-- Generator: sketchtool 53.2 (72643) - https://sketchapp.com -->
    <title>79A5D7EF-A8D5-4E3E-A82D-5BB871062C5E</title>
    <desc>Created with sketchtool.</desc>
    <defs>
        <linearGradient x1="50.0000008%" y1="99.9892485%" x2="50.0000008%" y2="-3.81971151e-15%" id="linearGradient-1">
            <stop stop-color="#808080" stop-opacity="0.25" offset="0%"></stop>
            <stop stop-color="#808080" stop-opacity="0.12" offset="54%"></stop>
            <stop stop-color="#808080" stop-opacity="0.1" offset="100%"></stop>
        </linearGradient>
        <linearGradient x1="0.27700831%" y1="50%" x2="100%" y2="50%" id="linearGradient-2">
            <stop stop-color="#808080" stop-opacity="0.25" offset="0%"></stop>
            <stop stop-color="#808080" stop-opacity="0.12" offset="54%"></stop>
            <stop stop-color="#808080" stop-opacity="0.1" offset="100%"></stop>
        </linearGradient>
        <linearGradient x1="-87.5232208%" y1="-23.2719973%" x2="179.971476%" y2="128.534627%" id="linearGradient-3">
            <stop stop-color="#FFFFFF" stop-opacity="0" offset="0%"></stop>
            <stop stop-color="#000000" offset="90%"></stop>
        </linearGradient>
        <linearGradient x1="50%" y1="67.3337957%" x2="50%" y2="-146.794808%" id="linearGradient-4">
            <stop stop-color="#FFFFFF" offset="0%"></stop>
            <stop stop-color="#D1D3D4" offset="100%"></stop>
        </linearGradient>
        <linearGradient x1="50.0050015%" y1="227.459954%" x2="50.0050015%" y2="-210.602593%" id="linearGradient-5">
            <stop stop-color="#FFFFFF" stop-opacity="0" offset="0%"></stop>
            <stop stop-color="#000000" offset="80%"></stop>
        </linearGradient>
        <linearGradient x1="-10.8156936%" y1="17.7886319%" x2="72.2141454%" y2="63.5179277%" id="linearGradient-6">
            <stop stop-color="#208CA3" offset="0%"></stop>
            <stop stop-color="#3C4178" offset="42%"></stop>
            <stop stop-color="#241B3C" offset="100%"></stop>
        </linearGradient>
        <linearGradient x1="64.3390968%" y1="190.755908%" x2="37.169209%" y2="-72.9574321%" id="linearGradient-7">
            <stop stop-color="#208CA3" offset="0%"></stop>
            <stop stop-color="#3C4178" offset="30%"></stop>
            <stop stop-color="#241B3C" offset="100%"></stop>
        </linearGradient>
        <linearGradient x1="209.825422%" y1="-448.036728%" x2="228.627896%" y2="-288.558657%" id="linearGradient-8">
            <stop stop-color="#208CA3" offset="0%"></stop>
            <stop stop-color="#3C4178" offset="30%"></stop>
            <stop stop-color="#241B3C" offset="100%"></stop>
        </linearGradient>
        <linearGradient x1="50.0953106%" y1="164.335257%" x2="50.0953106%" y2="-96.4290164%" id="linearGradient-9">
            <stop stop-color="#FFFFFF" stop-opacity="0" offset="0%"></stop>
            <stop stop-color="#000000" offset="93%"></stop>
        </linearGradient>
        <linearGradient x1="360.644055%" y1="-269.007341%" x2="334.892957%" y2="-290.137249%" id="linearGradient-10">
            <stop stop-color="#FFFFFF" stop-opacity="0" offset="0%"></stop>
            <stop stop-color="#000000" offset="90%"></stop>
        </linearGradient>
        <linearGradient x1="113.583248%" y1="-89.4045426%" x2="78.8095455%" y2="31.2155939%" id="linearGradient-11">
            <stop stop-color="#FFFFFF" stop-opacity="0" offset="0%"></stop>
            <stop stop-color="#000000" offset="90%"></stop>
        </linearGradient>
        <linearGradient x1="498.893473%" y1="-3350.67291%" x2="498.893473%" y2="-3046.49615%" id="linearGradient-12">
            <stop stop-color="#FFFFFF" stop-opacity="0" offset="0%"></stop>
            <stop stop-color="#000000" offset="80%"></stop>
        </linearGradient>
        <linearGradient x1="101.648566%" y1="125.995719%" x2="-57.6385408%" y2="-107.921688%" id="linearGradient-13">
            <stop stop-color="#FFFFFF" stop-opacity="0" offset="11%"></stop>
            <stop stop-color="#000000" offset="100%"></stop>
        </linearGradient>
        <linearGradient x1="314.922853%" y1="12.2852872%" x2="177.617567%" y2="-73.2500442%" id="linearGradient-14">
            <stop stop-color="#FFFFFF" stop-opacity="0" offset="0%"></stop>
            <stop stop-color="#000000" offset="90%"></stop>
        </linearGradient>
        <linearGradient x1="20339%" y1="-2651.99826%" x2="13776%" y2="-10566.5994%" id="linearGradient-15">
            <stop stop-color="#FFFFFF" stop-opacity="0" offset="0%"></stop>
            <stop stop-color="#000000" offset="90%"></stop>
        </linearGradient>
        <linearGradient x1="50.0168862%" y1="131.934813%" x2="50.0168862%" y2="-131.31068%" id="linearGradient-16">
            <stop stop-color="#FFFFFF" offset="0%"></stop>
            <stop stop-color="#D1D3D4" offset="71%"></stop>
        </linearGradient>
        <linearGradient x1="21745.8931%" y1="-127.127752%" x2="21745.8931%" y2="335.777431%" id="linearGradient-17">
            <stop stop-color="#FFFFFF" offset="0%"></stop>
            <stop stop-color="#D1D3D4" offset="71%"></stop>
        </linearGradient>
        <linearGradient x1="642307%" y1="-1115%" x2="640807%" y2="294%" id="linearGradient-18">
            <stop stop-color="#FFFFFF" offset="0%"></stop>
            <stop stop-color="#D1D3D4" offset="71%"></stop>
        </linearGradient>
        <linearGradient x1="50.0524659%" y1="195.234313%" x2="50.0524659%" y2="-87.2120731%" id="linearGradient-19">
            <stop stop-color="#FFFFFF" offset="0%"></stop>
            <stop stop-color="#D1D3D4" offset="87%"></stop>
        </linearGradient>
        <linearGradient x1="50%" y1="165.318818%" x2="50%" y2="-231.881804%" id="linearGradient-20">
            <stop stop-color="#FFFFFF" offset="0%"></stop>
            <stop stop-color="#D1D3D4" offset="71%"></stop>
        </linearGradient>
        <linearGradient x1="48782.197%" y1="357.387247%" x2="48782.197%" y2="872.472784%" id="linearGradient-21">
            <stop stop-color="#FFFFFF" offset="0%"></stop>
            <stop stop-color="#D1D3D4" offset="71%"></stop>
        </linearGradient>
        <linearGradient x1="35788.1667%" y1="-286.049066%" x2="35788.1667%" y2="712.815818%" id="linearGradient-22">
            <stop stop-color="#FFFFFF" offset="0%"></stop>
            <stop stop-color="#D1D3D4" offset="71%"></stop>
        </linearGradient>
        <linearGradient x1="651307%" y1="-1115%" x2="649807%" y2="294%" id="linearGradient-23">
            <stop stop-color="#FFFFFF" offset="0%"></stop>
            <stop stop-color="#D1D3D4" offset="71%"></stop>
        </linearGradient>
        <linearGradient x1="68479.5383%" y1="-40.0317712%" x2="68479.5383%" y2="242.414615%" id="linearGradient-24">
            <stop stop-color="#FFFFFF" offset="0%"></stop>
            <stop stop-color="#D1D3D4" offset="87%"></stop>
        </linearGradient>
        <linearGradient x1="660307%" y1="-1115%" x2="658807%" y2="294%" id="linearGradient-25">
            <stop stop-color="#FFFFFF" offset="0%"></stop>
            <stop stop-color="#D1D3D4" offset="71%"></stop>
        </linearGradient>
        <linearGradient x1="69423.9244%" y1="-40.0317712%" x2="69423.9244%" y2="242.414615%" id="linearGradient-26">
            <stop stop-color="#FFFFFF" offset="0%"></stop>
            <stop stop-color="#D1D3D4" offset="87%"></stop>
        </linearGradient>
        <linearGradient x1="50%" y1="958.666667%" x2="50%" y2="-816.666667%" id="linearGradient-27">
            <stop stop-color="#FFFFFF" offset="7%"></stop>
            <stop stop-color="#D1D3D4" offset="79%"></stop>
        </linearGradient>
        <linearGradient x1="50%" y1="275.440658%" x2="50%" y2="-310.428907%" id="linearGradient-28">
            <stop stop-color="#FFFFFF" offset="13%"></stop>
            <stop stop-color="#D1D3D4" offset="100%"></stop>
        </linearGradient>
        <linearGradient x1="50.0587544%" y1="272.855464%" x2="50.0587544%" y2="-435.076381%" id="linearGradient-29">
            <stop stop-color="#FFFFFF" offset="13%"></stop>
            <stop stop-color="#D1D3D4" offset="100%"></stop>
        </linearGradient>
        <linearGradient x1="50.1707102%" y1="59.3836523%" x2="48.4756368%" y2="-17.0338269%" id="linearGradient-30">
            <stop stop-color="#FFFFFF" stop-opacity="0" offset="0%"></stop>
            <stop stop-color="#000000" offset="93%"></stop>
        </linearGradient>
        <linearGradient x1="50.0527936%" y1="164.153679%" x2="50.0527936%" y2="-96.4479884%" id="linearGradient-31">
            <stop stop-color="#FFFFFF" stop-opacity="0" offset="0%"></stop>
            <stop stop-color="#000000" offset="93%"></stop>
        </linearGradient>
        <linearGradient x1="104.914253%" y1="115.630451%" x2="-111.010232%" y2="-129.843778%" id="linearGradient-32">
            <stop stop-color="#FFFFFF" stop-opacity="0" offset="0%"></stop>
            <stop stop-color="#000000" offset="80%"></stop>
        </linearGradient>
        <linearGradient x1="27270.7379%" y1="-243.379791%" x2="27270.7379%" y2="19.8170732%" id="linearGradient-33">
            <stop stop-color="#FFFFFF" offset="0%"></stop>
            <stop stop-color="#D1D3D4" offset="71%"></stop>
        </linearGradient>
        <linearGradient x1="27316.0126%" y1="-272.414544%" x2="27316.0126%" y2="190.398432%" id="linearGradient-34">
            <stop stop-color="#FFFFFF" offset="0%"></stop>
            <stop stop-color="#D1D3D4" offset="71%"></stop>
        </linearGradient>
        <linearGradient x1="44916.3294%" y1="-593.054278%" x2="44916.3294%" y2="405.74977%" id="linearGradient-35">
            <stop stop-color="#FFFFFF" offset="0%"></stop>
            <stop stop-color="#D1D3D4" offset="71%"></stop>
        </linearGradient>
        <linearGradient x1="90.1608906%" y1="101.281777%" x2="9.16919772%" y2="-32.6453749%" id="linearGradient-36">
            <stop stop-color="#FFFFFF" stop-opacity="0" offset="0%"></stop>
            <stop stop-color="#000000" offset="100%"></stop>
        </linearGradient>
    </defs>
    <g id="Mockups" stroke="none" stroke-width="1" fill="none" fill-rule="evenodd">
        <g id="homepage" transform="translate(-551.000000, -171.000000)" fill-rule="nonzero">
            <g id="homepage-hero" transform="translate(551.000000, 168.000000)">
                <g id="Group" opacity="0.2" transform="translate(583.000000, 273.000000)">
                    <path d="M10.1054545,127.014079 C9.86245441,127.493108 9.57857268,127.950265 9.2569697,128.380461 C6.32121212,126.309671 3.33454545,124.281316 0.296969697,122.295395 C0.364848485,122.168092 0.424242424,122.032303 0.500606061,121.896513 C1.20468492,120.537704 2.25931104,119.391994 3.55515152,118.578158 C5.05006988,117.528148 6.99282942,117.359736 8.64606061,118.136842 C10.2252515,119.072882 11.1930209,120.773329 11.1915152,122.609408 C11.2319784,124.148594 10.856791,125.670219 10.1054545,127.014079 Z" id="Path" fill="#3F3D56"></path>
                    <ellipse id="Oval" fill="#3F3D56" transform="translate(9.389951, 116.774518) rotate(-62.090000) translate(-9.389951, -116.774518) " cx="9.38995144" cy="116.774518" rx="7.14555326" ry="5.45603844"></ellipse>
                    <ellipse id="Oval" fill="#3F3D56" transform="translate(13.482599, 109.056380) rotate(-62.090000) translate(-13.482599, -109.056380) " cx="13.4825995" cy="109.05638" rx="7.14555326" ry="5.45603844"></ellipse>
                    <ellipse id="Oval" fill="#3F3D56" transform="translate(17.563778, 101.333282) rotate(-62.090000) translate(-17.563778, -101.333282) " cx="17.563778" cy="101.333282" rx="7.14555326" ry="5.45603844"></ellipse>
                    <ellipse id="Oval" fill="#3F3D56" transform="translate(21.648928, 93.611171) rotate(-62.090000) translate(-21.648928, -93.611171) " cx="21.6489281" cy="93.6111706" rx="7.14555326" ry="5.45603844"></ellipse>
                    <path d="M31.5466667,31.1806579 C31.3328861,30.0000945 31.1996492,28.8063516 31.1478788,27.6076974 L44.9187879,32.25 L31.1478788,25.1125658 C31.5654306,17.8930212 34.9421774,11.165575 40.4812121,6.51789474 L53.8193939,25.8084868 L43.4593939,4.34526316 C51.3833282,-0.606085354 61.3462379,-0.952958177 69.5951913,3.43530832 C77.8441448,7.82357482 83.1259297,16.2802986 83.4509489,25.6199136 C83.7759681,34.9595286 79.0948434,43.7631252 71.1709091,48.7144737 C70.1323016,49.3515964 69.052324,49.918647 67.9381818,50.4118421 C68.2770519,52.2614542 68.4136139,54.1424684 68.3454545,56.0216447 L47.3624242,55.8519079 L68.0230303,59.2466447 C66.6096512,67.972041 60.887451,75.3938153 52.809697,78.9785526 C55.2404187,92.3966277 46.9536478,105.430251 33.7738809,108.918521 C20.5941139,112.406791 6.94712881,105.178344 2.42493896,92.3138145 C-2.09725089,79.4492854 4.02391003,65.2685954 16.4860606,59.7388816 C14.3447141,47.8672977 20.5926739,36.0694435 31.6145455,31.1721711 L31.5466667,31.1806579 Z" id="Path" fill="#2DA082"></path>
                    <path d="M65.2484848,67.3346053 C62.5083349,72.5190749 58.102773,76.6297065 52.7418182,79.0040132 C55.1751162,92.4280931 46.8843761,105.46827 33.6981549,108.957037 C20.5119338,112.445804 6.85949968,105.211281 2.33878837,92.3394818 C-2.18192294,79.4676828 3.9476011,65.282262 16.4181818,59.7558553 C15.4084848,54.1884868 66.6230303,64.7376316 65.2484848,67.3346053 Z" id="Path" fill="#000000" opacity="0.1"></path>
                </g>
                <g id="Group" opacity="0.2" transform="translate(553.000000, 33.000000)">
                    <path d="M24.2606897,212.377843 C23.9462162,213.189879 23.5631233,213.973988 23.1155172,214.721765 C17.9749655,212.006863 12.7750345,209.362222 7.51572414,206.787843 C7.58358621,206.568627 7.66841379,206.349412 7.75324138,206.121765 C8.61349603,203.814381 10.0776597,201.776969 11.9946207,200.219804 C14.4715862,198.238431 17.466,197.496471 20.1465517,198.533529 C22.8271034,199.570588 24.5406207,202.074706 25.0750345,205.177451 C25.4569149,207.606765 25.1756798,210.09343 24.2606897,212.377843 L24.2606897,212.377843 Z" id="Path" fill="#3F3D56"></path>
                    <ellipse id="Oval" fill="#3F3D56" transform="translate(22.426293, 199.742167) rotate(-68.838740) translate(-22.426293, -199.742167) " cx="22.4262931" cy="199.742167" rx="11.4778457" ry="8.79931455"></ellipse>
                    <ellipse id="Oval" fill="#3F3D56" transform="translate(26.071823, 183.000309) rotate(-69.160000) translate(-26.071823, -183.000309) " cx="26.0718231" cy="183.000309" rx="11.5092772" ry="8.82381285"></ellipse>
                    <ellipse id="Oval" fill="#3F3D56" transform="translate(31.101196, 169.868633) rotate(-69.160000) translate(-31.101196, -169.868633) " cx="31.1011963" cy="169.868633" rx="11.5092772" ry="8.82381285"></ellipse>
                    <ellipse id="Oval" fill="#3F3D56" transform="translate(36.138497, 156.739957) rotate(-69.160000) translate(-36.138497, -156.739957) " cx="36.1384972" cy="156.739957" rx="11.5092772" ry="8.82381285"></ellipse>
                    <path d="M39.6144828,55.174902 C39.0382592,53.3211471 38.5876635,51.4310959 38.2657241,49.517451 L61.3218621,54.18 L37.7906897,45.4788235 C37.0141304,33.9277548 41.0509283,22.567577 48.954,14.0635294 L74.2241379,42.1568627 L53.3226207,9.97431373 C65.0599551,0.31084529 81.1190956,-2.33169314 95.363465,3.05647482 C109.607834,8.44464277 119.836038,21.0308031 122.139637,36.0054865 C124.443236,50.98017 118.466222,66.0291152 106.492552,75.4017647 C105.001498,76.5980921 103.431501,77.6938123 101.793103,78.6815686 C102.701825,81.5661515 103.293415,84.5401086 103.557517,87.5513725 L69.830069,91.4382353 L103.693241,92.7872549 C103.165009,107.001608 95.4494391,119.989145 83.181931,127.313725 C89.7535139,148.247564 79.0388007,170.686697 58.5669711,178.86325 C38.0951415,187.039802 14.7383569,178.208997 4.90932232,158.576201 C-4.91971226,138.943405 2.07849881,115.099125 20.9863448,103.798627 C15.163857,85.2543963 22.8777568,65.1594374 39.6484138,55.1833333 L39.6144828,55.174902 Z" id="Path" fill="#2DA082"></path>
                    <path d="M100.944828,106.235294 C97.5662512,115.05589 91.2890215,122.483514 83.1310345,127.313725 C89.7026174,148.247564 78.9879042,170.686697 58.5160746,178.86325 C38.044245,187.039802 14.6874603,178.208997 4.85842577,158.576201 C-4.97060881,138.943405 2.02760226,115.099125 20.9354483,103.798627 C18.2633793,95.0890196 102.641379,101.791961 100.944828,106.235294 Z" id="Path" fill="#000000" opacity="0.1"></path>
                </g>
                <g id="Group" opacity="0.2" transform="translate(82.000000, 31.000000)">
                    <path d="M91.0999355,259.363666 C91.3603768,260.369716 91.6994868,261.353714 92.114129,262.306559 C98.5542581,259.837235 105.062,257.46657 111.637355,255.194566 C111.578194,254.923955 111.527484,254.653344 111.451419,254.348907 C110.787815,251.49158 109.372578,248.86382 107.352387,246.737974 C104.723935,244.040322 101.317935,242.712637 98.0556129,243.516013 C94.7932903,244.319389 92.3676774,247.076238 91.2943226,250.661833 C90.451421,253.492614 90.3842842,256.498028 91.0999355,259.363666 Z" id="Path" fill="#3F3D56"></path>
                    <ellipse id="Oval" fill="#3F3D56" transform="translate(97.319986, 240.581307) rotate(-13.720000) translate(-97.319986, -240.581307) " cx="97.3199861" cy="240.581307" rx="10.4718956" ry="13.7076811"></ellipse>
                    <ellipse id="Oval" fill="#3F3D56" transform="translate(93.346414, 224.305755) rotate(-13.720000) translate(-93.346414, -224.305755) " cx="93.3464143" cy="224.305755" rx="10.4718956" ry="13.7076811"></ellipse>
                    <ellipse id="Oval" fill="#3F3D56" transform="translate(89.381053, 208.019741) rotate(-13.720000) translate(-89.381053, -208.019741) " cx="89.381053" cy="208.019741" rx="10.4718956" ry="13.7076811"></ellipse>
                    <ellipse id="Oval" fill="#3F3D56" transform="translate(85.415933, 191.744189) rotate(-13.720000) translate(-85.415933, -191.744189) " cx="85.4159328" cy="191.744189" rx="10.4718956" ry="13.7076811"></ellipse>
                    <path d="M96.2807742,71.0353698 C97.2439598,68.927635 98.0573338,66.7545341 98.7148387,64.5322508 L70.9259355,66.6633119 L99.8727097,59.8219293 C102.516,46.2628268 99.4588434,32.213033 91.4210968,20.9808039 L57.5554839,50.5788746 L86.8656774,15.5601286 C67.6837768,-4.4270471 35.940506,-5.07069152 15.9650973,14.1225086 C-4.01031146,33.3157087 -4.6535774,65.077679 14.5283226,85.0648553 C16.1497148,86.7452614 17.8834811,88.3133513 19.7176129,89.7582637 C18.2261975,93.040428 17.0927669,96.4739105 16.3369677,99.9991961 L55.4172258,109.563601 L15.4072903,106.180965 C13.9384146,123.072784 21.0867097,139.565846 34.4149677,150.036849 C23.5776351,173.854856 32.8567197,202.007114 55.728616,214.701344 C78.6005123,227.395575 107.382163,220.367571 121.838798,198.558329 C136.295434,176.749087 131.570825,147.484701 110.986581,131.339325 C120.585788,110.246328 114.496604,85.3194495 96.2554194,71.0353698 L96.2807742,71.0353698 Z" id="Path" fill="#2DA082"></path>
                    <path d="M16.6327742,122.434534 C19.2801789,133.367475 25.5328136,143.088602 34.3811613,150.028392 C23.5438286,173.846399 32.8229132,201.998657 55.6948095,214.692888 C78.5667059,227.387118 107.348356,220.359114 121.804992,198.549872 C136.261627,176.74063 131.537019,147.476244 110.952774,131.330868 C115.49129,121.428199 15.305871,116.954662 16.6327742,122.434534 Z" id="Path" fill="#000000" opacity="0.1"></path>
                </g>
                <path d="M617.611782,88 L125.379771,88 C124.215945,88.0022434 123.100676,88.4673643 122.279312,89.293041 C121.457948,90.1187177 120.997772,91.2373147 121.000016,92.4027524 L121.000016,92.4027524 L121.000016,394.118294 C120.995527,396.469379 121.923898,398.725955 123.580896,400.391599 C125.237894,402.057243 127.487787,402.995513 129.835622,403 L613.155931,403 C618.046408,402.990656 622.004667,399.015548 621.999992,394.118294 L621.999992,394.118294 L621.999992,92.4027524 C622.002237,91.2358491 621.540901,90.115969 620.717708,89.2900485 C619.894516,88.4641279 618.777074,87.9999978 617.611782,88 L617.611782,88 Z" id="Path" fill="url(#linearGradient-1)"></path>
                <path d="M620,108 L619.999996,392.260147 C620.002236,394.577325 619.082083,396.800363 617.442198,398.439646 C615.802313,400.078929 613.577201,401.000001 611.256934,401 L132.751501,401 C127.918181,401 124,397.087034 124,392.260147 L124,392.260147 L124,108 L620,108 Z" id="Path" fill="#E4F4E7"></path>
                <path d="M620,94.3386296 L620,107 L124,107 L124,94.3386296 C124,91.9424706 125.942088,90 128.337774,90 L615.662226,90 C618.057912,90 620,91.9424706 620,94.3386296 L620,94.3386296 Z" id="Path" fill="#CEDFD8"></path>
                <circle id="Oval" fill="#FA5959" opacity="0.8" cx="132" cy="99" r="2"></circle>
                <circle id="Oval" fill="#FED253" opacity="0.8" cx="138" cy="99" r="2"></circle>
                <circle id="Oval" fill="#8CCF4D" opacity="0.8" cx="142" cy="99" r="2"></circle>
                <rect id="Rectangle" fill="#CEDFD8" x="270" y="132" width="48" height="5"></rect>
                <rect id="Rectangle" fill="#CEDFD8" x="270" y="147" width="268" height="5"></rect>
                <rect id="Rectangle" fill="#CEDFD8" x="270" y="162" width="268" height="5"></rect>
                <rect id="Rectangle" fill="#CEDFD8" x="270" y="176" width="268" height="5"></rect>
                <rect id="Rectangle" fill="#CEDFD8" x="270" y="191" width="268" height="5"></rect>
                <rect id="Rectangle" fill="#CEDFD8" x="130" y="132" width="48" height="5"></rect>
                <rect id="Rectangle" fill="#CEDFD8" x="130" y="147" width="48" height="5"></rect>
                <rect id="Rectangle" fill="#CEDFD8" x="130" y="162" width="48" height="5"></rect>
                <rect id="Rectangle" fill="#CEDFD8" x="130" y="176" width="48" height="5"></rect>
                <rect id="Rectangle" fill="#CEDFD8" x="130" y="191" width="48" height="5"></rect>
                <rect id="Rectangle" fill="url(#linearGradient-2)" x="398" y="80" width="4" height="2"></rect>
                <path d="M368.984087,336.826895 C368.956181,336.507182 368.778794,336.224643 368.51325,336.076955 C368.053762,335.870022 367.52443,336.094385 367.320462,336.582533 L367.320462,336.582533 L362.973064,346.390735 L362,385 L363.569458,385 L364.158005,346.474998 L368.913462,337.416735 C368.995047,337.233261 369.019796,337.026563 368.984087,336.826895 Z" id="Path" fill="#3F3D56"></path>
                <circle id="Oval" fill="#3F3D56" cx="349.5" cy="392.5" r="6.5"></circle>
                <circle id="Oval" fill="#000000" opacity="0.1" cx="349.5" cy="392.5" r="6.5"></circle>
                <circle id="Oval" fill="#65617D" cx="349" cy="392" r="4"></circle>
                <circle id="Oval" fill="#000000" opacity="0.1" cx="349" cy="392" r="4"></circle>
                <path d="M345,382.665584 L349.325843,392.50736 C349.527821,392.915889 350.005021,393.10393 350.429374,392.942208 C350.615378,392.862566 350.766062,392.717404 350.85313,392.533983 L356,382 L345,382.665584 Z" id="Path" fill="#3F3D56"></path>
                <path d="M345,382.665584 L349.325843,392.50736 C349.527821,392.915889 350.005021,393.10393 350.429374,392.942208 C350.615378,392.862566 350.766062,392.717404 350.85313,392.533983 L356,382 L345,382.665584 Z" id="Path" fill="#000000" opacity="0.1"></path>
                <circle id="Oval" fill="#3F3D56" cx="309.5" cy="392.5" r="6.5"></circle>
                <circle id="Oval" fill="#000000" opacity="0.1" cx="309.5" cy="392.5" r="6.5"></circle>
                <circle id="Oval" fill="#65617D" cx="309" cy="392" r="4"></circle>
                <circle id="Oval" fill="#000000" opacity="0.1" cx="309" cy="392" r="4"></circle>
                <path d="M305,382.664658 L309.385965,392.492736 C309.472606,392.698739 309.637659,392.860851 309.843927,392.942539 C310.050196,393.024228 310.280326,393.01862 310.482456,392.926979 C310.661445,392.841939 310.806733,392.698281 310.894737,392.519322 L316,382 L305,382.664658 Z" id="Path" fill="#3F3D56"></path>
                <path d="M305,382.664658 L309.385965,392.492736 C309.472606,392.698739 309.637659,392.860851 309.843927,392.942539 C310.050196,393.024228 310.280326,393.01862 310.482456,392.926979 C310.661445,392.841939 310.806733,392.698281 310.894737,392.519322 L316,382 L305,382.664658 Z" id="Path" fill="#000000" opacity="0.1"></path>
                <path d="M369.98186,336.831356 C369.951117,336.509548 369.772054,336.226496 369.506119,336.079336 C369.051693,335.867541 368.524792,336.094372 368.328464,336.586316 L368.328464,336.586316 L364.990477,345.576767 L364,386 L365.559807,386 L366.144735,345.686613 L369.919468,337.422833 C369.997915,337.237917 370.019775,337.030681 369.98186,336.831356 Z" id="Path" fill="#3F3D56"></path>
                <polygon id="Path" fill="#2DA082" points="296 383 301.636655 379.51134 362.433797 379 364 383"></polygon>
                <polygon id="Path" fill="#3F3D56" points="295 388 295 383.748106 365 383 364.932129 385.869318 296.264089 385.869318 296.264089 388"></polygon>
                <circle id="Oval" fill="#3F3D56" cx="304.5" cy="394.5" r="6.5"></circle>
                <circle id="Oval" fill="#65617D" cx="305" cy="394" r="4"></circle>
                <path d="M299,384.685928 L303.329317,394.55617 C303.487381,394.8309 303.778564,395 304.093574,395 C304.408585,395 304.699768,394.8309 304.857831,394.55617 L310,384 L299,384.685928 Z" id="Path" fill="#3F3D56"></path>
                <path d="M348,384.685928 L352.329317,394.55617 C352.487381,394.8309 352.778564,395 353.093574,395 C353.408585,395 353.699768,394.8309 353.857831,394.55617 L359,384 L348,384.685928 Z" id="Path" fill="#3F3D56"></path>
                <rect id="Rectangle" fill="#CEDFD8" x="305" y="340" width="42" height="42"></rect>
                <path d="M314,358.330495 L321.150188,358.330495 L321.150188,369 L314,369 L314,358.330495 Z M322.929182,353 L330.079371,353 L330.079371,369 L322.937735,369 L322.929182,353 Z M331.858365,361.889835 L339,361.889835 L339,369 L331.858365,369 L331.858365,361.889835 Z" id="Shape" fill="#2DA082"></path>
                <rect id="Rectangle" fill="#D7D9E1" x="312" y="298" width="42" height="42"></rect>
                <path d="M326,327.329067 L340,327.329067 L340,330 L326,330 L326,327.329067 Z M333,320.203733 C333.918446,320.138949 334.630973,319.361666 334.630973,318.424533 C334.630973,317.4874 333.918446,316.710117 333,316.645333 C332.830561,316.644135 332.661623,316.664197 332.497006,316.705067 L328.883832,314 L328.665868,314.196267 L331.348503,317.908267 C331.291578,318.072687 331.26321,318.245941 331.264671,318.420267 C331.262442,318.89101 331.44402,319.343373 331.769458,319.677839 C332.094897,320.012305 332.537537,320.201476 333,320.203733 L333,320.203733 Z" id="Shape" fill="#2DA082"></path>
                <path d="M333.466191,307.000001 C329.083073,306.998168 325.08271,309.419679 323.160729,313.238134 C321.238747,317.056588 321.731766,321.603214 324.430811,324.950842 L327.676448,324.950842 L327.887752,324.737824 L329.113319,323.558034 L327.853944,322.337278 L326.628378,323.508876 C325.536721,322.213349 324.863456,320.634525 324.692828,318.969959 L326.383264,318.969959 L326.383264,317.306782 L324.692828,317.306782 C324.863456,315.642217 325.536721,314.063392 326.628378,312.767866 L327.853944,313.939464 L329.113319,312.718708 L327.896205,311.538917 C329.234311,310.476727 330.866196,309.821189 332.587165,309.65453 L332.587165,311.293128 L334.345218,311.293128 L334.345218,309.65453 C336.067183,309.817335 337.700179,310.473319 339.036178,311.538917 L337.819064,312.718708 L339.086891,313.939464 L340.304005,312.767866 C341.394823,314.064672 342.070561,315.642407 342.248006,317.306782 L340.55757,317.306782 L340.55757,319.019117 L342.248006,319.019117 C342.070561,320.683493 341.394823,322.261227 340.304005,323.558034 L339.086891,322.386436 L337.819064,323.607192 L339.036178,324.786982 L339.264387,325 L342.569189,325 C345.268234,321.652371 345.761253,317.105746 343.839271,313.287292 C341.91729,309.468837 337.916927,307.047326 333.533809,307.049159 L333.466191,307.000001 Z" id="Path" fill="#2DA082"></path>
                <path d="M504,279.498998 C504,279.498998 492.317648,273.186373 489.590088,274.088176 C487.970337,274.62024 482.649495,276.072144 480.517802,277.839679 C478.921726,279.17516 477.991851,281.230148 478.000054,283.403808 L478.000054,283.403808 L501.079412,285" id="Path" fill="#BC8158"></path>
                <path d="M493.661571,282.664754 C488.12291,280.72623 492.474715,277.840984 495.505153,276.786066 C498.535592,275.731148 492.079096,274 492.079096,274 L494.057189,274.369672 C498.219097,275.604918 505,279.481967 505,279.481967 L502.23067,285 L497.12719,284.630328 C496.072559,283.766459 494.902235,283.102694 493.661571,282.664754 Z" id="Path" fill="url(#linearGradient-3)" opacity="0.49"></path>
                <path d="M505,281.424103 C505,281.424103 545.871151,292.21479 551.752135,293.077703 C557.633119,293.940616 562.956424,298.605474 563.581701,274.281574 C564.257676,248.043886 563.911239,246.335147 563.911239,246.335147 C563.911239,246.335147 565.060397,212.160367 532.554439,230.315719" id="Path" fill="#BC8158"></path>
                <path d="M705,435 C705,481.950857 547.18631,520 352.5,520 C157.81369,520 0,481.950857 0,435 L705,435 Z" id="Path" fill="#DFF0E3"></path>
                <path d="M705,435 C705,481.950857 547.18631,520 352.5,520 C157.81369,520 0,481.950857 0,435 L705,435 Z" id="Path" fill="url(#linearGradient-4)" style="mix-blend-mode: multiply;"></path>
                <rect id="Rectangle" fill="#39CE9C" x="356" y="287" width="156" height="11" rx="0.76"></rect>
                <path d="M501,282 L408.476041,282 C407.819354,282 407.189563,282.297082 406.725216,282.825891 C406.260868,283.3547 406,284.071919 406,284.819767 L406,287 L501,287 L501,282 Z" id="Path" fill="#CCDEF2"></path>
                <path d="M520,287.637681 L520,295.776506 L519.361408,298 L442.259878,298 L436,287 L519.361408,287 C519.714093,287 520,287.2855 520,287.637681 L520,287.637681 Z" id="Path" fill="url(#linearGradient-5)" opacity="0.49"></path>
                <path d="M413,452.567458 L411.088681,463.011675 C410.587689,464.215349 409.400782,465.000722 408.083986,464.999871 L383.453839,464.999871 C382.809672,465.006469 382.189241,464.759846 381.729051,464.314265 C381.26886,463.868683 381.006612,463.260647 381.000005,462.623935 C380.999266,462.268181 381.07613,461.91645 381.225357,461.592713 C381.851335,460.313998 383.437146,459.11778 387.067819,458.779539 C395.414192,458.053559 401.765782,458.779539 404.419928,451" id="Path" fill="#39CE9C"></path>
                <path d="M469.08963,382.573862 C469.08963,382.573862 530.695186,385.194869 552.259244,371.019519 C573.823302,356.844168 548.69906,306 548.69906,306 L540.394784,307.963648 C418.477517,342.517119 404,450.686338 404,450.686338 C404,450.686338 408.752549,456.585711 421.158225,452.641559 C433.563901,448.697407 437.648388,448.040048 441.732874,452.641559 C445.81736,457.24307 461.326569,438.575768 461.326569,438.575768" id="Path" fill="url(#linearGradient-6)"></path>
                <path d="M427.86847,420.958872 C438.051445,410.709652 432.111376,413.857447 441.44577,396.515196 C450.780164,379.172945 475.677539,382.203222 475.677539,382.203222 L476,383.974381 C471.655264,383.924017 469.033148,383.814893 469.033148,383.814893 L461.243172,439.652577 C461.243172,439.652577 445.688677,458.26234 441.539114,453.662362 C437.389552,449.062385 433.333333,449.72552 420.893132,453.662362 C418.03347,454.62974 415.020876,455.079021 412,454.988633 C413.773535,448.390855 419.459029,429.378174 427.86847,420.958872 Z" id="Path" fill="url(#linearGradient-7)"></path>
                <path d="M506.816013,320.508155 L506.899922,320.508155 L549.79422,308 C554.216226,317.810318 571.107115,358.590794 552.311491,371.06512 C547.797185,374.067416 541.512399,376.317023 534.405303,378 C529.128432,374.717932 522.973559,373.161154 516.784406,373.543071 C493.776549,375.234505 494.481385,363.081551 518.538105,349.862994 C542.368271,336.703637 507.655103,320.888728 506.816013,320.508155 Z" id="Path" fill="url(#linearGradient-8)"></path>
                <path d="M515.389526,180 C515.389526,180 513.08106,194.493818 514.415018,197.120556 C515.748976,199.747295 519,202 519,202" id="Path" fill="#BC8158"></path>
                <path d="M514.696472,181.023774 C514.696472,181.023774 512.111138,197.768659 516.902623,206.320124 C521.694108,214.871589 524.5983,210.641653 526.778598,214.480236 C528.958896,218.31882 527.588669,221 527.588669,221 L553.735011,219.70937 C553.735011,219.70937 549.994895,215.870786 550.460255,207.286015 C550.925615,198.701243 562.145963,170.024275 542.049302,166.63533 C521.952642,163.246386 515.308334,174.195925 514.696472,181.023774 Z" id="Path" fill="#BC8158"></path>
                <path d="M532.346855,216.502509 C531.488965,212.341909 527.70567,213.487337 523.544903,212.628266 L523.450536,212.628266 C522.198016,212.274531 520.748182,211.617594 519.032402,209.318315 C520.156238,211.002768 522.335279,212.358753 524.033901,211.188058 C525.269262,210.345831 523.673587,198.638879 522.249489,196.651224 C521.829123,196.053243 518.646351,190.957771 519.032402,190.334523 C520.21629,188.414246 523.047327,195.387884 523.047327,195.387884 L551.220436,204.088087 C550.987694,205.245268 550.827255,206.415339 550.740018,207.59175 C550.276757,216.275108 554,220.157773 554,220.157773 L536.378939,221 C534.551633,219.92195 532.750064,218.405942 532.346855,216.502509 Z" id="Path" fill="url(#linearGradient-9)" opacity="0.49"></path>
                <path d="M560.413429,228.617456 C560.413429,228.617456 569.08402,254.160327 554.675413,283.828448 C540.266805,313.496568 560.743979,314.473158 556.929936,319.524484 C553.115893,324.57581 499.151419,324.289568 502.117897,317.554467 C505.084375,310.819366 508.220366,286.404624 503.98254,270.080423 C499.744714,253.756221 501.219478,245.758289 520.577866,233.727714 C527.171923,229.63614 518.560661,225.780295 517.467302,223.288307 C516.848579,221.882355 519.704874,220.232255 521.052502,219.474556 C536.376481,210.7526 557.56561,214.372717 557.819879,217.27723 C558.158905,221.116237 560.421904,228.617456 560.421904,228.617456" id="Path" fill="#39CE9C"></path>
                <path d="M505.919344,259.929461 C508.713626,259.514523 513,253 513,253 L508.632239,279 L506.715127,278.385892 C506.392082,275.499042 505.845101,272.63701 505.078347,269.821577 C503.685728,264.842324 502.871859,260.692946 503.016547,256.917012 C503.02559,257.182573 503.233578,260.327801 505.919344,259.929461 Z" id="Path" fill="url(#linearGradient-10)" opacity="0.49"></path>
                <path d="M522.504635,310.189523 C511.836737,303.590442 526.490162,305.132756 528.197026,300.075988 C529.90389,295.019221 517,283.270665 517,283.270665 C517,283.270665 519.952874,241.088798 525.082,239.757183 C530.211125,238.425568 542.722436,251.33718 545.427815,246.853513 C548.133194,242.369846 541.587372,235.054389 535.015946,230.840417 C528.444521,226.626444 529.895355,226.483169 533.309083,221.527537 C536.72281,216.571905 527.684967,216.833171 527.531349,216.841599 L527.531349,216.841599 L532.984779,215.265573 C545.8716,212.374788 558.587734,215.038019 558.775489,217.271424 C559.116862,221.114568 561.395525,228.623867 561.395525,228.623867 C561.395525,228.623867 570.126133,254.194253 555.617791,283.894333 C541.10945,313.594413 561.728363,314.572055 557.88792,319.628822 C556.479758,321.48297 548.286812,322.620742 538.625963,323 C552.041912,319.477119 533.044519,316.712753 522.504635,310.189523 Z" id="Path" fill="url(#linearGradient-11)" opacity="0.0495489211"></path>
                <path d="M541.926706,435 C541.926706,435 547.934987,444.812 548.668115,450.443594 C548.930588,452.400439 549.037647,454.374248 548.988332,456.347285 C548.93343,458.383729 547.227688,460.005173 545.145729,459.999988 L518.618283,459.999988 C518.618283,459.999988 515.289712,451.894781 524.078824,448.942935 C532.867937,445.99109 533.997123,440.277042 529.404538,435" id="Path" fill="#70462A"></path>
                <path d="M433.39695,272.525968 C433.727409,272.200058 433.857114,271.723588 433.737006,271.276776 C433.51597,270.483369 433.362944,269.200415 434.374611,268.618021 C436.874023,267.183137 442.025873,271.994217 442.629472,275.935927 C442.73399,276.563691 442.916757,277.176108 443.173562,277.759073 C444.473561,280.622229 447.108836,282.667371 450.221224,283.228512 C502.836397,293.48371 498.857742,281.540414 508.880894,260.827447 C511.09976,256.24426 514.279284,248.36084 516.872211,244.24188 C519.975223,239.304193 527.558473,238.73868 530.984538,242.224603 C545.062859,256.573439 518.461973,281.599497 507.418653,294.910153 C496.137293,308.507785 446.285075,290.791193 440.529626,288.68951 C435.182244,287.001412 431.390619,283.574572 430.217426,280.249018 C429.180255,277.35393 432.12174,273.859566 433.39695,272.525968 Z" id="Path" fill="#BC8158"></path>
                <path d="M477,382.350295 L514.666167,380.304109 C517.620474,380.449246 520.543005,379.641235 523,378 L523,378 C502.191298,397.60212 477.008627,382.341698 477.008627,382.341698 L477,382.350295 Z" id="Path" fill="url(#linearGradient-12)" opacity="0.49"></path>
                <path d="M549.249168,210.742566 C549.249168,210.742566 551.55087,211.270309 551.693157,209.067193 C551.835445,206.864078 556.062207,203.14475 559.929067,197.339583 C562.808288,193.008745 566.524491,164.577668 541.657735,161.319068 C516.790978,158.060468 498.009086,180.510463 513.81969,194.51658 C529.630293,208.522697 527.487617,208.070346 529.722361,210.248331 C531.957105,212.426316 541.716324,209.000178 549.249168,210.742566 Z" id="Path" fill="#1B1C37"></path>
                <path d="M533.211794,179.42112 C533.211794,179.42112 524.045229,157.886256 543.034331,151.185404 C562.023432,144.484551 575.688089,167.099928 568.591668,196.139746 C564.229883,213.989142 567.739757,220.522472 571.939679,222.373583 C572.599073,222.667506 573.016219,223.320185 572.999516,224.031833 C572.982813,224.74348 572.535489,225.376544 571.863007,225.640248 C562.594213,229.317341 547.021275,231.604007 541.057897,209.37393 C532.334325,176.883172 533.211794,179.42112 533.211794,179.42112 Z" id="Path" fill="#1B1C37"></path>
                <path d="M593.872861,465.246499 C593.872861,465.246499 625.932573,463.135052 621.596766,430.618762 C617.260959,398.102473 571.873904,366.684136 537.305317,370.282043 C500.185761,374.150214 508.301717,382.106148 486.791065,381.016641 C465.280412,379.927134 460.969863,385.856078 454.268305,408.65971 C447.566748,431.463341 429.154303,461.868183 456.634056,465.457644 C484.113809,469.047104 593.872861,465.246499 593.872861,465.246499 Z" id="Path" fill="#39CE9C"></path>
                <path d="M466,384.919995 C470.516124,381.536299 476.73946,380.546568 486.562239,381.037204 C508.015929,382.111527 499.908772,374.159841 537.021721,370.28551 C540.824823,369.90483 544.656102,369.90483 548.459204,370.28551 C549.586132,370.623879 550.73829,370.962249 551.924088,371.300618 C588.532442,381.680106 584.277026,431.132823 589.322974,451.85796 C594.368922,472.583098 617,452.780018 617,452.780018 C609.027402,464.369176 593.527931,465.392744 593.527931,465.392744 C593.527931,465.392744 582.191367,465.790329 565.901365,466.238668 C556.607667,465.857801 547.299393,466.061219 538.030911,466.847734 L528.241771,467 C493.508828,464.656791 493.677026,429.508649 491.34748,405.365978 C488.790866,379.116956 466,384.919995 466,384.919995 Z" id="Path" fill="url(#linearGradient-13)" opacity="0.49"></path>
                <g id="Group" opacity="0.49" transform="translate(436.000000, 239.000000)">
                    <path d="M7.68644068,38.0318056 C8.04138901,38.8432097 8.5155439,39.5970779 9.09322034,40.2684722 L9.09322034,40.2684722 C9.21186441,40.4125 9.36440678,40.5565278 9.5,40.7005556 L9.65254237,40.8615278 C17.5254237,48.8423611 52.3389831,61.1948611 64.8050847,54.2476389 C79.1355932,46.2922222 92.4576271,14.2841667 92.3135593,5.95597222 C92.2033898,-0.643888889 87.6525424,0.127083333 85.7711864,0.728611111 L86.2118644,0.559166667 C89.440678,-0.432083333 93.1101695,0.169444444 95.2033898,2.32138889 C109.237288,16.7241667 82.720339,41.8443056 71.7118644,55.205 C60.4661017,68.85375 10.7711864,51.0705556 5.03389831,48.9609722 C3.4480342,48.4630285 1.92845715,47.7745726 0.508474576,46.9106944 C-0.0847457627,44.0047222 4.23728814,44.7672222 6.29661017,44.7248611 C8.69491525,44.6655556 7.1440678,36.1594444 7.1440678,36.1594444 C7.24398679,36.8041923 7.42626687,37.4334534 7.68644068,38.0318056 Z" id="Path" fill="url(#linearGradient-14)"></path>
                    <path d="M85.0423729,1.01666667 C85.2881356,0.915 85.5338983,0.821805556 85.7881356,0.737083333 L85.0084746,1.03361111 L85.0423729,1.01666667 Z" id="Path" fill="url(#linearGradient-15)"></path>
                </g>
                <rect id="Rectangle" fill="#000000" opacity="0.1" x="272" y="215" width="42" height="42"></rect>
                <rect id="Rectangle" fill="#CEDFD8" x="270" y="214" width="42" height="42"></rect>
                <path d="M286.178058,224 L289.635612,224 L289.635612,246 L286.178058,246 L286.178058,224 Z M281,239.58004 L284.449282,239.58004 L284.449282,246 L281,246 L281,239.58004 Z M291.364388,235.908982 L294.846757,235.908982 L294.846757,246 L291.37266,246 L291.364388,235.908982 Z M296.542447,230.411178 L300,230.411178 L300,246 L296.542447,246 L296.542447,230.411178 Z" id="Shape" fill="#2DA082"></path>
                <rect id="Rectangle" fill="#000000" opacity="0.1" x="385" y="216" width="42" height="42"></rect>
                <rect id="Rectangle" fill="#CEDFD8" x="383" y="215" width="42" height="42"></rect>
                <path d="M397,244.329067 L411,244.329067 L411,247 L397,247 L397,244.329067 Z M404,237.203733 C404.972286,237.203733 405.760479,236.401428 405.760479,235.411733 C405.760479,234.422039 404.972286,233.619733 404,233.619733 C403.830533,233.618001 403.66153,233.638071 403.497006,233.679467 L399.883832,231 L399.665868,231.196267 L402.34012,234.908267 C402.289537,235.074035 402.264095,235.246688 402.264671,235.420267 C402.260196,235.891695 402.441047,236.345383 402.766971,236.680347 C403.092894,237.015312 403.536842,237.203755 404,237.203733 L404,237.203733 Z" id="Shape" fill="#2DA082"></path>
                <path d="M404.491529,226.000001 C400.098725,225.998168 396.089522,228.419679 394.163294,232.238134 C392.237065,236.056588 392.731173,240.603214 395.436182,243.950842 L398.680521,243.950842 L398.900763,243.737824 L400.120567,242.582613 L398.858409,241.361857 L397.638605,242.533455 C396.541921,241.238649 395.864241,239.659869 395.690308,237.994538 L397.38448,237.994538 L397.38448,236.306782 L395.690308,236.306782 C395.864241,234.641452 396.541921,233.062672 397.638605,231.767866 L398.858409,232.939464 L400.120567,231.718708 L398.909234,230.538917 C400.247953,229.478208 401.880278,228.822758 403.602089,228.65453 L403.602089,230.293128 L405.372498,230.293128 L405.372498,228.65453 C407.097394,228.820711 408.733022,229.476304 410.073824,230.538917 L408.854021,231.718708 L410.124649,232.939464 L411.344453,231.767866 C412.438522,233.063392 413.113274,234.642217 413.284279,236.306782 L411.590108,236.306782 L411.590108,238.019117 L413.284279,238.019117 C413.113274,239.683683 412.438522,241.262507 411.344453,242.558034 L410.124649,241.386436 L408.854021,242.607192 L410.073824,243.786982 L410.302537,244 L413.563818,244 C416.268827,240.652371 416.762935,236.105746 414.836706,232.287292 C412.910478,228.468837 408.901275,226.047326 404.508471,226.049159 L404.491529,226.000001 Z" id="Path" fill="#2DA082"></path>
                <polygon id="Path" fill="#2DA082" points="397.506859 125 400.378944 127.672365 394.266118 133.368091 389.259259 128.709402 380 137.356695 381.714678 139 389.233539 132.003989 394.240398 136.670655 402.136488 129.331624 405 132.003989 405 125"></polygon>
                <path d="M194.32489,222.902913 L195.110098,214 L201.864573,214 L202.64978,222.902913 C202.86861,225.398856 204.946731,227.312779 207.437015,227.311893 L207.546775,227.311893 C208.461071,227.307373 209.339461,227.66965 209.987557,228.318552 C210.635652,228.967454 211.000011,229.849474 211,230.769417 L211,230.769417 L211,260.332524 C211,261.80573 209.813048,263 208.348869,263 L188.651131,263 C187.188876,262.995337 186.004635,261.803794 186,260.332524 L186,260.332524 L186,230.769417 C186,228.855188 187.542282,227.303398 189.444782,227.303398 L189.562985,227.303398 C192.042139,227.295514 194.106666,225.387681 194.32489,222.902913 L194.32489,222.902913 Z" id="Path" fill="url(#linearGradient-16)"></path>
                <path d="M188.330519,222.901369 L189.114667,214 L195.860027,214 L196.644175,222.901369 C196.86271,225.39688 198.938026,227.310471 201.424949,227.309586 L201.559856,227.309586 C202.472923,227.307323 203.34924,227.671702 203.994878,228.322085 C204.640516,228.972468 205.002236,229.855226 204.99999,230.775004 L204.99999,230.775004 L204.99999,260.332987 C204.99999,261.805937 203.814639,263 202.352436,263 L182.647554,263 C181.187272,262.995337 180.004629,261.804002 180,260.332987 L180,260.332987 L180,230.775004 C180,228.861106 181.5402,227.309586 183.440133,227.309586 L183.549746,227.309586 C186.036668,227.310471 188.111985,225.39688 188.330519,222.901369 Z" id="Path" fill="url(#linearGradient-17)"></path>
                <polygon id="Path" fill="url(#linearGradient-18)" points="198.51 226.5 198.51 226.51 198.49 226.49"></polygon>
                <path d="M197.479538,222.156473 C197.538069,222.799987 197.714754,223.425822 198,224 L190,213 L196.715635,213 L197.479538,222.156473 Z" id="Path" fill="url(#linearGradient-19)"></path>
                <rect id="Rectangle" fill="url(#linearGradient-20)" x="187" y="209" width="17" height="6" rx="1.49"></rect>
                <rect id="Rectangle" fill="url(#linearGradient-21)" x="187" y="209" width="11" height="6" rx="1.49"></rect>
                <rect id="Rectangle" fill="url(#linearGradient-22)" x="185" y="233" width="16" height="23" rx="2.43"></rect>
                <polygon id="Path" fill="url(#linearGradient-23)" points="160.51 226.5 160.51 226.51 160.49 226.49"></polygon>
                <path d="M159.479538,222.156473 C159.538069,222.799987 159.714754,223.425822 160,224 L152,213 L158.715635,213 L159.479538,222.156473 Z" id="Path" fill="url(#linearGradient-24)"></path>
                <polygon id="Path" fill="url(#linearGradient-25)" points="121.51 226.5 121.51 226.51 121.49 226.49"></polygon>
                <path d="M120.479538,222.156473 C120.538069,222.799987 120.714754,223.425822 121,224 L113,213 L119.715635,213 L120.479538,222.156473 Z" id="Path" fill="url(#linearGradient-26)"></path>
                <ellipse id="Oval" fill="url(#linearGradient-27)" cx="202" cy="110.5" rx="16" ry="1"></ellipse>
                <ellipse id="Oval" fill="url(#linearGradient-27)" cx="147" cy="110.5" rx="16" ry="1"></ellipse>
                <ellipse id="Oval" fill="url(#linearGradient-27)" cx="93" cy="110.5" rx="16" ry="1"></ellipse>
                <ellipse id="Oval" fill="url(#linearGradient-28)" transform="translate(144.880978, 17.704982) rotate(-75.370000) translate(-144.880978, -17.704982) " cx="144.880978" cy="17.7049819" rx="14.3847286" ry="14.385869"></ellipse>
                <ellipse id="Oval" fill="url(#linearGradient-29)" transform="translate(109.558826, 75.173996) rotate(-75.370000) translate(-109.558826, -75.173996) " cx="109.558826" cy="75.1739959" rx="7.19236428" ry="7.19293449"></ellipse>
                <rect id="Rectangle" fill="#DCEBF9" x="257" y="322" width="25" height="2" rx="1"></rect>
                <rect id="Rectangle" fill="#DCEBF9" x="257" y="328" width="25" height="2" rx="1"></rect>
                <rect id="Rectangle" fill="#DCEBF9" x="257" y="334" width="13" height="2" rx="1"></rect>
                <path d="M276,251.204187 C276,251.204187 276,243.461936 277.057296,239.496183 C277.539423,237.672453 280.288393,224.596651 282.293027,225.009571 C284.29766,225.422491 285.90475,229.869984 285.90475,229.869984 C285.90475,229.869984 292.730654,230.730234 291.935568,235.814312 C291.140481,240.898391 287.892467,252.365525 282.301485,254" id="Path" fill="#BC8158"></path>
                <path d="M216.388202,190.664383 C216.388202,190.664383 218.677625,205.885721 214.398891,213.651028 C210.120156,221.416335 207.470598,217.579655 205.52416,221.073625 C203.577721,224.567595 204.795317,227 204.795317,227 L181.249413,225.829771 C181.249413,225.829771 184.619239,222.344159 184.199082,214.520341 C183.778926,206.696523 173.652301,180.683999 191.761896,177.582892 C209.871492,174.481785 215.848001,184.470527 216.388202,190.664383 Z" id="Path" fill="#BC8158"></path>
                <path d="M232,187.059723 C232,203.108267 210.170543,216 193.191125,216 C176.211708,216 168,203.099735 168,187.059723 C168,171.019712 181.780273,158 198.793905,158 C215.807538,158 232,171.002648 232,187.059723 Z" id="Path" fill="#473427"></path>
                <path d="M184.170036,410.667563 L184.849891,421.584314 C184.849891,421.584314 178.429994,455.135014 179.041003,480 L186.330081,480 C186.330081,480 203.989101,421.788683 202.95641,404" id="Path" fill="#BC8158"></path>
                <path d="M226.079156,410.994342 L213.336833,410 L215.113086,424.999398 C215.113086,424.999398 210.985174,452.394366 212.236056,480 L214.279165,480 C214.137398,465.742145 220.18333,437.361262 222.042975,431.209823 C224.027709,424.468521 231.332863,415.645841 232,414.836885 L232,414.735765 L226.079156,410.994342 Z" id="Path" fill="url(#linearGradient-30)" opacity="0.49"></path>
                <path d="M204.37909,221.931859 C205.223863,218.205509 208.518477,219.222544 212.22703,218.463936 L212.277717,218.463936 C213.911728,217.975264 215.312407,216.921586 216.222806,215.496194 C215.217526,217.005074 213.274549,218.213846 211.762405,217.163465 C210.6642,216.404857 212.252373,210.302646 213.519533,208.535339 C213.891233,208.010149 217.878561,202.249728 216.822595,203.70859 C215.64836,205.375861 212.59873,203 212.59873,203 L187.475185,210.861182 C187.677811,211.897276 187.821646,212.943728 187.906019,213.995651 C188.319957,221.773469 185,225.283074 185,225.283074 L200.712776,226 C202.410769,224.999638 204.024285,223.59913 204.37909,221.931859 Z" id="Path" fill="url(#linearGradient-31)" opacity="0.49"></path>
                <path d="M193.95864,160.000007 C190.828427,159.997968 187.714717,160.445302 184.716242,161.327823 C174.802133,166.029463 168,175.608113 168,186.67325 C168,202.381569 176.128549,215 193.048854,215 C197.585326,214.941477 202.08318,214.171842 206.372532,212.720164 C217.613057,207.776345 227,198.765565 227,188.452023 C226.991497,172.727002 210.86194,160.000007 193.95864,160.000007 Z" id="Path" fill="url(#linearGradient-32)" opacity="0.49"></path>
                <path d="M196.342118,490.747159 C188.494863,488.650568 185.233892,483.928977 188.346637,480 L179.400766,480 C179.400766,480 178.528849,494.002841 179.35717,498 L201.608498,498 C201.608498,498 204.137058,492.84375 196.342118,490.747159 Z" id="Path" fill="#3A2A1F"></path>
                <path d="M195.666667,250.909843 L196.294317,244 L201.697201,244 L202.324852,250.909843 C202.496669,252.84546 204.158785,254.330473 206.150127,254.327526 L206.234945,254.327526 C206.966719,254.323119 207.670073,254.603653 208.189114,255.106951 C208.708156,255.61025 209.000014,256.29474 209,257.008711 L209,257.008711 L209,279.931185 C209,281.07376 208.050646,282 206.879559,282 L191.120441,282 C189.949354,282 189,281.07376 189,279.931185 L189,279.931185 L189,257.050087 C189,255.564739 190.23416,254.360627 191.756573,254.360627 L191.849873,254.360627 C193.846768,254.34994 195.503952,252.851671 195.666667,250.909843 Z" id="Path" fill="url(#linearGradient-33)"></path>
                <path d="M190.675157,250.908339 L191.302807,244 L196.697206,244 L197.324856,250.908339 C197.504702,252.842964 199.167141,254.324658 201.158611,254.325278 L201.243428,254.325278 C202.765841,254.325278 204,255.529128 204,257.014152 L204,257.014152 L204,279.931635 C204,281.073961 203.050647,282 201.87956,282 L186.120453,282 C184.949366,282 184.000013,281.073961 184.000013,279.931635 L184.000013,279.931635 L184.000013,257.047246 C183.997751,256.333438 184.287448,255.648229 184.804897,255.143488 C185.322346,254.638748 186.024805,254.356165 186.756585,254.358371 L186.841402,254.358371 C188.844818,254.356263 190.511884,252.856054 190.675157,250.908339 Z" id="Path" fill="url(#linearGradient-34)"></path>
                <rect id="Rectangle" fill="url(#linearGradient-35)" x="189" y="259" width="12" height="18" rx="1.93"></rect>
                <path d="M179.500799,233.001019 C179.500799,233.001019 169.78426,232.402794 164.629399,260.190776 C159.474537,287.978758 151.938581,299.387165 173.159567,305.799128 C186.879134,309.83614 200.859366,312.910446 215,315" id="Path" fill="#3D2B1F"></path>
                <path d="M213.332389,410 L215.102736,424.999398 C215.102736,424.999398 210.988548,452.394366 212.235272,480 L219.898467,480 C219.898467,480 232,439.998796 232,411.457807" id="Path" fill="#BC8158"></path>
                <path d="M177.953314,330 C177.953314,330 172.309216,354.675347 180.209288,377.022672 L183.88045,413.649089 C183.88045,413.649089 197.283101,416.372118 204.60045,414.086119 L213,364.046264 L177.953314,330 Z" id="Path" fill="#2DA082"></path>
                <path d="M235.505238,337 L187.143594,340.344252 C187.143594,340.344252 175.962706,362.734016 204.671788,384.404766 L208.370082,414.561554 C208.370082,414.561554 224.117933,418.298755 234.688173,413.725491 C234.653771,413.792376 239.306741,354.741254 235.505238,337 Z" id="Path" fill="#39CE9C"></path>
                <path d="M213.973555,364.209464 C228.759747,358.597949 234,336 234,336 L187.079708,339.375347 C187.079708,339.375347 176.23205,361.964858 204.085497,383.837107 L207.673569,414.2743 C207.673569,414.2743 209.125486,414.63715 211.428527,415 L211.428527,415 C208.049065,396.857509 225.897634,389.04358 218.504538,386.368618 C211.111442,383.693655 199.187363,369.81254 213.973555,364.209464 Z" id="Path" fill="url(#linearGradient-36)" opacity="0.49"></path>
                <path d="M177.749042,234.395405 C177.749042,234.395405 170.367492,222.248237 185.810031,223.036797 C201.25257,223.825356 215.738862,222.969685 220.796902,237.574808 C220.796902,237.574808 244.837269,298.109311 236.080066,333.552531 C236.080066,333.552531 232.875802,346.664425 191.623002,343.510188 C181.464982,342.730018 176.440495,340.062339 174.368628,335.272261 C169.075721,323.066371 174.569943,304.082228 172.774884,284.938694 C170.384268,259.478299 177.749042,234.395405 177.749042,234.395405 Z" id="Path" fill="#473427"></path>
                <path d="M210.595966,232.083978 C210.595966,232.083978 224.131892,229.122721 241.051799,258.369383 C257.971706,287.616045 273.791819,243.614157 278.190995,243.256764 C282.420972,242.90788 287.006266,245.886156 284.070662,254.089176 C281.135059,262.292197 257.692527,309.587206 223.691974,284.969635 C189.691421,260.352063 193.938318,230.450181 210.595966,232.083978 Z" id="Path" fill="#473427"></path>
                <path d="M211,480 C211,480 211.463278,490.713068 211.968673,498 L238.923051,498 C238.923051,498 240.523467,490.107955 229.126819,489 C217.730171,487.892045 220.484572,480 220.484572,480" id="Path" fill="#473427"></path>
            </g>
        </g>
    </g>
</svg>