<?xml version="1.0" encoding="UTF-8"?>
<svg width="368px" height="237px" viewBox="0 0 368 237" version="1.1" xmlns="http://www.w3.org/2000/svg" xmlns:xlink="http://www.w3.org/1999/xlink">
    <!-- Generator: sketchtool 53.2 (72643) - https://sketchapp.com -->
    <title>14F2F536-B0E5-41DA-91D2-6D5846591D59</title>
    <desc>Created with sketchtool.</desc>
    <g id="Mockups" stroke="none" stroke-width="1" fill="none" fill-rule="evenodd">
        <g id="homepage" transform="translate(-138.000000, -2211.000000)">
            <g id="procure-to-pay" transform="translate(138.000000, 2181.000000)">
                <ellipse id="Oval" fill="#F0F6FE" fill-rule="nonzero" opacity="0.788062686" cx="61" cy="253" rx="61" ry="14"></ellipse>
                <g id="Group" opacity="0.1" transform="translate(215.000000, 39.000000)" fill="#45CB87" fill-rule="nonzero">
                    <path d="M0.00636363636,0.253133803 C0.00636363636,50.2710915 31.1659091,90.743662 69.6881818,90.743662" id="Path"></path>
                </g>
                <path d="M216.088299,72.5443856 C193.526911,72.7164522 171.848845,67.6213678 151.121068,61.9431687 C130.393291,56.2649696 109.834526,49.8793855 87.729149,47.2728945 C73.5003274,45.5936516 57.3071504,45.8581244 46.1237176,52.3711653 C35.3612181,58.6356656 32.1755183,68.9054948 30.6033961,78.3819056 C29.4203184,85.5131119 28.8431295,92.9948243 33.0078182,99.4823738 C35.8841959,103.984784 40.8524845,107.681031 44.3602621,111.969951 C56.5609505,126.891952 48.9937175,146.096501 36.8950736,161.521957 C31.2220405,168.758315 24.5859631,175.701522 20.2809633,183.342555 C15.9759635,190.983589 14.1646747,199.625158 18.4345967,207.113243 C22.6694409,214.531227 32.3190183,219.85892 42.6988511,223.50737 C63.7869723,230.867999 88.3669267,232.333751 112.299537,232.798969 C165.279734,233.834555 218.397054,230.686373 271.370874,227.541377 C290.972973,226.375147 310.664361,225.202545 329.880604,222.076668 C340.550626,220.340069 351.539537,217.79412 359.13547,212.323039 C368.781858,205.376645 370.832314,194.125398 363.918803,186.089249 C352.320814,172.613882 321.506583,170.259118 313.215472,155.649386 C308.652172,147.606864 312.714816,138.324824 318.636583,130.502165 C331.373004,113.728854 353.188192,98.6379727 353.714359,79.9591831 C354.065137,67.1338457 342.872137,54.6972514 326.073071,49.2325424 C308.454461,43.4969877 284.365595,45.1571122 271.909796,56.1183944 C259.080897,67.4046913 236.012475,72.3946239 216.088299,72.5443856 Z" id="Path" fill="#F0F6FE" fill-rule="nonzero" opacity="0.723842076"></path>
                <path d="M317,39.9898719 L317,206.031856 C317,210.970741 312.264778,215 306.422125,215 L82.5746925,215 C76.7320396,215 72,210.983553 72,206.031856 L72,39.9898719 C72,35.0413781 76.7320396,30 82.5746925,30 L306.393485,30.5476974 C312.226591,30.5476974 317,35.0413781 317,39.9898719 Z" id="Path" fill="#FFFFFF" fill-rule="nonzero"></path>
                <path d="M317,41.6287297 L317,49 L72,49 L72,41.6287297 C71.9999997,36.3121327 76.4646582,32.0017037 81.9732429,32.0000078 L307.007663,32.0000078 C309.656073,31.9967474 312.197214,33.0096615 314.071416,34.8156622 C315.945618,36.621663 316.999158,39.0726215 317,41.6287297 L317,41.6287297 Z" id="Path" fill="#CBCEDA" fill-rule="nonzero"></path>
                <circle id="Oval" fill="#FA5959" fill-rule="nonzero" opacity="0.8" cx="84.5" cy="40.5" r="3.5"></circle>
                <circle id="Oval" fill="#FED253" fill-rule="nonzero" opacity="0.8" cx="94.5" cy="40.5" r="3.5"></circle>
                <circle id="Oval" fill="#8CCF4D" fill-rule="nonzero" opacity="0.8" cx="104.5" cy="40.5" r="3.5"></circle>
                <rect id="Rectangle" fill="#45CB87" fill-rule="nonzero" opacity="0.2" x="161" y="86" width="22" height="10" rx="5"></rect>
                <rect id="Rectangle" fill="#45CB87" fill-rule="nonzero" opacity="0.2" x="207" y="86" width="22" height="10" rx="5"></rect>
                <polyline id="Path" stroke="#3F3D56" points="172 96.1356319 194.658888 125 218 96"></polyline>
                <rect id="Rectangle" fill="#000000" fill-rule="nonzero" opacity="0.1" x="177" y="124" width="34" height="16" rx="8"></rect>
                <rect id="Rectangle" fill="#45CB87" fill-rule="nonzero" x="178" y="124" width="33" height="16" rx="8"></rect>
                <path d="M172.144881,86 L171.855119,76" id="Path" stroke="#3F3D56"></path>
                <polyline id="Path" stroke="#3F3D56" points="231 76 217.840659 85 204 76"></polyline>
                <rect id="Rectangle" fill="#45CB87" fill-rule="nonzero" opacity="0.2" x="161" y="65" width="22" height="10" rx="5"></rect>
                <rect id="Rectangle" fill="#45CB87" fill-rule="nonzero" opacity="0.2" x="220" y="65" width="22" height="10" rx="5"></rect>
                <rect id="Rectangle" fill="#45CB87" fill-rule="nonzero" opacity="0.2" x="193" y="65" width="22" height="10" rx="5"></rect>
                <path d="M194.042987,140 L193.957013,168" id="Path" stroke="#3F3D56"></path>
                <g id="Group"></g>
                <polyline id="Path" stroke="#3F3D56" points="163 188 194.436492 179 226 187.935357"></polyline>
                <rect id="Rectangle" fill="#45CB87" fill-rule="nonzero" opacity="0.2" x="183" y="169" width="22" height="10" rx="5"></rect>
                <path d="M280,111 L292,111 C294.761424,111 297,113.238576 297,116 L297,116 C297,118.761424 294.761424,121 292,121 L280,121 C277.238576,121 275,118.761424 275,116 L275,116 C275,113.238576 277.238576,111 280,111 Z" id="Rectangle" fill="#45CB87" fill-rule="nonzero" opacity="0.2" transform="translate(286.000000, 116.000000) rotate(90.000000) translate(-286.000000, -116.000000) "></path>
                <path d="M280,146 L292,146 C294.761424,146 297,148.238576 297,151 L297,151 C297,153.761424 294.761424,156 292,156 L280,156 C277.238576,156 275,153.761424 275,151 L275,151 C275,148.238576 277.238576,146 280,146 Z" id="Rectangle" fill="#45CB87" fill-rule="nonzero" opacity="0.2" transform="translate(286.000000, 151.000000) rotate(-90.000000) translate(-286.000000, -151.000000) "></path>
                <rect id="Rectangle" fill="#45CB87" fill-rule="nonzero" opacity="0.2" x="215" y="189" width="22" height="10" rx="5"></rect>
                <rect id="Rectangle" fill="#45CB87" fill-rule="nonzero" opacity="0.2" transform="translate(162.000000, 194.000000) rotate(-180.000000) translate(-162.000000, -194.000000) " x="151" y="189" width="22" height="10" rx="5"></rect>
                <rect id="Rectangle" fill="#45CB87" fill-rule="nonzero" opacity="0.2" transform="translate(195.000000, 194.000000) rotate(-180.000000) translate(-195.000000, -194.000000) " x="184" y="189" width="22" height="10" rx="5"></rect>
                <path d="M270,133 L280,150" id="Path" stroke="#3F3D56"></path>
                <path d="M250,133 L260,133" id="Path" stroke="#3F3D56"></path>
                <path d="M211,132 L239,133" id="Path" stroke="#3F3D56"></path>
                <path d="M280,116 L271,133" id="Path" stroke="#3F3D56"></path>
                <path d="M238,128 L250,128 C252.761424,128 255,130.238576 255,133 L255,133 C255,135.761424 252.761424,138 250,138 L238,138 C235.238576,138 233,135.761424 233,133 L233,133 C233,130.238576 235.238576,128 238,128 Z" id="Rectangle" fill="#45CB87" fill-rule="nonzero" opacity="0.2" transform="translate(244.000000, 133.000000) rotate(90.000000) translate(-244.000000, -133.000000) "></path>
                <path d="M259,128 L271,128 C273.761424,128 276,130.238576 276,133 L276,133 C276,135.761424 273.761424,138 271,138 L259,138 C256.238576,138 254,135.761424 254,133 L254,133 C254,130.238576 256.238576,128 259,128 Z" id="Rectangle" fill="#45CB87" fill-rule="nonzero" opacity="0.2" transform="translate(265.000000, 133.000000) rotate(90.000000) translate(-265.000000, -133.000000) "></path>
                <path d="M97,111 L109,111 C111.761424,111 114,113.238576 114,116 L114,116 C114,118.761424 111.761424,121 109,121 L97,121 C94.2385763,121 92,118.761424 92,116 L92,116 C92,113.238576 94.2385763,111 97,111 Z" id="Rectangle" fill="#45CB87" fill-rule="nonzero" opacity="0.2" transform="translate(103.000000, 116.000000) rotate(90.000000) translate(-103.000000, -116.000000) "></path>
                <path d="M97,146 L109,146 C111.761424,146 114,148.238576 114,151 L114,151 C114,153.761424 111.761424,156 109,156 L97,156 C94.2385763,156 92,153.761424 92,151 L92,151 C92,148.238576 94.2385763,146 97,146 Z" id="Rectangle" fill="#45CB87" fill-rule="nonzero" opacity="0.2" transform="translate(103.000000, 151.000000) rotate(-90.000000) translate(-103.000000, -151.000000) "></path>
                <path d="M118,133 L108,150" id="Path" stroke="#3F3D56"></path>
                <path d="M139,133 L129,133" id="Path" stroke="#3F3D56"></path>
                <path d="M178,132 L150,133" id="Path" stroke="#3F3D56"></path>
                <path d="M109,116 L118,133" id="Path" stroke="#3F3D56"></path>
                <path d="M138,128 L150,128 C152.761424,128 155,130.238576 155,133 L155,133 C155,135.761424 152.761424,138 150,138 L138,138 C135.238576,138 133,135.761424 133,133 L133,133 C133,130.238576 135.238576,128 138,128 Z" id="Rectangle" fill="#45CB87" fill-rule="nonzero" opacity="0.2" transform="translate(144.000000, 133.000000) rotate(90.000000) translate(-144.000000, -133.000000) "></path>
                <path d="M118,128 L130,128 C132.761424,128 135,130.238576 135,133 L135,133 C135,135.761424 132.761424,138 130,138 L118,138 C115.238576,138 113,135.761424 113,133 L113,133 C113,130.238576 115.238576,128 118,128 Z" id="Rectangle" fill="#45CB87" fill-rule="nonzero" opacity="0.2" transform="translate(124.000000, 133.000000) rotate(90.000000) translate(-124.000000, -133.000000) "></path>
                <path d="M51,191 C51,207.028163 60.8402157,220 73,220" id="Path" fill="#46455B" fill-rule="nonzero"></path>
                <path d="M73,220 C73,203.969865 84.1824539,191 98,191" id="Path" fill="#45CB87" fill-rule="nonzero"></path>
                <path d="M58,193 C58,208.475562 64.7104385,221 73,221" id="Path" fill="#45CB87" fill-rule="nonzero"></path>
                <path d="M72,220 C72,199.548404 84.9718372,183 101,183" id="Path" fill="#46455B" fill-rule="nonzero"></path>
                <ellipse id="Oval" fill="#45CB87" fill-rule="nonzero" opacity="0.1" cx="71.5" cy="225" rx="5.5" ry="1"></ellipse>
                <path d="M68,220.71571 C68,220.71571 71.2283112,220.617207 72.1968046,219.937219 C73.165298,219.257231 77.158719,218.44061 77.4008423,219.533675 C77.6429657,220.626739 82.2433092,224.970399 78.6050024,224.998997 C74.9666957,225.027595 70.1403704,224.439755 69.171877,223.85827 C68.2033836,223.276785 68,220.71571 68,220.71571 Z" id="Path" fill="#A8A8A8" fill-rule="nonzero"></path>
                <path d="M78.6696007,224.646031 C75.0291561,224.672731 70.2107309,224.126864 69.2393003,223.580998 C68.5002384,223.168632 68.20655,221.685299 68.1065024,221 L68,221 C68,221 68.2033227,223.391132 69.1747534,223.934031 C70.146184,224.476931 74.9646093,225.025764 78.6050538,224.999064 C79.657168,224.999064 80.0186306,224.646031 79.9992666,224.138731 C79.8540361,224.450231 79.4538453,224.640097 78.6696007,224.646031 Z" id="Path" fill="#000000" fill-rule="nonzero" opacity="0.2"></path>
                <circle id="Oval" fill="#E6E8EC" fill-rule="nonzero" cx="248.5" cy="208.5" r="1"></circle>
                <circle id="Oval" fill="#E6E8EC" fill-rule="nonzero" cx="268.5" cy="220.5" r="1"></circle>
                <g id="standing-3" transform="translate(19.000000, 67.000000)" fill-rule="nonzero">
                    <g id="Head/Front/Pony" transform="translate(37.422840, 24.300125) rotate(15.000000) translate(-37.422840, -24.300125) translate(16.922840, 4.800125)">
                        <g id="Head" transform="translate(21.227339, 5.344807)" fill="#D4A181">
                            <path d="M3.7089225,15.5786701 C1.64043874,13.1356189 0.240445665,10.141626 0.474385329,6.78677091 C1.14843064,-2.87950065 14.5212074,-0.753044062 17.1224894,4.12565975 C19.7237713,9.00436359 19.4146714,21.3796004 16.0527463,22.2515609 C14.7120152,22.5992975 11.8558593,21.747482 8.94895895,19.9844858 L10.7735644,32.9729991 L0,32.9729991 L3.7089225,15.5786701 Z" id="Path"></path>
                        </g>
                        <path d="M28.665014,20.2437826 C27.329048,22.8241001 25.4813302,24.7672586 23.635383,24.7672586 C20.1291643,24.7672586 17.6361513,20.0504392 17.6361513,14.9790516 C17.6361513,14.8008696 17.6396601,14.6238728 17.6465831,14.4481981 C13.9376291,17.0091662 11.0791839,22.0571491 6.17161784,22.0571491 C-0.505081618,22.0571491 -3.15667732,8.5066015 6.17161784,8.5066015 C12.5155673,8.5066015 15.6361181,9.43728975 18.3254233,10.8135582 C18.8558418,9.30894564 19.6646426,8.04393557 20.6536453,7.16053584 C20.891571,6.89103935 21.2563378,6.63319433 21.7269275,6.39415887 C22.0146276,6.235775 22.3123461,6.10677767 22.61833,6.00970259 C24.2402138,5.40997939 26.5894117,4.98697758 29.2135148,4.89477309 C29.7035186,4.87755559 30.1847597,4.87251726 30.6542302,4.87886418 C30.6618708,2.39083421 32.6687205,0.376272968 35.1431935,0.376272968 C37.6223916,0.376272968 39.6321787,2.39853523 39.6321787,4.89312218 C39.6321787,7.30561264 37.7524984,9.27635515 35.3863834,9.4034559 C34.0328466,9.82369349 32.2937939,10.1322403 30.3652021,10.2623529 C30.5524487,10.9708835 30.6542083,11.7758009 30.6542083,12.6853927 C30.6542083,13.4885529 30.5661074,14.3403482 30.4038836,15.2052293 C29.985595,14.7049615 29.4262927,14.3785054 28.8586143,14.3785054 C27.270606,14.3785054 26.1652231,15.6929759 26.1652231,17.088615 C26.1652231,18.8598994 27.1814794,20.1412941 28.665014,20.2437826 Z" id="hair" fill="#191847"></path>
                    </g>
                    <g id="Bottom/Standing/Sweatpants" transform="translate(0.000000, 83.000000)">
                        <polygon id="Leg" fill="#BA8B72" points="20.0885438 9.9475983e-14 36.5956401 56.8691198 44.359754 99.5673237 52.1525848 99.5673237 44.3736425 9.9475983e-14"></polygon>
                        <path d="M12.670086,0 C13.8218962,29.5432127 13.367639,45.6568838 13.1098502,48.341013 C12.8520614,51.0251426 11.3885748,69.0016411 1.41593753,100.468385 L9.5211671,100.468385 C22.7282849,70.2814208 27.3387631,52.3049223 28.8535199,48.341013 C30.3682763,44.3771041 34.8420281,28.263433 41.3735073,0 L12.670086,0 Z" id="Leg" fill="#D4A181"></path>
                        <path d="M19.7341827,1.13686838e-13 C24.027936,19.56882 31.4542887,50.8056274 42.0132412,93.7104224 L53.4111433,93.7104224 C54.2530083,49.6727536 50.6717538,20.6886007 44.4699154,1.13686838e-13 L19.7341827,1.13686838e-13 Z" id="Pant" fill="#444777"></path>
                        <path d="M12.6124911,0 C13.7405385,29.5432127 10.8171324,58.648873 1.76149279,94.1703952 L13.9224275,94.1703952 C27.1538257,64.4339616 36.637195,35.471927 43.1184479,0 L12.6124911,0 Z" id="Pant" fill="#575A89"></path>
                        <g id="Accessories/Shoe/Flat-Simple" transform="translate(0.260653, 97.863644)" fill="#191847">
                            <path d="M0,8.46164241 L0.447219275,1.25314841 C3.06562528,2.01879186 6.34523331,1.71843794 10.2860434,0.352086653 C14.5233648,3.35289784 19.8575983,5.40193579 26.2887439,6.49920054 L26.2887447,6.49919553 C26.7794103,6.58291156 27.1092925,7.04844893 27.0255574,7.53900229 C27.0201348,7.57076959 27.0130116,7.6022232 27.0042183,7.6332275 L26.3859373,9.81323502 L10.2860434,9.81323502 L0.894438555,9.81323502 L0,8.46164241 Z" id="Shoe"></path>
                        </g>
                        <g id="Accessories/Shoe/Flat-Simple" transform="translate(42.620238, 97.863644)" fill="#191847">
                            <path d="M0,8.46164241 L0.447219275,1.25314841 C3.06562528,2.01879186 6.34523331,1.71843794 10.2860434,0.352086653 C14.5233648,3.35289784 19.8575983,5.40193579 26.2887439,6.49920054 L26.2887447,6.49919553 C26.7794103,6.58291156 27.1092925,7.04844893 27.0255574,7.53900229 C27.0201348,7.57076959 27.0130116,7.6022232 27.0042183,7.6332275 L26.3859373,9.81323502 L10.2860434,9.81323502 L0.894438555,9.81323502 L0,8.46164241 Z" id="Shoe"></path>
                        </g>
                    </g>
                    <g id="Body/Pointing-Forward" transform="translate(53.429713, 71.359098) rotate(10.000000) translate(-53.429713, -71.359098) translate(12.929713, 38.359098)">
                        <path d="M36.7775982,19.2870511 L52.3587675,10.7003352 C54.9498209,7.60435147 57.5027296,5.19988634 60.0174949,3.48693977 C60.785926,3.164141 62.1297175,2.96876012 60.8730171,5.21312464 C59.6163167,7.45748919 58.3947708,9.87509317 59.0350102,10.5665333 C59.6752497,11.2579735 61.2717439,10.2920621 62.0355401,11.4408957 C62.5447372,12.2067848 59.8172531,13.416674 53.8530868,15.0705633 L42.5314683,25.5010656 L36.7775982,19.2870511 Z M61.1806015,26.5318997 L68.0247431,22.7487525 C68.9850733,19.0719037 70.1330303,17.2219567 71.4686157,17.1989116 C72.4946224,16.7185576 70.7078385,21.3645995 72.6528231,20.9616955 C74.5978077,20.5587916 79.3449597,17.0062483 80.1629179,17.7275488 C81.3730336,18.7946664 80.2940197,22.071336 79.0226854,23.7013036 C76.6465627,26.7477112 74.6792352,27.7894906 69.8166806,29.1537071 C67.2742861,29.8669898 64.5255081,31.2967038 61.570346,33.4428488 L61.1806015,26.5318997 Z" id="Skin" fill="#D4A181"></path>
                        <path d="M29.6958215,15.7068312 C35.0952338,16.5032788 42.4647039,16.496212 50.910253,12.8123331 L52.8518161,20.0481455 C46.7247389,24.4930699 38.5985341,27.6553843 32.1233441,26.4414076 C27.0205371,25.4847271 25.3889344,18.8312878 29.6958215,15.7068312 Z" id="Sleeve" fill="#2026A2" transform="translate(40.035788, 19.757618) rotate(-9.000000) translate(-40.035788, -19.757618) "></path>
                        <path d="M36.5379885,28.348303 C42.3318275,29.8022183 52.047737,28.0876504 65.6857175,23.2045994 C69.0684997,30.2464116 70.6322753,35.2666836 70.3770442,38.2654155 C58.6776663,44.4146519 48.6502895,47.1562823 40.3890709,47.337272 C40.6516012,52.2695975 40.0549519,56.9628192 38.0506263,61.2511698 C33.9300737,70.0672911 9.80194782,61.9025798 1.68933243,63.5095945 C-3.39102582,46.908075 6.4320006,40.1612848 6.43990433,29.5386651 C6.44855977,17.9057645 15.7316066,-1.42108547e-13 17.097421,-1.42108547e-13 L29.5528955,-2.59011759e-14 C30.2401367,8.88419938 33.6992143,18.6753568 36.5379885,28.348303 Z" id="Clothes" fill="#1F28CF"></path>
                    </g>
                </g>
            </g>
        </g>
    </g>
</svg>